<?xml version="1.0" encoding="UTF-8" standalone="no"?>
<!DOCTYPE svg PUBLIC "-//W3C//DTD SVG 1.1//EN"
 "http://www.w3.org/Graphics/SVG/1.1/DTD/svg11.dtd">
<!-- Generated by graphviz version 2.43.0 (0)
 -->
<!-- Title: /home/runner/work/amr&#45;wind/amr&#45;wind/amr&#45;wind/wind_energy/ABLFieldInit.H Pages: 1 -->
<!--zoomable 302 -->

<svg id="main" version="1.1" xmlns="http://www.w3.org/2000/svg" xmlns:xlink="http://www.w3.org/1999/xlink" xml:space="preserve" onload="init(evt)">

<style type="text/css"><![CDATA[
.node, .edge {opacity: 0.7;}
.node.selected, .edge.selected {opacity: 1;}
.edge:hover path { stroke: red; }
.edge:hover polygon { stroke: red; fill: red; }
]]></style>

<defs>
  <circle id="rim" cx="0" cy="0" r="7"/>
  <circle id="rim2" cx="0" cy="0" r="3.5"/>
  <g id="zoomPlus">
    <use xlink:href="#rim" fill="#404040"><set attributeName="fill" to="#808080" begin="zoomplus.mouseover" end="zoomplus.mouseout"/></use>
    <path d="M-4,0h8M0,-4v8" fill="none" stroke="white" stroke-width="1.5" pointer-events="none"/>
  </g>
  <g id="zoomMin">
    <use xlink:href="#rim" fill="#404040"><set attributeName="fill" to="#808080" begin="zoomminus.mouseover" end="zoomminus.mouseout"/></use>
    <path d="M-4,0h8" fill="none" stroke="white" stroke-width="1.5" pointer-events="none"/>
  </g>
  <g id="arrowUp" transform="translate(30 24)">
    <use xlink:href="#rim"/>
    <path pointer-events="none" fill="none" stroke="white" stroke-width="1.5" d="M0,-3.0v7 M-2.5,-0.5L0,-3.0L2.5,-0.5"/>
  </g>
  <g id="arrowRight" transform="rotate(90) translate(36 -43)">
    <use xlink:href="#rim"/>
    <path pointer-events="none" fill="none" stroke="white" stroke-width="1.5" d="M0,-3.0v7 M-2.5,-0.5L0,-3.0L2.5,-0.5"/>
  </g>
  <g id="arrowDown" transform="rotate(180) translate(-30 -48)">
    <use xlink:href="#rim"/>
    <path pointer-events="none" fill="none" stroke="white" stroke-width="1.5" d="M0,-3.0v7 M-2.5,-0.5L0,-3.0L2.5,-0.5"/>
  </g>
  <g id="arrowLeft" transform="rotate(270) translate(-36 17)">
    <use xlink:href="#rim"/>
    <path pointer-events="none" fill="none" stroke="white" stroke-width="1.5" d="M0,-3.0v7 M-2.5,-0.5L0,-3.0L2.5,-0.5"/>
  </g>
  <g id="resetDef">
    <use xlink:href="#rim2" fill="#404040"><set attributeName="fill" to="#808080" begin="reset.mouseover" end="reset.mouseout"/></use>
  </g>
</defs>
<script type="application/ecmascript">
var viewWidth = 3258;
var viewHeight = 302;
var sectionId = 'dynsection-1';
</script>
<script type="application/ecmascript" xlink:href="svg.min.js"/>
<svg id="graph" class="graph">
<g id="viewport">
<title>/home/runner/work/amr&#45;wind/amr&#45;wind/amr&#45;wind/wind_energy/ABLFieldInit.H</title>
<!-- Node1 -->
<g id="Node000001" class="node">
<title>Node1</title>
<g id="a_Node000001"><a xlink:title=" ">
<polygon fill="#999999" stroke="#666666" points="2631,-294 2478,-294 2478,-253 2631,-253 2631,-294"/>
<text text-anchor="start" x="2486" y="-282" font-family="Helvetica,sans-Serif" font-size="10.00">/home/runner/work/amr</text>
<text text-anchor="start" x="2486" y="-271" font-family="Helvetica,sans-Serif" font-size="10.00">&#45;wind/amr&#45;wind/amr&#45;wind</text>
<text text-anchor="middle" x="2554.5" y="-260" font-family="Helvetica,sans-Serif" font-size="10.00">/wind_energy/ABLFieldInit.H</text>
</a>
</g>
</g>
<!-- Node2 -->
<g id="Node000002" class="node">
<title>Node2</title>
<g id="a_Node000002"><a xlink:href="_a_b_l_8_h.html" target="_top" xlink:title=" ">
<polygon fill="white" stroke="#666666" points="1902,-217 1759,-217 1759,-176 1902,-176 1902,-217"/>
<text text-anchor="start" x="1767" y="-205" font-family="Helvetica,sans-Serif" font-size="10.00">/home/runner/work/amr</text>
<text text-anchor="start" x="1767" y="-194" font-family="Helvetica,sans-Serif" font-size="10.00">&#45;wind/amr&#45;wind/amr&#45;wind</text>
<text text-anchor="middle" x="1830.5" y="-183" font-family="Helvetica,sans-Serif" font-size="10.00">/wind_energy/ABL.H</text>
</a>
</g>
</g>
<!-- Node1&#45;&gt;Node2 -->
<g id="edge1_Node000001_Node000002" class="edge">
<title>Node1&#45;&gt;Node2</title>
<g id="a_edge1_Node000001_Node000002"><a xlink:title=" ">
<path fill="none" stroke="#63b8ff" d="M2467.55,-263.49C2323,-248.52 2035.96,-218.78 1902.21,-204.93"/>
<polygon fill="#63b8ff" stroke="#63b8ff" points="2467.4,-267 2477.7,-264.54 2468.12,-260.03 2467.4,-267"/>
</a>
</g>
</g>
<!-- Node19 -->
<g id="Node000019" class="node">
<title>Node19</title>
<g id="a_Node000019"><a xlink:href="_a_b_l_8cpp.html" target="_top" xlink:title=" ">
<polygon fill="white" stroke="#666666" points="3250,-134.5 3107,-134.5 3107,-93.5 3250,-93.5 3250,-134.5"/>
<text text-anchor="start" x="3115" y="-122.5" font-family="Helvetica,sans-Serif" font-size="10.00">/home/runner/work/amr</text>
<text text-anchor="start" x="3115" y="-111.5" font-family="Helvetica,sans-Serif" font-size="10.00">&#45;wind/amr&#45;wind/amr&#45;wind</text>
<text text-anchor="middle" x="3178.5" y="-100.5" font-family="Helvetica,sans-Serif" font-size="10.00">/wind_energy/ABL.cpp</text>
</a>
</g>
</g>
<!-- Node1&#45;&gt;Node19 -->
<g id="edge21_Node000001_Node000019" class="edge">
<title>Node1&#45;&gt;Node19</title>
<g id="a_edge21_Node000001_Node000019"><a xlink:title=" ">
<path fill="none" stroke="#63b8ff" d="M2551.64,-242.76C2551.33,-220.91 2555.01,-192.3 2573.5,-176 2617.28,-137.41 3040.13,-150.68 3097.5,-140 3105.17,-138.57 3113.13,-136.67 3120.94,-134.54"/>
<polygon fill="#63b8ff" stroke="#63b8ff" points="2548.15,-243.01 2552.06,-252.86 2555.14,-242.72 2548.15,-243.01"/>
</a>
</g>
</g>
<!-- Node22 -->
<g id="Node000022" class="node">
<title>Node22</title>
<g id="a_Node000022"><a xlink:href="_a_b_l_field_init_8cpp.html" target="_top" xlink:title=" ">
<polygon fill="white" stroke="#666666" points="2746,-217 2583,-217 2583,-176 2746,-176 2746,-217"/>
<text text-anchor="start" x="2591" y="-205" font-family="Helvetica,sans-Serif" font-size="10.00">/home/runner/work/amr</text>
<text text-anchor="start" x="2591" y="-194" font-family="Helvetica,sans-Serif" font-size="10.00">&#45;wind/amr&#45;wind/amr&#45;wind</text>
<text text-anchor="middle" x="2664.5" y="-183" font-family="Helvetica,sans-Serif" font-size="10.00">/wind_energy/ABLFieldInit.cpp</text>
</a>
</g>
</g>
<!-- Node1&#45;&gt;Node22 -->
<g id="edge22_Node000001_Node000022" class="edge">
<title>Node1&#45;&gt;Node22</title>
<g id="a_edge22_Node000001_Node000022"><a xlink:title=" ">
<path fill="none" stroke="#63b8ff" d="M2591.76,-247.09C2606.1,-237.32 2622.22,-226.32 2635.65,-217.17"/>
<polygon fill="#63b8ff" stroke="#63b8ff" points="2589.4,-244.47 2583.11,-252.99 2593.35,-250.25 2589.4,-244.47"/>
</a>
</g>
</g>
<!-- Node3 -->
<g id="Node000003" class="node">
<title>Node3</title>
<g id="a_Node000003"><a xlink:href="_c_f_d_sim_8cpp.html" target="_top" xlink:title=" ">
<polygon fill="white" stroke="#666666" points="143,-134.5 0,-134.5 0,-93.5 143,-93.5 143,-134.5"/>
<text text-anchor="start" x="8" y="-122.5" font-family="Helvetica,sans-Serif" font-size="10.00">/home/runner/work/amr</text>
<text text-anchor="start" x="8" y="-111.5" font-family="Helvetica,sans-Serif" font-size="10.00">&#45;wind/amr&#45;wind/amr&#45;wind</text>
<text text-anchor="middle" x="71.5" y="-100.5" font-family="Helvetica,sans-Serif" font-size="10.00">/CFDSim.cpp</text>
</a>
</g>
</g>
<!-- Node2&#45;&gt;Node3 -->
<g id="edge2_Node000002_Node000003" class="edge">
<title>Node2&#45;&gt;Node3</title>
<g id="a_edge2_Node000002_Node000003"><a xlink:title=" ">
<path fill="none" stroke="#63b8ff" d="M1748.9,-195.71C1456.81,-196.01 464.1,-193 151.5,-140 143.61,-138.66 135.42,-136.75 127.42,-134.56"/>
<polygon fill="#63b8ff" stroke="#63b8ff" points="1749,-199.21 1758.99,-195.7 1748.99,-192.21 1749,-199.21"/>
</a>
</g>
</g>
<!-- Node4 -->
<g id="Node000004" class="node">
<title>Node4</title>
<g id="a_Node000004"><a xlink:href="_a_b_l_forcing_8cpp.html" target="_top" xlink:title=" ">
<polygon fill="white" stroke="#666666" points="324,-140 161,-140 161,-88 324,-88 324,-140"/>
<text text-anchor="start" x="169" y="-128" font-family="Helvetica,sans-Serif" font-size="10.00">/home/runner/work/amr</text>
<text text-anchor="start" x="169" y="-117" font-family="Helvetica,sans-Serif" font-size="10.00">&#45;wind/amr&#45;wind/amr&#45;wind</text>
<text text-anchor="start" x="169" y="-106" font-family="Helvetica,sans-Serif" font-size="10.00">/equation_systems/icns</text>
<text text-anchor="middle" x="242.5" y="-95" font-family="Helvetica,sans-Serif" font-size="10.00">/source_terms/ABLForcing.cpp</text>
</a>
</g>
</g>
<!-- Node2&#45;&gt;Node4 -->
<g id="edge3_Node000002_Node000004" class="edge">
<title>Node2&#45;&gt;Node4</title>
<g id="a_edge3_Node000002_Node000004"><a xlink:title=" ">
<path fill="none" stroke="#63b8ff" d="M1748.81,-194.95C1477.79,-192.76 609.81,-182.49 333.5,-140 330.42,-139.53 327.3,-138.99 324.16,-138.39"/>
<polygon fill="#63b8ff" stroke="#63b8ff" points="1748.94,-198.46 1758.97,-195.04 1749,-191.46 1748.94,-198.46"/>
</a>
</g>
</g>
<!-- Node5 -->
<g id="Node000005" class="node">
<title>Node5</title>
<g id="a_Node000005"><a xlink:href="_a_b_l_mean_boussinesq_8cpp.html" target="_top" xlink:title=" ">
<polygon fill="white" stroke="#666666" points="552.5,-140 342.5,-140 342.5,-88 552.5,-88 552.5,-140"/>
<text text-anchor="start" x="350.5" y="-128" font-family="Helvetica,sans-Serif" font-size="10.00">/home/runner/work/amr</text>
<text text-anchor="start" x="350.5" y="-117" font-family="Helvetica,sans-Serif" font-size="10.00">&#45;wind/amr&#45;wind/amr&#45;wind</text>
<text text-anchor="start" x="350.5" y="-106" font-family="Helvetica,sans-Serif" font-size="10.00">/equation_systems/icns</text>
<text text-anchor="middle" x="447.5" y="-95" font-family="Helvetica,sans-Serif" font-size="10.00">/source_terms/ABLMeanBoussinesq.cpp</text>
</a>
</g>
</g>
<!-- Node2&#45;&gt;Node5 -->
<g id="edge4_Node000002_Node000005" class="edge">
<title>Node2&#45;&gt;Node5</title>
<g id="a_edge4_Node000002_Node000005"><a xlink:title=" ">
<path fill="none" stroke="#63b8ff" d="M1748.78,-193.77C1506.14,-188.33 792.43,-170.14 561.5,-140 558.59,-139.62 555.64,-139.2 552.67,-138.75"/>
<polygon fill="#63b8ff" stroke="#63b8ff" points="1748.87,-197.27 1758.94,-193.99 1749.03,-190.27 1748.87,-197.27"/>
</a>
</g>
</g>
<!-- Node6 -->
<g id="Node000006" class="node">
<title>Node6</title>
<g id="a_Node000006"><a xlink:href="_a_b_l_meso_forcing_mom_8cpp.html" target="_top" xlink:title=" ">
<polygon fill="white" stroke="#666666" points="784.5,-140 570.5,-140 570.5,-88 784.5,-88 784.5,-140"/>
<text text-anchor="start" x="578.5" y="-128" font-family="Helvetica,sans-Serif" font-size="10.00">/home/runner/work/amr</text>
<text text-anchor="start" x="578.5" y="-117" font-family="Helvetica,sans-Serif" font-size="10.00">&#45;wind/amr&#45;wind/amr&#45;wind</text>
<text text-anchor="start" x="578.5" y="-106" font-family="Helvetica,sans-Serif" font-size="10.00">/equation_systems/icns</text>
<text text-anchor="middle" x="677.5" y="-95" font-family="Helvetica,sans-Serif" font-size="10.00">/source_terms/ABLMesoForcingMom.cpp</text>
</a>
</g>
</g>
<!-- Node2&#45;&gt;Node6 -->
<g id="edge5_Node000002_Node000006" class="edge">
<title>Node2&#45;&gt;Node6</title>
<g id="a_edge5_Node000002_Node000006"><a xlink:title=" ">
<path fill="none" stroke="#63b8ff" d="M1748.5,-195.58C1572.55,-194.77 1146.07,-187.57 792.5,-140 789.87,-139.65 787.21,-139.26 784.52,-138.86"/>
<polygon fill="#63b8ff" stroke="#63b8ff" points="1748.7,-199.08 1758.71,-195.62 1748.73,-192.08 1748.7,-199.08"/>
</a>
</g>
</g>
<!-- Node7 -->
<g id="Node000007" class="node">
<title>Node7</title>
<g id="a_Node000007"><a xlink:href="_drag_forcing_8cpp.html" target="_top" xlink:title=" ">
<polygon fill="white" stroke="#666666" points="969,-140 802,-140 802,-88 969,-88 969,-140"/>
<text text-anchor="start" x="810" y="-128" font-family="Helvetica,sans-Serif" font-size="10.00">/home/runner/work/amr</text>
<text text-anchor="start" x="810" y="-117" font-family="Helvetica,sans-Serif" font-size="10.00">&#45;wind/amr&#45;wind/amr&#45;wind</text>
<text text-anchor="start" x="810" y="-106" font-family="Helvetica,sans-Serif" font-size="10.00">/equation_systems/icns</text>
<text text-anchor="middle" x="885.5" y="-95" font-family="Helvetica,sans-Serif" font-size="10.00">/source_terms/DragForcing.cpp</text>
</a>
</g>
</g>
<!-- Node2&#45;&gt;Node7 -->
<g id="edge6_Node000002_Node000007" class="edge">
<title>Node2&#45;&gt;Node7</title>
<g id="a_edge6_Node000002_Node000007"><a xlink:title=" ">
<path fill="none" stroke="#63b8ff" d="M1748.77,-195.52C1596.29,-194.38 1258.52,-186.29 978.5,-140 975.45,-139.5 972.35,-138.93 969.23,-138.32"/>
<polygon fill="#63b8ff" stroke="#63b8ff" points="1748.97,-199.02 1758.99,-195.59 1749.01,-192.02 1748.97,-199.02"/>
</a>
</g>
</g>
<!-- Node8 -->
<g id="Node000008" class="node">
<title>Node8</title>
<g id="a_Node000008"><a xlink:href="_forest_forcing_8cpp.html" target="_top" xlink:title=" ">
<polygon fill="white" stroke="#666666" points="1161.5,-140 987.5,-140 987.5,-88 1161.5,-88 1161.5,-140"/>
<text text-anchor="start" x="995.5" y="-128" font-family="Helvetica,sans-Serif" font-size="10.00">/home/runner/work/amr</text>
<text text-anchor="start" x="995.5" y="-117" font-family="Helvetica,sans-Serif" font-size="10.00">&#45;wind/amr&#45;wind/amr&#45;wind</text>
<text text-anchor="start" x="995.5" y="-106" font-family="Helvetica,sans-Serif" font-size="10.00">/equation_systems/icns</text>
<text text-anchor="middle" x="1074.5" y="-95" font-family="Helvetica,sans-Serif" font-size="10.00">/source_terms/ForestForcing.cpp</text>
</a>
</g>
</g>
<!-- Node2&#45;&gt;Node8 -->
<g id="edge7_Node000002_Node000008" class="edge">
<title>Node2&#45;&gt;Node8</title>
<g id="a_edge7_Node000002_Node000008"><a xlink:title=" ">
<path fill="none" stroke="#63b8ff" d="M1748.41,-193.1C1623.04,-188.42 1376.66,-175.25 1170.5,-140 1167.61,-139.51 1164.69,-138.97 1161.74,-138.39"/>
<polygon fill="#63b8ff" stroke="#63b8ff" points="1748.58,-196.61 1758.7,-193.48 1748.83,-189.61 1748.58,-196.61"/>
</a>
</g>
</g>
<!-- Node9 -->
<g id="Node000009" class="node">
<title>Node9</title>
<g id="a_Node000009"><a xlink:href="_hurricane_forcing_8cpp.html" target="_top" xlink:title=" ">
<polygon fill="white" stroke="#666666" points="1371,-140 1180,-140 1180,-88 1371,-88 1371,-140"/>
<text text-anchor="start" x="1188" y="-128" font-family="Helvetica,sans-Serif" font-size="10.00">/home/runner/work/amr</text>
<text text-anchor="start" x="1188" y="-117" font-family="Helvetica,sans-Serif" font-size="10.00">&#45;wind/amr&#45;wind/amr&#45;wind</text>
<text text-anchor="start" x="1188" y="-106" font-family="Helvetica,sans-Serif" font-size="10.00">/equation_systems/icns</text>
<text text-anchor="middle" x="1275.5" y="-95" font-family="Helvetica,sans-Serif" font-size="10.00">/source_terms/HurricaneForcing.cpp</text>
</a>
</g>
</g>
<!-- Node2&#45;&gt;Node9 -->
<g id="edge8_Node000002_Node000009" class="edge">
<title>Node2&#45;&gt;Node9</title>
<g id="a_edge8_Node000002_Node000009"><a xlink:title=" ">
<path fill="none" stroke="#63b8ff" d="M1748.43,-188.22C1657.72,-179.53 1507.5,-163.18 1379.5,-140 1376.76,-139.5 1373.98,-138.98 1371.18,-138.43"/>
<polygon fill="#63b8ff" stroke="#63b8ff" points="1748.36,-191.73 1758.65,-189.2 1749.03,-184.76 1748.36,-191.73"/>
</a>
</g>
</g>
<!-- Node10 -->
<g id="Node000010" class="node">
<title>Node10</title>
<g id="a_Node000010"><a xlink:href="_a_b_l_meso_forcing_temp_8cpp.html" target="_top" xlink:title=" ">
<polygon fill="white" stroke="#666666" points="1604,-140 1389,-140 1389,-88 1604,-88 1604,-140"/>
<text text-anchor="start" x="1397" y="-128" font-family="Helvetica,sans-Serif" font-size="10.00">/home/runner/work/amr</text>
<text text-anchor="start" x="1397" y="-117" font-family="Helvetica,sans-Serif" font-size="10.00">&#45;wind/amr&#45;wind/amr&#45;wind</text>
<text text-anchor="start" x="1397" y="-106" font-family="Helvetica,sans-Serif" font-size="10.00">/equation_systems/temperature</text>
<text text-anchor="middle" x="1496.5" y="-95" font-family="Helvetica,sans-Serif" font-size="10.00">/source_terms/ABLMesoForcingTemp.cpp</text>
</a>
</g>
</g>
<!-- Node2&#45;&gt;Node10 -->
<g id="edge9_Node000002_Node000010" class="edge">
<title>Node2&#45;&gt;Node10</title>
<g id="a_edge9_Node000002_Node000010"><a xlink:title=" ">
<path fill="none" stroke="#63b8ff" d="M1748.9,-175.83C1704.15,-165.05 1648.2,-151.56 1600.36,-140.03"/>
<polygon fill="#63b8ff" stroke="#63b8ff" points="1748.31,-179.29 1758.85,-178.23 1749.95,-172.49 1748.31,-179.29"/>
</a>
</g>
</g>
<!-- Node11 -->
<g id="Node000011" class="node">
<title>Node11</title>
<g id="a_Node000011"><a xlink:href="_hurricane_temp_forcing_8cpp.html" target="_top" xlink:title=" ">
<polygon fill="white" stroke="#666666" points="1840.5,-140 1622.5,-140 1622.5,-88 1840.5,-88 1840.5,-140"/>
<text text-anchor="start" x="1630.5" y="-128" font-family="Helvetica,sans-Serif" font-size="10.00">/home/runner/work/amr</text>
<text text-anchor="start" x="1630.5" y="-117" font-family="Helvetica,sans-Serif" font-size="10.00">&#45;wind/amr&#45;wind/amr&#45;wind</text>
<text text-anchor="start" x="1630.5" y="-106" font-family="Helvetica,sans-Serif" font-size="10.00">/equation_systems/temperature</text>
<text text-anchor="middle" x="1731.5" y="-95" font-family="Helvetica,sans-Serif" font-size="10.00">/source_terms/HurricaneTempForcing.cpp</text>
</a>
</g>
</g>
<!-- Node2&#45;&gt;Node11 -->
<g id="edge10_Node000002_Node000011" class="edge">
<title>Node2&#45;&gt;Node11</title>
<g id="a_edge10_Node000002_Node000011"><a xlink:title=" ">
<path fill="none" stroke="#63b8ff" d="M1798.24,-169.26C1786.79,-159.96 1773.93,-149.5 1762.59,-140.28"/>
<polygon fill="#63b8ff" stroke="#63b8ff" points="1796.31,-172.21 1806.28,-175.81 1800.73,-166.78 1796.31,-172.21"/>
</a>
</g>
</g>
<!-- Node12 -->
<g id="Node000012" class="node">
<title>Node12</title>
<g id="a_Node000012"><a xlink:href="helics_8cpp.html" target="_top" xlink:title=" ">
<polygon fill="white" stroke="#666666" points="2002,-134.5 1859,-134.5 1859,-93.5 2002,-93.5 2002,-134.5"/>
<text text-anchor="start" x="1867" y="-122.5" font-family="Helvetica,sans-Serif" font-size="10.00">/home/runner/work/amr</text>
<text text-anchor="start" x="1867" y="-111.5" font-family="Helvetica,sans-Serif" font-size="10.00">&#45;wind/amr&#45;wind/amr&#45;wind</text>
<text text-anchor="middle" x="1930.5" y="-100.5" font-family="Helvetica,sans-Serif" font-size="10.00">/helics.cpp</text>
</a>
</g>
</g>
<!-- Node2&#45;&gt;Node12 -->
<g id="edge11_Node000002_Node000012" class="edge">
<title>Node2&#45;&gt;Node12</title>
<g id="a_edge11_Node000002_Node000012"><a xlink:title=" ">
<path fill="none" stroke="#63b8ff" d="M1862.91,-169.41C1876.89,-158.15 1892.97,-145.21 1905.94,-134.77"/>
<polygon fill="#63b8ff" stroke="#63b8ff" points="1860.56,-166.81 1854.96,-175.81 1864.95,-172.26 1860.56,-166.81"/>
</a>
</g>
</g>
<!-- Node13 -->
<g id="Node000013" class="node">
<title>Node13</title>
<g id="a_Node000013"><a xlink:href="incflo_8cpp.html" target="_top" xlink:title=" ">
<polygon fill="white" stroke="#666666" points="2163,-134.5 2020,-134.5 2020,-93.5 2163,-93.5 2163,-134.5"/>
<text text-anchor="start" x="2028" y="-122.5" font-family="Helvetica,sans-Serif" font-size="10.00">/home/runner/work/amr</text>
<text text-anchor="start" x="2028" y="-111.5" font-family="Helvetica,sans-Serif" font-size="10.00">&#45;wind/amr&#45;wind/amr&#45;wind</text>
<text text-anchor="middle" x="2091.5" y="-100.5" font-family="Helvetica,sans-Serif" font-size="10.00">/incflo.cpp</text>
</a>
</g>
</g>
<!-- Node2&#45;&gt;Node13 -->
<g id="edge12_Node000002_Node000013" class="edge">
<title>Node2&#45;&gt;Node13</title>
<g id="a_edge12_Node000002_Node000013"><a xlink:title=" ">
<path fill="none" stroke="#63b8ff" d="M1903.74,-172.92C1936.41,-162.85 1975.38,-150.83 2010.5,-140 2016.27,-138.22 2022.26,-136.37 2028.27,-134.52"/>
<polygon fill="#63b8ff" stroke="#63b8ff" points="1902.34,-169.69 1893.81,-175.98 1904.4,-176.38 1902.34,-169.69"/>
</a>
</g>
</g>
<!-- Node14 -->
<g id="Node000014" class="node">
<title>Node14</title>
<g id="a_Node000014"><a xlink:href="nodal__projection__ops_8_h.html" target="_top" xlink:title=" ">
<polygon fill="white" stroke="#666666" points="2366,-134.5 2181,-134.5 2181,-93.5 2366,-93.5 2366,-134.5"/>
<text text-anchor="start" x="2189" y="-122.5" font-family="Helvetica,sans-Serif" font-size="10.00">/home/runner/work/amr</text>
<text text-anchor="start" x="2189" y="-111.5" font-family="Helvetica,sans-Serif" font-size="10.00">&#45;wind/amr&#45;wind/amr&#45;wind</text>
<text text-anchor="middle" x="2273.5" y="-100.5" font-family="Helvetica,sans-Serif" font-size="10.00">/projection/nodal_projection_ops.H</text>
</a>
</g>
</g>
<!-- Node2&#45;&gt;Node14 -->
<g id="edge13_Node000002_Node000014" class="edge">
<title>Node2&#45;&gt;Node14</title>
<g id="a_edge13_Node000002_Node000014"><a xlink:title=" ">
<path fill="none" stroke="#63b8ff" d="M1912.3,-184.04C1981.58,-173.89 2083.41,-157.93 2171.5,-140 2179.63,-138.34 2188.09,-136.49 2196.51,-134.55"/>
<polygon fill="#63b8ff" stroke="#63b8ff" points="1911.71,-180.59 1902.32,-185.5 1912.72,-187.52 1911.71,-180.59"/>
</a>
</g>
</g>
<!-- Node17 -->
<g id="Node000017" class="node">
<title>Node17</title>
<g id="a_Node000017"><a xlink:href="init_8cpp.html" target="_top" xlink:title=" ">
<polygon fill="white" stroke="#666666" points="2527,-134.5 2384,-134.5 2384,-93.5 2527,-93.5 2527,-134.5"/>
<text text-anchor="start" x="2392" y="-122.5" font-family="Helvetica,sans-Serif" font-size="10.00">/home/runner/work/amr</text>
<text text-anchor="start" x="2392" y="-111.5" font-family="Helvetica,sans-Serif" font-size="10.00">&#45;wind/amr&#45;wind/amr&#45;wind</text>
<text text-anchor="middle" x="2455.5" y="-100.5" font-family="Helvetica,sans-Serif" font-size="10.00">/setup/init.cpp</text>
</a>
</g>
</g>
<!-- Node2&#45;&gt;Node17 -->
<g id="edge16_Node000002_Node000017" class="edge">
<title>Node2&#45;&gt;Node17</title>
<g id="a_edge16_Node000002_Node000017"><a xlink:title=" ">
<path fill="none" stroke="#63b8ff" d="M1912.12,-192.2C2019.19,-186.74 2212.5,-172.93 2374.5,-140 2381.86,-138.51 2389.49,-136.61 2397.01,-134.54"/>
<polygon fill="#63b8ff" stroke="#63b8ff" points="1911.84,-188.71 1902.03,-192.71 1912.19,-195.71 1911.84,-188.71"/>
</a>
</g>
</g>
<!-- Node18 -->
<g id="Node000018" class="node">
<title>Node18</title>
<g id="a_Node000018"><a xlink:href="_kosovic_8cpp.html" target="_top" xlink:title=" ">
<polygon fill="white" stroke="#666666" points="2697.5,-134.5 2545.5,-134.5 2545.5,-93.5 2697.5,-93.5 2697.5,-134.5"/>
<text text-anchor="start" x="2553.5" y="-122.5" font-family="Helvetica,sans-Serif" font-size="10.00">/home/runner/work/amr</text>
<text text-anchor="start" x="2553.5" y="-111.5" font-family="Helvetica,sans-Serif" font-size="10.00">&#45;wind/amr&#45;wind/amr&#45;wind</text>
<text text-anchor="middle" x="2621.5" y="-100.5" font-family="Helvetica,sans-Serif" font-size="10.00">/turbulence/LES/Kosovic.cpp</text>
</a>
</g>
</g>
<!-- Node2&#45;&gt;Node18 -->
<g id="edge17_Node000002_Node000018" class="edge">
<title>Node2&#45;&gt;Node18</title>
<g id="a_edge17_Node000002_Node000018"><a xlink:title=" ">
<path fill="none" stroke="#63b8ff" d="M1912.21,-194.47C2044.3,-191.59 2312.44,-180.76 2535.5,-140 2543.45,-138.55 2551.72,-136.65 2559.86,-134.56"/>
<polygon fill="#63b8ff" stroke="#63b8ff" points="1912.1,-190.97 1902.17,-194.68 1912.24,-197.97 1912.1,-190.97"/>
</a>
</g>
</g>
<!-- Node2&#45;&gt;Node19 -->
<g id="edge18_Node000002_Node000019" class="edge">
<title>Node2&#45;&gt;Node19</title>
<g id="a_edge18_Node000002_Node000019"><a xlink:title=" ">
<path fill="none" stroke="#63b8ff" d="M1912.64,-193.12C2174.86,-185.36 2981.49,-160.1 3097.5,-140 3105.33,-138.64 3113.46,-136.75 3121.42,-134.6"/>
<polygon fill="#63b8ff" stroke="#63b8ff" points="1912.32,-189.63 1902.43,-193.42 1912.53,-196.63 1912.32,-189.63"/>
</a>
</g>
</g>
<!-- Node20 -->
<g id="Node000020" class="node">
<title>Node20</title>
<g id="a_Node000020"><a xlink:href="_a_b_l_anelastic_8cpp.html" target="_top" xlink:title=" ">
<polygon fill="white" stroke="#666666" points="2885.5,-134.5 2715.5,-134.5 2715.5,-93.5 2885.5,-93.5 2885.5,-134.5"/>
<text text-anchor="start" x="2723.5" y="-122.5" font-family="Helvetica,sans-Serif" font-size="10.00">/home/runner/work/amr</text>
<text text-anchor="start" x="2723.5" y="-111.5" font-family="Helvetica,sans-Serif" font-size="10.00">&#45;wind/amr&#45;wind/amr&#45;wind</text>
<text text-anchor="middle" x="2800.5" y="-100.5" font-family="Helvetica,sans-Serif" font-size="10.00">/wind_energy/ABLAnelastic.cpp</text>
</a>
</g>
</g>
<!-- Node2&#45;&gt;Node20 -->
<g id="edge19_Node000002_Node000020" class="edge">
<title>Node2&#45;&gt;Node20</title>
<g id="a_edge19_Node000002_Node000020"><a xlink:title=" ">
<path fill="none" stroke="#63b8ff" d="M1912.72,-195.66C2068.61,-194.77 2417.41,-187.13 2706.5,-140 2715.33,-138.56 2724.54,-136.64 2733.58,-134.51"/>
<polygon fill="#63b8ff" stroke="#63b8ff" points="1912.27,-192.16 1902.29,-195.71 1912.3,-199.16 1912.27,-192.16"/>
</a>
</g>
</g>
<!-- Node21 -->
<g id="Node000021" class="node">
<title>Node21</title>
<g id="a_Node000021"><a xlink:href="_a_b_l_wall_function_8cpp.html" target="_top" xlink:title=" ">
<polygon fill="white" stroke="#666666" points="3089,-134.5 2904,-134.5 2904,-93.5 3089,-93.5 3089,-134.5"/>
<text text-anchor="start" x="2912" y="-122.5" font-family="Helvetica,sans-Serif" font-size="10.00">/home/runner/work/amr</text>
<text text-anchor="start" x="2912" y="-111.5" font-family="Helvetica,sans-Serif" font-size="10.00">&#45;wind/amr&#45;wind/amr&#45;wind</text>
<text text-anchor="middle" x="2996.5" y="-100.5" font-family="Helvetica,sans-Serif" font-size="10.00">/wind_energy/ABLWallFunction.cpp</text>
</a>
</g>
</g>
<!-- Node2&#45;&gt;Node21 -->
<g id="edge20_Node000002_Node000021" class="edge">
<title>Node2&#45;&gt;Node21</title>
<g id="a_edge20_Node000002_Node000021"><a xlink:title=" ">
<path fill="none" stroke="#63b8ff" d="M1912.52,-193.22C2127.78,-186.92 2705.33,-167.86 2894.5,-140 2904.15,-138.58 2914.22,-136.66 2924.12,-134.51"/>
<polygon fill="#63b8ff" stroke="#63b8ff" points="1912.13,-189.73 1902.23,-193.52 1912.33,-196.73 1912.13,-189.73"/>
</a>
</g>
</g>
<!-- Node15 -->
<g id="Node000015" class="node">
<title>Node15</title>
<g id="a_Node000015"><a xlink:href="_overset_ops_8cpp.html" target="_top" xlink:title=" ">
<polygon fill="white" stroke="#666666" points="2265,-46.5 2122,-46.5 2122,-5.5 2265,-5.5 2265,-46.5"/>
<text text-anchor="start" x="2130" y="-34.5" font-family="Helvetica,sans-Serif" font-size="10.00">/home/runner/work/amr</text>
<text text-anchor="start" x="2130" y="-23.5" font-family="Helvetica,sans-Serif" font-size="10.00">&#45;wind/amr&#45;wind/amr&#45;wind</text>
<text text-anchor="middle" x="2193.5" y="-12.5" font-family="Helvetica,sans-Serif" font-size="10.00">/overset/OversetOps.cpp</text>
</a>
</g>
</g>
<!-- Node14&#45;&gt;Node15 -->
<g id="edge14_Node000014_Node000015" class="edge">
<title>Node14&#45;&gt;Node15</title>
<g id="a_edge14_Node000014_Node000015"><a xlink:title=" ">
<path fill="none" stroke="#63b8ff" d="M2248.29,-85.9C2236.48,-73.2 2222.66,-58.35 2211.86,-46.74"/>
<polygon fill="#63b8ff" stroke="#63b8ff" points="2245.97,-88.55 2255.35,-93.49 2251.1,-83.78 2245.97,-88.55"/>
</a>
</g>
</g>
<!-- Node16 -->
<g id="Node000016" class="node">
<title>Node16</title>
<g id="a_Node000016"><a xlink:href="incflo__apply__nodal__projection_8cpp.html" target="_top" xlink:title=" ">
<polygon fill="white" stroke="#666666" points="2426,-52 2283,-52 2283,0 2426,0 2426,-52"/>
<text text-anchor="start" x="2291" y="-40" font-family="Helvetica,sans-Serif" font-size="10.00">/home/runner/work/amr</text>
<text text-anchor="start" x="2291" y="-29" font-family="Helvetica,sans-Serif" font-size="10.00">&#45;wind/amr&#45;wind/amr&#45;wind</text>
<text text-anchor="start" x="2291" y="-18" font-family="Helvetica,sans-Serif" font-size="10.00">/projection/incflo_apply</text>
<text text-anchor="middle" x="2354.5" y="-7" font-family="Helvetica,sans-Serif" font-size="10.00">_nodal_projection.cpp</text>
</a>
</g>
</g>
<!-- Node14&#45;&gt;Node16 -->
<g id="edge15_Node000014_Node000016" class="edge">
<title>Node14&#45;&gt;Node16</title>
<g id="a_edge15_Node000014_Node000016"><a xlink:title=" ">
<path fill="none" stroke="#63b8ff" d="M2298.96,-85.97C2309.09,-75.21 2320.69,-62.9 2330.65,-52.32"/>
<polygon fill="#63b8ff" stroke="#63b8ff" points="2296.19,-83.81 2291.88,-93.49 2301.28,-88.61 2296.19,-83.81"/>
</a>
</g>
</g>
</g>
</svg>

<g id="navigator" transform="translate(0 0)" fill="#404254">
  <rect fill="#f2f5e9" fill-opacity="0.5" stroke="#606060" stroke-width=".5" x="0" y="0" width="60" height="60"/>
  <use id="zoomplus" xlink:href="#zoomPlus" x="17" y="9" onmousedown="handleZoom(evt,'in')"/>
  <use id="zoomminus" xlink:href="#zoomMin" x="42" y="9" onmousedown="handleZoom(evt,'out')"/>
  <use id="reset" xlink:href="#resetDef" x="30" y="36" onmousedown="handleReset()"/>
   <use id="arrowup" xlink:href="#arrowUp" x="0" y="0" onmousedown="handlePan(0,-1)"/>
  <use id="arrowright" xlink:href="#arrowRight" x="0" y="0" onmousedown="handlePan(1,0)"/>
  <use id="arrowdown" xlink:href="#arrowDown" x="0" y="0" onmousedown="handlePan(0,1)"/>
  <use id="arrowleft" xlink:href="#arrowLeft" x="0" y="0" onmousedown="handlePan(-1,0)"/>
</g>
<svg viewBox="0 0 15 15" width="100%" height="30px" preserveAspectRatio="xMaxYMin meet">
 <g id="arrow_out" transform="scale(0.3 0.3)">
  <a xlink:href="_a_b_l_field_init_8_h__dep__incl_org.svg" target="_base">
   <rect id="button" ry="5" rx="5" y="6" x="6" height="38" width="38"
        fill="#f2f5e9" fill-opacity="0.5" stroke="#606060" stroke-width="1.0"/>
   <path id="arrow"
     d="M 11.500037,31.436501 C 11.940474,20.09759 22.043105,11.32322 32.158766,21.979434 L 37.068811,17.246167 C 37.068811,17.246167 37.088388,32 37.088388,32 L 22.160133,31.978069 C 22.160133,31.978069 26.997745,27.140456 26.997745,27.140456 C 18.528582,18.264221 13.291696,25.230495 11.500037,31.436501 z"
     style="fill:#404040;"/>
  </a>
 </g>
</svg>

<style type='text/css'>
<![CDATA[
[data-mouse-over-selected='false'] { opacity: 0.7; }
[data-mouse-over-selected='true']  { opacity: 1.0; }
]]>
</style>
<script type="application/ecmascript"><![CDATA[
document.addEventListener('DOMContentLoaded', (event) => {
  highlightEdges();
  highlightAdjacentNodes();
});
]]></script>
</svg>
