<?xml version="1.0" encoding="UTF-8" standalone="no"?>
<!DOCTYPE svg PUBLIC "-//W3C//DTD SVG 1.1//EN"
 "http://www.w3.org/Graphics/SVG/1.1/DTD/svg11.dtd">
<!-- Generated by graphviz version 2.43.0 (0)
 -->
<!-- Title: /home/runner/work/amr&#45;wind/amr&#45;wind/amr&#45;wind/wind_energy/ABLFieldInit.cpp Pages: 1 -->
<svg width="1741pt" height="346pt"
 viewBox="0.00 0.00 1741.00 346.00" xmlns="http://www.w3.org/2000/svg" xmlns:xlink="http://www.w3.org/1999/xlink">
<g id="graph0" class="graph" transform="scale(1 1) rotate(0) translate(4 342)">
<title>/home/runner/work/amr&#45;wind/amr&#45;wind/amr&#45;wind/wind_energy/ABLFieldInit.cpp</title>
<!-- Node1 -->
<g id="Node000001" class="node">
<title>Node1</title>
<g id="a_Node000001"><a xlink:title=" ">
<polygon fill="#999999" stroke="#666666" points="590,-338 427,-338 427,-297 590,-297 590,-338"/>
<text text-anchor="start" x="435" y="-326" font-family="Helvetica,sans-Serif" font-size="10.00">/home/runner/work/amr</text>
<text text-anchor="start" x="435" y="-315" font-family="Helvetica,sans-Serif" font-size="10.00">&#45;wind/amr&#45;wind/amr&#45;wind</text>
<text text-anchor="middle" x="508.5" y="-304" font-family="Helvetica,sans-Serif" font-size="10.00">/wind_energy/ABLFieldInit.cpp</text>
</a>
</g>
</g>
<!-- Node2 -->
<g id="Node000002" class="node">
<title>Node2</title>
<g id="a_Node000002"><a xlink:title=" ">
<polygon fill="#e0e0e0" stroke="#999999" points="47,-195 0,-195 0,-176 47,-176 47,-195"/>
<text text-anchor="middle" x="23.5" y="-183" font-family="Helvetica,sans-Serif" font-size="10.00">cmath</text>
</a>
</g>
</g>
<!-- Node1&#45;&gt;Node2 -->
<g id="edge1_Node000001_Node000002" class="edge">
<title>Node1&#45;&gt;Node2</title>
<g id="a_edge1_Node000001_Node000002"><a xlink:title=" ">
<path fill="none" stroke="#63b8ff" d="M426.87,-313.74C318.44,-308.77 133.89,-295.41 76.5,-261 54.65,-247.9 39.37,-221.94 31,-204.4"/>
<polygon fill="#63b8ff" stroke="#63b8ff" points="34.16,-202.9 26.88,-195.2 27.78,-205.76 34.16,-202.9"/>
</a>
</g>
</g>
<!-- Node3 -->
<g id="Node000003" class="node">
<title>Node3</title>
<g id="a_Node000003"><a xlink:title=" ">
<polygon fill="#e0e0e0" stroke="#999999" points="124,-195 65,-195 65,-176 124,-176 124,-195"/>
<text text-anchor="middle" x="94.5" y="-183" font-family="Helvetica,sans-Serif" font-size="10.00">numbers</text>
</a>
</g>
</g>
<!-- Node1&#45;&gt;Node3 -->
<g id="edge2_Node000001_Node000003" class="edge">
<title>Node1&#45;&gt;Node3</title>
<g id="a_edge2_Node000001_Node000003"><a xlink:title=" ">
<path fill="none" stroke="#63b8ff" d="M426.64,-311.41C310.75,-303.36 110.41,-285.99 88.5,-261 75.17,-245.79 80.29,-221.49 86.34,-204.8"/>
<polygon fill="#63b8ff" stroke="#63b8ff" points="89.76,-205.69 90.27,-195.11 83.27,-203.06 89.76,-205.69"/>
</a>
</g>
</g>
<!-- Node4 -->
<g id="Node000004" class="node">
<title>Node4</title>
<g id="a_Node000004"><a xlink:title=" ">
<polygon fill="#e0e0e0" stroke="#999999" points="881.5,-74 837.5,-74 837.5,-55 881.5,-55 881.5,-74"/>
<text text-anchor="middle" x="859.5" y="-62" font-family="Helvetica,sans-Serif" font-size="10.00">string</text>
</a>
</g>
</g>
<!-- Node1&#45;&gt;Node4 -->
<g id="edge3_Node000001_Node000004" class="edge">
<title>Node1&#45;&gt;Node4</title>
<g id="a_edge3_Node000001_Node000004"><a xlink:title=" ">
<path fill="none" stroke="#63b8ff" d="M521.23,-296.81C544.93,-260.33 594.46,-185.09 605.5,-176 674.12,-119.55 776,-87.02 827.39,-73.29"/>
<polygon fill="#63b8ff" stroke="#63b8ff" points="828.47,-76.63 837.26,-70.72 826.7,-69.85 828.47,-76.63"/>
</a>
</g>
</g>
<!-- Node5 -->
<g id="Node000005" class="node">
<title>Node5</title>
<g id="a_Node000005"><a xlink:href="_a_b_l_field_init_8_h.html" target="_top" xlink:title=" ">
<polygon fill="white" stroke="#666666" points="1073.5,-261 945.5,-261 945.5,-231 1073.5,-231 1073.5,-261"/>
<text text-anchor="start" x="953.5" y="-249" font-family="Helvetica,sans-Serif" font-size="10.00">amr&#45;wind/wind_energy</text>
<text text-anchor="middle" x="1009.5" y="-238" font-family="Helvetica,sans-Serif" font-size="10.00">/ABLFieldInit.H</text>
</a>
</g>
</g>
<!-- Node1&#45;&gt;Node5 -->
<g id="edge4_Node000001_Node000005" class="edge">
<title>Node1&#45;&gt;Node5</title>
<g id="a_edge4_Node000001_Node000005"><a xlink:title=" ">
<path fill="none" stroke="#63b8ff" d="M590.11,-305.18C685.79,-291.91 842.99,-270.1 935.33,-257.29"/>
<polygon fill="#63b8ff" stroke="#63b8ff" points="936.02,-260.73 945.44,-255.89 935.05,-253.79 936.02,-260.73"/>
</a>
</g>
</g>
<!-- Node12 -->
<g id="Node000012" class="node">
<title>Node12</title>
<g id="a_Node000012"><a xlink:title=" ">
<polygon fill="#e0e0e0" stroke="#999999" points="355,-134.5 268,-134.5 268,-115.5 355,-115.5 355,-134.5"/>
<text text-anchor="middle" x="311.5" y="-122.5" font-family="Helvetica,sans-Serif" font-size="10.00">AMReX_Gpu.H</text>
</a>
</g>
</g>
<!-- Node1&#45;&gt;Node12 -->
<g id="edge42_Node000001_Node000012" class="edge">
<title>Node1&#45;&gt;Node12</title>
<g id="a_edge42_Node000001_Node000012"><a xlink:title=" ">
<path fill="none" stroke="#63b8ff" d="M426.87,-307.54C363.5,-298.96 282.51,-283.89 258.5,-261 230.55,-234.35 222.72,-210.28 240.5,-176 249.01,-159.6 265.65,-147.44 280.68,-139.22"/>
<polygon fill="#63b8ff" stroke="#63b8ff" points="282.41,-142.27 289.74,-134.61 279.24,-136.03 282.41,-142.27"/>
</a>
</g>
</g>
<!-- Node23 -->
<g id="Node000023" class="node">
<title>Node23</title>
<g id="a_Node000023"><a xlink:href="nc__interface_8_h.html" target="_top" xlink:title=" ">
<polygon fill="white" stroke="#666666" points="790,-261 665,-261 665,-231 790,-231 790,-261"/>
<text text-anchor="start" x="673" y="-249" font-family="Helvetica,sans-Serif" font-size="10.00">amr&#45;wind/utilities</text>
<text text-anchor="middle" x="727.5" y="-238" font-family="Helvetica,sans-Serif" font-size="10.00">/ncutils/nc_interface.H</text>
</a>
</g>
</g>
<!-- Node1&#45;&gt;Node23 -->
<g id="edge29_Node000001_Node000023" class="edge">
<title>Node1&#45;&gt;Node23</title>
<g id="a_edge29_Node000001_Node000023"><a xlink:title=" ">
<path fill="none" stroke="#63b8ff" d="M570.09,-296.96C602.62,-286.63 642.19,-274.07 673.51,-264.13"/>
<polygon fill="#63b8ff" stroke="#63b8ff" points="674.9,-267.36 683.37,-261 672.78,-260.69 674.9,-267.36"/>
</a>
</g>
</g>
<!-- Node27 -->
<g id="Node000027" class="node">
<title>Node27</title>
<g id="a_Node000027"><a xlink:title=" ">
<polygon fill="#e0e0e0" stroke="#999999" points="1245,-255.5 1092,-255.5 1092,-236.5 1245,-236.5 1245,-255.5"/>
<text text-anchor="middle" x="1168.5" y="-243.5" font-family="Helvetica,sans-Serif" font-size="10.00">AMReX_ParallelDescriptor.H</text>
</a>
</g>
</g>
<!-- Node1&#45;&gt;Node27 -->
<g id="edge36_Node000001_Node000027" class="edge">
<title>Node1&#45;&gt;Node27</title>
<g id="a_edge36_Node000001_Node000027"><a xlink:title=" ">
<path fill="none" stroke="#63b8ff" d="M590.43,-310.26C701.98,-301.39 907.75,-283.65 1082.5,-261 1091.22,-259.87 1100.41,-258.53 1109.42,-257.14"/>
<polygon fill="#63b8ff" stroke="#63b8ff" points="1110.13,-260.57 1119.46,-255.55 1109.04,-253.65 1110.13,-260.57"/>
</a>
</g>
</g>
<!-- Node28 -->
<g id="Node000028" class="node">
<title>Node28</title>
<g id="a_Node000028"><a xlink:href="trig__ops_8_h.html" target="_top" xlink:title=" ">
<polygon fill="white" stroke="#666666" points="201,-261 98,-261 98,-231 201,-231 201,-261"/>
<text text-anchor="start" x="106" y="-249" font-family="Helvetica,sans-Serif" font-size="10.00">amr&#45;wind/utilities</text>
<text text-anchor="middle" x="149.5" y="-238" font-family="Helvetica,sans-Serif" font-size="10.00">/trig_ops.H</text>
</a>
</g>
</g>
<!-- Node1&#45;&gt;Node28 -->
<g id="edge37_Node000001_Node000028" class="edge">
<title>Node1&#45;&gt;Node28</title>
<g id="a_edge37_Node000001_Node000028"><a xlink:title=" ">
<path fill="none" stroke="#63b8ff" d="M426.94,-301.54C368.11,-290.64 286.82,-275.32 215.5,-261 214.03,-260.7 212.54,-260.4 211.04,-260.1"/>
<polygon fill="#63b8ff" stroke="#63b8ff" points="211.5,-256.62 201,-258.04 210.09,-263.48 211.5,-256.62"/>
</a>
</g>
</g>
<!-- Node29 -->
<g id="Node000029" class="node">
<title>Node29</title>
<g id="a_Node000029"><a xlink:title=" ">
<polygon fill="#e0e0e0" stroke="#999999" points="1382,-255.5 1263,-255.5 1263,-236.5 1382,-236.5 1382,-255.5"/>
<text text-anchor="middle" x="1322.5" y="-243.5" font-family="Helvetica,sans-Serif" font-size="10.00">AMReX_ParmParse.H</text>
</a>
</g>
</g>
<!-- Node1&#45;&gt;Node29 -->
<g id="edge43_Node000001_Node000029" class="edge">
<title>Node1&#45;&gt;Node29</title>
<g id="a_edge43_Node000001_Node000029"><a xlink:title=" ">
<path fill="none" stroke="#63b8ff" d="M590,-313.87C727.55,-308.67 1014.29,-294.52 1254.5,-261 1261.24,-260.06 1268.31,-258.85 1275.24,-257.54"/>
<polygon fill="#63b8ff" stroke="#63b8ff" points="1276.11,-260.94 1285.24,-255.57 1274.75,-254.07 1276.11,-260.94"/>
</a>
</g>
</g>
<!-- Node30 -->
<g id="Node000030" class="node">
<title>Node30</title>
<g id="a_Node000030"><a xlink:href="linear__interpolation_8_h.html" target="_top" xlink:title=" ">
<polygon fill="white" stroke="#666666" points="393,-261 268,-261 268,-231 393,-231 393,-261"/>
<text text-anchor="start" x="276" y="-249" font-family="Helvetica,sans-Serif" font-size="10.00">amr&#45;wind/utilities</text>
<text text-anchor="middle" x="330.5" y="-238" font-family="Helvetica,sans-Serif" font-size="10.00">/linear_interpolation.H</text>
</a>
</g>
</g>
<!-- Node1&#45;&gt;Node30 -->
<g id="edge44_Node000001_Node000030" class="edge">
<title>Node1&#45;&gt;Node30</title>
<g id="a_edge44_Node000001_Node000030"><a xlink:title=" ">
<path fill="none" stroke="#63b8ff" d="M458.44,-296.96C432.46,-286.81 400.95,-274.51 375.71,-264.65"/>
<polygon fill="#63b8ff" stroke="#63b8ff" points="376.95,-261.38 366.37,-261 374.41,-267.9 376.95,-261.38"/>
</a>
</g>
</g>
<!-- Node32 -->
<g id="Node000032" class="node">
<title>Node32</title>
<g id="a_Node000032"><a xlink:href="io__utils_8_h.html" target="_top" xlink:title=" ">
<polygon fill="white" stroke="#666666" points="579,-140 476,-140 476,-110 579,-110 579,-140"/>
<text text-anchor="start" x="484" y="-128" font-family="Helvetica,sans-Serif" font-size="10.00">amr&#45;wind/utilities</text>
<text text-anchor="middle" x="527.5" y="-117" font-family="Helvetica,sans-Serif" font-size="10.00">/io_utils.H</text>
</a>
</g>
</g>
<!-- Node1&#45;&gt;Node32 -->
<g id="edge48_Node000001_Node000032" class="edge">
<title>Node1&#45;&gt;Node32</title>
<g id="a_edge48_Node000001_Node000032"><a xlink:title=" ">
<path fill="none" stroke="#63b8ff" d="M517.44,-296.92C521.71,-286.49 526.35,-273.31 528.5,-261 535.16,-222.85 532.81,-177.71 530.3,-150.49"/>
<polygon fill="#63b8ff" stroke="#63b8ff" points="533.76,-149.93 529.28,-140.33 526.8,-150.63 533.76,-149.93"/>
</a>
</g>
</g>
<!-- Node37 -->
<g id="Node000037" class="node">
<title>Node37</title>
<g id="a_Node000037"><a xlink:href="math__ops_8_h.html" target="_top" xlink:title=" ">
<polygon fill="white" stroke="#666666" points="520,-261 417,-261 417,-231 520,-231 520,-261"/>
<text text-anchor="start" x="425" y="-249" font-family="Helvetica,sans-Serif" font-size="10.00">amr&#45;wind/utilities</text>
<text text-anchor="middle" x="468.5" y="-238" font-family="Helvetica,sans-Serif" font-size="10.00">/math_ops.H</text>
</a>
</g>
</g>
<!-- Node1&#45;&gt;Node37 -->
<g id="edge55_Node000001_Node000037" class="edge">
<title>Node1&#45;&gt;Node37</title>
<g id="a_edge55_Node000001_Node000037"><a xlink:title=" ">
<path fill="none" stroke="#63b8ff" d="M497.14,-296.77C492.33,-288.4 486.68,-278.59 481.68,-269.9"/>
<polygon fill="#63b8ff" stroke="#63b8ff" points="484.6,-267.96 476.58,-261.04 478.53,-271.45 484.6,-267.96"/>
</a>
</g>
</g>
<!-- Node6 -->
<g id="Node000006" class="node">
<title>Node6</title>
<g id="a_Node000006"><a xlink:href="_field_8_h.html" target="_top" xlink:title=" ">
<polygon fill="white" stroke="#666666" points="1553.5,-195 1429.5,-195 1429.5,-176 1553.5,-176 1553.5,-195"/>
<text text-anchor="middle" x="1491.5" y="-183" font-family="Helvetica,sans-Serif" font-size="10.00">amr&#45;wind/core/Field.H</text>
</a>
</g>
</g>
<!-- Node5&#45;&gt;Node6 -->
<g id="edge5_Node000005_Node000006" class="edge">
<title>Node5&#45;&gt;Node6</title>
<g id="a_edge5_Node000005_Node000006"><a xlink:title=" ">
<path fill="none" stroke="#63b8ff" d="M1073.62,-232.54C1076.96,-232 1080.27,-231.48 1083.5,-231 1229.31,-209.45 1269.13,-211.84 1419.13,-195.14"/>
<polygon fill="#63b8ff" stroke="#63b8ff" points="1419.62,-198.6 1429.17,-194.01 1418.84,-191.65 1419.62,-198.6"/>
</a>
</g>
</g>
<!-- Node5&#45;&gt;Node12 -->
<g id="edge28_Node000005_Node000012" class="edge">
<title>Node5&#45;&gt;Node12</title>
<g id="a_edge28_Node000005_Node000012"><a xlink:title=" ">
<path fill="none" stroke="#63b8ff" d="M982.23,-230.94C949.5,-214.76 892.51,-188.78 840.5,-176 829.04,-173.18 497.66,-142.9 365.32,-130.88"/>
<polygon fill="#63b8ff" stroke="#63b8ff" points="365.29,-127.36 355.02,-129.94 364.66,-134.33 365.29,-127.36"/>
</a>
</g>
</g>
<!-- Node17 -->
<g id="Node000017" class="node">
<title>Node17</title>
<g id="a_Node000017"><a xlink:title=" ">
<polygon fill="#e0e0e0" stroke="#999999" points="1558.5,-74 1460.5,-74 1460.5,-55 1558.5,-55 1558.5,-74"/>
<text text-anchor="middle" x="1509.5" y="-62" font-family="Helvetica,sans-Serif" font-size="10.00">AMReX_Vector.H</text>
</a>
</g>
</g>
<!-- Node5&#45;&gt;Node17 -->
<g id="edge27_Node000005_Node000017" class="edge">
<title>Node5&#45;&gt;Node17</title>
<g id="a_edge27_Node000005_Node000017"><a xlink:title=" ">
<path fill="none" stroke="#63b8ff" d="M1073.6,-232.42C1076.95,-231.9 1080.26,-231.43 1083.5,-231 1213.94,-213.81 1600.17,-252.43 1668.5,-140 1694.06,-97.94 1624.14,-79.3 1569,-71.27"/>
<polygon fill="#63b8ff" stroke="#63b8ff" points="1569.29,-67.78 1558.91,-69.89 1568.34,-74.71 1569.29,-67.78"/>
</a>
</g>
</g>
<!-- Node18 -->
<g id="Node000018" class="node">
<title>Node18</title>
<g id="a_Node000018"><a xlink:title=" ">
<polygon fill="#e0e0e0" stroke="#999999" points="1055.5,-195 963.5,-195 963.5,-176 1055.5,-176 1055.5,-195"/>
<text text-anchor="middle" x="1009.5" y="-183" font-family="Helvetica,sans-Serif" font-size="10.00">AMReX_Array.H</text>
</a>
</g>
</g>
<!-- Node5&#45;&gt;Node18 -->
<g id="edge22_Node000005_Node000018" class="edge">
<title>Node5&#45;&gt;Node18</title>
<g id="a_edge22_Node000005_Node000018"><a xlink:title=" ">
<path fill="none" stroke="#63b8ff" d="M1009.5,-230.84C1009.5,-223.21 1009.5,-213.7 1009.5,-205.45"/>
<polygon fill="#63b8ff" stroke="#63b8ff" points="1013,-205.27 1009.5,-195.27 1006,-205.27 1013,-205.27"/>
</a>
</g>
</g>
<!-- Node19 -->
<g id="Node000019" class="node">
<title>Node19</title>
<g id="a_Node000019"><a xlink:title=" ">
<polygon fill="#e0e0e0" stroke="#999999" points="1173.5,-195 1073.5,-195 1073.5,-176 1173.5,-176 1173.5,-195"/>
<text text-anchor="middle" x="1123.5" y="-183" font-family="Helvetica,sans-Serif" font-size="10.00">AMReX_Array4.H</text>
</a>
</g>
</g>
<!-- Node5&#45;&gt;Node19 -->
<g id="edge23_Node000005_Node000019" class="edge">
<title>Node5&#45;&gt;Node19</title>
<g id="a_edge23_Node000005_Node000019"><a xlink:title=" ">
<path fill="none" stroke="#63b8ff" d="M1036.81,-230.99C1055.15,-221.58 1079.18,-209.24 1097.29,-199.95"/>
<polygon fill="#63b8ff" stroke="#63b8ff" points="1099.37,-202.82 1106.66,-195.14 1096.17,-196.59 1099.37,-202.82"/>
</a>
</g>
</g>
<!-- Node20 -->
<g id="Node000020" class="node">
<title>Node20</title>
<g id="a_Node000020"><a xlink:title=" ">
<polygon fill="#e0e0e0" stroke="#999999" points="1277.5,-195 1191.5,-195 1191.5,-176 1277.5,-176 1277.5,-195"/>
<text text-anchor="middle" x="1234.5" y="-183" font-family="Helvetica,sans-Serif" font-size="10.00">AMReX_Box.H</text>
</a>
</g>
</g>
<!-- Node5&#45;&gt;Node20 -->
<g id="edge24_Node000005_Node000020" class="edge">
<title>Node5&#45;&gt;Node20</title>
<g id="a_edge24_Node000005_Node000020"><a xlink:title=" ">
<path fill="none" stroke="#63b8ff" d="M1063.39,-230.99C1102.73,-220.76 1155.32,-207.09 1191.77,-197.61"/>
<polygon fill="#63b8ff" stroke="#63b8ff" points="1192.8,-200.96 1201.6,-195.05 1191.04,-194.18 1192.8,-200.96"/>
</a>
</g>
</g>
<!-- Node21 -->
<g id="Node000021" class="node">
<title>Node21</title>
<g id="a_Node000021"><a xlink:title=" ">
<polygon fill="#e0e0e0" stroke="#999999" points="1411,-195 1296,-195 1296,-176 1411,-176 1411,-195"/>
<text text-anchor="middle" x="1353.5" y="-183" font-family="Helvetica,sans-Serif" font-size="10.00">AMReX_Geometry.H</text>
</a>
</g>
</g>
<!-- Node5&#45;&gt;Node21 -->
<g id="edge25_Node000005_Node000021" class="edge">
<title>Node5&#45;&gt;Node21</title>
<g id="a_edge25_Node000005_Node000021"><a xlink:title=" ">
<path fill="none" stroke="#63b8ff" d="M1073.66,-232.77C1076.99,-232.16 1080.28,-231.57 1083.5,-231 1153.85,-218.55 1234.73,-205.37 1289.48,-196.61"/>
<polygon fill="#63b8ff" stroke="#63b8ff" points="1290.07,-200.07 1299.39,-195.03 1288.96,-193.15 1290.07,-200.07"/>
</a>
</g>
</g>
<!-- Node22 -->
<g id="Node000022" class="node">
<title>Node22</title>
<g id="a_Node000022"><a xlink:title=" ">
<polygon fill="#e0e0e0" stroke="#999999" points="482.5,-195 390.5,-195 390.5,-176 482.5,-176 482.5,-195"/>
<text text-anchor="middle" x="436.5" y="-183" font-family="Helvetica,sans-Serif" font-size="10.00">AMReX_REAL.H</text>
</a>
</g>
</g>
<!-- Node5&#45;&gt;Node22 -->
<g id="edge26_Node000005_Node000022" class="edge">
<title>Node5&#45;&gt;Node22</title>
<g id="a_edge26_Node000005_Node000022"><a xlink:title=" ">
<path fill="none" stroke="#63b8ff" d="M945.44,-238.46C832.42,-226.92 599.47,-203.14 492.47,-192.21"/>
<polygon fill="#63b8ff" stroke="#63b8ff" points="492.82,-188.73 482.52,-191.2 492.11,-195.7 492.82,-188.73"/>
</a>
</g>
</g>
<!-- Node6&#45;&gt;Node4 -->
<g id="edge6_Node000006_Node000004" class="edge">
<title>Node6&#45;&gt;Node4</title>
<g id="a_edge6_Node000006_Node000004"><a xlink:title=" ">
<path fill="none" stroke="#63b8ff" d="M1429.17,-176.94C1426.24,-176.62 1423.34,-176.3 1420.5,-176 1246.96,-157.63 1191.96,-203.72 1029.5,-140 1009.14,-132.02 1009.78,-120.32 990.5,-110 958.58,-92.91 918.83,-80.52 891.54,-73.21"/>
<polygon fill="#63b8ff" stroke="#63b8ff" points="892.29,-69.79 881.73,-70.67 890.53,-76.57 892.29,-69.79"/>
</a>
</g>
</g>
<!-- Node7 -->
<g id="Node000007" class="node">
<title>Node7</title>
<g id="a_Node000007"><a xlink:title=" ">
<polygon fill="#e0e0e0" stroke="#999999" points="1659.5,-134.5 1601.5,-134.5 1601.5,-115.5 1659.5,-115.5 1659.5,-134.5"/>
<text text-anchor="middle" x="1630.5" y="-122.5" font-family="Helvetica,sans-Serif" font-size="10.00">memory</text>
</a>
</g>
</g>
<!-- Node6&#45;&gt;Node7 -->
<g id="edge7_Node000006_Node000007" class="edge">
<title>Node6&#45;&gt;Node7</title>
<g id="a_edge7_Node000006_Node000007"><a xlink:title=" ">
<path fill="none" stroke="#63b8ff" d="M1511.71,-175.99C1535.18,-166.12 1574.11,-149.73 1600.96,-138.43"/>
<polygon fill="#63b8ff" stroke="#63b8ff" points="1602.4,-141.62 1610.26,-134.52 1599.69,-135.17 1602.4,-141.62"/>
</a>
</g>
</g>
<!-- Node8 -->
<g id="Node000008" class="node">
<title>Node8</title>
<g id="a_Node000008"><a xlink:title=" ">
<polygon fill="#e0e0e0" stroke="#999999" points="981,-134.5 888,-134.5 888,-115.5 981,-115.5 981,-134.5"/>
<text text-anchor="middle" x="934.5" y="-122.5" font-family="Helvetica,sans-Serif" font-size="10.00">unordered_map</text>
</a>
</g>
</g>
<!-- Node6&#45;&gt;Node8 -->
<g id="edge8_Node000006_Node000008" class="edge">
<title>Node6&#45;&gt;Node8</title>
<g id="a_edge8_Node000006_Node000008"><a xlink:title=" ">
<path fill="none" stroke="#63b8ff" d="M1429.18,-176.91C1426.24,-176.6 1423.34,-176.29 1420.5,-176 1231.92,-156.73 1182.79,-169.27 995.5,-140 989.72,-139.1 983.68,-137.96 977.74,-136.71"/>
<polygon fill="#63b8ff" stroke="#63b8ff" points="978.41,-133.28 967.9,-134.56 976.91,-140.12 978.41,-133.28"/>
</a>
</g>
</g>
<!-- Node9 -->
<g id="Node000009" class="node">
<title>Node9</title>
<g id="a_Node000009"><a xlink:title=" ">
<polygon fill="#e0e0e0" stroke="#999999" points="1299.5,-134.5 1235.5,-134.5 1235.5,-115.5 1299.5,-115.5 1299.5,-134.5"/>
<text text-anchor="middle" x="1267.5" y="-122.5" font-family="Helvetica,sans-Serif" font-size="10.00">algorithm</text>
</a>
</g>
</g>
<!-- Node6&#45;&gt;Node9 -->
<g id="edge9_Node000006_Node000009" class="edge">
<title>Node6&#45;&gt;Node9</title>
<g id="a_edge9_Node000006_Node000009"><a xlink:title=" ">
<path fill="none" stroke="#63b8ff" d="M1452.56,-175.95C1415.54,-167.6 1358.41,-154.11 1309.5,-140 1307.04,-139.29 1304.52,-138.53 1301.98,-137.74"/>
<polygon fill="#63b8ff" stroke="#63b8ff" points="1302.86,-134.35 1292.27,-134.63 1300.72,-141.02 1302.86,-134.35"/>
</a>
</g>
</g>
<!-- Node10 -->
<g id="Node000010" class="node">
<title>Node10</title>
<g id="a_Node000010"><a xlink:title=" ">
<polygon fill="#e0e0e0" stroke="#999999" points="1733,-74 1624,-74 1624,-55 1733,-55 1733,-74"/>
<text text-anchor="middle" x="1678.5" y="-62" font-family="Helvetica,sans-Serif" font-size="10.00">AMReX_MultiFab.H</text>
</a>
</g>
</g>
<!-- Node6&#45;&gt;Node10 -->
<g id="edge10_Node000006_Node000010" class="edge">
<title>Node6&#45;&gt;Node10</title>
<g id="a_edge10_Node000006_Node000010"><a xlink:title=" ">
<path fill="none" stroke="#63b8ff" d="M1553.84,-176.32C1598.45,-169.13 1653.2,-157.13 1668.5,-140 1681.92,-124.97 1682.79,-100.98 1681.37,-84.3"/>
<polygon fill="#63b8ff" stroke="#63b8ff" points="1684.81,-83.62 1680.14,-74.11 1677.86,-84.46 1684.81,-83.62"/>
</a>
</g>
</g>
<!-- Node11 -->
<g id="Node000011" class="node">
<title>Node11</title>
<g id="a_Node000011"><a xlink:title=" ">
<polygon fill="#e0e0e0" stroke="#999999" points="1417,-134.5 1318,-134.5 1318,-115.5 1417,-115.5 1417,-134.5"/>
<text text-anchor="middle" x="1367.5" y="-122.5" font-family="Helvetica,sans-Serif" font-size="10.00">AMReX_BCRec.H</text>
</a>
</g>
</g>
<!-- Node6&#45;&gt;Node11 -->
<g id="edge11_Node000006_Node000011" class="edge">
<title>Node6&#45;&gt;Node11</title>
<g id="a_edge11_Node000006_Node000011"><a xlink:title=" ">
<path fill="none" stroke="#63b8ff" d="M1473.47,-175.99C1452.81,-166.25 1418.72,-150.16 1394.8,-138.88"/>
<polygon fill="#63b8ff" stroke="#63b8ff" points="1396.09,-135.62 1385.55,-134.52 1393.1,-141.95 1396.09,-135.62"/>
</a>
</g>
</g>
<!-- Node6&#45;&gt;Node12 -->
<g id="edge12_Node000006_Node000012" class="edge">
<title>Node6&#45;&gt;Node12</title>
<g id="a_edge12_Node000006_Node000012"><a xlink:title=" ">
<path fill="none" stroke="#63b8ff" d="M1429.19,-176.75C1426.25,-176.48 1423.35,-176.22 1420.5,-176 997.5,-142.75 889.94,-167.09 466.5,-140 432.85,-137.85 395.18,-134.47 365.4,-131.57"/>
<polygon fill="#63b8ff" stroke="#63b8ff" points="365.51,-128.06 355.21,-130.56 364.82,-135.03 365.51,-128.06"/>
</a>
</g>
</g>
<!-- Node13 -->
<g id="Node000013" class="node">
<title>Node13</title>
<g id="a_Node000013"><a xlink:href="incflo__enums_8_h.html" target="_top" xlink:title=" ">
<polygon fill="white" stroke="#666666" points="1179,-134.5 1038,-134.5 1038,-115.5 1179,-115.5 1179,-134.5"/>
<text text-anchor="middle" x="1108.5" y="-122.5" font-family="Helvetica,sans-Serif" font-size="10.00">amr&#45;wind/incflo_enums.H</text>
</a>
</g>
</g>
<!-- Node6&#45;&gt;Node13 -->
<g id="edge13_Node000006_Node000013" class="edge">
<title>Node6&#45;&gt;Node13</title>
<g id="a_edge13_Node000006_Node000013"><a xlink:title=" ">
<path fill="none" stroke="#63b8ff" d="M1432.66,-175.98C1372.52,-167.21 1276.44,-153.02 1193.5,-140 1185.81,-138.79 1177.74,-137.5 1169.75,-136.2"/>
<polygon fill="#63b8ff" stroke="#63b8ff" points="1170.15,-132.72 1159.72,-134.56 1169.03,-139.63 1170.15,-132.72"/>
</a>
</g>
</g>
<!-- Node15 -->
<g id="Node000015" class="node">
<title>Node15</title>
<g id="a_Node000015"><a xlink:href="_field_desc_types_8_h.html" target="_top" xlink:title=" ">
<polygon fill="white" stroke="#666666" points="1312.5,-74 1136.5,-74 1136.5,-55 1312.5,-55 1312.5,-74"/>
<text text-anchor="middle" x="1224.5" y="-62" font-family="Helvetica,sans-Serif" font-size="10.00">amr&#45;wind/core/FieldDescTypes.H</text>
</a>
</g>
</g>
<!-- Node6&#45;&gt;Node15 -->
<g id="edge15_Node000006_Node000015" class="edge">
<title>Node6&#45;&gt;Node15</title>
<g id="a_edge15_Node000006_Node000015"><a xlink:title=" ">
<path fill="none" stroke="#63b8ff" d="M1429.4,-176.08C1353.19,-165.46 1233.16,-147.66 1226.5,-140 1213.27,-124.78 1215.41,-100.48 1219.11,-83.79"/>
<polygon fill="#63b8ff" stroke="#63b8ff" points="1222.5,-84.66 1221.61,-74.1 1215.72,-82.91 1222.5,-84.66"/>
</a>
</g>
</g>
<!-- Node16 -->
<g id="Node000016" class="node">
<title>Node16</title>
<g id="a_Node000016"><a xlink:href="_view_field_8_h.html" target="_top" xlink:title=" ">
<polygon fill="white" stroke="#666666" points="1583.5,-134.5 1435.5,-134.5 1435.5,-115.5 1583.5,-115.5 1583.5,-134.5"/>
<text text-anchor="middle" x="1509.5" y="-122.5" font-family="Helvetica,sans-Serif" font-size="10.00">amr&#45;wind/core/ViewField.H</text>
</a>
</g>
</g>
<!-- Node6&#45;&gt;Node16 -->
<g id="edge17_Node000006_Node000016" class="edge">
<title>Node6&#45;&gt;Node16</title>
<g id="a_edge17_Node000006_Node000016"><a xlink:title=" ">
<path fill="none" stroke="#63b8ff" d="M1494.16,-175.87C1496.68,-167.66 1500.56,-155.04 1503.79,-144.55"/>
<polygon fill="#63b8ff" stroke="#63b8ff" points="1507.24,-145.25 1506.83,-134.67 1500.55,-143.2 1507.24,-145.25"/>
</a>
</g>
</g>
<!-- Node14 -->
<g id="Node000014" class="node">
<title>Node14</title>
<g id="a_Node000014"><a xlink:title=" ">
<polygon fill="#e0e0e0" stroke="#999999" points="1191.5,-19 1141.5,-19 1141.5,0 1191.5,0 1191.5,-19"/>
<text text-anchor="middle" x="1166.5" y="-7" font-family="Helvetica,sans-Serif" font-size="10.00">cstdint</text>
</a>
</g>
</g>
<!-- Node13&#45;&gt;Node14 -->
<g id="edge14_Node000013_Node000014" class="edge">
<title>Node13&#45;&gt;Node14</title>
<g id="a_edge14_Node000013_Node000014"><a xlink:title=" ">
<path fill="none" stroke="#63b8ff" d="M1109.59,-115.47C1111.59,-101.97 1116.66,-75.13 1127.5,-55 1133.2,-44.42 1141.84,-34.21 1149.53,-26.25"/>
<polygon fill="#63b8ff" stroke="#63b8ff" points="1152.12,-28.62 1156.78,-19.11 1147.2,-23.64 1152.12,-28.62"/>
</a>
</g>
</g>
<!-- Node15&#45;&gt;Node14 -->
<g id="edge16_Node000015_Node000014" class="edge">
<title>Node15&#45;&gt;Node14</title>
<g id="a_edge16_Node000015_Node000014"><a xlink:title=" ">
<path fill="none" stroke="#63b8ff" d="M1215.18,-54.98C1206.69,-47.23 1193.94,-35.58 1183.62,-26.14"/>
<polygon fill="#63b8ff" stroke="#63b8ff" points="1185.73,-23.33 1175.99,-19.17 1181.01,-28.5 1185.73,-23.33"/>
</a>
</g>
</g>
<!-- Node16&#45;&gt;Node4 -->
<g id="edge18_Node000016_Node000004" class="edge">
<title>Node16&#45;&gt;Node4</title>
<g id="a_edge18_Node000016_Node000004"><a xlink:title=" ">
<path fill="none" stroke="#63b8ff" d="M1463.51,-115.49C1451.49,-113.48 1438.54,-111.48 1426.5,-110 1223.77,-85 978.43,-71.34 891.73,-67.03"/>
<polygon fill="#63b8ff" stroke="#63b8ff" points="891.89,-63.53 881.73,-66.53 891.54,-70.52 891.89,-63.53"/>
</a>
</g>
</g>
<!-- Node16&#45;&gt;Node10 -->
<g id="edge20_Node000016_Node000010" class="edge">
<title>Node16&#45;&gt;Node10</title>
<g id="a_edge20_Node000016_Node000010"><a xlink:title=" ">
<path fill="none" stroke="#63b8ff" d="M1534.07,-115.49C1563.11,-105.44 1611.6,-88.66 1644.3,-77.34"/>
<polygon fill="#63b8ff" stroke="#63b8ff" points="1645.59,-80.6 1653.9,-74.02 1643.3,-73.98 1645.59,-80.6"/>
</a>
</g>
</g>
<!-- Node16&#45;&gt;Node15 -->
<g id="edge19_Node000016_Node000015" class="edge">
<title>Node16&#45;&gt;Node15</title>
<g id="a_edge19_Node000016_Node000015"><a xlink:title=" ">
<path fill="none" stroke="#63b8ff" d="M1468.06,-115.49C1417.19,-105.05 1330.93,-87.35 1275.89,-76.05"/>
<polygon fill="#63b8ff" stroke="#63b8ff" points="1276.49,-72.6 1265.99,-74.02 1275.08,-79.46 1276.49,-72.6"/>
</a>
</g>
</g>
<!-- Node16&#45;&gt;Node17 -->
<g id="edge21_Node000016_Node000017" class="edge">
<title>Node16&#45;&gt;Node17</title>
<g id="a_edge21_Node000016_Node000017"><a xlink:title=" ">
<path fill="none" stroke="#63b8ff" d="M1509.5,-115.37C1509.5,-107.25 1509.5,-94.81 1509.5,-84.39"/>
<polygon fill="#63b8ff" stroke="#63b8ff" points="1513,-84.17 1509.5,-74.17 1506,-84.17 1513,-84.17"/>
</a>
</g>
</g>
<!-- Node23&#45;&gt;Node4 -->
<g id="edge30_Node000023_Node000004" class="edge">
<title>Node23&#45;&gt;Node4</title>
<g id="a_edge30_Node000023_Node000004"><a xlink:title=" ">
<path fill="none" stroke="#63b8ff" d="M787.78,-230.95C807.44,-223.44 827.52,-212.08 840.5,-195 865.29,-162.39 864.59,-111.5 862,-84.24"/>
<polygon fill="#63b8ff" stroke="#63b8ff" points="865.46,-83.66 860.85,-74.13 858.51,-84.46 865.46,-83.66"/>
</a>
</g>
</g>
<!-- Node23&#45;&gt;Node8 -->
<g id="edge31_Node000023_Node000008" class="edge">
<title>Node23&#45;&gt;Node8</title>
<g id="a_edge31_Node000023_Node000008"><a xlink:title=" ">
<path fill="none" stroke="#63b8ff" d="M790.06,-231.25C817.2,-223.41 848.43,-211.73 873.5,-195 893.99,-181.33 911.9,-159.13 922.93,-143.61"/>
<polygon fill="#63b8ff" stroke="#63b8ff" points="926.1,-145.18 928.86,-134.95 920.32,-141.22 926.1,-145.18"/>
</a>
</g>
</g>
<!-- Node23&#45;&gt;Node22 -->
<g id="edge35_Node000023_Node000022" class="edge">
<title>Node23&#45;&gt;Node22</title>
<g id="a_edge35_Node000023_Node000022"><a xlink:title=" ">
<path fill="none" stroke="#63b8ff" d="M664.72,-232.38C612.19,-221.82 538.14,-206.93 488.79,-197.01"/>
<polygon fill="#63b8ff" stroke="#63b8ff" points="489.45,-193.58 478.96,-195.04 488.07,-200.44 489.45,-193.58"/>
</a>
</g>
</g>
<!-- Node24 -->
<g id="Node000024" class="node">
<title>Node24</title>
<g id="a_Node000024"><a xlink:title=" ">
<polygon fill="#e0e0e0" stroke="#999999" points="831,-195 784,-195 784,-176 831,-176 831,-195"/>
<text text-anchor="middle" x="807.5" y="-183" font-family="Helvetica,sans-Serif" font-size="10.00">vector</text>
</a>
</g>
</g>
<!-- Node23&#45;&gt;Node24 -->
<g id="edge32_Node000023_Node000024" class="edge">
<title>Node23&#45;&gt;Node24</title>
<g id="a_edge32_Node000023_Node000024"><a xlink:title=" ">
<path fill="none" stroke="#63b8ff" d="M746.87,-230.84C759.07,-221.91 774.81,-210.41 787.19,-201.35"/>
<polygon fill="#63b8ff" stroke="#63b8ff" points="789.51,-203.99 795.51,-195.27 785.37,-198.34 789.51,-203.99"/>
</a>
</g>
</g>
<!-- Node25 -->
<g id="Node000025" class="node">
<title>Node25</title>
<g id="a_Node000025"><a xlink:title=" ">
<polygon fill="#e0e0e0" stroke="#999999" points="670.5,-195 614.5,-195 614.5,-176 670.5,-176 670.5,-195"/>
<text text-anchor="middle" x="642.5" y="-183" font-family="Helvetica,sans-Serif" font-size="10.00">netcdf.h</text>
</a>
</g>
</g>
<!-- Node23&#45;&gt;Node25 -->
<g id="edge33_Node000023_Node000025" class="edge">
<title>Node23&#45;&gt;Node25</title>
<g id="a_edge33_Node000023_Node000025"><a xlink:title=" ">
<path fill="none" stroke="#63b8ff" d="M706.92,-230.84C693.83,-221.83 676.91,-210.18 663.7,-201.09"/>
<polygon fill="#63b8ff" stroke="#63b8ff" points="665.46,-198.05 655.24,-195.27 661.49,-203.82 665.46,-198.05"/>
</a>
</g>
</g>
<!-- Node26 -->
<g id="Node000026" class="node">
<title>Node26</title>
<g id="a_Node000026"><a xlink:title=" ">
<polygon fill="#e0e0e0" stroke="#999999" points="766,-195 689,-195 689,-176 766,-176 766,-195"/>
<text text-anchor="middle" x="727.5" y="-183" font-family="Helvetica,sans-Serif" font-size="10.00">netcdf_par.h</text>
</a>
</g>
</g>
<!-- Node23&#45;&gt;Node26 -->
<g id="edge34_Node000023_Node000026" class="edge">
<title>Node23&#45;&gt;Node26</title>
<g id="a_edge34_Node000023_Node000026"><a xlink:title=" ">
<path fill="none" stroke="#63b8ff" d="M727.5,-230.84C727.5,-223.21 727.5,-213.7 727.5,-205.45"/>
<polygon fill="#63b8ff" stroke="#63b8ff" points="731,-205.27 727.5,-195.27 724,-205.27 731,-205.27"/>
</a>
</g>
</g>
<!-- Node28&#45;&gt;Node2 -->
<g id="edge38_Node000028_Node000002" class="edge">
<title>Node28&#45;&gt;Node2</title>
<g id="a_edge38_Node000028_Node000002"><a xlink:title=" ">
<path fill="none" stroke="#63b8ff" d="M119.32,-230.99C98.67,-221.4 71.5,-208.79 51.37,-199.44"/>
<polygon fill="#63b8ff" stroke="#63b8ff" points="52.65,-196.18 42.11,-195.14 49.7,-202.52 52.65,-196.18"/>
</a>
</g>
</g>
<!-- Node28&#45;&gt;Node3 -->
<g id="edge39_Node000028_Node000003" class="edge">
<title>Node28&#45;&gt;Node3</title>
<g id="a_edge39_Node000028_Node000003"><a xlink:title=" ">
<path fill="none" stroke="#63b8ff" d="M136.19,-230.84C128.2,-222.35 118.02,-211.52 109.72,-202.69"/>
<polygon fill="#63b8ff" stroke="#63b8ff" points="112.14,-200.15 102.74,-195.27 107.04,-204.95 112.14,-200.15"/>
</a>
</g>
</g>
<!-- Node28&#45;&gt;Node12 -->
<g id="edge41_Node000028_Node000012" class="edge">
<title>Node28&#45;&gt;Node12</title>
<g id="a_edge41_Node000028_Node000012"><a xlink:title=" ">
<path fill="none" stroke="#63b8ff" d="M151.52,-230.96C154.43,-215.53 161.26,-190.96 176.5,-176 198.5,-154.4 230.64,-142.01 258.04,-134.96"/>
<polygon fill="#63b8ff" stroke="#63b8ff" points="258.99,-138.34 267.9,-132.6 257.36,-131.53 258.99,-138.34"/>
</a>
</g>
</g>
<!-- Node28&#45;&gt;Node22 -->
<g id="edge40_Node000028_Node000022" class="edge">
<title>Node28&#45;&gt;Node22</title>
<g id="a_edge40_Node000028_Node000022"><a xlink:title=" ">
<path fill="none" stroke="#63b8ff" d="M201.14,-234.47C253.04,-223.9 332.58,-207.68 384.58,-197.08"/>
<polygon fill="#63b8ff" stroke="#63b8ff" points="385.49,-200.47 394.59,-195.04 384.1,-193.61 385.49,-200.47"/>
</a>
</g>
</g>
<!-- Node30&#45;&gt;Node12 -->
<g id="edge45_Node000030_Node000012" class="edge">
<title>Node30&#45;&gt;Node12</title>
<g id="a_edge45_Node000030_Node000012"><a xlink:title=" ">
<path fill="none" stroke="#63b8ff" d="M290.06,-230.91C273.81,-223.02 256.77,-211.4 247.5,-195 235.07,-173 261.03,-152.39 283.52,-139.53"/>
<polygon fill="#63b8ff" stroke="#63b8ff" points="285.38,-142.5 292.51,-134.67 282.05,-136.34 285.38,-142.5"/>
</a>
</g>
</g>
<!-- Node30&#45;&gt;Node22 -->
<g id="edge46_Node000030_Node000022" class="edge">
<title>Node30&#45;&gt;Node22</title>
<g id="a_edge46_Node000030_Node000022"><a xlink:title=" ">
<path fill="none" stroke="#63b8ff" d="M355.89,-230.99C372.79,-221.66 394.88,-209.47 411.66,-200.21"/>
<polygon fill="#63b8ff" stroke="#63b8ff" points="413.78,-203.04 420.85,-195.14 410.4,-196.91 413.78,-203.04"/>
</a>
</g>
</g>
<!-- Node31 -->
<g id="Node000031" class="node">
<title>Node31</title>
<g id="a_Node000031"><a xlink:title=" ">
<polygon fill="#e0e0e0" stroke="#999999" points="372.5,-195 256.5,-195 256.5,-176 372.5,-176 372.5,-195"/>
<text text-anchor="middle" x="314.5" y="-183" font-family="Helvetica,sans-Serif" font-size="10.00">AMReX_Extension.H</text>
</a>
</g>
</g>
<!-- Node30&#45;&gt;Node31 -->
<g id="edge47_Node000030_Node000031" class="edge">
<title>Node30&#45;&gt;Node31</title>
<g id="a_edge47_Node000030_Node000031"><a xlink:title=" ">
<path fill="none" stroke="#63b8ff" d="M326.63,-230.84C324.52,-223.13 321.88,-213.49 319.61,-205.17"/>
<polygon fill="#63b8ff" stroke="#63b8ff" points="322.91,-203.99 316.9,-195.27 316.16,-205.84 322.91,-203.99"/>
</a>
</g>
</g>
<!-- Node32&#45;&gt;Node4 -->
<g id="edge51_Node000032_Node000004" class="edge">
<title>Node32&#45;&gt;Node4</title>
<g id="a_edge51_Node000032_Node000004"><a xlink:title=" ">
<path fill="none" stroke="#63b8ff" d="M579.34,-112.78C584.12,-111.81 588.9,-110.87 593.5,-110 677.68,-94.04 777.42,-78.16 827.47,-70.4"/>
<polygon fill="#63b8ff" stroke="#63b8ff" points="828.02,-73.86 837.37,-68.87 826.96,-66.94 828.02,-73.86"/>
</a>
</g>
</g>
<!-- Node32&#45;&gt;Node17 -->
<g id="edge54_Node000032_Node000017" class="edge">
<title>Node32&#45;&gt;Node17</title>
<g id="a_edge54_Node000032_Node000017"><a xlink:title=" ">
<path fill="none" stroke="#63b8ff" d="M579.26,-120.92C746.62,-110.95 1272.56,-79.62 1450.21,-69.03"/>
<polygon fill="#63b8ff" stroke="#63b8ff" points="1450.63,-72.51 1460.4,-68.42 1450.21,-65.53 1450.63,-72.51"/>
</a>
</g>
</g>
<!-- Node33 -->
<g id="Node000033" class="node">
<title>Node33</title>
<g id="a_Node000033"><a xlink:title=" ">
<polygon fill="#e0e0e0" stroke="#999999" points="683.5,-74 633.5,-74 633.5,-55 683.5,-55 683.5,-74"/>
<text text-anchor="middle" x="658.5" y="-62" font-family="Helvetica,sans-Serif" font-size="10.00">chrono</text>
</a>
</g>
</g>
<!-- Node32&#45;&gt;Node33 -->
<g id="edge49_Node000032_Node000033" class="edge">
<title>Node32&#45;&gt;Node33</title>
<g id="a_edge49_Node000032_Node000033"><a xlink:title=" ">
<path fill="none" stroke="#63b8ff" d="M558.88,-109.99C580.44,-100.36 608.85,-87.67 629.81,-78.31"/>
<polygon fill="#63b8ff" stroke="#63b8ff" points="631.45,-81.41 639.15,-74.14 628.6,-75.02 631.45,-81.41"/>
</a>
</g>
</g>
<!-- Node34 -->
<g id="Node000034" class="node">
<title>Node34</title>
<g id="a_Node000034"><a xlink:title=" ">
<polygon fill="#e0e0e0" stroke="#999999" points="437.5,-74 393.5,-74 393.5,-55 437.5,-55 437.5,-74"/>
<text text-anchor="middle" x="415.5" y="-62" font-family="Helvetica,sans-Serif" font-size="10.00">ctime</text>
</a>
</g>
</g>
<!-- Node32&#45;&gt;Node34 -->
<g id="edge50_Node000032_Node000034" class="edge">
<title>Node32&#45;&gt;Node34</title>
<g id="a_edge50_Node000032_Node000034"><a xlink:title=" ">
<path fill="none" stroke="#63b8ff" d="M500.67,-109.99C482.65,-100.58 459.04,-88.24 441.25,-78.95"/>
<polygon fill="#63b8ff" stroke="#63b8ff" points="442.52,-75.67 432.04,-74.14 439.28,-81.87 442.52,-75.67"/>
</a>
</g>
</g>
<!-- Node35 -->
<g id="Node000035" class="node">
<title>Node35</title>
<g id="a_Node000035"><a xlink:title=" ">
<polygon fill="#e0e0e0" stroke="#999999" points="511.5,-74 455.5,-74 455.5,-55 511.5,-55 511.5,-74"/>
<text text-anchor="middle" x="483.5" y="-62" font-family="Helvetica,sans-Serif" font-size="10.00">sstream</text>
</a>
</g>
</g>
<!-- Node32&#45;&gt;Node35 -->
<g id="edge52_Node000032_Node000035" class="edge">
<title>Node32&#45;&gt;Node35</title>
<g id="a_edge52_Node000032_Node000035"><a xlink:title=" ">
<path fill="none" stroke="#63b8ff" d="M516.85,-109.84C510.66,-101.61 502.81,-91.18 496.29,-82.51"/>
<polygon fill="#63b8ff" stroke="#63b8ff" points="498.9,-80.15 490.09,-74.27 493.31,-84.36 498.9,-80.15"/>
</a>
</g>
</g>
<!-- Node36 -->
<g id="Node000036" class="node">
<title>Node36</title>
<g id="a_Node000036"><a xlink:title=" ">
<polygon fill="#e0e0e0" stroke="#999999" points="615.5,-74 529.5,-74 529.5,-55 615.5,-55 615.5,-74"/>
<text text-anchor="middle" x="572.5" y="-62" font-family="Helvetica,sans-Serif" font-size="10.00">unordered_set</text>
</a>
</g>
</g>
<!-- Node32&#45;&gt;Node36 -->
<g id="edge53_Node000032_Node000036" class="edge">
<title>Node32&#45;&gt;Node36</title>
<g id="a_edge53_Node000032_Node000036"><a xlink:title=" ">
<path fill="none" stroke="#63b8ff" d="M538.39,-109.84C544.79,-101.52 552.92,-90.96 559.63,-82.23"/>
<polygon fill="#63b8ff" stroke="#63b8ff" points="562.43,-84.33 565.76,-74.27 556.89,-80.06 562.43,-84.33"/>
</a>
</g>
</g>
<!-- Node37&#45;&gt;Node12 -->
<g id="edge57_Node000037_Node000012" class="edge">
<title>Node37&#45;&gt;Node12</title>
<g id="a_edge57_Node000037_Node000012"><a xlink:title=" ">
<path fill="none" stroke="#63b8ff" d="M480.33,-230.79C491.22,-215.88 503.95,-192.39 491.5,-176 476.19,-155.85 412.66,-141.69 365.39,-133.7"/>
<polygon fill="#63b8ff" stroke="#63b8ff" points="365.7,-130.21 355.27,-132.04 364.57,-137.11 365.7,-130.21"/>
</a>
</g>
</g>
<!-- Node37&#45;&gt;Node22 -->
<g id="edge56_Node000037_Node000022" class="edge">
<title>Node37&#45;&gt;Node22</title>
<g id="a_edge56_Node000037_Node000022"><a xlink:title=" ">
<path fill="none" stroke="#63b8ff" d="M460.75,-230.84C456.35,-222.78 450.79,-212.62 446.1,-204.06"/>
<polygon fill="#63b8ff" stroke="#63b8ff" points="449.16,-202.36 441.3,-195.27 443.02,-205.72 449.16,-202.36"/>
</a>
</g>
</g>
</g>
</svg>
