<?xml version="1.0" encoding="UTF-8" standalone="no"?>
<!DOCTYPE svg PUBLIC "-//W3C//DTD SVG 1.1//EN"
 "http://www.w3.org/Graphics/SVG/1.1/DTD/svg11.dtd">
<!-- Generated by graphviz version 2.43.0 (0)
 -->
<!-- Title: /home/runner/work/amr&#45;wind/amr&#45;wind/amr&#45;wind/wind_energy/ABLWallFunction.H Pages: 1 -->
<svg width="3426pt" height="379pt"
 viewBox="0.00 0.00 3426.00 379.00" xmlns="http://www.w3.org/2000/svg" xmlns:xlink="http://www.w3.org/1999/xlink">
<g id="graph0" class="graph" transform="scale(1 1) rotate(0) translate(4 375)">
<title>/home/runner/work/amr&#45;wind/amr&#45;wind/amr&#45;wind/wind_energy/ABLWallFunction.H</title>
<!-- Node1 -->
<g id="Node000001" class="node">
<title>Node1</title>
<g id="a_Node000001"><a xlink:title=" ">
<polygon fill="#999999" stroke="#666666" points="1818.5,-371 1642.5,-371 1642.5,-330 1818.5,-330 1818.5,-371"/>
<text text-anchor="start" x="1650.5" y="-359" font-family="Helvetica,sans-Serif" font-size="10.00">/home/runner/work/amr</text>
<text text-anchor="start" x="1650.5" y="-348" font-family="Helvetica,sans-Serif" font-size="10.00">&#45;wind/amr&#45;wind/amr&#45;wind</text>
<text text-anchor="middle" x="1730.5" y="-337" font-family="Helvetica,sans-Serif" font-size="10.00">/wind_energy/ABLWallFunction.H</text>
</a>
</g>
</g>
<!-- Node2 -->
<g id="Node000002" class="node">
<title>Node2</title>
<g id="a_Node000002"><a xlink:href="_boussinesq_bubble_8cpp.html" target="_top" xlink:title=" ">
<polygon fill="white" stroke="#666666" points="1664,-294 1495,-294 1495,-253 1664,-253 1664,-294"/>
<text text-anchor="start" x="1503" y="-282" font-family="Helvetica,sans-Serif" font-size="10.00">/home/runner/work/amr</text>
<text text-anchor="start" x="1503" y="-271" font-family="Helvetica,sans-Serif" font-size="10.00">&#45;wind/amr&#45;wind/amr&#45;wind</text>
<text text-anchor="middle" x="1579.5" y="-260" font-family="Helvetica,sans-Serif" font-size="10.00">/physics/BoussinesqBubble.cpp</text>
</a>
</g>
</g>
<!-- Node1&#45;&gt;Node2 -->
<g id="edge1_Node000001_Node000002" class="edge">
<title>Node1&#45;&gt;Node2</title>
<g id="a_edge1_Node000001_Node000002"><a xlink:title=" ">
<path fill="none" stroke="#63b8ff" d="M1682.08,-325.45C1661.65,-315.3 1638.18,-303.64 1618.84,-294.04"/>
<polygon fill="#63b8ff" stroke="#63b8ff" points="1680.71,-328.68 1691.22,-329.99 1683.82,-322.41 1680.71,-328.68"/>
</a>
</g>
</g>
<!-- Node3 -->
<g id="Node000003" class="node">
<title>Node3</title>
<g id="a_Node000003"><a xlink:href="_a_b_l_8_h.html" target="_top" xlink:title=" ">
<polygon fill="white" stroke="#666666" points="1863,-217 1720,-217 1720,-176 1863,-176 1863,-217"/>
<text text-anchor="start" x="1728" y="-205" font-family="Helvetica,sans-Serif" font-size="10.00">/home/runner/work/amr</text>
<text text-anchor="start" x="1728" y="-194" font-family="Helvetica,sans-Serif" font-size="10.00">&#45;wind/amr&#45;wind/amr&#45;wind</text>
<text text-anchor="middle" x="1791.5" y="-183" font-family="Helvetica,sans-Serif" font-size="10.00">/wind_energy/ABL.H</text>
</a>
</g>
</g>
<!-- Node1&#45;&gt;Node3 -->
<g id="edge2_Node000001_Node000003" class="edge">
<title>Node1&#45;&gt;Node3</title>
<g id="a_edge2_Node000001_Node000003"><a xlink:title=" ">
<path fill="none" stroke="#63b8ff" d="M1732.86,-319.67C1735.25,-300.04 1740.02,-274.17 1749.5,-253 1755.33,-239.99 1764.71,-227.18 1773.13,-217.15"/>
<polygon fill="#63b8ff" stroke="#63b8ff" points="1729.35,-319.54 1731.76,-329.86 1736.31,-320.29 1729.35,-319.54"/>
</a>
</g>
</g>
<!-- Node22 -->
<g id="Node000022" class="node">
<title>Node22</title>
<g id="a_Node000022"><a xlink:href="_a_b_l_wall_function_8cpp.html" target="_top" xlink:title=" ">
<polygon fill="white" stroke="#666666" points="185,-134.5 0,-134.5 0,-93.5 185,-93.5 185,-134.5"/>
<text text-anchor="start" x="8" y="-122.5" font-family="Helvetica,sans-Serif" font-size="10.00">/home/runner/work/amr</text>
<text text-anchor="start" x="8" y="-111.5" font-family="Helvetica,sans-Serif" font-size="10.00">&#45;wind/amr&#45;wind/amr&#45;wind</text>
<text text-anchor="middle" x="92.5" y="-100.5" font-family="Helvetica,sans-Serif" font-size="10.00">/wind_energy/ABLWallFunction.cpp</text>
</a>
</g>
</g>
<!-- Node1&#45;&gt;Node22 -->
<g id="edge27_Node000001_Node000022" class="edge">
<title>Node1&#45;&gt;Node22</title>
<g id="a_edge27_Node000001_Node000022"><a xlink:title=" ">
<path fill="none" stroke="#63b8ff" d="M1721.25,-320.22C1712.49,-297.76 1696.99,-268.11 1672.5,-253 1392.19,-79.99 519.78,-191.94 194.5,-140 185.23,-138.52 175.56,-136.62 166.03,-134.54"/>
<polygon fill="#63b8ff" stroke="#63b8ff" points="1717.97,-321.46 1724.7,-329.65 1724.55,-319.06 1717.97,-321.46"/>
</a>
</g>
</g>
<!-- Node23 -->
<g id="Node000023" class="node">
<title>Node23</title>
<g id="a_Node000023"><a xlink:href="_a_b_l_stats_8_h.html" target="_top" xlink:title=" ">
<polygon fill="white" stroke="#666666" points="2024,-217 1881,-217 1881,-176 2024,-176 2024,-217"/>
<text text-anchor="start" x="1889" y="-205" font-family="Helvetica,sans-Serif" font-size="10.00">/home/runner/work/amr</text>
<text text-anchor="start" x="1889" y="-194" font-family="Helvetica,sans-Serif" font-size="10.00">&#45;wind/amr&#45;wind/amr&#45;wind</text>
<text text-anchor="middle" x="1952.5" y="-183" font-family="Helvetica,sans-Serif" font-size="10.00">/wind_energy/ABLStats.H</text>
</a>
</g>
</g>
<!-- Node1&#45;&gt;Node23 -->
<g id="edge22_Node000001_Node000023" class="edge">
<title>Node1&#45;&gt;Node23</title>
<g id="a_edge22_Node000001_Node000023"><a xlink:title=" ">
<path fill="none" stroke="#63b8ff" d="M1828.83,-343.13C1865.28,-335.9 1904.12,-321.64 1930.5,-294 1950.19,-273.37 1953.6,-238.92 1953.56,-217.24"/>
<polygon fill="#63b8ff" stroke="#63b8ff" points="1827.84,-339.75 1818.63,-344.99 1829.09,-346.64 1827.84,-339.75"/>
</a>
</g>
</g>
<!-- Node25 -->
<g id="Node000025" class="node">
<title>Node25</title>
<g id="a_Node000025"><a xlink:href="_a_b_l_stats_base_8_h.html" target="_top" xlink:title=" ">
<polygon fill="white" stroke="#666666" points="1922,-294 1759,-294 1759,-253 1922,-253 1922,-294"/>
<text text-anchor="start" x="1767" y="-282" font-family="Helvetica,sans-Serif" font-size="10.00">/home/runner/work/amr</text>
<text text-anchor="start" x="1767" y="-271" font-family="Helvetica,sans-Serif" font-size="10.00">&#45;wind/amr&#45;wind/amr&#45;wind</text>
<text text-anchor="middle" x="1840.5" y="-260" font-family="Helvetica,sans-Serif" font-size="10.00">/wind_energy/ABLStatsBase.H</text>
</a>
</g>
</g>
<!-- Node1&#45;&gt;Node25 -->
<g id="edge24_Node000001_Node000025" class="edge">
<title>Node1&#45;&gt;Node25</title>
<g id="a_edge24_Node000001_Node000025"><a xlink:title=" ">
<path fill="none" stroke="#63b8ff" d="M1767.76,-324.09C1782.1,-314.32 1798.22,-303.32 1811.65,-294.17"/>
<polygon fill="#63b8ff" stroke="#63b8ff" points="1765.4,-321.47 1759.11,-329.99 1769.35,-327.25 1765.4,-321.47"/>
</a>
</g>
</g>
<!-- Node4 -->
<g id="Node000004" class="node">
<title>Node4</title>
<g id="a_Node000004"><a xlink:href="_c_f_d_sim_8cpp.html" target="_top" xlink:title=" ">
<polygon fill="white" stroke="#666666" points="3070,-134.5 2927,-134.5 2927,-93.5 3070,-93.5 3070,-134.5"/>
<text text-anchor="start" x="2935" y="-122.5" font-family="Helvetica,sans-Serif" font-size="10.00">/home/runner/work/amr</text>
<text text-anchor="start" x="2935" y="-111.5" font-family="Helvetica,sans-Serif" font-size="10.00">&#45;wind/amr&#45;wind/amr&#45;wind</text>
<text text-anchor="middle" x="2998.5" y="-100.5" font-family="Helvetica,sans-Serif" font-size="10.00">/CFDSim.cpp</text>
</a>
</g>
</g>
<!-- Node3&#45;&gt;Node4 -->
<g id="edge3_Node000003_Node000004" class="edge">
<title>Node3&#45;&gt;Node4</title>
<g id="a_edge3_Node000003_Node000004"><a xlink:title=" ">
<path fill="none" stroke="#63b8ff" d="M1873.24,-175.91C2334.13,-114.06 2462.05,-216.72 2917.5,-140 2925.48,-138.66 2933.77,-136.73 2941.87,-134.55"/>
<polygon fill="#63b8ff" stroke="#63b8ff" points="1872.76,-172.44 1863.32,-177.26 1873.71,-179.38 1872.76,-172.44"/>
</a>
</g>
</g>
<!-- Node5 -->
<g id="Node000005" class="node">
<title>Node5</title>
<g id="a_Node000005"><a xlink:href="_a_b_l_forcing_8cpp.html" target="_top" xlink:title=" ">
<polygon fill="white" stroke="#666666" points="3251,-140 3088,-140 3088,-88 3251,-88 3251,-140"/>
<text text-anchor="start" x="3096" y="-128" font-family="Helvetica,sans-Serif" font-size="10.00">/home/runner/work/amr</text>
<text text-anchor="start" x="3096" y="-117" font-family="Helvetica,sans-Serif" font-size="10.00">&#45;wind/amr&#45;wind/amr&#45;wind</text>
<text text-anchor="start" x="3096" y="-106" font-family="Helvetica,sans-Serif" font-size="10.00">/equation_systems/icns</text>
<text text-anchor="middle" x="3169.5" y="-95" font-family="Helvetica,sans-Serif" font-size="10.00">/source_terms/ABLForcing.cpp</text>
</a>
</g>
</g>
<!-- Node3&#45;&gt;Node5 -->
<g id="edge4_Node000003_Node000005" class="edge">
<title>Node3&#45;&gt;Node5</title>
<g id="a_edge4_Node000003_Node000005"><a xlink:title=" ">
<path fill="none" stroke="#63b8ff" d="M1873.57,-175.87C2405.63,-105.48 2551.8,-219.95 3079.5,-140 3082.23,-139.59 3084.99,-139.12 3087.77,-138.6"/>
<polygon fill="#63b8ff" stroke="#63b8ff" points="1872.77,-172.45 1863.32,-177.24 1873.7,-179.38 1872.77,-172.45"/>
</a>
</g>
</g>
<!-- Node6 -->
<g id="Node000006" class="node">
<title>Node6</title>
<g id="a_Node000006"><a xlink:href="_a_b_l_mean_boussinesq_8cpp.html" target="_top" xlink:title=" ">
<polygon fill="white" stroke="#666666" points="413.5,-140 203.5,-140 203.5,-88 413.5,-88 413.5,-140"/>
<text text-anchor="start" x="211.5" y="-128" font-family="Helvetica,sans-Serif" font-size="10.00">/home/runner/work/amr</text>
<text text-anchor="start" x="211.5" y="-117" font-family="Helvetica,sans-Serif" font-size="10.00">&#45;wind/amr&#45;wind/amr&#45;wind</text>
<text text-anchor="start" x="211.5" y="-106" font-family="Helvetica,sans-Serif" font-size="10.00">/equation_systems/icns</text>
<text text-anchor="middle" x="308.5" y="-95" font-family="Helvetica,sans-Serif" font-size="10.00">/source_terms/ABLMeanBoussinesq.cpp</text>
</a>
</g>
</g>
<!-- Node3&#45;&gt;Node6 -->
<g id="edge5_Node000003_Node000006" class="edge">
<title>Node3&#45;&gt;Node6</title>
<g id="a_edge5_Node000003_Node000006"><a xlink:title=" ">
<path fill="none" stroke="#63b8ff" d="M1709.95,-176.6C1708.45,-176.39 1706.97,-176.19 1705.5,-176 1139.54,-104.59 988.71,-209.4 422.5,-140 419.58,-139.64 416.63,-139.25 413.66,-138.81"/>
<polygon fill="#63b8ff" stroke="#63b8ff" points="1709.47,-180.06 1719.89,-178.17 1710.56,-173.15 1709.47,-180.06"/>
</a>
</g>
</g>
<!-- Node7 -->
<g id="Node000007" class="node">
<title>Node7</title>
<g id="a_Node000007"><a xlink:href="_a_b_l_meso_forcing_mom_8cpp.html" target="_top" xlink:title=" ">
<polygon fill="white" stroke="#666666" points="645.5,-140 431.5,-140 431.5,-88 645.5,-88 645.5,-140"/>
<text text-anchor="start" x="439.5" y="-128" font-family="Helvetica,sans-Serif" font-size="10.00">/home/runner/work/amr</text>
<text text-anchor="start" x="439.5" y="-117" font-family="Helvetica,sans-Serif" font-size="10.00">&#45;wind/amr&#45;wind/amr&#45;wind</text>
<text text-anchor="start" x="439.5" y="-106" font-family="Helvetica,sans-Serif" font-size="10.00">/equation_systems/icns</text>
<text text-anchor="middle" x="538.5" y="-95" font-family="Helvetica,sans-Serif" font-size="10.00">/source_terms/ABLMesoForcingMom.cpp</text>
</a>
</g>
</g>
<!-- Node3&#45;&gt;Node7 -->
<g id="edge6_Node000003_Node000007" class="edge">
<title>Node3&#45;&gt;Node7</title>
<g id="a_edge6_Node000003_Node000007"><a xlink:title=" ">
<path fill="none" stroke="#63b8ff" d="M1709.95,-176.61C1708.45,-176.39 1706.97,-176.19 1705.5,-176 1241.53,-116.01 1117.73,-197.92 653.5,-140 650.86,-139.67 648.2,-139.31 645.52,-138.92"/>
<polygon fill="#63b8ff" stroke="#63b8ff" points="1709.46,-180.08 1719.89,-178.2 1710.56,-173.16 1709.46,-180.08"/>
</a>
</g>
</g>
<!-- Node8 -->
<g id="Node000008" class="node">
<title>Node8</title>
<g id="a_Node000008"><a xlink:href="_drag_forcing_8cpp.html" target="_top" xlink:title=" ">
<polygon fill="white" stroke="#666666" points="830,-140 663,-140 663,-88 830,-88 830,-140"/>
<text text-anchor="start" x="671" y="-128" font-family="Helvetica,sans-Serif" font-size="10.00">/home/runner/work/amr</text>
<text text-anchor="start" x="671" y="-117" font-family="Helvetica,sans-Serif" font-size="10.00">&#45;wind/amr&#45;wind/amr&#45;wind</text>
<text text-anchor="start" x="671" y="-106" font-family="Helvetica,sans-Serif" font-size="10.00">/equation_systems/icns</text>
<text text-anchor="middle" x="746.5" y="-95" font-family="Helvetica,sans-Serif" font-size="10.00">/source_terms/DragForcing.cpp</text>
</a>
</g>
</g>
<!-- Node3&#45;&gt;Node8 -->
<g id="edge7_Node000003_Node000008" class="edge">
<title>Node3&#45;&gt;Node8</title>
<g id="a_edge7_Node000003_Node000008"><a xlink:title=" ">
<path fill="none" stroke="#63b8ff" d="M1709.94,-176.62C1708.45,-176.4 1706.97,-176.2 1705.5,-176 1323.64,-125.2 1220.28,-198.36 839.5,-140 836.44,-139.53 833.34,-139 830.22,-138.42"/>
<polygon fill="#63b8ff" stroke="#63b8ff" points="1709.45,-180.09 1719.88,-178.24 1710.57,-173.18 1709.45,-180.09"/>
</a>
</g>
</g>
<!-- Node9 -->
<g id="Node000009" class="node">
<title>Node9</title>
<g id="a_Node000009"><a xlink:href="_forest_forcing_8cpp.html" target="_top" xlink:title=" ">
<polygon fill="white" stroke="#666666" points="1022.5,-140 848.5,-140 848.5,-88 1022.5,-88 1022.5,-140"/>
<text text-anchor="start" x="856.5" y="-128" font-family="Helvetica,sans-Serif" font-size="10.00">/home/runner/work/amr</text>
<text text-anchor="start" x="856.5" y="-117" font-family="Helvetica,sans-Serif" font-size="10.00">&#45;wind/amr&#45;wind/amr&#45;wind</text>
<text text-anchor="start" x="856.5" y="-106" font-family="Helvetica,sans-Serif" font-size="10.00">/equation_systems/icns</text>
<text text-anchor="middle" x="935.5" y="-95" font-family="Helvetica,sans-Serif" font-size="10.00">/source_terms/ForestForcing.cpp</text>
</a>
</g>
</g>
<!-- Node3&#45;&gt;Node9 -->
<g id="edge8_Node000003_Node000009" class="edge">
<title>Node3&#45;&gt;Node9</title>
<g id="a_edge8_Node000003_Node000009"><a xlink:title=" ">
<path fill="none" stroke="#63b8ff" d="M1709.94,-176.65C1708.45,-176.42 1706.97,-176.2 1705.5,-176 1408.38,-134.68 1327.93,-186.03 1031.5,-140 1028.61,-139.55 1025.67,-139.05 1022.72,-138.51"/>
<polygon fill="#63b8ff" stroke="#63b8ff" points="1709.43,-180.11 1719.87,-178.3 1710.58,-173.21 1709.43,-180.11"/>
</a>
</g>
</g>
<!-- Node10 -->
<g id="Node000010" class="node">
<title>Node10</title>
<g id="a_Node000010"><a xlink:href="_hurricane_forcing_8cpp.html" target="_top" xlink:title=" ">
<polygon fill="white" stroke="#666666" points="1232,-140 1041,-140 1041,-88 1232,-88 1232,-140"/>
<text text-anchor="start" x="1049" y="-128" font-family="Helvetica,sans-Serif" font-size="10.00">/home/runner/work/amr</text>
<text text-anchor="start" x="1049" y="-117" font-family="Helvetica,sans-Serif" font-size="10.00">&#45;wind/amr&#45;wind/amr&#45;wind</text>
<text text-anchor="start" x="1049" y="-106" font-family="Helvetica,sans-Serif" font-size="10.00">/equation_systems/icns</text>
<text text-anchor="middle" x="1136.5" y="-95" font-family="Helvetica,sans-Serif" font-size="10.00">/source_terms/HurricaneForcing.cpp</text>
</a>
</g>
</g>
<!-- Node3&#45;&gt;Node10 -->
<g id="edge9_Node000003_Node000010" class="edge">
<title>Node3&#45;&gt;Node10</title>
<g id="a_edge9_Node000003_Node000010"><a xlink:title=" ">
<path fill="none" stroke="#63b8ff" d="M1709.93,-176.7C1708.45,-176.45 1706.97,-176.22 1705.5,-176 1500.55,-145 1445.25,-172.33 1240.5,-140 1237.75,-139.57 1234.96,-139.1 1232.16,-138.6"/>
<polygon fill="#63b8ff" stroke="#63b8ff" points="1709.4,-180.16 1719.85,-178.43 1710.61,-173.26 1709.4,-180.16"/>
</a>
</g>
</g>
<!-- Node11 -->
<g id="Node000011" class="node">
<title>Node11</title>
<g id="a_Node000011"><a xlink:href="_a_b_l_meso_forcing_temp_8cpp.html" target="_top" xlink:title=" ">
<polygon fill="white" stroke="#666666" points="1465,-140 1250,-140 1250,-88 1465,-88 1465,-140"/>
<text text-anchor="start" x="1258" y="-128" font-family="Helvetica,sans-Serif" font-size="10.00">/home/runner/work/amr</text>
<text text-anchor="start" x="1258" y="-117" font-family="Helvetica,sans-Serif" font-size="10.00">&#45;wind/amr&#45;wind/amr&#45;wind</text>
<text text-anchor="start" x="1258" y="-106" font-family="Helvetica,sans-Serif" font-size="10.00">/equation_systems/temperature</text>
<text text-anchor="middle" x="1357.5" y="-95" font-family="Helvetica,sans-Serif" font-size="10.00">/source_terms/ABLMesoForcingTemp.cpp</text>
</a>
</g>
</g>
<!-- Node3&#45;&gt;Node11 -->
<g id="edge10_Node000003_Node000011" class="edge">
<title>Node3&#45;&gt;Node11</title>
<g id="a_edge10_Node000003_Node000011"><a xlink:title=" ">
<path fill="none" stroke="#63b8ff" d="M1709.91,-176.85C1708.43,-176.56 1706.96,-176.28 1705.5,-176 1603.44,-156.5 1576.68,-158.86 1474.5,-140 1471.44,-139.43 1468.33,-138.85 1465.2,-138.25"/>
<polygon fill="#63b8ff" stroke="#63b8ff" points="1709.29,-180.3 1719.78,-178.85 1710.67,-173.44 1709.29,-180.3"/>
</a>
</g>
</g>
<!-- Node12 -->
<g id="Node000012" class="node">
<title>Node12</title>
<g id="a_Node000012"><a xlink:href="_hurricane_temp_forcing_8cpp.html" target="_top" xlink:title=" ">
<polygon fill="white" stroke="#666666" points="1701.5,-140 1483.5,-140 1483.5,-88 1701.5,-88 1701.5,-140"/>
<text text-anchor="start" x="1491.5" y="-128" font-family="Helvetica,sans-Serif" font-size="10.00">/home/runner/work/amr</text>
<text text-anchor="start" x="1491.5" y="-117" font-family="Helvetica,sans-Serif" font-size="10.00">&#45;wind/amr&#45;wind/amr&#45;wind</text>
<text text-anchor="start" x="1491.5" y="-106" font-family="Helvetica,sans-Serif" font-size="10.00">/equation_systems/temperature</text>
<text text-anchor="middle" x="1592.5" y="-95" font-family="Helvetica,sans-Serif" font-size="10.00">/source_terms/HurricaneTempForcing.cpp</text>
</a>
</g>
</g>
<!-- Node3&#45;&gt;Node12 -->
<g id="edge11_Node000003_Node000012" class="edge">
<title>Node3&#45;&gt;Node12</title>
<g id="a_edge11_Node000003_Node000012"><a xlink:title=" ">
<path fill="none" stroke="#63b8ff" d="M1733.76,-172.14C1708.87,-162.08 1679.73,-150.29 1654.4,-140.04"/>
<polygon fill="#63b8ff" stroke="#63b8ff" points="1732.49,-175.4 1743.07,-175.91 1735.12,-168.92 1732.49,-175.4"/>
</a>
</g>
</g>
<!-- Node13 -->
<g id="Node000013" class="node">
<title>Node13</title>
<g id="a_Node000013"><a xlink:href="helics_8cpp.html" target="_top" xlink:title=" ">
<polygon fill="white" stroke="#666666" points="1863,-134.5 1720,-134.5 1720,-93.5 1863,-93.5 1863,-134.5"/>
<text text-anchor="start" x="1728" y="-122.5" font-family="Helvetica,sans-Serif" font-size="10.00">/home/runner/work/amr</text>
<text text-anchor="start" x="1728" y="-111.5" font-family="Helvetica,sans-Serif" font-size="10.00">&#45;wind/amr&#45;wind/amr&#45;wind</text>
<text text-anchor="middle" x="1791.5" y="-100.5" font-family="Helvetica,sans-Serif" font-size="10.00">/helics.cpp</text>
</a>
</g>
</g>
<!-- Node3&#45;&gt;Node13 -->
<g id="edge12_Node000003_Node000013" class="edge">
<title>Node3&#45;&gt;Node13</title>
<g id="a_edge12_Node000003_Node000013"><a xlink:title=" ">
<path fill="none" stroke="#63b8ff" d="M1791.5,-165.37C1791.5,-155.1 1791.5,-143.9 1791.5,-134.67"/>
<polygon fill="#63b8ff" stroke="#63b8ff" points="1788,-165.6 1791.5,-175.6 1795,-165.6 1788,-165.6"/>
</a>
</g>
</g>
<!-- Node14 -->
<g id="Node000014" class="node">
<title>Node14</title>
<g id="a_Node000014"><a xlink:href="incflo_8cpp.html" target="_top" xlink:title=" ">
<polygon fill="white" stroke="#666666" points="2024,-134.5 1881,-134.5 1881,-93.5 2024,-93.5 2024,-134.5"/>
<text text-anchor="start" x="1889" y="-122.5" font-family="Helvetica,sans-Serif" font-size="10.00">/home/runner/work/amr</text>
<text text-anchor="start" x="1889" y="-111.5" font-family="Helvetica,sans-Serif" font-size="10.00">&#45;wind/amr&#45;wind/amr&#45;wind</text>
<text text-anchor="middle" x="1952.5" y="-100.5" font-family="Helvetica,sans-Serif" font-size="10.00">/incflo.cpp</text>
</a>
</g>
</g>
<!-- Node3&#45;&gt;Node14 -->
<g id="edge13_Node000003_Node000014" class="edge">
<title>Node3&#45;&gt;Node14</title>
<g id="a_edge13_Node000003_Node000014"><a xlink:title=" ">
<path fill="none" stroke="#63b8ff" d="M1839.96,-171.27C1863.4,-159.55 1891.16,-145.67 1913.24,-134.63"/>
<polygon fill="#63b8ff" stroke="#63b8ff" points="1838.26,-168.2 1830.89,-175.81 1841.39,-174.47 1838.26,-168.2"/>
</a>
</g>
</g>
<!-- Node15 -->
<g id="Node000015" class="node">
<title>Node15</title>
<g id="a_Node000015"><a xlink:href="nodal__projection__ops_8_h.html" target="_top" xlink:title=" ">
<polygon fill="white" stroke="#666666" points="2227,-134.5 2042,-134.5 2042,-93.5 2227,-93.5 2227,-134.5"/>
<text text-anchor="start" x="2050" y="-122.5" font-family="Helvetica,sans-Serif" font-size="10.00">/home/runner/work/amr</text>
<text text-anchor="start" x="2050" y="-111.5" font-family="Helvetica,sans-Serif" font-size="10.00">&#45;wind/amr&#45;wind/amr&#45;wind</text>
<text text-anchor="middle" x="2134.5" y="-100.5" font-family="Helvetica,sans-Serif" font-size="10.00">/projection/nodal_projection_ops.H</text>
</a>
</g>
</g>
<!-- Node3&#45;&gt;Node15 -->
<g id="edge14_Node000003_Node000015" class="edge">
<title>Node3&#45;&gt;Node15</title>
<g id="a_edge14_Node000003_Node000015"><a xlink:title=" ">
<path fill="none" stroke="#63b8ff" d="M1873.03,-175.67C1945.01,-159.03 1964.78,-156.14 2033.5,-140 2040.89,-138.27 2048.57,-136.43 2056.25,-134.57"/>
<polygon fill="#63b8ff" stroke="#63b8ff" points="1871.96,-172.32 1863.01,-177.99 1873.54,-179.14 1871.96,-172.32"/>
</a>
</g>
</g>
<!-- Node18 -->
<g id="Node000018" class="node">
<title>Node18</title>
<g id="a_Node000018"><a xlink:href="init_8cpp.html" target="_top" xlink:title=" ">
<polygon fill="white" stroke="#666666" points="2388,-134.5 2245,-134.5 2245,-93.5 2388,-93.5 2388,-134.5"/>
<text text-anchor="start" x="2253" y="-122.5" font-family="Helvetica,sans-Serif" font-size="10.00">/home/runner/work/amr</text>
<text text-anchor="start" x="2253" y="-111.5" font-family="Helvetica,sans-Serif" font-size="10.00">&#45;wind/amr&#45;wind/amr&#45;wind</text>
<text text-anchor="middle" x="2316.5" y="-100.5" font-family="Helvetica,sans-Serif" font-size="10.00">/setup/init.cpp</text>
</a>
</g>
</g>
<!-- Node3&#45;&gt;Node18 -->
<g id="edge17_Node000003_Node000018" class="edge">
<title>Node3&#45;&gt;Node18</title>
<g id="a_edge17_Node000003_Node000018"><a xlink:title=" ">
<path fill="none" stroke="#63b8ff" d="M1873.59,-175.77C2034.07,-149.59 2080.04,-171.81 2236.5,-140 2243.77,-138.52 2251.32,-136.64 2258.75,-134.57"/>
<polygon fill="#63b8ff" stroke="#63b8ff" points="1872.65,-172.38 1863.36,-177.48 1873.8,-179.28 1872.65,-172.38"/>
</a>
</g>
</g>
<!-- Node19 -->
<g id="Node000019" class="node">
<title>Node19</title>
<g id="a_Node000019"><a xlink:href="_kosovic_8cpp.html" target="_top" xlink:title=" ">
<polygon fill="white" stroke="#666666" points="2558.5,-134.5 2406.5,-134.5 2406.5,-93.5 2558.5,-93.5 2558.5,-134.5"/>
<text text-anchor="start" x="2414.5" y="-122.5" font-family="Helvetica,sans-Serif" font-size="10.00">/home/runner/work/amr</text>
<text text-anchor="start" x="2414.5" y="-111.5" font-family="Helvetica,sans-Serif" font-size="10.00">&#45;wind/amr&#45;wind/amr&#45;wind</text>
<text text-anchor="middle" x="2482.5" y="-100.5" font-family="Helvetica,sans-Serif" font-size="10.00">/turbulence/LES/Kosovic.cpp</text>
</a>
</g>
</g>
<!-- Node3&#45;&gt;Node19 -->
<g id="edge18_Node000003_Node000019" class="edge">
<title>Node3&#45;&gt;Node19</title>
<g id="a_edge18_Node000003_Node000019"><a xlink:title=" ">
<path fill="none" stroke="#63b8ff" d="M1873.42,-175.84C2104.9,-141.27 2170.11,-180.72 2397.5,-140 2405.52,-138.56 2413.87,-136.65 2422.06,-134.52"/>
<polygon fill="#63b8ff" stroke="#63b8ff" points="1872.7,-172.41 1863.34,-177.38 1873.76,-179.33 1872.7,-172.41"/>
</a>
</g>
</g>
<!-- Node20 -->
<g id="Node000020" class="node">
<title>Node20</title>
<g id="a_Node000020"><a xlink:href="_a_b_l_8cpp.html" target="_top" xlink:title=" ">
<polygon fill="white" stroke="#666666" points="2720,-134.5 2577,-134.5 2577,-93.5 2720,-93.5 2720,-134.5"/>
<text text-anchor="start" x="2585" y="-122.5" font-family="Helvetica,sans-Serif" font-size="10.00">/home/runner/work/amr</text>
<text text-anchor="start" x="2585" y="-111.5" font-family="Helvetica,sans-Serif" font-size="10.00">&#45;wind/amr&#45;wind/amr&#45;wind</text>
<text text-anchor="middle" x="2648.5" y="-100.5" font-family="Helvetica,sans-Serif" font-size="10.00">/wind_energy/ABL.cpp</text>
</a>
</g>
</g>
<!-- Node3&#45;&gt;Node20 -->
<g id="edge19_Node000003_Node000020" class="edge">
<title>Node3&#45;&gt;Node20</title>
<g id="a_edge19_Node000003_Node000020"><a xlink:title=" ">
<path fill="none" stroke="#63b8ff" d="M1873.39,-175.87C2179.82,-132.47 2265.79,-193.51 2567.5,-140 2575.33,-138.61 2583.45,-136.7 2591.41,-134.54"/>
<polygon fill="#63b8ff" stroke="#63b8ff" points="1872.73,-172.43 1863.33,-177.32 1873.73,-179.35 1872.73,-172.43"/>
</a>
</g>
</g>
<!-- Node21 -->
<g id="Node000021" class="node">
<title>Node21</title>
<g id="a_Node000021"><a xlink:href="_a_b_l_anelastic_8cpp.html" target="_top" xlink:title=" ">
<polygon fill="white" stroke="#666666" points="2908.5,-134.5 2738.5,-134.5 2738.5,-93.5 2908.5,-93.5 2908.5,-134.5"/>
<text text-anchor="start" x="2746.5" y="-122.5" font-family="Helvetica,sans-Serif" font-size="10.00">/home/runner/work/amr</text>
<text text-anchor="start" x="2746.5" y="-111.5" font-family="Helvetica,sans-Serif" font-size="10.00">&#45;wind/amr&#45;wind/amr&#45;wind</text>
<text text-anchor="middle" x="2823.5" y="-100.5" font-family="Helvetica,sans-Serif" font-size="10.00">/wind_energy/ABLAnelastic.cpp</text>
</a>
</g>
</g>
<!-- Node3&#45;&gt;Node21 -->
<g id="edge20_Node000003_Node000021" class="edge">
<title>Node3&#45;&gt;Node21</title>
<g id="a_edge20_Node000003_Node000021"><a xlink:title=" ">
<path fill="none" stroke="#63b8ff" d="M1873.44,-175.87C2251.23,-123.85 2355.49,-196.88 2729.5,-140 2738.6,-138.62 2748.08,-136.69 2757.38,-134.51"/>
<polygon fill="#63b8ff" stroke="#63b8ff" points="1872.75,-172.43 1863.33,-177.28 1873.72,-179.37 1872.75,-172.43"/>
</a>
</g>
</g>
<!-- Node3&#45;&gt;Node22 -->
<g id="edge21_Node000003_Node000022" class="edge">
<title>Node3&#45;&gt;Node22</title>
<g id="a_edge21_Node000003_Node000022"><a xlink:title=" ">
<path fill="none" stroke="#63b8ff" d="M1709.95,-176.59C1708.46,-176.38 1706.97,-176.18 1705.5,-176 1038.86,-93.32 860.39,-228.47 194.5,-140 184.47,-138.67 173.99,-136.74 163.74,-134.53"/>
<polygon fill="#63b8ff" stroke="#63b8ff" points="1709.47,-180.06 1719.89,-178.14 1710.55,-173.14 1709.47,-180.06"/>
</a>
</g>
</g>
<!-- Node16 -->
<g id="Node000016" class="node">
<title>Node16</title>
<g id="a_Node000016"><a xlink:href="_overset_ops_8cpp.html" target="_top" xlink:title=" ">
<polygon fill="white" stroke="#666666" points="2125,-46.5 1982,-46.5 1982,-5.5 2125,-5.5 2125,-46.5"/>
<text text-anchor="start" x="1990" y="-34.5" font-family="Helvetica,sans-Serif" font-size="10.00">/home/runner/work/amr</text>
<text text-anchor="start" x="1990" y="-23.5" font-family="Helvetica,sans-Serif" font-size="10.00">&#45;wind/amr&#45;wind/amr&#45;wind</text>
<text text-anchor="middle" x="2053.5" y="-12.5" font-family="Helvetica,sans-Serif" font-size="10.00">/overset/OversetOps.cpp</text>
</a>
</g>
</g>
<!-- Node15&#45;&gt;Node16 -->
<g id="edge15_Node000015_Node000016" class="edge">
<title>Node15&#45;&gt;Node16</title>
<g id="a_edge15_Node000015_Node000016"><a xlink:title=" ">
<path fill="none" stroke="#63b8ff" d="M2108.98,-85.9C2097.02,-73.2 2083.03,-58.35 2072.09,-46.74"/>
<polygon fill="#63b8ff" stroke="#63b8ff" points="2106.72,-88.61 2116.12,-93.49 2111.81,-83.81 2106.72,-88.61"/>
</a>
</g>
</g>
<!-- Node17 -->
<g id="Node000017" class="node">
<title>Node17</title>
<g id="a_Node000017"><a xlink:href="incflo__apply__nodal__projection_8cpp.html" target="_top" xlink:title=" ">
<polygon fill="white" stroke="#666666" points="2286,-52 2143,-52 2143,0 2286,0 2286,-52"/>
<text text-anchor="start" x="2151" y="-40" font-family="Helvetica,sans-Serif" font-size="10.00">/home/runner/work/amr</text>
<text text-anchor="start" x="2151" y="-29" font-family="Helvetica,sans-Serif" font-size="10.00">&#45;wind/amr&#45;wind/amr&#45;wind</text>
<text text-anchor="start" x="2151" y="-18" font-family="Helvetica,sans-Serif" font-size="10.00">/projection/incflo_apply</text>
<text text-anchor="middle" x="2214.5" y="-7" font-family="Helvetica,sans-Serif" font-size="10.00">_nodal_projection.cpp</text>
</a>
</g>
</g>
<!-- Node15&#45;&gt;Node17 -->
<g id="edge16_Node000015_Node000017" class="edge">
<title>Node15&#45;&gt;Node17</title>
<g id="a_edge16_Node000015_Node000017"><a xlink:title=" ">
<path fill="none" stroke="#63b8ff" d="M2159.64,-85.97C2169.65,-75.21 2181.1,-62.9 2190.95,-52.32"/>
<polygon fill="#63b8ff" stroke="#63b8ff" points="2156.9,-83.78 2152.65,-93.49 2162.03,-88.55 2156.9,-83.78"/>
</a>
</g>
</g>
<!-- Node24 -->
<g id="Node000024" class="node">
<title>Node24</title>
<g id="a_Node000024"><a xlink:href="_a_b_l_stats_8cpp.html" target="_top" xlink:title=" ">
<polygon fill="white" stroke="#666666" points="3418,-134.5 3269,-134.5 3269,-93.5 3418,-93.5 3418,-134.5"/>
<text text-anchor="start" x="3277" y="-122.5" font-family="Helvetica,sans-Serif" font-size="10.00">/home/runner/work/amr</text>
<text text-anchor="start" x="3277" y="-111.5" font-family="Helvetica,sans-Serif" font-size="10.00">&#45;wind/amr&#45;wind/amr&#45;wind</text>
<text text-anchor="middle" x="3343.5" y="-100.5" font-family="Helvetica,sans-Serif" font-size="10.00">/wind_energy/ABLStats.cpp</text>
</a>
</g>
</g>
<!-- Node23&#45;&gt;Node24 -->
<g id="edge23_Node000023_Node000024" class="edge">
<title>Node23&#45;&gt;Node24</title>
<g id="a_edge23_Node000023_Node000024"><a xlink:title=" ">
<path fill="none" stroke="#63b8ff" d="M2034.3,-194.7C2282.26,-191.86 3023.02,-180.15 3260.5,-140 3268.51,-138.65 3276.84,-136.75 3284.99,-134.6"/>
<polygon fill="#63b8ff" stroke="#63b8ff" points="2034.24,-191.2 2024.28,-194.81 2034.32,-198.2 2034.24,-191.2"/>
</a>
</g>
</g>
<!-- Node25&#45;&gt;Node3 -->
<g id="edge25_Node000025_Node000003" class="edge">
<title>Node25&#45;&gt;Node3</title>
<g id="a_edge25_Node000025_Node000003"><a xlink:title=" ">
<path fill="none" stroke="#63b8ff" d="M1822.14,-244.39C1816.19,-235.3 1809.74,-225.41 1804.29,-217.07"/>
<polygon fill="#63b8ff" stroke="#63b8ff" points="1819.23,-246.34 1827.63,-252.79 1825.09,-242.51 1819.23,-246.34"/>
</a>
</g>
</g>
<!-- Node25&#45;&gt;Node23 -->
<g id="edge26_Node000025_Node000023" class="edge">
<title>Node25&#45;&gt;Node23</title>
<g id="a_edge26_Node000025_Node000023"><a xlink:title=" ">
<path fill="none" stroke="#63b8ff" d="M1878.03,-247.37C1892.72,-237.53 1909.33,-226.41 1923.12,-217.17"/>
<polygon fill="#63b8ff" stroke="#63b8ff" points="1876,-244.52 1869.63,-252.99 1879.89,-250.33 1876,-244.52"/>
</a>
</g>
</g>
</g>
</svg>
