<?xml version="1.0" encoding="UTF-8" standalone="no"?>
<!DOCTYPE svg PUBLIC "-//W3C//DTD SVG 1.1//EN"
 "http://www.w3.org/Graphics/SVG/1.1/DTD/svg11.dtd">
<!-- Generated by graphviz version 2.43.0 (0)
 -->
<!-- Title: /home/runner/work/amr&#45;wind/amr&#45;wind/amr&#45;wind/mesh_mapping_models/ChannelFlowMap.cpp Pages: 1 -->
<svg width="1264pt" height="401pt"
 viewBox="0.00 0.00 1263.50 401.00" xmlns="http://www.w3.org/2000/svg" xmlns:xlink="http://www.w3.org/1999/xlink">
<g id="graph0" class="graph" transform="scale(1 1) rotate(0) translate(4 397)">
<title>/home/runner/work/amr&#45;wind/amr&#45;wind/amr&#45;wind/mesh_mapping_models/ChannelFlowMap.cpp</title>
<!-- Node1 -->
<g id="Node000001" class="node">
<title>Node1</title>
<g id="a_Node000001"><a xlink:title=" ">
<polygon fill="#999999" stroke="#666666" points="1094,-393 892,-393 892,-341 1094,-341 1094,-393"/>
<text text-anchor="start" x="900" y="-381" font-family="Helvetica,sans-Serif" font-size="10.00">/home/runner/work/amr</text>
<text text-anchor="start" x="900" y="-370" font-family="Helvetica,sans-Serif" font-size="10.00">&#45;wind/amr&#45;wind/amr&#45;wind</text>
<text text-anchor="start" x="900" y="-359" font-family="Helvetica,sans-Serif" font-size="10.00">/mesh_mapping_models/ChannelFlow</text>
<text text-anchor="middle" x="993" y="-348" font-family="Helvetica,sans-Serif" font-size="10.00">Map.cpp</text>
</a>
</g>
</g>
<!-- Node2 -->
<g id="Node000002" class="node">
<title>Node2</title>
<g id="a_Node000002"><a xlink:title=" ">
<polygon fill="#e0e0e0" stroke="#999999" points="824.5,-299.5 777.5,-299.5 777.5,-280.5 824.5,-280.5 824.5,-299.5"/>
<text text-anchor="middle" x="801" y="-287.5" font-family="Helvetica,sans-Serif" font-size="10.00">cmath</text>
</a>
</g>
</g>
<!-- Node1&#45;&gt;Node2 -->
<g id="edge1_Node000001_Node000002" class="edge">
<title>Node1&#45;&gt;Node2</title>
<g id="a_edge1_Node000001_Node000002"><a xlink:title=" ">
<path fill="none" stroke="#63b8ff" d="M924.98,-340.9C896.45,-330.15 862.99,-317.27 833,-305 831.83,-304.52 830.64,-304.03 829.44,-303.53"/>
<polygon fill="#63b8ff" stroke="#63b8ff" points="830.8,-300.3 820.23,-299.59 828.05,-306.74 830.8,-300.3"/>
</a>
</g>
</g>
<!-- Node3 -->
<g id="Node000003" class="node">
<title>Node3</title>
<g id="a_Node000003"><a xlink:href="_channel_flow_map_8_h.html" target="_top" xlink:title=" ">
<polygon fill="white" stroke="#666666" points="997.5,-305 842.5,-305 842.5,-275 997.5,-275 997.5,-305"/>
<text text-anchor="start" x="850.5" y="-293" font-family="Helvetica,sans-Serif" font-size="10.00">amr&#45;wind/mesh_mapping</text>
<text text-anchor="middle" x="920" y="-282" font-family="Helvetica,sans-Serif" font-size="10.00">_models/ChannelFlowMap.H</text>
</a>
</g>
</g>
<!-- Node1&#45;&gt;Node3 -->
<g id="edge2_Node000001_Node000003" class="edge">
<title>Node1&#45;&gt;Node3</title>
<g id="a_edge2_Node000001_Node000003"><a xlink:title=" ">
<path fill="none" stroke="#63b8ff" d="M968.29,-340.61C959.46,-331.54 949.6,-321.41 941.1,-312.68"/>
<polygon fill="#63b8ff" stroke="#63b8ff" points="943.53,-310.15 934.04,-305.43 938.51,-315.03 943.53,-310.15"/>
</a>
</g>
</g>
<!-- Node25 -->
<g id="Node000025" class="node">
<title>Node25</title>
<g id="a_Node000025"><a xlink:title=" ">
<polygon fill="#e0e0e0" stroke="#999999" points="1255.5,-299.5 1136.5,-299.5 1136.5,-280.5 1255.5,-280.5 1255.5,-299.5"/>
<text text-anchor="middle" x="1196" y="-287.5" font-family="Helvetica,sans-Serif" font-size="10.00">AMReX_ParmParse.H</text>
</a>
</g>
</g>
<!-- Node1&#45;&gt;Node25 -->
<g id="edge35_Node000001_Node000025" class="edge">
<title>Node1&#45;&gt;Node25</title>
<g id="a_edge35_Node000001_Node000025"><a xlink:title=" ">
<path fill="none" stroke="#63b8ff" d="M1060.88,-340.92C1095.37,-328.18 1135.7,-313.28 1163.26,-303.09"/>
<polygon fill="#63b8ff" stroke="#63b8ff" points="1164.64,-306.32 1172.81,-299.57 1162.21,-299.75 1164.64,-306.32"/>
</a>
</g>
</g>
<!-- Node26 -->
<g id="Node000026" class="node">
<title>Node26</title>
<g id="a_Node000026"><a xlink:href="math__ops_8_h.html" target="_top" xlink:title=" ">
<polygon fill="white" stroke="#666666" points="1118.5,-305 1015.5,-305 1015.5,-275 1118.5,-275 1118.5,-305"/>
<text text-anchor="start" x="1023.5" y="-293" font-family="Helvetica,sans-Serif" font-size="10.00">amr&#45;wind/utilities</text>
<text text-anchor="middle" x="1067" y="-282" font-family="Helvetica,sans-Serif" font-size="10.00">/math_ops.H</text>
</a>
</g>
</g>
<!-- Node1&#45;&gt;Node26 -->
<g id="edge36_Node000001_Node000026" class="edge">
<title>Node1&#45;&gt;Node26</title>
<g id="a_edge36_Node000001_Node000026"><a xlink:title=" ">
<path fill="none" stroke="#63b8ff" d="M1018.05,-340.61C1027,-331.54 1037,-321.41 1045.61,-312.68"/>
<polygon fill="#63b8ff" stroke="#63b8ff" points="1048.23,-315 1052.76,-305.43 1043.25,-310.09 1048.23,-315"/>
</a>
</g>
</g>
<!-- Node4 -->
<g id="Node000004" class="node">
<title>Node4</title>
<g id="a_Node000004"><a xlink:href="_mesh_map_8_h.html" target="_top" xlink:title=" ">
<polygon fill="white" stroke="#666666" points="864,-239 716,-239 716,-220 864,-220 864,-239"/>
<text text-anchor="middle" x="790" y="-227" font-family="Helvetica,sans-Serif" font-size="10.00">amr&#45;wind/core/MeshMap.H</text>
</a>
</g>
</g>
<!-- Node3&#45;&gt;Node4 -->
<g id="edge3_Node000003_Node000004" class="edge">
<title>Node3&#45;&gt;Node4</title>
<g id="a_edge3_Node000003_Node000004"><a xlink:title=" ">
<path fill="none" stroke="#63b8ff" d="M888.86,-274.99C867.46,-265.36 839.27,-252.67 818.47,-243.31"/>
<polygon fill="#63b8ff" stroke="#63b8ff" points="819.75,-240.05 809.2,-239.14 816.88,-246.43 819.75,-240.05"/>
</a>
</g>
</g>
<!-- Node24 -->
<g id="Node000024" class="node">
<title>Node24</title>
<g id="a_Node000024"><a xlink:title=" ">
<polygon fill="#e0e0e0" stroke="#999999" points="1109,-239 1017,-239 1017,-220 1109,-220 1109,-239"/>
<text text-anchor="middle" x="1063" y="-227" font-family="Helvetica,sans-Serif" font-size="10.00">AMReX_REAL.H</text>
</a>
</g>
</g>
<!-- Node3&#45;&gt;Node24 -->
<g id="edge34_Node000003_Node000024" class="edge">
<title>Node3&#45;&gt;Node24</title>
<g id="a_edge34_Node000003_Node000024"><a xlink:title=" ">
<path fill="none" stroke="#63b8ff" d="M954.25,-274.99C978.11,-265.23 1009.65,-252.33 1032.61,-242.93"/>
<polygon fill="#63b8ff" stroke="#63b8ff" points="1033.95,-246.17 1041.88,-239.14 1031.3,-239.69 1033.95,-246.17"/>
</a>
</g>
</g>
<!-- Node5 -->
<g id="Node000005" class="node">
<title>Node5</title>
<g id="a_Node000005"><a xlink:href="_coll_mgr_8_h.html" target="_top" xlink:title=" ">
<polygon fill="white" stroke="#666666" points="513.5,-184 376.5,-184 376.5,-165 513.5,-165 513.5,-184"/>
<text text-anchor="middle" x="445" y="-172" font-family="Helvetica,sans-Serif" font-size="10.00">amr&#45;wind/core/CollMgr.H</text>
</a>
</g>
</g>
<!-- Node4&#45;&gt;Node5 -->
<g id="edge4_Node000004_Node000005" class="edge">
<title>Node4&#45;&gt;Node5</title>
<g id="a_edge4_Node000004_Node000005"><a xlink:title=" ">
<path fill="none" stroke="#63b8ff" d="M734.57,-219.98C673.55,-210.61 575.52,-195.55 510.69,-185.59"/>
<polygon fill="#63b8ff" stroke="#63b8ff" points="510.99,-182.1 500.58,-184.04 509.93,-189.02 510.99,-182.1"/>
</a>
</g>
</g>
<!-- Node10 -->
<g id="Node000010" class="node">
<title>Node10</title>
<g id="a_Node000010"><a xlink:href="_factory_8_h.html" target="_top" xlink:title=" ">
<polygon fill="white" stroke="#666666" points="322,-184 188,-184 188,-165 322,-165 322,-184"/>
<text text-anchor="middle" x="255" y="-172" font-family="Helvetica,sans-Serif" font-size="10.00">amr&#45;wind/core/Factory.H</text>
</a>
</g>
</g>
<!-- Node4&#45;&gt;Node10 -->
<g id="edge9_Node000004_Node000010" class="edge">
<title>Node4&#45;&gt;Node10</title>
<g id="a_edge9_Node000004_Node000010"><a xlink:title=" ">
<path fill="none" stroke="#63b8ff" d="M715.89,-221.16C614.83,-211.15 434.66,-193.3 332.08,-183.14"/>
<polygon fill="#63b8ff" stroke="#63b8ff" points="332.39,-179.65 322.09,-182.15 331.7,-186.62 332.39,-179.65"/>
</a>
</g>
</g>
<!-- Node14 -->
<g id="Node000014" class="node">
<title>Node14</title>
<g id="a_Node000014"><a xlink:href="_field_8_h.html" target="_top" xlink:title=" ">
<polygon fill="white" stroke="#666666" points="783,-184 659,-184 659,-165 783,-165 783,-184"/>
<text text-anchor="middle" x="721" y="-172" font-family="Helvetica,sans-Serif" font-size="10.00">amr&#45;wind/core/Field.H</text>
</a>
</g>
</g>
<!-- Node4&#45;&gt;Node14 -->
<g id="edge15_Node000004_Node000014" class="edge">
<title>Node4&#45;&gt;Node14</title>
<g id="a_edge15_Node000004_Node000014"><a xlink:title=" ">
<path fill="none" stroke="#63b8ff" d="M778.91,-219.98C768.51,-212 752.74,-199.88 740.28,-190.31"/>
<polygon fill="#63b8ff" stroke="#63b8ff" points="742.35,-187.49 732.29,-184.17 738.09,-193.04 742.35,-187.49"/>
</a>
</g>
</g>
<!-- Node16 -->
<g id="Node000016" class="node">
<title>Node16</title>
<g id="a_Node000016"><a xlink:title=" ">
<polygon fill="#e0e0e0" stroke="#999999" points="1074.5,-74 965.5,-74 965.5,-55 1074.5,-55 1074.5,-74"/>
<text text-anchor="middle" x="1020" y="-62" font-family="Helvetica,sans-Serif" font-size="10.00">AMReX_MultiFab.H</text>
</a>
</g>
</g>
<!-- Node4&#45;&gt;Node16 -->
<g id="edge32_Node000004_Node000016" class="edge">
<title>Node4&#45;&gt;Node16</title>
<g id="a_edge32_Node000004_Node000016"><a xlink:title=" ">
<path fill="none" stroke="#63b8ff" d="M853.02,-220C945.23,-206.12 1109.81,-175.41 1145,-129 1165.92,-101.41 1124.98,-84.87 1084.48,-75.62"/>
<polygon fill="#63b8ff" stroke="#63b8ff" points="1085.02,-72.16 1074.51,-73.48 1083.55,-79 1085.02,-72.16"/>
</a>
</g>
</g>
<!-- Node23 -->
<g id="Node000023" class="node">
<title>Node23</title>
<g id="a_Node000023"><a xlink:title=" ">
<polygon fill="#e0e0e0" stroke="#999999" points="916.5,-184 801.5,-184 801.5,-165 916.5,-165 916.5,-184"/>
<text text-anchor="middle" x="859" y="-172" font-family="Helvetica,sans-Serif" font-size="10.00">AMReX_Geometry.H</text>
</a>
</g>
</g>
<!-- Node4&#45;&gt;Node23 -->
<g id="edge33_Node000004_Node000023" class="edge">
<title>Node4&#45;&gt;Node23</title>
<g id="a_edge33_Node000004_Node000023"><a xlink:title=" ">
<path fill="none" stroke="#63b8ff" d="M801.09,-219.98C811.49,-212 827.26,-199.88 839.72,-190.31"/>
<polygon fill="#63b8ff" stroke="#63b8ff" points="841.91,-193.04 847.71,-184.17 837.65,-187.49 841.91,-193.04"/>
</a>
</g>
</g>
<!-- Node6 -->
<g id="Node000006" class="node">
<title>Node6</title>
<g id="a_Node000006"><a xlink:title=" ">
<polygon fill="#e0e0e0" stroke="#999999" points="618,-74 574,-74 574,-55 618,-55 618,-74"/>
<text text-anchor="middle" x="596" y="-62" font-family="Helvetica,sans-Serif" font-size="10.00">string</text>
</a>
</g>
</g>
<!-- Node5&#45;&gt;Node6 -->
<g id="edge5_Node000005_Node000006" class="edge">
<title>Node5&#45;&gt;Node6</title>
<g id="a_edge5_Node000005_Node000006"><a xlink:title=" ">
<path fill="none" stroke="#63b8ff" d="M433.13,-164.82C417.23,-152.13 392.59,-128.09 407,-110 451.61,-54.01 494.51,-91.19 564,-74 564.1,-73.97 564.2,-73.95 564.3,-73.92"/>
<polygon fill="#63b8ff" stroke="#63b8ff" points="565.17,-77.32 573.99,-71.45 563.44,-70.53 565.17,-77.32"/>
</a>
</g>
</g>
<!-- Node7 -->
<g id="Node000007" class="node">
<title>Node7</title>
<g id="a_Node000007"><a xlink:title=" ">
<polygon fill="#e0e0e0" stroke="#999999" points="474,-129 416,-129 416,-110 474,-110 474,-129"/>
<text text-anchor="middle" x="445" y="-117" font-family="Helvetica,sans-Serif" font-size="10.00">memory</text>
</a>
</g>
</g>
<!-- Node5&#45;&gt;Node7 -->
<g id="edge6_Node000005_Node000007" class="edge">
<title>Node5&#45;&gt;Node7</title>
<g id="a_edge6_Node000005_Node000007"><a xlink:title=" ">
<path fill="none" stroke="#63b8ff" d="M445,-164.75C445,-157.8 445,-147.85 445,-139.13"/>
<polygon fill="#63b8ff" stroke="#63b8ff" points="448.5,-139.09 445,-129.09 441.5,-139.09 448.5,-139.09"/>
</a>
</g>
</g>
<!-- Node8 -->
<g id="Node000008" class="node">
<title>Node8</title>
<g id="a_Node000008"><a xlink:title=" ">
<polygon fill="#e0e0e0" stroke="#999999" points="359.5,-129 266.5,-129 266.5,-110 359.5,-110 359.5,-129"/>
<text text-anchor="middle" x="313" y="-117" font-family="Helvetica,sans-Serif" font-size="10.00">unordered_map</text>
</a>
</g>
</g>
<!-- Node5&#45;&gt;Node8 -->
<g id="edge7_Node000005_Node000008" class="edge">
<title>Node5&#45;&gt;Node8</title>
<g id="a_edge7_Node000005_Node000008"><a xlink:title=" ">
<path fill="none" stroke="#63b8ff" d="M423.79,-164.98C402.27,-156.34 368.72,-142.87 344.17,-133.02"/>
<polygon fill="#63b8ff" stroke="#63b8ff" points="345.18,-129.65 334.59,-129.17 342.57,-136.14 345.18,-129.65"/>
</a>
</g>
</g>
<!-- Node9 -->
<g id="Node000009" class="node">
<title>Node9</title>
<g id="a_Node000009"><a xlink:title=" ">
<polygon fill="#e0e0e0" stroke="#999999" points="734,-74 636,-74 636,-55 734,-55 734,-74"/>
<text text-anchor="middle" x="685" y="-62" font-family="Helvetica,sans-Serif" font-size="10.00">AMReX_Vector.H</text>
</a>
</g>
</g>
<!-- Node5&#45;&gt;Node9 -->
<g id="edge8_Node000005_Node000009" class="edge">
<title>Node5&#45;&gt;Node9</title>
<g id="a_edge8_Node000005_Node000009"><a xlink:title=" ">
<path fill="none" stroke="#63b8ff" d="M464.23,-164.84C506.47,-145.84 607.47,-100.39 656.85,-78.17"/>
<polygon fill="#63b8ff" stroke="#63b8ff" points="658.32,-81.34 666.01,-74.05 655.45,-74.96 658.32,-81.34"/>
</a>
</g>
</g>
<!-- Node10&#45;&gt;Node7 -->
<g id="edge10_Node000010_Node000007" class="edge">
<title>Node10&#45;&gt;Node7</title>
<g id="a_edge10_Node000010_Node000007"><a xlink:title=" ">
<path fill="none" stroke="#63b8ff" d="M285.53,-164.98C318.18,-155.88 370.07,-141.4 405.74,-131.45"/>
<polygon fill="#63b8ff" stroke="#63b8ff" points="407.11,-134.7 415.8,-128.65 405.22,-127.96 407.11,-134.7"/>
</a>
</g>
</g>
<!-- Node10&#45;&gt;Node8 -->
<g id="edge11_Node000010_Node000008" class="edge">
<title>Node10&#45;&gt;Node8</title>
<g id="a_edge11_Node000010_Node000008"><a xlink:title=" ">
<path fill="none" stroke="#63b8ff" d="M264.32,-164.98C272.81,-157.23 285.56,-145.58 295.88,-136.14"/>
<polygon fill="#63b8ff" stroke="#63b8ff" points="298.49,-138.5 303.51,-129.17 293.77,-133.33 298.49,-138.5"/>
</a>
</g>
</g>
<!-- Node11 -->
<g id="Node000011" class="node">
<title>Node11</title>
<g id="a_Node000011"><a xlink:title=" ">
<polygon fill="#e0e0e0" stroke="#999999" points="248,-129 188,-129 188,-110 248,-110 248,-129"/>
<text text-anchor="middle" x="218" y="-117" font-family="Helvetica,sans-Serif" font-size="10.00">iostream</text>
</a>
</g>
</g>
<!-- Node10&#45;&gt;Node11 -->
<g id="edge12_Node000010_Node000011" class="edge">
<title>Node10&#45;&gt;Node11</title>
<g id="a_edge12_Node000010_Node000011"><a xlink:title=" ">
<path fill="none" stroke="#63b8ff" d="M248.89,-164.75C243.72,-157.34 236.15,-146.5 229.81,-137.41"/>
<polygon fill="#63b8ff" stroke="#63b8ff" points="232.59,-135.29 224,-129.09 226.85,-139.29 232.59,-135.29"/>
</a>
</g>
</g>
<!-- Node12 -->
<g id="Node000012" class="node">
<title>Node12</title>
<g id="a_Node000012"><a xlink:title=" ">
<polygon fill="#e0e0e0" stroke="#999999" points="90,-129 0,-129 0,-110 90,-110 90,-129"/>
<text text-anchor="middle" x="45" y="-117" font-family="Helvetica,sans-Serif" font-size="10.00">AMReX_Print.H</text>
</a>
</g>
</g>
<!-- Node10&#45;&gt;Node12 -->
<g id="edge13_Node000010_Node000012" class="edge">
<title>Node10&#45;&gt;Node12</title>
<g id="a_edge13_Node000010_Node000012"><a xlink:title=" ">
<path fill="none" stroke="#63b8ff" d="M221.26,-164.98C185.32,-155.91 128.28,-141.52 88.87,-131.57"/>
<polygon fill="#63b8ff" stroke="#63b8ff" points="89.56,-128.14 79,-129.08 87.84,-134.92 89.56,-128.14"/>
</a>
</g>
</g>
<!-- Node13 -->
<g id="Node000013" class="node">
<title>Node13</title>
<g id="a_Node000013"><a xlink:title=" ">
<polygon fill="#e0e0e0" stroke="#999999" points="170,-129 108,-129 108,-110 170,-110 170,-129"/>
<text text-anchor="middle" x="139" y="-117" font-family="Helvetica,sans-Serif" font-size="10.00">AMReX.H</text>
</a>
</g>
</g>
<!-- Node10&#45;&gt;Node13 -->
<g id="edge14_Node000010_Node000013" class="edge">
<title>Node10&#45;&gt;Node13</title>
<g id="a_edge14_Node000010_Node000013"><a xlink:title=" ">
<path fill="none" stroke="#63b8ff" d="M236.36,-164.98C217.7,-156.46 188.75,-143.23 167.26,-133.41"/>
<polygon fill="#63b8ff" stroke="#63b8ff" points="168.53,-130.14 157.98,-129.17 165.62,-136.51 168.53,-130.14"/>
</a>
</g>
</g>
<!-- Node14&#45;&gt;Node6 -->
<g id="edge16_Node000014_Node000006" class="edge">
<title>Node14&#45;&gt;Node6</title>
<g id="a_edge16_Node000014_Node000006"><a xlink:title=" ">
<path fill="none" stroke="#63b8ff" d="M659,-166.22C635.69,-160.15 611.37,-149.09 597,-129 587.79,-116.12 588.6,-97.71 591.08,-84.02"/>
<polygon fill="#63b8ff" stroke="#63b8ff" points="594.5,-84.78 593.28,-74.26 587.67,-83.25 594.5,-84.78"/>
</a>
</g>
</g>
<!-- Node14&#45;&gt;Node7 -->
<g id="edge17_Node000014_Node000007" class="edge">
<title>Node14&#45;&gt;Node7</title>
<g id="a_edge17_Node000014_Node000007"><a xlink:title=" ">
<path fill="none" stroke="#63b8ff" d="M676.66,-164.98C623.48,-154.77 535.18,-137.82 484.34,-128.05"/>
<polygon fill="#63b8ff" stroke="#63b8ff" points="484.86,-124.59 474.38,-126.14 483.54,-131.47 484.86,-124.59"/>
</a>
</g>
</g>
<!-- Node14&#45;&gt;Node8 -->
<g id="edge18_Node000014_Node000008" class="edge">
<title>Node14&#45;&gt;Node8</title>
<g id="a_edge18_Node000014_Node000008"><a xlink:title=" ">
<path fill="none" stroke="#63b8ff" d="M658.59,-165.39C579.92,-155.17 445.81,-137.75 369.86,-127.89"/>
<polygon fill="#63b8ff" stroke="#63b8ff" points="369.91,-124.36 359.54,-126.55 369.01,-131.3 369.91,-124.36"/>
</a>
</g>
</g>
<!-- Node15 -->
<g id="Node000015" class="node">
<title>Node15</title>
<g id="a_Node000015"><a xlink:title=" ">
<polygon fill="#e0e0e0" stroke="#999999" points="954,-129 890,-129 890,-110 954,-110 954,-129"/>
<text text-anchor="middle" x="922" y="-117" font-family="Helvetica,sans-Serif" font-size="10.00">algorithm</text>
</a>
</g>
</g>
<!-- Node14&#45;&gt;Node15 -->
<g id="edge19_Node000014_Node000015" class="edge">
<title>Node14&#45;&gt;Node15</title>
<g id="a_edge19_Node000014_Node000015"><a xlink:title=" ">
<path fill="none" stroke="#63b8ff" d="M753.29,-164.98C787.73,-155.91 842.38,-141.49 880.11,-131.55"/>
<polygon fill="#63b8ff" stroke="#63b8ff" points="881.01,-134.93 889.79,-128.99 879.22,-128.16 881.01,-134.93"/>
</a>
</g>
</g>
<!-- Node14&#45;&gt;Node16 -->
<g id="edge20_Node000014_Node000016" class="edge">
<title>Node14&#45;&gt;Node16</title>
<g id="a_edge20_Node000014_Node000016"><a xlink:title=" ">
<path fill="none" stroke="#63b8ff" d="M783.22,-165.58C854.87,-156.05 964.83,-139.94 981,-129 997.04,-118.15 1007.65,-98.28 1013.71,-83.65"/>
<polygon fill="#63b8ff" stroke="#63b8ff" points="1017.04,-84.71 1017.32,-74.12 1010.5,-82.23 1017.04,-84.71"/>
</a>
</g>
</g>
<!-- Node17 -->
<g id="Node000017" class="node">
<title>Node17</title>
<g id="a_Node000017"><a xlink:title=" ">
<polygon fill="#e0e0e0" stroke="#999999" points="705.5,-129 606.5,-129 606.5,-110 705.5,-110 705.5,-129"/>
<text text-anchor="middle" x="656" y="-117" font-family="Helvetica,sans-Serif" font-size="10.00">AMReX_BCRec.H</text>
</a>
</g>
</g>
<!-- Node14&#45;&gt;Node17 -->
<g id="edge21_Node000014_Node000017" class="edge">
<title>Node14&#45;&gt;Node17</title>
<g id="a_edge21_Node000014_Node000017"><a xlink:title=" ">
<path fill="none" stroke="#63b8ff" d="M710.56,-164.98C700.85,-157.07 686.18,-145.11 674.5,-135.58"/>
<polygon fill="#63b8ff" stroke="#63b8ff" points="676.6,-132.78 666.63,-129.17 672.17,-138.2 676.6,-132.78"/>
</a>
</g>
</g>
<!-- Node18 -->
<g id="Node000018" class="node">
<title>Node18</title>
<g id="a_Node000018"><a xlink:title=" ">
<polygon fill="#e0e0e0" stroke="#999999" points="1135.5,-129 1048.5,-129 1048.5,-110 1135.5,-110 1135.5,-129"/>
<text text-anchor="middle" x="1092" y="-117" font-family="Helvetica,sans-Serif" font-size="10.00">AMReX_Gpu.H</text>
</a>
</g>
</g>
<!-- Node14&#45;&gt;Node18 -->
<g id="edge22_Node000014_Node000018" class="edge">
<title>Node14&#45;&gt;Node18</title>
<g id="a_edge22_Node000014_Node000018"><a xlink:title=" ">
<path fill="none" stroke="#63b8ff" d="M781.6,-164.96C844.66,-156.06 946.27,-141.67 1034,-129 1035.45,-128.79 1036.92,-128.58 1038.4,-128.36"/>
<polygon fill="#63b8ff" stroke="#63b8ff" points="1038.91,-131.83 1048.3,-126.92 1037.9,-124.9 1038.91,-131.83"/>
</a>
</g>
</g>
<!-- Node19 -->
<g id="Node000019" class="node">
<title>Node19</title>
<g id="a_Node000019"><a xlink:href="incflo__enums_8_h.html" target="_top" xlink:title=" ">
<polygon fill="white" stroke="#666666" points="555.5,-74 414.5,-74 414.5,-55 555.5,-55 555.5,-74"/>
<text text-anchor="middle" x="485" y="-62" font-family="Helvetica,sans-Serif" font-size="10.00">amr&#45;wind/incflo_enums.H</text>
</a>
</g>
</g>
<!-- Node14&#45;&gt;Node19 -->
<g id="edge23_Node000014_Node000019" class="edge">
<title>Node14&#45;&gt;Node19</title>
<g id="a_edge23_Node000014_Node000019"><a xlink:title=" ">
<path fill="none" stroke="#63b8ff" d="M688.22,-164.96C660.57,-157.21 620.29,-144.62 587,-129 557.03,-114.94 525.02,-93.91 505.02,-79.95"/>
<polygon fill="#63b8ff" stroke="#63b8ff" points="506.91,-77 496.72,-74.09 502.87,-82.72 506.91,-77"/>
</a>
</g>
</g>
<!-- Node21 -->
<g id="Node000021" class="node">
<title>Node21</title>
<g id="a_Node000021"><a xlink:href="_field_desc_types_8_h.html" target="_top" xlink:title=" ">
<polygon fill="white" stroke="#666666" points="928,-74 752,-74 752,-55 928,-55 928,-74"/>
<text text-anchor="middle" x="840" y="-62" font-family="Helvetica,sans-Serif" font-size="10.00">amr&#45;wind/core/FieldDescTypes.H</text>
</a>
</g>
</g>
<!-- Node14&#45;&gt;Node21 -->
<g id="edge25_Node000014_Node000021" class="edge">
<title>Node14&#45;&gt;Node21</title>
<g id="a_edge25_Node000014_Node000021"><a xlink:title=" ">
<path fill="none" stroke="#63b8ff" d="M777.45,-164.97C847.08,-154.18 957.05,-136.15 963,-129 984.95,-102.64 944.19,-85.94 903.82,-76.31"/>
<polygon fill="#63b8ff" stroke="#63b8ff" points="904.4,-72.86 893.88,-74.08 902.87,-79.69 904.4,-72.86"/>
</a>
</g>
</g>
<!-- Node22 -->
<g id="Node000022" class="node">
<title>Node22</title>
<g id="a_Node000022"><a xlink:href="_view_field_8_h.html" target="_top" xlink:title=" ">
<polygon fill="white" stroke="#666666" points="872,-129 724,-129 724,-110 872,-110 872,-129"/>
<text text-anchor="middle" x="798" y="-117" font-family="Helvetica,sans-Serif" font-size="10.00">amr&#45;wind/core/ViewField.H</text>
</a>
</g>
</g>
<!-- Node14&#45;&gt;Node22 -->
<g id="edge27_Node000014_Node000022" class="edge">
<title>Node14&#45;&gt;Node22</title>
<g id="a_edge27_Node000014_Node000022"><a xlink:title=" ">
<path fill="none" stroke="#63b8ff" d="M733.37,-164.98C745.09,-156.92 762.92,-144.65 776.89,-135.03"/>
<polygon fill="#63b8ff" stroke="#63b8ff" points="779.15,-137.72 785.4,-129.17 775.18,-131.96 779.15,-137.72"/>
</a>
</g>
</g>
<!-- Node20 -->
<g id="Node000020" class="node">
<title>Node20</title>
<g id="a_Node000020"><a xlink:title=" ">
<polygon fill="#e0e0e0" stroke="#999999" points="687,-19 637,-19 637,0 687,0 687,-19"/>
<text text-anchor="middle" x="662" y="-7" font-family="Helvetica,sans-Serif" font-size="10.00">cstdint</text>
</a>
</g>
</g>
<!-- Node19&#45;&gt;Node20 -->
<g id="edge24_Node000019_Node000020" class="edge">
<title>Node19&#45;&gt;Node20</title>
<g id="a_edge24_Node000019_Node000020"><a xlink:title=" ">
<path fill="none" stroke="#63b8ff" d="M513.44,-54.98C544.35,-45.73 593.76,-30.93 627.02,-20.97"/>
<polygon fill="#63b8ff" stroke="#63b8ff" points="628.21,-24.27 636.79,-18.05 626.2,-17.57 628.21,-24.27"/>
</a>
</g>
</g>
<!-- Node21&#45;&gt;Node20 -->
<g id="edge26_Node000021_Node000020" class="edge">
<title>Node21&#45;&gt;Node20</title>
<g id="a_edge26_Node000021_Node000020"><a xlink:title=" ">
<path fill="none" stroke="#63b8ff" d="M811.4,-54.98C780.23,-45.7 730.34,-30.85 696.89,-20.89"/>
<polygon fill="#63b8ff" stroke="#63b8ff" points="697.66,-17.47 687.08,-17.97 695.66,-24.17 697.66,-17.47"/>
</a>
</g>
</g>
<!-- Node22&#45;&gt;Node6 -->
<g id="edge28_Node000022_Node000006" class="edge">
<title>Node22&#45;&gt;Node6</title>
<g id="a_edge28_Node000022_Node000006"><a xlink:title=" ">
<path fill="none" stroke="#63b8ff" d="M764.54,-109.93C732.07,-101.58 681.13,-88.41 627.96,-74.23"/>
<polygon fill="#63b8ff" stroke="#63b8ff" points="628.57,-70.77 618.01,-71.57 626.76,-77.53 628.57,-70.77"/>
</a>
</g>
</g>
<!-- Node22&#45;&gt;Node9 -->
<g id="edge31_Node000022_Node000009" class="edge">
<title>Node22&#45;&gt;Node9</title>
<g id="a_edge31_Node000022_Node000009"><a xlink:title=" ">
<path fill="none" stroke="#63b8ff" d="M779.84,-109.98C761.75,-101.5 733.72,-88.35 712.81,-78.54"/>
<polygon fill="#63b8ff" stroke="#63b8ff" points="714.03,-75.25 703.49,-74.17 711.05,-81.59 714.03,-75.25"/>
</a>
</g>
</g>
<!-- Node22&#45;&gt;Node16 -->
<g id="edge30_Node000022_Node000016" class="edge">
<title>Node22&#45;&gt;Node16</title>
<g id="a_edge30_Node000022_Node000016"><a xlink:title=" ">
<path fill="none" stroke="#63b8ff" d="M833.67,-109.98C871.83,-100.87 932.47,-86.4 974.15,-76.45"/>
<polygon fill="#63b8ff" stroke="#63b8ff" points="975.14,-79.81 984.05,-74.08 973.51,-73 975.14,-79.81"/>
</a>
</g>
</g>
<!-- Node22&#45;&gt;Node21 -->
<g id="edge29_Node000022_Node000021" class="edge">
<title>Node22&#45;&gt;Node21</title>
<g id="a_edge29_Node000022_Node000021"><a xlink:title=" ">
<path fill="none" stroke="#63b8ff" d="M804.94,-109.75C810.87,-102.26 819.57,-91.28 826.82,-82.13"/>
<polygon fill="#63b8ff" stroke="#63b8ff" points="829.73,-84.1 833.19,-74.09 824.24,-79.75 829.73,-84.1"/>
</a>
</g>
</g>
<!-- Node26&#45;&gt;Node18 -->
<g id="edge38_Node000026_Node000018" class="edge">
<title>Node26&#45;&gt;Node18</title>
<g id="a_edge38_Node000026_Node000018"><a xlink:title=" ">
<path fill="none" stroke="#63b8ff" d="M1087.89,-274.97C1099.1,-266.13 1111.85,-253.63 1118,-239 1132.35,-204.85 1114.71,-161.69 1102.26,-138.02"/>
<polygon fill="#63b8ff" stroke="#63b8ff" points="1105.26,-136.21 1097.35,-129.15 1099.13,-139.6 1105.26,-136.21"/>
</a>
</g>
</g>
<!-- Node26&#45;&gt;Node24 -->
<g id="edge37_Node000026_Node000024" class="edge">
<title>Node26&#45;&gt;Node24</title>
<g id="a_edge37_Node000026_Node000024"><a xlink:title=" ">
<path fill="none" stroke="#63b8ff" d="M1066.03,-274.84C1065.51,-267.21 1064.86,-257.7 1064.3,-249.45"/>
<polygon fill="#63b8ff" stroke="#63b8ff" points="1067.77,-249 1063.6,-239.27 1060.79,-249.48 1067.77,-249"/>
</a>
</g>
</g>
</g>
</svg>
