<?xml version="1.0" encoding="UTF-8" standalone="no"?>
<!DOCTYPE svg PUBLIC "-//W3C//DTD SVG 1.1//EN"
 "http://www.w3.org/Graphics/SVG/1.1/DTD/svg11.dtd">
<!-- Generated by graphviz version 2.43.0 (0)
 -->
<!-- Title: /home/runner/work/amr&#45;wind/amr&#45;wind/amr&#45;wind/boundary_conditions/field_boundary_fill/FieldBoundary.H Pages: 1 -->
<svg width="1292pt" height="280pt"
 viewBox="0.00 0.00 1291.50 280.00" xmlns="http://www.w3.org/2000/svg" xmlns:xlink="http://www.w3.org/1999/xlink">
<g id="graph0" class="graph" transform="scale(1 1) rotate(0) translate(4 276)">
<title>/home/runner/work/amr&#45;wind/amr&#45;wind/amr&#45;wind/boundary_conditions/field_boundary_fill/FieldBoundary.H</title>
<!-- Node1 -->
<g id="Node000001" class="node">
<title>Node1</title>
<g id="a_Node000001"><a xlink:title=" ">
<polygon fill="#999999" stroke="#666666" points="878.5,-272 711.5,-272 711.5,-220 878.5,-220 878.5,-272"/>
<text text-anchor="start" x="719.5" y="-260" font-family="Helvetica,sans-Serif" font-size="10.00">/home/runner/work/amr</text>
<text text-anchor="start" x="719.5" y="-249" font-family="Helvetica,sans-Serif" font-size="10.00">&#45;wind/amr&#45;wind/amr&#45;wind</text>
<text text-anchor="start" x="719.5" y="-238" font-family="Helvetica,sans-Serif" font-size="10.00">/boundary_conditions/field</text>
<text text-anchor="middle" x="795" y="-227" font-family="Helvetica,sans-Serif" font-size="10.00">_boundary_fill/FieldBoundary.H</text>
</a>
</g>
</g>
<!-- Node2 -->
<g id="Node000002" class="node">
<title>Node2</title>
<g id="a_Node000002"><a xlink:href="_factory_8_h.html" target="_top" xlink:title=" ">
<polygon fill="white" stroke="#666666" points="331,-184 197,-184 197,-165 331,-165 331,-184"/>
<text text-anchor="middle" x="264" y="-172" font-family="Helvetica,sans-Serif" font-size="10.00">amr&#45;wind/core/Factory.H</text>
</a>
</g>
</g>
<!-- Node1&#45;&gt;Node2 -->
<g id="edge1_Node000001_Node000002" class="edge">
<title>Node1&#45;&gt;Node2</title>
<g id="a_edge1_Node000001_Node000002"><a xlink:title=" ">
<path fill="none" stroke="#63b8ff" d="M711.45,-234.06C609.19,-220.68 437.56,-198.22 339.24,-185.35"/>
<polygon fill="#63b8ff" stroke="#63b8ff" points="339.46,-181.85 329.09,-184.02 338.55,-188.79 339.46,-181.85"/>
</a>
</g>
</g>
<!-- Node8 -->
<g id="Node000008" class="node">
<title>Node8</title>
<g id="a_Node000008"><a xlink:href="_coll_mgr_8_h.html" target="_top" xlink:title=" ">
<polygon fill="white" stroke="#666666" points="532.5,-184 395.5,-184 395.5,-165 532.5,-165 532.5,-184"/>
<text text-anchor="middle" x="464" y="-172" font-family="Helvetica,sans-Serif" font-size="10.00">amr&#45;wind/core/CollMgr.H</text>
</a>
</g>
</g>
<!-- Node1&#45;&gt;Node8 -->
<g id="edge7_Node000001_Node000008" class="edge">
<title>Node1&#45;&gt;Node8</title>
<g id="a_edge7_Node000001_Node000008"><a xlink:title=" ">
<path fill="none" stroke="#63b8ff" d="M711.47,-227.46C649.53,-214.46 567.09,-197.15 514.77,-186.16"/>
<polygon fill="#63b8ff" stroke="#63b8ff" points="515.23,-182.68 504.72,-184.05 513.79,-189.53 515.23,-182.68"/>
</a>
</g>
</g>
<!-- Node11 -->
<g id="Node000011" class="node">
<title>Node11</title>
<g id="a_Node000011"><a xlink:href="_field_8_h.html" target="_top" xlink:title=" ">
<polygon fill="white" stroke="#666666" points="857,-184 733,-184 733,-165 857,-165 857,-184"/>
<text text-anchor="middle" x="795" y="-172" font-family="Helvetica,sans-Serif" font-size="10.00">amr&#45;wind/core/Field.H</text>
</a>
</g>
</g>
<!-- Node1&#45;&gt;Node11 -->
<g id="edge12_Node000001_Node000011" class="edge">
<title>Node1&#45;&gt;Node11</title>
<g id="a_edge12_Node000001_Node000011"><a xlink:title=" ">
<path fill="none" stroke="#63b8ff" d="M795,-219.91C795,-211.55 795,-202.38 795,-194.55"/>
<polygon fill="#63b8ff" stroke="#63b8ff" points="798.5,-194.3 795,-184.3 791.5,-194.3 798.5,-194.3"/>
</a>
</g>
</g>
<!-- Node13 -->
<g id="Node000013" class="node">
<title>Node13</title>
<g id="a_Node000013"><a xlink:title=" ">
<polygon fill="#e0e0e0" stroke="#999999" points="1124.5,-74 1015.5,-74 1015.5,-55 1124.5,-55 1124.5,-74"/>
<text text-anchor="middle" x="1070" y="-62" font-family="Helvetica,sans-Serif" font-size="10.00">AMReX_MultiFab.H</text>
</a>
</g>
</g>
<!-- Node1&#45;&gt;Node13 -->
<g id="edge29_Node000001_Node000013" class="edge">
<title>Node1&#45;&gt;Node13</title>
<g id="a_edge29_Node000001_Node000013"><a xlink:title=" ">
<path fill="none" stroke="#63b8ff" d="M878.81,-233.24C941.77,-219.62 1024.22,-190.54 1067,-129 1075.96,-116.11 1075.89,-97.95 1074.06,-84.35"/>
<polygon fill="#63b8ff" stroke="#63b8ff" points="1077.45,-83.45 1072.27,-74.22 1070.56,-84.67 1077.45,-83.45"/>
</a>
</g>
</g>
<!-- Node20 -->
<g id="Node000020" class="node">
<title>Node20</title>
<g id="a_Node000020"><a xlink:title=" ">
<polygon fill="#e0e0e0" stroke="#999999" points="1268.5,-184 1153.5,-184 1153.5,-165 1268.5,-165 1268.5,-184"/>
<text text-anchor="middle" x="1211" y="-172" font-family="Helvetica,sans-Serif" font-size="10.00">AMReX_Geometry.H</text>
</a>
</g>
</g>
<!-- Node1&#45;&gt;Node20 -->
<g id="edge30_Node000001_Node000020" class="edge">
<title>Node1&#45;&gt;Node20</title>
<g id="a_edge30_Node000001_Node000020"><a xlink:title=" ">
<path fill="none" stroke="#63b8ff" d="M878.68,-231.02C958.85,-217.63 1077.93,-197.73 1149.66,-185.75"/>
<polygon fill="#63b8ff" stroke="#63b8ff" points="1150.6,-189.14 1159.88,-184.04 1149.44,-182.24 1150.6,-189.14"/>
</a>
</g>
</g>
<!-- Node3 -->
<g id="Node000003" class="node">
<title>Node3</title>
<g id="a_Node000003"><a xlink:title=" ">
<polygon fill="#e0e0e0" stroke="#999999" points="436,-129 378,-129 378,-110 436,-110 436,-129"/>
<text text-anchor="middle" x="407" y="-117" font-family="Helvetica,sans-Serif" font-size="10.00">memory</text>
</a>
</g>
</g>
<!-- Node2&#45;&gt;Node3 -->
<g id="edge2_Node000002_Node000003" class="edge">
<title>Node2&#45;&gt;Node3</title>
<g id="a_edge2_Node000002_Node000003"><a xlink:title=" ">
<path fill="none" stroke="#63b8ff" d="M286.98,-164.98C310.5,-156.27 347.29,-142.63 373.94,-132.75"/>
<polygon fill="#63b8ff" stroke="#63b8ff" points="375.45,-135.93 383.61,-129.17 373.01,-129.36 375.45,-135.93"/>
</a>
</g>
</g>
<!-- Node4 -->
<g id="Node000004" class="node">
<title>Node4</title>
<g id="a_Node000004"><a xlink:title=" ">
<polygon fill="#e0e0e0" stroke="#999999" points="359.5,-129 266.5,-129 266.5,-110 359.5,-110 359.5,-129"/>
<text text-anchor="middle" x="313" y="-117" font-family="Helvetica,sans-Serif" font-size="10.00">unordered_map</text>
</a>
</g>
</g>
<!-- Node2&#45;&gt;Node4 -->
<g id="edge3_Node000002_Node000004" class="edge">
<title>Node2&#45;&gt;Node4</title>
<g id="a_edge3_Node000002_Node000004"><a xlink:title=" ">
<path fill="none" stroke="#63b8ff" d="M272.09,-164.75C279.16,-157.11 289.59,-145.82 298.15,-136.56"/>
<polygon fill="#63b8ff" stroke="#63b8ff" points="300.84,-138.81 305.06,-129.09 295.7,-134.06 300.84,-138.81"/>
</a>
</g>
</g>
<!-- Node5 -->
<g id="Node000005" class="node">
<title>Node5</title>
<g id="a_Node000005"><a xlink:title=" ">
<polygon fill="#e0e0e0" stroke="#999999" points="248,-129 188,-129 188,-110 248,-110 248,-129"/>
<text text-anchor="middle" x="218" y="-117" font-family="Helvetica,sans-Serif" font-size="10.00">iostream</text>
</a>
</g>
</g>
<!-- Node2&#45;&gt;Node5 -->
<g id="edge4_Node000002_Node000005" class="edge">
<title>Node2&#45;&gt;Node5</title>
<g id="a_edge4_Node000002_Node000005"><a xlink:title=" ">
<path fill="none" stroke="#63b8ff" d="M256.4,-164.75C249.84,-157.18 240.18,-146.05 232.19,-136.84"/>
<polygon fill="#63b8ff" stroke="#63b8ff" points="234.65,-134.35 225.45,-129.09 229.37,-138.94 234.65,-134.35"/>
</a>
</g>
</g>
<!-- Node6 -->
<g id="Node000006" class="node">
<title>Node6</title>
<g id="a_Node000006"><a xlink:title=" ">
<polygon fill="#e0e0e0" stroke="#999999" points="90,-129 0,-129 0,-110 90,-110 90,-129"/>
<text text-anchor="middle" x="45" y="-117" font-family="Helvetica,sans-Serif" font-size="10.00">AMReX_Print.H</text>
</a>
</g>
</g>
<!-- Node2&#45;&gt;Node6 -->
<g id="edge5_Node000002_Node000006" class="edge">
<title>Node2&#45;&gt;Node6</title>
<g id="a_edge5_Node000002_Node000006"><a xlink:title=" ">
<path fill="none" stroke="#63b8ff" d="M228.81,-164.98C191.17,-155.87 131.34,-141.4 90.23,-131.45"/>
<polygon fill="#63b8ff" stroke="#63b8ff" points="91,-128.03 80.46,-129.08 89.36,-134.84 91,-128.03"/>
</a>
</g>
</g>
<!-- Node7 -->
<g id="Node000007" class="node">
<title>Node7</title>
<g id="a_Node000007"><a xlink:title=" ">
<polygon fill="#e0e0e0" stroke="#999999" points="170,-129 108,-129 108,-110 170,-110 170,-129"/>
<text text-anchor="middle" x="139" y="-117" font-family="Helvetica,sans-Serif" font-size="10.00">AMReX.H</text>
</a>
</g>
</g>
<!-- Node2&#45;&gt;Node7 -->
<g id="edge6_Node000002_Node000007" class="edge">
<title>Node2&#45;&gt;Node7</title>
<g id="a_edge6_Node000002_Node000007"><a xlink:title=" ">
<path fill="none" stroke="#63b8ff" d="M243.92,-164.98C223.63,-156.38 192.04,-142.99 168.83,-133.15"/>
<polygon fill="#63b8ff" stroke="#63b8ff" points="170.02,-129.85 159.45,-129.17 167.29,-136.3 170.02,-129.85"/>
</a>
</g>
</g>
<!-- Node8&#45;&gt;Node3 -->
<g id="edge9_Node000008_Node000003" class="edge">
<title>Node8&#45;&gt;Node3</title>
<g id="a_edge9_Node000008_Node000003"><a xlink:title=" ">
<path fill="none" stroke="#63b8ff" d="M454.84,-164.98C446.5,-157.23 433.97,-145.58 423.82,-136.14"/>
<polygon fill="#63b8ff" stroke="#63b8ff" points="426.03,-133.42 416.32,-129.17 421.26,-138.54 426.03,-133.42"/>
</a>
</g>
</g>
<!-- Node8&#45;&gt;Node4 -->
<g id="edge10_Node000008_Node000004" class="edge">
<title>Node8&#45;&gt;Node4</title>
<g id="a_edge10_Node000008_Node000004"><a xlink:title=" ">
<path fill="none" stroke="#63b8ff" d="M439.74,-164.98C414.68,-156.19 375.37,-142.39 347.17,-132.49"/>
<polygon fill="#63b8ff" stroke="#63b8ff" points="348.3,-129.18 337.7,-129.17 345.98,-135.78 348.3,-129.18"/>
</a>
</g>
</g>
<!-- Node9 -->
<g id="Node000009" class="node">
<title>Node9</title>
<g id="a_Node000009"><a xlink:title=" ">
<polygon fill="#e0e0e0" stroke="#999999" points="524,-74 480,-74 480,-55 524,-55 524,-74"/>
<text text-anchor="middle" x="502" y="-62" font-family="Helvetica,sans-Serif" font-size="10.00">string</text>
</a>
</g>
</g>
<!-- Node8&#45;&gt;Node9 -->
<g id="edge8_Node000008_Node000009" class="edge">
<title>Node8&#45;&gt;Node9</title>
<g id="a_edge8_Node000008_Node000009"><a xlink:title=" ">
<path fill="none" stroke="#63b8ff" d="M467.11,-164.66C473.32,-147.01 487.37,-107.09 495.62,-83.64"/>
<polygon fill="#63b8ff" stroke="#63b8ff" points="498.94,-84.75 498.95,-74.16 492.33,-82.43 498.94,-84.75"/>
</a>
</g>
</g>
<!-- Node10 -->
<g id="Node000010" class="node">
<title>Node10</title>
<g id="a_Node000010"><a xlink:title=" ">
<polygon fill="#e0e0e0" stroke="#999999" points="747,-74 649,-74 649,-55 747,-55 747,-74"/>
<text text-anchor="middle" x="698" y="-62" font-family="Helvetica,sans-Serif" font-size="10.00">AMReX_Vector.H</text>
</a>
</g>
</g>
<!-- Node8&#45;&gt;Node10 -->
<g id="edge11_Node000008_Node000010" class="edge">
<title>Node8&#45;&gt;Node10</title>
<g id="a_edge11_Node000008_Node000010"><a xlink:title=" ">
<path fill="none" stroke="#63b8ff" d="M474.79,-164.8C491.81,-151.45 526.3,-125.78 559,-110 588.88,-95.58 624.55,-84.28 652.28,-76.66"/>
<polygon fill="#63b8ff" stroke="#63b8ff" points="653.35,-80 662.11,-74.03 651.54,-73.24 653.35,-80"/>
</a>
</g>
</g>
<!-- Node11&#45;&gt;Node3 -->
<g id="edge14_Node000011_Node000003" class="edge">
<title>Node11&#45;&gt;Node3</title>
<g id="a_edge14_Node000011_Node000003"><a xlink:title=" ">
<path fill="none" stroke="#63b8ff" d="M732.66,-164.98C651.94,-153.96 513.62,-135.06 446.23,-125.86"/>
<polygon fill="#63b8ff" stroke="#63b8ff" points="446.42,-122.35 436.04,-124.47 445.47,-129.29 446.42,-122.35"/>
</a>
</g>
</g>
<!-- Node11&#45;&gt;Node4 -->
<g id="edge15_Node000011_Node000004" class="edge">
<title>Node11&#45;&gt;Node4</title>
<g id="a_edge15_Node000011_Node000004"><a xlink:title=" ">
<path fill="none" stroke="#63b8ff" d="M732.81,-167.92C651.78,-160.44 505.44,-146.24 369.88,-129.05"/>
<polygon fill="#63b8ff" stroke="#63b8ff" points="370.09,-125.55 359.73,-127.76 369.2,-132.5 370.09,-125.55"/>
</a>
</g>
</g>
<!-- Node11&#45;&gt;Node9 -->
<g id="edge13_Node000011_Node000009" class="edge">
<title>Node11&#45;&gt;Node9</title>
<g id="a_edge13_Node000011_Node000009"><a xlink:title=" ">
<path fill="none" stroke="#63b8ff" d="M732.89,-172.57C683.01,-169.38 612.68,-159.23 559,-129 539.3,-117.91 522.84,-97.48 512.75,-82.79"/>
<polygon fill="#63b8ff" stroke="#63b8ff" points="515.48,-80.56 507.07,-74.11 509.62,-84.4 515.48,-80.56"/>
</a>
</g>
</g>
<!-- Node12 -->
<g id="Node000012" class="node">
<title>Node12</title>
<g id="a_Node000012"><a xlink:title=" ">
<polygon fill="#e0e0e0" stroke="#999999" points="632,-129 568,-129 568,-110 632,-110 632,-129"/>
<text text-anchor="middle" x="600" y="-117" font-family="Helvetica,sans-Serif" font-size="10.00">algorithm</text>
</a>
</g>
</g>
<!-- Node11&#45;&gt;Node12 -->
<g id="edge16_Node000011_Node000012" class="edge">
<title>Node11&#45;&gt;Node12</title>
<g id="a_edge16_Node000011_Node000012"><a xlink:title=" ">
<path fill="none" stroke="#63b8ff" d="M763.67,-164.98C730.51,-155.97 678,-141.7 641.44,-131.76"/>
<polygon fill="#63b8ff" stroke="#63b8ff" points="642.14,-128.33 631.58,-129.08 640.31,-135.08 642.14,-128.33"/>
</a>
</g>
</g>
<!-- Node11&#45;&gt;Node13 -->
<g id="edge17_Node000011_Node000013" class="edge">
<title>Node11&#45;&gt;Node13</title>
<g id="a_edge17_Node000011_Node000013"><a xlink:title=" ">
<path fill="none" stroke="#63b8ff" d="M857.24,-169.44C922.04,-164.02 1017.94,-152.27 1046,-129 1059.31,-117.96 1065.25,-98.71 1067.89,-84.29"/>
<polygon fill="#63b8ff" stroke="#63b8ff" points="1071.41,-84.41 1069.38,-74.01 1064.48,-83.4 1071.41,-84.41"/>
</a>
</g>
</g>
<!-- Node14 -->
<g id="Node000014" class="node">
<title>Node14</title>
<g id="a_Node000014"><a xlink:title=" ">
<polygon fill="#e0e0e0" stroke="#999999" points="915.5,-129 816.5,-129 816.5,-110 915.5,-110 915.5,-129"/>
<text text-anchor="middle" x="866" y="-117" font-family="Helvetica,sans-Serif" font-size="10.00">AMReX_BCRec.H</text>
</a>
</g>
</g>
<!-- Node11&#45;&gt;Node14 -->
<g id="edge18_Node000011_Node000014" class="edge">
<title>Node11&#45;&gt;Node14</title>
<g id="a_edge18_Node000011_Node000014"><a xlink:title=" ">
<path fill="none" stroke="#63b8ff" d="M806.41,-164.98C817.11,-157 833.34,-144.88 846.16,-135.31"/>
<polygon fill="#63b8ff" stroke="#63b8ff" points="848.47,-137.96 854.39,-129.17 844.28,-132.35 848.47,-137.96"/>
</a>
</g>
</g>
<!-- Node15 -->
<g id="Node000015" class="node">
<title>Node15</title>
<g id="a_Node000015"><a xlink:title=" ">
<polygon fill="#e0e0e0" stroke="#999999" points="1020.5,-129 933.5,-129 933.5,-110 1020.5,-110 1020.5,-129"/>
<text text-anchor="middle" x="977" y="-117" font-family="Helvetica,sans-Serif" font-size="10.00">AMReX_Gpu.H</text>
</a>
</g>
</g>
<!-- Node11&#45;&gt;Node15 -->
<g id="edge19_Node000011_Node000015" class="edge">
<title>Node11&#45;&gt;Node15</title>
<g id="a_edge19_Node000011_Node000015"><a xlink:title=" ">
<path fill="none" stroke="#63b8ff" d="M824.24,-164.98C855.06,-156.01 903.78,-141.82 937.89,-131.89"/>
<polygon fill="#63b8ff" stroke="#63b8ff" points="938.91,-135.24 947.53,-129.08 936.95,-128.52 938.91,-135.24"/>
</a>
</g>
</g>
<!-- Node16 -->
<g id="Node000016" class="node">
<title>Node16</title>
<g id="a_Node000016"><a xlink:href="incflo__enums_8_h.html" target="_top" xlink:title=" ">
<polygon fill="white" stroke="#666666" points="1283.5,-74 1142.5,-74 1142.5,-55 1283.5,-55 1283.5,-74"/>
<text text-anchor="middle" x="1213" y="-62" font-family="Helvetica,sans-Serif" font-size="10.00">amr&#45;wind/incflo_enums.H</text>
</a>
</g>
</g>
<!-- Node11&#45;&gt;Node16 -->
<g id="edge20_Node000011_Node000016" class="edge">
<title>Node11&#45;&gt;Node16</title>
<g id="a_edge20_Node000011_Node000016"><a xlink:title=" ">
<path fill="none" stroke="#63b8ff" d="M857.01,-167.78C912.78,-161.6 996.54,-149.74 1067,-129 1110.88,-116.09 1159.04,-93.33 1187.61,-78.86"/>
<polygon fill="#63b8ff" stroke="#63b8ff" points="1189.56,-81.79 1196.86,-74.11 1186.36,-75.56 1189.56,-81.79"/>
</a>
</g>
</g>
<!-- Node18 -->
<g id="Node000018" class="node">
<title>Node18</title>
<g id="a_Node000018"><a xlink:href="_field_desc_types_8_h.html" target="_top" xlink:title=" ">
<polygon fill="white" stroke="#666666" points="997,-74 821,-74 821,-55 997,-55 997,-74"/>
<text text-anchor="middle" x="909" y="-62" font-family="Helvetica,sans-Serif" font-size="10.00">amr&#45;wind/core/FieldDescTypes.H</text>
</a>
</g>
</g>
<!-- Node11&#45;&gt;Node18 -->
<g id="edge22_Node000011_Node000018" class="edge">
<title>Node11&#45;&gt;Node18</title>
<g id="a_edge22_Node000011_Node000018"><a xlink:title=" ">
<path fill="none" stroke="#63b8ff" d="M857.27,-170.39C919.07,-165.84 1007.58,-154.88 1029,-129 1050.66,-102.83 1009.9,-86 970.14,-76.29"/>
<polygon fill="#63b8ff" stroke="#63b8ff" points="970.89,-72.87 960.36,-74.03 969.32,-79.69 970.89,-72.87"/>
</a>
</g>
</g>
<!-- Node19 -->
<g id="Node000019" class="node">
<title>Node19</title>
<g id="a_Node000019"><a xlink:href="_view_field_8_h.html" target="_top" xlink:title=" ">
<polygon fill="white" stroke="#666666" points="798,-129 650,-129 650,-110 798,-110 798,-129"/>
<text text-anchor="middle" x="724" y="-117" font-family="Helvetica,sans-Serif" font-size="10.00">amr&#45;wind/core/ViewField.H</text>
</a>
</g>
</g>
<!-- Node11&#45;&gt;Node19 -->
<g id="edge24_Node000011_Node000019" class="edge">
<title>Node11&#45;&gt;Node19</title>
<g id="a_edge24_Node000011_Node000019"><a xlink:title=" ">
<path fill="none" stroke="#63b8ff" d="M783.59,-164.98C772.89,-157 756.66,-144.88 743.84,-135.31"/>
<polygon fill="#63b8ff" stroke="#63b8ff" points="745.72,-132.35 735.61,-129.17 741.53,-137.96 745.72,-132.35"/>
</a>
</g>
</g>
<!-- Node17 -->
<g id="Node000017" class="node">
<title>Node17</title>
<g id="a_Node000017"><a xlink:title=" ">
<polygon fill="#e0e0e0" stroke="#999999" points="1086,-19 1036,-19 1036,0 1086,0 1086,-19"/>
<text text-anchor="middle" x="1061" y="-7" font-family="Helvetica,sans-Serif" font-size="10.00">cstdint</text>
</a>
</g>
</g>
<!-- Node16&#45;&gt;Node17 -->
<g id="edge21_Node000016_Node000017" class="edge">
<title>Node16&#45;&gt;Node17</title>
<g id="a_edge21_Node000016_Node000017"><a xlink:title=" ">
<path fill="none" stroke="#63b8ff" d="M1188.58,-54.98C1163.28,-46.16 1123.55,-32.31 1095.14,-22.41"/>
<polygon fill="#63b8ff" stroke="#63b8ff" points="1096.21,-19.07 1085.61,-19.08 1093.9,-25.68 1096.21,-19.07"/>
</a>
</g>
</g>
<!-- Node18&#45;&gt;Node17 -->
<g id="edge23_Node000018_Node000017" class="edge">
<title>Node18&#45;&gt;Node17</title>
<g id="a_edge23_Node000018_Node000017"><a xlink:title=" ">
<path fill="none" stroke="#63b8ff" d="M933.42,-54.98C958.72,-46.16 998.45,-32.31 1026.86,-22.41"/>
<polygon fill="#63b8ff" stroke="#63b8ff" points="1028.1,-25.68 1036.39,-19.08 1025.79,-19.07 1028.1,-25.68"/>
</a>
</g>
</g>
<!-- Node19&#45;&gt;Node9 -->
<g id="edge25_Node000019_Node000009" class="edge">
<title>Node19&#45;&gt;Node9</title>
<g id="a_edge25_Node000019_Node000009"><a xlink:title=" ">
<path fill="none" stroke="#63b8ff" d="M688.33,-109.98C645.71,-99.81 575.04,-82.94 534.07,-73.16"/>
<polygon fill="#63b8ff" stroke="#63b8ff" points="534.63,-69.69 524.09,-70.77 533,-76.5 534.63,-69.69"/>
</a>
</g>
</g>
<!-- Node19&#45;&gt;Node10 -->
<g id="edge28_Node000019_Node000010" class="edge">
<title>Node19&#45;&gt;Node10</title>
<g id="a_edge28_Node000019_Node000010"><a xlink:title=" ">
<path fill="none" stroke="#63b8ff" d="M719.71,-109.75C716.19,-102.57 711.09,-92.18 706.72,-83.27"/>
<polygon fill="#63b8ff" stroke="#63b8ff" points="709.76,-81.53 702.21,-74.09 703.48,-84.61 709.76,-81.53"/>
</a>
</g>
</g>
<!-- Node19&#45;&gt;Node13 -->
<g id="edge27_Node000019_Node000013" class="edge">
<title>Node19&#45;&gt;Node13</title>
<g id="a_edge27_Node000019_Node000013"><a xlink:title=" ">
<path fill="none" stroke="#63b8ff" d="M779.59,-109.98C841.15,-100.55 940.27,-85.37 1005.27,-75.41"/>
<polygon fill="#63b8ff" stroke="#63b8ff" points="1006.05,-78.84 1015.4,-73.86 1004.99,-71.92 1006.05,-78.84"/>
</a>
</g>
</g>
<!-- Node19&#45;&gt;Node18 -->
<g id="edge26_Node000019_Node000018" class="edge">
<title>Node19&#45;&gt;Node18</title>
<g id="a_edge26_Node000019_Node000018"><a xlink:title=" ">
<path fill="none" stroke="#63b8ff" d="M753.72,-109.98C785.05,-101.01 834.57,-86.82 869.24,-76.89"/>
<polygon fill="#63b8ff" stroke="#63b8ff" points="870.39,-80.2 879.04,-74.08 868.47,-73.47 870.39,-80.2"/>
</a>
</g>
</g>
</g>
</svg>
