<?xml version="1.0" encoding="UTF-8" standalone="no"?>
<!DOCTYPE svg PUBLIC "-//W3C//DTD SVG 1.1//EN"
 "http://www.w3.org/Graphics/SVG/1.1/DTD/svg11.dtd">
<!-- Generated by graphviz version 2.43.0 (0)
 -->
<!-- Title: /home/runner/work/amr&#45;wind/amr&#45;wind/amr&#45;wind/utilities/FieldPlaneAveraging.H Pages: 1 -->
<!--zoomable 467 -->

<svg id="main" version="1.1" xmlns="http://www.w3.org/2000/svg" xmlns:xlink="http://www.w3.org/1999/xlink" xml:space="preserve" onload="init(evt)">

<style type="text/css"><![CDATA[
.node, .edge {opacity: 0.7;}
.node.selected, .edge.selected {opacity: 1;}
.edge:hover path { stroke: red; }
.edge:hover polygon { stroke: red; fill: red; }
]]></style>

<defs>
  <circle id="rim" cx="0" cy="0" r="7"/>
  <circle id="rim2" cx="0" cy="0" r="3.5"/>
  <g id="zoomPlus">
    <use xlink:href="#rim" fill="#404040"><set attributeName="fill" to="#808080" begin="zoomplus.mouseover" end="zoomplus.mouseout"/></use>
    <path d="M-4,0h8M0,-4v8" fill="none" stroke="white" stroke-width="1.5" pointer-events="none"/>
  </g>
  <g id="zoomMin">
    <use xlink:href="#rim" fill="#404040"><set attributeName="fill" to="#808080" begin="zoomminus.mouseover" end="zoomminus.mouseout"/></use>
    <path d="M-4,0h8" fill="none" stroke="white" stroke-width="1.5" pointer-events="none"/>
  </g>
  <g id="arrowUp" transform="translate(30 24)">
    <use xlink:href="#rim"/>
    <path pointer-events="none" fill="none" stroke="white" stroke-width="1.5" d="M0,-3.0v7 M-2.5,-0.5L0,-3.0L2.5,-0.5"/>
  </g>
  <g id="arrowRight" transform="rotate(90) translate(36 -43)">
    <use xlink:href="#rim"/>
    <path pointer-events="none" fill="none" stroke="white" stroke-width="1.5" d="M0,-3.0v7 M-2.5,-0.5L0,-3.0L2.5,-0.5"/>
  </g>
  <g id="arrowDown" transform="rotate(180) translate(-30 -48)">
    <use xlink:href="#rim"/>
    <path pointer-events="none" fill="none" stroke="white" stroke-width="1.5" d="M0,-3.0v7 M-2.5,-0.5L0,-3.0L2.5,-0.5"/>
  </g>
  <g id="arrowLeft" transform="rotate(270) translate(-36 17)">
    <use xlink:href="#rim"/>
    <path pointer-events="none" fill="none" stroke="white" stroke-width="1.5" d="M0,-3.0v7 M-2.5,-0.5L0,-3.0L2.5,-0.5"/>
  </g>
  <g id="resetDef">
    <use xlink:href="#rim2" fill="#404040"><set attributeName="fill" to="#808080" begin="reset.mouseover" end="reset.mouseout"/></use>
  </g>
</defs>
<script type="application/ecmascript">
var viewWidth = 3426;
var viewHeight = 467;
var sectionId = 'dynsection-1';
</script>
<script type="application/ecmascript" xlink:href="svg.min.js"/>
<svg id="graph" class="graph">
<g id="viewport">
<title>/home/runner/work/amr&#45;wind/amr&#45;wind/amr&#45;wind/utilities/FieldPlaneAveraging.H</title>
<!-- Node1 -->
<g id="Node000001" class="node">
<title>Node1</title>
<g id="a_Node000001"><a xlink:title=" ">
<polygon fill="#999999" stroke="#666666" points="1833.5,-459 1664.5,-459 1664.5,-418 1833.5,-418 1833.5,-459"/>
<text text-anchor="start" x="1672.5" y="-447" font-family="Helvetica,sans-Serif" font-size="10.00">/home/runner/work/amr</text>
<text text-anchor="start" x="1672.5" y="-436" font-family="Helvetica,sans-Serif" font-size="10.00">&#45;wind/amr&#45;wind/amr&#45;wind</text>
<text text-anchor="middle" x="1749" y="-425" font-family="Helvetica,sans-Serif" font-size="10.00">/utilities/FieldPlaneAveraging.H</text>
</a>
</g>
</g>
<!-- Node2 -->
<g id="Node000002" class="node">
<title>Node2</title>
<g id="a_Node000002"><a xlink:href="_a_b_l_mean_boussinesq_8_h.html" target="_top" xlink:title=" ">
<polygon fill="white" stroke="#666666" points="381,-228 181,-228 181,-176 381,-176 381,-228"/>
<text text-anchor="start" x="189" y="-216" font-family="Helvetica,sans-Serif" font-size="10.00">/home/runner/work/amr</text>
<text text-anchor="start" x="189" y="-205" font-family="Helvetica,sans-Serif" font-size="10.00">&#45;wind/amr&#45;wind/amr&#45;wind</text>
<text text-anchor="start" x="189" y="-194" font-family="Helvetica,sans-Serif" font-size="10.00">/equation_systems/icns</text>
<text text-anchor="middle" x="281" y="-183" font-family="Helvetica,sans-Serif" font-size="10.00">/source_terms/ABLMeanBoussinesq.H</text>
</a>
</g>
</g>
<!-- Node1&#45;&gt;Node2 -->
<g id="edge1_Node000001_Node000002" class="edge">
<title>Node1&#45;&gt;Node2</title>
<g id="a_edge1_Node000001_Node000002"><a xlink:title=" ">
<path fill="none" stroke="#63b8ff" d="M1654.09,-432.89C1529.25,-425.99 1303.28,-410.62 1112,-382 787.51,-333.45 710.36,-298.9 390,-228 387.06,-227.35 384.08,-226.69 381.07,-226.01"/>
<polygon fill="#63b8ff" stroke="#63b8ff" points="1654.2,-436.4 1664.37,-433.45 1654.58,-429.41 1654.2,-436.4"/>
</a>
</g>
</g>
<!-- Node5 -->
<g id="Node000005" class="node">
<title>Node5</title>
<g id="a_Node000005"><a xlink:href="_hurricane_forcing_8_h.html" target="_top" xlink:title=" ">
<polygon fill="white" stroke="#666666" points="581,-228 399,-228 399,-176 581,-176 581,-228"/>
<text text-anchor="start" x="407" y="-216" font-family="Helvetica,sans-Serif" font-size="10.00">/home/runner/work/amr</text>
<text text-anchor="start" x="407" y="-205" font-family="Helvetica,sans-Serif" font-size="10.00">&#45;wind/amr&#45;wind/amr&#45;wind</text>
<text text-anchor="start" x="407" y="-194" font-family="Helvetica,sans-Serif" font-size="10.00">/equation_systems/icns</text>
<text text-anchor="middle" x="490" y="-183" font-family="Helvetica,sans-Serif" font-size="10.00">/source_terms/HurricaneForcing.H</text>
</a>
</g>
</g>
<!-- Node1&#45;&gt;Node5 -->
<g id="edge4_Node000001_Node000005" class="edge">
<title>Node1&#45;&gt;Node5</title>
<g id="a_edge4_Node000001_Node000005"><a xlink:title=" ">
<path fill="none" stroke="#63b8ff" d="M1654.12,-426.94C1569.2,-417 1441.43,-400.86 1331,-382 1056.2,-335.07 734.78,-261.36 581,-224.91"/>
<polygon fill="#63b8ff" stroke="#63b8ff" points="1653.92,-430.44 1664.26,-428.12 1654.73,-423.49 1653.92,-430.44"/>
</a>
</g>
</g>
<!-- Node7 -->
<g id="Node000007" class="node">
<title>Node7</title>
<g id="a_Node000007"><a xlink:href="_hurricane_temp_forcing_8_h.html" target="_top" xlink:title=" ">
<polygon fill="white" stroke="#666666" points="812,-228 604,-228 604,-176 812,-176 812,-228"/>
<text text-anchor="start" x="612" y="-216" font-family="Helvetica,sans-Serif" font-size="10.00">/home/runner/work/amr</text>
<text text-anchor="start" x="612" y="-205" font-family="Helvetica,sans-Serif" font-size="10.00">&#45;wind/amr&#45;wind/amr&#45;wind</text>
<text text-anchor="start" x="612" y="-194" font-family="Helvetica,sans-Serif" font-size="10.00">/equation_systems/temperature</text>
<text text-anchor="middle" x="708" y="-183" font-family="Helvetica,sans-Serif" font-size="10.00">/source_terms/HurricaneTempForcing.H</text>
</a>
</g>
</g>
<!-- Node1&#45;&gt;Node7 -->
<g id="edge7_Node000001_Node000007" class="edge">
<title>Node1&#45;&gt;Node7</title>
<g id="a_edge7_Node000001_Node000007"><a xlink:title=" ">
<path fill="none" stroke="#63b8ff" d="M1654.64,-417.72C1606.49,-407.43 1547.03,-394.44 1494,-382 1284.74,-332.92 1234.84,-310.55 1025,-264 954.28,-248.31 874.17,-232.92 812.17,-221.52"/>
<polygon fill="#63b8ff" stroke="#63b8ff" points="1653.92,-421.14 1664.43,-419.81 1655.38,-414.3 1653.92,-421.14"/>
</a>
</g>
</g>
<!-- Node9 -->
<g id="Node000009" class="node">
<title>Node9</title>
<g id="a_Node000009"><a xlink:href="_field_plane_averaging_8cpp.html" target="_top" xlink:title=" ">
<polygon fill="white" stroke="#666666" points="2659.5,-382 2480.5,-382 2480.5,-341 2659.5,-341 2659.5,-382"/>
<text text-anchor="start" x="2488.5" y="-370" font-family="Helvetica,sans-Serif" font-size="10.00">/home/runner/work/amr</text>
<text text-anchor="start" x="2488.5" y="-359" font-family="Helvetica,sans-Serif" font-size="10.00">&#45;wind/amr&#45;wind/amr&#45;wind</text>
<text text-anchor="middle" x="2570" y="-348" font-family="Helvetica,sans-Serif" font-size="10.00">/utilities/FieldPlaneAveraging.cpp</text>
</a>
</g>
</g>
<!-- Node1&#45;&gt;Node9 -->
<g id="edge10_Node000001_Node000009" class="edge">
<title>Node1&#45;&gt;Node9</title>
<g id="a_edge10_Node000001_Node000009"><a xlink:title=" ">
<path fill="none" stroke="#63b8ff" d="M1843.84,-433.43C1981.4,-426.78 2244.11,-411.3 2466,-382 2470.74,-381.37 2475.58,-380.68 2480.47,-379.92"/>
<polygon fill="#63b8ff" stroke="#63b8ff" points="1843.57,-429.94 1833.75,-433.91 1843.9,-436.93 1843.57,-429.94"/>
</a>
</g>
</g>
<!-- Node10 -->
<g id="Node000010" class="node">
<title>Node10</title>
<g id="a_Node000010"><a xlink:href="_second_moment_averaging_8_h.html" target="_top" xlink:title=" ">
<polygon fill="white" stroke="#666666" points="2289,-382 2095,-382 2095,-341 2289,-341 2289,-382"/>
<text text-anchor="start" x="2103" y="-370" font-family="Helvetica,sans-Serif" font-size="10.00">/home/runner/work/amr</text>
<text text-anchor="start" x="2103" y="-359" font-family="Helvetica,sans-Serif" font-size="10.00">&#45;wind/amr&#45;wind/amr&#45;wind</text>
<text text-anchor="middle" x="2192" y="-348" font-family="Helvetica,sans-Serif" font-size="10.00">/utilities/SecondMomentAveraging.H</text>
</a>
</g>
</g>
<!-- Node1&#45;&gt;Node10 -->
<g id="edge11_Node000001_Node000010" class="edge">
<title>Node1&#45;&gt;Node10</title>
<g id="a_edge11_Node000001_Node000010"><a xlink:title=" ">
<path fill="none" stroke="#63b8ff" d="M1843.88,-421.44C1917.92,-408.9 2020.37,-391.56 2094.95,-378.93"/>
<polygon fill="#63b8ff" stroke="#63b8ff" points="1842.9,-418.05 1833.63,-423.17 1844.07,-424.95 1842.9,-418.05"/>
</a>
</g>
</g>
<!-- Node12 -->
<g id="Node000012" class="node">
<title>Node12</title>
<g id="a_Node000012"><a xlink:href="_a_b_l_stats_8_h.html" target="_top" xlink:title=" ">
<polygon fill="white" stroke="#666666" points="2150.5,-222.5 2007.5,-222.5 2007.5,-181.5 2150.5,-181.5 2150.5,-222.5"/>
<text text-anchor="start" x="2015.5" y="-210.5" font-family="Helvetica,sans-Serif" font-size="10.00">/home/runner/work/amr</text>
<text text-anchor="start" x="2015.5" y="-199.5" font-family="Helvetica,sans-Serif" font-size="10.00">&#45;wind/amr&#45;wind/amr&#45;wind</text>
<text text-anchor="middle" x="2079" y="-188.5" font-family="Helvetica,sans-Serif" font-size="10.00">/wind_energy/ABLStats.H</text>
</a>
</g>
</g>
<!-- Node1&#45;&gt;Node12 -->
<g id="edge38_Node000001_Node000012" class="edge">
<title>Node1&#45;&gt;Node12</title>
<g id="a_edge38_Node000001_Node000012"><a xlink:title=" ">
<path fill="none" stroke="#63b8ff" d="M1843.86,-432.67C1977.99,-425.02 2215.91,-408.26 2298,-382 2363.79,-360.96 2398.31,-364.73 2433,-305 2442.15,-289.24 2444.74,-277.94 2433,-264 2397.64,-222.03 2243.58,-208.94 2150.75,-204.85"/>
<polygon fill="#63b8ff" stroke="#63b8ff" points="1843.38,-429.19 1833.59,-433.25 1843.77,-436.18 1843.38,-429.19"/>
</a>
</g>
</g>
<!-- Node14 -->
<g id="Node000014" class="node">
<title>Node14</title>
<g id="a_Node000014"><a xlink:href="_third_moment_averaging_8_h.html" target="_top" xlink:title=" ">
<polygon fill="white" stroke="#666666" points="2039,-382 1855,-382 1855,-341 2039,-341 2039,-382"/>
<text text-anchor="start" x="1863" y="-370" font-family="Helvetica,sans-Serif" font-size="10.00">/home/runner/work/amr</text>
<text text-anchor="start" x="1863" y="-359" font-family="Helvetica,sans-Serif" font-size="10.00">&#45;wind/amr&#45;wind/amr&#45;wind</text>
<text text-anchor="middle" x="1947" y="-348" font-family="Helvetica,sans-Serif" font-size="10.00">/utilities/ThirdMomentAveraging.H</text>
</a>
</g>
</g>
<!-- Node1&#45;&gt;Node14 -->
<g id="edge15_Node000001_Node000014" class="edge">
<title>Node1&#45;&gt;Node14</title>
<g id="a_edge15_Node000001_Node000014"><a xlink:title=" ">
<path fill="none" stroke="#63b8ff" d="M1809.97,-414.4C1837.33,-404.04 1869.26,-391.95 1895.41,-382.04"/>
<polygon fill="#63b8ff" stroke="#63b8ff" points="1808.62,-411.18 1800.51,-417.99 1811.1,-417.72 1808.62,-411.18"/>
</a>
</g>
</g>
<!-- Node16 -->
<g id="Node000016" class="node">
<title>Node16</title>
<g id="a_Node000016"><a xlink:href="_a_b_l_8_h.html" target="_top" xlink:title=" ">
<polygon fill="white" stroke="#666666" points="1586.5,-222.5 1443.5,-222.5 1443.5,-181.5 1586.5,-181.5 1586.5,-222.5"/>
<text text-anchor="start" x="1451.5" y="-210.5" font-family="Helvetica,sans-Serif" font-size="10.00">/home/runner/work/amr</text>
<text text-anchor="start" x="1451.5" y="-199.5" font-family="Helvetica,sans-Serif" font-size="10.00">&#45;wind/amr&#45;wind/amr&#45;wind</text>
<text text-anchor="middle" x="1515" y="-188.5" font-family="Helvetica,sans-Serif" font-size="10.00">/wind_energy/ABL.H</text>
</a>
</g>
</g>
<!-- Node1&#45;&gt;Node16 -->
<g id="edge18_Node000001_Node000016" class="edge">
<title>Node1&#45;&gt;Node16</title>
<g id="a_edge18_Node000001_Node000016"><a xlink:title=" ">
<path fill="none" stroke="#63b8ff" d="M1654.5,-420.19C1589.85,-402.9 1508.73,-369.23 1468,-305 1450.88,-277.99 1474.98,-243.73 1494.52,-222.59"/>
<polygon fill="#63b8ff" stroke="#63b8ff" points="1653.76,-423.62 1664.32,-422.73 1655.51,-416.84 1653.76,-423.62"/>
</a>
</g>
</g>
<!-- Node32 -->
<g id="Node000032" class="node">
<title>Node32</title>
<g id="a_Node000032"><a xlink:href="_a_b_l_wall_function_8_h.html" target="_top" xlink:title=" ">
<polygon fill="white" stroke="#666666" points="1837,-382 1661,-382 1661,-341 1837,-341 1837,-382"/>
<text text-anchor="start" x="1669" y="-370" font-family="Helvetica,sans-Serif" font-size="10.00">/home/runner/work/amr</text>
<text text-anchor="start" x="1669" y="-359" font-family="Helvetica,sans-Serif" font-size="10.00">&#45;wind/amr&#45;wind/amr&#45;wind</text>
<text text-anchor="middle" x="1749" y="-348" font-family="Helvetica,sans-Serif" font-size="10.00">/wind_energy/ABLWallFunction.H</text>
</a>
</g>
</g>
<!-- Node1&#45;&gt;Node32 -->
<g id="edge39_Node000001_Node000032" class="edge">
<title>Node1&#45;&gt;Node32</title>
<g id="a_edge39_Node000001_Node000032"><a xlink:title=" ">
<path fill="none" stroke="#63b8ff" d="M1749,-407.69C1749,-399.08 1749,-389.9 1749,-382.07"/>
<polygon fill="#63b8ff" stroke="#63b8ff" points="1745.5,-407.79 1749,-417.79 1752.5,-407.79 1745.5,-407.79"/>
</a>
</g>
</g>
<!-- Node3 -->
<g id="Node000003" class="node">
<title>Node3</title>
<g id="a_Node000003"><a xlink:href="_a_b_l_mean_boussinesq_8cpp.html" target="_top" xlink:title=" ">
<polygon fill="white" stroke="#666666" points="210,-140 0,-140 0,-88 210,-88 210,-140"/>
<text text-anchor="start" x="8" y="-128" font-family="Helvetica,sans-Serif" font-size="10.00">/home/runner/work/amr</text>
<text text-anchor="start" x="8" y="-117" font-family="Helvetica,sans-Serif" font-size="10.00">&#45;wind/amr&#45;wind/amr&#45;wind</text>
<text text-anchor="start" x="8" y="-106" font-family="Helvetica,sans-Serif" font-size="10.00">/equation_systems/icns</text>
<text text-anchor="middle" x="105" y="-95" font-family="Helvetica,sans-Serif" font-size="10.00">/source_terms/ABLMeanBoussinesq.cpp</text>
</a>
</g>
</g>
<!-- Node2&#45;&gt;Node3 -->
<g id="edge2_Node000002_Node000003" class="edge">
<title>Node2&#45;&gt;Node3</title>
<g id="a_edge2_Node000002_Node000003"><a xlink:title=" ">
<path fill="none" stroke="#63b8ff" d="M220.53,-171.45C199.67,-161.26 176.51,-149.94 156.44,-140.14"/>
<polygon fill="#63b8ff" stroke="#63b8ff" points="219.1,-174.65 229.62,-175.89 222.17,-168.36 219.1,-174.65"/>
</a>
</g>
</g>
<!-- Node4 -->
<g id="Node000004" class="node">
<title>Node4</title>
<g id="a_Node000004"><a xlink:href="_a_b_l_8cpp.html" target="_top" xlink:title=" ">
<polygon fill="white" stroke="#666666" points="371.5,-134.5 228.5,-134.5 228.5,-93.5 371.5,-93.5 371.5,-134.5"/>
<text text-anchor="start" x="236.5" y="-122.5" font-family="Helvetica,sans-Serif" font-size="10.00">/home/runner/work/amr</text>
<text text-anchor="start" x="236.5" y="-111.5" font-family="Helvetica,sans-Serif" font-size="10.00">&#45;wind/amr&#45;wind/amr&#45;wind</text>
<text text-anchor="middle" x="300" y="-100.5" font-family="Helvetica,sans-Serif" font-size="10.00">/wind_energy/ABL.cpp</text>
</a>
</g>
</g>
<!-- Node2&#45;&gt;Node4 -->
<g id="edge3_Node000002_Node000004" class="edge">
<title>Node2&#45;&gt;Node4</title>
<g id="a_edge3_Node000002_Node000004"><a xlink:title=" ">
<path fill="none" stroke="#63b8ff" d="M288.78,-165.78C291.12,-155.18 293.61,-143.92 295.65,-134.7"/>
<polygon fill="#63b8ff" stroke="#63b8ff" points="285.34,-165.14 286.6,-175.66 292.17,-166.65 285.34,-165.14"/>
</a>
</g>
</g>
<!-- Node5&#45;&gt;Node4 -->
<g id="edge6_Node000005_Node000004" class="edge">
<title>Node5&#45;&gt;Node4</title>
<g id="a_edge6_Node000005_Node000004"><a xlink:title=" ">
<path fill="none" stroke="#63b8ff" d="M425.13,-171.64C398.07,-159.39 367.37,-145.49 343.15,-134.53"/>
<polygon fill="#63b8ff" stroke="#63b8ff" points="423.98,-174.96 434.53,-175.89 426.87,-168.58 423.98,-174.96"/>
</a>
</g>
</g>
<!-- Node6 -->
<g id="Node000006" class="node">
<title>Node6</title>
<g id="a_Node000006"><a xlink:href="_hurricane_forcing_8cpp.html" target="_top" xlink:title=" ">
<polygon fill="white" stroke="#666666" points="580.5,-140 389.5,-140 389.5,-88 580.5,-88 580.5,-140"/>
<text text-anchor="start" x="397.5" y="-128" font-family="Helvetica,sans-Serif" font-size="10.00">/home/runner/work/amr</text>
<text text-anchor="start" x="397.5" y="-117" font-family="Helvetica,sans-Serif" font-size="10.00">&#45;wind/amr&#45;wind/amr&#45;wind</text>
<text text-anchor="start" x="397.5" y="-106" font-family="Helvetica,sans-Serif" font-size="10.00">/equation_systems/icns</text>
<text text-anchor="middle" x="485" y="-95" font-family="Helvetica,sans-Serif" font-size="10.00">/source_terms/HurricaneForcing.cpp</text>
</a>
</g>
</g>
<!-- Node5&#45;&gt;Node6 -->
<g id="edge5_Node000005_Node000006" class="edge">
<title>Node5&#45;&gt;Node6</title>
<g id="a_edge5_Node000005_Node000006"><a xlink:title=" ">
<path fill="none" stroke="#63b8ff" d="M487.94,-165.56C487.44,-157.04 486.92,-148.1 486.46,-140.16"/>
<polygon fill="#63b8ff" stroke="#63b8ff" points="484.45,-165.88 488.53,-175.66 491.44,-165.48 484.45,-165.88"/>
</a>
</g>
</g>
<!-- Node7&#45;&gt;Node4 -->
<g id="edge9_Node000007_Node000004" class="edge">
<title>Node7&#45;&gt;Node4</title>
<g id="a_edge9_Node000007_Node000004"><a xlink:title=" ">
<path fill="none" stroke="#63b8ff" d="M593.84,-176.74C592.55,-176.49 591.27,-176.24 590,-176 497,-158.18 472.06,-162.17 380,-140 373.35,-138.4 366.45,-136.54 359.61,-134.58"/>
<polygon fill="#63b8ff" stroke="#63b8ff" points="593.32,-180.2 603.81,-178.69 594.67,-173.34 593.32,-180.2"/>
</a>
</g>
</g>
<!-- Node8 -->
<g id="Node000008" class="node">
<title>Node8</title>
<g id="a_Node000008"><a xlink:href="_hurricane_temp_forcing_8cpp.html" target="_top" xlink:title=" ">
<polygon fill="white" stroke="#666666" points="817,-140 599,-140 599,-88 817,-88 817,-140"/>
<text text-anchor="start" x="607" y="-128" font-family="Helvetica,sans-Serif" font-size="10.00">/home/runner/work/amr</text>
<text text-anchor="start" x="607" y="-117" font-family="Helvetica,sans-Serif" font-size="10.00">&#45;wind/amr&#45;wind/amr&#45;wind</text>
<text text-anchor="start" x="607" y="-106" font-family="Helvetica,sans-Serif" font-size="10.00">/equation_systems/temperature</text>
<text text-anchor="middle" x="708" y="-95" font-family="Helvetica,sans-Serif" font-size="10.00">/source_terms/HurricaneTempForcing.cpp</text>
</a>
</g>
</g>
<!-- Node7&#45;&gt;Node8 -->
<g id="edge8_Node000007_Node000008" class="edge">
<title>Node7&#45;&gt;Node8</title>
<g id="a_edge8_Node000007_Node000008"><a xlink:title=" ">
<path fill="none" stroke="#63b8ff" d="M708,-165.56C708,-157.04 708,-148.1 708,-140.16"/>
<polygon fill="#63b8ff" stroke="#63b8ff" points="704.5,-165.66 708,-175.66 711.5,-165.66 704.5,-165.66"/>
</a>
</g>
</g>
<!-- Node11 -->
<g id="Node000011" class="node">
<title>Node11</title>
<g id="a_Node000011"><a xlink:href="_second_moment_averaging_8cpp.html" target="_top" xlink:title=" ">
<polygon fill="white" stroke="#666666" points="2424,-305 2220,-305 2220,-264 2424,-264 2424,-305"/>
<text text-anchor="start" x="2228" y="-293" font-family="Helvetica,sans-Serif" font-size="10.00">/home/runner/work/amr</text>
<text text-anchor="start" x="2228" y="-282" font-family="Helvetica,sans-Serif" font-size="10.00">&#45;wind/amr&#45;wind/amr&#45;wind</text>
<text text-anchor="middle" x="2322" y="-271" font-family="Helvetica,sans-Serif" font-size="10.00">/utilities/SecondMomentAveraging.cpp</text>
</a>
</g>
</g>
<!-- Node10&#45;&gt;Node11 -->
<g id="edge12_Node000010_Node000011" class="edge">
<title>Node10&#45;&gt;Node11</title>
<g id="a_edge12_Node000010_Node000011"><a xlink:title=" ">
<path fill="none" stroke="#63b8ff" d="M2234.61,-335.92C2251.89,-325.95 2271.59,-314.58 2287.9,-305.17"/>
<polygon fill="#63b8ff" stroke="#63b8ff" points="2232.73,-332.96 2225.82,-340.99 2236.23,-339.02 2232.73,-332.96"/>
</a>
</g>
</g>
<!-- Node10&#45;&gt;Node12 -->
<g id="edge13_Node000010_Node000012" class="edge">
<title>Node10&#45;&gt;Node12</title>
<g id="a_edge13_Node000010_Node000012"><a xlink:title=" ">
<path fill="none" stroke="#63b8ff" d="M2192.03,-330.41C2190.7,-310.1 2186.22,-283.54 2173,-264 2161.01,-246.28 2141.97,-232.52 2124.15,-222.6"/>
<polygon fill="#63b8ff" stroke="#63b8ff" points="2188.55,-330.83 2192.47,-340.67 2195.54,-330.53 2188.55,-330.83"/>
</a>
</g>
</g>
<!-- Node13 -->
<g id="Node000013" class="node">
<title>Node13</title>
<g id="a_Node000013"><a xlink:href="_a_b_l_stats_8cpp.html" target="_top" xlink:title=" ">
<polygon fill="white" stroke="#666666" points="3417.5,-134.5 3268.5,-134.5 3268.5,-93.5 3417.5,-93.5 3417.5,-134.5"/>
<text text-anchor="start" x="3276.5" y="-122.5" font-family="Helvetica,sans-Serif" font-size="10.00">/home/runner/work/amr</text>
<text text-anchor="start" x="3276.5" y="-111.5" font-family="Helvetica,sans-Serif" font-size="10.00">&#45;wind/amr&#45;wind/amr&#45;wind</text>
<text text-anchor="middle" x="3343" y="-100.5" font-family="Helvetica,sans-Serif" font-size="10.00">/wind_energy/ABLStats.cpp</text>
</a>
</g>
</g>
<!-- Node12&#45;&gt;Node13 -->
<g id="edge14_Node000012_Node000013" class="edge">
<title>Node12&#45;&gt;Node13</title>
<g id="a_edge14_Node000012_Node000013"><a xlink:title=" ">
<path fill="none" stroke="#63b8ff" d="M2160.73,-199.34C2392.03,-194.23 3048.11,-176.83 3260,-140 3268.01,-138.61 3276.33,-136.69 3284.48,-134.53"/>
<polygon fill="#63b8ff" stroke="#63b8ff" points="2160.62,-195.84 2150.7,-199.56 2160.78,-202.84 2160.62,-195.84"/>
</a>
</g>
</g>
<!-- Node14&#45;&gt;Node12 -->
<g id="edge17_Node000014_Node000012" class="edge">
<title>Node14&#45;&gt;Node12</title>
<g id="a_edge17_Node000014_Node000012"><a xlink:title=" ">
<path fill="none" stroke="#63b8ff" d="M1944.55,-330.75C1944.37,-310.22 1947.28,-283.26 1961,-264 1974.31,-245.31 1995.1,-231.93 2015.55,-222.56"/>
<polygon fill="#63b8ff" stroke="#63b8ff" points="1941.05,-330.95 1944.88,-340.83 1948.05,-330.72 1941.05,-330.95"/>
</a>
</g>
</g>
<!-- Node15 -->
<g id="Node000015" class="node">
<title>Node15</title>
<g id="a_Node000015"><a xlink:href="_third_moment_averaging_8cpp.html" target="_top" xlink:title=" ">
<polygon fill="white" stroke="#666666" points="2164,-305 1970,-305 1970,-264 2164,-264 2164,-305"/>
<text text-anchor="start" x="1978" y="-293" font-family="Helvetica,sans-Serif" font-size="10.00">/home/runner/work/amr</text>
<text text-anchor="start" x="1978" y="-282" font-family="Helvetica,sans-Serif" font-size="10.00">&#45;wind/amr&#45;wind/amr&#45;wind</text>
<text text-anchor="middle" x="2067" y="-271" font-family="Helvetica,sans-Serif" font-size="10.00">/utilities/ThirdMomentAveraging.cpp</text>
</a>
</g>
</g>
<!-- Node14&#45;&gt;Node15 -->
<g id="edge16_Node000014_Node000015" class="edge">
<title>Node14&#45;&gt;Node15</title>
<g id="a_edge16_Node000014_Node000015"><a xlink:title=" ">
<path fill="none" stroke="#63b8ff" d="M1986.77,-335.64C2002.62,-325.74 2020.61,-314.5 2035.52,-305.17"/>
<polygon fill="#63b8ff" stroke="#63b8ff" points="1984.84,-332.72 1978.22,-340.99 1988.55,-338.66 1984.84,-332.72"/>
</a>
</g>
</g>
<!-- Node16&#45;&gt;Node3 -->
<g id="edge21_Node000016_Node000003" class="edge">
<title>Node16&#45;&gt;Node3</title>
<g id="a_edge21_Node000016_Node000003"><a xlink:title=" ">
<path fill="none" stroke="#63b8ff" d="M1432.88,-197.94C1166.81,-187.92 338.68,-155.82 219,-140 216.09,-139.61 213.14,-139.19 210.17,-138.74"/>
<polygon fill="#63b8ff" stroke="#63b8ff" points="1433.12,-201.45 1443.24,-198.33 1433.38,-194.46 1433.12,-201.45"/>
</a>
</g>
</g>
<!-- Node16&#45;&gt;Node4 -->
<g id="edge35_Node000016_Node000004" class="edge">
<title>Node16&#45;&gt;Node4</title>
<g id="a_edge35_Node000016_Node000004"><a xlink:title=" ">
<path fill="none" stroke="#63b8ff" d="M1433.22,-197.78C1190.15,-188.06 482.67,-158.5 380,-140 372.27,-138.61 364.24,-136.69 356.38,-134.53"/>
<polygon fill="#63b8ff" stroke="#63b8ff" points="1433.27,-201.29 1443.4,-198.19 1433.55,-194.29 1433.27,-201.29"/>
</a>
</g>
</g>
<!-- Node16&#45;&gt;Node6 -->
<g id="edge25_Node000016_Node000006" class="edge">
<title>Node16&#45;&gt;Node6</title>
<g id="a_edge25_Node000016_Node000006"><a xlink:title=" ">
<path fill="none" stroke="#63b8ff" d="M1433.12,-200.2C1271.18,-197.61 898.91,-186.62 590,-140 586.94,-139.54 583.84,-139.03 580.72,-138.49"/>
<polygon fill="#63b8ff" stroke="#63b8ff" points="1433.43,-203.71 1443.48,-200.36 1433.54,-196.71 1433.43,-203.71"/>
</a>
</g>
</g>
<!-- Node16&#45;&gt;Node8 -->
<g id="edge27_Node000016_Node000008" class="edge">
<title>Node16&#45;&gt;Node8</title>
<g id="a_edge27_Node000016_Node000008"><a xlink:title=" ">
<path fill="none" stroke="#63b8ff" d="M1433.02,-196.94C1303.53,-189.82 1043.97,-172.62 826,-140 823.1,-139.57 820.17,-139.1 817.21,-138.62"/>
<polygon fill="#63b8ff" stroke="#63b8ff" points="1433.07,-200.45 1443.25,-197.5 1433.45,-193.46 1433.07,-200.45"/>
</a>
</g>
</g>
<!-- Node17 -->
<g id="Node000017" class="node">
<title>Node17</title>
<g id="a_Node000017"><a xlink:href="_c_f_d_sim_8cpp.html" target="_top" xlink:title=" ">
<polygon fill="white" stroke="#666666" points="2023.5,-134.5 1880.5,-134.5 1880.5,-93.5 2023.5,-93.5 2023.5,-134.5"/>
<text text-anchor="start" x="1888.5" y="-122.5" font-family="Helvetica,sans-Serif" font-size="10.00">/home/runner/work/amr</text>
<text text-anchor="start" x="1888.5" y="-111.5" font-family="Helvetica,sans-Serif" font-size="10.00">&#45;wind/amr&#45;wind/amr&#45;wind</text>
<text text-anchor="middle" x="1952" y="-100.5" font-family="Helvetica,sans-Serif" font-size="10.00">/CFDSim.cpp</text>
</a>
</g>
</g>
<!-- Node16&#45;&gt;Node17 -->
<g id="edge19_Node000016_Node000017" class="edge">
<title>Node16&#45;&gt;Node17</title>
<g id="a_edge19_Node000016_Node000017"><a xlink:title=" ">
<path fill="none" stroke="#63b8ff" d="M1596.8,-190.06C1669.36,-179.63 1777.95,-162.23 1871,-140 1877.73,-138.39 1884.72,-136.53 1891.64,-134.57"/>
<polygon fill="#63b8ff" stroke="#63b8ff" points="1596.22,-186.61 1586.81,-191.49 1597.21,-193.54 1596.22,-186.61"/>
</a>
</g>
</g>
<!-- Node18 -->
<g id="Node000018" class="node">
<title>Node18</title>
<g id="a_Node000018"><a xlink:href="_a_b_l_forcing_8cpp.html" target="_top" xlink:title=" ">
<polygon fill="white" stroke="#666666" points="2204.5,-140 2041.5,-140 2041.5,-88 2204.5,-88 2204.5,-140"/>
<text text-anchor="start" x="2049.5" y="-128" font-family="Helvetica,sans-Serif" font-size="10.00">/home/runner/work/amr</text>
<text text-anchor="start" x="2049.5" y="-117" font-family="Helvetica,sans-Serif" font-size="10.00">&#45;wind/amr&#45;wind/amr&#45;wind</text>
<text text-anchor="start" x="2049.5" y="-106" font-family="Helvetica,sans-Serif" font-size="10.00">/equation_systems/icns</text>
<text text-anchor="middle" x="2123" y="-95" font-family="Helvetica,sans-Serif" font-size="10.00">/source_terms/ABLForcing.cpp</text>
</a>
</g>
</g>
<!-- Node16&#45;&gt;Node18 -->
<g id="edge20_Node000016_Node000018" class="edge">
<title>Node16&#45;&gt;Node18</title>
<g id="a_edge20_Node000016_Node000018"><a xlink:title=" ">
<path fill="none" stroke="#63b8ff" d="M1596.75,-195.28C1699.34,-187.21 1880.37,-170 2033,-140 2035.71,-139.47 2038.45,-138.9 2041.21,-138.29"/>
<polygon fill="#63b8ff" stroke="#63b8ff" points="1596.46,-191.79 1586.76,-196.05 1597,-198.77 1596.46,-191.79"/>
</a>
</g>
</g>
<!-- Node19 -->
<g id="Node000019" class="node">
<title>Node19</title>
<g id="a_Node000019"><a xlink:href="_a_b_l_meso_forcing_mom_8cpp.html" target="_top" xlink:title=" ">
<polygon fill="white" stroke="#666666" points="2437,-140 2223,-140 2223,-88 2437,-88 2437,-140"/>
<text text-anchor="start" x="2231" y="-128" font-family="Helvetica,sans-Serif" font-size="10.00">/home/runner/work/amr</text>
<text text-anchor="start" x="2231" y="-117" font-family="Helvetica,sans-Serif" font-size="10.00">&#45;wind/amr&#45;wind/amr&#45;wind</text>
<text text-anchor="start" x="2231" y="-106" font-family="Helvetica,sans-Serif" font-size="10.00">/equation_systems/icns</text>
<text text-anchor="middle" x="2330" y="-95" font-family="Helvetica,sans-Serif" font-size="10.00">/source_terms/ABLMesoForcingMom.cpp</text>
</a>
</g>
</g>
<!-- Node16&#45;&gt;Node19 -->
<g id="edge22_Node000016_Node000019" class="edge">
<title>Node16&#45;&gt;Node19</title>
<g id="a_edge22_Node000016_Node000019"><a xlink:title=" ">
<path fill="none" stroke="#63b8ff" d="M1596.71,-195.16C1754.73,-183.66 2096.94,-157.65 2214,-140 2216.95,-139.55 2219.95,-139.08 2222.96,-138.58"/>
<polygon fill="#63b8ff" stroke="#63b8ff" points="1596.29,-191.68 1586.57,-195.9 1596.8,-198.67 1596.29,-191.68"/>
</a>
</g>
</g>
<!-- Node20 -->
<g id="Node000020" class="node">
<title>Node20</title>
<g id="a_Node000020"><a xlink:href="_drag_forcing_8cpp.html" target="_top" xlink:title=" ">
<polygon fill="white" stroke="#666666" points="2621.5,-140 2454.5,-140 2454.5,-88 2621.5,-88 2621.5,-140"/>
<text text-anchor="start" x="2462.5" y="-128" font-family="Helvetica,sans-Serif" font-size="10.00">/home/runner/work/amr</text>
<text text-anchor="start" x="2462.5" y="-117" font-family="Helvetica,sans-Serif" font-size="10.00">&#45;wind/amr&#45;wind/amr&#45;wind</text>
<text text-anchor="start" x="2462.5" y="-106" font-family="Helvetica,sans-Serif" font-size="10.00">/equation_systems/icns</text>
<text text-anchor="middle" x="2538" y="-95" font-family="Helvetica,sans-Serif" font-size="10.00">/source_terms/DragForcing.cpp</text>
</a>
</g>
</g>
<!-- Node16&#45;&gt;Node20 -->
<g id="edge23_Node000016_Node000020" class="edge">
<title>Node16&#45;&gt;Node20</title>
<g id="a_edge23_Node000016_Node000020"><a xlink:title=" ">
<path fill="none" stroke="#63b8ff" d="M1596.89,-194.61C1665.12,-189.37 1764.87,-181.87 1852,-176 2115.89,-158.22 2185.02,-182.9 2446,-140 2448.78,-139.54 2451.59,-139.04 2454.42,-138.49"/>
<polygon fill="#63b8ff" stroke="#63b8ff" points="1596.34,-191.15 1586.64,-195.4 1596.88,-198.13 1596.34,-191.15"/>
</a>
</g>
</g>
<!-- Node21 -->
<g id="Node000021" class="node">
<title>Node21</title>
<g id="a_Node000021"><a xlink:href="_forest_forcing_8cpp.html" target="_top" xlink:title=" ">
<polygon fill="white" stroke="#666666" points="2814,-140 2640,-140 2640,-88 2814,-88 2814,-140"/>
<text text-anchor="start" x="2648" y="-128" font-family="Helvetica,sans-Serif" font-size="10.00">/home/runner/work/amr</text>
<text text-anchor="start" x="2648" y="-117" font-family="Helvetica,sans-Serif" font-size="10.00">&#45;wind/amr&#45;wind/amr&#45;wind</text>
<text text-anchor="start" x="2648" y="-106" font-family="Helvetica,sans-Serif" font-size="10.00">/equation_systems/icns</text>
<text text-anchor="middle" x="2727" y="-95" font-family="Helvetica,sans-Serif" font-size="10.00">/source_terms/ForestForcing.cpp</text>
</a>
</g>
</g>
<!-- Node16&#45;&gt;Node21 -->
<g id="edge24_Node000016_Node000021" class="edge">
<title>Node16&#45;&gt;Node21</title>
<g id="a_edge24_Node000016_Node000021"><a xlink:title=" ">
<path fill="none" stroke="#63b8ff" d="M1596.87,-194.29C1665.09,-188.84 1764.83,-181.25 1852,-176 2197.97,-155.18 2288.32,-191.95 2631,-140 2633.89,-139.56 2636.83,-139.07 2639.78,-138.54"/>
<polygon fill="#63b8ff" stroke="#63b8ff" points="1596.31,-190.82 1586.62,-195.11 1596.87,-197.8 1596.31,-190.82"/>
</a>
</g>
</g>
<!-- Node22 -->
<g id="Node000022" class="node">
<title>Node22</title>
<g id="a_Node000022"><a xlink:href="_a_b_l_meso_forcing_temp_8cpp.html" target="_top" xlink:title=" ">
<polygon fill="white" stroke="#666666" points="3047.5,-140 2832.5,-140 2832.5,-88 3047.5,-88 3047.5,-140"/>
<text text-anchor="start" x="2840.5" y="-128" font-family="Helvetica,sans-Serif" font-size="10.00">/home/runner/work/amr</text>
<text text-anchor="start" x="2840.5" y="-117" font-family="Helvetica,sans-Serif" font-size="10.00">&#45;wind/amr&#45;wind/amr&#45;wind</text>
<text text-anchor="start" x="2840.5" y="-106" font-family="Helvetica,sans-Serif" font-size="10.00">/equation_systems/temperature</text>
<text text-anchor="middle" x="2940" y="-95" font-family="Helvetica,sans-Serif" font-size="10.00">/source_terms/ABLMesoForcingTemp.cpp</text>
</a>
</g>
</g>
<!-- Node16&#45;&gt;Node22 -->
<g id="edge26_Node000016_Node000022" class="edge">
<title>Node16&#45;&gt;Node22</title>
<g id="a_edge26_Node000016_Node000022"><a xlink:title=" ">
<path fill="none" stroke="#63b8ff" d="M1596.86,-194.08C1665.07,-188.51 1764.8,-180.85 1852,-176 2283.19,-152.02 2394.45,-193.32 2823,-140 2826.09,-139.62 2829.22,-139.19 2832.38,-138.73"/>
<polygon fill="#63b8ff" stroke="#63b8ff" points="1596.29,-190.61 1586.61,-194.92 1596.86,-197.59 1596.29,-190.61"/>
</a>
</g>
</g>
<!-- Node23 -->
<g id="Node000023" class="node">
<title>Node23</title>
<g id="a_Node000023"><a xlink:href="helics_8cpp.html" target="_top" xlink:title=" ">
<polygon fill="white" stroke="#666666" points="978.5,-134.5 835.5,-134.5 835.5,-93.5 978.5,-93.5 978.5,-134.5"/>
<text text-anchor="start" x="843.5" y="-122.5" font-family="Helvetica,sans-Serif" font-size="10.00">/home/runner/work/amr</text>
<text text-anchor="start" x="843.5" y="-111.5" font-family="Helvetica,sans-Serif" font-size="10.00">&#45;wind/amr&#45;wind/amr&#45;wind</text>
<text text-anchor="middle" x="907" y="-100.5" font-family="Helvetica,sans-Serif" font-size="10.00">/helics.cpp</text>
</a>
</g>
</g>
<!-- Node16&#45;&gt;Node23 -->
<g id="edge28_Node000016_Node000023" class="edge">
<title>Node16&#45;&gt;Node23</title>
<g id="a_edge28_Node000016_Node000023"><a xlink:title=" ">
<path fill="none" stroke="#63b8ff" d="M1433.27,-196.33C1328.85,-189.28 1142.94,-173.07 987,-140 979.88,-138.49 972.49,-136.62 965.21,-134.58"/>
<polygon fill="#63b8ff" stroke="#63b8ff" points="1433.22,-199.84 1443.43,-197.01 1433.68,-192.85 1433.22,-199.84"/>
</a>
</g>
</g>
<!-- Node24 -->
<g id="Node000024" class="node">
<title>Node24</title>
<g id="a_Node000024"><a xlink:href="incflo_8cpp.html" target="_top" xlink:title=" ">
<polygon fill="white" stroke="#666666" points="1139.5,-134.5 996.5,-134.5 996.5,-93.5 1139.5,-93.5 1139.5,-134.5"/>
<text text-anchor="start" x="1004.5" y="-122.5" font-family="Helvetica,sans-Serif" font-size="10.00">/home/runner/work/amr</text>
<text text-anchor="start" x="1004.5" y="-111.5" font-family="Helvetica,sans-Serif" font-size="10.00">&#45;wind/amr&#45;wind/amr&#45;wind</text>
<text text-anchor="middle" x="1068" y="-100.5" font-family="Helvetica,sans-Serif" font-size="10.00">/incflo.cpp</text>
</a>
</g>
</g>
<!-- Node16&#45;&gt;Node24 -->
<g id="edge29_Node000016_Node000024" class="edge">
<title>Node16&#45;&gt;Node24</title>
<g id="a_edge29_Node000016_Node000024"><a xlink:title=" ">
<path fill="none" stroke="#63b8ff" d="M1433.08,-190.69C1358.28,-180.49 1244.92,-163.08 1148,-140 1141.35,-138.42 1134.44,-136.57 1127.6,-134.61"/>
<polygon fill="#63b8ff" stroke="#63b8ff" points="1433,-194.21 1443.38,-192.08 1433.93,-187.27 1433,-194.21"/>
</a>
</g>
</g>
<!-- Node25 -->
<g id="Node000025" class="node">
<title>Node25</title>
<g id="a_Node000025"><a xlink:href="nodal__projection__ops_8_h.html" target="_top" xlink:title=" ">
<polygon fill="white" stroke="#666666" points="1342.5,-134.5 1157.5,-134.5 1157.5,-93.5 1342.5,-93.5 1342.5,-134.5"/>
<text text-anchor="start" x="1165.5" y="-122.5" font-family="Helvetica,sans-Serif" font-size="10.00">/home/runner/work/amr</text>
<text text-anchor="start" x="1165.5" y="-111.5" font-family="Helvetica,sans-Serif" font-size="10.00">&#45;wind/amr&#45;wind/amr&#45;wind</text>
<text text-anchor="middle" x="1250" y="-100.5" font-family="Helvetica,sans-Serif" font-size="10.00">/projection/nodal_projection_ops.H</text>
</a>
</g>
</g>
<!-- Node16&#45;&gt;Node25 -->
<g id="edge30_Node000016_Node000025" class="edge">
<title>Node16&#45;&gt;Node25</title>
<g id="a_edge30_Node000016_Node000025"><a xlink:title=" ">
<path fill="none" stroke="#63b8ff" d="M1445.28,-178.37C1403.34,-164.76 1350.49,-147.61 1310.35,-134.59"/>
<polygon fill="#63b8ff" stroke="#63b8ff" points="1444.28,-181.73 1454.87,-181.49 1446.44,-175.07 1444.28,-181.73"/>
</a>
</g>
</g>
<!-- Node28 -->
<g id="Node000028" class="node">
<title>Node28</title>
<g id="a_Node000028"><a xlink:href="init_8cpp.html" target="_top" xlink:title=" ">
<polygon fill="white" stroke="#666666" points="1503.5,-134.5 1360.5,-134.5 1360.5,-93.5 1503.5,-93.5 1503.5,-134.5"/>
<text text-anchor="start" x="1368.5" y="-122.5" font-family="Helvetica,sans-Serif" font-size="10.00">/home/runner/work/amr</text>
<text text-anchor="start" x="1368.5" y="-111.5" font-family="Helvetica,sans-Serif" font-size="10.00">&#45;wind/amr&#45;wind/amr&#45;wind</text>
<text text-anchor="middle" x="1432" y="-100.5" font-family="Helvetica,sans-Serif" font-size="10.00">/setup/init.cpp</text>
</a>
</g>
</g>
<!-- Node16&#45;&gt;Node28 -->
<g id="edge33_Node000016_Node000028" class="edge">
<title>Node16&#45;&gt;Node28</title>
<g id="a_edge33_Node000016_Node000028"><a xlink:title=" ">
<path fill="none" stroke="#63b8ff" d="M1489.2,-174.26C1476.86,-161.48 1462.36,-146.46 1451.05,-134.74"/>
<polygon fill="#63b8ff" stroke="#63b8ff" points="1486.7,-176.72 1496.17,-181.49 1491.74,-171.86 1486.7,-176.72"/>
</a>
</g>
</g>
<!-- Node29 -->
<g id="Node000029" class="node">
<title>Node29</title>
<g id="a_Node000029"><a xlink:href="_kosovic_8cpp.html" target="_top" xlink:title=" ">
<polygon fill="white" stroke="#666666" points="1674,-134.5 1522,-134.5 1522,-93.5 1674,-93.5 1674,-134.5"/>
<text text-anchor="start" x="1530" y="-122.5" font-family="Helvetica,sans-Serif" font-size="10.00">/home/runner/work/amr</text>
<text text-anchor="start" x="1530" y="-111.5" font-family="Helvetica,sans-Serif" font-size="10.00">&#45;wind/amr&#45;wind/amr&#45;wind</text>
<text text-anchor="middle" x="1598" y="-100.5" font-family="Helvetica,sans-Serif" font-size="10.00">/turbulence/LES/Kosovic.cpp</text>
</a>
</g>
</g>
<!-- Node16&#45;&gt;Node29 -->
<g id="edge34_Node000016_Node000029" class="edge">
<title>Node16&#45;&gt;Node29</title>
<g id="a_edge34_Node000016_Node000029"><a xlink:title=" ">
<path fill="none" stroke="#63b8ff" d="M1540.8,-174.26C1553.14,-161.48 1567.64,-146.46 1578.95,-134.74"/>
<polygon fill="#63b8ff" stroke="#63b8ff" points="1538.26,-171.86 1533.83,-181.49 1543.3,-176.72 1538.26,-171.86"/>
</a>
</g>
</g>
<!-- Node30 -->
<g id="Node000030" class="node">
<title>Node30</title>
<g id="a_Node000030"><a xlink:href="_a_b_l_anelastic_8cpp.html" target="_top" xlink:title=" ">
<polygon fill="white" stroke="#666666" points="1862,-134.5 1692,-134.5 1692,-93.5 1862,-93.5 1862,-134.5"/>
<text text-anchor="start" x="1700" y="-122.5" font-family="Helvetica,sans-Serif" font-size="10.00">/home/runner/work/amr</text>
<text text-anchor="start" x="1700" y="-111.5" font-family="Helvetica,sans-Serif" font-size="10.00">&#45;wind/amr&#45;wind/amr&#45;wind</text>
<text text-anchor="middle" x="1777" y="-100.5" font-family="Helvetica,sans-Serif" font-size="10.00">/wind_energy/ABLAnelastic.cpp</text>
</a>
</g>
</g>
<!-- Node16&#45;&gt;Node30 -->
<g id="edge36_Node000016_Node000030" class="edge">
<title>Node16&#45;&gt;Node30</title>
<g id="a_edge36_Node000016_Node000030"><a xlink:title=" ">
<path fill="none" stroke="#63b8ff" d="M1584.2,-178.29C1625.61,-164.69 1677.73,-147.59 1717.33,-134.59"/>
<polygon fill="#63b8ff" stroke="#63b8ff" points="1582.86,-175.04 1574.45,-181.49 1585.04,-181.69 1582.86,-175.04"/>
</a>
</g>
</g>
<!-- Node31 -->
<g id="Node000031" class="node">
<title>Node31</title>
<g id="a_Node000031"><a xlink:href="_a_b_l_wall_function_8cpp.html" target="_top" xlink:title=" ">
<polygon fill="white" stroke="#666666" points="3250.5,-134.5 3065.5,-134.5 3065.5,-93.5 3250.5,-93.5 3250.5,-134.5"/>
<text text-anchor="start" x="3073.5" y="-122.5" font-family="Helvetica,sans-Serif" font-size="10.00">/home/runner/work/amr</text>
<text text-anchor="start" x="3073.5" y="-111.5" font-family="Helvetica,sans-Serif" font-size="10.00">&#45;wind/amr&#45;wind/amr&#45;wind</text>
<text text-anchor="middle" x="3158" y="-100.5" font-family="Helvetica,sans-Serif" font-size="10.00">/wind_energy/ABLWallFunction.cpp</text>
</a>
</g>
</g>
<!-- Node16&#45;&gt;Node31 -->
<g id="edge37_Node000016_Node000031" class="edge">
<title>Node16&#45;&gt;Node31</title>
<g id="a_edge37_Node000016_Node000031"><a xlink:title=" ">
<path fill="none" stroke="#63b8ff" d="M1596.85,-193.91C1665.05,-188.25 1764.79,-180.54 1852,-176 2119.54,-162.09 2791.59,-176.39 3057,-140 3066.84,-138.65 3077.12,-136.73 3087.19,-134.54"/>
<polygon fill="#63b8ff" stroke="#63b8ff" points="1596.27,-190.45 1586.6,-194.77 1596.86,-197.42 1596.27,-190.45"/>
</a>
</g>
</g>
<!-- Node26 -->
<g id="Node000026" class="node">
<title>Node26</title>
<g id="a_Node000026"><a xlink:href="_overset_ops_8cpp.html" target="_top" xlink:title=" ">
<polygon fill="white" stroke="#666666" points="1240.5,-46.5 1097.5,-46.5 1097.5,-5.5 1240.5,-5.5 1240.5,-46.5"/>
<text text-anchor="start" x="1105.5" y="-34.5" font-family="Helvetica,sans-Serif" font-size="10.00">/home/runner/work/amr</text>
<text text-anchor="start" x="1105.5" y="-23.5" font-family="Helvetica,sans-Serif" font-size="10.00">&#45;wind/amr&#45;wind/amr&#45;wind</text>
<text text-anchor="middle" x="1169" y="-12.5" font-family="Helvetica,sans-Serif" font-size="10.00">/overset/OversetOps.cpp</text>
</a>
</g>
</g>
<!-- Node25&#45;&gt;Node26 -->
<g id="edge31_Node000025_Node000026" class="edge">
<title>Node25&#45;&gt;Node26</title>
<g id="a_edge31_Node000025_Node000026"><a xlink:title=" ">
<path fill="none" stroke="#63b8ff" d="M1224.48,-85.9C1212.52,-73.2 1198.53,-58.35 1187.59,-46.74"/>
<polygon fill="#63b8ff" stroke="#63b8ff" points="1222.22,-88.61 1231.62,-93.49 1227.31,-83.81 1222.22,-88.61"/>
</a>
</g>
</g>
<!-- Node27 -->
<g id="Node000027" class="node">
<title>Node27</title>
<g id="a_Node000027"><a xlink:href="incflo__apply__nodal__projection_8cpp.html" target="_top" xlink:title=" ">
<polygon fill="white" stroke="#666666" points="1401.5,-52 1258.5,-52 1258.5,0 1401.5,0 1401.5,-52"/>
<text text-anchor="start" x="1266.5" y="-40" font-family="Helvetica,sans-Serif" font-size="10.00">/home/runner/work/amr</text>
<text text-anchor="start" x="1266.5" y="-29" font-family="Helvetica,sans-Serif" font-size="10.00">&#45;wind/amr&#45;wind/amr&#45;wind</text>
<text text-anchor="start" x="1266.5" y="-18" font-family="Helvetica,sans-Serif" font-size="10.00">/projection/incflo_apply</text>
<text text-anchor="middle" x="1330" y="-7" font-family="Helvetica,sans-Serif" font-size="10.00">_nodal_projection.cpp</text>
</a>
</g>
</g>
<!-- Node25&#45;&gt;Node27 -->
<g id="edge32_Node000025_Node000027" class="edge">
<title>Node25&#45;&gt;Node27</title>
<g id="a_edge32_Node000025_Node000027"><a xlink:title=" ">
<path fill="none" stroke="#63b8ff" d="M1275.14,-85.97C1285.15,-75.21 1296.6,-62.9 1306.45,-52.32"/>
<polygon fill="#63b8ff" stroke="#63b8ff" points="1272.4,-83.78 1268.15,-93.49 1277.53,-88.55 1272.4,-83.78"/>
</a>
</g>
</g>
<!-- Node32&#45;&gt;Node12 -->
<g id="edge42_Node000032_Node000012" class="edge">
<title>Node32&#45;&gt;Node12</title>
<g id="a_edge42_Node000032_Node000012"><a xlink:title=" ">
<path fill="none" stroke="#63b8ff" d="M1810.7,-337.09C1832.96,-327.94 1858,-316.8 1880,-305 1909.11,-289.38 1913.03,-279.88 1942,-264 1970.31,-248.48 2003.34,-233.68 2029.87,-222.55"/>
<polygon fill="#63b8ff" stroke="#63b8ff" points="1809.3,-333.88 1801.35,-340.89 1811.93,-340.37 1809.3,-333.88"/>
</a>
</g>
</g>
<!-- Node32&#45;&gt;Node16 -->
<g id="edge41_Node000032_Node000016" class="edge">
<title>Node32&#45;&gt;Node16</title>
<g id="a_edge41_Node000032_Node000016"><a xlink:title=" ">
<path fill="none" stroke="#63b8ff" d="M1650.5,-353.04C1582.85,-345.64 1501.52,-331.42 1480,-305 1460.25,-280.76 1481.16,-244.74 1498.09,-222.62"/>
<polygon fill="#63b8ff" stroke="#63b8ff" points="1650.49,-356.56 1660.8,-354.13 1651.22,-349.6 1650.49,-356.56"/>
</a>
</g>
</g>
<!-- Node32&#45;&gt;Node31 -->
<g id="edge46_Node000032_Node000031" class="edge">
<title>Node32&#45;&gt;Node31</title>
<g id="a_edge46_Node000032_Node000031"><a xlink:title=" ">
<path fill="none" stroke="#63b8ff" d="M1801.5,-336.11C1817.31,-327.48 1834.13,-316.91 1848,-305 1865.54,-289.94 1863.44,-280.13 1880,-264 1927.11,-218.1 1936.89,-197.65 1999,-176 2110.07,-137.29 2940.5,-156.22 3057,-140 3066.84,-138.63 3077.11,-136.69 3087.18,-134.5"/>
<polygon fill="#63b8ff" stroke="#63b8ff" points="1799.53,-333.19 1792.33,-340.97 1802.81,-339.38 1799.53,-333.19"/>
</a>
</g>
</g>
<!-- Node33 -->
<g id="Node000033" class="node">
<title>Node33</title>
<g id="a_Node000033"><a xlink:href="_boussinesq_bubble_8cpp.html" target="_top" xlink:title=" ">
<polygon fill="white" stroke="#666666" points="1838.5,-305 1669.5,-305 1669.5,-264 1838.5,-264 1838.5,-305"/>
<text text-anchor="start" x="1677.5" y="-293" font-family="Helvetica,sans-Serif" font-size="10.00">/home/runner/work/amr</text>
<text text-anchor="start" x="1677.5" y="-282" font-family="Helvetica,sans-Serif" font-size="10.00">&#45;wind/amr&#45;wind/amr&#45;wind</text>
<text text-anchor="middle" x="1754" y="-271" font-family="Helvetica,sans-Serif" font-size="10.00">/physics/BoussinesqBubble.cpp</text>
</a>
</g>
</g>
<!-- Node32&#45;&gt;Node33 -->
<g id="edge40_Node000032_Node000033" class="edge">
<title>Node32&#45;&gt;Node33</title>
<g id="a_edge40_Node000032_Node000033"><a xlink:title=" ">
<path fill="none" stroke="#63b8ff" d="M1750.99,-330.69C1751.56,-322.08 1752.17,-312.9 1752.7,-305.07"/>
<polygon fill="#63b8ff" stroke="#63b8ff" points="1747.49,-330.58 1750.31,-340.79 1754.47,-331.05 1747.49,-330.58"/>
</a>
</g>
</g>
<!-- Node34 -->
<g id="Node000034" class="node">
<title>Node34</title>
<g id="a_Node000034"><a xlink:href="_a_b_l_stats_base_8_h.html" target="_top" xlink:title=" ">
<polygon fill="white" stroke="#666666" points="1651.5,-305 1488.5,-305 1488.5,-264 1651.5,-264 1651.5,-305"/>
<text text-anchor="start" x="1496.5" y="-293" font-family="Helvetica,sans-Serif" font-size="10.00">/home/runner/work/amr</text>
<text text-anchor="start" x="1496.5" y="-282" font-family="Helvetica,sans-Serif" font-size="10.00">&#45;wind/amr&#45;wind/amr&#45;wind</text>
<text text-anchor="middle" x="1570" y="-271" font-family="Helvetica,sans-Serif" font-size="10.00">/wind_energy/ABLStatsBase.H</text>
</a>
</g>
</g>
<!-- Node32&#45;&gt;Node34 -->
<g id="edge43_Node000032_Node000034" class="edge">
<title>Node32&#45;&gt;Node34</title>
<g id="a_edge43_Node000032_Node000034"><a xlink:title=" ">
<path fill="none" stroke="#63b8ff" d="M1692.9,-337C1668.39,-326.72 1639.97,-314.82 1616.64,-305.04"/>
<polygon fill="#63b8ff" stroke="#63b8ff" points="1691.86,-340.35 1702.44,-340.99 1694.57,-333.9 1691.86,-340.35"/>
</a>
</g>
</g>
<!-- Node34&#45;&gt;Node12 -->
<g id="edge45_Node000034_Node000012" class="edge">
<title>Node34&#45;&gt;Node12</title>
<g id="a_edge45_Node000034_Node000012"><a xlink:title=" ">
<path fill="none" stroke="#63b8ff" d="M1661.75,-263.92C1789.25,-241.24 1926.08,-222.51 2007.39,-211.98"/>
<polygon fill="#63b8ff" stroke="#63b8ff" points="1661.03,-260.5 1651.8,-265.7 1662.26,-267.39 1661.03,-260.5"/>
</a>
</g>
</g>
<!-- Node34&#45;&gt;Node16 -->
<g id="edge44_Node000034_Node000016" class="edge">
<title>Node34&#45;&gt;Node16</title>
<g id="a_edge44_Node000034_Node000016"><a xlink:title=" ">
<path fill="none" stroke="#63b8ff" d="M1550.73,-255.3C1543.37,-244.52 1535.14,-232.48 1528.44,-222.67"/>
<polygon fill="#63b8ff" stroke="#63b8ff" points="1547.87,-257.32 1556.4,-263.6 1553.65,-253.37 1547.87,-257.32"/>
</a>
</g>
</g>
</g>
</svg>

<g id="navigator" transform="translate(0 0)" fill="#404254">
  <rect fill="#f2f5e9" fill-opacity="0.5" stroke="#606060" stroke-width=".5" x="0" y="0" width="60" height="60"/>
  <use id="zoomplus" xlink:href="#zoomPlus" x="17" y="9" onmousedown="handleZoom(evt,'in')"/>
  <use id="zoomminus" xlink:href="#zoomMin" x="42" y="9" onmousedown="handleZoom(evt,'out')"/>
  <use id="reset" xlink:href="#resetDef" x="30" y="36" onmousedown="handleReset()"/>
   <use id="arrowup" xlink:href="#arrowUp" x="0" y="0" onmousedown="handlePan(0,-1)"/>
  <use id="arrowright" xlink:href="#arrowRight" x="0" y="0" onmousedown="handlePan(1,0)"/>
  <use id="arrowdown" xlink:href="#arrowDown" x="0" y="0" onmousedown="handlePan(0,1)"/>
  <use id="arrowleft" xlink:href="#arrowLeft" x="0" y="0" onmousedown="handlePan(-1,0)"/>
</g>
<svg viewBox="0 0 15 15" width="100%" height="30px" preserveAspectRatio="xMaxYMin meet">
 <g id="arrow_out" transform="scale(0.3 0.3)">
  <a xlink:href="_field_plane_averaging_8_h__dep__incl_org.svg" target="_base">
   <rect id="button" ry="5" rx="5" y="6" x="6" height="38" width="38"
        fill="#f2f5e9" fill-opacity="0.5" stroke="#606060" stroke-width="1.0"/>
   <path id="arrow"
     d="M 11.500037,31.436501 C 11.940474,20.09759 22.043105,11.32322 32.158766,21.979434 L 37.068811,17.246167 C 37.068811,17.246167 37.088388,32 37.088388,32 L 22.160133,31.978069 C 22.160133,31.978069 26.997745,27.140456 26.997745,27.140456 C 18.528582,18.264221 13.291696,25.230495 11.500037,31.436501 z"
     style="fill:#404040;"/>
  </a>
 </g>
</svg>

<style type='text/css'>
<![CDATA[
[data-mouse-over-selected='false'] { opacity: 0.7; }
[data-mouse-over-selected='true']  { opacity: 1.0; }
]]>
</style>
<script type="application/ecmascript"><![CDATA[
document.addEventListener('DOMContentLoaded', (event) => {
  highlightEdges();
  highlightAdjacentNodes();
});
]]></script>
</svg>
