<?xml version="1.0" encoding="UTF-8" standalone="no"?>
<!DOCTYPE svg PUBLIC "-//W3C//DTD SVG 1.1//EN"
 "http://www.w3.org/Graphics/SVG/1.1/DTD/svg11.dtd">
<!-- Generated by graphviz version 2.43.0 (0)
 -->
<!-- Title: /home/runner/work/amr&#45;wind/amr&#45;wind/amr&#45;wind/wind_energy/MOData.H Pages: 1 -->
<svg width="3426pt" height="489pt"
 viewBox="0.00 0.00 3426.00 489.00" xmlns="http://www.w3.org/2000/svg" xmlns:xlink="http://www.w3.org/1999/xlink">
<g id="graph0" class="graph" transform="scale(1 1) rotate(0) translate(4 485)">
<title>/home/runner/work/amr&#45;wind/amr&#45;wind/amr&#45;wind/wind_energy/MOData.H</title>
<!-- Node1 -->
<g id="Node000001" class="node">
<title>Node1</title>
<g id="a_Node000001"><a xlink:title=" ">
<polygon fill="#999999" stroke="#666666" points="2797,-481 2654,-481 2654,-440 2797,-440 2797,-481"/>
<text text-anchor="start" x="2662" y="-469" font-family="Helvetica,sans-Serif" font-size="10.00">/home/runner/work/amr</text>
<text text-anchor="start" x="2662" y="-458" font-family="Helvetica,sans-Serif" font-size="10.00">&#45;wind/amr&#45;wind/amr&#45;wind</text>
<text text-anchor="middle" x="2725.5" y="-447" font-family="Helvetica,sans-Serif" font-size="10.00">/wind_energy/MOData.H</text>
</a>
</g>
</g>
<!-- Node2 -->
<g id="Node000002" class="node">
<title>Node2</title>
<g id="a_Node000002"><a xlink:href="_drag_temp_forcing_8cpp.html" target="_top" xlink:title=" ">
<polygon fill="white" stroke="#666666" points="2381.5,-404 2187.5,-404 2187.5,-352 2381.5,-352 2381.5,-404"/>
<text text-anchor="start" x="2195.5" y="-392" font-family="Helvetica,sans-Serif" font-size="10.00">/home/runner/work/amr</text>
<text text-anchor="start" x="2195.5" y="-381" font-family="Helvetica,sans-Serif" font-size="10.00">&#45;wind/amr&#45;wind/amr&#45;wind</text>
<text text-anchor="start" x="2195.5" y="-370" font-family="Helvetica,sans-Serif" font-size="10.00">/equation_systems/temperature</text>
<text text-anchor="middle" x="2284.5" y="-359" font-family="Helvetica,sans-Serif" font-size="10.00">/source_terms/DragTempForcing.cpp</text>
</a>
</g>
</g>
<!-- Node1&#45;&gt;Node2 -->
<g id="edge1_Node000001_Node000002" class="edge">
<title>Node1&#45;&gt;Node2</title>
<g id="a_edge1_Node000001_Node000002"><a xlink:title=" ">
<path fill="none" stroke="#63b8ff" d="M2643.47,-447.49C2575.47,-437.16 2476.41,-421.23 2390.5,-404 2387.63,-403.42 2384.71,-402.83 2381.77,-402.21"/>
<polygon fill="#63b8ff" stroke="#63b8ff" points="2643.28,-451 2653.69,-449.04 2644.32,-444.08 2643.28,-451"/>
</a>
</g>
</g>
<!-- Node3 -->
<g id="Node000003" class="node">
<title>Node3</title>
<g id="a_Node000003"><a xlink:href="_krans_axell_8cpp.html" target="_top" xlink:title=" ">
<polygon fill="white" stroke="#666666" points="2561.5,-404 2399.5,-404 2399.5,-352 2561.5,-352 2561.5,-404"/>
<text text-anchor="start" x="2407.5" y="-392" font-family="Helvetica,sans-Serif" font-size="10.00">/home/runner/work/amr</text>
<text text-anchor="start" x="2407.5" y="-381" font-family="Helvetica,sans-Serif" font-size="10.00">&#45;wind/amr&#45;wind/amr&#45;wind</text>
<text text-anchor="start" x="2407.5" y="-370" font-family="Helvetica,sans-Serif" font-size="10.00">/equation_systems/tke/source</text>
<text text-anchor="middle" x="2480.5" y="-359" font-family="Helvetica,sans-Serif" font-size="10.00">_terms/KransAxell.cpp</text>
</a>
</g>
</g>
<!-- Node1&#45;&gt;Node3 -->
<g id="edge2_Node000001_Node000003" class="edge">
<title>Node1&#45;&gt;Node3</title>
<g id="a_edge2_Node000001_Node000003"><a xlink:title=" ">
<path fill="none" stroke="#63b8ff" d="M2656.03,-436.67C2625.04,-426.49 2588.44,-414.47 2556.7,-404.04"/>
<polygon fill="#63b8ff" stroke="#63b8ff" points="2655.29,-440.11 2665.88,-439.91 2657.47,-433.46 2655.29,-440.11"/>
</a>
</g>
</g>
<!-- Node4 -->
<g id="Node000004" class="node">
<title>Node4</title>
<g id="a_Node000004"><a xlink:href="_a_b_l_wall_function_8_h.html" target="_top" xlink:title=" ">
<polygon fill="white" stroke="#666666" points="2755.5,-398.5 2579.5,-398.5 2579.5,-357.5 2755.5,-357.5 2755.5,-398.5"/>
<text text-anchor="start" x="2587.5" y="-386.5" font-family="Helvetica,sans-Serif" font-size="10.00">/home/runner/work/amr</text>
<text text-anchor="start" x="2587.5" y="-375.5" font-family="Helvetica,sans-Serif" font-size="10.00">&#45;wind/amr&#45;wind/amr&#45;wind</text>
<text text-anchor="middle" x="2667.5" y="-364.5" font-family="Helvetica,sans-Serif" font-size="10.00">/wind_energy/ABLWallFunction.H</text>
</a>
</g>
</g>
<!-- Node1&#45;&gt;Node4 -->
<g id="edge3_Node000001_Node000004" class="edge">
<title>Node1&#45;&gt;Node4</title>
<g id="a_edge3_Node000001_Node000004"><a xlink:title=" ">
<path fill="none" stroke="#63b8ff" d="M2705.18,-431.3C2697.42,-420.52 2688.74,-408.48 2681.67,-398.67"/>
<polygon fill="#63b8ff" stroke="#63b8ff" points="2702.48,-433.53 2711.16,-439.6 2708.16,-429.44 2702.48,-433.53"/>
</a>
</g>
</g>
<!-- Node25 -->
<g id="Node000025" class="node">
<title>Node25</title>
<g id="a_Node000025"><a xlink:href="_a_b_l_wall_function_8cpp.html" target="_top" xlink:title=" ">
<polygon fill="white" stroke="#666666" points="3418,-134.5 3233,-134.5 3233,-93.5 3418,-93.5 3418,-134.5"/>
<text text-anchor="start" x="3241" y="-122.5" font-family="Helvetica,sans-Serif" font-size="10.00">/home/runner/work/amr</text>
<text text-anchor="start" x="3241" y="-111.5" font-family="Helvetica,sans-Serif" font-size="10.00">&#45;wind/amr&#45;wind/amr&#45;wind</text>
<text text-anchor="middle" x="3325.5" y="-100.5" font-family="Helvetica,sans-Serif" font-size="10.00">/wind_energy/ABLWallFunction.cpp</text>
</a>
</g>
</g>
<!-- Node1&#45;&gt;Node25 -->
<g id="edge31_Node000001_Node000025" class="edge">
<title>Node1&#45;&gt;Node25</title>
<g id="a_edge31_Node000001_Node000025"><a xlink:title=" ">
<path fill="none" stroke="#63b8ff" d="M2745.41,-431.31C2767.26,-400.5 2799.75,-355.07 2803.5,-352 2943.21,-237.87 3146.75,-166.55 3253.71,-134.63"/>
<polygon fill="#63b8ff" stroke="#63b8ff" points="2742.49,-429.39 2739.56,-439.57 2748.2,-433.43 2742.49,-429.39"/>
</a>
</g>
</g>
<!-- Node29 -->
<g id="Node000029" class="node">
<title>Node29</title>
<g id="a_Node000029"><a xlink:href="_m_o_data_8cpp.html" target="_top" xlink:title=" ">
<polygon fill="white" stroke="#666666" points="2957,-398.5 2812,-398.5 2812,-357.5 2957,-357.5 2957,-398.5"/>
<text text-anchor="start" x="2820" y="-386.5" font-family="Helvetica,sans-Serif" font-size="10.00">/home/runner/work/amr</text>
<text text-anchor="start" x="2820" y="-375.5" font-family="Helvetica,sans-Serif" font-size="10.00">&#45;wind/amr&#45;wind/amr&#45;wind</text>
<text text-anchor="middle" x="2884.5" y="-364.5" font-family="Helvetica,sans-Serif" font-size="10.00">/wind_energy/MOData.cpp</text>
</a>
</g>
</g>
<!-- Node1&#45;&gt;Node29 -->
<g id="edge32_Node000001_Node000029" class="edge">
<title>Node1&#45;&gt;Node29</title>
<g id="a_edge32_Node000001_Node000029"><a xlink:title=" ">
<path fill="none" stroke="#63b8ff" d="M2773.36,-435.27C2796.5,-423.55 2823.92,-409.67 2845.73,-398.63"/>
<polygon fill="#63b8ff" stroke="#63b8ff" points="2771.74,-432.17 2764.4,-439.81 2774.9,-438.41 2771.74,-432.17"/>
</a>
</g>
</g>
<!-- Node30 -->
<g id="Node000030" class="node">
<title>Node30</title>
<g id="a_Node000030"><a xlink:href="_shear_stress_8_h.html" target="_top" xlink:title=" ">
<polygon fill="white" stroke="#666666" points="3265,-398.5 3112,-398.5 3112,-357.5 3265,-357.5 3265,-398.5"/>
<text text-anchor="start" x="3120" y="-386.5" font-family="Helvetica,sans-Serif" font-size="10.00">/home/runner/work/amr</text>
<text text-anchor="start" x="3120" y="-375.5" font-family="Helvetica,sans-Serif" font-size="10.00">&#45;wind/amr&#45;wind/amr&#45;wind</text>
<text text-anchor="middle" x="3188.5" y="-364.5" font-family="Helvetica,sans-Serif" font-size="10.00">/wind_energy/ShearStress.H</text>
</a>
</g>
</g>
<!-- Node1&#45;&gt;Node30 -->
<g id="edge33_Node000001_Node000030" class="edge">
<title>Node1&#45;&gt;Node30</title>
<g id="a_edge33_Node000001_Node000030"><a xlink:title=" ">
<path fill="none" stroke="#63b8ff" d="M2807.07,-445.32C2893.1,-430.36 3027.62,-406.97 3111.78,-392.34"/>
<polygon fill="#63b8ff" stroke="#63b8ff" points="2806.33,-441.89 2797.08,-447.05 2807.53,-448.79 2806.33,-441.89"/>
</a>
</g>
</g>
<!-- Node5 -->
<g id="Node000005" class="node">
<title>Node5</title>
<g id="a_Node000005"><a xlink:href="_boussinesq_bubble_8cpp.html" target="_top" xlink:title=" ">
<polygon fill="white" stroke="#666666" points="2640,-310.5 2471,-310.5 2471,-269.5 2640,-269.5 2640,-310.5"/>
<text text-anchor="start" x="2479" y="-298.5" font-family="Helvetica,sans-Serif" font-size="10.00">/home/runner/work/amr</text>
<text text-anchor="start" x="2479" y="-287.5" font-family="Helvetica,sans-Serif" font-size="10.00">&#45;wind/amr&#45;wind/amr&#45;wind</text>
<text text-anchor="middle" x="2555.5" y="-276.5" font-family="Helvetica,sans-Serif" font-size="10.00">/physics/BoussinesqBubble.cpp</text>
</a>
</g>
</g>
<!-- Node4&#45;&gt;Node5 -->
<g id="edge4_Node000004_Node000005" class="edge">
<title>Node4&#45;&gt;Node5</title>
<g id="a_edge4_Node000004_Node000005"><a xlink:title=" ">
<path fill="none" stroke="#63b8ff" d="M2634.07,-351.33C2617.14,-338.33 2596.9,-322.79 2581.2,-310.74"/>
<polygon fill="#63b8ff" stroke="#63b8ff" points="2632.02,-354.17 2642.09,-357.49 2636.29,-348.62 2632.02,-354.17"/>
</a>
</g>
</g>
<!-- Node6 -->
<g id="Node000006" class="node">
<title>Node6</title>
<g id="a_Node000006"><a xlink:href="_a_b_l_8_h.html" target="_top" xlink:title=" ">
<polygon fill="white" stroke="#666666" points="2170,-222.5 2027,-222.5 2027,-181.5 2170,-181.5 2170,-222.5"/>
<text text-anchor="start" x="2035" y="-210.5" font-family="Helvetica,sans-Serif" font-size="10.00">/home/runner/work/amr</text>
<text text-anchor="start" x="2035" y="-199.5" font-family="Helvetica,sans-Serif" font-size="10.00">&#45;wind/amr&#45;wind/amr&#45;wind</text>
<text text-anchor="middle" x="2098.5" y="-188.5" font-family="Helvetica,sans-Serif" font-size="10.00">/wind_energy/ABL.H</text>
</a>
</g>
</g>
<!-- Node4&#45;&gt;Node6 -->
<g id="edge5_Node000004_Node000006" class="edge">
<title>Node4&#45;&gt;Node6</title>
<g id="a_edge5_Node000004_Node000006"><a xlink:title=" ">
<path fill="none" stroke="#63b8ff" d="M2671.76,-347.44C2673.65,-321.62 2671.61,-285.08 2649.5,-264 2615.41,-231.5 2311.29,-213.04 2170.03,-206.15"/>
<polygon fill="#63b8ff" stroke="#63b8ff" points="2668.27,-347.13 2670.79,-357.43 2675.24,-347.81 2668.27,-347.13"/>
</a>
</g>
</g>
<!-- Node4&#45;&gt;Node25 -->
<g id="edge30_Node000004_Node000025" class="edge">
<title>Node4&#45;&gt;Node25</title>
<g id="a_edge30_Node000004_Node000025"><a xlink:title=" ">
<path fill="none" stroke="#63b8ff" d="M2673.02,-347.52C2683.24,-302.08 2709.77,-216 2769.5,-176 2853.78,-119.56 3124.38,-156.24 3224.5,-140 3233.68,-138.51 3243.26,-136.61 3252.7,-134.52"/>
<polygon fill="#63b8ff" stroke="#63b8ff" points="2669.59,-346.85 2670.92,-357.36 2676.43,-348.31 2669.59,-346.85"/>
</a>
</g>
</g>
<!-- Node26 -->
<g id="Node000026" class="node">
<title>Node26</title>
<g id="a_Node000026"><a xlink:href="_a_b_l_stats_8_h.html" target="_top" xlink:title=" ">
<polygon fill="white" stroke="#666666" points="2009,-222.5 1866,-222.5 1866,-181.5 2009,-181.5 2009,-222.5"/>
<text text-anchor="start" x="1874" y="-210.5" font-family="Helvetica,sans-Serif" font-size="10.00">/home/runner/work/amr</text>
<text text-anchor="start" x="1874" y="-199.5" font-family="Helvetica,sans-Serif" font-size="10.00">&#45;wind/amr&#45;wind/amr&#45;wind</text>
<text text-anchor="middle" x="1937.5" y="-188.5" font-family="Helvetica,sans-Serif" font-size="10.00">/wind_energy/ABLStats.H</text>
</a>
</g>
</g>
<!-- Node4&#45;&gt;Node26 -->
<g id="edge25_Node000004_Node000026" class="edge">
<title>Node4&#45;&gt;Node26</title>
<g id="a_edge25_Node000004_Node000026"><a xlink:title=" ">
<path fill="none" stroke="#63b8ff" d="M2588.16,-355.26C2582.21,-354.03 2576.28,-352.92 2570.5,-352 2446.7,-332.27 2115.03,-380.46 2007.5,-316 1972.47,-295 1952.41,-249.02 1943.38,-222.64"/>
<polygon fill="#63b8ff" stroke="#63b8ff" points="2587.64,-358.73 2598.16,-357.45 2589.13,-351.9 2587.64,-358.73"/>
</a>
</g>
</g>
<!-- Node28 -->
<g id="Node000028" class="node">
<title>Node28</title>
<g id="a_Node000028"><a xlink:href="_a_b_l_stats_base_8_h.html" target="_top" xlink:title=" ">
<polygon fill="white" stroke="#666666" points="2180,-310.5 2017,-310.5 2017,-269.5 2180,-269.5 2180,-310.5"/>
<text text-anchor="start" x="2025" y="-298.5" font-family="Helvetica,sans-Serif" font-size="10.00">/home/runner/work/amr</text>
<text text-anchor="start" x="2025" y="-287.5" font-family="Helvetica,sans-Serif" font-size="10.00">&#45;wind/amr&#45;wind/amr&#45;wind</text>
<text text-anchor="middle" x="2098.5" y="-276.5" font-family="Helvetica,sans-Serif" font-size="10.00">/wind_energy/ABLStatsBase.H</text>
</a>
</g>
</g>
<!-- Node4&#45;&gt;Node28 -->
<g id="edge27_Node000004_Node000028" class="edge">
<title>Node4&#45;&gt;Node28</title>
<g id="a_edge27_Node000004_Node000028"><a xlink:title=" ">
<path fill="none" stroke="#63b8ff" d="M2585.93,-355.21C2580.72,-354.05 2575.55,-352.97 2570.5,-352 2434.6,-325.81 2274.47,-307.78 2180,-298.44"/>
<polygon fill="#63b8ff" stroke="#63b8ff" points="2585.42,-358.68 2595.95,-357.5 2586.98,-351.86 2585.42,-358.68"/>
</a>
</g>
</g>
<!-- Node7 -->
<g id="Node000007" class="node">
<title>Node7</title>
<g id="a_Node000007"><a xlink:href="_c_f_d_sim_8cpp.html" target="_top" xlink:title=" ">
<polygon fill="white" stroke="#666666" points="3034,-134.5 2891,-134.5 2891,-93.5 3034,-93.5 3034,-134.5"/>
<text text-anchor="start" x="2899" y="-122.5" font-family="Helvetica,sans-Serif" font-size="10.00">/home/runner/work/amr</text>
<text text-anchor="start" x="2899" y="-111.5" font-family="Helvetica,sans-Serif" font-size="10.00">&#45;wind/amr&#45;wind/amr&#45;wind</text>
<text text-anchor="middle" x="2962.5" y="-100.5" font-family="Helvetica,sans-Serif" font-size="10.00">/CFDSim.cpp</text>
</a>
</g>
</g>
<!-- Node6&#45;&gt;Node7 -->
<g id="edge6_Node000006_Node000007" class="edge">
<title>Node6&#45;&gt;Node7</title>
<g id="a_edge6_Node000006_Node000007"><a xlink:title=" ">
<path fill="none" stroke="#63b8ff" d="M2180.22,-200.57C2323.52,-198.49 2628.9,-188.2 2881.5,-140 2889.02,-138.57 2896.82,-136.68 2904.49,-134.59"/>
<polygon fill="#63b8ff" stroke="#63b8ff" points="2180.14,-197.07 2170.19,-200.7 2180.23,-204.07 2180.14,-197.07"/>
</a>
</g>
</g>
<!-- Node8 -->
<g id="Node000008" class="node">
<title>Node8</title>
<g id="a_Node000008"><a xlink:href="_a_b_l_forcing_8cpp.html" target="_top" xlink:title=" ">
<polygon fill="white" stroke="#666666" points="3215,-140 3052,-140 3052,-88 3215,-88 3215,-140"/>
<text text-anchor="start" x="3060" y="-128" font-family="Helvetica,sans-Serif" font-size="10.00">/home/runner/work/amr</text>
<text text-anchor="start" x="3060" y="-117" font-family="Helvetica,sans-Serif" font-size="10.00">&#45;wind/amr&#45;wind/amr&#45;wind</text>
<text text-anchor="start" x="3060" y="-106" font-family="Helvetica,sans-Serif" font-size="10.00">/equation_systems/icns</text>
<text text-anchor="middle" x="3133.5" y="-95" font-family="Helvetica,sans-Serif" font-size="10.00">/source_terms/ABLForcing.cpp</text>
</a>
</g>
</g>
<!-- Node6&#45;&gt;Node8 -->
<g id="edge7_Node000006_Node000008" class="edge">
<title>Node6&#45;&gt;Node8</title>
<g id="a_edge7_Node000006_Node000008"><a xlink:title=" ">
<path fill="none" stroke="#63b8ff" d="M2180.37,-197.89C2378.29,-190.02 2878.5,-167.93 3043.5,-140 3046.22,-139.54 3048.97,-139.03 3051.75,-138.48"/>
<polygon fill="#63b8ff" stroke="#63b8ff" points="2180.18,-194.39 2170.33,-198.29 2180.46,-201.39 2180.18,-194.39"/>
</a>
</g>
</g>
<!-- Node9 -->
<g id="Node000009" class="node">
<title>Node9</title>
<g id="a_Node000009"><a xlink:href="_a_b_l_mean_boussinesq_8cpp.html" target="_top" xlink:title=" ">
<polygon fill="white" stroke="#666666" points="377.5,-140 167.5,-140 167.5,-88 377.5,-88 377.5,-140"/>
<text text-anchor="start" x="175.5" y="-128" font-family="Helvetica,sans-Serif" font-size="10.00">/home/runner/work/amr</text>
<text text-anchor="start" x="175.5" y="-117" font-family="Helvetica,sans-Serif" font-size="10.00">&#45;wind/amr&#45;wind/amr&#45;wind</text>
<text text-anchor="start" x="175.5" y="-106" font-family="Helvetica,sans-Serif" font-size="10.00">/equation_systems/icns</text>
<text text-anchor="middle" x="272.5" y="-95" font-family="Helvetica,sans-Serif" font-size="10.00">/source_terms/ABLMeanBoussinesq.cpp</text>
</a>
</g>
</g>
<!-- Node6&#45;&gt;Node9 -->
<g id="edge8_Node000006_Node000009" class="edge">
<title>Node6&#45;&gt;Node9</title>
<g id="a_edge8_Node000006_Node000009"><a xlink:title=" ">
<path fill="none" stroke="#63b8ff" d="M2032.61,-179.03C2027.53,-177.84 2022.46,-176.8 2017.5,-176 1659.64,-117.99 746.47,-183.03 386.5,-140 383.58,-139.65 380.63,-139.26 377.66,-138.84"/>
<polygon fill="#63b8ff" stroke="#63b8ff" points="2031.78,-182.43 2042.33,-181.48 2033.49,-175.64 2031.78,-182.43"/>
</a>
</g>
</g>
<!-- Node10 -->
<g id="Node000010" class="node">
<title>Node10</title>
<g id="a_Node000010"><a xlink:href="_a_b_l_meso_forcing_mom_8cpp.html" target="_top" xlink:title=" ">
<polygon fill="white" stroke="#666666" points="609.5,-140 395.5,-140 395.5,-88 609.5,-88 609.5,-140"/>
<text text-anchor="start" x="403.5" y="-128" font-family="Helvetica,sans-Serif" font-size="10.00">/home/runner/work/amr</text>
<text text-anchor="start" x="403.5" y="-117" font-family="Helvetica,sans-Serif" font-size="10.00">&#45;wind/amr&#45;wind/amr&#45;wind</text>
<text text-anchor="start" x="403.5" y="-106" font-family="Helvetica,sans-Serif" font-size="10.00">/equation_systems/icns</text>
<text text-anchor="middle" x="502.5" y="-95" font-family="Helvetica,sans-Serif" font-size="10.00">/source_terms/ABLMesoForcingMom.cpp</text>
</a>
</g>
</g>
<!-- Node6&#45;&gt;Node10 -->
<g id="edge9_Node000006_Node000010" class="edge">
<title>Node6&#45;&gt;Node10</title>
<g id="a_edge9_Node000006_Node000010"><a xlink:title=" ">
<path fill="none" stroke="#63b8ff" d="M2031.95,-178.89C2027.09,-177.76 2022.24,-176.78 2017.5,-176 1710.39,-125.64 926.48,-177.22 617.5,-140 614.86,-139.68 612.2,-139.33 609.51,-138.95"/>
<polygon fill="#63b8ff" stroke="#63b8ff" points="2031.33,-182.35 2041.88,-181.39 2033.04,-175.56 2031.33,-182.35"/>
</a>
</g>
</g>
<!-- Node11 -->
<g id="Node000011" class="node">
<title>Node11</title>
<g id="a_Node000011"><a xlink:href="_drag_forcing_8cpp.html" target="_top" xlink:title=" ">
<polygon fill="white" stroke="#666666" points="794,-140 627,-140 627,-88 794,-88 794,-140"/>
<text text-anchor="start" x="635" y="-128" font-family="Helvetica,sans-Serif" font-size="10.00">/home/runner/work/amr</text>
<text text-anchor="start" x="635" y="-117" font-family="Helvetica,sans-Serif" font-size="10.00">&#45;wind/amr&#45;wind/amr&#45;wind</text>
<text text-anchor="start" x="635" y="-106" font-family="Helvetica,sans-Serif" font-size="10.00">/equation_systems/icns</text>
<text text-anchor="middle" x="710.5" y="-95" font-family="Helvetica,sans-Serif" font-size="10.00">/source_terms/DragForcing.cpp</text>
</a>
</g>
</g>
<!-- Node6&#45;&gt;Node11 -->
<g id="edge10_Node000006_Node000011" class="edge">
<title>Node6&#45;&gt;Node11</title>
<g id="a_edge10_Node000006_Node000011"><a xlink:title=" ">
<path fill="none" stroke="#63b8ff" d="M2031.94,-178.91C2027.09,-177.78 2022.24,-176.79 2017.5,-176 1484.99,-87.6 1337.54,-218.6 803.5,-140 800.44,-139.55 797.34,-139.03 794.21,-138.46"/>
<polygon fill="#63b8ff" stroke="#63b8ff" points="2031.33,-182.37 2041.88,-181.42 2033.04,-175.58 2031.33,-182.37"/>
</a>
</g>
</g>
<!-- Node12 -->
<g id="Node000012" class="node">
<title>Node12</title>
<g id="a_Node000012"><a xlink:href="_forest_forcing_8cpp.html" target="_top" xlink:title=" ">
<polygon fill="white" stroke="#666666" points="986.5,-140 812.5,-140 812.5,-88 986.5,-88 986.5,-140"/>
<text text-anchor="start" x="820.5" y="-128" font-family="Helvetica,sans-Serif" font-size="10.00">/home/runner/work/amr</text>
<text text-anchor="start" x="820.5" y="-117" font-family="Helvetica,sans-Serif" font-size="10.00">&#45;wind/amr&#45;wind/amr&#45;wind</text>
<text text-anchor="start" x="820.5" y="-106" font-family="Helvetica,sans-Serif" font-size="10.00">/equation_systems/icns</text>
<text text-anchor="middle" x="899.5" y="-95" font-family="Helvetica,sans-Serif" font-size="10.00">/source_terms/ForestForcing.cpp</text>
</a>
</g>
</g>
<!-- Node6&#45;&gt;Node12 -->
<g id="edge11_Node000006_Node000012" class="edge">
<title>Node6&#45;&gt;Node12</title>
<g id="a_edge11_Node000006_Node000012"><a xlink:title=" ">
<path fill="none" stroke="#63b8ff" d="M2031.94,-178.94C2027.09,-177.8 2022.24,-176.8 2017.5,-176 1569.34,-100.32 1445.24,-205.67 995.5,-140 992.6,-139.58 989.67,-139.1 986.71,-138.58"/>
<polygon fill="#63b8ff" stroke="#63b8ff" points="2031.32,-182.4 2041.87,-181.46 2033.04,-175.61 2031.32,-182.4"/>
</a>
</g>
</g>
<!-- Node13 -->
<g id="Node000013" class="node">
<title>Node13</title>
<g id="a_Node000013"><a xlink:href="_hurricane_forcing_8cpp.html" target="_top" xlink:title=" ">
<polygon fill="white" stroke="#666666" points="1196,-140 1005,-140 1005,-88 1196,-88 1196,-140"/>
<text text-anchor="start" x="1013" y="-128" font-family="Helvetica,sans-Serif" font-size="10.00">/home/runner/work/amr</text>
<text text-anchor="start" x="1013" y="-117" font-family="Helvetica,sans-Serif" font-size="10.00">&#45;wind/amr&#45;wind/amr&#45;wind</text>
<text text-anchor="start" x="1013" y="-106" font-family="Helvetica,sans-Serif" font-size="10.00">/equation_systems/icns</text>
<text text-anchor="middle" x="1100.5" y="-95" font-family="Helvetica,sans-Serif" font-size="10.00">/source_terms/HurricaneForcing.cpp</text>
</a>
</g>
</g>
<!-- Node6&#45;&gt;Node13 -->
<g id="edge12_Node000006_Node000013" class="edge">
<title>Node6&#45;&gt;Node13</title>
<g id="a_edge12_Node000006_Node000013"><a xlink:title=" ">
<path fill="none" stroke="#63b8ff" d="M2031.67,-178.93C2026.9,-177.8 2022.15,-176.81 2017.5,-176 1661.14,-114.16 1562.64,-190.5 1204.5,-140 1201.74,-139.61 1198.95,-139.18 1196.14,-138.72"/>
<polygon fill="#63b8ff" stroke="#63b8ff" points="2030.86,-182.34 2041.42,-181.41 2032.59,-175.55 2030.86,-182.34"/>
</a>
</g>
</g>
<!-- Node14 -->
<g id="Node000014" class="node">
<title>Node14</title>
<g id="a_Node000014"><a xlink:href="_a_b_l_meso_forcing_temp_8cpp.html" target="_top" xlink:title=" ">
<polygon fill="white" stroke="#666666" points="1429,-140 1214,-140 1214,-88 1429,-88 1429,-140"/>
<text text-anchor="start" x="1222" y="-128" font-family="Helvetica,sans-Serif" font-size="10.00">/home/runner/work/amr</text>
<text text-anchor="start" x="1222" y="-117" font-family="Helvetica,sans-Serif" font-size="10.00">&#45;wind/amr&#45;wind/amr&#45;wind</text>
<text text-anchor="start" x="1222" y="-106" font-family="Helvetica,sans-Serif" font-size="10.00">/equation_systems/temperature</text>
<text text-anchor="middle" x="1321.5" y="-95" font-family="Helvetica,sans-Serif" font-size="10.00">/source_terms/ABLMesoForcingTemp.cpp</text>
</a>
</g>
</g>
<!-- Node6&#45;&gt;Node14 -->
<g id="edge13_Node000006_Node000014" class="edge">
<title>Node6&#45;&gt;Node14</title>
<g id="a_edge13_Node000006_Node000014"><a xlink:title=" ">
<path fill="none" stroke="#63b8ff" d="M2031.02,-178.87C2026.47,-177.79 2021.94,-176.81 2017.5,-176 1763.87,-129.66 1693.94,-175.03 1438.5,-140 1435.41,-139.58 1432.29,-139.12 1429.14,-138.63"/>
<polygon fill="#63b8ff" stroke="#63b8ff" points="2030.4,-182.33 2040.95,-181.42 2032.13,-175.55 2030.4,-182.33"/>
</a>
</g>
</g>
<!-- Node15 -->
<g id="Node000015" class="node">
<title>Node15</title>
<g id="a_Node000015"><a xlink:href="_hurricane_temp_forcing_8cpp.html" target="_top" xlink:title=" ">
<polygon fill="white" stroke="#666666" points="1665.5,-140 1447.5,-140 1447.5,-88 1665.5,-88 1665.5,-140"/>
<text text-anchor="start" x="1455.5" y="-128" font-family="Helvetica,sans-Serif" font-size="10.00">/home/runner/work/amr</text>
<text text-anchor="start" x="1455.5" y="-117" font-family="Helvetica,sans-Serif" font-size="10.00">&#45;wind/amr&#45;wind/amr&#45;wind</text>
<text text-anchor="start" x="1455.5" y="-106" font-family="Helvetica,sans-Serif" font-size="10.00">/equation_systems/temperature</text>
<text text-anchor="middle" x="1556.5" y="-95" font-family="Helvetica,sans-Serif" font-size="10.00">/source_terms/HurricaneTempForcing.cpp</text>
</a>
</g>
</g>
<!-- Node6&#45;&gt;Node15 -->
<g id="edge14_Node000006_Node000015" class="edge">
<title>Node6&#45;&gt;Node15</title>
<g id="a_edge14_Node000006_Node000015"><a xlink:title=" ">
<path fill="none" stroke="#63b8ff" d="M2030.11,-178.87C2025.86,-177.82 2021.64,-176.85 2017.5,-176 1867.33,-145.25 1825.9,-163.92 1674.5,-140 1671.6,-139.54 1668.67,-139.06 1665.72,-138.56"/>
<polygon fill="#63b8ff" stroke="#63b8ff" points="2029.45,-182.32 2040.01,-181.48 2031.23,-175.55 2029.45,-182.32"/>
</a>
</g>
</g>
<!-- Node16 -->
<g id="Node000016" class="node">
<title>Node16</title>
<g id="a_Node000016"><a xlink:href="helics_8cpp.html" target="_top" xlink:title=" ">
<polygon fill="white" stroke="#666666" points="1827,-134.5 1684,-134.5 1684,-93.5 1827,-93.5 1827,-134.5"/>
<text text-anchor="start" x="1692" y="-122.5" font-family="Helvetica,sans-Serif" font-size="10.00">/home/runner/work/amr</text>
<text text-anchor="start" x="1692" y="-111.5" font-family="Helvetica,sans-Serif" font-size="10.00">&#45;wind/amr&#45;wind/amr&#45;wind</text>
<text text-anchor="middle" x="1755.5" y="-100.5" font-family="Helvetica,sans-Serif" font-size="10.00">/helics.cpp</text>
</a>
</g>
</g>
<!-- Node6&#45;&gt;Node16 -->
<g id="edge15_Node000006_Node000016" class="edge">
<title>Node6&#45;&gt;Node16</title>
<g id="a_edge15_Node000006_Node000016"><a xlink:title=" ">
<path fill="none" stroke="#63b8ff" d="M2027.82,-178.71C2024.34,-177.77 2020.88,-176.85 2017.5,-176 1937.55,-155.81 1915.41,-160.33 1835.5,-140 1829.01,-138.35 1822.27,-136.49 1815.58,-134.54"/>
<polygon fill="#63b8ff" stroke="#63b8ff" points="2027.08,-182.14 2037.66,-181.48 2028.97,-175.4 2027.08,-182.14"/>
</a>
</g>
</g>
<!-- Node17 -->
<g id="Node000017" class="node">
<title>Node17</title>
<g id="a_Node000017"><a xlink:href="incflo_8cpp.html" target="_top" xlink:title=" ">
<polygon fill="white" stroke="#666666" points="1988,-134.5 1845,-134.5 1845,-93.5 1988,-93.5 1988,-134.5"/>
<text text-anchor="start" x="1853" y="-122.5" font-family="Helvetica,sans-Serif" font-size="10.00">/home/runner/work/amr</text>
<text text-anchor="start" x="1853" y="-111.5" font-family="Helvetica,sans-Serif" font-size="10.00">&#45;wind/amr&#45;wind/amr&#45;wind</text>
<text text-anchor="middle" x="1916.5" y="-100.5" font-family="Helvetica,sans-Serif" font-size="10.00">/incflo.cpp</text>
</a>
</g>
</g>
<!-- Node6&#45;&gt;Node17 -->
<g id="edge16_Node000006_Node000017" class="edge">
<title>Node6&#45;&gt;Node17</title>
<g id="a_edge16_Node000006_Node000017"><a xlink:title=" ">
<path fill="none" stroke="#63b8ff" d="M2047.86,-177.07C2019.53,-163.68 1984.65,-147.2 1957.95,-134.59"/>
<polygon fill="#63b8ff" stroke="#63b8ff" points="2046.66,-180.38 2057.2,-181.49 2049.66,-174.05 2046.66,-180.38"/>
</a>
</g>
</g>
<!-- Node18 -->
<g id="Node000018" class="node">
<title>Node18</title>
<g id="a_Node000018"><a xlink:href="nodal__projection__ops_8_h.html" target="_top" xlink:title=" ">
<polygon fill="white" stroke="#666666" points="2191,-134.5 2006,-134.5 2006,-93.5 2191,-93.5 2191,-134.5"/>
<text text-anchor="start" x="2014" y="-122.5" font-family="Helvetica,sans-Serif" font-size="10.00">/home/runner/work/amr</text>
<text text-anchor="start" x="2014" y="-111.5" font-family="Helvetica,sans-Serif" font-size="10.00">&#45;wind/amr&#45;wind/amr&#45;wind</text>
<text text-anchor="middle" x="2098.5" y="-100.5" font-family="Helvetica,sans-Serif" font-size="10.00">/projection/nodal_projection_ops.H</text>
</a>
</g>
</g>
<!-- Node6&#45;&gt;Node18 -->
<g id="edge17_Node000006_Node000018" class="edge">
<title>Node6&#45;&gt;Node18</title>
<g id="a_edge17_Node000006_Node000018"><a xlink:title=" ">
<path fill="none" stroke="#63b8ff" d="M2098.5,-171.36C2098.5,-159.26 2098.5,-145.58 2098.5,-134.74"/>
<polygon fill="#63b8ff" stroke="#63b8ff" points="2095,-171.49 2098.5,-181.49 2102,-171.49 2095,-171.49"/>
</a>
</g>
</g>
<!-- Node21 -->
<g id="Node000021" class="node">
<title>Node21</title>
<g id="a_Node000021"><a xlink:href="init_8cpp.html" target="_top" xlink:title=" ">
<polygon fill="white" stroke="#666666" points="2352,-134.5 2209,-134.5 2209,-93.5 2352,-93.5 2352,-134.5"/>
<text text-anchor="start" x="2217" y="-122.5" font-family="Helvetica,sans-Serif" font-size="10.00">/home/runner/work/amr</text>
<text text-anchor="start" x="2217" y="-111.5" font-family="Helvetica,sans-Serif" font-size="10.00">&#45;wind/amr&#45;wind/amr&#45;wind</text>
<text text-anchor="middle" x="2280.5" y="-100.5" font-family="Helvetica,sans-Serif" font-size="10.00">/setup/init.cpp</text>
</a>
</g>
</g>
<!-- Node6&#45;&gt;Node21 -->
<g id="edge20_Node000006_Node000021" class="edge">
<title>Node6&#45;&gt;Node21</title>
<g id="a_edge20_Node000006_Node000021"><a xlink:title=" ">
<path fill="none" stroke="#63b8ff" d="M2149.14,-177.07C2177.47,-163.68 2212.35,-147.2 2239.05,-134.59"/>
<polygon fill="#63b8ff" stroke="#63b8ff" points="2147.34,-174.05 2139.8,-181.49 2150.34,-180.38 2147.34,-174.05"/>
</a>
</g>
</g>
<!-- Node22 -->
<g id="Node000022" class="node">
<title>Node22</title>
<g id="a_Node000022"><a xlink:href="_kosovic_8cpp.html" target="_top" xlink:title=" ">
<polygon fill="white" stroke="#666666" points="2522.5,-134.5 2370.5,-134.5 2370.5,-93.5 2522.5,-93.5 2522.5,-134.5"/>
<text text-anchor="start" x="2378.5" y="-122.5" font-family="Helvetica,sans-Serif" font-size="10.00">/home/runner/work/amr</text>
<text text-anchor="start" x="2378.5" y="-111.5" font-family="Helvetica,sans-Serif" font-size="10.00">&#45;wind/amr&#45;wind/amr&#45;wind</text>
<text text-anchor="middle" x="2446.5" y="-100.5" font-family="Helvetica,sans-Serif" font-size="10.00">/turbulence/LES/Kosovic.cpp</text>
</a>
</g>
</g>
<!-- Node6&#45;&gt;Node22 -->
<g id="edge21_Node000006_Node000022" class="edge">
<title>Node6&#45;&gt;Node22</title>
<g id="a_edge21_Node000006_Node000022"><a xlink:title=" ">
<path fill="none" stroke="#63b8ff" d="M2180.07,-183.36C2232.16,-171.79 2301.03,-155.89 2361.5,-140 2367.9,-138.32 2374.54,-136.5 2381.17,-134.63"/>
<polygon fill="#63b8ff" stroke="#63b8ff" points="2179.22,-179.97 2170.22,-185.55 2180.74,-186.8 2179.22,-179.97"/>
</a>
</g>
</g>
<!-- Node23 -->
<g id="Node000023" class="node">
<title>Node23</title>
<g id="a_Node000023"><a xlink:href="_a_b_l_8cpp.html" target="_top" xlink:title=" ">
<polygon fill="white" stroke="#666666" points="2684,-134.5 2541,-134.5 2541,-93.5 2684,-93.5 2684,-134.5"/>
<text text-anchor="start" x="2549" y="-122.5" font-family="Helvetica,sans-Serif" font-size="10.00">/home/runner/work/amr</text>
<text text-anchor="start" x="2549" y="-111.5" font-family="Helvetica,sans-Serif" font-size="10.00">&#45;wind/amr&#45;wind/amr&#45;wind</text>
<text text-anchor="middle" x="2612.5" y="-100.5" font-family="Helvetica,sans-Serif" font-size="10.00">/wind_energy/ABL.cpp</text>
</a>
</g>
</g>
<!-- Node6&#45;&gt;Node23 -->
<g id="edge22_Node000006_Node000023" class="edge">
<title>Node6&#45;&gt;Node23</title>
<g id="a_edge22_Node000006_Node000023"><a xlink:title=" ">
<path fill="none" stroke="#63b8ff" d="M2180.14,-193.42C2267.71,-184.38 2410.52,-167.01 2531.5,-140 2538.54,-138.43 2545.85,-136.54 2553.07,-134.52"/>
<polygon fill="#63b8ff" stroke="#63b8ff" points="2179.6,-189.96 2170,-194.46 2180.31,-196.92 2179.6,-189.96"/>
</a>
</g>
</g>
<!-- Node24 -->
<g id="Node000024" class="node">
<title>Node24</title>
<g id="a_Node000024"><a xlink:href="_a_b_l_anelastic_8cpp.html" target="_top" xlink:title=" ">
<polygon fill="white" stroke="#666666" points="2872.5,-134.5 2702.5,-134.5 2702.5,-93.5 2872.5,-93.5 2872.5,-134.5"/>
<text text-anchor="start" x="2710.5" y="-122.5" font-family="Helvetica,sans-Serif" font-size="10.00">/home/runner/work/amr</text>
<text text-anchor="start" x="2710.5" y="-111.5" font-family="Helvetica,sans-Serif" font-size="10.00">&#45;wind/amr&#45;wind/amr&#45;wind</text>
<text text-anchor="middle" x="2787.5" y="-100.5" font-family="Helvetica,sans-Serif" font-size="10.00">/wind_energy/ABLAnelastic.cpp</text>
</a>
</g>
</g>
<!-- Node6&#45;&gt;Node24 -->
<g id="edge23_Node000006_Node000024" class="edge">
<title>Node6&#45;&gt;Node24</title>
<g id="a_edge23_Node000006_Node000024"><a xlink:title=" ">
<path fill="none" stroke="#63b8ff" d="M2180.62,-196.69C2295.93,-189.71 2512.05,-173.21 2693.5,-140 2701.81,-138.48 2710.45,-136.6 2718.99,-134.56"/>
<polygon fill="#63b8ff" stroke="#63b8ff" points="2180.23,-193.21 2170.45,-197.3 2180.65,-200.19 2180.23,-193.21"/>
</a>
</g>
</g>
<!-- Node6&#45;&gt;Node25 -->
<g id="edge24_Node000006_Node000025" class="edge">
<title>Node6&#45;&gt;Node25</title>
<g id="a_edge24_Node000006_Node000025"><a xlink:title=" ">
<path fill="none" stroke="#63b8ff" d="M2180.43,-197.46C2422.23,-186.87 3122.26,-155.28 3224.5,-140 3233.97,-138.58 3243.85,-136.68 3253.56,-134.56"/>
<polygon fill="#63b8ff" stroke="#63b8ff" points="2180.14,-193.97 2170.3,-197.9 2180.44,-200.96 2180.14,-193.97"/>
</a>
</g>
</g>
<!-- Node19 -->
<g id="Node000019" class="node">
<title>Node19</title>
<g id="a_Node000019"><a xlink:href="_overset_ops_8cpp.html" target="_top" xlink:title=" ">
<polygon fill="white" stroke="#666666" points="2089,-46.5 1946,-46.5 1946,-5.5 2089,-5.5 2089,-46.5"/>
<text text-anchor="start" x="1954" y="-34.5" font-family="Helvetica,sans-Serif" font-size="10.00">/home/runner/work/amr</text>
<text text-anchor="start" x="1954" y="-23.5" font-family="Helvetica,sans-Serif" font-size="10.00">&#45;wind/amr&#45;wind/amr&#45;wind</text>
<text text-anchor="middle" x="2017.5" y="-12.5" font-family="Helvetica,sans-Serif" font-size="10.00">/overset/OversetOps.cpp</text>
</a>
</g>
</g>
<!-- Node18&#45;&gt;Node19 -->
<g id="edge18_Node000018_Node000019" class="edge">
<title>Node18&#45;&gt;Node19</title>
<g id="a_edge18_Node000018_Node000019"><a xlink:title=" ">
<path fill="none" stroke="#63b8ff" d="M2072.98,-85.9C2061.02,-73.2 2047.03,-58.35 2036.09,-46.74"/>
<polygon fill="#63b8ff" stroke="#63b8ff" points="2070.72,-88.61 2080.12,-93.49 2075.81,-83.81 2070.72,-88.61"/>
</a>
</g>
</g>
<!-- Node20 -->
<g id="Node000020" class="node">
<title>Node20</title>
<g id="a_Node000020"><a xlink:href="incflo__apply__nodal__projection_8cpp.html" target="_top" xlink:title=" ">
<polygon fill="white" stroke="#666666" points="2250,-52 2107,-52 2107,0 2250,0 2250,-52"/>
<text text-anchor="start" x="2115" y="-40" font-family="Helvetica,sans-Serif" font-size="10.00">/home/runner/work/amr</text>
<text text-anchor="start" x="2115" y="-29" font-family="Helvetica,sans-Serif" font-size="10.00">&#45;wind/amr&#45;wind/amr&#45;wind</text>
<text text-anchor="start" x="2115" y="-18" font-family="Helvetica,sans-Serif" font-size="10.00">/projection/incflo_apply</text>
<text text-anchor="middle" x="2178.5" y="-7" font-family="Helvetica,sans-Serif" font-size="10.00">_nodal_projection.cpp</text>
</a>
</g>
</g>
<!-- Node18&#45;&gt;Node20 -->
<g id="edge19_Node000018_Node000020" class="edge">
<title>Node18&#45;&gt;Node20</title>
<g id="a_edge19_Node000018_Node000020"><a xlink:title=" ">
<path fill="none" stroke="#63b8ff" d="M2123.64,-85.97C2133.65,-75.21 2145.1,-62.9 2154.95,-52.32"/>
<polygon fill="#63b8ff" stroke="#63b8ff" points="2120.9,-83.78 2116.65,-93.49 2126.03,-88.55 2120.9,-83.78"/>
</a>
</g>
</g>
<!-- Node27 -->
<g id="Node000027" class="node">
<title>Node27</title>
<g id="a_Node000027"><a xlink:href="_a_b_l_stats_8cpp.html" target="_top" xlink:title=" ">
<polygon fill="white" stroke="#666666" points="149,-134.5 0,-134.5 0,-93.5 149,-93.5 149,-134.5"/>
<text text-anchor="start" x="8" y="-122.5" font-family="Helvetica,sans-Serif" font-size="10.00">/home/runner/work/amr</text>
<text text-anchor="start" x="8" y="-111.5" font-family="Helvetica,sans-Serif" font-size="10.00">&#45;wind/amr&#45;wind/amr&#45;wind</text>
<text text-anchor="middle" x="74.5" y="-100.5" font-family="Helvetica,sans-Serif" font-size="10.00">/wind_energy/ABLStats.cpp</text>
</a>
</g>
</g>
<!-- Node26&#45;&gt;Node27 -->
<g id="edge26_Node000026_Node000027" class="edge">
<title>Node26&#45;&gt;Node27</title>
<g id="a_edge26_Node000026_Node000027"><a xlink:title=" ">
<path fill="none" stroke="#63b8ff" d="M1855.69,-200.96C1552.28,-200.37 491.74,-194.38 158.5,-140 150.24,-138.65 141.65,-136.73 133.26,-134.54"/>
<polygon fill="#63b8ff" stroke="#63b8ff" points="1855.73,-204.46 1865.73,-200.98 1855.74,-197.46 1855.73,-204.46"/>
</a>
</g>
</g>
<!-- Node28&#45;&gt;Node6 -->
<g id="edge28_Node000028_Node000006" class="edge">
<title>Node28&#45;&gt;Node6</title>
<g id="a_edge28_Node000028_Node000006"><a xlink:title=" ">
<path fill="none" stroke="#63b8ff" d="M2098.5,-259.36C2098.5,-247.26 2098.5,-233.58 2098.5,-222.74"/>
<polygon fill="#63b8ff" stroke="#63b8ff" points="2095,-259.49 2098.5,-269.49 2102,-259.49 2095,-259.49"/>
</a>
</g>
</g>
<!-- Node28&#45;&gt;Node26 -->
<g id="edge29_Node000028_Node000026" class="edge">
<title>Node28&#45;&gt;Node26</title>
<g id="a_edge29_Node000028_Node000026"><a xlink:title=" ">
<path fill="none" stroke="#63b8ff" d="M2053.05,-264.72C2028.11,-251.4 1997.58,-235.09 1974.17,-222.59"/>
<polygon fill="#63b8ff" stroke="#63b8ff" points="2051.5,-267.86 2061.97,-269.49 2054.8,-261.69 2051.5,-267.86"/>
</a>
</g>
</g>
<!-- Node30&#45;&gt;Node25 -->
<g id="edge36_Node000030_Node000025" class="edge">
<title>Node30&#45;&gt;Node25</title>
<g id="a_edge36_Node000030_Node000025"><a xlink:title=" ">
<path fill="none" stroke="#63b8ff" d="M3185.09,-347.15C3181.89,-305.14 3181.97,-227.93 3217.5,-176 3230.08,-157.6 3250.15,-144.11 3269.58,-134.57"/>
<polygon fill="#63b8ff" stroke="#63b8ff" points="3181.62,-347.62 3185.98,-357.28 3188.59,-347.01 3181.62,-347.62"/>
</a>
</g>
</g>
<!-- Node31 -->
<g id="Node000031" class="node">
<title>Node31</title>
<g id="a_Node000031"><a xlink:href="_shear_stress_simple_8_h.html" target="_top" xlink:title=" ">
<polygon fill="white" stroke="#666666" points="3380,-316 3217,-316 3217,-264 3380,-264 3380,-316"/>
<text text-anchor="start" x="3225" y="-304" font-family="Helvetica,sans-Serif" font-size="10.00">/home/runner/work/amr</text>
<text text-anchor="start" x="3225" y="-293" font-family="Helvetica,sans-Serif" font-size="10.00">&#45;wind/amr&#45;wind/amr&#45;wind</text>
<text text-anchor="start" x="3225" y="-282" font-family="Helvetica,sans-Serif" font-size="10.00">/boundary_conditions/wall</text>
<text text-anchor="middle" x="3298.5" y="-271" font-family="Helvetica,sans-Serif" font-size="10.00">_models/ShearStressSimple.H</text>
</a>
</g>
</g>
<!-- Node30&#45;&gt;Node31 -->
<g id="edge34_Node000030_Node000031" class="edge">
<title>Node30&#45;&gt;Node31</title>
<g id="a_edge34_Node000030_Node000031"><a xlink:title=" ">
<path fill="none" stroke="#63b8ff" d="M3221.48,-351.22C3235.6,-340.17 3252.05,-327.31 3266.12,-316.32"/>
<polygon fill="#63b8ff" stroke="#63b8ff" points="3219.18,-348.57 3213.46,-357.49 3223.49,-354.08 3219.18,-348.57"/>
</a>
</g>
</g>
<!-- Node32 -->
<g id="Node000032" class="node">
<title>Node32</title>
<g id="a_Node000032"><a xlink:href="_wall_function_8cpp.html" target="_top" xlink:title=" ">
<polygon fill="white" stroke="#666666" points="3370.5,-228 3226.5,-228 3226.5,-176 3370.5,-176 3370.5,-228"/>
<text text-anchor="start" x="3234.5" y="-216" font-family="Helvetica,sans-Serif" font-size="10.00">/home/runner/work/amr</text>
<text text-anchor="start" x="3234.5" y="-205" font-family="Helvetica,sans-Serif" font-size="10.00">&#45;wind/amr&#45;wind/amr&#45;wind</text>
<text text-anchor="start" x="3234.5" y="-194" font-family="Helvetica,sans-Serif" font-size="10.00">/boundary_conditions/wall</text>
<text text-anchor="middle" x="3298.5" y="-183" font-family="Helvetica,sans-Serif" font-size="10.00">_models/WallFunction.cpp</text>
</a>
</g>
</g>
<!-- Node31&#45;&gt;Node32 -->
<g id="edge35_Node000031_Node000032" class="edge">
<title>Node31&#45;&gt;Node32</title>
<g id="a_edge35_Node000031_Node000032"><a xlink:title=" ">
<path fill="none" stroke="#63b8ff" d="M3298.5,-253.56C3298.5,-245.04 3298.5,-236.1 3298.5,-228.16"/>
<polygon fill="#63b8ff" stroke="#63b8ff" points="3295,-253.66 3298.5,-263.66 3302,-253.66 3295,-253.66"/>
</a>
</g>
</g>
</g>
</svg>
