<?xml version="1.0" encoding="UTF-8" standalone="no"?>
<!DOCTYPE svg PUBLIC "-//W3C//DTD SVG 1.1//EN"
 "http://www.w3.org/Graphics/SVG/1.1/DTD/svg11.dtd">
<!-- Generated by graphviz version 2.43.0 (0)
 -->
<!-- Title: /home/runner/work/amr&#45;wind/amr&#45;wind/amr&#45;wind/ocean_waves/OceanWaves.H Pages: 1 -->
<svg width="1016pt" height="225pt"
 viewBox="0.00 0.00 1015.50 225.00" xmlns="http://www.w3.org/2000/svg" xmlns:xlink="http://www.w3.org/1999/xlink">
<g id="graph0" class="graph" transform="scale(1 1) rotate(0) translate(4 221)">
<title>/home/runner/work/amr&#45;wind/amr&#45;wind/amr&#45;wind/ocean_waves/OceanWaves.H</title>
<!-- Node1 -->
<g id="Node000001" class="node">
<title>Node1</title>
<g id="a_Node000001"><a xlink:title=" ">
<polygon fill="#999999" stroke="#666666" points="518,-217 356,-217 356,-176 518,-176 518,-217"/>
<text text-anchor="start" x="364" y="-205" font-family="Helvetica,sans-Serif" font-size="10.00">/home/runner/work/amr</text>
<text text-anchor="start" x="364" y="-194" font-family="Helvetica,sans-Serif" font-size="10.00">&#45;wind/amr&#45;wind/amr&#45;wind</text>
<text text-anchor="middle" x="437" y="-183" font-family="Helvetica,sans-Serif" font-size="10.00">/ocean_waves/OceanWaves.H</text>
</a>
</g>
</g>
<!-- Node2 -->
<g id="Node000002" class="node">
<title>Node2</title>
<g id="a_Node000002"><a xlink:href="_ocean_waves_8cpp.html" target="_top" xlink:title=" ">
<polygon fill="white" stroke="#666666" points="172,-134.5 0,-134.5 0,-93.5 172,-93.5 172,-134.5"/>
<text text-anchor="start" x="8" y="-122.5" font-family="Helvetica,sans-Serif" font-size="10.00">/home/runner/work/amr</text>
<text text-anchor="start" x="8" y="-111.5" font-family="Helvetica,sans-Serif" font-size="10.00">&#45;wind/amr&#45;wind/amr&#45;wind</text>
<text text-anchor="middle" x="86" y="-100.5" font-family="Helvetica,sans-Serif" font-size="10.00">/ocean_waves/OceanWaves.cpp</text>
</a>
</g>
</g>
<!-- Node1&#45;&gt;Node2 -->
<g id="edge1_Node000001_Node000002" class="edge">
<title>Node1&#45;&gt;Node2</title>
<g id="a_edge1_Node000001_Node000002"><a xlink:title=" ">
<path fill="none" stroke="#63b8ff" d="M345.86,-176.75C296.87,-166.42 235.51,-153.07 181,-140 173.79,-138.27 166.28,-136.41 158.79,-134.5"/>
<polygon fill="#63b8ff" stroke="#63b8ff" points="345.29,-180.21 355.8,-178.85 346.73,-173.36 345.29,-180.21"/>
</a>
</g>
</g>
<!-- Node3 -->
<g id="Node000003" class="node">
<title>Node3</title>
<g id="a_Node000003"><a xlink:href="linear__waves__ops_8_h.html" target="_top" xlink:title=" ">
<polygon fill="white" stroke="#666666" points="341.5,-140 190.5,-140 190.5,-88 341.5,-88 341.5,-140"/>
<text text-anchor="start" x="198.5" y="-128" font-family="Helvetica,sans-Serif" font-size="10.00">/home/runner/work/amr</text>
<text text-anchor="start" x="198.5" y="-117" font-family="Helvetica,sans-Serif" font-size="10.00">&#45;wind/amr&#45;wind/amr&#45;wind</text>
<text text-anchor="start" x="198.5" y="-106" font-family="Helvetica,sans-Serif" font-size="10.00">/ocean_waves/relaxation</text>
<text text-anchor="middle" x="266" y="-95" font-family="Helvetica,sans-Serif" font-size="10.00">_zones/linear_waves_ops.H</text>
</a>
</g>
</g>
<!-- Node1&#45;&gt;Node3 -->
<g id="edge2_Node000001_Node000003" class="edge">
<title>Node1&#45;&gt;Node3</title>
<g id="a_edge2_Node000001_Node000003"><a xlink:title=" ">
<path fill="none" stroke="#63b8ff" d="M386.07,-171.53C365.04,-161.63 340.66,-150.14 319.38,-140.13"/>
<polygon fill="#63b8ff" stroke="#63b8ff" points="384.63,-174.71 395.17,-175.81 387.61,-168.38 384.63,-174.71"/>
</a>
</g>
</g>
<!-- Node5 -->
<g id="Node000005" class="node">
<title>Node5</title>
<g id="a_Node000005"><a xlink:href="stokes__waves__ops_8_h.html" target="_top" xlink:title=" ">
<polygon fill="white" stroke="#666666" points="514.5,-140 359.5,-140 359.5,-88 514.5,-88 514.5,-140"/>
<text text-anchor="start" x="367.5" y="-128" font-family="Helvetica,sans-Serif" font-size="10.00">/home/runner/work/amr</text>
<text text-anchor="start" x="367.5" y="-117" font-family="Helvetica,sans-Serif" font-size="10.00">&#45;wind/amr&#45;wind/amr&#45;wind</text>
<text text-anchor="start" x="367.5" y="-106" font-family="Helvetica,sans-Serif" font-size="10.00">/ocean_waves/relaxation</text>
<text text-anchor="middle" x="437" y="-95" font-family="Helvetica,sans-Serif" font-size="10.00">_zones/stokes_waves_ops.H</text>
</a>
</g>
</g>
<!-- Node1&#45;&gt;Node5 -->
<g id="edge4_Node000001_Node000005" class="edge">
<title>Node1&#45;&gt;Node5</title>
<g id="a_edge4_Node000001_Node000005"><a xlink:title=" ">
<path fill="none" stroke="#63b8ff" d="M437,-165.49C437,-157.15 437,-148.19 437,-140.16"/>
<polygon fill="#63b8ff" stroke="#63b8ff" points="433.5,-165.6 437,-175.6 440.5,-165.6 433.5,-165.6"/>
</a>
</g>
</g>
<!-- Node7 -->
<g id="Node000007" class="node">
<title>Node7</title>
<g id="a_Node000007"><a xlink:href="waves2amr__ops_8_h.html" target="_top" xlink:title=" ">
<polygon fill="white" stroke="#666666" points="675.5,-140 532.5,-140 532.5,-88 675.5,-88 675.5,-140"/>
<text text-anchor="start" x="540.5" y="-128" font-family="Helvetica,sans-Serif" font-size="10.00">/home/runner/work/amr</text>
<text text-anchor="start" x="540.5" y="-117" font-family="Helvetica,sans-Serif" font-size="10.00">&#45;wind/amr&#45;wind/amr&#45;wind</text>
<text text-anchor="start" x="540.5" y="-106" font-family="Helvetica,sans-Serif" font-size="10.00">/ocean_waves/relaxation</text>
<text text-anchor="middle" x="604" y="-95" font-family="Helvetica,sans-Serif" font-size="10.00">_zones/waves2amr_ops.H</text>
</a>
</g>
</g>
<!-- Node1&#45;&gt;Node7 -->
<g id="edge6_Node000001_Node000007" class="edge">
<title>Node1&#45;&gt;Node7</title>
<g id="a_edge6_Node000001_Node000007"><a xlink:title=" ">
<path fill="none" stroke="#63b8ff" d="M487.01,-171.39C507.49,-161.52 531.18,-150.1 551.87,-140.13"/>
<polygon fill="#63b8ff" stroke="#63b8ff" points="485.34,-168.31 477.85,-175.81 488.38,-174.62 485.34,-168.31"/>
</a>
</g>
</g>
<!-- Node9 -->
<g id="Node000009" class="node">
<title>Node9</title>
<g id="a_Node000009"><a xlink:href="nodal__projection__ops_8_h.html" target="_top" xlink:title=" ">
<polygon fill="white" stroke="#666666" points="878.5,-134.5 693.5,-134.5 693.5,-93.5 878.5,-93.5 878.5,-134.5"/>
<text text-anchor="start" x="701.5" y="-122.5" font-family="Helvetica,sans-Serif" font-size="10.00">/home/runner/work/amr</text>
<text text-anchor="start" x="701.5" y="-111.5" font-family="Helvetica,sans-Serif" font-size="10.00">&#45;wind/amr&#45;wind/amr&#45;wind</text>
<text text-anchor="middle" x="786" y="-100.5" font-family="Helvetica,sans-Serif" font-size="10.00">/projection/nodal_projection_ops.H</text>
</a>
</g>
</g>
<!-- Node1&#45;&gt;Node9 -->
<g id="edge8_Node000001_Node000009" class="edge">
<title>Node1&#45;&gt;Node9</title>
<g id="a_edge8_Node000001_Node000009"><a xlink:title=" ">
<path fill="none" stroke="#63b8ff" d="M527.93,-175.66C574.89,-165.29 633.08,-152.23 685,-140 692.38,-138.26 700.06,-136.42 707.74,-134.55"/>
<polygon fill="#63b8ff" stroke="#63b8ff" points="527.09,-172.26 518.08,-177.84 528.6,-179.1 527.09,-172.26"/>
</a>
</g>
</g>
<!-- Node4 -->
<g id="Node000004" class="node">
<title>Node4</title>
<g id="a_Node000004"><a xlink:href="_linear_waves_8cpp.html" target="_top" xlink:title=" ">
<polygon fill="white" stroke="#666666" points="337.5,-52 194.5,-52 194.5,0 337.5,0 337.5,-52"/>
<text text-anchor="start" x="202.5" y="-40" font-family="Helvetica,sans-Serif" font-size="10.00">/home/runner/work/amr</text>
<text text-anchor="start" x="202.5" y="-29" font-family="Helvetica,sans-Serif" font-size="10.00">&#45;wind/amr&#45;wind/amr&#45;wind</text>
<text text-anchor="start" x="202.5" y="-18" font-family="Helvetica,sans-Serif" font-size="10.00">/ocean_waves/relaxation</text>
<text text-anchor="middle" x="266" y="-7" font-family="Helvetica,sans-Serif" font-size="10.00">_zones/LinearWaves.cpp</text>
</a>
</g>
</g>
<!-- Node3&#45;&gt;Node4 -->
<g id="edge3_Node000003_Node000004" class="edge">
<title>Node3&#45;&gt;Node4</title>
<g id="a_edge3_Node000003_Node000004"><a xlink:title=" ">
<path fill="none" stroke="#63b8ff" d="M266,-77.56C266,-69.04 266,-60.1 266,-52.16"/>
<polygon fill="#63b8ff" stroke="#63b8ff" points="262.5,-77.66 266,-87.66 269.5,-77.66 262.5,-77.66"/>
</a>
</g>
</g>
<!-- Node6 -->
<g id="Node000006" class="node">
<title>Node6</title>
<g id="a_Node000006"><a xlink:href="_stokes_waves_8cpp.html" target="_top" xlink:title=" ">
<polygon fill="white" stroke="#666666" points="508.5,-52 365.5,-52 365.5,0 508.5,0 508.5,-52"/>
<text text-anchor="start" x="373.5" y="-40" font-family="Helvetica,sans-Serif" font-size="10.00">/home/runner/work/amr</text>
<text text-anchor="start" x="373.5" y="-29" font-family="Helvetica,sans-Serif" font-size="10.00">&#45;wind/amr&#45;wind/amr&#45;wind</text>
<text text-anchor="start" x="373.5" y="-18" font-family="Helvetica,sans-Serif" font-size="10.00">/ocean_waves/relaxation</text>
<text text-anchor="middle" x="437" y="-7" font-family="Helvetica,sans-Serif" font-size="10.00">_zones/StokesWaves.cpp</text>
</a>
</g>
</g>
<!-- Node5&#45;&gt;Node6 -->
<g id="edge5_Node000005_Node000006" class="edge">
<title>Node5&#45;&gt;Node6</title>
<g id="a_edge5_Node000005_Node000006"><a xlink:title=" ">
<path fill="none" stroke="#63b8ff" d="M437,-77.56C437,-69.04 437,-60.1 437,-52.16"/>
<polygon fill="#63b8ff" stroke="#63b8ff" points="433.5,-77.66 437,-87.66 440.5,-77.66 433.5,-77.66"/>
</a>
</g>
</g>
<!-- Node8 -->
<g id="Node000008" class="node">
<title>Node8</title>
<g id="a_Node000008"><a xlink:href="_w2_a_waves_8cpp.html" target="_top" xlink:title=" ">
<polygon fill="white" stroke="#666666" points="675.5,-52 532.5,-52 532.5,0 675.5,0 675.5,-52"/>
<text text-anchor="start" x="540.5" y="-40" font-family="Helvetica,sans-Serif" font-size="10.00">/home/runner/work/amr</text>
<text text-anchor="start" x="540.5" y="-29" font-family="Helvetica,sans-Serif" font-size="10.00">&#45;wind/amr&#45;wind/amr&#45;wind</text>
<text text-anchor="start" x="540.5" y="-18" font-family="Helvetica,sans-Serif" font-size="10.00">/ocean_waves/relaxation</text>
<text text-anchor="middle" x="604" y="-7" font-family="Helvetica,sans-Serif" font-size="10.00">_zones/W2AWaves.cpp</text>
</a>
</g>
</g>
<!-- Node7&#45;&gt;Node8 -->
<g id="edge7_Node000007_Node000008" class="edge">
<title>Node7&#45;&gt;Node8</title>
<g id="a_edge7_Node000007_Node000008"><a xlink:title=" ">
<path fill="none" stroke="#63b8ff" d="M604,-77.56C604,-69.04 604,-60.1 604,-52.16"/>
<polygon fill="#63b8ff" stroke="#63b8ff" points="600.5,-77.66 604,-87.66 607.5,-77.66 600.5,-77.66"/>
</a>
</g>
</g>
<!-- Node10 -->
<g id="Node000010" class="node">
<title>Node10</title>
<g id="a_Node000010"><a xlink:href="_overset_ops_8cpp.html" target="_top" xlink:title=" ">
<polygon fill="white" stroke="#666666" points="846.5,-46.5 703.5,-46.5 703.5,-5.5 846.5,-5.5 846.5,-46.5"/>
<text text-anchor="start" x="711.5" y="-34.5" font-family="Helvetica,sans-Serif" font-size="10.00">/home/runner/work/amr</text>
<text text-anchor="start" x="711.5" y="-23.5" font-family="Helvetica,sans-Serif" font-size="10.00">&#45;wind/amr&#45;wind/amr&#45;wind</text>
<text text-anchor="middle" x="775" y="-12.5" font-family="Helvetica,sans-Serif" font-size="10.00">/overset/OversetOps.cpp</text>
</a>
</g>
</g>
<!-- Node9&#45;&gt;Node10 -->
<g id="edge9_Node000009_Node000010" class="edge">
<title>Node9&#45;&gt;Node10</title>
<g id="a_edge9_Node000009_Node000010"><a xlink:title=" ">
<path fill="none" stroke="#63b8ff" d="M782.21,-83.36C780.66,-71.26 778.91,-57.58 777.52,-46.74"/>
<polygon fill="#63b8ff" stroke="#63b8ff" points="778.76,-84.01 783.5,-93.49 785.71,-83.12 778.76,-84.01"/>
</a>
</g>
</g>
<!-- Node11 -->
<g id="Node000011" class="node">
<title>Node11</title>
<g id="a_Node000011"><a xlink:href="incflo__apply__nodal__projection_8cpp.html" target="_top" xlink:title=" ">
<polygon fill="white" stroke="#666666" points="1007.5,-52 864.5,-52 864.5,0 1007.5,0 1007.5,-52"/>
<text text-anchor="start" x="872.5" y="-40" font-family="Helvetica,sans-Serif" font-size="10.00">/home/runner/work/amr</text>
<text text-anchor="start" x="872.5" y="-29" font-family="Helvetica,sans-Serif" font-size="10.00">&#45;wind/amr&#45;wind/amr&#45;wind</text>
<text text-anchor="start" x="872.5" y="-18" font-family="Helvetica,sans-Serif" font-size="10.00">/projection/incflo_apply</text>
<text text-anchor="middle" x="936" y="-7" font-family="Helvetica,sans-Serif" font-size="10.00">_nodal_projection.cpp</text>
</a>
</g>
</g>
<!-- Node9&#45;&gt;Node11 -->
<g id="edge10_Node000009_Node000011" class="edge">
<title>Node9&#45;&gt;Node11</title>
<g id="a_edge10_Node000009_Node000011"><a xlink:title=" ">
<path fill="none" stroke="#63b8ff" d="M828.86,-88.43C848.67,-77.07 872.18,-63.59 892.12,-52.16"/>
<polygon fill="#63b8ff" stroke="#63b8ff" points="826.97,-85.48 820.04,-93.49 830.45,-91.55 826.97,-85.48"/>
</a>
</g>
</g>
</g>
</svg>
