<?xml version="1.0" encoding="UTF-8" standalone="no"?>
<!DOCTYPE svg PUBLIC "-//W3C//DTD SVG 1.1//EN"
 "http://www.w3.org/Graphics/SVG/1.1/DTD/svg11.dtd">
<!-- Generated by graphviz version 2.43.0 (0)
 -->
<!-- Title: /home/runner/work/amr&#45;wind/amr&#45;wind/amr&#45;wind/boundary_conditions/field_boundary_fill/OceanWavesBoundary.H Pages: 1 -->
<svg width="1482pt" height="324pt"
 viewBox="0.00 0.00 1481.50 324.00" xmlns="http://www.w3.org/2000/svg" xmlns:xlink="http://www.w3.org/1999/xlink">
<g id="graph0" class="graph" transform="scale(1 1) rotate(0) translate(4 320)">
<title>/home/runner/work/amr&#45;wind/amr&#45;wind/amr&#45;wind/boundary_conditions/field_boundary_fill/OceanWavesBoundary.H</title>
<!-- Node1 -->
<g id="Node000001" class="node">
<title>Node1</title>
<g id="a_Node000001"><a xlink:title=" ">
<polygon fill="#999999" stroke="#666666" points="489,-316 283,-316 283,-264 489,-264 489,-316"/>
<text text-anchor="start" x="291" y="-304" font-family="Helvetica,sans-Serif" font-size="10.00">/home/runner/work/amr</text>
<text text-anchor="start" x="291" y="-293" font-family="Helvetica,sans-Serif" font-size="10.00">&#45;wind/amr&#45;wind/amr&#45;wind</text>
<text text-anchor="start" x="291" y="-282" font-family="Helvetica,sans-Serif" font-size="10.00">/boundary_conditions/field</text>
<text text-anchor="middle" x="386" y="-271" font-family="Helvetica,sans-Serif" font-size="10.00">_boundary_fill/OceanWavesBoundary.H</text>
</a>
</g>
</g>
<!-- Node2 -->
<g id="Node000002" class="node">
<title>Node2</title>
<g id="a_Node000002"><a xlink:href="_ocean_waves_boundary_8cpp.html" target="_top" xlink:title=" ">
<polygon fill="white" stroke="#666666" points="216,-140 0,-140 0,-88 216,-88 216,-140"/>
<text text-anchor="start" x="8" y="-128" font-family="Helvetica,sans-Serif" font-size="10.00">/home/runner/work/amr</text>
<text text-anchor="start" x="8" y="-117" font-family="Helvetica,sans-Serif" font-size="10.00">&#45;wind/amr&#45;wind/amr&#45;wind</text>
<text text-anchor="start" x="8" y="-106" font-family="Helvetica,sans-Serif" font-size="10.00">/boundary_conditions/field</text>
<text text-anchor="middle" x="108" y="-95" font-family="Helvetica,sans-Serif" font-size="10.00">_boundary_fill/OceanWavesBoundary.cpp</text>
</a>
</g>
</g>
<!-- Node1&#45;&gt;Node2 -->
<g id="edge1_Node000001_Node000002" class="edge">
<title>Node1&#45;&gt;Node2</title>
<g id="a_edge1_Node000001_Node000002"><a xlink:title=" ">
<path fill="none" stroke="#63b8ff" d="M272.83,-271.32C240.25,-262.27 206.2,-248.6 179,-228 149.08,-205.34 128.59,-166.11 117.59,-140.35"/>
<polygon fill="#63b8ff" stroke="#63b8ff" points="272.32,-274.81 282.88,-273.98 274.11,-268.04 272.32,-274.81"/>
</a>
</g>
</g>
<!-- Node3 -->
<g id="Node000003" class="node">
<title>Node3</title>
<g id="a_Node000003"><a xlink:href="_ocean_waves_fill_inflow_8_h.html" target="_top" xlink:title=" ">
<polygon fill="white" stroke="#666666" points="392,-228 188,-228 188,-176 392,-176 392,-228"/>
<text text-anchor="start" x="196" y="-216" font-family="Helvetica,sans-Serif" font-size="10.00">/home/runner/work/amr</text>
<text text-anchor="start" x="196" y="-205" font-family="Helvetica,sans-Serif" font-size="10.00">&#45;wind/amr&#45;wind/amr&#45;wind</text>
<text text-anchor="start" x="196" y="-194" font-family="Helvetica,sans-Serif" font-size="10.00">/boundary_conditions/field</text>
<text text-anchor="middle" x="290" y="-183" font-family="Helvetica,sans-Serif" font-size="10.00">_boundary_fill/OceanWavesFillInflow.H</text>
</a>
</g>
</g>
<!-- Node1&#45;&gt;Node3 -->
<g id="edge2_Node000001_Node000003" class="edge">
<title>Node1&#45;&gt;Node3</title>
<g id="a_edge2_Node000001_Node000003"><a xlink:title=" ">
<path fill="none" stroke="#63b8ff" d="M350.43,-257.13C339.8,-247.62 328.31,-237.32 318.23,-228.29"/>
<polygon fill="#63b8ff" stroke="#63b8ff" points="348.19,-259.83 357.97,-263.89 352.86,-254.61 348.19,-259.83"/>
</a>
</g>
</g>
<!-- Node5 -->
<g id="Node000005" class="node">
<title>Node5</title>
<g id="a_Node000005"><a xlink:href="icns__advection_8cpp.html" target="_top" xlink:title=" ">
<polygon fill="white" stroke="#666666" points="553.5,-228 410.5,-228 410.5,-176 553.5,-176 553.5,-228"/>
<text text-anchor="start" x="418.5" y="-216" font-family="Helvetica,sans-Serif" font-size="10.00">/home/runner/work/amr</text>
<text text-anchor="start" x="418.5" y="-205" font-family="Helvetica,sans-Serif" font-size="10.00">&#45;wind/amr&#45;wind/amr&#45;wind</text>
<text text-anchor="start" x="418.5" y="-194" font-family="Helvetica,sans-Serif" font-size="10.00">/equation_systems/icns</text>
<text text-anchor="middle" x="482" y="-183" font-family="Helvetica,sans-Serif" font-size="10.00">/icns_advection.cpp</text>
</a>
</g>
</g>
<!-- Node1&#45;&gt;Node5 -->
<g id="edge5_Node000001_Node000005" class="edge">
<title>Node1&#45;&gt;Node5</title>
<g id="a_edge5_Node000001_Node000005"><a xlink:title=" ">
<path fill="none" stroke="#63b8ff" d="M421.57,-257.13C432.2,-247.62 443.69,-237.32 453.77,-228.29"/>
<polygon fill="#63b8ff" stroke="#63b8ff" points="419.14,-254.61 414.03,-263.89 423.81,-259.83 419.14,-254.61"/>
</a>
</g>
</g>
<!-- Node6 -->
<g id="Node000006" class="node">
<title>Node6</title>
<g id="a_Node000006"><a xlink:href="_ocean_waves_8_h.html" target="_top" xlink:title=" ">
<polygon fill="white" stroke="#666666" points="898,-222.5 736,-222.5 736,-181.5 898,-181.5 898,-222.5"/>
<text text-anchor="start" x="744" y="-210.5" font-family="Helvetica,sans-Serif" font-size="10.00">/home/runner/work/amr</text>
<text text-anchor="start" x="744" y="-199.5" font-family="Helvetica,sans-Serif" font-size="10.00">&#45;wind/amr&#45;wind/amr&#45;wind</text>
<text text-anchor="middle" x="817" y="-188.5" font-family="Helvetica,sans-Serif" font-size="10.00">/ocean_waves/OceanWaves.H</text>
</a>
</g>
</g>
<!-- Node1&#45;&gt;Node6 -->
<g id="edge6_Node000001_Node000006" class="edge">
<title>Node1&#45;&gt;Node6</title>
<g id="a_edge6_Node000001_Node000006"><a xlink:title=" ">
<path fill="none" stroke="#63b8ff" d="M499.12,-266.43C573.45,-251.6 668.97,-232.54 735.81,-219.2"/>
<polygon fill="#63b8ff" stroke="#63b8ff" points="498.36,-263.01 489.24,-268.4 499.73,-269.88 498.36,-263.01"/>
</a>
</g>
</g>
<!-- Node3&#45;&gt;Node2 -->
<g id="edge3_Node000003_Node000002" class="edge">
<title>Node3&#45;&gt;Node2</title>
<g id="a_edge3_Node000003_Node000002"><a xlink:title=" ">
<path fill="none" stroke="#63b8ff" d="M227.76,-171.59C206.11,-161.36 182.04,-149.99 161.2,-140.14"/>
<polygon fill="#63b8ff" stroke="#63b8ff" points="226.33,-174.79 236.87,-175.89 229.32,-168.46 226.33,-174.79"/>
</a>
</g>
</g>
<!-- Node4 -->
<g id="Node000004" class="node">
<title>Node4</title>
<g id="a_Node000004"><a xlink:href="_ocean_waves_fill_inflow_8cpp.html" target="_top" xlink:title=" ">
<polygon fill="white" stroke="#666666" points="448,-140 234,-140 234,-88 448,-88 448,-140"/>
<text text-anchor="start" x="242" y="-128" font-family="Helvetica,sans-Serif" font-size="10.00">/home/runner/work/amr</text>
<text text-anchor="start" x="242" y="-117" font-family="Helvetica,sans-Serif" font-size="10.00">&#45;wind/amr&#45;wind/amr&#45;wind</text>
<text text-anchor="start" x="242" y="-106" font-family="Helvetica,sans-Serif" font-size="10.00">/boundary_conditions/field</text>
<text text-anchor="middle" x="341" y="-95" font-family="Helvetica,sans-Serif" font-size="10.00">_boundary_fill/OceanWavesFillInflow.cpp</text>
</a>
</g>
</g>
<!-- Node3&#45;&gt;Node4 -->
<g id="edge4_Node000003_Node000004" class="edge">
<title>Node3&#45;&gt;Node4</title>
<g id="a_edge4_Node000003_Node000004"><a xlink:title=" ">
<path fill="none" stroke="#63b8ff" d="M310.19,-166.96C315.49,-158.02 321.11,-148.54 326.08,-140.16"/>
<polygon fill="#63b8ff" stroke="#63b8ff" points="307.12,-165.28 305.03,-175.66 313.14,-168.85 307.12,-165.28"/>
</a>
</g>
</g>
<!-- Node7 -->
<g id="Node000007" class="node">
<title>Node7</title>
<g id="a_Node000007"><a xlink:href="_ocean_waves_8cpp.html" target="_top" xlink:title=" ">
<polygon fill="white" stroke="#666666" points="638,-134.5 466,-134.5 466,-93.5 638,-93.5 638,-134.5"/>
<text text-anchor="start" x="474" y="-122.5" font-family="Helvetica,sans-Serif" font-size="10.00">/home/runner/work/amr</text>
<text text-anchor="start" x="474" y="-111.5" font-family="Helvetica,sans-Serif" font-size="10.00">&#45;wind/amr&#45;wind/amr&#45;wind</text>
<text text-anchor="middle" x="552" y="-100.5" font-family="Helvetica,sans-Serif" font-size="10.00">/ocean_waves/OceanWaves.cpp</text>
</a>
</g>
</g>
<!-- Node6&#45;&gt;Node7 -->
<g id="edge7_Node000006_Node000007" class="edge">
<title>Node6&#45;&gt;Node7</title>
<g id="a_edge7_Node000006_Node000007"><a xlink:title=" ">
<path fill="none" stroke="#63b8ff" d="M747.28,-178.37C705.34,-164.76 652.49,-147.61 612.35,-134.59"/>
<polygon fill="#63b8ff" stroke="#63b8ff" points="746.28,-181.73 756.87,-181.49 748.44,-175.07 746.28,-181.73"/>
</a>
</g>
</g>
<!-- Node8 -->
<g id="Node000008" class="node">
<title>Node8</title>
<g id="a_Node000008"><a xlink:href="linear__waves__ops_8_h.html" target="_top" xlink:title=" ">
<polygon fill="white" stroke="#666666" points="807.5,-140 656.5,-140 656.5,-88 807.5,-88 807.5,-140"/>
<text text-anchor="start" x="664.5" y="-128" font-family="Helvetica,sans-Serif" font-size="10.00">/home/runner/work/amr</text>
<text text-anchor="start" x="664.5" y="-117" font-family="Helvetica,sans-Serif" font-size="10.00">&#45;wind/amr&#45;wind/amr&#45;wind</text>
<text text-anchor="start" x="664.5" y="-106" font-family="Helvetica,sans-Serif" font-size="10.00">/ocean_waves/relaxation</text>
<text text-anchor="middle" x="732" y="-95" font-family="Helvetica,sans-Serif" font-size="10.00">_zones/linear_waves_ops.H</text>
</a>
</g>
</g>
<!-- Node6&#45;&gt;Node8 -->
<g id="edge8_Node000006_Node000008" class="edge">
<title>Node6&#45;&gt;Node8</title>
<g id="a_edge8_Node000006_Node000008"><a xlink:title=" ">
<path fill="none" stroke="#63b8ff" d="M790.6,-174.29C779.89,-163.45 767.59,-151 757.02,-140.32"/>
<polygon fill="#63b8ff" stroke="#63b8ff" points="788.19,-176.83 797.71,-181.49 793.17,-171.91 788.19,-176.83"/>
</a>
</g>
</g>
<!-- Node10 -->
<g id="Node000010" class="node">
<title>Node10</title>
<g id="a_Node000010"><a xlink:href="stokes__waves__ops_8_h.html" target="_top" xlink:title=" ">
<polygon fill="white" stroke="#666666" points="980.5,-140 825.5,-140 825.5,-88 980.5,-88 980.5,-140"/>
<text text-anchor="start" x="833.5" y="-128" font-family="Helvetica,sans-Serif" font-size="10.00">/home/runner/work/amr</text>
<text text-anchor="start" x="833.5" y="-117" font-family="Helvetica,sans-Serif" font-size="10.00">&#45;wind/amr&#45;wind/amr&#45;wind</text>
<text text-anchor="start" x="833.5" y="-106" font-family="Helvetica,sans-Serif" font-size="10.00">/ocean_waves/relaxation</text>
<text text-anchor="middle" x="903" y="-95" font-family="Helvetica,sans-Serif" font-size="10.00">_zones/stokes_waves_ops.H</text>
</a>
</g>
</g>
<!-- Node6&#45;&gt;Node10 -->
<g id="edge10_Node000006_Node000010" class="edge">
<title>Node6&#45;&gt;Node10</title>
<g id="a_edge10_Node000006_Node000010"><a xlink:title=" ">
<path fill="none" stroke="#63b8ff" d="M843.71,-174.29C854.55,-163.45 867,-151 877.68,-140.32"/>
<polygon fill="#63b8ff" stroke="#63b8ff" points="841.11,-171.94 836.51,-181.49 846.06,-176.89 841.11,-171.94"/>
</a>
</g>
</g>
<!-- Node12 -->
<g id="Node000012" class="node">
<title>Node12</title>
<g id="a_Node000012"><a xlink:href="waves2amr__ops_8_h.html" target="_top" xlink:title=" ">
<polygon fill="white" stroke="#666666" points="1141.5,-140 998.5,-140 998.5,-88 1141.5,-88 1141.5,-140"/>
<text text-anchor="start" x="1006.5" y="-128" font-family="Helvetica,sans-Serif" font-size="10.00">/home/runner/work/amr</text>
<text text-anchor="start" x="1006.5" y="-117" font-family="Helvetica,sans-Serif" font-size="10.00">&#45;wind/amr&#45;wind/amr&#45;wind</text>
<text text-anchor="start" x="1006.5" y="-106" font-family="Helvetica,sans-Serif" font-size="10.00">/ocean_waves/relaxation</text>
<text text-anchor="middle" x="1070" y="-95" font-family="Helvetica,sans-Serif" font-size="10.00">_zones/waves2amr_ops.H</text>
</a>
</g>
</g>
<!-- Node6&#45;&gt;Node12 -->
<g id="edge12_Node000006_Node000012" class="edge">
<title>Node6&#45;&gt;Node12</title>
<g id="a_edge12_Node000006_Node000012"><a xlink:title=" ">
<path fill="none" stroke="#63b8ff" d="M884.12,-178.19C919.33,-166.22 962.48,-151.55 998.34,-139.36"/>
<polygon fill="#63b8ff" stroke="#63b8ff" points="882.75,-174.95 874.41,-181.49 885,-181.58 882.75,-174.95"/>
</a>
</g>
</g>
<!-- Node14 -->
<g id="Node000014" class="node">
<title>Node14</title>
<g id="a_Node000014"><a xlink:href="nodal__projection__ops_8_h.html" target="_top" xlink:title=" ">
<polygon fill="white" stroke="#666666" points="1344.5,-134.5 1159.5,-134.5 1159.5,-93.5 1344.5,-93.5 1344.5,-134.5"/>
<text text-anchor="start" x="1167.5" y="-122.5" font-family="Helvetica,sans-Serif" font-size="10.00">/home/runner/work/amr</text>
<text text-anchor="start" x="1167.5" y="-111.5" font-family="Helvetica,sans-Serif" font-size="10.00">&#45;wind/amr&#45;wind/amr&#45;wind</text>
<text text-anchor="middle" x="1252" y="-100.5" font-family="Helvetica,sans-Serif" font-size="10.00">/projection/nodal_projection_ops.H</text>
</a>
</g>
</g>
<!-- Node6&#45;&gt;Node14 -->
<g id="edge14_Node000006_Node000014" class="edge">
<title>Node6&#45;&gt;Node14</title>
<g id="a_edge14_Node000006_Node000014"><a xlink:title=" ">
<path fill="none" stroke="#63b8ff" d="M908.42,-185.88C975.72,-174.36 1069.32,-157.55 1151,-140 1158.86,-138.31 1167.04,-136.45 1175.19,-134.54"/>
<polygon fill="#63b8ff" stroke="#63b8ff" points="907.54,-182.48 898.27,-187.61 908.71,-189.38 907.54,-182.48"/>
</a>
</g>
</g>
<!-- Node9 -->
<g id="Node000009" class="node">
<title>Node9</title>
<g id="a_Node000009"><a xlink:href="_linear_waves_8cpp.html" target="_top" xlink:title=" ">
<polygon fill="white" stroke="#666666" points="803.5,-52 660.5,-52 660.5,0 803.5,0 803.5,-52"/>
<text text-anchor="start" x="668.5" y="-40" font-family="Helvetica,sans-Serif" font-size="10.00">/home/runner/work/amr</text>
<text text-anchor="start" x="668.5" y="-29" font-family="Helvetica,sans-Serif" font-size="10.00">&#45;wind/amr&#45;wind/amr&#45;wind</text>
<text text-anchor="start" x="668.5" y="-18" font-family="Helvetica,sans-Serif" font-size="10.00">/ocean_waves/relaxation</text>
<text text-anchor="middle" x="732" y="-7" font-family="Helvetica,sans-Serif" font-size="10.00">_zones/LinearWaves.cpp</text>
</a>
</g>
</g>
<!-- Node8&#45;&gt;Node9 -->
<g id="edge9_Node000008_Node000009" class="edge">
<title>Node8&#45;&gt;Node9</title>
<g id="a_edge9_Node000008_Node000009"><a xlink:title=" ">
<path fill="none" stroke="#63b8ff" d="M732,-77.56C732,-69.04 732,-60.1 732,-52.16"/>
<polygon fill="#63b8ff" stroke="#63b8ff" points="728.5,-77.66 732,-87.66 735.5,-77.66 728.5,-77.66"/>
</a>
</g>
</g>
<!-- Node11 -->
<g id="Node000011" class="node">
<title>Node11</title>
<g id="a_Node000011"><a xlink:href="_stokes_waves_8cpp.html" target="_top" xlink:title=" ">
<polygon fill="white" stroke="#666666" points="974.5,-52 831.5,-52 831.5,0 974.5,0 974.5,-52"/>
<text text-anchor="start" x="839.5" y="-40" font-family="Helvetica,sans-Serif" font-size="10.00">/home/runner/work/amr</text>
<text text-anchor="start" x="839.5" y="-29" font-family="Helvetica,sans-Serif" font-size="10.00">&#45;wind/amr&#45;wind/amr&#45;wind</text>
<text text-anchor="start" x="839.5" y="-18" font-family="Helvetica,sans-Serif" font-size="10.00">/ocean_waves/relaxation</text>
<text text-anchor="middle" x="903" y="-7" font-family="Helvetica,sans-Serif" font-size="10.00">_zones/StokesWaves.cpp</text>
</a>
</g>
</g>
<!-- Node10&#45;&gt;Node11 -->
<g id="edge11_Node000010_Node000011" class="edge">
<title>Node10&#45;&gt;Node11</title>
<g id="a_edge11_Node000010_Node000011"><a xlink:title=" ">
<path fill="none" stroke="#63b8ff" d="M903,-77.56C903,-69.04 903,-60.1 903,-52.16"/>
<polygon fill="#63b8ff" stroke="#63b8ff" points="899.5,-77.66 903,-87.66 906.5,-77.66 899.5,-77.66"/>
</a>
</g>
</g>
<!-- Node13 -->
<g id="Node000013" class="node">
<title>Node13</title>
<g id="a_Node000013"><a xlink:href="_w2_a_waves_8cpp.html" target="_top" xlink:title=" ">
<polygon fill="white" stroke="#666666" points="1141.5,-52 998.5,-52 998.5,0 1141.5,0 1141.5,-52"/>
<text text-anchor="start" x="1006.5" y="-40" font-family="Helvetica,sans-Serif" font-size="10.00">/home/runner/work/amr</text>
<text text-anchor="start" x="1006.5" y="-29" font-family="Helvetica,sans-Serif" font-size="10.00">&#45;wind/amr&#45;wind/amr&#45;wind</text>
<text text-anchor="start" x="1006.5" y="-18" font-family="Helvetica,sans-Serif" font-size="10.00">/ocean_waves/relaxation</text>
<text text-anchor="middle" x="1070" y="-7" font-family="Helvetica,sans-Serif" font-size="10.00">_zones/W2AWaves.cpp</text>
</a>
</g>
</g>
<!-- Node12&#45;&gt;Node13 -->
<g id="edge13_Node000012_Node000013" class="edge">
<title>Node12&#45;&gt;Node13</title>
<g id="a_edge13_Node000012_Node000013"><a xlink:title=" ">
<path fill="none" stroke="#63b8ff" d="M1070,-77.56C1070,-69.04 1070,-60.1 1070,-52.16"/>
<polygon fill="#63b8ff" stroke="#63b8ff" points="1066.5,-77.66 1070,-87.66 1073.5,-77.66 1066.5,-77.66"/>
</a>
</g>
</g>
<!-- Node15 -->
<g id="Node000015" class="node">
<title>Node15</title>
<g id="a_Node000015"><a xlink:href="_overset_ops_8cpp.html" target="_top" xlink:title=" ">
<polygon fill="white" stroke="#666666" points="1312.5,-46.5 1169.5,-46.5 1169.5,-5.5 1312.5,-5.5 1312.5,-46.5"/>
<text text-anchor="start" x="1177.5" y="-34.5" font-family="Helvetica,sans-Serif" font-size="10.00">/home/runner/work/amr</text>
<text text-anchor="start" x="1177.5" y="-23.5" font-family="Helvetica,sans-Serif" font-size="10.00">&#45;wind/amr&#45;wind/amr&#45;wind</text>
<text text-anchor="middle" x="1241" y="-12.5" font-family="Helvetica,sans-Serif" font-size="10.00">/overset/OversetOps.cpp</text>
</a>
</g>
</g>
<!-- Node14&#45;&gt;Node15 -->
<g id="edge15_Node000014_Node000015" class="edge">
<title>Node14&#45;&gt;Node15</title>
<g id="a_edge15_Node000014_Node000015"><a xlink:title=" ">
<path fill="none" stroke="#63b8ff" d="M1248.21,-83.36C1246.66,-71.26 1244.91,-57.58 1243.52,-46.74"/>
<polygon fill="#63b8ff" stroke="#63b8ff" points="1244.76,-84.01 1249.5,-93.49 1251.71,-83.12 1244.76,-84.01"/>
</a>
</g>
</g>
<!-- Node16 -->
<g id="Node000016" class="node">
<title>Node16</title>
<g id="a_Node000016"><a xlink:href="incflo__apply__nodal__projection_8cpp.html" target="_top" xlink:title=" ">
<polygon fill="white" stroke="#666666" points="1473.5,-52 1330.5,-52 1330.5,0 1473.5,0 1473.5,-52"/>
<text text-anchor="start" x="1338.5" y="-40" font-family="Helvetica,sans-Serif" font-size="10.00">/home/runner/work/amr</text>
<text text-anchor="start" x="1338.5" y="-29" font-family="Helvetica,sans-Serif" font-size="10.00">&#45;wind/amr&#45;wind/amr&#45;wind</text>
<text text-anchor="start" x="1338.5" y="-18" font-family="Helvetica,sans-Serif" font-size="10.00">/projection/incflo_apply</text>
<text text-anchor="middle" x="1402" y="-7" font-family="Helvetica,sans-Serif" font-size="10.00">_nodal_projection.cpp</text>
</a>
</g>
</g>
<!-- Node14&#45;&gt;Node16 -->
<g id="edge16_Node000014_Node000016" class="edge">
<title>Node14&#45;&gt;Node16</title>
<g id="a_edge16_Node000014_Node000016"><a xlink:title=" ">
<path fill="none" stroke="#63b8ff" d="M1294.86,-88.43C1314.67,-77.07 1338.18,-63.59 1358.12,-52.16"/>
<polygon fill="#63b8ff" stroke="#63b8ff" points="1292.97,-85.48 1286.04,-93.49 1296.45,-91.55 1292.97,-85.48"/>
</a>
</g>
</g>
</g>
</svg>
