<?xml version="1.0" encoding="UTF-8" standalone="no"?>
<!DOCTYPE svg PUBLIC "-//W3C//DTD SVG 1.1//EN"
 "http://www.w3.org/Graphics/SVG/1.1/DTD/svg11.dtd">
<!-- Generated by graphviz version 2.43.0 (0)
 -->
<!-- Title: amr_wind::FieldFillPatchOps&lt; BCOpCreator &gt; Pages: 1 -->
<svg width="439pt" height="255pt"
 viewBox="0.00 0.00 439.00 255.00" xmlns="http://www.w3.org/2000/svg" xmlns:xlink="http://www.w3.org/1999/xlink">
<g id="graph0" class="graph" transform="scale(1 1) rotate(0) translate(4 251)">
<title>amr_wind::FieldFillPatchOps&lt; BCOpCreator &gt;</title>
<!-- Node1 -->
<g id="Node000001" class="node">
<title>Node1</title>
<g id="a_Node000001"><a xlink:title=" ">
<polygon fill="#999999" stroke="#666666" points="264.5,-180 130.5,-180 130.5,-150 264.5,-150 264.5,-180"/>
<text text-anchor="start" x="138.5" y="-168" font-family="Helvetica,sans-Serif" font-size="10.00">amr_wind::FieldFillPatch</text>
<text text-anchor="middle" x="197.5" y="-157" font-family="Helvetica,sans-Serif" font-size="10.00">Ops&lt; BCOpCreator &gt;</text>
</a>
</g>
</g>
<!-- Node3 -->
<g id="Node000003" class="node">
<title>Node3</title>
<g id="a_Node000003"><a xlink:href="classamr__wind_1_1_field_fill_patch_ops.html" target="_top" xlink:title=" ">
<polygon fill="white" stroke="#666666" points="265.5,-97 129.5,-97 129.5,-67 265.5,-67 265.5,-97"/>
<text text-anchor="start" x="137.5" y="-85" font-family="Helvetica,sans-Serif" font-size="10.00">amr_wind::FieldFillPatch</text>
<text text-anchor="middle" x="197.5" y="-74" font-family="Helvetica,sans-Serif" font-size="10.00">Ops&lt; FieldBCDirichlet &gt;</text>
</a>
</g>
</g>
<!-- Node1&#45;&gt;Node3 -->
<g id="edge2_Node000001_Node000003" class="edge">
<title>Node1&#45;&gt;Node3</title>
<g id="a_edge2_Node000001_Node000003"><a xlink:title=" ">
<path fill="none" stroke="orange" stroke-dasharray="5,2" d="M197.5,-139.59C197.5,-125.75 197.5,-108.91 197.5,-97.22"/>
<polygon fill="orange" stroke="orange" points="194,-139.89 197.5,-149.89 201,-139.89 194,-139.89"/>
</a>
</g>
<text text-anchor="start" x="201" y="-120.5" font-family="Helvetica,sans-Serif" font-size="10.00" fill="grey">&lt; FieldBCDirichlet &gt;</text>
</g>
<!-- Node2 -->
<g id="Node000002" class="node">
<title>Node2</title>
<g id="a_Node000002"><a xlink:href="classamr__wind_1_1_field_fill_patch_ops_base.html" target="_top" xlink:title=" ">
<polygon fill="white" stroke="#666666" points="264.5,-247 130.5,-247 130.5,-217 264.5,-217 264.5,-247"/>
<text text-anchor="start" x="138.5" y="-235" font-family="Helvetica,sans-Serif" font-size="10.00">amr_wind::FieldFillPatch</text>
<text text-anchor="middle" x="197.5" y="-224" font-family="Helvetica,sans-Serif" font-size="10.00">OpsBase</text>
</a>
</g>
</g>
<!-- Node2&#45;&gt;Node1 -->
<g id="edge1_Node000001_Node000002" class="edge">
<title>Node2&#45;&gt;Node1</title>
<g id="a_edge1_Node000001_Node000002"><a xlink:title=" ">
<path fill="none" stroke="#63b8ff" d="M197.5,-206.61C197.5,-197.65 197.5,-187.82 197.5,-180.08"/>
<polygon fill="#63b8ff" stroke="#63b8ff" points="194,-206.9 197.5,-216.9 201,-206.9 194,-206.9"/>
</a>
</g>
</g>
<!-- Node4 -->
<g id="Node000004" class="node">
<title>Node4</title>
<g id="a_Node000004"><a xlink:href="classamr__wind_1_1_fill_m_p_l.html" target="_top" xlink:title=" ">
<polygon fill="white" stroke="#666666" points="105,-24.5 0,-24.5 0,-5.5 105,-5.5 105,-24.5"/>
<text text-anchor="middle" x="52.5" y="-12.5" font-family="Helvetica,sans-Serif" font-size="10.00">amr_wind::FillMPL</text>
</a>
</g>
</g>
<!-- Node3&#45;&gt;Node4 -->
<g id="edge3_Node000003_Node000004" class="edge">
<title>Node3&#45;&gt;Node4</title>
<g id="a_edge3_Node000003_Node000004"><a xlink:title=" ">
<path fill="none" stroke="#63b8ff" d="M156.89,-62.8C128.93,-50.26 93.06,-34.18 71.48,-24.51"/>
<polygon fill="#63b8ff" stroke="#63b8ff" points="155.48,-66 166.04,-66.9 158.34,-59.61 155.48,-66"/>
</a>
</g>
</g>
<!-- Node5 -->
<g id="Node000005" class="node">
<title>Node5</title>
<g id="a_Node000005"><a xlink:href="classamr__wind_1_1_ocean_waves_fill_inflow.html" target="_top" xlink:title=" ">
<polygon fill="white" stroke="#666666" points="271.5,-30 123.5,-30 123.5,0 271.5,0 271.5,-30"/>
<text text-anchor="start" x="131.5" y="-18" font-family="Helvetica,sans-Serif" font-size="10.00">amr_wind::OceanWavesFill</text>
<text text-anchor="middle" x="197.5" y="-7" font-family="Helvetica,sans-Serif" font-size="10.00">Inflow</text>
</a>
</g>
</g>
<!-- Node3&#45;&gt;Node5 -->
<g id="edge4_Node000003_Node000005" class="edge">
<title>Node3&#45;&gt;Node5</title>
<g id="a_edge4_Node000003_Node000005"><a xlink:title=" ">
<path fill="none" stroke="#63b8ff" d="M197.5,-56.61C197.5,-47.65 197.5,-37.82 197.5,-30.08"/>
<polygon fill="#63b8ff" stroke="#63b8ff" points="194,-56.9 197.5,-66.9 201,-56.9 194,-56.9"/>
</a>
</g>
</g>
<!-- Node6 -->
<g id="Node000006" class="node">
<title>Node6</title>
<g id="a_Node000006"><a xlink:href="classamr__wind_1_1_plane_fill_inflow.html" target="_top" xlink:title=" ">
<polygon fill="white" stroke="#666666" points="431,-24.5 290,-24.5 290,-5.5 431,-5.5 431,-24.5"/>
<text text-anchor="middle" x="360.5" y="-12.5" font-family="Helvetica,sans-Serif" font-size="10.00">amr_wind::PlaneFillInflow</text>
</a>
</g>
</g>
<!-- Node3&#45;&gt;Node6 -->
<g id="edge5_Node000003_Node000006" class="edge">
<title>Node3&#45;&gt;Node6</title>
<g id="a_edge5_Node000003_Node000006"><a xlink:title=" ">
<path fill="none" stroke="#63b8ff" d="M242.33,-63.12C273.88,-50.54 314.69,-34.27 339.17,-24.51"/>
<polygon fill="#63b8ff" stroke="#63b8ff" points="240.86,-59.94 232.87,-66.9 243.45,-66.44 240.86,-59.94"/>
</a>
</g>
</g>
</g>
</svg>
