<?xml version="1.0" encoding="UTF-8" standalone="no"?>
<!DOCTYPE svg PUBLIC "-//W3C//DTD SVG 1.1//EN"
 "http://www.w3.org/Graphics/SVG/1.1/DTD/svg11.dtd">
<!-- Generated by graphviz version 2.43.0 (0)
 -->
<!-- Title: amr_wind::PlaneFillInflow Pages: 1 -->
<!--zoomable 479 -->

<svg id="main" version="1.1" xmlns="http://www.w3.org/2000/svg" xmlns:xlink="http://www.w3.org/1999/xlink" xml:space="preserve" onload="init(evt)">

<style type="text/css"><![CDATA[
.node, .edge {opacity: 0.7;}
.node.selected, .edge.selected {opacity: 1;}
.edge:hover path { stroke: red; }
.edge:hover polygon { stroke: red; fill: red; }
]]></style>

<defs>
  <circle id="rim" cx="0" cy="0" r="7"/>
  <circle id="rim2" cx="0" cy="0" r="3.5"/>
  <g id="zoomPlus">
    <use xlink:href="#rim" fill="#404040"><set attributeName="fill" to="#808080" begin="zoomplus.mouseover" end="zoomplus.mouseout"/></use>
    <path d="M-4,0h8M0,-4v8" fill="none" stroke="white" stroke-width="1.5" pointer-events="none"/>
  </g>
  <g id="zoomMin">
    <use xlink:href="#rim" fill="#404040"><set attributeName="fill" to="#808080" begin="zoomminus.mouseover" end="zoomminus.mouseout"/></use>
    <path d="M-4,0h8" fill="none" stroke="white" stroke-width="1.5" pointer-events="none"/>
  </g>
  <g id="arrowUp" transform="translate(30 24)">
    <use xlink:href="#rim"/>
    <path pointer-events="none" fill="none" stroke="white" stroke-width="1.5" d="M0,-3.0v7 M-2.5,-0.5L0,-3.0L2.5,-0.5"/>
  </g>
  <g id="arrowRight" transform="rotate(90) translate(36 -43)">
    <use xlink:href="#rim"/>
    <path pointer-events="none" fill="none" stroke="white" stroke-width="1.5" d="M0,-3.0v7 M-2.5,-0.5L0,-3.0L2.5,-0.5"/>
  </g>
  <g id="arrowDown" transform="rotate(180) translate(-30 -48)">
    <use xlink:href="#rim"/>
    <path pointer-events="none" fill="none" stroke="white" stroke-width="1.5" d="M0,-3.0v7 M-2.5,-0.5L0,-3.0L2.5,-0.5"/>
  </g>
  <g id="arrowLeft" transform="rotate(270) translate(-36 17)">
    <use xlink:href="#rim"/>
    <path pointer-events="none" fill="none" stroke="white" stroke-width="1.5" d="M0,-3.0v7 M-2.5,-0.5L0,-3.0L2.5,-0.5"/>
  </g>
  <g id="resetDef">
    <use xlink:href="#rim2" fill="#404040"><set attributeName="fill" to="#808080" begin="reset.mouseover" end="reset.mouseout"/></use>
  </g>
</defs>
<script type="application/ecmascript">
var viewWidth = 2403;
var viewHeight = 479;
var sectionId = 'dynsection-1';
</script>
<script type="application/ecmascript" xlink:href="svg.min.js"/>
<svg id="graph" class="graph">
<g id="viewport">
<title>amr_wind::PlaneFillInflow</title>
<!-- Node1 -->
<g id="Node000001" class="node">
<title>Node1</title>
<g id="a_Node000001"><a xlink:title=" ">
<polygon fill="#999999" stroke="#666666" points="2395,-127 2254,-127 2254,-108 2395,-108 2395,-127"/>
<text text-anchor="middle" x="2324.5" y="-115" font-family="Helvetica,sans-Serif" font-size="10.00">amr_wind::PlaneFillInflow</text>
</a>
</g>
</g>
<!-- Node2 -->
<g id="Node000002" class="node">
<title>Node2</title>
<g id="a_Node000002"><a xlink:href="classamr__wind_1_1_field_fill_patch_ops.html" target="_top" xlink:title=" ">
<polygon fill="white" stroke="#666666" points="2217,-359.5 2081,-359.5 2081,-329.5 2217,-329.5 2217,-359.5"/>
<text text-anchor="start" x="2089" y="-347.5" font-family="Helvetica,sans-Serif" font-size="10.00">amr_wind::FieldFillPatch</text>
<text text-anchor="middle" x="2149" y="-336.5" font-family="Helvetica,sans-Serif" font-size="10.00">Ops&lt; FieldBCDirichlet &gt;</text>
</a>
</g>
</g>
<!-- Node2&#45;&gt;Node1 -->
<g id="edge1_Node000001_Node000002" class="edge">
<title>Node2&#45;&gt;Node1</title>
<g id="a_edge1_Node000001_Node000002"><a xlink:title=" ">
<path fill="none" stroke="#63b8ff" d="M2167.85,-321.15C2205.22,-272.25 2290.39,-160.82 2316.05,-127.25"/>
<polygon fill="#63b8ff" stroke="#63b8ff" points="2164.95,-319.18 2161.65,-329.25 2170.51,-323.43 2164.95,-319.18"/>
</a>
</g>
</g>
<!-- Node3 -->
<g id="Node000003" class="node">
<title>Node3</title>
<g id="a_Node000003"><a xlink:href="classamr__wind_1_1_field_fill_patch_ops_base.html" target="_top" xlink:title=" ">
<polygon fill="white" stroke="#666666" points="251,-447.5 117,-447.5 117,-417.5 251,-417.5 251,-447.5"/>
<text text-anchor="start" x="125" y="-435.5" font-family="Helvetica,sans-Serif" font-size="10.00">amr_wind::FieldFillPatch</text>
<text text-anchor="middle" x="184" y="-424.5" font-family="Helvetica,sans-Serif" font-size="10.00">OpsBase</text>
</a>
</g>
</g>
<!-- Node3&#45;&gt;Node2 -->
<g id="edge2_Node000002_Node000003" class="edge">
<title>Node3&#45;&gt;Node2</title>
<g id="a_edge2_Node000002_Node000003"><a xlink:title=" ">
<path fill="none" stroke="#63b8ff" d="M261.38,-446.65C326.34,-457.46 422.21,-470.5 506.5,-470.5 506.5,-470.5 506.5,-470.5 1872,-470.5 1977.61,-470.5 2087.09,-393.21 2129.6,-359.7"/>
<polygon fill="#63b8ff" stroke="#63b8ff" points="261.67,-443.15 251.23,-444.94 260.51,-450.06 261.67,-443.15"/>
</a>
</g>
</g>
<!-- Node17 -->
<g id="Node000017" class="node">
<title>Node17</title>
<g id="a_Node000017"><a xlink:title=" ">
<polygon fill="white" stroke="#666666" points="592,-404.5 423,-404.5 423,-374.5 592,-374.5 592,-404.5"/>
<text text-anchor="start" x="431" y="-392.5" font-family="Helvetica,sans-Serif" font-size="10.00">std::unique_ptr&lt; amr</text>
<text text-anchor="middle" x="507.5" y="-381.5" font-family="Helvetica,sans-Serif" font-size="10.00">_wind::FieldFillPatchOpsBase &gt;</text>
</a>
</g>
</g>
<!-- Node3&#45;&gt;Node17 -->
<g id="edge20_Node000017_Node000003" class="edge">
<title>Node3&#45;&gt;Node17</title>
<g id="a_edge20_Node000017_Node000003"><a xlink:title=" ">
<path fill="none" stroke="#9a32cd" stroke-dasharray="5,2" d="M228.19,-413.72C241.08,-408.89 255.41,-404.28 269,-401.5 319.35,-391.19 376.9,-388.07 422.74,-387.58"/>
<polygon fill="#9a32cd" stroke="#9a32cd" points="226.7,-410.54 218.64,-417.42 229.23,-417.07 226.7,-410.54"/>
</a>
</g>
<text text-anchor="start" x="330" y="-407" font-family="Helvetica,sans-Serif" font-size="10.00" fill="grey">ptr</text>
</g>
<!-- Node21 -->
<g id="Node000021" class="node">
<title>Node21</title>
<g id="a_Node000021"><a xlink:href="classamr__wind_1_1_field_fill_patch_ops.html" target="_top" xlink:title=" ">
<polygon fill="white" stroke="#666666" points="1938,-324.5 1804,-324.5 1804,-294.5 1938,-294.5 1938,-324.5"/>
<text text-anchor="start" x="1812" y="-312.5" font-family="Helvetica,sans-Serif" font-size="10.00">amr_wind::FieldFillPatch</text>
<text text-anchor="middle" x="1871" y="-301.5" font-family="Helvetica,sans-Serif" font-size="10.00">Ops&lt; BCOpCreator &gt;</text>
</a>
</g>
</g>
<!-- Node3&#45;&gt;Node21 -->
<g id="edge28_Node000021_Node000003" class="edge">
<title>Node3&#45;&gt;Node21</title>
<g id="a_edge28_Node000021_Node000003"><a xlink:title=" ">
<path fill="none" stroke="#63b8ff" d="M261.37,-432.5C326.51,-432.5 422.66,-432.5 506.5,-432.5 506.5,-432.5 506.5,-432.5 1334,-432.5 1473.75,-432.5 1501.33,-381.99 1637,-348.5 1667.81,-340.89 1746.51,-328.23 1803.95,-319.41"/>
<polygon fill="#63b8ff" stroke="#63b8ff" points="261.19,-429 251.19,-432.5 261.19,-436 261.19,-429"/>
</a>
</g>
</g>
<!-- Node4 -->
<g id="Node000004" class="node">
<title>Node4</title>
<g id="a_Node000004"><a xlink:href="classamr__wind_1_1_sim_time.html" target="_top" xlink:title=" ">
<polygon fill="white" stroke="#666666" points="1144.5,-184 1030.5,-184 1030.5,-165 1144.5,-165 1144.5,-184"/>
<text text-anchor="middle" x="1087.5" y="-172" font-family="Helvetica,sans-Serif" font-size="10.00">amr_wind::SimTime</text>
</a>
</g>
</g>
<!-- Node4&#45;&gt;Node2 -->
<g id="edge3_Node000002_Node000004" class="edge">
<title>Node4&#45;&gt;Node2</title>
<g id="a_edge3_Node000002_Node000004"><a xlink:title=" ">
<path fill="none" stroke="#9a32cd" stroke-dasharray="5,2" d="M1154.78,-174.11C1255.33,-174.05 1452.37,-176.06 1619,-190.5 1693.7,-196.97 1713.23,-196.4 1786,-214.5 1909.45,-245.2 2049.63,-302.2 2113.28,-329.35"/>
<polygon fill="#9a32cd" stroke="#9a32cd" points="1154.76,-170.61 1144.76,-174.12 1154.77,-177.61 1154.76,-170.61"/>
</a>
</g>
<text text-anchor="start" x="1533" y="-196" font-family="Helvetica,sans-Serif" font-size="10.00" fill="grey">m_time</text>
</g>
<!-- Node4&#45;&gt;Node21 -->
<g id="edge29_Node000021_Node000004" class="edge">
<title>Node4&#45;&gt;Node21</title>
<g id="a_edge29_Node000021_Node000004"><a xlink:title=" ">
<path fill="none" stroke="#9a32cd" stroke-dasharray="5,2" d="M1136.7,-186.61C1146.72,-189.17 1157.21,-191.89 1167,-194.5 1175.02,-196.64 1176.82,-198.05 1185,-199.5 1449.18,-246.4 1533.68,-165.27 1786,-256.5 1810.32,-265.29 1834.98,-281.98 1851.23,-294.29"/>
<polygon fill="#9a32cd" stroke="#9a32cd" points="1137.43,-183.18 1126.87,-184.1 1135.7,-189.96 1137.43,-183.18"/>
</a>
</g>
<text text-anchor="start" x="1426" y="-220" font-family="Helvetica,sans-Serif" font-size="10.00" fill="grey">m_time</text>
</g>
<!-- Node23 -->
<g id="Node000023" class="node">
<title>Node23</title>
<g id="a_Node000023"><a xlink:href="classamr__wind_1_1_boundary_plane.html" target="_top" xlink:title=" ">
<polygon fill="white" stroke="#666666" points="1405,-101 1261,-101 1261,-82 1405,-82 1405,-101"/>
<text text-anchor="middle" x="1333" y="-89" font-family="Helvetica,sans-Serif" font-size="10.00">amr_wind::BoundaryPlane</text>
</a>
</g>
</g>
<!-- Node4&#45;&gt;Node23 -->
<g id="edge35_Node000023_Node000004" class="edge">
<title>Node4&#45;&gt;Node23</title>
<g id="a_edge35_Node000023_Node000004"><a xlink:title=" ">
<path fill="none" stroke="#9a32cd" stroke-dasharray="5,2" d="M1108.87,-158.79C1127.61,-145.15 1156.71,-126 1185,-115.5 1208.88,-106.64 1236.15,-101.04 1260.66,-97.51"/>
<polygon fill="#9a32cd" stroke="#9a32cd" points="1106.73,-156.02 1100.79,-164.79 1110.9,-161.64 1106.73,-156.02"/>
</a>
</g>
<text text-anchor="start" x="1195" y="-121" font-family="Helvetica,sans-Serif" font-size="10.00" fill="grey">m_time</text>
</g>
<!-- Node5 -->
<g id="Node000005" class="node">
<title>Node5</title>
<g id="a_Node000005"><a xlink:title=" ">
<polygon fill="white" stroke="#666666" points="728.5,-144 616.5,-144 616.5,-125 728.5,-125 728.5,-144"/>
<text text-anchor="middle" x="672.5" y="-132" font-family="Helvetica,sans-Serif" font-size="10.00">std::vector&lt; bool &gt;</text>
</a>
</g>
</g>
<!-- Node5&#45;&gt;Node4 -->
<g id="edge4_Node000004_Node000005" class="edge">
<title>Node5&#45;&gt;Node4</title>
<g id="a_edge4_Node000004_Node000005"><a xlink:title=" ">
<path fill="none" stroke="#9a32cd" stroke-dasharray="5,2" d="M738.97,-141.42C785.99,-146.34 850.88,-153.02 908,-158.5 948.88,-162.42 995.06,-166.56 1030.21,-169.64"/>
<polygon fill="#9a32cd" stroke="#9a32cd" points="739.23,-137.93 728.92,-140.37 738.5,-144.89 739.23,-137.93"/>
</a>
</g>
<text text-anchor="start" x="756.5" y="-163" font-family="Helvetica,sans-Serif" font-size="10.00" fill="grey">m_postprocess_enforce_dt</text>
</g>
<!-- Node6 -->
<g id="Node000006" class="node">
<title>Node6</title>
<g id="a_Node000006"><a xlink:title=" ">
<polygon fill="white" stroke="#666666" points="385.5,-228 288.5,-228 288.5,-209 385.5,-209 385.5,-228"/>
<text text-anchor="middle" x="337" y="-216" font-family="Helvetica,sans-Serif" font-size="10.00">std::vector&lt; T &gt;</text>
</a>
</g>
</g>
<!-- Node6&#45;&gt;Node5 -->
<g id="edge5_Node000005_Node000006" class="edge">
<title>Node6&#45;&gt;Node5</title>
<g id="a_edge5_Node000005_Node000006"><a xlink:title=" ">
<path fill="none" stroke="orange" stroke-dasharray="5,2" d="M396.09,-216.6C449.45,-212.85 529.49,-202.07 592,-171.5 601.62,-166.8 600.75,-160.89 610,-155.5 617.89,-150.9 626.95,-147.1 635.64,-144.07"/>
<polygon fill="orange" stroke="orange" points="395.54,-213.12 385.79,-217.26 395.99,-220.11 395.54,-213.12"/>
</a>
</g>
<text text-anchor="start" x="485.5" y="-220" font-family="Helvetica,sans-Serif" font-size="10.00" fill="grey">&lt; bool &gt;</text>
</g>
<!-- Node7 -->
<g id="Node000007" class="node">
<title>Node7</title>
<g id="a_Node000007"><a xlink:title=" ">
<polygon fill="white" stroke="#666666" points="29,-272 0,-272 0,-253 29,-253 29,-272"/>
<text text-anchor="middle" x="14.5" y="-260" font-family="Helvetica,sans-Serif" font-size="10.00">T</text>
</a>
</g>
</g>
<!-- Node7&#45;&gt;Node6 -->
<g id="edge6_Node000006_Node000007" class="edge">
<title>Node7&#45;&gt;Node6</title>
<g id="a_edge6_Node000006_Node000007"><a xlink:title=" ">
<path fill="none" stroke="#9a32cd" stroke-dasharray="5,2" d="M38.86,-255.98C59.32,-250.52 89.91,-242.92 117,-238.5 175.59,-228.95 243.81,-223.62 288.34,-220.91"/>
<polygon fill="#9a32cd" stroke="#9a32cd" points="37.9,-252.62 29.17,-258.62 39.73,-259.37 37.9,-252.62"/>
</a>
</g>
<text text-anchor="start" x="50" y="-259" font-family="Helvetica,sans-Serif" font-size="10.00" fill="grey">elements</text>
</g>
<!-- Node13 -->
<g id="Node000013" class="node">
<title>Node13</title>
<g id="a_Node000013"><a xlink:title=" ">
<polygon fill="white" stroke="#666666" points="564.5,-162.5 450.5,-162.5 450.5,-132.5 564.5,-132.5 564.5,-162.5"/>
<text text-anchor="start" x="458.5" y="-150.5" font-family="Helvetica,sans-Serif" font-size="10.00">std::unordered_map</text>
<text text-anchor="middle" x="507.5" y="-139.5" font-family="Helvetica,sans-Serif" font-size="10.00">&lt; K, T &gt;</text>
</a>
</g>
</g>
<!-- Node7&#45;&gt;Node13 -->
<g id="edge14_Node000013_Node000007" class="edge">
<title>Node7&#45;&gt;Node13</title>
<g id="a_edge14_Node000013_Node000007"><a xlink:title=" ">
<path fill="none" stroke="#9a32cd" stroke-dasharray="5,2" d="M35.06,-246.71C38.92,-243.84 43.02,-240.98 47,-238.5 76.52,-220.1 83.8,-213.89 117,-203.5 132.73,-198.58 346.12,-169.25 450.2,-155.11"/>
<polygon fill="#9a32cd" stroke="#9a32cd" points="32.88,-243.97 27.09,-252.84 37.15,-249.51 32.88,-243.97"/>
</a>
</g>
<text text-anchor="start" x="161" y="-209" font-family="Helvetica,sans-Serif" font-size="10.00" fill="grey">elements</text>
</g>
<!-- Node18 -->
<g id="Node000018" class="node">
<title>Node18</title>
<g id="a_Node000018"><a xlink:title=" ">
<polygon fill="white" stroke="#666666" points="243,-355 125,-355 125,-336 243,-336 243,-355"/>
<text text-anchor="middle" x="184" y="-343" font-family="Helvetica,sans-Serif" font-size="10.00">std::unique_ptr&lt; T &gt;</text>
</a>
</g>
</g>
<!-- Node7&#45;&gt;Node18 -->
<g id="edge22_Node000018_Node000007" class="edge">
<title>Node7&#45;&gt;Node18</title>
<g id="a_edge22_Node000018_Node000007"><a xlink:title=" ">
<path fill="none" stroke="#9a32cd" stroke-dasharray="5,2" d="M20.52,-282.1C25.1,-295.88 33.29,-313.56 47,-323.5 69.27,-339.64 98.98,-345.72 124.94,-347.52"/>
<polygon fill="#9a32cd" stroke="#9a32cd" points="23.76,-280.72 17.59,-272.11 17.05,-282.69 23.76,-280.72"/>
</a>
</g>
<text text-anchor="start" x="66" y="-349" font-family="Helvetica,sans-Serif" font-size="10.00" fill="grey">ptr</text>
</g>
<!-- Node19 -->
<g id="Node000019" class="node">
<title>Node19</title>
<g id="a_Node000019"><a xlink:title=" ">
<polygon fill="white" stroke="#666666" points="396,-319 278,-319 278,-300 396,-300 396,-319"/>
<text text-anchor="middle" x="337" y="-307" font-family="Helvetica,sans-Serif" font-size="10.00">std::shared_ptr&lt; T &gt;</text>
</a>
</g>
</g>
<!-- Node7&#45;&gt;Node19 -->
<g id="edge24_Node000019_Node000007" class="edge">
<title>Node7&#45;&gt;Node19</title>
<g id="a_edge24_Node000019_Node000007"><a xlink:title=" ">
<path fill="none" stroke="#9a32cd" stroke-dasharray="5,2" d="M38.72,-271.92C41.49,-272.87 44.29,-273.76 47,-274.5 77.45,-282.82 85.73,-282.18 117,-286.5 171.34,-294 233.58,-300.32 277.78,-304.43"/>
<polygon fill="#9a32cd" stroke="#9a32cd" points="39.7,-268.55 29.11,-268.35 37.26,-275.11 39.7,-268.55"/>
</a>
</g>
<text text-anchor="start" x="66" y="-289" font-family="Helvetica,sans-Serif" font-size="10.00" fill="grey">ptr</text>
</g>
<!-- Node8 -->
<g id="Node000008" class="node">
<title>Node8</title>
<g id="a_Node000008"><a xlink:href="classamr__wind_1_1_field.html" target="_top" xlink:title=" ">
<polygon fill="white" stroke="#666666" points="1380,-319 1286,-319 1286,-300 1380,-300 1380,-319"/>
<text text-anchor="middle" x="1333" y="-307" font-family="Helvetica,sans-Serif" font-size="10.00">amr_wind::Field</text>
</a>
</g>
</g>
<!-- Node8&#45;&gt;Node2 -->
<g id="edge7_Node000002_Node000008" class="edge">
<title>Node8&#45;&gt;Node2</title>
<g id="a_edge7_Node000002_Node000008"><a xlink:title=" ">
<path fill="none" stroke="#9a32cd" stroke-dasharray="5,2" d="M1390.23,-318.89C1418.57,-323.22 1453.52,-327.96 1485,-330.5 1693.9,-347.38 1746.48,-348.39 1956,-353.5 2003.54,-354.66 2015.51,-356.01 2063,-353.5 2068.78,-353.19 2074.77,-352.77 2080.77,-352.28"/>
<polygon fill="#9a32cd" stroke="#9a32cd" points="1390.53,-315.39 1380.11,-317.32 1389.45,-322.31 1390.53,-315.39"/>
</a>
</g>
<text text-anchor="start" x="1693.5" y="-354" font-family="Helvetica,sans-Serif" font-size="10.00" fill="grey">m_field</text>
</g>
<!-- Node20 -->
<g id="Node000020" class="node">
<title>Node20</title>
<g id="a_Node000020"><a xlink:href="structamr__wind_1_1_field_b_c_dirichlet.html" target="_top" xlink:title=" ">
<polygon fill="white" stroke="#666666" points="1786,-435 1637,-435 1637,-416 1786,-416 1786,-435"/>
<text text-anchor="middle" x="1711.5" y="-423" font-family="Helvetica,sans-Serif" font-size="10.00">amr_wind::FieldBCDirichlet</text>
</a>
</g>
</g>
<!-- Node8&#45;&gt;Node20 -->
<g id="edge26_Node000020_Node000008" class="edge">
<title>Node8&#45;&gt;Node20</title>
<g id="a_edge26_Node000020_Node000008"><a xlink:title=" ">
<path fill="none" stroke="#9a32cd" stroke-dasharray="5,2" d="M1353.37,-325.6C1370.6,-339.09 1397.02,-357.8 1423,-368.5 1492.4,-397.07 1577.27,-411.64 1636.75,-418.86"/>
<polygon fill="#9a32cd" stroke="#9a32cd" points="1355.25,-322.62 1345.25,-319.1 1350.87,-328.08 1355.25,-322.62"/>
</a>
</g>
<text text-anchor="start" x="1427" y="-389" font-family="Helvetica,sans-Serif" font-size="10.00" fill="grey">m_field</text>
</g>
<!-- Node8&#45;&gt;Node21 -->
<g id="edge30_Node000021_Node000008" class="edge">
<title>Node8&#45;&gt;Node21</title>
<g id="a_edge30_Node000021_Node000008"><a xlink:title=" ">
<path fill="none" stroke="#9a32cd" stroke-dasharray="5,2" d="M1390.34,-309.5C1490.04,-309.5 1697.08,-309.5 1803.57,-309.5"/>
<polygon fill="#9a32cd" stroke="#9a32cd" points="1390.16,-306 1380.16,-309.5 1390.16,-313 1390.16,-306"/>
</a>
</g>
<text text-anchor="start" x="1534" y="-315" font-family="Helvetica,sans-Serif" font-size="10.00" fill="grey">m_field</text>
</g>
<!-- Node22 -->
<g id="Node000022" class="node">
<title>Node22</title>
<g id="a_Node000022"><a xlink:href="structamr__wind_1_1_b_c_op_creator.html" target="_top" xlink:title=" ">
<polygon fill="white" stroke="#666666" points="1619,-273.5 1485,-273.5 1485,-243.5 1619,-243.5 1619,-273.5"/>
<text text-anchor="start" x="1493" y="-261.5" font-family="Helvetica,sans-Serif" font-size="10.00">amr_wind::BCOpCreator</text>
<text text-anchor="middle" x="1552" y="-250.5" font-family="Helvetica,sans-Serif" font-size="10.00">&lt; InflowOp, WallOp &gt;</text>
</a>
</g>
</g>
<!-- Node8&#45;&gt;Node22 -->
<g id="edge32_Node000022_Node000008" class="edge">
<title>Node8&#45;&gt;Node22</title>
<g id="a_edge32_Node000022_Node000008"><a xlink:title=" ">
<path fill="none" stroke="#9a32cd" stroke-dasharray="5,2" d="M1367.55,-296.21C1384.04,-290.09 1404.33,-283.17 1423,-278.5 1442.86,-273.53 1464.77,-269.57 1484.77,-266.53"/>
<polygon fill="#9a32cd" stroke="#9a32cd" points="1365.93,-293.08 1357.82,-299.89 1368.41,-299.62 1365.93,-293.08"/>
</a>
</g>
<text text-anchor="start" x="1427" y="-284" font-family="Helvetica,sans-Serif" font-size="10.00" fill="grey">m_field</text>
</g>
<!-- Node9 -->
<g id="Node000009" class="node">
<title>Node9</title>
<g id="a_Node000009"><a xlink:href="classamr__wind_1_1_field_repo.html" target="_top" xlink:title=" ">
<polygon fill="white" stroke="#666666" points="1147,-223 1028,-223 1028,-204 1147,-204 1147,-223"/>
<text text-anchor="middle" x="1087.5" y="-211" font-family="Helvetica,sans-Serif" font-size="10.00">amr_wind::FieldRepo</text>
</a>
</g>
</g>
<!-- Node9&#45;&gt;Node8 -->
<g id="edge8_Node000008_Node000009" class="edge">
<title>Node9&#45;&gt;Node8</title>
<g id="a_edge8_Node000008_Node000009"><a xlink:title=" ">
<path fill="none" stroke="#9a32cd" stroke-dasharray="5,2" d="M1156.98,-222.63C1184.48,-227.8 1216,-235.68 1243,-247.5 1274.05,-261.09 1305.44,-286.22 1321.34,-299.94"/>
<polygon fill="#9a32cd" stroke="#9a32cd" points="1157.51,-219.16 1147.05,-220.84 1156.27,-226.05 1157.51,-219.16"/>
</a>
</g>
<text text-anchor="start" x="1196" y="-253" font-family="Helvetica,sans-Serif" font-size="10.00" fill="grey">m_repo</text>
</g>
<!-- Node9&#45;&gt;Node23 -->
<g id="edge36_Node000023_Node000009" class="edge">
<title>Node9&#45;&gt;Node23</title>
<g id="a_edge36_Node000023_Node000009"><a xlink:title=" ">
<path fill="none" stroke="#9a32cd" stroke-dasharray="5,2" d="M1143.12,-201.07C1151.26,-198.6 1159.44,-195.74 1167,-192.5 1227.5,-166.54 1292.08,-121.13 1319.03,-101.27"/>
<polygon fill="#9a32cd" stroke="#9a32cd" points="1141.91,-197.78 1133.26,-203.91 1143.84,-204.51 1141.91,-197.78"/>
</a>
</g>
<text text-anchor="start" x="1196" y="-190" font-family="Helvetica,sans-Serif" font-size="10.00" fill="grey">m_repo</text>
</g>
<!-- Node10 -->
<g id="Node000010" class="node">
<title>Node10</title>
<g id="a_Node000010"><a xlink:title=" ">
<polygon fill="white" stroke="#666666" points="882.5,-228.5 760.5,-228.5 760.5,-198.5 882.5,-198.5 882.5,-228.5"/>
<text text-anchor="start" x="768.5" y="-216.5" font-family="Helvetica,sans-Serif" font-size="10.00">std::unordered_map</text>
<text text-anchor="middle" x="821.5" y="-205.5" font-family="Helvetica,sans-Serif" font-size="10.00">&lt; std::string, size_t &gt;</text>
</a>
</g>
</g>
<!-- Node10&#45;&gt;Node9 -->
<g id="edge9_Node000009_Node000010" class="edge">
<title>Node10&#45;&gt;Node9</title>
<g id="a_edge9_Node000009_Node000010"><a xlink:title=" ">
<path fill="none" stroke="#9a32cd" stroke-dasharray="5,2" d="M892.93,-213.5C935.08,-213.5 988.03,-213.5 1027.89,-213.5"/>
<polygon fill="#9a32cd" stroke="#9a32cd" points="892.74,-210 882.74,-213.5 892.74,-217 892.74,-210"/>
</a>
</g>
<text text-anchor="start" x="913" y="-234.5" font-family="Helvetica,sans-Serif" font-size="10.00" fill="grey">m_fid_map</text>
<text text-anchor="start" x="913" y="-219.5" font-family="Helvetica,sans-Serif" font-size="10.00" fill="grey">m_int_fid_map</text>
</g>
<!-- Node11 -->
<g id="Node000011" class="node">
<title>Node11</title>
<g id="a_Node000011"><a xlink:title=" ">
<polygon fill="white" stroke="#666666" points="540,-272 475,-272 475,-253 540,-253 540,-272"/>
<text text-anchor="middle" x="507.5" y="-260" font-family="Helvetica,sans-Serif" font-size="10.00">std::string</text>
</a>
</g>
</g>
<!-- Node11&#45;&gt;Node8 -->
<g id="edge15_Node000008_Node000011" class="edge">
<title>Node11&#45;&gt;Node8</title>
<g id="a_edge15_Node000008_Node000011"><a xlink:title=" ">
<path fill="none" stroke="#9a32cd" stroke-dasharray="5,2" d="M550.3,-264.89C689.94,-272.86 1139.74,-298.53 1285.75,-306.86"/>
<polygon fill="#9a32cd" stroke="#9a32cd" points="550.21,-261.37 540.03,-264.3 549.81,-268.36 550.21,-261.37"/>
</a>
</g>
<text text-anchor="start" x="928" y="-295" font-family="Helvetica,sans-Serif" font-size="10.00" fill="grey">m_name</text>
</g>
<!-- Node11&#45;&gt;Node10 -->
<g id="edge10_Node000010_Node000011" class="edge">
<title>Node11&#45;&gt;Node10</title>
<g id="a_edge10_Node000010_Node000011"><a xlink:title=" ">
<path fill="none" stroke="#9a32cd" stroke-dasharray="5,2" d="M550.47,-254.22C568.73,-250.73 590.39,-246.73 610,-243.5 660.45,-235.19 717.92,-227.09 760.05,-221.41"/>
<polygon fill="#9a32cd" stroke="#9a32cd" points="549.59,-250.82 540.44,-256.15 550.92,-257.7 549.59,-250.82"/>
</a>
</g>
<text text-anchor="start" x="661.5" y="-249" font-family="Helvetica,sans-Serif" font-size="10.00" fill="grey">keys</text>
</g>
<!-- Node16 -->
<g id="Node000016" class="node">
<title>Node16</title>
<g id="a_Node000016"><a xlink:href="structamr__wind_1_1_field_info.html" target="_top" xlink:title=" ">
<polygon fill="white" stroke="#666666" points="878,-395 765,-395 765,-376 878,-376 878,-395"/>
<text text-anchor="middle" x="821.5" y="-383" font-family="Helvetica,sans-Serif" font-size="10.00">amr_wind::FieldInfo</text>
</a>
</g>
</g>
<!-- Node11&#45;&gt;Node16 -->
<g id="edge18_Node000016_Node000011" class="edge">
<title>Node11&#45;&gt;Node16</title>
<g id="a_edge18_Node000016_Node000011"><a xlink:title=" ">
<path fill="none" stroke="#9a32cd" stroke-dasharray="5,2" d="M550.21,-272.35C568.52,-276.58 590.29,-281.45 610,-285.5 665.34,-296.86 684.32,-283.55 735,-308.5 768.87,-325.18 799.33,-359.2 812.96,-375.87"/>
<polygon fill="#9a32cd" stroke="#9a32cd" points="550.96,-268.94 540.43,-270.09 549.38,-275.76 550.96,-268.94"/>
</a>
</g>
<text text-anchor="start" x="639.5" y="-314" font-family="Helvetica,sans-Serif" font-size="10.00" fill="grey">m_basename</text>
</g>
<!-- Node11&#45;&gt;Node23 -->
<g id="edge37_Node000023_Node000011" class="edge">
<title>Node11&#45;&gt;Node23</title>
<g id="a_edge37_Node000023_Node000011"><a xlink:title=" ">
<path fill="none" stroke="#9a32cd" stroke-dasharray="5,2" d="M550.23,-256.88C565.03,-253.02 580.77,-246.5 592,-235.5 609.47,-218.38 590.81,-198.66 610,-183.5 659.07,-144.74 829.55,-171.51 890,-155.5 898.46,-153.26 899.63,-150.07 908,-147.5 1027.57,-110.72 1060.65,-111.19 1185,-97.5 1209.63,-94.79 1236.7,-93.27 1260.82,-92.43"/>
<polygon fill="#9a32cd" stroke="#9a32cd" points="549.19,-253.53 540.21,-259.16 550.74,-260.36 549.19,-253.53"/>
</a>
</g>
<text text-anchor="start" x="920" y="-198.5" font-family="Helvetica,sans-Serif" font-size="10.00" fill="grey">m_filename</text>
<text text-anchor="start" x="920" y="-183.5" font-family="Helvetica,sans-Serif" font-size="10.00" fill="grey">m_out_fmt</text>
<text text-anchor="start" x="920" y="-168.5" font-family="Helvetica,sans-Serif" font-size="10.00" fill="grey">m_time_file</text>
<text text-anchor="start" x="920" y="-153.5" font-family="Helvetica,sans-Serif" font-size="10.00" fill="grey">m_title</text>
</g>
<!-- Node12 -->
<g id="Node000012" class="node">
<title>Node12</title>
<g id="a_Node000012"><a xlink:title=" ">
<polygon fill="white" stroke="#666666" points="236,-277.5 132,-277.5 132,-247.5 236,-247.5 236,-277.5"/>
<text text-anchor="start" x="140" y="-265.5" font-family="Helvetica,sans-Serif" font-size="10.00">std::basic_string&lt;</text>
<text text-anchor="middle" x="184" y="-254.5" font-family="Helvetica,sans-Serif" font-size="10.00"> Char &gt;</text>
</a>
</g>
</g>
<!-- Node12&#45;&gt;Node11 -->
<g id="edge11_Node000011_Node000012" class="edge">
<title>Node12&#45;&gt;Node11</title>
<g id="a_edge11_Node000011_Node000012"><a xlink:title=" ">
<path fill="none" stroke="#63b8ff" d="M246.48,-262.5C314.65,-262.5 421.98,-262.5 474.88,-262.5"/>
<polygon fill="#63b8ff" stroke="#63b8ff" points="246.3,-259 236.3,-262.5 246.3,-266 246.3,-259"/>
</a>
</g>
</g>
<!-- Node13&#45;&gt;Node10 -->
<g id="edge12_Node000010_Node000013" class="edge">
<title>Node13&#45;&gt;Node10</title>
<g id="a_edge12_Node000010_Node000013"><a xlink:title=" ">
<path fill="none" stroke="orange" stroke-dasharray="5,2" d="M574.62,-161.49C629.56,-173.11 707.06,-189.5 760.29,-200.76"/>
<polygon fill="orange" stroke="orange" points="575.15,-158.02 564.64,-159.38 573.7,-164.87 575.15,-158.02"/>
</a>
</g>
<text text-anchor="start" x="619.5" y="-200" font-family="Helvetica,sans-Serif" font-size="10.00" fill="grey">&lt; std::string, size_t &gt;</text>
</g>
<!-- Node26 -->
<g id="Node000026" class="node">
<title>Node26</title>
<g id="a_Node000026"><a xlink:title=" ">
<polygon fill="white" stroke="#666666" points="878.5,-53.5 764.5,-53.5 764.5,-23.5 878.5,-23.5 878.5,-53.5"/>
<text text-anchor="start" x="772.5" y="-41.5" font-family="Helvetica,sans-Serif" font-size="10.00">std::unordered_map</text>
<text text-anchor="middle" x="821.5" y="-30.5" font-family="Helvetica,sans-Serif" font-size="10.00">&lt; int, int &gt;</text>
</a>
</g>
</g>
<!-- Node13&#45;&gt;Node26 -->
<g id="edge40_Node000026_Node000013" class="edge">
<title>Node13&#45;&gt;Node26</title>
<g id="a_edge40_Node000026_Node000013"><a xlink:title=" ">
<path fill="none" stroke="orange" stroke-dasharray="5,2" d="M545.27,-127.85C564.26,-118.2 588,-106.88 610,-98.5 661.14,-79.03 721.35,-62.48 764.25,-51.73"/>
<polygon fill="orange" stroke="orange" points="543.65,-124.75 536.36,-132.44 546.86,-130.98 543.65,-124.75"/>
</a>
</g>
<text text-anchor="start" x="645.5" y="-104" font-family="Helvetica,sans-Serif" font-size="10.00" fill="grey">&lt; int, int &gt;</text>
</g>
<!-- Node14 -->
<g id="Node000014" class="node">
<title>Node14</title>
<g id="a_Node000014"><a xlink:title=" ">
<polygon fill="white" stroke="#666666" points="198.5,-138 169.5,-138 169.5,-119 198.5,-119 198.5,-138"/>
<text text-anchor="middle" x="184" y="-126" font-family="Helvetica,sans-Serif" font-size="10.00">K</text>
</a>
</g>
</g>
<!-- Node14&#45;&gt;Node13 -->
<g id="edge13_Node000013_Node000014" class="edge">
<title>Node14&#45;&gt;Node13</title>
<g id="a_edge13_Node000013_Node000014"><a xlink:title=" ">
<path fill="none" stroke="#9a32cd" stroke-dasharray="5,2" d="M208.81,-129.91C259.5,-132.9 379.24,-139.98 450.45,-144.19"/>
<polygon fill="#9a32cd" stroke="#9a32cd" points="209,-126.41 198.81,-129.32 208.59,-133.4 209,-126.41"/>
</a>
</g>
<text text-anchor="start" x="326" y="-147" font-family="Helvetica,sans-Serif" font-size="10.00" fill="grey">keys</text>
</g>
<!-- Node15 -->
<g id="Node000015" class="node">
<title>Node15</title>
<g id="a_Node000015"><a xlink:title=" ">
<polygon fill="white" stroke="#666666" points="1147.5,-362.5 1027.5,-362.5 1027.5,-332.5 1147.5,-332.5 1147.5,-362.5"/>
<text text-anchor="start" x="1035.5" y="-350.5" font-family="Helvetica,sans-Serif" font-size="10.00">std::shared_ptr&lt; amr</text>
<text text-anchor="middle" x="1087.5" y="-339.5" font-family="Helvetica,sans-Serif" font-size="10.00">_wind::FieldInfo &gt;</text>
</a>
</g>
</g>
<!-- Node15&#45;&gt;Node8 -->
<g id="edge16_Node000008_Node000015" class="edge">
<title>Node15&#45;&gt;Node8</title>
<g id="a_edge16_Node000008_Node000015"><a xlink:title=" ">
<path fill="none" stroke="#9a32cd" stroke-dasharray="5,2" d="M1157.7,-336.7C1198.77,-330.29 1249.71,-322.34 1285.9,-316.69"/>
<polygon fill="#9a32cd" stroke="#9a32cd" points="1157.1,-333.25 1147.76,-338.25 1158.18,-340.17 1157.1,-333.25"/>
</a>
</g>
<text text-anchor="start" x="1197" y="-337" font-family="Helvetica,sans-Serif" font-size="10.00" fill="grey">m_info</text>
</g>
<!-- Node16&#45;&gt;Node15 -->
<g id="edge17_Node000015_Node000016" class="edge">
<title>Node16&#45;&gt;Node15</title>
<g id="a_edge17_Node000015_Node000016"><a xlink:title=" ">
<path fill="none" stroke="#9a32cd" stroke-dasharray="5,2" d="M888.53,-376.07C919.37,-371.65 956.56,-366.32 990,-361.5 1002.06,-359.76 1014.98,-357.89 1027.3,-356.1"/>
<polygon fill="#9a32cd" stroke="#9a32cd" points="887.74,-372.64 878.34,-377.52 888.73,-379.57 887.74,-372.64"/>
</a>
</g>
<text text-anchor="start" x="942" y="-378" font-family="Helvetica,sans-Serif" font-size="10.00" fill="grey">ptr</text>
</g>
<!-- Node17&#45;&gt;Node16 -->
<g id="edge19_Node000016_Node000017" class="edge">
<title>Node17&#45;&gt;Node16</title>
<g id="a_edge19_Node000016_Node000017"><a xlink:title=" ">
<path fill="none" stroke="#9a32cd" stroke-dasharray="5,2" d="M602.2,-388.3C655.19,-387.62 719.65,-386.79 764.74,-386.21"/>
<polygon fill="#9a32cd" stroke="#9a32cd" points="602.06,-384.8 592.11,-388.43 602.15,-391.8 602.06,-384.8"/>
</a>
</g>
<text text-anchor="start" x="636.5" y="-393" font-family="Helvetica,sans-Serif" font-size="10.00" fill="grey">m_fillpatch_op</text>
</g>
<!-- Node18&#45;&gt;Node17 -->
<g id="edge21_Node000017_Node000018" class="edge">
<title>Node18&#45;&gt;Node17</title>
<g id="a_edge21_Node000017_Node000018"><a xlink:title=" ">
<path fill="none" stroke="orange" stroke-dasharray="5,2" d="M253.38,-339.81C297.34,-338 355.31,-339.05 405,-351.5 413.68,-353.67 414.76,-357.03 423,-360.5 434.74,-365.45 447.64,-370.24 459.72,-374.45"/>
<polygon fill="orange" stroke="orange" points="253.19,-336.32 243.37,-340.29 253.52,-343.31 253.19,-336.32"/>
</a>
</g>
<text text-anchor="start" x="272" y="-372.5" font-family="Helvetica,sans-Serif" font-size="10.00" fill="grey">&lt; amr_wind::FieldFillPatch</text>
<text text-anchor="start" x="272" y="-357.5" font-family="Helvetica,sans-Serif" font-size="10.00" fill="grey">  OpsBase &gt;</text>
</g>
<!-- Node19&#45;&gt;Node15 -->
<g id="edge23_Node000015_Node000019" class="edge">
<title>Node19&#45;&gt;Node15</title>
<g id="a_edge23_Node000015_Node000019"><a xlink:title=" ">
<path fill="none" stroke="orange" stroke-dasharray="5,2" d="M406.41,-313.76C461.41,-317.13 540.66,-321.86 610,-325.5 760.31,-333.39 937.37,-341.17 1027.43,-345.01"/>
<polygon fill="orange" stroke="orange" points="406.28,-310.25 396.09,-313.13 405.86,-317.24 406.28,-310.25"/>
</a>
</g>
<text text-anchor="start" x="613.5" y="-337" font-family="Helvetica,sans-Serif" font-size="10.00" fill="grey">&lt; amr_wind::FieldInfo &gt;</text>
</g>
<!-- Node20&#45;&gt;Node2 -->
<g id="edge25_Node000002_Node000020" class="edge">
<title>Node20&#45;&gt;Node2</title>
<g id="a_edge25_Node000002_Node000020"><a xlink:title=" ">
<path fill="none" stroke="#9a32cd" stroke-dasharray="5,2" d="M1796.53,-421.69C1868.37,-416.84 1973.93,-405.93 2063,-381.5 2082.25,-376.22 2102.79,-367.37 2118.86,-359.66"/>
<polygon fill="#9a32cd" stroke="#9a32cd" points="1795.94,-418.22 1786.18,-422.36 1796.39,-425.21 1795.94,-418.22"/>
</a>
</g>
<text text-anchor="start" x="1857" y="-426" font-family="Helvetica,sans-Serif" font-size="10.00" fill="grey">m_op</text>
</g>
<!-- Node21&#45;&gt;Node2 -->
<g id="edge27_Node000002_Node000021" class="edge">
<title>Node21&#45;&gt;Node2</title>
<g id="a_edge27_Node000002_Node000021"><a xlink:title=" ">
<path fill="none" stroke="orange" stroke-dasharray="5,2" d="M1948.2,-319.16C1989.82,-324.44 2040.9,-330.92 2080.99,-336"/>
<polygon fill="orange" stroke="orange" points="1948.47,-315.67 1938.11,-317.88 1947.59,-322.61 1948.47,-315.67"/>
</a>
</g>
<text text-anchor="start" x="1959.5" y="-338" font-family="Helvetica,sans-Serif" font-size="10.00" fill="grey">&lt; FieldBCDirichlet &gt;</text>
</g>
<!-- Node22&#45;&gt;Node21 -->
<g id="edge31_Node000021_Node000022" class="edge">
<title>Node22&#45;&gt;Node21</title>
<g id="a_edge31_Node000021_Node000022"><a xlink:title=" ">
<path fill="none" stroke="#9a32cd" stroke-dasharray="5,2" d="M1629.41,-259.91C1675.28,-262.03 1734.52,-267.01 1786,-278.5 1802.69,-282.22 1820.54,-288.47 1835.48,-294.39"/>
<polygon fill="#9a32cd" stroke="#9a32cd" points="1629.39,-256.41 1619.25,-259.48 1629.09,-263.4 1629.39,-256.41"/>
</a>
</g>
<text text-anchor="start" x="1697.5" y="-284" font-family="Helvetica,sans-Serif" font-size="10.00" fill="grey">m_op</text>
</g>
<!-- Node23&#45;&gt;Node1 -->
<g id="edge33_Node000001_Node000023" class="edge">
<title>Node23&#45;&gt;Node1</title>
<g id="a_edge33_Node000001_Node000023"><a xlink:title=" ">
<path fill="none" stroke="#9a32cd" stroke-dasharray="5,2" d="M1415.41,-99.24C1456.09,-102.48 1506.1,-105.5 1551,-105.5 1551,-105.5 1551,-105.5 2150,-105.5 2184.27,-105.5 2222.26,-107.86 2253.93,-110.48"/>
<polygon fill="#9a32cd" stroke="#9a32cd" points="1415.52,-95.74 1405.27,-98.42 1414.95,-102.72 1415.52,-95.74"/>
</a>
</g>
<text text-anchor="start" x="1833" y="-111" font-family="Helvetica,sans-Serif" font-size="10.00" fill="grey">m_bndry_plane</text>
</g>
<!-- Node24 -->
<g id="Node000024" class="node">
<title>Node24</title>
<g id="a_Node000024"><a xlink:title=" ">
<polygon fill="white" stroke="#666666" points="1167,-67.5 1008,-67.5 1008,-37.5 1167,-37.5 1167,-67.5"/>
<text text-anchor="start" x="1016" y="-55.5" font-family="Helvetica,sans-Serif" font-size="10.00">amr_wind::FieldBoundary</text>
<text text-anchor="middle" x="1087.5" y="-44.5" font-family="Helvetica,sans-Serif" font-size="10.00">::Register&lt; BoundaryPlane &gt;</text>
</a>
</g>
</g>
<!-- Node24&#45;&gt;Node23 -->
<g id="edge34_Node000023_Node000024" class="edge">
<title>Node24&#45;&gt;Node23</title>
<g id="a_edge34_Node000023_Node000024"><a xlink:title=" ">
<path fill="none" stroke="#63b8ff" d="M1177.21,-58.56C1198.83,-60.74 1221.83,-63.65 1243,-67.5 1262.68,-71.08 1284.36,-76.89 1301.4,-81.89"/>
<polygon fill="#63b8ff" stroke="#63b8ff" points="1177.34,-55.05 1167.05,-57.58 1176.67,-62.02 1177.34,-55.05"/>
</a>
</g>
</g>
<!-- Node25 -->
<g id="Node000025" class="node">
<title>Node25</title>
<g id="a_Node000025"><a xlink:href="classamr__wind_1_1_inlet_data.html" target="_top" xlink:title=" ">
<polygon fill="white" stroke="#666666" points="1145.5,-19 1029.5,-19 1029.5,0 1145.5,0 1145.5,-19"/>
<text text-anchor="middle" x="1087.5" y="-7" font-family="Helvetica,sans-Serif" font-size="10.00">amr_wind::InletData</text>
</a>
</g>
</g>
<!-- Node25&#45;&gt;Node23 -->
<g id="edge38_Node000023_Node000025" class="edge">
<title>Node25&#45;&gt;Node23</title>
<g id="a_edge38_Node000023_Node000025"><a xlink:title=" ">
<path fill="none" stroke="#9a32cd" stroke-dasharray="5,2" d="M1155.52,-17.47C1183.19,-22.05 1215.22,-29.03 1243,-39.5 1271.8,-50.35 1302.08,-70.09 1318.85,-81.88"/>
<polygon fill="#9a32cd" stroke="#9a32cd" points="1155.96,-14 1145.54,-15.89 1154.87,-20.91 1155.96,-14"/>
</a>
</g>
<text text-anchor="start" x="1188" y="-45" font-family="Helvetica,sans-Serif" font-size="10.00" fill="grey">m_in_data</text>
</g>
<!-- Node26&#45;&gt;Node25 -->
<g id="edge39_Node000025_Node000026" class="edge">
<title>Node26&#45;&gt;Node25</title>
<g id="a_edge39_Node000025_Node000026"><a xlink:title=" ">
<path fill="none" stroke="#9a32cd" stroke-dasharray="5,2" d="M888.96,-31.2C932.23,-26.45 988.09,-20.31 1029.37,-15.78"/>
<polygon fill="#9a32cd" stroke="#9a32cd" points="888.37,-27.74 878.81,-32.31 889.13,-34.7 888.37,-27.74"/>
</a>
</g>
<text text-anchor="start" x="911" y="-34" font-family="Helvetica,sans-Serif" font-size="10.00" fill="grey">m_components</text>
</g>
</g>
</svg>

<g id="navigator" transform="translate(0 0)" fill="#404254">
  <rect fill="#f2f5e9" fill-opacity="0.5" stroke="#606060" stroke-width=".5" x="0" y="0" width="60" height="60"/>
  <use id="zoomplus" xlink:href="#zoomPlus" x="17" y="9" onmousedown="handleZoom(evt,'in')"/>
  <use id="zoomminus" xlink:href="#zoomMin" x="42" y="9" onmousedown="handleZoom(evt,'out')"/>
  <use id="reset" xlink:href="#resetDef" x="30" y="36" onmousedown="handleReset()"/>
   <use id="arrowup" xlink:href="#arrowUp" x="0" y="0" onmousedown="handlePan(0,-1)"/>
  <use id="arrowright" xlink:href="#arrowRight" x="0" y="0" onmousedown="handlePan(1,0)"/>
  <use id="arrowdown" xlink:href="#arrowDown" x="0" y="0" onmousedown="handlePan(0,1)"/>
  <use id="arrowleft" xlink:href="#arrowLeft" x="0" y="0" onmousedown="handlePan(-1,0)"/>
</g>
<svg viewBox="0 0 15 15" width="100%" height="30px" preserveAspectRatio="xMaxYMin meet">
 <g id="arrow_out" transform="scale(0.3 0.3)">
  <a xlink:href="classamr__wind_1_1_plane_fill_inflow__coll__graph_org.svg" target="_base">
   <rect id="button" ry="5" rx="5" y="6" x="6" height="38" width="38"
        fill="#f2f5e9" fill-opacity="0.5" stroke="#606060" stroke-width="1.0"/>
   <path id="arrow"
     d="M 11.500037,31.436501 C 11.940474,20.09759 22.043105,11.32322 32.158766,21.979434 L 37.068811,17.246167 C 37.068811,17.246167 37.088388,32 37.088388,32 L 22.160133,31.978069 C 22.160133,31.978069 26.997745,27.140456 26.997745,27.140456 C 18.528582,18.264221 13.291696,25.230495 11.500037,31.436501 z"
     style="fill:#404040;"/>
  </a>
 </g>
</svg>

<style type='text/css'>
<![CDATA[
[data-mouse-over-selected='false'] { opacity: 0.7; }
[data-mouse-over-selected='true']  { opacity: 1.0; }
]]>
</style>
<script type="application/ecmascript"><![CDATA[
document.addEventListener('DOMContentLoaded', (event) => {
  highlightEdges();
  highlightAdjacentNodes();
});
]]></script>
</svg>
