<?xml version="1.0" encoding="UTF-8" standalone="no"?>
<!DOCTYPE svg PUBLIC "-//W3C//DTD SVG 1.1//EN"
 "http://www.w3.org/Graphics/SVG/1.1/DTD/svg11.dtd">
<!-- Generated by graphviz version 2.43.0 (0)
 -->
<!-- Title: amr_wind::BoundaryPlane Pages: 1 -->
<svg width="1154pt" height="241pt"
 viewBox="0.00 0.00 1154.00 241.00" xmlns="http://www.w3.org/2000/svg" xmlns:xlink="http://www.w3.org/1999/xlink">
<g id="graph0" class="graph" transform="scale(1 1) rotate(0) translate(4 237)">
<title>amr_wind::BoundaryPlane</title>
<!-- Node1 -->
<g id="Node000001" class="node">
<title>Node1</title>
<g id="a_Node000001"><a xlink:title=" ">
<polygon fill="#999999" stroke="#666666" points="1146,-144.5 1002,-144.5 1002,-125.5 1146,-125.5 1146,-144.5"/>
<text text-anchor="middle" x="1074" y="-132.5" font-family="Helvetica,sans-Serif" font-size="10.00">amr_wind::BoundaryPlane</text>
</a>
</g>
</g>
<!-- Node2 -->
<g id="Node000002" class="node">
<title>Node2</title>
<g id="a_Node000002"><a xlink:title=" ">
<polygon fill="white" stroke="#666666" points="908,-233 749,-233 749,-203 908,-203 908,-233"/>
<text text-anchor="start" x="757" y="-221" font-family="Helvetica,sans-Serif" font-size="10.00">amr_wind::FieldBoundary</text>
<text text-anchor="middle" x="828.5" y="-210" font-family="Helvetica,sans-Serif" font-size="10.00">::Register&lt; BoundaryPlane &gt;</text>
</a>
</g>
</g>
<!-- Node2&#45;&gt;Node1 -->
<g id="edge1_Node000001_Node000002" class="edge">
<title>Node2&#45;&gt;Node1</title>
<g id="a_edge1_Node000001_Node000002"><a xlink:title=" ">
<path fill="none" stroke="#63b8ff" d="M918.02,-201.49C939.91,-196.29 963.08,-189.81 984,-182 1011.17,-171.85 1040.53,-155.1 1057.81,-144.58"/>
<polygon fill="#63b8ff" stroke="#63b8ff" points="917.02,-198.13 908.06,-203.79 918.6,-204.95 917.02,-198.13"/>
</a>
</g>
</g>
<!-- Node3 -->
<g id="Node000003" class="node">
<title>Node3</title>
<g id="a_Node000003"><a xlink:href="classamr__wind_1_1_sim_time.html" target="_top" xlink:title=" ">
<polygon fill="white" stroke="#666666" points="885.5,-184.5 771.5,-184.5 771.5,-165.5 885.5,-165.5 885.5,-184.5"/>
<text text-anchor="middle" x="828.5" y="-172.5" font-family="Helvetica,sans-Serif" font-size="10.00">amr_wind::SimTime</text>
</a>
</g>
</g>
<!-- Node3&#45;&gt;Node1 -->
<g id="edge2_Node000001_Node000003" class="edge">
<title>Node3&#45;&gt;Node1</title>
<g id="a_edge2_Node000001_Node000003"><a xlink:title=" ">
<path fill="none" stroke="#9a32cd" stroke-dasharray="5,2" d="M895.99,-166.39C923.32,-162.63 955.23,-157.95 984,-153 998.45,-150.51 1014.14,-147.46 1028.28,-144.57"/>
<polygon fill="#9a32cd" stroke="#9a32cd" points="895.2,-162.97 885.76,-167.79 896.15,-169.91 895.2,-162.97"/>
</a>
</g>
<text text-anchor="start" x="936" y="-166.5" font-family="Helvetica,sans-Serif" font-size="10.00" fill="grey">m_time</text>
</g>
<!-- Node4 -->
<g id="Node000004" class="node">
<title>Node4</title>
<g id="a_Node000004"><a xlink:title=" ">
<polygon fill="white" stroke="#666666" points="571,-187.5 459,-187.5 459,-168.5 571,-168.5 571,-187.5"/>
<text text-anchor="middle" x="515" y="-175.5" font-family="Helvetica,sans-Serif" font-size="10.00">std::vector&lt; bool &gt;</text>
</a>
</g>
</g>
<!-- Node4&#45;&gt;Node3 -->
<g id="edge3_Node000003_Node000004" class="edge">
<title>Node4&#45;&gt;Node3</title>
<g id="a_edge3_Node000003_Node000004"><a xlink:title=" ">
<path fill="none" stroke="#9a32cd" stroke-dasharray="5,2" d="M581.54,-177.37C637.8,-176.83 718.02,-176.05 771.37,-175.54"/>
<polygon fill="#9a32cd" stroke="#9a32cd" points="581.3,-173.87 571.33,-177.47 581.36,-180.87 581.3,-173.87"/>
</a>
</g>
<text text-anchor="start" x="597.5" y="-182.5" font-family="Helvetica,sans-Serif" font-size="10.00" fill="grey">m_postprocess_enforce_dt</text>
</g>
<!-- Node5 -->
<g id="Node000005" class="node">
<title>Node5</title>
<g id="a_Node000005"><a xlink:title=" ">
<polygon fill="white" stroke="#666666" points="297.5,-187.5 200.5,-187.5 200.5,-168.5 297.5,-168.5 297.5,-187.5"/>
<text text-anchor="middle" x="249" y="-175.5" font-family="Helvetica,sans-Serif" font-size="10.00">std::vector&lt; T &gt;</text>
</a>
</g>
</g>
<!-- Node5&#45;&gt;Node4 -->
<g id="edge4_Node000004_Node000005" class="edge">
<title>Node5&#45;&gt;Node4</title>
<g id="a_edge4_Node000004_Node000005"><a xlink:title=" ">
<path fill="none" stroke="orange" stroke-dasharray="5,2" d="M307.66,-178C352.53,-178 414.39,-178 458.65,-178"/>
<polygon fill="orange" stroke="orange" points="307.5,-174.5 297.5,-178 307.5,-181.5 307.5,-174.5"/>
</a>
</g>
<text text-anchor="start" x="358" y="-183.5" font-family="Helvetica,sans-Serif" font-size="10.00" fill="grey">&lt; bool &gt;</text>
</g>
<!-- Node6 -->
<g id="Node000006" class="node">
<title>Node6</title>
<g id="a_Node000006"><a xlink:title=" ">
<polygon fill="white" stroke="#666666" points="66.5,-167.5 37.5,-167.5 37.5,-148.5 66.5,-148.5 66.5,-167.5"/>
<text text-anchor="middle" x="52" y="-155.5" font-family="Helvetica,sans-Serif" font-size="10.00">T</text>
</a>
</g>
</g>
<!-- Node6&#45;&gt;Node5 -->
<g id="edge5_Node000005_Node000006" class="edge">
<title>Node6&#45;&gt;Node5</title>
<g id="a_edge5_Node000005_Node000006"><a xlink:title=" ">
<path fill="none" stroke="#9a32cd" stroke-dasharray="5,2" d="M76.86,-160.45C107.43,-163.58 161.15,-169.09 200.27,-173.1"/>
<polygon fill="#9a32cd" stroke="#9a32cd" points="77.02,-156.95 66.71,-159.41 76.3,-163.91 77.02,-156.95"/>
</a>
</g>
<text text-anchor="start" x="125" y="-175.5" font-family="Helvetica,sans-Serif" font-size="10.00" fill="grey">elements</text>
</g>
<!-- Node11 -->
<g id="Node000011" class="node">
<title>Node11</title>
<g id="a_Node000011"><a xlink:title=" ">
<polygon fill="white" stroke="#666666" points="306,-131 192,-131 192,-101 306,-101 306,-131"/>
<text text-anchor="start" x="200" y="-119" font-family="Helvetica,sans-Serif" font-size="10.00">std::unordered_map</text>
<text text-anchor="middle" x="249" y="-108" font-family="Helvetica,sans-Serif" font-size="10.00">&lt; K, T &gt;</text>
</a>
</g>
</g>
<!-- Node6&#45;&gt;Node11 -->
<g id="edge12_Node000011_Node000006" class="edge">
<title>Node6&#45;&gt;Node11</title>
<g id="a_edge12_Node000011_Node000006"><a xlink:title=" ">
<path fill="none" stroke="#9a32cd" stroke-dasharray="5,2" d="M76.52,-152.93C104.87,-146.83 153.46,-136.36 191.69,-128.13"/>
<polygon fill="#9a32cd" stroke="#9a32cd" points="75.75,-149.52 66.71,-155.05 77.22,-156.36 75.75,-149.52"/>
</a>
</g>
<text text-anchor="start" x="125" y="-146.5" font-family="Helvetica,sans-Serif" font-size="10.00" fill="grey">elements</text>
</g>
<!-- Node7 -->
<g id="Node000007" class="node">
<title>Node7</title>
<g id="a_Node000007"><a xlink:href="classamr__wind_1_1_field_repo.html" target="_top" xlink:title=" ">
<polygon fill="white" stroke="#666666" points="888,-95.5 769,-95.5 769,-76.5 888,-76.5 888,-95.5"/>
<text text-anchor="middle" x="828.5" y="-83.5" font-family="Helvetica,sans-Serif" font-size="10.00">amr_wind::FieldRepo</text>
</a>
</g>
</g>
<!-- Node7&#45;&gt;Node1 -->
<g id="edge6_Node000001_Node000007" class="edge">
<title>Node7&#45;&gt;Node1</title>
<g id="a_edge6_Node000001_Node000007"><a xlink:title=" ">
<path fill="none" stroke="#9a32cd" stroke-dasharray="5,2" d="M896.35,-97.33C923.6,-102.15 955.37,-108.03 984,-114 1000.63,-117.47 1018.91,-121.7 1034.55,-125.46"/>
<polygon fill="#9a32cd" stroke="#9a32cd" points="896.6,-93.82 886.14,-95.53 895.38,-100.71 896.6,-93.82"/>
</a>
</g>
<text text-anchor="start" x="937" y="-119.5" font-family="Helvetica,sans-Serif" font-size="10.00" fill="grey">m_repo</text>
</g>
<!-- Node8 -->
<g id="Node000008" class="node">
<title>Node8</title>
<g id="a_Node000008"><a xlink:title=" ">
<polygon fill="white" stroke="#666666" points="576,-98 454,-98 454,-68 576,-68 576,-98"/>
<text text-anchor="start" x="462" y="-86" font-family="Helvetica,sans-Serif" font-size="10.00">std::unordered_map</text>
<text text-anchor="middle" x="515" y="-75" font-family="Helvetica,sans-Serif" font-size="10.00">&lt; std::string, size_t &gt;</text>
</a>
</g>
</g>
<!-- Node8&#45;&gt;Node7 -->
<g id="edge7_Node000007_Node000008" class="edge">
<title>Node8&#45;&gt;Node7</title>
<g id="a_edge7_Node000007_Node000008"><a xlink:title=" ">
<path fill="none" stroke="#9a32cd" stroke-dasharray="5,2" d="M586.36,-83.04C628.35,-83.14 682.73,-83.39 731,-84 743.23,-84.16 756.33,-84.38 768.82,-84.63"/>
<polygon fill="#9a32cd" stroke="#9a32cd" points="586.25,-79.54 576.24,-83.02 586.23,-86.54 586.25,-79.54"/>
</a>
</g>
<text text-anchor="start" x="626.5" y="-105" font-family="Helvetica,sans-Serif" font-size="10.00" fill="grey">m_fid_map</text>
<text text-anchor="start" x="626.5" y="-90" font-family="Helvetica,sans-Serif" font-size="10.00" fill="grey">m_int_fid_map</text>
</g>
<!-- Node9 -->
<g id="Node000009" class="node">
<title>Node9</title>
<g id="a_Node000009"><a xlink:title=" ">
<polygon fill="white" stroke="#666666" points="281.5,-24.5 216.5,-24.5 216.5,-5.5 281.5,-5.5 281.5,-24.5"/>
<text text-anchor="middle" x="249" y="-12.5" font-family="Helvetica,sans-Serif" font-size="10.00">std::string</text>
</a>
</g>
</g>
<!-- Node9&#45;&gt;Node1 -->
<g id="edge13_Node000001_Node000009" class="edge">
<title>Node9&#45;&gt;Node1</title>
<g id="a_edge13_Node000001_Node000009"><a xlink:title=" ">
<path fill="none" stroke="#9a32cd" stroke-dasharray="5,2" d="M291.86,-11.58C375.7,-5.54 569.98,4.39 731,-18 811.85,-29.24 830.79,-40.51 908,-67 960.9,-85.15 1021.23,-111.51 1052.21,-125.48"/>
<polygon fill="#9a32cd" stroke="#9a32cd" points="291.44,-8.1 281.72,-12.33 291.95,-15.08 291.44,-8.1"/>
</a>
</g>
<text text-anchor="start" x="633.5" y="-69" font-family="Helvetica,sans-Serif" font-size="10.00" fill="grey">m_filename</text>
<text text-anchor="start" x="633.5" y="-54" font-family="Helvetica,sans-Serif" font-size="10.00" fill="grey">m_out_fmt</text>
<text text-anchor="start" x="633.5" y="-39" font-family="Helvetica,sans-Serif" font-size="10.00" fill="grey">m_time_file</text>
<text text-anchor="start" x="633.5" y="-24" font-family="Helvetica,sans-Serif" font-size="10.00" fill="grey">m_title</text>
</g>
<!-- Node9&#45;&gt;Node8 -->
<g id="edge8_Node000008_Node000009" class="edge">
<title>Node9&#45;&gt;Node8</title>
<g id="a_edge8_Node000008_Node000009"><a xlink:title=" ">
<path fill="none" stroke="#9a32cd" stroke-dasharray="5,2" d="M291.4,-25.66C335.57,-37.04 405.87,-55.15 455.63,-67.97"/>
<polygon fill="#9a32cd" stroke="#9a32cd" points="292.14,-22.24 281.58,-23.13 290.39,-29.02 292.14,-22.24"/>
</a>
</g>
<text text-anchor="start" x="369" y="-68.5" font-family="Helvetica,sans-Serif" font-size="10.00" fill="grey">keys</text>
</g>
<!-- Node10 -->
<g id="Node000010" class="node">
<title>Node10</title>
<g id="a_Node000010"><a xlink:title=" ">
<polygon fill="white" stroke="#666666" points="104,-30 0,-30 0,0 104,0 104,-30"/>
<text text-anchor="start" x="8" y="-18" font-family="Helvetica,sans-Serif" font-size="10.00">std::basic_string&lt;</text>
<text text-anchor="middle" x="52" y="-7" font-family="Helvetica,sans-Serif" font-size="10.00"> Char &gt;</text>
</a>
</g>
</g>
<!-- Node10&#45;&gt;Node9 -->
<g id="edge9_Node000009_Node000010" class="edge">
<title>Node10&#45;&gt;Node9</title>
<g id="a_edge9_Node000009_Node000010"><a xlink:title=" ">
<path fill="none" stroke="#63b8ff" d="M114.49,-15C148.31,-15 188.85,-15 216.31,-15"/>
<polygon fill="#63b8ff" stroke="#63b8ff" points="114.23,-11.5 104.23,-15 114.23,-18.5 114.23,-11.5"/>
</a>
</g>
</g>
<!-- Node11&#45;&gt;Node8 -->
<g id="edge10_Node000008_Node000011" class="edge">
<title>Node11&#45;&gt;Node8</title>
<g id="a_edge10_Node000008_Node000011"><a xlink:title=" ">
<path fill="none" stroke="orange" stroke-dasharray="5,2" d="M315.93,-101.31C318.65,-100.84 321.35,-100.4 324,-100 367.22,-93.42 416.38,-89.11 453.87,-86.47"/>
<polygon fill="orange" stroke="orange" points="315.23,-97.88 306.03,-103.12 316.49,-104.77 315.23,-97.88"/>
</a>
</g>
<text text-anchor="start" x="327" y="-105.5" font-family="Helvetica,sans-Serif" font-size="10.00" fill="grey">&lt; std::string, size_t &gt;</text>
</g>
<!-- Node14 -->
<g id="Node000014" class="node">
<title>Node14</title>
<g id="a_Node000014"><a xlink:title=" ">
<polygon fill="white" stroke="#666666" points="572,-148 458,-148 458,-118 572,-118 572,-148"/>
<text text-anchor="start" x="466" y="-136" font-family="Helvetica,sans-Serif" font-size="10.00">std::unordered_map</text>
<text text-anchor="middle" x="515" y="-125" font-family="Helvetica,sans-Serif" font-size="10.00">&lt; int, int &gt;</text>
</a>
</g>
</g>
<!-- Node11&#45;&gt;Node14 -->
<g id="edge16_Node000014_Node000011" class="edge">
<title>Node11&#45;&gt;Node14</title>
<g id="a_edge16_Node000014_Node000011"><a xlink:title=" ">
<path fill="none" stroke="orange" stroke-dasharray="5,2" d="M316.53,-120.28C360.11,-123.09 416.44,-126.72 457.78,-129.38"/>
<polygon fill="orange" stroke="orange" points="316.52,-116.78 306.31,-119.63 316.07,-123.76 316.52,-116.78"/>
</a>
</g>
<text text-anchor="start" x="353" y="-132.5" font-family="Helvetica,sans-Serif" font-size="10.00" fill="grey">&lt; int, int &gt;</text>
</g>
<!-- Node12 -->
<g id="Node000012" class="node">
<title>Node12</title>
<g id="a_Node000012"><a xlink:title=" ">
<polygon fill="white" stroke="#666666" points="66.5,-107.5 37.5,-107.5 37.5,-88.5 66.5,-88.5 66.5,-107.5"/>
<text text-anchor="middle" x="52" y="-95.5" font-family="Helvetica,sans-Serif" font-size="10.00">K</text>
</a>
</g>
</g>
<!-- Node12&#45;&gt;Node11 -->
<g id="edge11_Node000011_Node000012" class="edge">
<title>Node12&#45;&gt;Node11</title>
<g id="a_edge11_Node000011_Node000012"><a xlink:title=" ">
<path fill="none" stroke="#9a32cd" stroke-dasharray="5,2" d="M77,-96.67C101.49,-95.67 140.53,-95.06 174,-99 179.76,-99.68 185.73,-100.62 191.66,-101.73"/>
<polygon fill="#9a32cd" stroke="#9a32cd" points="76.68,-93.18 66.85,-97.14 77,-100.17 76.68,-93.18"/>
</a>
</g>
<text text-anchor="start" x="137" y="-104.5" font-family="Helvetica,sans-Serif" font-size="10.00" fill="grey">keys</text>
</g>
<!-- Node13 -->
<g id="Node000013" class="node">
<title>Node13</title>
<g id="a_Node000013"><a xlink:href="classamr__wind_1_1_inlet_data.html" target="_top" xlink:title=" ">
<polygon fill="white" stroke="#666666" points="886.5,-145.5 770.5,-145.5 770.5,-126.5 886.5,-126.5 886.5,-145.5"/>
<text text-anchor="middle" x="828.5" y="-133.5" font-family="Helvetica,sans-Serif" font-size="10.00">amr_wind::InletData</text>
</a>
</g>
</g>
<!-- Node13&#45;&gt;Node1 -->
<g id="edge14_Node000001_Node000013" class="edge">
<title>Node13&#45;&gt;Node1</title>
<g id="a_edge14_Node000001_Node000013"><a xlink:title=" ">
<path fill="none" stroke="#9a32cd" stroke-dasharray="5,2" d="M896.94,-135.72C929.58,-135.59 968.78,-135.43 1001.89,-135.29"/>
<polygon fill="#9a32cd" stroke="#9a32cd" points="896.58,-132.22 886.59,-135.77 896.6,-139.22 896.58,-132.22"/>
</a>
</g>
<text text-anchor="start" x="929" y="-140.5" font-family="Helvetica,sans-Serif" font-size="10.00" fill="grey">m_in_data</text>
</g>
<!-- Node14&#45;&gt;Node13 -->
<g id="edge15_Node000013_Node000014" class="edge">
<title>Node14&#45;&gt;Node13</title>
<g id="a_edge15_Node000013_Node000014"><a xlink:title=" ">
<path fill="none" stroke="#9a32cd" stroke-dasharray="5,2" d="M582.2,-133.64C638.05,-134.18 717.18,-134.94 770.32,-135.45"/>
<polygon fill="#9a32cd" stroke="#9a32cd" points="582.08,-130.14 572.05,-133.54 582.02,-137.14 582.08,-130.14"/>
</a>
</g>
<text text-anchor="start" x="624.5" y="-140.5" font-family="Helvetica,sans-Serif" font-size="10.00" fill="grey">m_components</text>
</g>
</g>
</svg>
