<?xml version="1.0" encoding="UTF-8" standalone="no"?>
<!DOCTYPE svg PUBLIC "-//W3C//DTD SVG 1.1//EN"
 "http://www.w3.org/Graphics/SVG/1.1/DTD/svg11.dtd">
<!-- Generated by graphviz version 2.43.0 (0)
 -->
<!-- Title: amr_wind::FieldFillPatchOpsBase Pages: 1 -->
<svg width="779pt" height="122pt"
 viewBox="0.00 0.00 779.00 121.50" xmlns="http://www.w3.org/2000/svg" xmlns:xlink="http://www.w3.org/1999/xlink">
<g id="graph0" class="graph" transform="scale(1 1) rotate(0) translate(4 117.5)">
<title>amr_wind::FieldFillPatchOpsBase</title>
<!-- Node1 -->
<g id="Node000001" class="node">
<title>Node1</title>
<g id="a_Node000001"><a xlink:title=" ">
<polygon fill="#999999" stroke="#666666" points="134,-78 0,-78 0,-48 134,-48 134,-78"/>
<text text-anchor="start" x="8" y="-66" font-family="Helvetica,sans-Serif" font-size="10.00">amr_wind::FieldFillPatch</text>
<text text-anchor="middle" x="67" y="-55" font-family="Helvetica,sans-Serif" font-size="10.00">OpsBase</text>
</a>
</g>
</g>
<!-- Node2 -->
<g id="Node000002" class="node">
<title>Node2</title>
<g id="a_Node000002"><a xlink:href="classamr__wind_1_1_field_fill_patch_ops.html" target="_top" xlink:title=" ">
<polygon fill="white" stroke="#666666" points="586,-76 450,-76 450,-46 586,-46 586,-76"/>
<text text-anchor="start" x="458" y="-64" font-family="Helvetica,sans-Serif" font-size="10.00">amr_wind::FieldFillPatch</text>
<text text-anchor="middle" x="518" y="-53" font-family="Helvetica,sans-Serif" font-size="10.00">Ops&lt; FieldBCDirichlet &gt;</text>
</a>
</g>
</g>
<!-- Node1&#45;&gt;Node2 -->
<g id="edge1_Node000001_Node000002" class="edge">
<title>Node1&#45;&gt;Node2</title>
<g id="a_edge1_Node000001_Node000002"><a xlink:title=" ">
<path fill="none" stroke="#63b8ff" d="M132.2,-80.34C144.96,-83.11 158.33,-85.54 171,-87 267.65,-98.11 380.06,-84.86 449.87,-73.56"/>
<polygon fill="#63b8ff" stroke="#63b8ff" points="132.64,-76.85 122.12,-78.06 131.1,-83.68 132.64,-76.85"/>
</a>
</g>
</g>
<!-- Node6 -->
<g id="Node000006" class="node">
<title>Node6</title>
<g id="a_Node000006"><a xlink:href="classamr__wind_1_1_field_fill_const_scalar.html" target="_top" xlink:title=" ">
<polygon fill="white" stroke="#666666" points="307,-78 171,-78 171,-48 307,-48 307,-78"/>
<text text-anchor="start" x="179" y="-66" font-family="Helvetica,sans-Serif" font-size="10.00">amr_wind::FieldFillConst</text>
<text text-anchor="middle" x="239" y="-55" font-family="Helvetica,sans-Serif" font-size="10.00">Scalar</text>
</a>
</g>
</g>
<!-- Node1&#45;&gt;Node6 -->
<g id="edge5_Node000001_Node000006" class="edge">
<title>Node1&#45;&gt;Node6</title>
<g id="a_edge5_Node000001_Node000006"><a xlink:title=" ">
<path fill="none" stroke="#63b8ff" d="M144.46,-63C153.26,-63 162.18,-63 170.85,-63"/>
<polygon fill="#63b8ff" stroke="#63b8ff" points="144.21,-59.5 134.21,-63 144.21,-66.5 144.21,-59.5"/>
</a>
</g>
</g>
<!-- Node7 -->
<g id="Node000007" class="node">
<title>Node7</title>
<g id="a_Node000007"><a xlink:href="classamr__wind_1_1_field_fill_patch_ops.html" target="_top" xlink:title=" ">
<polygon fill="white" stroke="#666666" points="306,-30 172,-30 172,0 306,0 306,-30"/>
<text text-anchor="start" x="180" y="-18" font-family="Helvetica,sans-Serif" font-size="10.00">amr_wind::FieldFillPatch</text>
<text text-anchor="middle" x="239" y="-7" font-family="Helvetica,sans-Serif" font-size="10.00">Ops&lt; BCOpCreator &gt;</text>
</a>
</g>
</g>
<!-- Node1&#45;&gt;Node7 -->
<g id="edge6_Node000001_Node000007" class="edge">
<title>Node1&#45;&gt;Node7</title>
<g id="a_edge6_Node000001_Node000007"><a xlink:title=" ">
<path fill="none" stroke="#63b8ff" d="M131,-45.21C148.71,-40.21 167.79,-34.82 184.87,-30"/>
<polygon fill="#63b8ff" stroke="#63b8ff" points="130,-41.86 121.32,-47.94 131.9,-48.6 130,-41.86"/>
</a>
</g>
</g>
<!-- Node3 -->
<g id="Node000003" class="node">
<title>Node3</title>
<g id="a_Node000003"><a xlink:href="classamr__wind_1_1_fill_m_p_l.html" target="_top" xlink:title=" ">
<polygon fill="white" stroke="#666666" points="749.5,-113.5 644.5,-113.5 644.5,-94.5 749.5,-94.5 749.5,-113.5"/>
<text text-anchor="middle" x="697" y="-101.5" font-family="Helvetica,sans-Serif" font-size="10.00">amr_wind::FillMPL</text>
</a>
</g>
</g>
<!-- Node2&#45;&gt;Node3 -->
<g id="edge2_Node000002_Node000003" class="edge">
<title>Node2&#45;&gt;Node3</title>
<g id="a_edge2_Node000002_Node000003"><a xlink:title=" ">
<path fill="none" stroke="#63b8ff" d="M590.8,-78.44C613.35,-83.92 637.4,-89.76 656.8,-94.48"/>
<polygon fill="#63b8ff" stroke="#63b8ff" points="591.45,-75 580.91,-76.04 589.8,-81.8 591.45,-75"/>
</a>
</g>
</g>
<!-- Node4 -->
<g id="Node000004" class="node">
<title>Node4</title>
<g id="a_Node000004"><a xlink:href="classamr__wind_1_1_ocean_waves_fill_inflow.html" target="_top" xlink:title=" ">
<polygon fill="white" stroke="#666666" points="771,-76 623,-76 623,-46 771,-46 771,-76"/>
<text text-anchor="start" x="631" y="-64" font-family="Helvetica,sans-Serif" font-size="10.00">amr_wind::OceanWavesFill</text>
<text text-anchor="middle" x="697" y="-53" font-family="Helvetica,sans-Serif" font-size="10.00">Inflow</text>
</a>
</g>
</g>
<!-- Node2&#45;&gt;Node4 -->
<g id="edge3_Node000002_Node000004" class="edge">
<title>Node2&#45;&gt;Node4</title>
<g id="a_edge3_Node000002_Node000004"><a xlink:title=" ">
<path fill="none" stroke="#63b8ff" d="M596.43,-61C605.25,-61 614.21,-61 622.97,-61"/>
<polygon fill="#63b8ff" stroke="#63b8ff" points="596.17,-57.5 586.17,-61 596.17,-64.5 596.17,-57.5"/>
</a>
</g>
</g>
<!-- Node5 -->
<g id="Node000005" class="node">
<title>Node5</title>
<g id="a_Node000005"><a xlink:href="classamr__wind_1_1_plane_fill_inflow.html" target="_top" xlink:title=" ">
<polygon fill="white" stroke="#666666" points="767.5,-27.5 626.5,-27.5 626.5,-8.5 767.5,-8.5 767.5,-27.5"/>
<text text-anchor="middle" x="697" y="-15.5" font-family="Helvetica,sans-Serif" font-size="10.00">amr_wind::PlaneFillInflow</text>
</a>
</g>
</g>
<!-- Node2&#45;&gt;Node5 -->
<g id="edge4_Node000002_Node000005" class="edge">
<title>Node2&#45;&gt;Node5</title>
<g id="a_edge4_Node000002_Node000005"><a xlink:title=" ">
<path fill="none" stroke="#63b8ff" d="M590.8,-43.56C613.35,-38.08 637.4,-32.24 656.8,-27.52"/>
<polygon fill="#63b8ff" stroke="#63b8ff" points="589.8,-40.2 580.91,-45.96 591.45,-47 589.8,-40.2"/>
</a>
</g>
</g>
<!-- Node7&#45;&gt;Node2 -->
<g id="edge7_Node000007_Node000002" class="edge">
<title>Node7&#45;&gt;Node2</title>
<g id="a_edge7_Node000007_Node000002"><a xlink:title=" ">
<path fill="none" stroke="orange" stroke-dasharray="5,2" d="M316.48,-27.7C358.25,-34.64 409.51,-43.15 449.75,-49.83"/>
<polygon fill="orange" stroke="orange" points="316.79,-24.2 306.35,-26.02 315.64,-31.11 316.79,-24.2"/>
</a>
</g>
<text text-anchor="start" x="328.5" y="-51.5" font-family="Helvetica,sans-Serif" font-size="10.00" fill="grey">&lt; FieldBCDirichlet &gt;</text>
</g>
</g>
</svg>
