<?xml version="1.0" encoding="UTF-8" standalone="no"?>
<!DOCTYPE svg PUBLIC "-//W3C//DTD SVG 1.1//EN"
 "http://www.w3.org/Graphics/SVG/1.1/DTD/svg11.dtd">
<!-- Generated by graphviz version 2.43.0 (0)
 -->
<!-- Title: amr_wind::CollMgr&lt; Collection, Type, allow_duplicates &gt; Pages: 1 -->
<svg width="711pt" height="185pt"
 viewBox="0.00 0.00 711.00 185.00" xmlns="http://www.w3.org/2000/svg" xmlns:xlink="http://www.w3.org/1999/xlink">
<g id="graph0" class="graph" transform="scale(1 1) rotate(0) translate(4 181)">
<title>amr_wind::CollMgr&lt; Collection, Type, allow_duplicates &gt;</title>
<!-- Node1 -->
<g id="Node000001" class="node">
<title>Node1</title>
<g id="a_Node000001"><a xlink:title=" ">
<polygon fill="#999999" stroke="#666666" points="129,-103.5 0,-103.5 0,-62.5 129,-62.5 129,-103.5"/>
<text text-anchor="start" x="8" y="-91.5" font-family="Helvetica,sans-Serif" font-size="10.00">amr_wind::CollMgr&lt;</text>
<text text-anchor="start" x="8" y="-80.5" font-family="Helvetica,sans-Serif" font-size="10.00"> Collection, Type, allow</text>
<text text-anchor="middle" x="64.5" y="-69.5" font-family="Helvetica,sans-Serif" font-size="10.00">_duplicates &gt;</text>
</a>
</g>
</g>
<!-- Node2 -->
<g id="Node000002" class="node">
<title>Node2</title>
<g id="a_Node000002"><a xlink:href="classamr__wind_1_1_coll_mgr.html" target="_top" xlink:title=" ">
<polygon fill="white" stroke="#666666" points="484,-174 335,-174 335,-144 484,-144 484,-174"/>
<text text-anchor="start" x="343" y="-162" font-family="Helvetica,sans-Serif" font-size="10.00">amr_wind::CollMgr&lt;</text>
<text text-anchor="middle" x="409.5" y="-151" font-family="Helvetica,sans-Serif" font-size="10.00"> ExtSolverMgr, ExtSolver &gt;</text>
</a>
</g>
</g>
<!-- Node1&#45;&gt;Node2 -->
<g id="edge1_Node000001_Node000002" class="edge">
<title>Node1&#45;&gt;Node2</title>
<g id="a_edge1_Node000001_Node000002"><a xlink:title=" ">
<path fill="none" stroke="orange" stroke-dasharray="5,2" d="M98.58,-109.8C112.68,-119.76 129.82,-130.07 147,-136 207.96,-157.03 281.43,-161.84 334.94,-161.93"/>
<polygon fill="orange" stroke="orange" points="100.36,-106.76 90.22,-103.68 96.22,-112.41 100.36,-106.76"/>
</a>
</g>
<text text-anchor="start" x="150.5" y="-165.5" font-family="Helvetica,sans-Serif" font-size="10.00" fill="grey">&lt; ExtSolverMgr, ExtSolver &gt;</text>
</g>
<!-- Node4 -->
<g id="Node000004" class="node">
<title>Node4</title>
<g id="a_Node000004"><a xlink:href="classamr__wind_1_1_coll_mgr.html" target="_top" xlink:title=" ">
<polygon fill="white" stroke="#666666" points="507,-126 312,-126 312,-96 507,-96 507,-126"/>
<text text-anchor="start" x="320" y="-114" font-family="Helvetica,sans-Serif" font-size="10.00">amr_wind::CollMgr&lt;</text>
<text text-anchor="middle" x="409.5" y="-103" font-family="Helvetica,sans-Serif" font-size="10.00"> FieldBoundaryMgr, FieldBoundary &gt;</text>
</a>
</g>
</g>
<!-- Node1&#45;&gt;Node4 -->
<g id="edge3_Node000001_Node000004" class="edge">
<title>Node1&#45;&gt;Node4</title>
<g id="a_edge3_Node000001_Node000004"><a xlink:title=" ">
<path fill="none" stroke="orange" stroke-dasharray="5,2" d="M139.38,-89.03C189.78,-93.15 257.06,-98.64 311.73,-103.1"/>
<polygon fill="orange" stroke="orange" points="139.46,-85.53 129.21,-88.2 138.89,-92.5 139.46,-85.53"/>
</a>
</g>
<text text-anchor="start" x="169.5" y="-122" font-family="Helvetica,sans-Serif" font-size="10.00" fill="grey">&lt; FieldBoundaryMgr,</text>
<text text-anchor="start" x="169.5" y="-107" font-family="Helvetica,sans-Serif" font-size="10.00" fill="grey">   FieldBoundary &gt;</text>
</g>
<!-- Node6 -->
<g id="Node000006" class="node">
<title>Node6</title>
<g id="a_Node000006"><a xlink:href="classamr__wind_1_1_coll_mgr.html" target="_top" xlink:title=" ">
<polygon fill="white" stroke="#666666" points="474,-78 345,-78 345,-48 474,-48 474,-78"/>
<text text-anchor="start" x="353" y="-66" font-family="Helvetica,sans-Serif" font-size="10.00">amr_wind::CollMgr&lt;</text>
<text text-anchor="middle" x="409.5" y="-55" font-family="Helvetica,sans-Serif" font-size="10.00"> PhysicsMgr, Physics &gt;</text>
</a>
</g>
</g>
<!-- Node1&#45;&gt;Node6 -->
<g id="edge5_Node000001_Node000006" class="edge">
<title>Node1&#45;&gt;Node6</title>
<g id="a_edge5_Node000001_Node000006"><a xlink:title=" ">
<path fill="none" stroke="orange" stroke-dasharray="5,2" d="M139.33,-65.02C141.91,-64.64 144.47,-64.3 147,-64 214.19,-56.14 291.75,-57.09 344.85,-59.26"/>
<polygon fill="orange" stroke="orange" points="138.61,-61.59 129.32,-66.69 139.76,-68.5 138.61,-61.59"/>
</a>
</g>
<text text-anchor="start" x="160.5" y="-69.5" font-family="Helvetica,sans-Serif" font-size="10.00" fill="grey">&lt; PhysicsMgr, Physics &gt;</text>
</g>
<!-- Node8 -->
<g id="Node000008" class="node">
<title>Node8</title>
<g id="a_Node000008"><a xlink:href="classamr__wind_1_1_coll_mgr.html" target="_top" xlink:title=" ">
<polygon fill="white" stroke="#666666" points="469,-30 350,-30 350,0 469,0 469,-30"/>
<text text-anchor="start" x="358" y="-18" font-family="Helvetica,sans-Serif" font-size="10.00">amr_wind::CollMgr&lt;</text>
<text text-anchor="middle" x="409.5" y="-7" font-family="Helvetica,sans-Serif" font-size="10.00"> PDEMgr, PDEBase &gt;</text>
</a>
</g>
</g>
<!-- Node1&#45;&gt;Node8 -->
<g id="edge7_Node000001_Node000008" class="edge">
<title>Node1&#45;&gt;Node8</title>
<g id="a_edge7_Node000001_Node000008"><a xlink:title=" ">
<path fill="none" stroke="orange" stroke-dasharray="5,2" d="M102.33,-57.13C115.79,-48.96 131.52,-40.82 147,-36 214.41,-15.03 296.05,-11.75 349.98,-12.43"/>
<polygon fill="orange" stroke="orange" points="100.45,-54.19 93.85,-62.47 104.17,-60.11 100.45,-54.19"/>
</a>
</g>
<text text-anchor="start" x="165.5" y="-41.5" font-family="Helvetica,sans-Serif" font-size="10.00" fill="grey">&lt; PDEMgr, PDEBase &gt;</text>
</g>
<!-- Node3 -->
<g id="Node000003" class="node">
<title>Node3</title>
<g id="a_Node000003"><a xlink:href="classamr__wind_1_1_ext_solver_mgr.html" target="_top" xlink:title=" ">
<polygon fill="white" stroke="#666666" points="691.5,-168.5 555.5,-168.5 555.5,-149.5 691.5,-149.5 691.5,-168.5"/>
<text text-anchor="middle" x="623.5" y="-156.5" font-family="Helvetica,sans-Serif" font-size="10.00">amr_wind::ExtSolverMgr</text>
</a>
</g>
</g>
<!-- Node2&#45;&gt;Node3 -->
<g id="edge2_Node000002_Node000003" class="edge">
<title>Node2&#45;&gt;Node3</title>
<g id="a_edge2_Node000002_Node000003"><a xlink:title=" ">
<path fill="none" stroke="#63b8ff" d="M494.24,-159C514.56,-159 536.03,-159 555.47,-159"/>
<polygon fill="#63b8ff" stroke="#63b8ff" points="494.05,-155.5 484.05,-159 494.05,-162.5 494.05,-155.5"/>
</a>
</g>
</g>
<!-- Node5 -->
<g id="Node000005" class="node">
<title>Node5</title>
<g id="a_Node000005"><a xlink:href="classamr__wind_1_1_field_boundary_mgr.html" target="_top" xlink:title=" ">
<polygon fill="white" stroke="#666666" points="703,-120.5 544,-120.5 544,-101.5 703,-101.5 703,-120.5"/>
<text text-anchor="middle" x="623.5" y="-108.5" font-family="Helvetica,sans-Serif" font-size="10.00">amr_wind::FieldBoundaryMgr</text>
</a>
</g>
</g>
<!-- Node4&#45;&gt;Node5 -->
<g id="edge4_Node000004_Node000005" class="edge">
<title>Node4&#45;&gt;Node5</title>
<g id="a_edge4_Node000004_Node000005"><a xlink:title=" ">
<path fill="none" stroke="#63b8ff" d="M517.25,-111C526.17,-111 535.08,-111 543.73,-111"/>
<polygon fill="#63b8ff" stroke="#63b8ff" points="517.19,-107.5 507.19,-111 517.19,-114.5 517.19,-107.5"/>
</a>
</g>
</g>
<!-- Node7 -->
<g id="Node000007" class="node">
<title>Node7</title>
<g id="a_Node000007"><a xlink:href="classamr__wind_1_1_physics_mgr.html" target="_top" xlink:title=" ">
<polygon fill="white" stroke="#666666" points="686.5,-72.5 560.5,-72.5 560.5,-53.5 686.5,-53.5 686.5,-72.5"/>
<text text-anchor="middle" x="623.5" y="-60.5" font-family="Helvetica,sans-Serif" font-size="10.00">amr_wind::PhysicsMgr</text>
</a>
</g>
</g>
<!-- Node6&#45;&gt;Node7 -->
<g id="edge6_Node000006_Node000007" class="edge">
<title>Node6&#45;&gt;Node7</title>
<g id="a_edge6_Node000006_Node000007"><a xlink:title=" ">
<path fill="none" stroke="#63b8ff" d="M484.21,-63C509.06,-63 536.53,-63 560.4,-63"/>
<polygon fill="#63b8ff" stroke="#63b8ff" points="484.11,-59.5 474.11,-63 484.11,-66.5 484.11,-59.5"/>
</a>
</g>
</g>
<!-- Node9 -->
<g id="Node000009" class="node">
<title>Node9</title>
<g id="a_Node000009"><a xlink:href="classamr__wind_1_1pde_1_1_p_d_e_mgr.html" target="_top" xlink:title=" ">
<polygon fill="white" stroke="#666666" points="690,-24.5 557,-24.5 557,-5.5 690,-5.5 690,-24.5"/>
<text text-anchor="middle" x="623.5" y="-12.5" font-family="Helvetica,sans-Serif" font-size="10.00">amr_wind::pde::PDEMgr</text>
</a>
</g>
</g>
<!-- Node8&#45;&gt;Node9 -->
<g id="edge8_Node000008_Node000009" class="edge">
<title>Node8&#45;&gt;Node9</title>
<g id="a_edge8_Node000008_Node000009"><a xlink:title=" ">
<path fill="none" stroke="#63b8ff" d="M479.37,-15C504.26,-15 532.29,-15 556.9,-15"/>
<polygon fill="#63b8ff" stroke="#63b8ff" points="479.27,-11.5 469.27,-15 479.27,-18.5 479.27,-11.5"/>
</a>
</g>
</g>
</g>
</svg>
