<?xml version="1.0" encoding="UTF-8" standalone="no"?>
<!DOCTYPE svg PUBLIC "-//W3C//DTD SVG 1.1//EN"
 "http://www.w3.org/Graphics/SVG/1.1/DTD/svg11.dtd">
<!-- Generated by graphviz version 2.43.0 (0)
 -->
<!-- Title: amr_wind::OceanWavesFillInflow Pages: 1 -->
<svg width="2514pt" height="480pt"
 viewBox="0.00 0.00 2514.00 480.00" xmlns="http://www.w3.org/2000/svg" xmlns:xlink="http://www.w3.org/1999/xlink">
<g id="graph0" class="graph" transform="scale(1 1) rotate(0) translate(4 476)">
<title>amr_wind::OceanWavesFillInflow</title>
<!-- Node1 -->
<g id="Node000001" class="node">
<title>Node1</title>
<g id="a_Node000001"><a xlink:title=" ">
<polygon fill="#999999" stroke="#666666" points="2506,-308 2358,-308 2358,-278 2506,-278 2506,-308"/>
<text text-anchor="start" x="2366" y="-296" font-family="Helvetica,sans-Serif" font-size="10.00">amr_wind::OceanWavesFill</text>
<text text-anchor="middle" x="2432" y="-285" font-family="Helvetica,sans-Serif" font-size="10.00">Inflow</text>
</a>
</g>
</g>
<!-- Node2 -->
<g id="Node000002" class="node">
<title>Node2</title>
<g id="a_Node000002"><a xlink:href="classamr__wind_1_1_field_fill_patch_ops.html" target="_top" xlink:title=" ">
<polygon fill="white" stroke="#666666" points="2321,-235 2185,-235 2185,-205 2321,-205 2321,-235"/>
<text text-anchor="start" x="2193" y="-223" font-family="Helvetica,sans-Serif" font-size="10.00">amr_wind::FieldFillPatch</text>
<text text-anchor="middle" x="2253" y="-212" font-family="Helvetica,sans-Serif" font-size="10.00">Ops&lt; FieldBCDirichlet &gt;</text>
</a>
</g>
</g>
<!-- Node2&#45;&gt;Node1 -->
<g id="edge1_Node000001_Node000002" class="edge">
<title>Node2&#45;&gt;Node1</title>
<g id="a_edge1_Node000001_Node000002"><a xlink:title=" ">
<path fill="none" stroke="#63b8ff" d="M2300.29,-239.09C2329.65,-251.2 2367.09,-266.64 2394.37,-277.89"/>
<polygon fill="#63b8ff" stroke="#63b8ff" points="2301.25,-235.7 2290.67,-235.13 2298.58,-242.17 2301.25,-235.7"/>
</a>
</g>
</g>
<!-- Node3 -->
<g id="Node000003" class="node">
<title>Node3</title>
<g id="a_Node000003"><a xlink:href="classamr__wind_1_1_field_fill_patch_ops_base.html" target="_top" xlink:title=" ">
<polygon fill="white" stroke="#666666" points="219,-53 85,-53 85,-23 219,-23 219,-53"/>
<text text-anchor="start" x="93" y="-41" font-family="Helvetica,sans-Serif" font-size="10.00">amr_wind::FieldFillPatch</text>
<text text-anchor="middle" x="152" y="-30" font-family="Helvetica,sans-Serif" font-size="10.00">OpsBase</text>
</a>
</g>
</g>
<!-- Node3&#45;&gt;Node2 -->
<g id="edge2_Node000002_Node000003" class="edge">
<title>Node3&#45;&gt;Node2</title>
<g id="a_edge2_Node000002_Node000003"><a xlink:title=" ">
<path fill="none" stroke="#63b8ff" d="M229.38,-23.85C294.34,-13.04 390.21,0 474.5,0 474.5,0 474.5,0 1976,0 2107.74,0 2212.87,-155.17 2243.17,-204.88"/>
<polygon fill="#63b8ff" stroke="#63b8ff" points="228.51,-20.44 219.23,-25.56 229.67,-27.35 228.51,-20.44"/>
</a>
</g>
</g>
<!-- Node17 -->
<g id="Node000017" class="node">
<title>Node17</title>
<g id="a_Node000017"><a xlink:title=" ">
<polygon fill="white" stroke="#666666" points="560,-242 391,-242 391,-212 560,-212 560,-242"/>
<text text-anchor="start" x="399" y="-230" font-family="Helvetica,sans-Serif" font-size="10.00">std::unique_ptr&lt; amr</text>
<text text-anchor="middle" x="475.5" y="-219" font-family="Helvetica,sans-Serif" font-size="10.00">_wind::FieldFillPatchOpsBase &gt;</text>
</a>
</g>
</g>
<!-- Node3&#45;&gt;Node17 -->
<g id="edge20_Node000017_Node000003" class="edge">
<title>Node3&#45;&gt;Node17</title>
<g id="a_edge20_Node000017_Node000003"><a xlink:title=" ">
<path fill="none" stroke="#9a32cd" stroke-dasharray="5,2" d="M195.97,-57.43C241.18,-78.48 313.85,-114.03 373,-151 403.43,-170.02 436.26,-195.63 456.09,-211.73"/>
<polygon fill="#9a32cd" stroke="#9a32cd" points="197.3,-54.19 186.75,-53.17 194.36,-60.54 197.3,-54.19"/>
</a>
</g>
<text text-anchor="start" x="298" y="-156.5" font-family="Helvetica,sans-Serif" font-size="10.00" fill="grey">ptr</text>
</g>
<!-- Node21 -->
<g id="Node000021" class="node">
<title>Node21</title>
<g id="a_Node000021"><a xlink:href="classamr__wind_1_1_field_fill_patch_ops.html" target="_top" xlink:title=" ">
<polygon fill="white" stroke="#666666" points="2042,-187 1908,-187 1908,-157 2042,-157 2042,-187"/>
<text text-anchor="start" x="1916" y="-175" font-family="Helvetica,sans-Serif" font-size="10.00">amr_wind::FieldFillPatch</text>
<text text-anchor="middle" x="1975" y="-164" font-family="Helvetica,sans-Serif" font-size="10.00">Ops&lt; BCOpCreator &gt;</text>
</a>
</g>
</g>
<!-- Node3&#45;&gt;Node21 -->
<g id="edge28_Node000021_Node000003" class="edge">
<title>Node3&#45;&gt;Node21</title>
<g id="a_edge28_Node000021_Node000003"><a xlink:title=" ">
<path fill="none" stroke="#63b8ff" d="M229.37,-38C294.51,-38 390.66,-38 474.5,-38 474.5,-38 474.5,-38 1473.5,-38 1568.24,-38 1800.82,-97.04 1890,-129 1910.51,-136.35 1932.38,-147.67 1948.67,-156.85"/>
<polygon fill="#63b8ff" stroke="#63b8ff" points="229.19,-34.5 219.19,-38 229.19,-41.5 229.19,-34.5"/>
</a>
</g>
</g>
<!-- Node4 -->
<g id="Node000004" class="node">
<title>Node4</title>
<g id="a_Node000004"><a xlink:href="classamr__wind_1_1_sim_time.html" target="_top" xlink:title=" ">
<polygon fill="white" stroke="#666666" points="1361.5,-131.5 1247.5,-131.5 1247.5,-112.5 1361.5,-112.5 1361.5,-131.5"/>
<text text-anchor="middle" x="1304.5" y="-119.5" font-family="Helvetica,sans-Serif" font-size="10.00">amr_wind::SimTime</text>
</a>
</g>
</g>
<!-- Node4&#45;&gt;Node2 -->
<g id="edge3_Node000002_Node000004" class="edge">
<title>Node4&#45;&gt;Node2</title>
<g id="a_edge3_Node000002_Node000004"><a xlink:title=" ">
<path fill="none" stroke="#9a32cd" stroke-dasharray="5,2" d="M1371.88,-118.78C1387.65,-118.11 1404.42,-117.46 1420,-117 1628.81,-110.82 1682.51,-87.76 1890,-112 1958.96,-120.05 1974.78,-130.64 2042,-148 2097.86,-162.43 2112.64,-163.66 2167,-183 2184.89,-189.37 2204.35,-197.72 2220.13,-204.89"/>
<polygon fill="#9a32cd" stroke="#9a32cd" points="1371.53,-115.3 1361.69,-119.23 1371.83,-122.29 1371.53,-115.3"/>
</a>
</g>
<text text-anchor="start" x="1796.5" y="-117.5" font-family="Helvetica,sans-Serif" font-size="10.00" fill="grey">m_time</text>
</g>
<!-- Node4&#45;&gt;Node21 -->
<g id="edge29_Node000021_Node000004" class="edge">
<title>Node4&#45;&gt;Node21</title>
<g id="a_edge29_Node000021_Node000004"><a xlink:title=" ">
<path fill="none" stroke="#9a32cd" stroke-dasharray="5,2" d="M1371.93,-120.57C1454.44,-119.44 1599.42,-119.63 1723,-131 1786.09,-136.8 1857.32,-148.98 1907.74,-158.57"/>
<polygon fill="#9a32cd" stroke="#9a32cd" points="1371.64,-117.07 1361.69,-120.72 1371.74,-124.07 1371.64,-117.07"/>
</a>
</g>
<text text-anchor="start" x="1614" y="-136.5" font-family="Helvetica,sans-Serif" font-size="10.00" fill="grey">m_time</text>
</g>
<!-- Node23 -->
<g id="Node000023" class="node">
<title>Node23</title>
<g id="a_Node000023"><a xlink:href="classamr__wind_1_1_ocean_waves_boundary.html" target="_top" xlink:title=" ">
<polygon fill="white" stroke="#666666" points="1723,-392.5 1543,-392.5 1543,-373.5 1723,-373.5 1723,-392.5"/>
<text text-anchor="middle" x="1633" y="-380.5" font-family="Helvetica,sans-Serif" font-size="10.00">amr_wind::OceanWavesBoundary</text>
</a>
</g>
</g>
<!-- Node4&#45;&gt;Node23 -->
<g id="edge35_Node000023_Node000004" class="edge">
<title>Node4&#45;&gt;Node23</title>
<g id="a_edge35_Node000023_Node000004"><a xlink:title=" ">
<path fill="none" stroke="#9a32cd" stroke-dasharray="5,2" d="M1328.74,-137.22C1384.98,-174.06 1523.89,-265.06 1525,-266 1566.71,-301.51 1608.23,-352.51 1624.65,-373.46"/>
<polygon fill="#9a32cd" stroke="#9a32cd" points="1330.44,-134.15 1320.16,-131.6 1326.6,-140 1330.44,-134.15"/>
</a>
</g>
<text text-anchor="start" x="1453.5" y="-271.5" font-family="Helvetica,sans-Serif" font-size="10.00" fill="grey">m_time</text>
</g>
<!-- Node5 -->
<g id="Node000005" class="node">
<title>Node5</title>
<g id="a_Node000005"><a xlink:title=" ">
<polygon fill="white" stroke="#666666" points="973,-131.5 861,-131.5 861,-112.5 973,-112.5 973,-131.5"/>
<text text-anchor="middle" x="917" y="-119.5" font-family="Helvetica,sans-Serif" font-size="10.00">std::vector&lt; bool &gt;</text>
</a>
</g>
</g>
<!-- Node5&#45;&gt;Node4 -->
<g id="edge4_Node000004_Node000005" class="edge">
<title>Node5&#45;&gt;Node4</title>
<g id="a_edge4_Node000004_Node000005"><a xlink:title=" ">
<path fill="none" stroke="#9a32cd" stroke-dasharray="5,2" d="M983.39,-122C1057.58,-122 1177.34,-122 1247.43,-122"/>
<polygon fill="#9a32cd" stroke="#9a32cd" points="983.23,-118.5 973.23,-122 983.23,-125.5 983.23,-118.5"/>
</a>
</g>
<text text-anchor="start" x="994.5" y="-127.5" font-family="Helvetica,sans-Serif" font-size="10.00" fill="grey">m_postprocess_enforce_dt</text>
</g>
<!-- Node6 -->
<g id="Node000006" class="node">
<title>Node6</title>
<g id="a_Node000006"><a xlink:title=" ">
<polygon fill="white" stroke="#666666" points="689,-131.5 592,-131.5 592,-112.5 689,-112.5 689,-131.5"/>
<text text-anchor="middle" x="640.5" y="-119.5" font-family="Helvetica,sans-Serif" font-size="10.00">std::vector&lt; T &gt;</text>
</a>
</g>
</g>
<!-- Node6&#45;&gt;Node5 -->
<g id="edge5_Node000005_Node000006" class="edge">
<title>Node6&#45;&gt;Node5</title>
<g id="a_edge5_Node000005_Node000006"><a xlink:title=" ">
<path fill="none" stroke="orange" stroke-dasharray="5,2" d="M699.13,-122C746.66,-122 813.67,-122 860.58,-122"/>
<polygon fill="orange" stroke="orange" points="699,-118.5 689,-122 699,-125.5 699,-118.5"/>
</a>
</g>
<text text-anchor="start" x="760" y="-127.5" font-family="Helvetica,sans-Serif" font-size="10.00" fill="grey">&lt; bool &gt;</text>
</g>
<!-- Node7 -->
<g id="Node000007" class="node">
<title>Node7</title>
<g id="a_Node000007"><a xlink:title=" ">
<polygon fill="white" stroke="#666666" points="29,-216.5 0,-216.5 0,-197.5 29,-197.5 29,-216.5"/>
<text text-anchor="middle" x="14.5" y="-204.5" font-family="Helvetica,sans-Serif" font-size="10.00">T</text>
</a>
</g>
</g>
<!-- Node7&#45;&gt;Node6 -->
<g id="edge6_Node000006_Node000007" class="edge">
<title>Node7&#45;&gt;Node6</title>
<g id="a_edge6_Node000006_Node000007"><a xlink:title=" ">
<path fill="none" stroke="#9a32cd" stroke-dasharray="5,2" d="M32.64,-190.29C45.82,-178.55 65.09,-163.62 85,-156 261.78,-88.36 493.39,-104.44 591.87,-115.64"/>
<polygon fill="#9a32cd" stroke="#9a32cd" points="30.24,-187.75 25.27,-197.1 34.99,-192.89 30.24,-187.75"/>
</a>
</g>
<text text-anchor="start" x="129" y="-161.5" font-family="Helvetica,sans-Serif" font-size="10.00" fill="grey">elements</text>
</g>
<!-- Node13 -->
<g id="Node000013" class="node">
<title>Node13</title>
<g id="a_Node000013"><a xlink:title=" ">
<polygon fill="white" stroke="#666666" points="532.5,-385 418.5,-385 418.5,-355 532.5,-355 532.5,-385"/>
<text text-anchor="start" x="426.5" y="-373" font-family="Helvetica,sans-Serif" font-size="10.00">std::unordered_map</text>
<text text-anchor="middle" x="475.5" y="-362" font-family="Helvetica,sans-Serif" font-size="10.00">&lt; K, T &gt;</text>
</a>
</g>
</g>
<!-- Node7&#45;&gt;Node13 -->
<g id="edge14_Node000013_Node000007" class="edge">
<title>Node7&#45;&gt;Node13</title>
<g id="a_edge14_Node000013_Node000007"><a xlink:title=" ">
<path fill="none" stroke="#9a32cd" stroke-dasharray="5,2" d="M24.27,-225.76C35.3,-247.12 56.31,-281.33 85,-299 113.02,-316.26 317.07,-347.43 418.12,-362.04"/>
<polygon fill="#9a32cd" stroke="#9a32cd" points="27.36,-224.11 19.8,-216.69 21.09,-227.21 27.36,-224.11"/>
</a>
</g>
<text text-anchor="start" x="129" y="-334.5" font-family="Helvetica,sans-Serif" font-size="10.00" fill="grey">elements</text>
</g>
<!-- Node18 -->
<g id="Node000018" class="node">
<title>Node18</title>
<g id="a_Node000018"><a xlink:title=" ">
<polygon fill="white" stroke="#666666" points="211,-236.5 93,-236.5 93,-217.5 211,-217.5 211,-236.5"/>
<text text-anchor="middle" x="152" y="-224.5" font-family="Helvetica,sans-Serif" font-size="10.00">std::unique_ptr&lt; T &gt;</text>
</a>
</g>
</g>
<!-- Node7&#45;&gt;Node18 -->
<g id="edge22_Node000018_Node000007" class="edge">
<title>Node7&#45;&gt;Node18</title>
<g id="a_edge22_Node000018_Node000007"><a xlink:title=" ">
<path fill="none" stroke="#9a32cd" stroke-dasharray="5,2" d="M39.53,-210.55C54.35,-212.73 74.04,-215.64 92.75,-218.4"/>
<polygon fill="#9a32cd" stroke="#9a32cd" points="39.64,-207.03 29.24,-209.03 38.62,-213.95 39.64,-207.03"/>
</a>
</g>
<text text-anchor="start" x="50" y="-219.5" font-family="Helvetica,sans-Serif" font-size="10.00" fill="grey">ptr</text>
</g>
<!-- Node19 -->
<g id="Node000019" class="node">
<title>Node19</title>
<g id="a_Node000019"><a xlink:title=" ">
<polygon fill="white" stroke="#666666" points="364,-196.5 246,-196.5 246,-177.5 364,-177.5 364,-196.5"/>
<text text-anchor="middle" x="305" y="-184.5" font-family="Helvetica,sans-Serif" font-size="10.00">std::shared_ptr&lt; T &gt;</text>
</a>
</g>
</g>
<!-- Node7&#45;&gt;Node19 -->
<g id="edge24_Node000019_Node000007" class="edge">
<title>Node7&#45;&gt;Node19</title>
<g id="a_edge24_Node000019_Node000007"><a xlink:title=" ">
<path fill="none" stroke="#9a32cd" stroke-dasharray="5,2" d="M37.96,-193.23C40.91,-191.92 43.97,-190.78 47,-190 113.52,-172.78 193.01,-175.19 245.8,-179.85"/>
<polygon fill="#9a32cd" stroke="#9a32cd" points="36.29,-190.15 29.01,-197.85 39.5,-196.37 36.29,-190.15"/>
</a>
</g>
<text text-anchor="start" x="50" y="-195.5" font-family="Helvetica,sans-Serif" font-size="10.00" fill="grey">ptr</text>
</g>
<!-- Node8 -->
<g id="Node000008" class="node">
<title>Node8</title>
<g id="a_Node000008"><a xlink:href="classamr__wind_1_1_field.html" target="_top" xlink:title=" ">
<polygon fill="white" stroke="#666666" points="1351.5,-293.5 1257.5,-293.5 1257.5,-274.5 1351.5,-274.5 1351.5,-293.5"/>
<text text-anchor="middle" x="1304.5" y="-281.5" font-family="Helvetica,sans-Serif" font-size="10.00">amr_wind::Field</text>
</a>
</g>
</g>
<!-- Node8&#45;&gt;Node2 -->
<g id="edge7_Node000002_Node000008" class="edge">
<title>Node8&#45;&gt;Node2</title>
<g id="a_edge7_Node000002_Node000008"><a xlink:title=" ">
<path fill="none" stroke="#9a32cd" stroke-dasharray="5,2" d="M1362.21,-280.17C1527.32,-269 2007.27,-236.55 2184.88,-224.54"/>
<polygon fill="#9a32cd" stroke="#9a32cd" points="1361.53,-276.7 1351.79,-280.87 1362.01,-283.69 1361.53,-276.7"/>
</a>
</g>
<text text-anchor="start" x="1797.5" y="-259.5" font-family="Helvetica,sans-Serif" font-size="10.00" fill="grey">m_field</text>
</g>
<!-- Node20 -->
<g id="Node000020" class="node">
<title>Node20</title>
<g id="a_Node000020"><a xlink:href="structamr__wind_1_1_field_b_c_dirichlet.html" target="_top" xlink:title=" ">
<polygon fill="white" stroke="#666666" points="1890,-319.5 1741,-319.5 1741,-300.5 1890,-300.5 1890,-319.5"/>
<text text-anchor="middle" x="1815.5" y="-307.5" font-family="Helvetica,sans-Serif" font-size="10.00">amr_wind::FieldBCDirichlet</text>
</a>
</g>
</g>
<!-- Node8&#45;&gt;Node20 -->
<g id="edge26_Node000020_Node000008" class="edge">
<title>Node8&#45;&gt;Node20</title>
<g id="a_edge26_Node000020_Node000008"><a xlink:title=" ">
<path fill="none" stroke="#9a32cd" stroke-dasharray="5,2" d="M1361.56,-286.86C1453.96,-291.58 1638.21,-300.99 1740.95,-306.24"/>
<polygon fill="#9a32cd" stroke="#9a32cd" points="1361.73,-283.37 1351.57,-286.35 1361.38,-290.36 1361.73,-283.37"/>
</a>
</g>
<text text-anchor="start" x="1454.5" y="-299.5" font-family="Helvetica,sans-Serif" font-size="10.00" fill="grey">m_field</text>
</g>
<!-- Node8&#45;&gt;Node21 -->
<g id="edge30_Node000021_Node000008" class="edge">
<title>Node8&#45;&gt;Node21</title>
<g id="a_edge30_Node000021_Node000008"><a xlink:title=" ">
<path fill="none" stroke="#9a32cd" stroke-dasharray="5,2" d="M1326.67,-268.56C1348.74,-253.4 1384.94,-231.13 1420,-221 1520.52,-191.96 1786.58,-208.87 1890,-193 1899.81,-191.5 1910.14,-189.37 1920.08,-187.05"/>
<polygon fill="#9a32cd" stroke="#9a32cd" points="1324.57,-265.76 1318.39,-274.36 1328.59,-271.48 1324.57,-265.76"/>
</a>
</g>
<text text-anchor="start" x="1615" y="-210.5" font-family="Helvetica,sans-Serif" font-size="10.00" fill="grey">m_field</text>
</g>
<!-- Node22 -->
<g id="Node000022" class="node">
<title>Node22</title>
<g id="a_Node000022"><a xlink:href="structamr__wind_1_1_b_c_op_creator.html" target="_top" xlink:title=" ">
<polygon fill="white" stroke="#666666" points="1700,-187 1566,-187 1566,-157 1700,-157 1700,-187"/>
<text text-anchor="start" x="1574" y="-175" font-family="Helvetica,sans-Serif" font-size="10.00">amr_wind::BCOpCreator</text>
<text text-anchor="middle" x="1633" y="-164" font-family="Helvetica,sans-Serif" font-size="10.00">&lt; InflowOp, WallOp &gt;</text>
</a>
</g>
</g>
<!-- Node8&#45;&gt;Node22 -->
<g id="edge32_Node000022_Node000008" class="edge">
<title>Node8&#45;&gt;Node22</title>
<g id="a_edge32_Node000022_Node000008"><a xlink:title=" ">
<path fill="none" stroke="#9a32cd" stroke-dasharray="5,2" d="M1317.77,-265.97C1336.39,-240.38 1374.48,-194.58 1420,-176 1466.01,-157.22 1522.45,-157.13 1565.52,-161.25"/>
<polygon fill="#9a32cd" stroke="#9a32cd" points="1314.73,-264.21 1311.81,-274.4 1320.44,-268.25 1314.73,-264.21"/>
</a>
</g>
<text text-anchor="start" x="1454.5" y="-181.5" font-family="Helvetica,sans-Serif" font-size="10.00" fill="grey">m_field</text>
</g>
<!-- Node8&#45;&gt;Node23 -->
<g id="edge37_Node000023_Node000008" class="edge">
<title>Node8&#45;&gt;Node23</title>
<g id="a_edge37_Node000023_Node000008"><a xlink:title=" ">
<path fill="none" stroke="#9a32cd" stroke-dasharray="5,2" d="M1339.66,-297.13C1362.21,-305.43 1392.55,-315.88 1420,-323 1465.91,-334.9 1479.32,-329.24 1525,-342 1555.46,-350.51 1589.36,-364.27 1610.68,-373.47"/>
<polygon fill="#9a32cd" stroke="#9a32cd" points="1340.78,-293.82 1330.19,-293.61 1338.34,-300.38 1340.78,-293.82"/>
</a>
</g>
<text text-anchor="start" x="1435.5" y="-363" font-family="Helvetica,sans-Serif" font-size="10.00" fill="grey">m_ow_velocity</text>
<text text-anchor="start" x="1435.5" y="-348" font-family="Helvetica,sans-Serif" font-size="10.00" fill="grey">m_ow_vof</text>
</g>
<!-- Node9 -->
<g id="Node000009" class="node">
<title>Node9</title>
<g id="a_Node000009"><a xlink:href="classamr__wind_1_1_field_repo.html" target="_top" xlink:title=" ">
<polygon fill="white" stroke="#666666" points="1119,-381.5 1000,-381.5 1000,-362.5 1119,-362.5 1119,-381.5"/>
<text text-anchor="middle" x="1059.5" y="-369.5" font-family="Helvetica,sans-Serif" font-size="10.00">amr_wind::FieldRepo</text>
</a>
</g>
</g>
<!-- Node9&#45;&gt;Node8 -->
<g id="edge8_Node000008_Node000009" class="edge">
<title>Node9&#45;&gt;Node8</title>
<g id="a_edge8_Node000008_Node000009"><a xlink:title=" ">
<path fill="none" stroke="#9a32cd" stroke-dasharray="5,2" d="M1096.6,-358.93C1145.96,-341.05 1233.36,-309.4 1277.06,-293.57"/>
<polygon fill="#9a32cd" stroke="#9a32cd" points="1095.18,-355.72 1086.97,-362.41 1097.56,-362.3 1095.18,-355.72"/>
</a>
</g>
<text text-anchor="start" x="1149.5" y="-346.5" font-family="Helvetica,sans-Serif" font-size="10.00" fill="grey">m_repo</text>
</g>
<!-- Node9&#45;&gt;Node23 -->
<g id="edge36_Node000023_Node000009" class="edge">
<title>Node9&#45;&gt;Node23</title>
<g id="a_edge36_Node000023_Node000009"><a xlink:title=" ">
<path fill="none" stroke="#9a32cd" stroke-dasharray="5,2" d="M1084.77,-386.58C1112.99,-402.61 1161.51,-427.36 1207,-437 1345.35,-466.31 1387.49,-459.02 1525,-426 1557.12,-418.29 1592.29,-402.65 1613.23,-392.51"/>
<polygon fill="#9a32cd" stroke="#9a32cd" points="1086.42,-383.49 1076.01,-381.52 1082.92,-389.55 1086.42,-383.49"/>
</a>
</g>
<text text-anchor="start" x="1286.5" y="-460.5" font-family="Helvetica,sans-Serif" font-size="10.00" fill="grey">m_repo</text>
</g>
<!-- Node25 -->
<g id="Node000025" class="node">
<title>Node25</title>
<g id="a_Node000025"><a xlink:href="classamr__wind_1_1_int_field.html" target="_top" xlink:title=" ">
<polygon fill="white" stroke="#666666" points="1358,-427.5 1251,-427.5 1251,-408.5 1358,-408.5 1358,-427.5"/>
<text text-anchor="middle" x="1304.5" y="-415.5" font-family="Helvetica,sans-Serif" font-size="10.00">amr_wind::IntField</text>
</a>
</g>
</g>
<!-- Node9&#45;&gt;Node25 -->
<g id="edge39_Node000025_Node000009" class="edge">
<title>Node9&#45;&gt;Node25</title>
<g id="a_edge39_Node000025_Node000009"><a xlink:title=" ">
<path fill="none" stroke="#9a32cd" stroke-dasharray="5,2" d="M1129.26,-374.02C1148.99,-376.19 1170.24,-380.11 1189,-387 1198.02,-390.32 1198.11,-395.33 1207,-399 1220.73,-404.66 1236.28,-408.67 1250.82,-411.5"/>
<polygon fill="#9a32cd" stroke="#9a32cd" points="1129.39,-370.52 1119.1,-373.04 1128.71,-377.48 1129.39,-370.52"/>
</a>
</g>
<text text-anchor="start" x="1149.5" y="-392.5" font-family="Helvetica,sans-Serif" font-size="10.00" fill="grey">m_repo</text>
</g>
<!-- Node10 -->
<g id="Node000010" class="node">
<title>Node10</title>
<g id="a_Node000010"><a xlink:title=" ">
<polygon fill="white" stroke="#666666" points="843,-378 721,-378 721,-348 843,-348 843,-378"/>
<text text-anchor="start" x="729" y="-366" font-family="Helvetica,sans-Serif" font-size="10.00">std::unordered_map</text>
<text text-anchor="middle" x="782" y="-355" font-family="Helvetica,sans-Serif" font-size="10.00">&lt; std::string, size_t &gt;</text>
</a>
</g>
</g>
<!-- Node10&#45;&gt;Node9 -->
<g id="edge9_Node000009_Node000010" class="edge">
<title>Node10&#45;&gt;Node9</title>
<g id="a_edge9_Node000009_Node000010"><a xlink:title=" ">
<path fill="none" stroke="#9a32cd" stroke-dasharray="5,2" d="M853.7,-361.89C889.48,-361.71 933.57,-362.06 973,-364 981.64,-364.43 990.75,-365.07 999.68,-365.81"/>
<polygon fill="#9a32cd" stroke="#9a32cd" points="853.34,-358.4 843.36,-361.96 853.39,-365.4 853.34,-358.4"/>
</a>
</g>
<text text-anchor="start" x="881" y="-385" font-family="Helvetica,sans-Serif" font-size="10.00" fill="grey">m_fid_map</text>
<text text-anchor="start" x="881" y="-370" font-family="Helvetica,sans-Serif" font-size="10.00" fill="grey">m_int_fid_map</text>
</g>
<!-- Node11 -->
<g id="Node000011" class="node">
<title>Node11</title>
<g id="a_Node000011"><a xlink:title=" ">
<polygon fill="white" stroke="#666666" points="508,-306.5 443,-306.5 443,-287.5 508,-287.5 508,-306.5"/>
<text text-anchor="middle" x="475.5" y="-294.5" font-family="Helvetica,sans-Serif" font-size="10.00">std::string</text>
</a>
</g>
</g>
<!-- Node11&#45;&gt;Node8 -->
<g id="edge15_Node000008_Node000011" class="edge">
<title>Node11&#45;&gt;Node8</title>
<g id="a_edge15_Node000008_Node000011"><a xlink:title=" ">
<path fill="none" stroke="#9a32cd" stroke-dasharray="5,2" d="M518.48,-296.34C658.81,-294.13 1110.96,-287.03 1257.32,-284.73"/>
<polygon fill="#9a32cd" stroke="#9a32cd" points="518.1,-292.85 508.16,-296.5 518.21,-299.84 518.1,-292.85"/>
</a>
</g>
<text text-anchor="start" x="896" y="-295.5" font-family="Helvetica,sans-Serif" font-size="10.00" fill="grey">m_name</text>
</g>
<!-- Node11&#45;&gt;Node10 -->
<g id="edge10_Node000010_Node000011" class="edge">
<title>Node11&#45;&gt;Node10</title>
<g id="a_edge10_Node000010_Node000011"><a xlink:title=" ">
<path fill="none" stroke="#9a32cd" stroke-dasharray="5,2" d="M518.21,-304.81C563.75,-313.5 638.78,-328.26 703,-343 709.68,-344.53 716.65,-346.21 723.57,-347.92"/>
<polygon fill="#9a32cd" stroke="#9a32cd" points="518.6,-301.33 508.12,-302.9 517.29,-308.2 518.6,-301.33"/>
</a>
</g>
<text text-anchor="start" x="629.5" y="-348.5" font-family="Helvetica,sans-Serif" font-size="10.00" fill="grey">keys</text>
</g>
<!-- Node16 -->
<g id="Node000016" class="node">
<title>Node16</title>
<g id="a_Node000016"><a xlink:href="structamr__wind_1_1_field_info.html" target="_top" xlink:title=" ">
<polygon fill="white" stroke="#666666" points="838.5,-248.5 725.5,-248.5 725.5,-229.5 838.5,-229.5 838.5,-248.5"/>
<text text-anchor="middle" x="782" y="-236.5" font-family="Helvetica,sans-Serif" font-size="10.00">amr_wind::FieldInfo</text>
</a>
</g>
</g>
<!-- Node11&#45;&gt;Node16 -->
<g id="edge18_Node000016_Node000011" class="edge">
<title>Node11&#45;&gt;Node16</title>
<g id="a_edge18_Node000016_Node000011"><a xlink:title=" ">
<path fill="none" stroke="#9a32cd" stroke-dasharray="5,2" d="M512.87,-284.31C532.04,-278.02 556.08,-270.77 578,-266 627.33,-255.26 684.39,-248.13 725.43,-243.91"/>
<polygon fill="#9a32cd" stroke="#9a32cd" points="511.7,-281.01 503.32,-287.49 513.92,-287.65 511.7,-281.01"/>
</a>
</g>
<text text-anchor="start" x="607.5" y="-271.5" font-family="Helvetica,sans-Serif" font-size="10.00" fill="grey">m_basename</text>
</g>
<!-- Node11&#45;&gt;Node25 -->
<g id="edge40_Node000025_Node000011" class="edge">
<title>Node11&#45;&gt;Node25</title>
<g id="a_edge40_Node000025_Node000011"><a xlink:title=" ">
<path fill="none" stroke="#9a32cd" stroke-dasharray="5,2" d="M510.71,-310.91C527.36,-319.08 546.62,-330.82 560,-346 573.43,-361.23 561.28,-376.47 578,-388 686.65,-462.91 1102.87,-435.35 1250.88,-422.83"/>
<polygon fill="#9a32cd" stroke="#9a32cd" points="511.81,-307.56 501.27,-306.5 508.86,-313.9 511.81,-307.56"/>
</a>
</g>
<text text-anchor="start" x="896" y="-443.5" font-family="Helvetica,sans-Serif" font-size="10.00" fill="grey">m_name</text>
</g>
<!-- Node12 -->
<g id="Node000012" class="node">
<title>Node12</title>
<g id="a_Node000012"><a xlink:title=" ">
<polygon fill="white" stroke="#666666" points="204,-290 100,-290 100,-260 204,-260 204,-290"/>
<text text-anchor="start" x="108" y="-278" font-family="Helvetica,sans-Serif" font-size="10.00">std::basic_string&lt;</text>
<text text-anchor="middle" x="152" y="-267" font-family="Helvetica,sans-Serif" font-size="10.00"> Char &gt;</text>
</a>
</g>
</g>
<!-- Node12&#45;&gt;Node11 -->
<g id="edge11_Node000011_Node000012" class="edge">
<title>Node12&#45;&gt;Node11</title>
<g id="a_edge11_Node000011_Node000012"><a xlink:title=" ">
<path fill="none" stroke="#63b8ff" d="M214.48,-279.21C282.65,-283.87 389.98,-291.22 442.88,-294.84"/>
<polygon fill="#63b8ff" stroke="#63b8ff" points="214.51,-275.7 204.3,-278.51 214.04,-282.68 214.51,-275.7"/>
</a>
</g>
</g>
<!-- Node13&#45;&gt;Node10 -->
<g id="edge12_Node000010_Node000013" class="edge">
<title>Node13&#45;&gt;Node10</title>
<g id="a_edge12_Node000010_Node000013"><a xlink:title=" ">
<path fill="none" stroke="orange" stroke-dasharray="5,2" d="M543.03,-368.47C596.06,-367.25 669.69,-365.56 720.95,-364.38"/>
<polygon fill="orange" stroke="orange" points="542.62,-364.98 532.7,-368.71 542.78,-371.98 542.62,-364.98"/>
</a>
</g>
<text text-anchor="start" x="587.5" y="-372.5" font-family="Helvetica,sans-Serif" font-size="10.00" fill="grey">&lt; std::string, size_t &gt;</text>
</g>
<!-- Node14 -->
<g id="Node000014" class="node">
<title>Node14</title>
<g id="a_Node000014"><a xlink:title=" ">
<polygon fill="white" stroke="#666666" points="166.5,-380.5 137.5,-380.5 137.5,-361.5 166.5,-361.5 166.5,-380.5"/>
<text text-anchor="middle" x="152" y="-368.5" font-family="Helvetica,sans-Serif" font-size="10.00">K</text>
</a>
</g>
</g>
<!-- Node14&#45;&gt;Node13 -->
<g id="edge13_Node000013_Node000014" class="edge">
<title>Node14&#45;&gt;Node13</title>
<g id="a_edge13_Node000013_Node000014"><a xlink:title=" ">
<path fill="none" stroke="#9a32cd" stroke-dasharray="5,2" d="M177.13,-370.92C228,-370.77 347.39,-370.4 418.45,-370.17"/>
<polygon fill="#9a32cd" stroke="#9a32cd" points="176.8,-367.43 166.81,-370.96 176.83,-374.43 176.8,-367.43"/>
</a>
</g>
<text text-anchor="start" x="294" y="-375.5" font-family="Helvetica,sans-Serif" font-size="10.00" fill="grey">keys</text>
</g>
<!-- Node15 -->
<g id="Node000015" class="node">
<title>Node15</title>
<g id="a_Node000015"><a xlink:title=" ">
<polygon fill="white" stroke="#666666" points="1119.5,-254 999.5,-254 999.5,-224 1119.5,-224 1119.5,-254"/>
<text text-anchor="start" x="1007.5" y="-242" font-family="Helvetica,sans-Serif" font-size="10.00">std::shared_ptr&lt; amr</text>
<text text-anchor="middle" x="1059.5" y="-231" font-family="Helvetica,sans-Serif" font-size="10.00">_wind::FieldInfo &gt;</text>
</a>
</g>
</g>
<!-- Node15&#45;&gt;Node8 -->
<g id="edge16_Node000008_Node000015" class="edge">
<title>Node15&#45;&gt;Node8</title>
<g id="a_edge16_Node000008_Node000015"><a xlink:title=" ">
<path fill="none" stroke="#9a32cd" stroke-dasharray="5,2" d="M1129.56,-251.79C1170.54,-259.38 1221.38,-268.79 1257.49,-275.48"/>
<polygon fill="#9a32cd" stroke="#9a32cd" points="1130.1,-248.33 1119.63,-249.95 1128.83,-255.21 1130.1,-248.33"/>
</a>
</g>
<text text-anchor="start" x="1150.5" y="-266.5" font-family="Helvetica,sans-Serif" font-size="10.00" fill="grey">m_info</text>
</g>
<!-- Node16&#45;&gt;Node15 -->
<g id="edge17_Node000015_Node000016" class="edge">
<title>Node16&#45;&gt;Node15</title>
<g id="a_edge17_Node000015_Node000016"><a xlink:title=" ">
<path fill="none" stroke="#9a32cd" stroke-dasharray="5,2" d="M848.88,-239C894.7,-239 955.26,-239 999.5,-239"/>
<polygon fill="#9a32cd" stroke="#9a32cd" points="848.75,-235.5 838.75,-239 848.75,-242.5 848.75,-235.5"/>
</a>
</g>
<text text-anchor="start" x="910" y="-244.5" font-family="Helvetica,sans-Serif" font-size="10.00" fill="grey">ptr</text>
</g>
<!-- Node17&#45;&gt;Node16 -->
<g id="edge19_Node000016_Node000017" class="edge">
<title>Node17&#45;&gt;Node16</title>
<g id="a_edge19_Node000016_Node000017"><a xlink:title=" ">
<path fill="none" stroke="#9a32cd" stroke-dasharray="5,2" d="M570.22,-222.94C611.06,-222.11 659.47,-222.4 703,-226 712.17,-226.76 721.88,-228.01 731.22,-229.45"/>
<polygon fill="#9a32cd" stroke="#9a32cd" points="569.92,-219.44 560,-223.17 570.08,-226.44 569.92,-219.44"/>
</a>
</g>
<text text-anchor="start" x="604.5" y="-231.5" font-family="Helvetica,sans-Serif" font-size="10.00" fill="grey">m_fillpatch_op</text>
</g>
<!-- Node18&#45;&gt;Node17 -->
<g id="edge21_Node000017_Node000018" class="edge">
<title>Node18&#45;&gt;Node17</title>
<g id="a_edge21_Node000017_Node000018"><a xlink:title=" ">
<path fill="none" stroke="orange" stroke-dasharray="5,2" d="M221.5,-227C270.96,-227 338.04,-227 390.7,-227"/>
<polygon fill="orange" stroke="orange" points="221.22,-223.5 211.22,-227 221.22,-230.5 221.22,-223.5"/>
</a>
</g>
<text text-anchor="start" x="240" y="-248" font-family="Helvetica,sans-Serif" font-size="10.00" fill="grey">&lt; amr_wind::FieldFillPatch</text>
<text text-anchor="start" x="240" y="-233" font-family="Helvetica,sans-Serif" font-size="10.00" fill="grey">  OpsBase &gt;</text>
</g>
<!-- Node19&#45;&gt;Node15 -->
<g id="edge23_Node000015_Node000019" class="edge">
<title>Node19&#45;&gt;Node15</title>
<g id="a_edge23_Node000015_Node000019"><a xlink:title=" ">
<path fill="none" stroke="orange" stroke-dasharray="5,2" d="M374.59,-187.94C453.79,-189.36 587.95,-192.83 703,-201 807.64,-208.43 929.05,-222.61 999.49,-231.39"/>
<polygon fill="orange" stroke="orange" points="374.32,-184.43 364.26,-187.76 374.2,-191.43 374.32,-184.43"/>
</a>
</g>
<text text-anchor="start" x="581.5" y="-206.5" font-family="Helvetica,sans-Serif" font-size="10.00" fill="grey">&lt; amr_wind::FieldInfo &gt;</text>
</g>
<!-- Node20&#45;&gt;Node2 -->
<g id="edge25_Node000002_Node000020" class="edge">
<title>Node20&#45;&gt;Node2</title>
<g id="a_edge25_Node000002_Node000020"><a xlink:title=" ">
<path fill="none" stroke="#9a32cd" stroke-dasharray="5,2" d="M1900.17,-315.86C1972.95,-318.07 2080.08,-314.22 2167,-282 2194.57,-271.78 2221.08,-249.89 2236.96,-235.05"/>
<polygon fill="#9a32cd" stroke="#9a32cd" points="1900.25,-312.36 1890.13,-315.52 1900,-319.36 1900.25,-312.36"/>
</a>
</g>
<text text-anchor="start" x="1961" y="-321.5" font-family="Helvetica,sans-Serif" font-size="10.00" fill="grey">m_op</text>
</g>
<!-- Node21&#45;&gt;Node2 -->
<g id="edge27_Node000002_Node000021" class="edge">
<title>Node21&#45;&gt;Node2</title>
<g id="a_edge27_Node000002_Node000021"><a xlink:title=" ">
<path fill="none" stroke="orange" stroke-dasharray="5,2" d="M2052.2,-185.25C2093.82,-192.49 2144.9,-201.37 2184.99,-208.35"/>
<polygon fill="orange" stroke="orange" points="2052.56,-181.76 2042.11,-183.5 2051.36,-188.66 2052.56,-181.76"/>
</a>
</g>
<text text-anchor="start" x="2063.5" y="-209.5" font-family="Helvetica,sans-Serif" font-size="10.00" fill="grey">&lt; FieldBCDirichlet &gt;</text>
</g>
<!-- Node22&#45;&gt;Node21 -->
<g id="edge31_Node000021_Node000022" class="edge">
<title>Node22&#45;&gt;Node21</title>
<g id="a_edge31_Node000021_Node000022"><a xlink:title=" ">
<path fill="none" stroke="#9a32cd" stroke-dasharray="5,2" d="M1710.43,-172C1769.78,-172 1851.22,-172 1907.8,-172"/>
<polygon fill="#9a32cd" stroke="#9a32cd" points="1710.36,-168.5 1700.36,-172 1710.36,-175.5 1710.36,-168.5"/>
</a>
</g>
<text text-anchor="start" x="1801.5" y="-177.5" font-family="Helvetica,sans-Serif" font-size="10.00" fill="grey">m_op</text>
</g>
<!-- Node23&#45;&gt;Node1 -->
<g id="edge33_Node000001_Node000023" class="edge">
<title>Node23&#45;&gt;Node1</title>
<g id="a_edge33_Node000001_Node000023"><a xlink:title=" ">
<path fill="none" stroke="#9a32cd" stroke-dasharray="5,2" d="M1728.52,-372.35C1811.22,-363.04 1934.57,-349.13 2042,-337 2152.08,-324.57 2279.69,-310.13 2357.87,-301.28"/>
<polygon fill="#9a32cd" stroke="#9a32cd" points="1727.94,-368.9 1718.39,-373.49 1728.72,-375.85 1727.94,-368.9"/>
</a>
</g>
<text text-anchor="start" x="2082.5" y="-339.5" font-family="Helvetica,sans-Serif" font-size="10.00" fill="grey">m_ow_bndry</text>
</g>
<!-- Node24 -->
<g id="Node000024" class="node">
<title>Node24</title>
<g id="a_Node000024"><a xlink:title=" ">
<polygon fill="white" stroke="#666666" points="1402,-390 1207,-390 1207,-360 1402,-360 1402,-390"/>
<text text-anchor="start" x="1215" y="-378" font-family="Helvetica,sans-Serif" font-size="10.00">amr_wind::FieldBoundary</text>
<text text-anchor="middle" x="1304.5" y="-367" font-family="Helvetica,sans-Serif" font-size="10.00">::Register&lt; OceanWavesBoundary &gt;</text>
</a>
</g>
</g>
<!-- Node24&#45;&gt;Node23 -->
<g id="edge34_Node000023_Node000024" class="edge">
<title>Node24&#45;&gt;Node23</title>
<g id="a_edge34_Node000023_Node000024"><a xlink:title=" ">
<path fill="none" stroke="#63b8ff" d="M1412.22,-377.81C1414.84,-377.87 1417.43,-377.94 1420,-378 1460.3,-379 1504.91,-380.06 1542.77,-380.95"/>
<polygon fill="#63b8ff" stroke="#63b8ff" points="1412.1,-374.3 1402.02,-377.55 1411.93,-381.3 1412.1,-374.3"/>
</a>
</g>
</g>
<!-- Node25&#45;&gt;Node23 -->
<g id="edge38_Node000023_Node000025" class="edge">
<title>Node25&#45;&gt;Node23</title>
<g id="a_edge38_Node000023_Node000025"><a xlink:title=" ">
<path fill="none" stroke="#9a32cd" stroke-dasharray="5,2" d="M1368.28,-411.27C1417.93,-405.95 1487.86,-398.45 1543.24,-392.52"/>
<polygon fill="#9a32cd" stroke="#9a32cd" points="1367.89,-407.79 1358.32,-412.34 1368.64,-414.75 1367.89,-407.79"/>
</a>
</g>
<text text-anchor="start" x="1423.5" y="-410.5" font-family="Helvetica,sans-Serif" font-size="10.00" fill="grey">m_terrain_blank_ptr</text>
</g>
</g>
</svg>
