<?xml version="1.0" encoding="UTF-8" standalone="no"?>
<!DOCTYPE svg PUBLIC "-//W3C//DTD SVG 1.1//EN"
 "http://www.w3.org/Graphics/SVG/1.1/DTD/svg11.dtd">
<!-- Generated by graphviz version 2.43.0 (0)
 -->
<!-- Title: /home/runner/work/amr&#45;wind/amr&#45;wind/amr&#45;wind/overset Pages: 1 -->
<!--zoomable 133 -->

<svg id="main" version="1.1" xmlns="http://www.w3.org/2000/svg" xmlns:xlink="http://www.w3.org/1999/xlink" xml:space="preserve" onload="init(evt)">

<style type="text/css"><![CDATA[
.node, .edge {opacity: 0.7;}
.node.selected, .edge.selected {opacity: 1;}
.edge:hover path { stroke: red; }
.edge:hover polygon { stroke: red; fill: red; }
]]></style>

<defs>
  <circle id="rim" cx="0" cy="0" r="7"/>
  <circle id="rim2" cx="0" cy="0" r="3.5"/>
  <g id="zoomPlus">
    <use xlink:href="#rim" fill="#404040"><set attributeName="fill" to="#808080" begin="zoomplus.mouseover" end="zoomplus.mouseout"/></use>
    <path d="M-4,0h8M0,-4v8" fill="none" stroke="white" stroke-width="1.5" pointer-events="none"/>
  </g>
  <g id="zoomMin">
    <use xlink:href="#rim" fill="#404040"><set attributeName="fill" to="#808080" begin="zoomminus.mouseover" end="zoomminus.mouseout"/></use>
    <path d="M-4,0h8" fill="none" stroke="white" stroke-width="1.5" pointer-events="none"/>
  </g>
  <g id="arrowUp" transform="translate(30 24)">
    <use xlink:href="#rim"/>
    <path pointer-events="none" fill="none" stroke="white" stroke-width="1.5" d="M0,-3.0v7 M-2.5,-0.5L0,-3.0L2.5,-0.5"/>
  </g>
  <g id="arrowRight" transform="rotate(90) translate(36 -43)">
    <use xlink:href="#rim"/>
    <path pointer-events="none" fill="none" stroke="white" stroke-width="1.5" d="M0,-3.0v7 M-2.5,-0.5L0,-3.0L2.5,-0.5"/>
  </g>
  <g id="arrowDown" transform="rotate(180) translate(-30 -48)">
    <use xlink:href="#rim"/>
    <path pointer-events="none" fill="none" stroke="white" stroke-width="1.5" d="M0,-3.0v7 M-2.5,-0.5L0,-3.0L2.5,-0.5"/>
  </g>
  <g id="arrowLeft" transform="rotate(270) translate(-36 17)">
    <use xlink:href="#rim"/>
    <path pointer-events="none" fill="none" stroke="white" stroke-width="1.5" d="M0,-3.0v7 M-2.5,-0.5L0,-3.0L2.5,-0.5"/>
  </g>
  <g id="resetDef">
    <use xlink:href="#rim2" fill="#404040"><set attributeName="fill" to="#808080" begin="reset.mouseover" end="reset.mouseout"/></use>
  </g>
</defs>
<script type="application/ecmascript">
var viewWidth = 566;
var viewHeight = 133;
var sectionId = 'dynsection-0';
</script>
<script type="application/ecmascript" xlink:href="svg.min.js"/>
<svg id="graph" class="graph">
<g id="viewport">
<title>/home/runner/work/amr&#45;wind/amr&#45;wind/amr&#45;wind/overset</title>
<g id="clust1" class="cluster">
<title>clusterdir_212148f97b8bb53ebaebb3bf8a8b5de4</title>
<g id="a_clust1"><a xlink:href="dir_212148f97b8bb53ebaebb3bf8a8b5de4.html" target="_top" xlink:title="amr&#45;wind">
<polygon fill="#edf0f7" stroke="#7f7f7f" stroke-dasharray="5,2" points="8,-8 8,-117 550,-117 550,-8 8,-8"/>
<text text-anchor="middle" x="279" y="-105" font-family="Helvetica,sans-Serif" font-size="10.00">amr&#45;wind</text>
</a>
</g>
</g>
<!-- dir_25ba3af7252fba93a50e7ef611ff43dd -->
<g id="node1" class="node">
<title>dir_25ba3af7252fba93a50e7ef611ff43dd</title>
<g id="a_node1"><a xlink:href="dir_25ba3af7252fba93a50e7ef611ff43dd.html" target="_top" xlink:title="equation_systems">
<polygon fill="#a2b4d6" stroke="red" points="122,-35 16,-35 16,-16 122,-16 122,-35"/>
<text text-anchor="middle" x="69" y="-23" font-family="Helvetica,sans-Serif" font-size="10.00">equation_systems</text>
</a>
</g>
</g>
<!-- dir_308f9997443db20797cdad10983cf812 -->
<g id="node2" class="node">
<title>dir_308f9997443db20797cdad10983cf812</title>
<g id="a_node2"><a xlink:href="dir_308f9997443db20797cdad10983cf812.html" target="_top" xlink:title="projection">
<polygon fill="#a2b4d6" stroke="#404040" points="205.5,-35 140.5,-35 140.5,-16 205.5,-16 205.5,-35"/>
<text text-anchor="middle" x="173" y="-23" font-family="Helvetica,sans-Serif" font-size="10.00">projection</text>
</a>
</g>
</g>
<!-- dir_d2e4f22398959709992733f1617728ca -->
<g id="node3" class="node">
<title>dir_d2e4f22398959709992733f1617728ca</title>
<g id="a_node3"><a xlink:href="dir_d2e4f22398959709992733f1617728ca.html" target="_top" xlink:title="core">
<polygon fill="#a2b4d6" stroke="red" points="262,-35 224,-35 224,-16 262,-16 262,-35"/>
<text text-anchor="middle" x="243" y="-23" font-family="Helvetica,sans-Serif" font-size="10.00">core</text>
</a>
</g>
</g>
<!-- dir_e9168f3bfea397a173489332f8554c97 -->
<g id="node4" class="node">
<title>dir_e9168f3bfea397a173489332f8554c97</title>
<g id="a_node4"><a xlink:href="dir_e9168f3bfea397a173489332f8554c97.html" target="_top" xlink:title="utilities">
<polygon fill="#a2b4d6" stroke="red" points="333.5,-35 280.5,-35 280.5,-16 333.5,-16 333.5,-35"/>
<text text-anchor="middle" x="307" y="-23" font-family="Helvetica,sans-Serif" font-size="10.00">utilities</text>
</a>
</g>
</g>
<!-- dir_e91b3eef7c0d8abdbe8ee43dc3688a49 -->
<g id="node5" class="node">
<title>dir_e91b3eef7c0d8abdbe8ee43dc3688a49</title>
<g id="a_node5"><a xlink:href="dir_e91b3eef7c0d8abdbe8ee43dc3688a49.html" target="_top" xlink:title="boundary_conditions">
<polygon fill="#a2b4d6" stroke="red" points="470,-35 352,-35 352,-16 470,-16 470,-35"/>
<text text-anchor="middle" x="411" y="-23" font-family="Helvetica,sans-Serif" font-size="10.00">boundary_conditions</text>
</a>
</g>
</g>
<!-- dir_f00f788038d28a6de62e2305131ce6f9 -->
<g id="node6" class="node">
<title>dir_f00f788038d28a6de62e2305131ce6f9</title>
<g id="a_node6"><a xlink:href="dir_f00f788038d28a6de62e2305131ce6f9.html" target="_top" xlink:title="physics">
<polygon fill="#a2b4d6" stroke="red" points="541.5,-35 488.5,-35 488.5,-16 541.5,-16 541.5,-35"/>
<text text-anchor="middle" x="515" y="-23" font-family="Helvetica,sans-Serif" font-size="10.00">physics</text>
</a>
</g>
</g>
<!-- dir_36870694adceb415f28b3a8e8d793680 -->
<g id="node7" class="node">
<title>dir_36870694adceb415f28b3a8e8d793680</title>
<g id="a_node7"><a xlink:href="dir_36870694adceb415f28b3a8e8d793680.html" target="_top" xlink:title="overset">
<polygon fill="#edf0f7" stroke="#404040" stroke-width="2" points="301.5,-90 248.5,-90 248.5,-71 301.5,-71 301.5,-90"/>
<text text-anchor="middle" x="275" y="-78" font-family="Helvetica,sans-Serif" font-size="10.00">overset</text>
</a>
</g>
</g>
<!-- dir_36870694adceb415f28b3a8e8d793680&#45;&gt;dir_25ba3af7252fba93a50e7ef611ff43dd -->
<g id="edge1" class="edge">
<title>dir_36870694adceb415f28b3a8e8d793680&#45;&gt;dir_25ba3af7252fba93a50e7ef611ff43dd</title>
<g id="a_edge1"><a xlink:href="dir_000031_000016.html" target="_top">
<path fill="none" stroke="#63b8ff" d="M248.49,-72.68C213.96,-63.79 153.14,-48.15 111.98,-37.56"/>
<polygon fill="#63b8ff" stroke="#63b8ff" points="112.78,-34.15 102.22,-35.05 111.03,-40.93 112.78,-34.15"/>
</a>
</g>
<g id="a_edge1&#45;headlabel"><a xlink:href="dir_000031_000016.html" target="_top" xlink:title="2">
<text text-anchor="middle" x="116.96" y="-29.79" font-family="Helvetica,sans-Serif" font-size="10.00" fill="#63b8ff">2</text>
</a>
</g>
</g>
<!-- dir_36870694adceb415f28b3a8e8d793680&#45;&gt;dir_308f9997443db20797cdad10983cf812 -->
<g id="edge2" class="edge">
<title>dir_36870694adceb415f28b3a8e8d793680&#45;&gt;dir_308f9997443db20797cdad10983cf812</title>
<g id="a_edge2"><a xlink:href="dir_000031_000034.html" target="_top">
<path fill="none" stroke="#63b8ff" d="M258.61,-70.98C242.43,-62.57 217.43,-49.59 198.62,-39.81"/>
<polygon fill="#63b8ff" stroke="#63b8ff" points="200.17,-36.68 189.69,-35.17 196.95,-42.89 200.17,-36.68"/>
</a>
</g>
<g id="a_edge2&#45;headlabel"><a xlink:href="dir_000031_000034.html" target="_top" xlink:title="1">
<text text-anchor="middle" x="204.67" y="-33.31" font-family="Helvetica,sans-Serif" font-size="10.00" fill="#63b8ff">1</text>
</a>
</g>
</g>
<!-- dir_36870694adceb415f28b3a8e8d793680&#45;&gt;dir_d2e4f22398959709992733f1617728ca -->
<g id="edge3" class="edge">
<title>dir_36870694adceb415f28b3a8e8d793680&#45;&gt;dir_d2e4f22398959709992733f1617728ca</title>
<g id="a_edge3"><a xlink:href="dir_000031_000009.html" target="_top">
<path fill="none" stroke="#63b8ff" d="M269.72,-70.75C265.29,-63.42 258.84,-52.73 253.38,-43.7"/>
<polygon fill="#63b8ff" stroke="#63b8ff" points="256.35,-41.84 248.19,-35.09 250.36,-45.46 256.35,-41.84"/>
</a>
</g>
<g id="a_edge3&#45;headlabel"><a xlink:href="dir_000031_000009.html" target="_top" xlink:title="6">
<text text-anchor="middle" x="260.64" y="-40.95" font-family="Helvetica,sans-Serif" font-size="10.00" fill="#63b8ff">6</text>
</a>
</g>
</g>
<!-- dir_36870694adceb415f28b3a8e8d793680&#45;&gt;dir_e9168f3bfea397a173489332f8554c97 -->
<g id="edge4" class="edge">
<title>dir_36870694adceb415f28b3a8e8d793680&#45;&gt;dir_e9168f3bfea397a173489332f8554c97</title>
<g id="a_edge4"><a xlink:href="dir_000031_000052.html" target="_top">
<path fill="none" stroke="#63b8ff" d="M280.28,-70.75C284.71,-63.42 291.16,-52.73 296.62,-43.7"/>
<polygon fill="#63b8ff" stroke="#63b8ff" points="299.64,-45.46 301.81,-35.09 293.65,-41.84 299.64,-45.46"/>
</a>
</g>
<g id="a_edge4&#45;headlabel"><a xlink:href="dir_000031_000052.html" target="_top" xlink:title="1">
<text text-anchor="middle" x="300.21" y="-47.5" font-family="Helvetica,sans-Serif" font-size="10.00" fill="#63b8ff">1</text>
</a>
</g>
</g>
<!-- dir_36870694adceb415f28b3a8e8d793680&#45;&gt;dir_e91b3eef7c0d8abdbe8ee43dc3688a49 -->
<g id="edge5" class="edge">
<title>dir_36870694adceb415f28b3a8e8d793680&#45;&gt;dir_e91b3eef7c0d8abdbe8ee43dc3688a49</title>
<g id="a_edge5"><a xlink:href="dir_000031_000007.html" target="_top">
<path fill="none" stroke="#63b8ff" d="M296.85,-70.98C319.12,-62.3 353.9,-48.75 379.22,-38.88"/>
<polygon fill="#63b8ff" stroke="#63b8ff" points="380.71,-42.06 388.75,-35.17 378.16,-35.54 380.71,-42.06"/>
</a>
</g>
<g id="a_edge5&#45;headlabel"><a xlink:href="dir_000031_000007.html" target="_top" xlink:title="2">
<text text-anchor="middle" x="378.39" y="-43.51" font-family="Helvetica,sans-Serif" font-size="10.00" fill="#63b8ff">2</text>
</a>
</g>
</g>
<!-- dir_36870694adceb415f28b3a8e8d793680&#45;&gt;dir_f00f788038d28a6de62e2305131ce6f9 -->
<g id="edge6" class="edge">
<title>dir_36870694adceb415f28b3a8e8d793680&#45;&gt;dir_f00f788038d28a6de62e2305131ce6f9</title>
<g id="a_edge6"><a xlink:href="dir_000031_000033.html" target="_top">
<path fill="none" stroke="#63b8ff" d="M301.76,-73.81C339.03,-65.86 408.9,-50.84 478.47,-35.09"/>
<polygon fill="#63b8ff" stroke="#63b8ff" points="479.3,-38.49 488.28,-32.86 477.75,-31.66 479.3,-38.49"/>
</a>
</g>
<g id="a_edge6&#45;headlabel"><a xlink:href="dir_000031_000033.html" target="_top" xlink:title="1">
<text text-anchor="middle" x="476.42" y="-39.55" font-family="Helvetica,sans-Serif" font-size="10.00" fill="#63b8ff">1</text>
</a>
</g>
</g>
</g>
</svg>

<g id="navigator" transform="translate(0 0)" fill="#404254">
  <rect fill="#f2f5e9" fill-opacity="0.5" stroke="#606060" stroke-width=".5" x="0" y="0" width="60" height="60"/>
  <use id="zoomplus" xlink:href="#zoomPlus" x="17" y="9" onmousedown="handleZoom(evt,'in')"/>
  <use id="zoomminus" xlink:href="#zoomMin" x="42" y="9" onmousedown="handleZoom(evt,'out')"/>
  <use id="reset" xlink:href="#resetDef" x="30" y="36" onmousedown="handleReset()"/>
   <use id="arrowup" xlink:href="#arrowUp" x="0" y="0" onmousedown="handlePan(0,-1)"/>
  <use id="arrowright" xlink:href="#arrowRight" x="0" y="0" onmousedown="handlePan(1,0)"/>
  <use id="arrowdown" xlink:href="#arrowDown" x="0" y="0" onmousedown="handlePan(0,1)"/>
  <use id="arrowleft" xlink:href="#arrowLeft" x="0" y="0" onmousedown="handlePan(-1,0)"/>
</g>
<svg viewBox="0 0 15 15" width="100%" height="30px" preserveAspectRatio="xMaxYMin meet">
 <g id="arrow_out" transform="scale(0.3 0.3)">
  <a xlink:href="dir_36870694adceb415f28b3a8e8d793680_dep_org.svg" target="_base">
   <rect id="button" ry="5" rx="5" y="6" x="6" height="38" width="38"
        fill="#f2f5e9" fill-opacity="0.5" stroke="#606060" stroke-width="1.0"/>
   <path id="arrow"
     d="M 11.500037,31.436501 C 11.940474,20.09759 22.043105,11.32322 32.158766,21.979434 L 37.068811,17.246167 C 37.068811,17.246167 37.088388,32 37.088388,32 L 22.160133,31.978069 C 22.160133,31.978069 26.997745,27.140456 26.997745,27.140456 C 18.528582,18.264221 13.291696,25.230495 11.500037,31.436501 z"
     style="fill:#404040;"/>
  </a>
 </g>
</svg>

<style type='text/css'>
<![CDATA[
[data-mouse-over-selected='false'] { opacity: 0.7; }
[data-mouse-over-selected='true']  { opacity: 1.0; }
]]>
</style>
<script type="application/ecmascript"><![CDATA[
document.addEventListener('DOMContentLoaded', (event) => {
  highlightEdges();
  highlightAdjacentNodes();
});
]]></script>
</svg>
