<?xml version="1.0" encoding="UTF-8" standalone="no"?>
<!DOCTYPE svg PUBLIC "-//W3C//DTD SVG 1.1//EN"
 "http://www.w3.org/Graphics/SVG/1.1/DTD/svg11.dtd">
<!-- Generated by graphviz version 2.43.0 (0)
 -->
<!-- Title: /home/runner/work/amr&#45;wind/amr&#45;wind/amr&#45;wind/ocean_waves Pages: 1 -->
<!--zoomable 196 -->

<svg id="main" version="1.1" xmlns="http://www.w3.org/2000/svg" xmlns:xlink="http://www.w3.org/1999/xlink" xml:space="preserve" onload="init(evt)">

<style type="text/css"><![CDATA[
.node, .edge {opacity: 0.7;}
.node.selected, .edge.selected {opacity: 1;}
.edge:hover path { stroke: red; }
.edge:hover polygon { stroke: red; fill: red; }
]]></style>

<defs>
  <circle id="rim" cx="0" cy="0" r="7"/>
  <circle id="rim2" cx="0" cy="0" r="3.5"/>
  <g id="zoomPlus">
    <use xlink:href="#rim" fill="#404040"><set attributeName="fill" to="#808080" begin="zoomplus.mouseover" end="zoomplus.mouseout"/></use>
    <path d="M-4,0h8M0,-4v8" fill="none" stroke="white" stroke-width="1.5" pointer-events="none"/>
  </g>
  <g id="zoomMin">
    <use xlink:href="#rim" fill="#404040"><set attributeName="fill" to="#808080" begin="zoomminus.mouseover" end="zoomminus.mouseout"/></use>
    <path d="M-4,0h8" fill="none" stroke="white" stroke-width="1.5" pointer-events="none"/>
  </g>
  <g id="arrowUp" transform="translate(30 24)">
    <use xlink:href="#rim"/>
    <path pointer-events="none" fill="none" stroke="white" stroke-width="1.5" d="M0,-3.0v7 M-2.5,-0.5L0,-3.0L2.5,-0.5"/>
  </g>
  <g id="arrowRight" transform="rotate(90) translate(36 -43)">
    <use xlink:href="#rim"/>
    <path pointer-events="none" fill="none" stroke="white" stroke-width="1.5" d="M0,-3.0v7 M-2.5,-0.5L0,-3.0L2.5,-0.5"/>
  </g>
  <g id="arrowDown" transform="rotate(180) translate(-30 -48)">
    <use xlink:href="#rim"/>
    <path pointer-events="none" fill="none" stroke="white" stroke-width="1.5" d="M0,-3.0v7 M-2.5,-0.5L0,-3.0L2.5,-0.5"/>
  </g>
  <g id="arrowLeft" transform="rotate(270) translate(-36 17)">
    <use xlink:href="#rim"/>
    <path pointer-events="none" fill="none" stroke="white" stroke-width="1.5" d="M0,-3.0v7 M-2.5,-0.5L0,-3.0L2.5,-0.5"/>
  </g>
  <g id="resetDef">
    <use xlink:href="#rim2" fill="#404040"><set attributeName="fill" to="#808080" begin="reset.mouseover" end="reset.mouseout"/></use>
  </g>
</defs>
<script type="application/ecmascript">
var viewWidth = 730;
var viewHeight = 196;
var sectionId = 'dynsection-0';
</script>
<script type="application/ecmascript" xlink:href="svg.min.js"/>
<svg id="graph" class="graph">
<g id="viewport">
<title>/home/runner/work/amr&#45;wind/amr&#45;wind/amr&#45;wind/ocean_waves</title>
<g id="clust1" class="cluster">
<title>clusterdir_212148f97b8bb53ebaebb3bf8a8b5de4</title>
<g id="a_clust1"><a xlink:href="dir_212148f97b8bb53ebaebb3bf8a8b5de4.html" target="_top" xlink:title="amr&#45;wind">
<polygon fill="#edf0f7" stroke="#7f7f7f" stroke-dasharray="5,2" points="8,-8 8,-180 714,-180 714,-8 8,-8"/>
<text text-anchor="middle" x="361" y="-168" font-family="Helvetica,sans-Serif" font-size="10.00">amr&#45;wind</text>
</a>
</g>
</g>
<g id="clust2" class="cluster">
<title>clusterdir_31ef573988df7bf0ed14bf48414c6fd1</title>
<g id="a_clust2"><a xlink:href="dir_31ef573988df7bf0ed14bf48414c6fd1.html" target="_top">
<polygon fill="#edf0f7" stroke="#404040" stroke-width="2" points="16,-63 16,-153 234,-153 234,-63 16,-63"/>
</a>
</g>
</g>
<!-- dir_d2e4f22398959709992733f1617728ca -->
<g id="node1" class="node">
<title>dir_d2e4f22398959709992733f1617728ca</title>
<g id="a_node1"><a xlink:href="dir_d2e4f22398959709992733f1617728ca.html" target="_top" xlink:title="core">
<polygon fill="#a2b4d6" stroke="red" points="436,-90 398,-90 398,-71 436,-71 436,-90"/>
<text text-anchor="middle" x="417" y="-78" font-family="Helvetica,sans-Serif" font-size="10.00">core</text>
</a>
</g>
</g>
<!-- dir_e9168f3bfea397a173489332f8554c97 -->
<g id="node2" class="node">
<title>dir_e9168f3bfea397a173489332f8554c97</title>
<g id="a_node2"><a xlink:href="dir_e9168f3bfea397a173489332f8554c97.html" target="_top" xlink:title="utilities">
<polygon fill="#a2b4d6" stroke="red" points="405.5,-35 352.5,-35 352.5,-16 405.5,-16 405.5,-35"/>
<text text-anchor="middle" x="379" y="-23" font-family="Helvetica,sans-Serif" font-size="10.00">utilities</text>
</a>
</g>
</g>
<!-- dir_e91b3eef7c0d8abdbe8ee43dc3688a49 -->
<g id="node3" class="node">
<title>dir_e91b3eef7c0d8abdbe8ee43dc3688a49</title>
<g id="a_node3"><a xlink:href="dir_e91b3eef7c0d8abdbe8ee43dc3688a49.html" target="_top" xlink:title="boundary_conditions">
<polygon fill="#a2b4d6" stroke="red" points="360,-90 242,-90 242,-71 360,-71 360,-90"/>
<text text-anchor="middle" x="301" y="-78" font-family="Helvetica,sans-Serif" font-size="10.00">boundary_conditions</text>
</a>
</g>
</g>
<!-- dir_f00f788038d28a6de62e2305131ce6f9 -->
<g id="node4" class="node">
<title>dir_f00f788038d28a6de62e2305131ce6f9</title>
<g id="a_node4"><a xlink:href="dir_f00f788038d28a6de62e2305131ce6f9.html" target="_top" xlink:title="physics">
<polygon fill="#a2b4d6" stroke="red" points="507.5,-90 454.5,-90 454.5,-71 507.5,-71 507.5,-90"/>
<text text-anchor="middle" x="481" y="-78" font-family="Helvetica,sans-Serif" font-size="10.00">physics</text>
</a>
</g>
</g>
<!-- dir_25ba3af7252fba93a50e7ef611ff43dd -->
<g id="node5" class="node">
<title>dir_25ba3af7252fba93a50e7ef611ff43dd</title>
<g id="a_node5"><a xlink:href="dir_25ba3af7252fba93a50e7ef611ff43dd.html" target="_top" xlink:title="equation_systems">
<polygon fill="#a2b4d6" stroke="red" points="652,-90 546,-90 546,-71 652,-71 652,-90"/>
<text text-anchor="middle" x="599" y="-78" font-family="Helvetica,sans-Serif" font-size="10.00">equation_systems</text>
</a>
</g>
</g>
<!-- dir_3257b514042ea684f8dc73a7e1ce1689 -->
<g id="node6" class="node">
<title>dir_3257b514042ea684f8dc73a7e1ce1689</title>
<g id="a_node6"><a xlink:href="dir_3257b514042ea684f8dc73a7e1ce1689.html" target="_top" xlink:title="fvm">
<polygon fill="#a2b4d6" stroke="#404040" points="706,-90 670,-90 670,-71 706,-71 706,-90"/>
<text text-anchor="middle" x="688" y="-78" font-family="Helvetica,sans-Serif" font-size="10.00">fvm</text>
</a>
</g>
</g>
<!-- dir_31ef573988df7bf0ed14bf48414c6fd1 -->
<g id="node7" class="node">
<title>dir_31ef573988df7bf0ed14bf48414c6fd1</title>
<text text-anchor="middle" x="66" y="-133" font-family="Helvetica,sans-Serif" font-size="10.00">ocean_waves</text>
</g>
<!-- dir_31ef573988df7bf0ed14bf48414c6fd1&#45;&gt;dir_d2e4f22398959709992733f1617728ca -->
<g id="edge1" class="edge">
<title>dir_31ef573988df7bf0ed14bf48414c6fd1&#45;&gt;dir_d2e4f22398959709992733f1617728ca</title>
<g id="a_edge1"><a xlink:href="dir_000030_000009.html" target="_top">
<path fill="none" stroke="#63b8ff" d="M107.73,-127.44C110.87,-126.94 113.98,-126.45 117,-126 235.4,-108.16 266.48,-112.97 384,-90 385.27,-89.75 386.57,-89.48 387.88,-89.2"/>
<polygon fill="#63b8ff" stroke="#63b8ff" points="388.97,-92.54 397.89,-86.83 387.36,-85.73 388.97,-92.54"/>
</a>
</g>
<g id="a_edge1&#45;headlabel"><a xlink:href="dir_000030_000009.html" target="_top" xlink:title="13">
<text text-anchor="middle" x="386.12" y="-93.63" font-family="Helvetica,sans-Serif" font-size="10.00" fill="#63b8ff">13</text>
</a>
</g>
</g>
<!-- dir_31ef573988df7bf0ed14bf48414c6fd1&#45;&gt;dir_e9168f3bfea397a173489332f8554c97 -->
<g id="edge2" class="edge">
<title>dir_31ef573988df7bf0ed14bf48414c6fd1&#45;&gt;dir_e9168f3bfea397a173489332f8554c97</title>
<g id="a_edge2"><a xlink:href="dir_000030_000052.html" target="_top">
<path fill="none" stroke="#63b8ff" d="M107.74,-127.46C110.87,-126.96 113.98,-126.47 117,-126 172.9,-117.35 328.72,-129.71 369,-90 380.54,-78.62 382.21,-59.73 381.49,-45.5"/>
<polygon fill="#63b8ff" stroke="#63b8ff" points="384.95,-44.96 380.54,-35.32 377.98,-45.6 384.95,-44.96"/>
</a>
</g>
<g id="a_edge2&#45;headlabel"><a xlink:href="dir_000030_000052.html" target="_top" xlink:title="5">
<text text-anchor="middle" x="388.11" y="-45.77" font-family="Helvetica,sans-Serif" font-size="10.00" fill="#63b8ff">5</text>
</a>
</g>
</g>
<!-- dir_31ef573988df7bf0ed14bf48414c6fd1&#45;&gt;dir_e91b3eef7c0d8abdbe8ee43dc3688a49 -->
<g id="edge3" class="edge">
<title>dir_31ef573988df7bf0ed14bf48414c6fd1&#45;&gt;dir_e91b3eef7c0d8abdbe8ee43dc3688a49</title>
<g id="a_edge3"><a xlink:href="dir_000030_000007.html" target="_top">
<path fill="none" stroke="#63b8ff" d="M103.76,-125.98C144.32,-116.84 208.89,-102.27 253.03,-92.32"/>
<polygon fill="#63b8ff" stroke="#63b8ff" points="253.96,-95.7 262.95,-90.08 252.42,-88.87 253.96,-95.7"/>
</a>
</g>
<g id="a_edge3&#45;headlabel"><a xlink:href="dir_000030_000007.html" target="_top" xlink:title="1">
<text text-anchor="middle" x="251.08" y="-96.76" font-family="Helvetica,sans-Serif" font-size="10.00" fill="#63b8ff">1</text>
</a>
</g>
</g>
<!-- dir_31ef573988df7bf0ed14bf48414c6fd1&#45;&gt;dir_f00f788038d28a6de62e2305131ce6f9 -->
<g id="edge4" class="edge">
<title>dir_31ef573988df7bf0ed14bf48414c6fd1&#45;&gt;dir_f00f788038d28a6de62e2305131ce6f9</title>
<g id="a_edge4"><a xlink:href="dir_000030_000033.html" target="_top">
<path fill="none" stroke="#63b8ff" d="M107.72,-127.35C110.86,-126.87 113.98,-126.42 117,-126 259.01,-106.39 298.71,-114.51 444.14,-89.93"/>
<polygon fill="#63b8ff" stroke="#63b8ff" points="445.07,-93.32 454.34,-88.18 443.89,-86.42 445.07,-93.32"/>
</a>
</g>
<g id="a_edge4&#45;headlabel"><a xlink:href="dir_000030_000033.html" target="_top" xlink:title="3">
<text text-anchor="middle" x="442.01" y="-94.22" font-family="Helvetica,sans-Serif" font-size="10.00" fill="#63b8ff">3</text>
</a>
</g>
</g>
<!-- dir_48e8b978c5414ac72f81617c541ea03d -->
<g id="node8" class="node">
<title>dir_48e8b978c5414ac72f81617c541ea03d</title>
<g id="a_node8"><a xlink:href="dir_48e8b978c5414ac72f81617c541ea03d.html" target="_top" xlink:title="relaxation_zones">
<polygon fill="#a2b4d6" stroke="#404040" points="226,-145 126,-145 126,-126 226,-126 226,-145"/>
<text text-anchor="middle" x="176" y="-133" font-family="Helvetica,sans-Serif" font-size="10.00">relaxation_zones</text>
</a>
</g>
</g>
<!-- dir_48e8b978c5414ac72f81617c541ea03d&#45;&gt;dir_d2e4f22398959709992733f1617728ca -->
<g id="edge8" class="edge">
<title>dir_48e8b978c5414ac72f81617c541ea03d&#45;&gt;dir_d2e4f22398959709992733f1617728ca</title>
<g id="a_edge8"><a xlink:href="dir_000036_000009.html" target="_top">
<path fill="none" stroke="#63b8ff" d="M218.34,-125.98C260.45,-117.37 326.85,-103.47 384,-90 385.26,-89.7 386.55,-89.39 387.85,-89.08"/>
<polygon fill="#63b8ff" stroke="#63b8ff" points="388.99,-92.4 397.84,-86.58 387.29,-85.61 388.99,-92.4"/>
</a>
</g>
<g id="a_edge8&#45;headlabel"><a xlink:href="dir_000036_000009.html" target="_top" xlink:title="6">
<text text-anchor="middle" x="386.19" y="-93.53" font-family="Helvetica,sans-Serif" font-size="10.00" fill="#63b8ff">6</text>
</a>
</g>
</g>
<!-- dir_48e8b978c5414ac72f81617c541ea03d&#45;&gt;dir_e9168f3bfea397a173489332f8554c97 -->
<g id="edge9" class="edge">
<title>dir_48e8b978c5414ac72f81617c541ea03d&#45;&gt;dir_e9168f3bfea397a173489332f8554c97</title>
<g id="a_edge9"><a xlink:href="dir_000036_000052.html" target="_top">
<path fill="none" stroke="#63b8ff" d="M226.09,-131.56C316.21,-125.76 498.12,-111.51 517,-90 548.5,-54.12 466.44,-37.23 415.68,-30.42"/>
<polygon fill="#63b8ff" stroke="#63b8ff" points="416.04,-26.94 405.68,-29.15 415.16,-33.88 416.04,-26.94"/>
</a>
</g>
<g id="a_edge9&#45;headlabel"><a xlink:href="dir_000036_000052.html" target="_top" xlink:title="3">
<text text-anchor="middle" x="419.96" y="-22.07" font-family="Helvetica,sans-Serif" font-size="10.00" fill="#63b8ff">3</text>
</a>
</g>
</g>
<!-- dir_48e8b978c5414ac72f81617c541ea03d&#45;&gt;dir_f00f788038d28a6de62e2305131ce6f9 -->
<g id="edge10" class="edge">
<title>dir_48e8b978c5414ac72f81617c541ea03d&#45;&gt;dir_f00f788038d28a6de62e2305131ce6f9</title>
<g id="a_edge10"><a xlink:href="dir_000036_000033.html" target="_top">
<path fill="none" stroke="#63b8ff" d="M226.26,-127.23C278.32,-119.46 362.24,-106.3 444.31,-90.02"/>
<polygon fill="#63b8ff" stroke="#63b8ff" points="445.19,-93.41 454.31,-88.02 443.82,-86.55 445.19,-93.41"/>
</a>
</g>
<g id="a_edge10&#45;headlabel"><a xlink:href="dir_000036_000033.html" target="_top" xlink:title="2">
<text text-anchor="middle" x="442.22" y="-94.4" font-family="Helvetica,sans-Serif" font-size="10.00" fill="#63b8ff">2</text>
</a>
</g>
</g>
<!-- dir_48e8b978c5414ac72f81617c541ea03d&#45;&gt;dir_25ba3af7252fba93a50e7ef611ff43dd -->
<g id="edge5" class="edge">
<title>dir_48e8b978c5414ac72f81617c541ea03d&#45;&gt;dir_25ba3af7252fba93a50e7ef611ff43dd</title>
<g id="a_edge5"><a xlink:href="dir_000036_000016.html" target="_top">
<path fill="none" stroke="#63b8ff" d="M226.12,-128.26C295.03,-119.68 422.93,-103.74 532,-90 533.28,-89.84 534.57,-89.68 535.87,-89.51"/>
<polygon fill="#63b8ff" stroke="#63b8ff" points="536.49,-92.96 545.97,-88.24 535.61,-86.02 536.49,-92.96"/>
</a>
</g>
<g id="a_edge5&#45;headlabel"><a xlink:href="dir_000036_000016.html" target="_top" xlink:title="5">
<text text-anchor="middle" x="533.28" y="-93.73" font-family="Helvetica,sans-Serif" font-size="10.00" fill="#63b8ff">5</text>
</a>
</g>
</g>
<!-- dir_48e8b978c5414ac72f81617c541ea03d&#45;&gt;dir_3257b514042ea684f8dc73a7e1ce1689 -->
<g id="edge6" class="edge">
<title>dir_48e8b978c5414ac72f81617c541ea03d&#45;&gt;dir_3257b514042ea684f8dc73a7e1ce1689</title>
<g id="a_edge6"><a xlink:href="dir_000036_000020.html" target="_top">
<path fill="none" stroke="#63b8ff" d="M226.08,-133.42C312.82,-130.79 496.58,-121.85 659.63,-89.84"/>
<polygon fill="#63b8ff" stroke="#63b8ff" points="660.72,-93.19 669.84,-87.8 659.35,-86.32 660.72,-93.19"/>
</a>
</g>
<g id="a_edge6&#45;headlabel"><a xlink:href="dir_000036_000020.html" target="_top" xlink:title="2">
<text text-anchor="middle" x="657.75" y="-94.18" font-family="Helvetica,sans-Serif" font-size="10.00" fill="#63b8ff">2</text>
</a>
</g>
</g>
<!-- dir_acd2f41feea0c9667b2eb7e2e5651c8f -->
<g id="node9" class="node">
<title>dir_acd2f41feea0c9667b2eb7e2e5651c8f</title>
<g id="a_node9"><a xlink:href="dir_acd2f41feea0c9667b2eb7e2e5651c8f.html" target="_top" xlink:title="utils">
<polygon fill="#a2b4d6" stroke="#404040" points="209,-90 171,-90 171,-71 209,-71 209,-90"/>
<text text-anchor="middle" x="190" y="-78" font-family="Helvetica,sans-Serif" font-size="10.00">utils</text>
</a>
</g>
</g>
<!-- dir_48e8b978c5414ac72f81617c541ea03d&#45;&gt;dir_acd2f41feea0c9667b2eb7e2e5651c8f -->
<g id="edge7" class="edge">
<title>dir_48e8b978c5414ac72f81617c541ea03d&#45;&gt;dir_acd2f41feea0c9667b2eb7e2e5651c8f</title>
<g id="a_edge7"><a xlink:href="dir_000036_000053.html" target="_top">
<path fill="none" stroke="#63b8ff" d="M178.31,-125.75C180.17,-118.72 182.84,-108.62 185.15,-99.84"/>
<polygon fill="#63b8ff" stroke="#63b8ff" points="188.56,-100.65 187.73,-90.09 181.79,-98.86 188.56,-100.65"/>
</a>
</g>
<g id="a_edge7&#45;headlabel"><a xlink:href="dir_000036_000053.html" target="_top" xlink:title="1">
<text text-anchor="middle" x="190.39" y="-102.35" font-family="Helvetica,sans-Serif" font-size="10.00" fill="#63b8ff">1</text>
</a>
</g>
</g>
<!-- dir_acd2f41feea0c9667b2eb7e2e5651c8f&#45;&gt;dir_e9168f3bfea397a173489332f8554c97 -->
<g id="edge11" class="edge">
<title>dir_acd2f41feea0c9667b2eb7e2e5651c8f&#45;&gt;dir_e9168f3bfea397a173489332f8554c97</title>
<g id="a_edge11"><a xlink:href="dir_000053_000052.html" target="_top">
<path fill="none" stroke="#63b8ff" d="M200.21,-70.82C204.02,-67.96 208.51,-65 213,-63 255.13,-44.22 307.71,-34.76 342.26,-30.25"/>
<polygon fill="#63b8ff" stroke="#63b8ff" points="342.88,-33.7 352.38,-29 342.02,-26.75 342.88,-33.7"/>
</a>
</g>
<g id="a_edge11&#45;headlabel"><a xlink:href="dir_000053_000052.html" target="_top" xlink:title="1">
<text text-anchor="middle" x="339.66" y="-34.46" font-family="Helvetica,sans-Serif" font-size="10.00" fill="#63b8ff">1</text>
</a>
</g>
</g>
</g>
</svg>

<g id="navigator" transform="translate(0 0)" fill="#404254">
  <rect fill="#f2f5e9" fill-opacity="0.5" stroke="#606060" stroke-width=".5" x="0" y="0" width="60" height="60"/>
  <use id="zoomplus" xlink:href="#zoomPlus" x="17" y="9" onmousedown="handleZoom(evt,'in')"/>
  <use id="zoomminus" xlink:href="#zoomMin" x="42" y="9" onmousedown="handleZoom(evt,'out')"/>
  <use id="reset" xlink:href="#resetDef" x="30" y="36" onmousedown="handleReset()"/>
   <use id="arrowup" xlink:href="#arrowUp" x="0" y="0" onmousedown="handlePan(0,-1)"/>
  <use id="arrowright" xlink:href="#arrowRight" x="0" y="0" onmousedown="handlePan(1,0)"/>
  <use id="arrowdown" xlink:href="#arrowDown" x="0" y="0" onmousedown="handlePan(0,1)"/>
  <use id="arrowleft" xlink:href="#arrowLeft" x="0" y="0" onmousedown="handlePan(-1,0)"/>
</g>
<svg viewBox="0 0 15 15" width="100%" height="30px" preserveAspectRatio="xMaxYMin meet">
 <g id="arrow_out" transform="scale(0.3 0.3)">
  <a xlink:href="dir_31ef573988df7bf0ed14bf48414c6fd1_dep_org.svg" target="_base">
   <rect id="button" ry="5" rx="5" y="6" x="6" height="38" width="38"
        fill="#f2f5e9" fill-opacity="0.5" stroke="#606060" stroke-width="1.0"/>
   <path id="arrow"
     d="M 11.500037,31.436501 C 11.940474,20.09759 22.043105,11.32322 32.158766,21.979434 L 37.068811,17.246167 C 37.068811,17.246167 37.088388,32 37.088388,32 L 22.160133,31.978069 C 22.160133,31.978069 26.997745,27.140456 26.997745,27.140456 C 18.528582,18.264221 13.291696,25.230495 11.500037,31.436501 z"
     style="fill:#404040;"/>
  </a>
 </g>
</svg>

<style type='text/css'>
<![CDATA[
[data-mouse-over-selected='false'] { opacity: 0.7; }
[data-mouse-over-selected='true']  { opacity: 1.0; }
]]>
</style>
<script type="application/ecmascript"><![CDATA[
document.addEventListener('DOMContentLoaded', (event) => {
  highlightEdges();
  highlightAdjacentNodes();
});
]]></script>
</svg>
