<?xml version="1.0" encoding="UTF-8" standalone="no"?>
<!DOCTYPE svg PUBLIC "-//W3C//DTD SVG 1.1//EN"
 "http://www.w3.org/Graphics/SVG/1.1/DTD/svg11.dtd">
<!-- Generated by graphviz version 2.43.0 (0)
 -->
<!-- Title: /home/runner/work/amr&#45;wind/amr&#45;wind/amr&#45;wind/equation_systems/icns Pages: 1 -->
<svg width="886pt" height="141pt"
 viewBox="0.00 0.00 886.00 141.00" xmlns="http://www.w3.org/2000/svg" xmlns:xlink="http://www.w3.org/1999/xlink">
<g id="graph0" class="graph" transform="scale(1 1) rotate(0) translate(4 137)">
<title>/home/runner/work/amr&#45;wind/amr&#45;wind/amr&#45;wind/equation_systems/icns</title>
<g id="clust1" class="cluster">
<title>clusterdir_25ba3af7252fba93a50e7ef611ff43dd</title>
<g id="a_clust1"><a xlink:href="dir_25ba3af7252fba93a50e7ef611ff43dd.html" target="_top" xlink:title="equation_systems">
<polygon fill="#edf0f7" stroke="#7f7f7f" stroke-dasharray="5,2" points="8,-8 8,-125 178,-125 178,-8 8,-8"/>
<text text-anchor="middle" x="93" y="-113" font-family="Helvetica,sans-Serif" font-size="10.00">equation_systems</text>
</a>
</g>
</g>
<g id="clust2" class="cluster">
<title>clusterdir_dbb8931b96cba5208d070c0efd4d64a4</title>
<g id="a_clust2"><a xlink:href="dir_dbb8931b96cba5208d070c0efd4d64a4.html" target="_top">
<polygon fill="#edf0f7" stroke="#404040" stroke-width="2" points="16,-63 16,-98 170,-98 170,-63 16,-63"/>
</a>
</g>
</g>
<!-- dir_12791b19f0b305ea05c4a6bbc6348144 -->
<g id="node1" class="node">
<title>dir_12791b19f0b305ea05c4a6bbc6348144</title>
<g id="a_node1"><a xlink:href="dir_12791b19f0b305ea05c4a6bbc6348144.html" target="_top" xlink:title="vof">
<polygon fill="#a2b4d6" stroke="#404040" points="136,-35 104,-35 104,-16 136,-16 136,-35"/>
<text text-anchor="middle" x="120" y="-23" font-family="Helvetica,sans-Serif" font-size="10.00">vof</text>
</a>
</g>
</g>
<!-- dir_dbb8931b96cba5208d070c0efd4d64a4 -->
<g id="node2" class="node">
<title>dir_dbb8931b96cba5208d070c0efd4d64a4</title>
<text text-anchor="middle" x="42" y="-78" font-family="Helvetica,sans-Serif" font-size="10.00">icns</text>
</g>
<!-- dir_36870694adceb415f28b3a8e8d793680 -->
<g id="node4" class="node">
<title>dir_36870694adceb415f28b3a8e8d793680</title>
<g id="a_node4"><a xlink:href="dir_36870694adceb415f28b3a8e8d793680.html" target="_top" xlink:title="overset">
<polygon fill="#edf0f7" stroke="#7f7f7f" points="375.5,-35 322.5,-35 322.5,-16 375.5,-16 375.5,-35"/>
<text text-anchor="middle" x="349" y="-23" font-family="Helvetica,sans-Serif" font-size="10.00">overset</text>
</a>
</g>
</g>
<!-- dir_dbb8931b96cba5208d070c0efd4d64a4&#45;&gt;dir_36870694adceb415f28b3a8e8d793680 -->
<g id="edge1" class="edge">
<title>dir_dbb8931b96cba5208d070c0efd4d64a4&#45;&gt;dir_36870694adceb415f28b3a8e8d793680</title>
<g id="a_edge1"><a xlink:href="dir_000021_000031.html" target="_top">
<path fill="none" stroke="#63b8ff" d="M53.54,-70.92C58.13,-67.93 63.6,-64.86 69,-63 169.19,-28.52 203.47,-52.31 312.28,-34.86"/>
<polygon fill="#63b8ff" stroke="#63b8ff" points="313.06,-38.28 322.34,-33.16 311.89,-31.37 313.06,-38.28"/>
</a>
</g>
<g id="a_edge1&#45;headlabel"><a xlink:href="dir_000021_000031.html" target="_top" xlink:title="1">
<text text-anchor="middle" x="309.98" y="-39.17" font-family="Helvetica,sans-Serif" font-size="10.00" fill="#63b8ff">1</text>
</a>
</g>
</g>
<!-- dir_d2e4f22398959709992733f1617728ca -->
<g id="node5" class="node">
<title>dir_d2e4f22398959709992733f1617728ca</title>
<g id="a_node5"><a xlink:href="dir_d2e4f22398959709992733f1617728ca.html" target="_top" xlink:title="core">
<polygon fill="#edf0f7" stroke="red" stroke-dasharray="5,2" points="503,-35 465,-35 465,-16 503,-16 503,-35"/>
<text text-anchor="middle" x="484" y="-23" font-family="Helvetica,sans-Serif" font-size="10.00">core</text>
</a>
</g>
</g>
<!-- dir_dbb8931b96cba5208d070c0efd4d64a4&#45;&gt;dir_d2e4f22398959709992733f1617728ca -->
<g id="edge2" class="edge">
<title>dir_dbb8931b96cba5208d070c0efd4d64a4&#45;&gt;dir_d2e4f22398959709992733f1617728ca</title>
<g id="a_edge2"><a xlink:href="dir_000021_000009.html" target="_top">
<path fill="none" stroke="#63b8ff" d="M53.24,-70.98C57.87,-67.91 63.46,-64.78 69,-63 230.08,-11.33 284.38,-64.36 454.8,-34.74"/>
<polygon fill="#63b8ff" stroke="#63b8ff" points="455.64,-38.15 464.86,-32.92 454.4,-31.26 455.64,-38.15"/>
</a>
</g>
<g id="a_edge2&#45;headlabel"><a xlink:href="dir_000021_000009.html" target="_top" xlink:title="32">
<text text-anchor="middle" x="452.61" y="-39.08" font-family="Helvetica,sans-Serif" font-size="10.00" fill="#63b8ff">32</text>
</a>
</g>
</g>
<!-- dir_e9168f3bfea397a173489332f8554c97 -->
<g id="node6" class="node">
<title>dir_e9168f3bfea397a173489332f8554c97</title>
<g id="a_node6"><a xlink:href="dir_e9168f3bfea397a173489332f8554c97.html" target="_top" xlink:title="utilities">
<polygon fill="#edf0f7" stroke="red" stroke-dasharray="5,2" points="446.5,-35 393.5,-35 393.5,-16 446.5,-16 446.5,-35"/>
<text text-anchor="middle" x="420" y="-23" font-family="Helvetica,sans-Serif" font-size="10.00">utilities</text>
</a>
</g>
</g>
<!-- dir_dbb8931b96cba5208d070c0efd4d64a4&#45;&gt;dir_e9168f3bfea397a173489332f8554c97 -->
<g id="edge3" class="edge">
<title>dir_dbb8931b96cba5208d070c0efd4d64a4&#45;&gt;dir_e9168f3bfea397a173489332f8554c97</title>
<g id="a_edge3"><a xlink:href="dir_000021_000052.html" target="_top">
<path fill="none" stroke="#63b8ff" d="M53.51,-70.85C58.1,-67.85 63.57,-64.79 69,-63 199.77,-19.89 243.82,-56.14 383.13,-35.03"/>
<polygon fill="#63b8ff" stroke="#63b8ff" points="384,-38.44 393.33,-33.41 382.91,-31.53 384,-38.44"/>
</a>
</g>
<g id="a_edge3&#45;headlabel"><a xlink:href="dir_000021_000052.html" target="_top" xlink:title="33">
<text text-anchor="middle" x="380.9" y="-39.31" font-family="Helvetica,sans-Serif" font-size="10.00" fill="#63b8ff">33</text>
</a>
</g>
</g>
<!-- dir_e91b3eef7c0d8abdbe8ee43dc3688a49 -->
<g id="node7" class="node">
<title>dir_e91b3eef7c0d8abdbe8ee43dc3688a49</title>
<g id="a_node7"><a xlink:href="dir_e91b3eef7c0d8abdbe8ee43dc3688a49.html" target="_top" xlink:title="boundary_conditions">
<polygon fill="#edf0f7" stroke="red" stroke-dasharray="5,2" points="304,-35 186,-35 186,-16 304,-16 304,-35"/>
<text text-anchor="middle" x="245" y="-23" font-family="Helvetica,sans-Serif" font-size="10.00">boundary_conditions</text>
</a>
</g>
</g>
<!-- dir_dbb8931b96cba5208d070c0efd4d64a4&#45;&gt;dir_e91b3eef7c0d8abdbe8ee43dc3688a49 -->
<g id="edge4" class="edge">
<title>dir_dbb8931b96cba5208d070c0efd4d64a4&#45;&gt;dir_e91b3eef7c0d8abdbe8ee43dc3688a49</title>
<g id="a_edge4"><a xlink:href="dir_000021_000007.html" target="_top">
<path fill="none" stroke="#63b8ff" d="M54.17,-70.84C58.65,-67.98 63.89,-65.02 69,-63 89.69,-54.82 141.92,-44.43 184.14,-36.83"/>
<polygon fill="#63b8ff" stroke="#63b8ff" points="184.86,-40.26 194.09,-35.06 183.63,-33.37 184.86,-40.26"/>
</a>
</g>
<g id="a_edge4&#45;headlabel"><a xlink:href="dir_000021_000007.html" target="_top" xlink:title="5">
<text text-anchor="middle" x="181.81" y="-41.18" font-family="Helvetica,sans-Serif" font-size="10.00" fill="#63b8ff">5</text>
</a>
</g>
</g>
<!-- dir_4fe76208354ba539f52d35cb3808a7ba -->
<g id="node3" class="node">
<title>dir_4fe76208354ba539f52d35cb3808a7ba</title>
<g id="a_node3"><a xlink:href="dir_4fe76208354ba539f52d35cb3808a7ba.html" target="_top" xlink:title="source_terms">
<polygon fill="#a2b4d6" stroke="#404040" points="161.5,-90 78.5,-90 78.5,-71 161.5,-71 161.5,-90"/>
<text text-anchor="middle" x="120" y="-78" font-family="Helvetica,sans-Serif" font-size="10.00">source_terms</text>
</a>
</g>
</g>
<!-- dir_4fe76208354ba539f52d35cb3808a7ba&#45;&gt;dir_12791b19f0b305ea05c4a6bbc6348144 -->
<g id="edge5" class="edge">
<title>dir_4fe76208354ba539f52d35cb3808a7ba&#45;&gt;dir_12791b19f0b305ea05c4a6bbc6348144</title>
<g id="a_edge5"><a xlink:href="dir_000040_000054.html" target="_top">
<path fill="none" stroke="#63b8ff" d="M120,-70.75C120,-63.8 120,-53.85 120,-45.13"/>
<polygon fill="#63b8ff" stroke="#63b8ff" points="123.5,-45.09 120,-35.09 116.5,-45.09 123.5,-45.09"/>
</a>
</g>
<g id="a_edge5&#45;headlabel"><a xlink:href="dir_000040_000054.html" target="_top" xlink:title="3">
<text text-anchor="middle" x="126.34" y="-46.18" font-family="Helvetica,sans-Serif" font-size="10.00" fill="#63b8ff">3</text>
</a>
</g>
</g>
<!-- dir_4fe76208354ba539f52d35cb3808a7ba&#45;&gt;dir_d2e4f22398959709992733f1617728ca -->
<g id="edge9" class="edge">
<title>dir_4fe76208354ba539f52d35cb3808a7ba&#45;&gt;dir_d2e4f22398959709992733f1617728ca</title>
<g id="a_edge9"><a xlink:href="dir_000040_000009.html" target="_top">
<path fill="none" stroke="#63b8ff" d="M161.76,-76.17C223.79,-70.76 344.02,-58.41 454.82,-34.93"/>
<polygon fill="#63b8ff" stroke="#63b8ff" points="455.79,-38.3 464.83,-32.77 454.32,-31.46 455.79,-38.3"/>
</a>
</g>
<g id="a_edge9&#45;headlabel"><a xlink:href="dir_000040_000009.html" target="_top" xlink:title="27">
<text text-anchor="middle" x="452.88" y="-39.33" font-family="Helvetica,sans-Serif" font-size="10.00" fill="#63b8ff">27</text>
</a>
</g>
</g>
<!-- dir_4fe76208354ba539f52d35cb3808a7ba&#45;&gt;dir_e9168f3bfea397a173489332f8554c97 -->
<g id="edge10" class="edge">
<title>dir_4fe76208354ba539f52d35cb3808a7ba&#45;&gt;dir_e9168f3bfea397a173489332f8554c97</title>
<g id="a_edge10"><a xlink:href="dir_000040_000052.html" target="_top">
<path fill="none" stroke="#63b8ff" d="M161.94,-73.41C212.33,-65.88 299.65,-52.17 383.37,-35.22"/>
<polygon fill="#63b8ff" stroke="#63b8ff" points="384.19,-38.63 393.29,-33.2 382.79,-31.77 384.19,-38.63"/>
</a>
</g>
<g id="a_edge10&#45;headlabel"><a xlink:href="dir_000040_000052.html" target="_top" xlink:title="29">
<text text-anchor="middle" x="381.24" y="-39.63" font-family="Helvetica,sans-Serif" font-size="10.00" fill="#63b8ff">29</text>
</a>
</g>
</g>
<!-- dir_b33158d99c61436f71711cd504567082 -->
<g id="node8" class="node">
<title>dir_b33158d99c61436f71711cd504567082</title>
<g id="a_node8"><a xlink:href="dir_b33158d99c61436f71711cd504567082.html" target="_top" xlink:title="wind_energy">
<polygon fill="#edf0f7" stroke="red" stroke-dasharray="5,2" points="686.5,-35 607.5,-35 607.5,-16 686.5,-16 686.5,-35"/>
<text text-anchor="middle" x="647" y="-23" font-family="Helvetica,sans-Serif" font-size="10.00">wind_energy</text>
</a>
</g>
</g>
<!-- dir_4fe76208354ba539f52d35cb3808a7ba&#45;&gt;dir_b33158d99c61436f71711cd504567082 -->
<g id="edge8" class="edge">
<title>dir_4fe76208354ba539f52d35cb3808a7ba&#45;&gt;dir_b33158d99c61436f71711cd504567082</title>
<g id="a_edge8"><a xlink:href="dir_000040_000057.html" target="_top">
<path fill="none" stroke="#63b8ff" d="M161.68,-76.73C243.25,-71.07 429.84,-56.95 597.47,-34.96"/>
<polygon fill="#63b8ff" stroke="#63b8ff" points="598.01,-38.42 607.46,-33.63 597.09,-31.48 598.01,-38.42"/>
</a>
</g>
<g id="a_edge8&#45;headlabel"><a xlink:href="dir_000040_000057.html" target="_top" xlink:title="9">
<text text-anchor="middle" x="594.82" y="-39.2" font-family="Helvetica,sans-Serif" font-size="10.00" fill="#63b8ff">9</text>
</a>
</g>
</g>
<!-- dir_f00f788038d28a6de62e2305131ce6f9 -->
<g id="node9" class="node">
<title>dir_f00f788038d28a6de62e2305131ce6f9</title>
<g id="a_node9"><a xlink:href="dir_f00f788038d28a6de62e2305131ce6f9.html" target="_top" xlink:title="physics">
<polygon fill="#edf0f7" stroke="red" stroke-dasharray="5,2" points="757.5,-35 704.5,-35 704.5,-16 757.5,-16 757.5,-35"/>
<text text-anchor="middle" x="731" y="-23" font-family="Helvetica,sans-Serif" font-size="10.00">physics</text>
</a>
</g>
</g>
<!-- dir_4fe76208354ba539f52d35cb3808a7ba&#45;&gt;dir_f00f788038d28a6de62e2305131ce6f9 -->
<g id="edge11" class="edge">
<title>dir_4fe76208354ba539f52d35cb3808a7ba&#45;&gt;dir_f00f788038d28a6de62e2305131ce6f9</title>
<g id="a_edge11"><a xlink:href="dir_000040_000033.html" target="_top">
<path fill="none" stroke="#63b8ff" d="M161.83,-78.57C255.63,-76.01 489.93,-66.84 694.32,-35.03"/>
<polygon fill="#63b8ff" stroke="#63b8ff" points="695,-38.46 704.34,-33.44 693.91,-31.55 695,-38.46"/>
</a>
</g>
<g id="a_edge11&#45;headlabel"><a xlink:href="dir_000040_000033.html" target="_top" xlink:title="4">
<text text-anchor="middle" x="691.9" y="-39.33" font-family="Helvetica,sans-Serif" font-size="10.00" fill="#63b8ff">4</text>
</a>
</g>
</g>
<!-- dir_8850def71d7022841cb32c1b32cdfc07 -->
<g id="node10" class="node">
<title>dir_8850def71d7022841cb32c1b32cdfc07</title>
<g id="a_node10"><a xlink:href="dir_8850def71d7022841cb32c1b32cdfc07.html" target="_top" xlink:title="transport_models">
<polygon fill="#edf0f7" stroke="#7f7f7f" points="878,-35 776,-35 776,-16 878,-16 878,-35"/>
<text text-anchor="middle" x="827" y="-23" font-family="Helvetica,sans-Serif" font-size="10.00">transport_models</text>
</a>
</g>
</g>
<!-- dir_4fe76208354ba539f52d35cb3808a7ba&#45;&gt;dir_8850def71d7022841cb32c1b32cdfc07 -->
<g id="edge7" class="edge">
<title>dir_4fe76208354ba539f52d35cb3808a7ba&#45;&gt;dir_8850def71d7022841cb32c1b32cdfc07</title>
<g id="a_edge7"><a xlink:href="dir_000040_000048.html" target="_top">
<path fill="none" stroke="#63b8ff" d="M161.72,-77.67C263.24,-73.01 531.39,-59.34 765.88,-35.04"/>
<polygon fill="#63b8ff" stroke="#63b8ff" points="766.39,-38.51 775.97,-33.98 765.66,-31.54 766.39,-38.51"/>
</a>
</g>
<g id="a_edge7&#45;headlabel"><a xlink:href="dir_000040_000048.html" target="_top" xlink:title="2">
<text text-anchor="middle" x="763.11" y="-39.2" font-family="Helvetica,sans-Serif" font-size="10.00" fill="#63b8ff">2</text>
</a>
</g>
</g>
<!-- dir_5460936bc36635a4924df5fb6ccd4a9f -->
<g id="node11" class="node">
<title>dir_5460936bc36635a4924df5fb6ccd4a9f</title>
<g id="a_node11"><a xlink:href="dir_5460936bc36635a4924df5fb6ccd4a9f.html" target="_top" xlink:title="turbulence">
<polygon fill="#edf0f7" stroke="red" stroke-dasharray="5,2" points="589,-35 521,-35 521,-16 589,-16 589,-35"/>
<text text-anchor="middle" x="555" y="-23" font-family="Helvetica,sans-Serif" font-size="10.00">turbulence</text>
</a>
</g>
</g>
<!-- dir_4fe76208354ba539f52d35cb3808a7ba&#45;&gt;dir_5460936bc36635a4924df5fb6ccd4a9f -->
<g id="edge6" class="edge">
<title>dir_4fe76208354ba539f52d35cb3808a7ba&#45;&gt;dir_5460936bc36635a4924df5fb6ccd4a9f</title>
<g id="a_edge6"><a xlink:href="dir_000040_000050.html" target="_top">
<path fill="none" stroke="#63b8ff" d="M161.63,-75.91C231.65,-69.62 377.58,-55.45 510.8,-35.07"/>
<polygon fill="#63b8ff" stroke="#63b8ff" points="511.43,-38.51 520.78,-33.53 510.36,-31.6 511.43,-38.51"/>
</a>
</g>
<g id="a_edge6&#45;headlabel"><a xlink:href="dir_000040_000050.html" target="_top" xlink:title="1">
<text text-anchor="middle" x="508.31" y="-39.37" font-family="Helvetica,sans-Serif" font-size="10.00" fill="#63b8ff">1</text>
</a>
</g>
</g>
</g>
</svg>
