<?xml version="1.0" encoding="UTF-8" standalone="no"?>
<!DOCTYPE svg PUBLIC "-//W3C//DTD SVG 1.1//EN"
 "http://www.w3.org/Graphics/SVG/1.1/DTD/svg11.dtd">
<!-- Generated by graphviz version 2.43.0 (0)
 -->
<!-- Title: /home/runner/work/amr&#45;wind/amr&#45;wind/amr&#45;wind/turbulence Pages: 1 -->
<svg width="544pt" height="141pt"
 viewBox="0.00 0.00 544.00 141.00" xmlns="http://www.w3.org/2000/svg" xmlns:xlink="http://www.w3.org/1999/xlink">
<g id="graph0" class="graph" transform="scale(1 1) rotate(0) translate(4 137)">
<title>/home/runner/work/amr&#45;wind/amr&#45;wind/amr&#45;wind/turbulence</title>
<g id="clust1" class="cluster">
<title>clusterdir_212148f97b8bb53ebaebb3bf8a8b5de4</title>
<g id="a_clust1"><a xlink:href="dir_212148f97b8bb53ebaebb3bf8a8b5de4.html" target="_top" xlink:title="amr&#45;wind">
<polygon fill="#edf0f7" stroke="#7f7f7f" stroke-dasharray="5,2" points="8,-8 8,-125 528,-125 528,-8 8,-8"/>
<text text-anchor="middle" x="268" y="-113" font-family="Helvetica,sans-Serif" font-size="10.00">amr&#45;wind</text>
</a>
</g>
</g>
<g id="clust2" class="cluster">
<title>clusterdir_5460936bc36635a4924df5fb6ccd4a9f</title>
<g id="a_clust2"><a xlink:href="dir_5460936bc36635a4924df5fb6ccd4a9f.html" target="_top">
<polygon fill="#edf0f7" stroke="#404040" stroke-width="2" points="177,-63 177,-98 375,-98 375,-63 177,-63"/>
</a>
</g>
</g>
<!-- dir_25ba3af7252fba93a50e7ef611ff43dd -->
<g id="node1" class="node">
<title>dir_25ba3af7252fba93a50e7ef611ff43dd</title>
<g id="a_node1"><a xlink:href="dir_25ba3af7252fba93a50e7ef611ff43dd.html" target="_top" xlink:title="equation_systems">
<polygon fill="#a2b4d6" stroke="red" points="466,-35 360,-35 360,-16 466,-16 466,-35"/>
<text text-anchor="middle" x="413" y="-23" font-family="Helvetica,sans-Serif" font-size="10.00">equation_systems</text>
</a>
</g>
</g>
<!-- dir_3257b514042ea684f8dc73a7e1ce1689 -->
<g id="node2" class="node">
<title>dir_3257b514042ea684f8dc73a7e1ce1689</title>
<g id="a_node2"><a xlink:href="dir_3257b514042ea684f8dc73a7e1ce1689.html" target="_top" xlink:title="fvm">
<polygon fill="#a2b4d6" stroke="#404040" points="520,-35 484,-35 484,-16 520,-16 520,-35"/>
<text text-anchor="middle" x="502" y="-23" font-family="Helvetica,sans-Serif" font-size="10.00">fvm</text>
</a>
</g>
</g>
<!-- dir_8850def71d7022841cb32c1b32cdfc07 -->
<g id="node3" class="node">
<title>dir_8850def71d7022841cb32c1b32cdfc07</title>
<g id="a_node3"><a xlink:href="dir_8850def71d7022841cb32c1b32cdfc07.html" target="_top" xlink:title="transport_models">
<polygon fill="#a2b4d6" stroke="#404040" points="118,-35 16,-35 16,-16 118,-16 118,-35"/>
<text text-anchor="middle" x="67" y="-23" font-family="Helvetica,sans-Serif" font-size="10.00">transport_models</text>
</a>
</g>
</g>
<!-- dir_b33158d99c61436f71711cd504567082 -->
<g id="node4" class="node">
<title>dir_b33158d99c61436f71711cd504567082</title>
<g id="a_node4"><a xlink:href="dir_b33158d99c61436f71711cd504567082.html" target="_top" xlink:title="wind_energy">
<polygon fill="#a2b4d6" stroke="red" points="342.5,-35 263.5,-35 263.5,-16 342.5,-16 342.5,-35"/>
<text text-anchor="middle" x="303" y="-23" font-family="Helvetica,sans-Serif" font-size="10.00">wind_energy</text>
</a>
</g>
</g>
<!-- dir_d2e4f22398959709992733f1617728ca -->
<g id="node5" class="node">
<title>dir_d2e4f22398959709992733f1617728ca</title>
<g id="a_node5"><a xlink:href="dir_d2e4f22398959709992733f1617728ca.html" target="_top" xlink:title="core">
<polygon fill="#a2b4d6" stroke="red" points="174,-35 136,-35 136,-16 174,-16 174,-35"/>
<text text-anchor="middle" x="155" y="-23" font-family="Helvetica,sans-Serif" font-size="10.00">core</text>
</a>
</g>
</g>
<!-- dir_e9168f3bfea397a173489332f8554c97 -->
<g id="node6" class="node">
<title>dir_e9168f3bfea397a173489332f8554c97</title>
<g id="a_node6"><a xlink:href="dir_e9168f3bfea397a173489332f8554c97.html" target="_top" xlink:title="utilities">
<polygon fill="#a2b4d6" stroke="red" points="245.5,-35 192.5,-35 192.5,-16 245.5,-16 245.5,-35"/>
<text text-anchor="middle" x="219" y="-23" font-family="Helvetica,sans-Serif" font-size="10.00">utilities</text>
</a>
</g>
</g>
<!-- dir_5460936bc36635a4924df5fb6ccd4a9f -->
<g id="node7" class="node">
<title>dir_5460936bc36635a4924df5fb6ccd4a9f</title>
<text text-anchor="middle" x="219" y="-78" font-family="Helvetica,sans-Serif" font-size="10.00">turbulence</text>
</g>
<!-- dir_5460936bc36635a4924df5fb6ccd4a9f&#45;&gt;dir_8850def71d7022841cb32c1b32cdfc07 -->
<g id="edge1" class="edge">
<title>dir_5460936bc36635a4924df5fb6ccd4a9f&#45;&gt;dir_8850def71d7022841cb32c1b32cdfc07</title>
<g id="a_edge1"><a xlink:href="dir_000050_000048.html" target="_top">
<path fill="none" stroke="#63b8ff" d="M194.58,-70.98C169.28,-62.16 129.55,-48.31 101.14,-38.41"/>
<polygon fill="#63b8ff" stroke="#63b8ff" points="102.21,-35.07 91.61,-35.08 99.9,-41.68 102.21,-35.07"/>
</a>
</g>
<g id="a_edge1&#45;headlabel"><a xlink:href="dir_000050_000048.html" target="_top" xlink:title="2">
<text text-anchor="middle" x="106.54" y="-31.07" font-family="Helvetica,sans-Serif" font-size="10.00" fill="#63b8ff">2</text>
</a>
</g>
</g>
<!-- dir_5460936bc36635a4924df5fb6ccd4a9f&#45;&gt;dir_d2e4f22398959709992733f1617728ca -->
<g id="edge2" class="edge">
<title>dir_5460936bc36635a4924df5fb6ccd4a9f&#45;&gt;dir_d2e4f22398959709992733f1617728ca</title>
<g id="a_edge2"><a xlink:href="dir_000050_000009.html" target="_top">
<path fill="none" stroke="#63b8ff" d="M208.72,-70.98C199.16,-63.07 184.72,-51.11 173.22,-41.58"/>
<polygon fill="#63b8ff" stroke="#63b8ff" points="175.4,-38.85 165.47,-35.17 170.94,-44.24 175.4,-38.85"/>
</a>
</g>
<g id="a_edge2&#45;headlabel"><a xlink:href="dir_000050_000009.html" target="_top" xlink:title="8">
<text text-anchor="middle" x="179.98" y="-36.46" font-family="Helvetica,sans-Serif" font-size="10.00" fill="#63b8ff">8</text>
</a>
</g>
</g>
<!-- dir_5460936bc36635a4924df5fb6ccd4a9f&#45;&gt;dir_e9168f3bfea397a173489332f8554c97 -->
<g id="edge3" class="edge">
<title>dir_5460936bc36635a4924df5fb6ccd4a9f&#45;&gt;dir_e9168f3bfea397a173489332f8554c97</title>
<g id="a_edge3"><a xlink:href="dir_000050_000052.html" target="_top">
<path fill="none" stroke="#63b8ff" d="M219,-70.75C219,-63.8 219,-53.85 219,-45.13"/>
<polygon fill="#63b8ff" stroke="#63b8ff" points="222.5,-45.09 219,-35.09 215.5,-45.09 222.5,-45.09"/>
</a>
</g>
<g id="a_edge3&#45;headlabel"><a xlink:href="dir_000050_000052.html" target="_top" xlink:title="9">
<text text-anchor="middle" x="225.34" y="-46.18" font-family="Helvetica,sans-Serif" font-size="10.00" fill="#63b8ff">9</text>
</a>
</g>
</g>
<!-- dir_1538b4cee7174914fb662cb9f2155043 -->
<g id="node8" class="node">
<title>dir_1538b4cee7174914fb662cb9f2155043</title>
<g id="a_node8"><a xlink:href="dir_1538b4cee7174914fb662cb9f2155043.html" target="_top" xlink:title="LES">
<polygon fill="#a2b4d6" stroke="#404040" points="305,-90 271,-90 271,-71 305,-71 305,-90"/>
<text text-anchor="middle" x="288" y="-78" font-family="Helvetica,sans-Serif" font-size="10.00">LES</text>
</a>
</g>
</g>
<!-- dir_1538b4cee7174914fb662cb9f2155043&#45;&gt;dir_25ba3af7252fba93a50e7ef611ff43dd -->
<g id="edge4" class="edge">
<title>dir_1538b4cee7174914fb662cb9f2155043&#45;&gt;dir_25ba3af7252fba93a50e7ef611ff43dd</title>
<g id="a_edge4"><a xlink:href="dir_000024_000016.html" target="_top">
<path fill="none" stroke="#63b8ff" d="M300.38,-70.89C304.59,-68.16 309.4,-65.28 314,-63 333.62,-53.29 356.5,-44.69 375.32,-38.28"/>
<polygon fill="#63b8ff" stroke="#63b8ff" points="376.65,-41.53 385.03,-35.05 374.44,-34.89 376.65,-41.53"/>
</a>
</g>
<g id="a_edge4&#45;headlabel"><a xlink:href="dir_000024_000016.html" target="_top" xlink:title="2">
<text text-anchor="middle" x="374.14" y="-42.86" font-family="Helvetica,sans-Serif" font-size="10.00" fill="#63b8ff">2</text>
</a>
</g>
</g>
<!-- dir_1538b4cee7174914fb662cb9f2155043&#45;&gt;dir_3257b514042ea684f8dc73a7e1ce1689 -->
<g id="edge5" class="edge">
<title>dir_1538b4cee7174914fb662cb9f2155043&#45;&gt;dir_3257b514042ea684f8dc73a7e1ce1689</title>
<g id="a_edge5"><a xlink:href="dir_000024_000020.html" target="_top">
<path fill="none" stroke="#63b8ff" d="M299.38,-70.91C303.75,-67.98 308.91,-64.97 314,-63 378.83,-37.94 402.4,-50.92 473.87,-34.93"/>
<polygon fill="#63b8ff" stroke="#63b8ff" points="474.86,-38.29 483.79,-32.59 473.26,-31.48 474.86,-38.29"/>
</a>
</g>
<g id="a_edge5&#45;headlabel"><a xlink:href="dir_000024_000020.html" target="_top" xlink:title="10">
<text text-anchor="middle" x="472.01" y="-39.38" font-family="Helvetica,sans-Serif" font-size="10.00" fill="#63b8ff">10</text>
</a>
</g>
</g>
<!-- dir_1538b4cee7174914fb662cb9f2155043&#45;&gt;dir_b33158d99c61436f71711cd504567082 -->
<g id="edge6" class="edge">
<title>dir_1538b4cee7174914fb662cb9f2155043&#45;&gt;dir_b33158d99c61436f71711cd504567082</title>
<g id="a_edge6"><a xlink:href="dir_000024_000057.html" target="_top">
<path fill="none" stroke="#63b8ff" d="M290.48,-70.75C292.46,-63.72 295.32,-53.62 297.81,-44.84"/>
<polygon fill="#63b8ff" stroke="#63b8ff" points="301.21,-45.66 300.57,-35.09 294.48,-43.76 301.21,-45.66"/>
</a>
</g>
<g id="a_edge6&#45;headlabel"><a xlink:href="dir_000024_000057.html" target="_top" xlink:title="1">
<text text-anchor="middle" x="302.97" y="-47.4" font-family="Helvetica,sans-Serif" font-size="10.00" fill="#63b8ff">1</text>
</a>
</g>
</g>
<!-- dir_1538b4cee7174914fb662cb9f2155043&#45;&gt;dir_d2e4f22398959709992733f1617728ca -->
<g id="edge7" class="edge">
<title>dir_1538b4cee7174914fb662cb9f2155043&#45;&gt;dir_d2e4f22398959709992733f1617728ca</title>
<g id="a_edge7"><a xlink:href="dir_000024_000009.html" target="_top">
<path fill="none" stroke="#63b8ff" d="M275.91,-70.99C271.64,-68.21 266.72,-65.27 262,-63 248.03,-56.3 210.61,-43.99 183.97,-35.53"/>
<polygon fill="#63b8ff" stroke="#63b8ff" points="184.95,-32.17 174.36,-32.5 182.84,-38.84 184.95,-32.17"/>
</a>
</g>
<g id="a_edge7&#45;headlabel"><a xlink:href="dir_000024_000009.html" target="_top" xlink:title="4">
<text text-anchor="middle" x="189.23" y="-28.04" font-family="Helvetica,sans-Serif" font-size="10.00" fill="#63b8ff">4</text>
</a>
</g>
</g>
<!-- dir_1538b4cee7174914fb662cb9f2155043&#45;&gt;dir_e9168f3bfea397a173489332f8554c97 -->
<g id="edge8" class="edge">
<title>dir_1538b4cee7174914fb662cb9f2155043&#45;&gt;dir_e9168f3bfea397a173489332f8554c97</title>
<g id="a_edge8"><a xlink:href="dir_000024_000052.html" target="_top">
<path fill="none" stroke="#63b8ff" d="M276.91,-70.98C266.51,-63 250.74,-50.88 238.28,-41.31"/>
<polygon fill="#63b8ff" stroke="#63b8ff" points="240.35,-38.49 230.29,-35.17 236.09,-44.04 240.35,-38.49"/>
</a>
</g>
<g id="a_edge8&#45;headlabel"><a xlink:href="dir_000024_000052.html" target="_top" xlink:title="6">
<text text-anchor="middle" x="244.93" y="-35.92" font-family="Helvetica,sans-Serif" font-size="10.00" fill="#63b8ff">6</text>
</a>
</g>
</g>
<!-- dir_e9d02d7b3532cdb7ef30a77627909516 -->
<g id="node9" class="node">
<title>dir_e9d02d7b3532cdb7ef30a77627909516</title>
<g id="a_node9"><a xlink:href="dir_e9d02d7b3532cdb7ef30a77627909516.html" target="_top" xlink:title="RANS">
<polygon fill="#a2b4d6" stroke="#404040" points="367,-90 323,-90 323,-71 367,-71 367,-90"/>
<text text-anchor="middle" x="345" y="-78" font-family="Helvetica,sans-Serif" font-size="10.00">RANS</text>
</a>
</g>
</g>
<!-- dir_e9d02d7b3532cdb7ef30a77627909516&#45;&gt;dir_25ba3af7252fba93a50e7ef611ff43dd -->
<g id="edge9" class="edge">
<title>dir_e9d02d7b3532cdb7ef30a77627909516&#45;&gt;dir_25ba3af7252fba93a50e7ef611ff43dd</title>
<g id="a_edge9"><a xlink:href="dir_000035_000016.html" target="_top">
<path fill="none" stroke="#63b8ff" d="M355.93,-70.98C366.08,-63.07 381.42,-51.11 393.65,-41.58"/>
<polygon fill="#63b8ff" stroke="#63b8ff" points="396.14,-44.08 401.88,-35.17 391.84,-38.56 396.14,-44.08"/>
</a>
</g>
<g id="a_edge9&#45;headlabel"><a xlink:href="dir_000035_000016.html" target="_top" xlink:title="11">
<text text-anchor="middle" x="395.05" y="-46.03" font-family="Helvetica,sans-Serif" font-size="10.00" fill="#63b8ff">11</text>
</a>
</g>
</g>
<!-- dir_e9d02d7b3532cdb7ef30a77627909516&#45;&gt;dir_3257b514042ea684f8dc73a7e1ce1689 -->
<g id="edge10" class="edge">
<title>dir_e9d02d7b3532cdb7ef30a77627909516&#45;&gt;dir_3257b514042ea684f8dc73a7e1ce1689</title>
<g id="a_edge10"><a xlink:href="dir_000035_000020.html" target="_top">
<path fill="none" stroke="#63b8ff" d="M367.16,-72.02C395.26,-62.53 443.71,-46.18 474.24,-35.87"/>
<polygon fill="#63b8ff" stroke="#63b8ff" points="475.5,-39.14 483.85,-32.63 473.26,-32.51 475.5,-39.14"/>
</a>
</g>
<g id="a_edge10&#45;headlabel"><a xlink:href="dir_000035_000020.html" target="_top" xlink:title="8">
<text text-anchor="middle" x="473" y="-40.48" font-family="Helvetica,sans-Serif" font-size="10.00" fill="#63b8ff">8</text>
</a>
</g>
</g>
<!-- dir_e9d02d7b3532cdb7ef30a77627909516&#45;&gt;dir_e9168f3bfea397a173489332f8554c97 -->
<g id="edge11" class="edge">
<title>dir_e9d02d7b3532cdb7ef30a77627909516&#45;&gt;dir_e9168f3bfea397a173489332f8554c97</title>
<g id="a_edge11"><a xlink:href="dir_000035_000052.html" target="_top">
<path fill="none" stroke="#63b8ff" d="M329.73,-70.9C324.78,-68.23 319.21,-65.38 314,-63 294.33,-54.03 271.77,-45.3 253.56,-38.62"/>
<polygon fill="#63b8ff" stroke="#63b8ff" points="254.54,-35.25 243.95,-35.14 252.16,-41.84 254.54,-35.25"/>
</a>
</g>
<g id="a_edge11&#45;headlabel"><a xlink:href="dir_000035_000052.html" target="_top" xlink:title="2">
<text text-anchor="middle" x="258.89" y="-31.31" font-family="Helvetica,sans-Serif" font-size="10.00" fill="#63b8ff">2</text>
</a>
</g>
</g>
</g>
</svg>
