<?xml version="1.0" encoding="UTF-8" standalone="no"?>
<!DOCTYPE svg PUBLIC "-//W3C//DTD SVG 1.1//EN"
 "http://www.w3.org/Graphics/SVG/1.1/DTD/svg11.dtd">
<!-- Generated by graphviz version 2.43.0 (0)
 -->
<!-- Title: /home/runner/work/amr&#45;wind/amr&#45;wind/amr&#45;wind/equation_systems Pages: 1 -->
<!--zoomable 196 -->

<svg id="main" version="1.1" xmlns="http://www.w3.org/2000/svg" xmlns:xlink="http://www.w3.org/1999/xlink" xml:space="preserve" onload="init(evt)">

<style type="text/css"><![CDATA[
.node, .edge {opacity: 0.7;}
.node.selected, .edge.selected {opacity: 1;}
.edge:hover path { stroke: red; }
.edge:hover polygon { stroke: red; fill: red; }
]]></style>

<defs>
  <circle id="rim" cx="0" cy="0" r="7"/>
  <circle id="rim2" cx="0" cy="0" r="3.5"/>
  <g id="zoomPlus">
    <use xlink:href="#rim" fill="#404040"><set attributeName="fill" to="#808080" begin="zoomplus.mouseover" end="zoomplus.mouseout"/></use>
    <path d="M-4,0h8M0,-4v8" fill="none" stroke="white" stroke-width="1.5" pointer-events="none"/>
  </g>
  <g id="zoomMin">
    <use xlink:href="#rim" fill="#404040"><set attributeName="fill" to="#808080" begin="zoomminus.mouseover" end="zoomminus.mouseout"/></use>
    <path d="M-4,0h8" fill="none" stroke="white" stroke-width="1.5" pointer-events="none"/>
  </g>
  <g id="arrowUp" transform="translate(30 24)">
    <use xlink:href="#rim"/>
    <path pointer-events="none" fill="none" stroke="white" stroke-width="1.5" d="M0,-3.0v7 M-2.5,-0.5L0,-3.0L2.5,-0.5"/>
  </g>
  <g id="arrowRight" transform="rotate(90) translate(36 -43)">
    <use xlink:href="#rim"/>
    <path pointer-events="none" fill="none" stroke="white" stroke-width="1.5" d="M0,-3.0v7 M-2.5,-0.5L0,-3.0L2.5,-0.5"/>
  </g>
  <g id="arrowDown" transform="rotate(180) translate(-30 -48)">
    <use xlink:href="#rim"/>
    <path pointer-events="none" fill="none" stroke="white" stroke-width="1.5" d="M0,-3.0v7 M-2.5,-0.5L0,-3.0L2.5,-0.5"/>
  </g>
  <g id="arrowLeft" transform="rotate(270) translate(-36 17)">
    <use xlink:href="#rim"/>
    <path pointer-events="none" fill="none" stroke="white" stroke-width="1.5" d="M0,-3.0v7 M-2.5,-0.5L0,-3.0L2.5,-0.5"/>
  </g>
  <g id="resetDef">
    <use xlink:href="#rim2" fill="#404040"><set attributeName="fill" to="#808080" begin="reset.mouseover" end="reset.mouseout"/></use>
  </g>
</defs>
<script type="application/ecmascript">
var viewWidth = 1366;
var viewHeight = 196;
var sectionId = 'dynsection-0';
</script>
<script type="application/ecmascript" xlink:href="svg.min.js"/>
<svg id="graph" class="graph">
<g id="viewport">
<title>/home/runner/work/amr&#45;wind/amr&#45;wind/amr&#45;wind/equation_systems</title>
<g id="clust1" class="cluster">
<title>clusterdir_212148f97b8bb53ebaebb3bf8a8b5de4</title>
<g id="a_clust1"><a xlink:href="dir_212148f97b8bb53ebaebb3bf8a8b5de4.html" target="_top" xlink:title="amr&#45;wind">
<polygon fill="#edf0f7" stroke="#7f7f7f" stroke-dasharray="5,2" points="8,-8 8,-180 1350,-180 1350,-8 8,-8"/>
<text text-anchor="middle" x="679" y="-168" font-family="Helvetica,sans-Serif" font-size="10.00">amr&#45;wind</text>
</a>
</g>
</g>
<g id="clust2" class="cluster">
<title>clusterdir_25ba3af7252fba93a50e7ef611ff43dd</title>
<g id="a_clust2"><a xlink:href="dir_25ba3af7252fba93a50e7ef611ff43dd.html" target="_top">
<polygon fill="#edf0f7" stroke="#404040" stroke-width="2" points="470,-63 470,-153 1096,-153 1096,-63 470,-63"/>
</a>
</g>
</g>
<!-- dir_5460936bc36635a4924df5fb6ccd4a9f -->
<g id="node1" class="node">
<title>dir_5460936bc36635a4924df5fb6ccd4a9f</title>
<g id="a_node1"><a xlink:href="dir_5460936bc36635a4924df5fb6ccd4a9f.html" target="_top" xlink:title="turbulence">
<polygon fill="#a2b4d6" stroke="red" points="330,-90 262,-90 262,-71 330,-71 330,-90"/>
<text text-anchor="middle" x="296" y="-78" font-family="Helvetica,sans-Serif" font-size="10.00">turbulence</text>
</a>
</g>
</g>
<!-- dir_55e55284d9a49d838b251e95ccfd4801 -->
<g id="node2" class="node">
<title>dir_55e55284d9a49d838b251e95ccfd4801</title>
<g id="a_node2"><a xlink:href="dir_55e55284d9a49d838b251e95ccfd4801.html" target="_top" xlink:title="diffusion">
<polygon fill="#a2b4d6" stroke="#404040" points="243.5,-90 184.5,-90 184.5,-71 243.5,-71 243.5,-90"/>
<text text-anchor="middle" x="214" y="-78" font-family="Helvetica,sans-Serif" font-size="10.00">diffusion</text>
</a>
</g>
</g>
<!-- dir_a965e280aa7bcc6002db570e748ed06d -->
<g id="node3" class="node">
<title>dir_a965e280aa7bcc6002db570e748ed06d</title>
<g id="a_node3"><a xlink:href="dir_a965e280aa7bcc6002db570e748ed06d.html" target="_top" xlink:title="convection">
<polygon fill="#a2b4d6" stroke="#404040" points="146,-90 76,-90 76,-71 146,-71 146,-90"/>
<text text-anchor="middle" x="111" y="-78" font-family="Helvetica,sans-Serif" font-size="10.00">convection</text>
</a>
</g>
</g>
<!-- dir_d2e4f22398959709992733f1617728ca -->
<g id="node4" class="node">
<title>dir_d2e4f22398959709992733f1617728ca</title>
<g id="a_node4"><a xlink:href="dir_d2e4f22398959709992733f1617728ca.html" target="_top" xlink:title="core">
<polygon fill="#a2b4d6" stroke="red" points="340,-35 302,-35 302,-16 340,-16 340,-35"/>
<text text-anchor="middle" x="321" y="-23" font-family="Helvetica,sans-Serif" font-size="10.00">core</text>
</a>
</g>
</g>
<!-- dir_e9168f3bfea397a173489332f8554c97 -->
<g id="node5" class="node">
<title>dir_e9168f3bfea397a173489332f8554c97</title>
<g id="a_node5"><a xlink:href="dir_e9168f3bfea397a173489332f8554c97.html" target="_top" xlink:title="utilities">
<polygon fill="#a2b4d6" stroke="red" points="862.5,-35 809.5,-35 809.5,-16 862.5,-16 862.5,-35"/>
<text text-anchor="middle" x="836" y="-23" font-family="Helvetica,sans-Serif" font-size="10.00">utilities</text>
</a>
</g>
</g>
<!-- dir_e91b3eef7c0d8abdbe8ee43dc3688a49 -->
<g id="node6" class="node">
<title>dir_e91b3eef7c0d8abdbe8ee43dc3688a49</title>
<g id="a_node6"><a xlink:href="dir_e91b3eef7c0d8abdbe8ee43dc3688a49.html" target="_top" xlink:title="boundary_conditions">
<polygon fill="#a2b4d6" stroke="red" points="476,-35 358,-35 358,-16 476,-16 476,-35"/>
<text text-anchor="middle" x="417" y="-23" font-family="Helvetica,sans-Serif" font-size="10.00">boundary_conditions</text>
</a>
</g>
</g>
<!-- dir_36870694adceb415f28b3a8e8d793680 -->
<g id="node7" class="node">
<title>dir_36870694adceb415f28b3a8e8d793680</title>
<g id="a_node7"><a xlink:href="dir_36870694adceb415f28b3a8e8d793680.html" target="_top" xlink:title="overset">
<polygon fill="#a2b4d6" stroke="#404040" points="461.5,-90 408.5,-90 408.5,-71 461.5,-71 461.5,-90"/>
<text text-anchor="middle" x="435" y="-78" font-family="Helvetica,sans-Serif" font-size="10.00">overset</text>
</a>
</g>
</g>
<!-- dir_f00f788038d28a6de62e2305131ce6f9 -->
<g id="node8" class="node">
<title>dir_f00f788038d28a6de62e2305131ce6f9</title>
<g id="a_node8"><a xlink:href="dir_f00f788038d28a6de62e2305131ce6f9.html" target="_top" xlink:title="physics">
<polygon fill="#a2b4d6" stroke="red" points="933.5,-35 880.5,-35 880.5,-16 933.5,-16 933.5,-35"/>
<text text-anchor="middle" x="907" y="-23" font-family="Helvetica,sans-Serif" font-size="10.00">physics</text>
</a>
</g>
</g>
<!-- dir_b33158d99c61436f71711cd504567082 -->
<g id="node9" class="node">
<title>dir_b33158d99c61436f71711cd504567082</title>
<g id="a_node9"><a xlink:href="dir_b33158d99c61436f71711cd504567082.html" target="_top" xlink:title="wind_energy">
<polygon fill="#a2b4d6" stroke="red" points="1182.5,-90 1103.5,-90 1103.5,-71 1182.5,-71 1182.5,-90"/>
<text text-anchor="middle" x="1143" y="-78" font-family="Helvetica,sans-Serif" font-size="10.00">wind_energy</text>
</a>
</g>
</g>
<!-- dir_8850def71d7022841cb32c1b32cdfc07 -->
<g id="node10" class="node">
<title>dir_8850def71d7022841cb32c1b32cdfc07</title>
<g id="a_node10"><a xlink:href="dir_8850def71d7022841cb32c1b32cdfc07.html" target="_top" xlink:title="transport_models">
<polygon fill="#a2b4d6" stroke="#404040" points="1302,-90 1200,-90 1200,-71 1302,-71 1302,-90"/>
<text text-anchor="middle" x="1251" y="-78" font-family="Helvetica,sans-Serif" font-size="10.00">transport_models</text>
</a>
</g>
</g>
<!-- dir_25ba3af7252fba93a50e7ef611ff43dd -->
<g id="node11" class="node">
<title>dir_25ba3af7252fba93a50e7ef611ff43dd</title>
<text text-anchor="middle" x="653" y="-133" font-family="Helvetica,sans-Serif" font-size="10.00">equation_systems</text>
</g>
<!-- dir_25ba3af7252fba93a50e7ef611ff43dd&#45;&gt;dir_5460936bc36635a4924df5fb6ccd4a9f -->
<g id="edge2" class="edge">
<title>dir_25ba3af7252fba93a50e7ef611ff43dd&#45;&gt;dir_5460936bc36635a4924df5fb6ccd4a9f</title>
<g id="a_edge2"><a xlink:href="dir_000016_000050.html" target="_top">
<path fill="none" stroke="#63b8ff" d="M599.89,-127.06C524.99,-116.54 392.1,-97.72 344,-90 342.73,-89.8 341.44,-89.59 340.14,-89.37"/>
<polygon fill="#63b8ff" stroke="#63b8ff" points="340.51,-85.89 330.07,-87.67 339.34,-92.79 340.51,-85.89"/>
</a>
</g>
<g id="a_edge2&#45;headlabel"><a xlink:href="dir_000016_000050.html" target="_top" xlink:title="6">
<text text-anchor="middle" x="344.53" y="-81.18" font-family="Helvetica,sans-Serif" font-size="10.00" fill="#63b8ff">6</text>
</a>
</g>
</g>
<!-- dir_25ba3af7252fba93a50e7ef611ff43dd&#45;&gt;dir_55e55284d9a49d838b251e95ccfd4801 -->
<g id="edge3" class="edge">
<title>dir_25ba3af7252fba93a50e7ef611ff43dd&#45;&gt;dir_55e55284d9a49d838b251e95ccfd4801</title>
<g id="a_edge3"><a xlink:href="dir_000016_000011.html" target="_top">
<path fill="none" stroke="#63b8ff" d="M599.91,-127.11C596.9,-126.73 593.91,-126.35 591,-126 444.26,-108.13 403.86,-113.86 253.79,-89.95"/>
<polygon fill="#63b8ff" stroke="#63b8ff" points="254.18,-86.47 243.75,-88.33 253.06,-93.38 254.18,-86.47"/>
</a>
</g>
<g id="a_edge3&#45;headlabel"><a xlink:href="dir_000016_000011.html" target="_top" xlink:title="1">
<text text-anchor="middle" x="258.18" y="-81.73" font-family="Helvetica,sans-Serif" font-size="10.00" fill="#63b8ff">1</text>
</a>
</g>
</g>
<!-- dir_25ba3af7252fba93a50e7ef611ff43dd&#45;&gt;dir_a965e280aa7bcc6002db570e748ed06d -->
<g id="edge4" class="edge">
<title>dir_25ba3af7252fba93a50e7ef611ff43dd&#45;&gt;dir_a965e280aa7bcc6002db570e748ed06d</title>
<g id="a_edge4"><a xlink:href="dir_000016_000008.html" target="_top">
<path fill="none" stroke="#63b8ff" d="M599.92,-127.04C596.91,-126.67 593.92,-126.32 591,-126 399.93,-104.94 350.66,-114.45 160,-90 158.72,-89.84 157.43,-89.66 156.12,-89.48"/>
<polygon fill="#63b8ff" stroke="#63b8ff" points="156.42,-85.99 146.01,-87.96 155.38,-92.91 156.42,-85.99"/>
</a>
</g>
<g id="a_edge4&#45;headlabel"><a xlink:href="dir_000016_000008.html" target="_top" xlink:title="2">
<text text-anchor="middle" x="160.39" y="-81.21" font-family="Helvetica,sans-Serif" font-size="10.00" fill="#63b8ff">2</text>
</a>
</g>
</g>
<!-- dir_25ba3af7252fba93a50e7ef611ff43dd&#45;&gt;dir_d2e4f22398959709992733f1617728ca -->
<g id="edge5" class="edge">
<title>dir_25ba3af7252fba93a50e7ef611ff43dd&#45;&gt;dir_d2e4f22398959709992733f1617728ca</title>
<g id="a_edge5"><a xlink:href="dir_000016_000009.html" target="_top">
<path fill="none" stroke="#63b8ff" d="M599.93,-126.98C596.91,-126.63 593.92,-126.3 591,-126 532.95,-120.03 106.83,-132.66 67,-90 58.81,-81.23 59.14,-72.07 67,-63 95.83,-29.73 231.53,-26.08 291.91,-26.14"/>
<polygon fill="#63b8ff" stroke="#63b8ff" points="291.91,-29.64 301.93,-26.18 291.94,-22.64 291.91,-29.64"/>
</a>
</g>
<g id="a_edge5&#45;headlabel"><a xlink:href="dir_000016_000009.html" target="_top" xlink:title="80">
<text text-anchor="middle" x="288.3" y="-29.96" font-family="Helvetica,sans-Serif" font-size="10.00" fill="#63b8ff">80</text>
</a>
</g>
</g>
<!-- dir_25ba3af7252fba93a50e7ef611ff43dd&#45;&gt;dir_e9168f3bfea397a173489332f8554c97 -->
<g id="edge6" class="edge">
<title>dir_25ba3af7252fba93a50e7ef611ff43dd&#45;&gt;dir_e9168f3bfea397a173489332f8554c97</title>
<g id="a_edge6"><a xlink:href="dir_000016_000052.html" target="_top">
<path fill="none" stroke="#63b8ff" d="M667.67,-125.84C699.33,-107.16 774.33,-62.9 812.62,-40.3"/>
<polygon fill="#63b8ff" stroke="#63b8ff" points="814.68,-43.14 821.52,-35.05 811.13,-37.12 814.68,-43.14"/>
</a>
</g>
<g id="a_edge6&#45;headlabel"><a xlink:href="dir_000016_000052.html" target="_top" xlink:title="59">
<text text-anchor="middle" x="813.03" y="-44.92" font-family="Helvetica,sans-Serif" font-size="10.00" fill="#63b8ff">59</text>
</a>
</g>
</g>
<!-- dir_25ba3af7252fba93a50e7ef611ff43dd&#45;&gt;dir_e91b3eef7c0d8abdbe8ee43dc3688a49 -->
<g id="edge7" class="edge">
<title>dir_25ba3af7252fba93a50e7ef611ff43dd&#45;&gt;dir_e91b3eef7c0d8abdbe8ee43dc3688a49</title>
<g id="a_edge7"><a xlink:href="dir_000016_000007.html" target="_top">
<path fill="none" stroke="#63b8ff" d="M599.92,-127.05C596.91,-126.68 593.92,-126.33 591,-126 545,-120.86 207.28,-124.11 176,-90 167.89,-81.16 168.18,-72.1 176,-63 178.84,-59.7 277.44,-45.59 347.62,-35.91"/>
<polygon fill="#63b8ff" stroke="#63b8ff" points="348.33,-39.34 357.76,-34.51 347.37,-32.41 348.33,-39.34"/>
</a>
</g>
<g id="a_edge7&#45;headlabel"><a xlink:href="dir_000016_000007.html" target="_top" xlink:title="8">
<text text-anchor="middle" x="345.15" y="-40.15" font-family="Helvetica,sans-Serif" font-size="10.00" fill="#63b8ff">8</text>
</a>
</g>
</g>
<!-- dir_12791b19f0b305ea05c4a6bbc6348144 -->
<g id="node19" class="node">
<title>dir_12791b19f0b305ea05c4a6bbc6348144</title>
<g id="a_node19"><a xlink:href="dir_12791b19f0b305ea05c4a6bbc6348144.html" target="_top" xlink:title="vof">
<polygon fill="#a2b4d6" stroke="#404040" points="702,-90 670,-90 670,-71 702,-71 702,-90"/>
<text text-anchor="middle" x="686" y="-78" font-family="Helvetica,sans-Serif" font-size="10.00">vof</text>
</a>
</g>
</g>
<!-- dir_25ba3af7252fba93a50e7ef611ff43dd&#45;&gt;dir_12791b19f0b305ea05c4a6bbc6348144 -->
<g id="edge1" class="edge">
<title>dir_25ba3af7252fba93a50e7ef611ff43dd&#45;&gt;dir_12791b19f0b305ea05c4a6bbc6348144</title>
<g id="a_edge1"><a xlink:href="dir_000016_000054.html" target="_top">
<path fill="none" stroke="#63b8ff" d="M658.45,-125.75C663.01,-118.42 669.67,-107.73 675.29,-98.7"/>
<polygon fill="#63b8ff" stroke="#63b8ff" points="678.34,-100.43 680.65,-90.09 672.4,-96.73 678.34,-100.43"/>
</a>
</g>
<g id="a_edge1&#45;headlabel"><a xlink:href="dir_000016_000054.html" target="_top" xlink:title="4">
<text text-anchor="middle" x="678.85" y="-102.48" font-family="Helvetica,sans-Serif" font-size="10.00" fill="#63b8ff">4</text>
</a>
</g>
</g>
<!-- dir_debae907174ee60b0fe53df4945f42c5 -->
<g id="node12" class="node">
<title>dir_debae907174ee60b0fe53df4945f42c5</title>
<g id="a_node12"><a xlink:href="dir_debae907174ee60b0fe53df4945f42c5.html" target="_top" xlink:title="density">
<polygon fill="#a2b4d6" stroke="#404040" points="531.5,-145 478.5,-145 478.5,-126 531.5,-126 531.5,-145"/>
<text text-anchor="middle" x="505" y="-133" font-family="Helvetica,sans-Serif" font-size="10.00">density</text>
</a>
</g>
</g>
<!-- dir_debae907174ee60b0fe53df4945f42c5&#45;&gt;dir_d2e4f22398959709992733f1617728ca -->
<g id="edge8" class="edge">
<title>dir_debae907174ee60b0fe53df4945f42c5&#45;&gt;dir_d2e4f22398959709992733f1617728ca</title>
<g id="a_edge8"><a xlink:href="dir_000010_000009.html" target="_top">
<path fill="none" stroke="#63b8ff" d="M478.17,-134.03C382.51,-132.1 62.19,-123.16 32,-90 23.92,-81.13 24.06,-72 32,-63 48.98,-43.74 220.98,-32.06 291.29,-28.06"/>
<polygon fill="#63b8ff" stroke="#63b8ff" points="291.87,-31.54 301.66,-27.49 291.48,-24.55 291.87,-31.54"/>
</a>
</g>
<g id="a_edge8&#45;headlabel"><a xlink:href="dir_000010_000009.html" target="_top" xlink:title="4">
<text text-anchor="middle" x="288.44" y="-32.07" font-family="Helvetica,sans-Serif" font-size="10.00" fill="#63b8ff">4</text>
</a>
</g>
</g>
<!-- dir_dbb8931b96cba5208d070c0efd4d64a4 -->
<g id="node13" class="node">
<title>dir_dbb8931b96cba5208d070c0efd4d64a4</title>
<g id="a_node13"><a xlink:href="dir_dbb8931b96cba5208d070c0efd4d64a4.html" target="_top" xlink:title="icns">
<polygon fill="#a2b4d6" stroke="#404040" points="918,-145 882,-145 882,-126 918,-126 918,-145"/>
<text text-anchor="middle" x="900" y="-133" font-family="Helvetica,sans-Serif" font-size="10.00">icns</text>
</a>
</g>
</g>
<!-- dir_dbb8931b96cba5208d070c0efd4d64a4&#45;&gt;dir_5460936bc36635a4924df5fb6ccd4a9f -->
<g id="edge17" class="edge">
<title>dir_dbb8931b96cba5208d070c0efd4d64a4&#45;&gt;dir_5460936bc36635a4924df5fb6ccd4a9f</title>
<g id="a_edge17"><a xlink:href="dir_000021_000050.html" target="_top">
<path fill="none" stroke="#63b8ff" d="M881.85,-128.15C878.92,-127.31 875.9,-126.55 873,-126 650.2,-83.66 589.71,-112.07 364,-90 356.34,-89.25 348.22,-88.34 340.34,-87.39"/>
<polygon fill="#63b8ff" stroke="#63b8ff" points="340.56,-83.89 330.2,-86.14 339.7,-90.84 340.56,-83.89"/>
</a>
</g>
<g id="a_edge17&#45;headlabel"><a xlink:href="dir_000021_000050.html" target="_top" xlink:title="1">
<text text-anchor="middle" x="344.47" y="-79.01" font-family="Helvetica,sans-Serif" font-size="10.00" fill="#63b8ff">1</text>
</a>
</g>
</g>
<!-- dir_dbb8931b96cba5208d070c0efd4d64a4&#45;&gt;dir_d2e4f22398959709992733f1617728ca -->
<g id="edge10" class="edge">
<title>dir_dbb8931b96cba5208d070c0efd4d64a4&#45;&gt;dir_d2e4f22398959709992733f1617728ca</title>
<g id="a_edge10"><a xlink:href="dir_000021_000009.html" target="_top">
<path fill="none" stroke="#63b8ff" d="M881.85,-128.16C878.92,-127.32 875.9,-126.56 873,-126 767.3,-105.71 488.75,-132.82 390,-90 383.69,-87.26 355.61,-60.43 337.27,-42.54"/>
<polygon fill="#63b8ff" stroke="#63b8ff" points="339.24,-39.56 329.65,-35.06 334.34,-44.56 339.24,-39.56"/>
</a>
</g>
<g id="a_edge10&#45;headlabel"><a xlink:href="dir_000021_000009.html" target="_top" xlink:title="32">
<text text-anchor="middle" x="343.79" y="-37.55" font-family="Helvetica,sans-Serif" font-size="10.00" fill="#63b8ff">32</text>
</a>
</g>
</g>
<!-- dir_dbb8931b96cba5208d070c0efd4d64a4&#45;&gt;dir_e9168f3bfea397a173489332f8554c97 -->
<g id="edge11" class="edge">
<title>dir_dbb8931b96cba5208d070c0efd4d64a4&#45;&gt;dir_e9168f3bfea397a173489332f8554c97</title>
<g id="a_edge11"><a xlink:href="dir_000021_000052.html" target="_top">
<path fill="none" stroke="#63b8ff" d="M894.76,-125.66C884.21,-107.85 860.22,-67.37 846.37,-44.01"/>
<polygon fill="#63b8ff" stroke="#63b8ff" points="849.24,-41.98 841.13,-35.16 843.22,-45.55 849.24,-41.98"/>
</a>
</g>
<g id="a_edge11&#45;headlabel"><a xlink:href="dir_000021_000052.html" target="_top" xlink:title="33">
<text text-anchor="middle" x="853.52" y="-41.12" font-family="Helvetica,sans-Serif" font-size="10.00" fill="#63b8ff">33</text>
</a>
</g>
</g>
<!-- dir_dbb8931b96cba5208d070c0efd4d64a4&#45;&gt;dir_e91b3eef7c0d8abdbe8ee43dc3688a49 -->
<g id="edge12" class="edge">
<title>dir_dbb8931b96cba5208d070c0efd4d64a4&#45;&gt;dir_e91b3eef7c0d8abdbe8ee43dc3688a49</title>
<g id="a_edge12"><a xlink:href="dir_000021_000007.html" target="_top">
<path fill="none" stroke="#63b8ff" d="M881.85,-128.16C878.92,-127.32 875.9,-126.56 873,-126 821.25,-116.02 435.83,-128.66 400,-90 388.4,-77.49 396.15,-57.93 404.6,-43.83"/>
<polygon fill="#63b8ff" stroke="#63b8ff" points="407.77,-45.37 410.33,-35.09 401.92,-41.53 407.77,-45.37"/>
</a>
</g>
<g id="a_edge12&#45;headlabel"><a xlink:href="dir_000021_000007.html" target="_top" xlink:title="5">
<text text-anchor="middle" x="408.18" y="-47.43" font-family="Helvetica,sans-Serif" font-size="10.00" fill="#63b8ff">5</text>
</a>
</g>
</g>
<!-- dir_dbb8931b96cba5208d070c0efd4d64a4&#45;&gt;dir_36870694adceb415f28b3a8e8d793680 -->
<g id="edge9" class="edge">
<title>dir_dbb8931b96cba5208d070c0efd4d64a4&#45;&gt;dir_36870694adceb415f28b3a8e8d793680</title>
<g id="a_edge9"><a xlink:href="dir_000021_000031.html" target="_top">
<path fill="none" stroke="#63b8ff" d="M881.84,-128.19C878.91,-127.35 875.89,-126.58 873,-126 698.21,-91.18 646.63,-120.99 471.7,-90.9"/>
<polygon fill="#63b8ff" stroke="#63b8ff" points="472.1,-87.42 461.65,-89.13 470.89,-94.31 472.1,-87.42"/>
</a>
</g>
<g id="a_edge9&#45;headlabel"><a xlink:href="dir_000021_000031.html" target="_top" xlink:title="1">
<text text-anchor="middle" x="476.14" y="-82.75" font-family="Helvetica,sans-Serif" font-size="10.00" fill="#63b8ff">1</text>
</a>
</g>
</g>
<!-- dir_dbb8931b96cba5208d070c0efd4d64a4&#45;&gt;dir_f00f788038d28a6de62e2305131ce6f9 -->
<g id="edge14" class="edge">
<title>dir_dbb8931b96cba5208d070c0efd4d64a4&#45;&gt;dir_f00f788038d28a6de62e2305131ce6f9</title>
<g id="a_edge14"><a xlink:href="dir_000021_000033.html" target="_top">
<path fill="none" stroke="#63b8ff" d="M900.57,-125.66C901.71,-108.17 904.26,-68.8 905.78,-45.27"/>
<polygon fill="#63b8ff" stroke="#63b8ff" points="909.28,-45.36 906.44,-35.16 902.3,-44.91 909.28,-45.36"/>
</a>
</g>
<g id="a_edge14&#45;headlabel"><a xlink:href="dir_000021_000033.html" target="_top" xlink:title="4">
<text text-anchor="middle" x="911.89" y="-46.63" font-family="Helvetica,sans-Serif" font-size="10.00" fill="#63b8ff">4</text>
</a>
</g>
</g>
<!-- dir_dbb8931b96cba5208d070c0efd4d64a4&#45;&gt;dir_b33158d99c61436f71711cd504567082 -->
<g id="edge13" class="edge">
<title>dir_dbb8931b96cba5208d070c0efd4d64a4&#45;&gt;dir_b33158d99c61436f71711cd504567082</title>
<g id="a_edge13"><a xlink:href="dir_000021_000057.html" target="_top">
<path fill="none" stroke="#63b8ff" d="M918.01,-128.77C921.32,-127.79 924.75,-126.83 928,-126 943.81,-121.97 1034.65,-103.43 1093.08,-91.58"/>
<polygon fill="#63b8ff" stroke="#63b8ff" points="1094.12,-94.94 1103.23,-89.53 1092.74,-88.08 1094.12,-94.94"/>
</a>
</g>
<g id="a_edge13&#45;headlabel"><a xlink:href="dir_000021_000057.html" target="_top" xlink:title="9">
<text text-anchor="middle" x="1091.17" y="-95.94" font-family="Helvetica,sans-Serif" font-size="10.00" fill="#63b8ff">9</text>
</a>
</g>
</g>
<!-- dir_dbb8931b96cba5208d070c0efd4d64a4&#45;&gt;dir_8850def71d7022841cb32c1b32cdfc07 -->
<g id="edge16" class="edge">
<title>dir_dbb8931b96cba5208d070c0efd4d64a4&#45;&gt;dir_8850def71d7022841cb32c1b32cdfc07</title>
<g id="a_edge16"><a xlink:href="dir_000021_000048.html" target="_top">
<path fill="none" stroke="#63b8ff" d="M918.26,-128.5C921.49,-127.57 924.82,-126.69 928,-126 1040.53,-101.41 1072.97,-106.15 1189.78,-90.28"/>
<polygon fill="#63b8ff" stroke="#63b8ff" points="1190.41,-93.73 1199.84,-88.9 1189.45,-86.8 1190.41,-93.73"/>
</a>
</g>
<g id="a_edge16&#45;headlabel"><a xlink:href="dir_000021_000048.html" target="_top" xlink:title="2">
<text text-anchor="middle" x="1187.24" y="-94.53" font-family="Helvetica,sans-Serif" font-size="10.00" fill="#63b8ff">2</text>
</a>
</g>
</g>
<!-- dir_dbb8931b96cba5208d070c0efd4d64a4&#45;&gt;dir_12791b19f0b305ea05c4a6bbc6348144 -->
<g id="edge15" class="edge">
<title>dir_dbb8931b96cba5208d070c0efd4d64a4&#45;&gt;dir_12791b19f0b305ea05c4a6bbc6348144</title>
<g id="a_edge15"><a xlink:href="dir_000021_000054.html" target="_top">
<path fill="none" stroke="#63b8ff" d="M881.77,-128.51C878.85,-127.62 875.85,-126.75 873,-126 802.9,-107.45 780.39,-112.43 712.02,-91.73"/>
<polygon fill="#63b8ff" stroke="#63b8ff" points="712.64,-88.26 702.06,-88.63 710.57,-94.94 712.64,-88.26"/>
</a>
</g>
<g id="a_edge15&#45;headlabel"><a xlink:href="dir_000021_000054.html" target="_top" xlink:title="3">
<text text-anchor="middle" x="716.92" y="-84.12" font-family="Helvetica,sans-Serif" font-size="10.00" fill="#63b8ff">3</text>
</a>
</g>
</g>
<!-- dir_23cb2692c7fb90fa53a3940ee5608351 -->
<g id="node14" class="node">
<title>dir_23cb2692c7fb90fa53a3940ee5608351</title>
<g id="a_node14"><a xlink:href="dir_23cb2692c7fb90fa53a3940ee5608351.html" target="_top" xlink:title="levelset">
<polygon fill="#a2b4d6" stroke="#404040" points="1088,-145 1032,-145 1032,-126 1088,-126 1088,-145"/>
<text text-anchor="middle" x="1060" y="-133" font-family="Helvetica,sans-Serif" font-size="10.00">levelset</text>
</a>
</g>
</g>
<!-- dir_23cb2692c7fb90fa53a3940ee5608351&#45;&gt;dir_f00f788038d28a6de62e2305131ce6f9 -->
<g id="edge18" class="edge">
<title>dir_23cb2692c7fb90fa53a3940ee5608351&#45;&gt;dir_f00f788038d28a6de62e2305131ce6f9</title>
<g id="a_edge18"><a xlink:href="dir_000025_000033.html" target="_top">
<path fill="none" stroke="#63b8ff" d="M1088.06,-134.14C1149.74,-132.69 1293.99,-125.49 1324,-90 1331.75,-80.84 1332.11,-71.85 1324,-63 1298.56,-35.24 1041.05,-28.51 943.87,-26.95"/>
<polygon fill="#63b8ff" stroke="#63b8ff" points="943.68,-23.44 933.63,-26.79 943.58,-30.44 943.68,-23.44"/>
</a>
</g>
<g id="a_edge18&#45;headlabel"><a xlink:href="dir_000025_000033.html" target="_top" xlink:title="1">
<text text-anchor="middle" x="947.32" y="-18.16" font-family="Helvetica,sans-Serif" font-size="10.00" fill="#63b8ff">1</text>
</a>
</g>
</g>
<!-- dir_c29e83733bb5f71ced1b88d3b6313f77 -->
<g id="node15" class="node">
<title>dir_c29e83733bb5f71ced1b88d3b6313f77</title>
<g id="a_node15"><a xlink:href="dir_c29e83733bb5f71ced1b88d3b6313f77.html" target="_top" xlink:title="passive_scalar">
<polygon fill="#a2b4d6" stroke="#404040" points="813.5,-145 724.5,-145 724.5,-126 813.5,-126 813.5,-145"/>
<text text-anchor="middle" x="769" y="-133" font-family="Helvetica,sans-Serif" font-size="10.00">passive_scalar</text>
</a>
</g>
</g>
<!-- dir_ba17675b4e7620b2c09564a0494ae674 -->
<g id="node16" class="node">
<title>dir_ba17675b4e7620b2c09564a0494ae674</title>
<g id="a_node16"><a xlink:href="dir_ba17675b4e7620b2c09564a0494ae674.html" target="_top" xlink:title="sdr">
<polygon fill="#a2b4d6" stroke="#404040" points="582,-145 550,-145 550,-126 582,-126 582,-145"/>
<text text-anchor="middle" x="566" y="-133" font-family="Helvetica,sans-Serif" font-size="10.00">sdr</text>
</a>
</g>
</g>
<!-- dir_ba17675b4e7620b2c09564a0494ae674&#45;&gt;dir_5460936bc36635a4924df5fb6ccd4a9f -->
<g id="edge20" class="edge">
<title>dir_ba17675b4e7620b2c09564a0494ae674&#45;&gt;dir_5460936bc36635a4924df5fb6ccd4a9f</title>
<g id="a_edge20"><a xlink:href="dir_000038_000050.html" target="_top">
<path fill="none" stroke="#63b8ff" d="M549.97,-128.66C547.01,-127.69 543.93,-126.76 541,-126 531.35,-123.5 408.32,-101.48 340.37,-89.38"/>
<polygon fill="#63b8ff" stroke="#63b8ff" points="340.82,-85.91 330.36,-87.6 339.6,-92.8 340.82,-85.91"/>
</a>
</g>
<g id="a_edge20&#45;headlabel"><a xlink:href="dir_000038_000050.html" target="_top" xlink:title="1">
<text text-anchor="middle" x="344.86" y="-81.24" font-family="Helvetica,sans-Serif" font-size="10.00" fill="#63b8ff">1</text>
</a>
</g>
</g>
<!-- dir_ba17675b4e7620b2c09564a0494ae674&#45;&gt;dir_d2e4f22398959709992733f1617728ca -->
<g id="edge19" class="edge">
<title>dir_ba17675b4e7620b2c09564a0494ae674&#45;&gt;dir_d2e4f22398959709992733f1617728ca</title>
<g id="a_edge19"><a xlink:href="dir_000038_000009.html" target="_top">
<path fill="none" stroke="#63b8ff" d="M549.76,-128.31C546.88,-127.41 543.88,-126.58 541,-126 487.61,-115.14 89.08,-129.91 52,-90 43.83,-81.21 44.11,-72.04 52,-63 82.85,-27.68 228.27,-25.22 291.51,-25.87"/>
<polygon fill="#63b8ff" stroke="#63b8ff" points="291.57,-29.37 301.62,-26.01 291.67,-22.37 291.57,-29.37"/>
</a>
</g>
<g id="a_edge19&#45;headlabel"><a xlink:href="dir_000038_000009.html" target="_top" xlink:title="6">
<text text-anchor="middle" x="287.94" y="-29.66" font-family="Helvetica,sans-Serif" font-size="10.00" fill="#63b8ff">6</text>
</a>
</g>
</g>
<!-- dir_febe03cc33b665122231bdd423ea5053 -->
<g id="node17" class="node">
<title>dir_febe03cc33b665122231bdd423ea5053</title>
<g id="a_node17"><a xlink:href="dir_febe03cc33b665122231bdd423ea5053.html" target="_top" xlink:title="temperature">
<polygon fill="#a2b4d6" stroke="#404040" points="1013.5,-145 936.5,-145 936.5,-126 1013.5,-126 1013.5,-145"/>
<text text-anchor="middle" x="975" y="-133" font-family="Helvetica,sans-Serif" font-size="10.00">temperature</text>
</a>
</g>
</g>
<!-- dir_febe03cc33b665122231bdd423ea5053&#45;&gt;dir_d2e4f22398959709992733f1617728ca -->
<g id="edge23" class="edge">
<title>dir_febe03cc33b665122231bdd423ea5053&#45;&gt;dir_d2e4f22398959709992733f1617728ca</title>
<g id="a_edge23"><a xlink:href="dir_000046_000009.html" target="_top">
<path fill="none" stroke="#63b8ff" d="M936.25,-127.5C933.12,-126.98 930.01,-126.47 927,-126 673.32,-86.39 603.69,-95.22 350.07,-35.02"/>
<polygon fill="#63b8ff" stroke="#63b8ff" points="350.74,-31.58 340.2,-32.66 349.11,-38.39 350.74,-31.58"/>
</a>
</g>
<g id="a_edge23&#45;headlabel"><a xlink:href="dir_000046_000009.html" target="_top" xlink:title="14">
<text text-anchor="middle" x="354.89" y="-27.15" font-family="Helvetica,sans-Serif" font-size="10.00" fill="#63b8ff">14</text>
</a>
</g>
</g>
<!-- dir_febe03cc33b665122231bdd423ea5053&#45;&gt;dir_e9168f3bfea397a173489332f8554c97 -->
<g id="edge24" class="edge">
<title>dir_febe03cc33b665122231bdd423ea5053&#45;&gt;dir_e9168f3bfea397a173489332f8554c97</title>
<g id="a_edge24"><a xlink:href="dir_000046_000052.html" target="_top">
<path fill="none" stroke="#63b8ff" d="M1013.74,-127.46C1016.87,-126.95 1019.99,-126.45 1023,-126 1152.56,-106.44 1400.65,-158.55 1311,-63 1279.12,-29.03 953.12,-40.92 872.66,-34.42"/>
<polygon fill="#63b8ff" stroke="#63b8ff" points="872.96,-30.93 862.64,-33.32 872.2,-37.89 872.96,-30.93"/>
</a>
</g>
<g id="a_edge24&#45;headlabel"><a xlink:href="dir_000046_000052.html" target="_top" xlink:title="17">
<text text-anchor="middle" x="876.84" y="-26" font-family="Helvetica,sans-Serif" font-size="10.00" fill="#63b8ff">17</text>
</a>
</g>
</g>
<!-- dir_febe03cc33b665122231bdd423ea5053&#45;&gt;dir_b33158d99c61436f71711cd504567082 -->
<g id="edge22" class="edge">
<title>dir_febe03cc33b665122231bdd423ea5053&#45;&gt;dir_b33158d99c61436f71711cd504567082</title>
<g id="a_edge22"><a xlink:href="dir_000046_000057.html" target="_top">
<path fill="none" stroke="#63b8ff" d="M1001.99,-125.98C1030.2,-117.09 1074.64,-103.07 1106.08,-93.15"/>
<polygon fill="#63b8ff" stroke="#63b8ff" points="1107.31,-96.43 1115.8,-90.08 1105.21,-89.75 1107.31,-96.43"/>
</a>
</g>
<g id="a_edge22&#45;headlabel"><a xlink:href="dir_000046_000057.html" target="_top" xlink:title="5">
<text text-anchor="middle" x="1104.74" y="-97.72" font-family="Helvetica,sans-Serif" font-size="10.00" fill="#63b8ff">5</text>
</a>
</g>
</g>
<!-- dir_febe03cc33b665122231bdd423ea5053&#45;&gt;dir_8850def71d7022841cb32c1b32cdfc07 -->
<g id="edge21" class="edge">
<title>dir_febe03cc33b665122231bdd423ea5053&#45;&gt;dir_8850def71d7022841cb32c1b32cdfc07</title>
<g id="a_edge21"><a xlink:href="dir_000046_000048.html" target="_top">
<path fill="none" stroke="#63b8ff" d="M1013.67,-127.07C1061.33,-117.92 1142.63,-102.31 1196.59,-91.95"/>
<polygon fill="#63b8ff" stroke="#63b8ff" points="1197.5,-95.34 1206.66,-90.01 1196.18,-88.46 1197.5,-95.34"/>
</a>
</g>
<g id="a_edge21&#45;headlabel"><a xlink:href="dir_000046_000048.html" target="_top" xlink:title="1">
<text text-anchor="middle" x="1194.51" y="-96.3" font-family="Helvetica,sans-Serif" font-size="10.00" fill="#63b8ff">1</text>
</a>
</g>
</g>
<!-- dir_0f40cd49204690f812aa76519ccf29dc -->
<g id="node18" class="node">
<title>dir_0f40cd49204690f812aa76519ccf29dc</title>
<g id="a_node18"><a xlink:href="dir_0f40cd49204690f812aa76519ccf29dc.html" target="_top" xlink:title="tke">
<polygon fill="#a2b4d6" stroke="#404040" points="864,-145 832,-145 832,-126 864,-126 864,-145"/>
<text text-anchor="middle" x="848" y="-133" font-family="Helvetica,sans-Serif" font-size="10.00">tke</text>
</a>
</g>
</g>
<!-- dir_0f40cd49204690f812aa76519ccf29dc&#45;&gt;dir_5460936bc36635a4924df5fb6ccd4a9f -->
<g id="edge25" class="edge">
<title>dir_0f40cd49204690f812aa76519ccf29dc&#45;&gt;dir_5460936bc36635a4924df5fb6ccd4a9f</title>
<g id="a_edge25"><a xlink:href="dir_000047_000050.html" target="_top">
<path fill="none" stroke="#63b8ff" d="M831.76,-128.32C828.87,-127.41 825.87,-126.59 823,-126 613.82,-83.3 555.82,-116.65 344,-90 342.72,-89.84 341.43,-89.67 340.13,-89.49"/>
<polygon fill="#63b8ff" stroke="#63b8ff" points="340.44,-85.99 330.02,-87.96 339.39,-92.92 340.44,-85.99"/>
</a>
</g>
<g id="a_edge25&#45;headlabel"><a xlink:href="dir_000047_000050.html" target="_top" xlink:title="3">
<text text-anchor="middle" x="344.41" y="-81.22" font-family="Helvetica,sans-Serif" font-size="10.00" fill="#63b8ff">3</text>
</a>
</g>
</g>
<!-- dir_0f40cd49204690f812aa76519ccf29dc&#45;&gt;dir_d2e4f22398959709992733f1617728ca -->
<g id="edge28" class="edge">
<title>dir_0f40cd49204690f812aa76519ccf29dc&#45;&gt;dir_d2e4f22398959709992733f1617728ca</title>
<g id="a_edge28"><a xlink:href="dir_000047_000009.html" target="_top">
<path fill="none" stroke="#63b8ff" d="M831.76,-128.33C828.87,-127.42 825.87,-126.59 823,-126 722.79,-105.37 452.44,-141.45 364,-90 354.76,-84.63 340.21,-61.03 330.63,-44.17"/>
<polygon fill="#63b8ff" stroke="#63b8ff" points="333.57,-42.25 325.65,-35.22 327.45,-45.66 333.57,-42.25"/>
</a>
</g>
<g id="a_edge28&#45;headlabel"><a xlink:href="dir_000047_000009.html" target="_top" xlink:title="6">
<text text-anchor="middle" x="337.8" y="-41.51" font-family="Helvetica,sans-Serif" font-size="10.00" fill="#63b8ff">6</text>
</a>
</g>
</g>
<!-- dir_0f40cd49204690f812aa76519ccf29dc&#45;&gt;dir_e9168f3bfea397a173489332f8554c97 -->
<g id="edge29" class="edge">
<title>dir_0f40cd49204690f812aa76519ccf29dc&#45;&gt;dir_e9168f3bfea397a173489332f8554c97</title>
<g id="a_edge29"><a xlink:href="dir_000047_000052.html" target="_top">
<path fill="none" stroke="#63b8ff" d="M847.02,-125.66C845.07,-108.17 840.7,-68.8 838.09,-45.27"/>
<polygon fill="#63b8ff" stroke="#63b8ff" points="841.55,-44.71 836.96,-35.16 834.59,-45.48 841.55,-44.71"/>
</a>
</g>
<g id="a_edge29&#45;headlabel"><a xlink:href="dir_000047_000052.html" target="_top" xlink:title="4">
<text text-anchor="middle" x="844.76" y="-45.47" font-family="Helvetica,sans-Serif" font-size="10.00" fill="#63b8ff">4</text>
</a>
</g>
</g>
<!-- dir_0f40cd49204690f812aa76519ccf29dc&#45;&gt;dir_b33158d99c61436f71711cd504567082 -->
<g id="edge27" class="edge">
<title>dir_0f40cd49204690f812aa76519ccf29dc&#45;&gt;dir_b33158d99c61436f71711cd504567082</title>
<g id="a_edge27"><a xlink:href="dir_000047_000057.html" target="_top">
<path fill="none" stroke="#63b8ff" d="M864.02,-128.6C866.98,-127.64 870.06,-126.73 873,-126 968.87,-102.28 997.54,-107.51 1093.1,-91.19"/>
<polygon fill="#63b8ff" stroke="#63b8ff" points="1093.93,-94.59 1103.18,-89.43 1092.73,-87.7 1093.93,-94.59"/>
</a>
</g>
<g id="a_edge27&#45;headlabel"><a xlink:href="dir_000047_000057.html" target="_top" xlink:title="1">
<text text-anchor="middle" x="1090.88" y="-95.51" font-family="Helvetica,sans-Serif" font-size="10.00" fill="#63b8ff">1</text>
</a>
</g>
</g>
<!-- dir_0f40cd49204690f812aa76519ccf29dc&#45;&gt;dir_8850def71d7022841cb32c1b32cdfc07 -->
<g id="edge26" class="edge">
<title>dir_0f40cd49204690f812aa76519ccf29dc&#45;&gt;dir_8850def71d7022841cb32c1b32cdfc07</title>
<g id="a_edge26"><a xlink:href="dir_000047_000048.html" target="_top">
<path fill="none" stroke="#63b8ff" d="M864.26,-128.41C867.14,-127.49 870.14,-126.64 873,-126 1008.97,-95.59 1048.64,-107.57 1189.52,-90.27"/>
<polygon fill="#63b8ff" stroke="#63b8ff" points="1190.36,-93.69 1199.85,-88.97 1189.49,-86.74 1190.36,-93.69"/>
</a>
</g>
<g id="a_edge26&#45;headlabel"><a xlink:href="dir_000047_000048.html" target="_top" xlink:title="1">
<text text-anchor="middle" x="1187.15" y="-94.45" font-family="Helvetica,sans-Serif" font-size="10.00" fill="#63b8ff">1</text>
</a>
</g>
</g>
<!-- dir_12791b19f0b305ea05c4a6bbc6348144&#45;&gt;dir_d2e4f22398959709992733f1617728ca -->
<g id="edge30" class="edge">
<title>dir_12791b19f0b305ea05c4a6bbc6348144&#45;&gt;dir_d2e4f22398959709992733f1617728ca</title>
<g id="a_edge30"><a xlink:href="dir_000054_000009.html" target="_top">
<path fill="none" stroke="#63b8ff" d="M677.8,-70.83C674.44,-67.83 670.33,-64.78 666,-63 538.19,-10.62 490.12,-59.5 350.37,-34.79"/>
<polygon fill="#63b8ff" stroke="#63b8ff" points="350.62,-31.28 340.15,-32.88 349.34,-38.16 350.62,-31.28"/>
</a>
</g>
<g id="a_edge30&#45;headlabel"><a xlink:href="dir_000054_000009.html" target="_top" xlink:title="3">
<text text-anchor="middle" x="354.68" y="-26.65" font-family="Helvetica,sans-Serif" font-size="10.00" fill="#63b8ff">3</text>
</a>
</g>
</g>
<!-- dir_12791b19f0b305ea05c4a6bbc6348144&#45;&gt;dir_e9168f3bfea397a173489332f8554c97 -->
<g id="edge31" class="edge">
<title>dir_12791b19f0b305ea05c4a6bbc6348144&#45;&gt;dir_e9168f3bfea397a173489332f8554c97</title>
<g id="a_edge31"><a xlink:href="dir_000054_000052.html" target="_top">
<path fill="none" stroke="#63b8ff" d="M694.79,-70.91C698.09,-68.06 702.01,-65.09 706,-63 735.53,-47.56 772.34,-38.02 799.25,-32.58"/>
<polygon fill="#63b8ff" stroke="#63b8ff" points="800.24,-35.95 809.4,-30.62 798.92,-29.08 800.24,-35.95"/>
</a>
</g>
<g id="a_edge31&#45;headlabel"><a xlink:href="dir_000054_000052.html" target="_top" xlink:title="1">
<text text-anchor="middle" x="797.25" y="-36.92" font-family="Helvetica,sans-Serif" font-size="10.00" fill="#63b8ff">1</text>
</a>
</g>
</g>
<!-- dir_12791b19f0b305ea05c4a6bbc6348144&#45;&gt;dir_e91b3eef7c0d8abdbe8ee43dc3688a49 -->
<g id="edge32" class="edge">
<title>dir_12791b19f0b305ea05c4a6bbc6348144&#45;&gt;dir_e91b3eef7c0d8abdbe8ee43dc3688a49</title>
<g id="a_edge32"><a xlink:href="dir_000054_000007.html" target="_top">
<path fill="none" stroke="#63b8ff" d="M677.75,-70.97C674.38,-67.98 670.28,-64.9 666,-63 608.81,-37.62 537.69,-29.21 486.12,-26.73"/>
<polygon fill="#63b8ff" stroke="#63b8ff" points="486.21,-23.23 476.07,-26.31 485.92,-30.23 486.21,-23.23"/>
</a>
</g>
<g id="a_edge32&#45;headlabel"><a xlink:href="dir_000054_000007.html" target="_top" xlink:title="1">
<text text-anchor="middle" x="489.92" y="-18.05" font-family="Helvetica,sans-Serif" font-size="10.00" fill="#63b8ff">1</text>
</a>
</g>
</g>
<!-- dir_12791b19f0b305ea05c4a6bbc6348144&#45;&gt;dir_f00f788038d28a6de62e2305131ce6f9 -->
<g id="edge33" class="edge">
<title>dir_12791b19f0b305ea05c4a6bbc6348144&#45;&gt;dir_f00f788038d28a6de62e2305131ce6f9</title>
<g id="a_edge33"><a xlink:href="dir_000054_000033.html" target="_top">
<path fill="none" stroke="#63b8ff" d="M694.67,-70.67C697.96,-67.8 701.91,-64.87 706,-63 771.13,-33.25 796.51,-48.59 870.08,-35.18"/>
<polygon fill="#63b8ff" stroke="#63b8ff" points="871.14,-38.54 880.29,-33.19 869.81,-31.67 871.14,-38.54"/>
</a>
</g>
<g id="a_edge33&#45;headlabel"><a xlink:href="dir_000054_000033.html" target="_top" xlink:title="1">
<text text-anchor="middle" x="868.16" y="-39.51" font-family="Helvetica,sans-Serif" font-size="10.00" fill="#63b8ff">1</text>
</a>
</g>
</g>
</g>
</svg>

<g id="navigator" transform="translate(0 0)" fill="#404254">
  <rect fill="#f2f5e9" fill-opacity="0.5" stroke="#606060" stroke-width=".5" x="0" y="0" width="60" height="60"/>
  <use id="zoomplus" xlink:href="#zoomPlus" x="17" y="9" onmousedown="handleZoom(evt,'in')"/>
  <use id="zoomminus" xlink:href="#zoomMin" x="42" y="9" onmousedown="handleZoom(evt,'out')"/>
  <use id="reset" xlink:href="#resetDef" x="30" y="36" onmousedown="handleReset()"/>
   <use id="arrowup" xlink:href="#arrowUp" x="0" y="0" onmousedown="handlePan(0,-1)"/>
  <use id="arrowright" xlink:href="#arrowRight" x="0" y="0" onmousedown="handlePan(1,0)"/>
  <use id="arrowdown" xlink:href="#arrowDown" x="0" y="0" onmousedown="handlePan(0,1)"/>
  <use id="arrowleft" xlink:href="#arrowLeft" x="0" y="0" onmousedown="handlePan(-1,0)"/>
</g>
<svg viewBox="0 0 15 15" width="100%" height="30px" preserveAspectRatio="xMaxYMin meet">
 <g id="arrow_out" transform="scale(0.3 0.3)">
  <a xlink:href="dir_25ba3af7252fba93a50e7ef611ff43dd_dep_org.svg" target="_base">
   <rect id="button" ry="5" rx="5" y="6" x="6" height="38" width="38"
        fill="#f2f5e9" fill-opacity="0.5" stroke="#606060" stroke-width="1.0"/>
   <path id="arrow"
     d="M 11.500037,31.436501 C 11.940474,20.09759 22.043105,11.32322 32.158766,21.979434 L 37.068811,17.246167 C 37.068811,17.246167 37.088388,32 37.088388,32 L 22.160133,31.978069 C 22.160133,31.978069 26.997745,27.140456 26.997745,27.140456 C 18.528582,18.264221 13.291696,25.230495 11.500037,31.436501 z"
     style="fill:#404040;"/>
  </a>
 </g>
</svg>

<style type='text/css'>
<![CDATA[
[data-mouse-over-selected='false'] { opacity: 0.7; }
[data-mouse-over-selected='true']  { opacity: 1.0; }
]]>
</style>
<script type="application/ecmascript"><![CDATA[
document.addEventListener('DOMContentLoaded', (event) => {
  highlightEdges();
  highlightAdjacentNodes();
});
]]></script>
</svg>
