<?xml version="1.0" encoding="UTF-8" standalone="no"?>
<!DOCTYPE svg PUBLIC "-//W3C//DTD SVG 1.1//EN"
 "http://www.w3.org/Graphics/SVG/1.1/DTD/svg11.dtd">
<!-- Generated by graphviz version 2.43.0 (0)
 -->
<!-- Title: /home/runner/work/amr&#45;wind/amr&#45;wind/amr&#45;wind/physics Pages: 1 -->
<!--zoomable 196 -->

<svg id="main" version="1.1" xmlns="http://www.w3.org/2000/svg" xmlns:xlink="http://www.w3.org/1999/xlink" xml:space="preserve" onload="init(evt)">

<style type="text/css"><![CDATA[
.node, .edge {opacity: 0.7;}
.node.selected, .edge.selected {opacity: 1;}
.edge:hover path { stroke: red; }
.edge:hover polygon { stroke: red; fill: red; }
]]></style>

<defs>
  <circle id="rim" cx="0" cy="0" r="7"/>
  <circle id="rim2" cx="0" cy="0" r="3.5"/>
  <g id="zoomPlus">
    <use xlink:href="#rim" fill="#404040"><set attributeName="fill" to="#808080" begin="zoomplus.mouseover" end="zoomplus.mouseout"/></use>
    <path d="M-4,0h8M0,-4v8" fill="none" stroke="white" stroke-width="1.5" pointer-events="none"/>
  </g>
  <g id="zoomMin">
    <use xlink:href="#rim" fill="#404040"><set attributeName="fill" to="#808080" begin="zoomminus.mouseover" end="zoomminus.mouseout"/></use>
    <path d="M-4,0h8" fill="none" stroke="white" stroke-width="1.5" pointer-events="none"/>
  </g>
  <g id="arrowUp" transform="translate(30 24)">
    <use xlink:href="#rim"/>
    <path pointer-events="none" fill="none" stroke="white" stroke-width="1.5" d="M0,-3.0v7 M-2.5,-0.5L0,-3.0L2.5,-0.5"/>
  </g>
  <g id="arrowRight" transform="rotate(90) translate(36 -43)">
    <use xlink:href="#rim"/>
    <path pointer-events="none" fill="none" stroke="white" stroke-width="1.5" d="M0,-3.0v7 M-2.5,-0.5L0,-3.0L2.5,-0.5"/>
  </g>
  <g id="arrowDown" transform="rotate(180) translate(-30 -48)">
    <use xlink:href="#rim"/>
    <path pointer-events="none" fill="none" stroke="white" stroke-width="1.5" d="M0,-3.0v7 M-2.5,-0.5L0,-3.0L2.5,-0.5"/>
  </g>
  <g id="arrowLeft" transform="rotate(270) translate(-36 17)">
    <use xlink:href="#rim"/>
    <path pointer-events="none" fill="none" stroke="white" stroke-width="1.5" d="M0,-3.0v7 M-2.5,-0.5L0,-3.0L2.5,-0.5"/>
  </g>
  <g id="resetDef">
    <use xlink:href="#rim2" fill="#404040"><set attributeName="fill" to="#808080" begin="reset.mouseover" end="reset.mouseout"/></use>
  </g>
</defs>
<script type="application/ecmascript">
var viewWidth = 711;
var viewHeight = 196;
var sectionId = 'dynsection-0';
</script>
<script type="application/ecmascript" xlink:href="svg.min.js"/>
<svg id="graph" class="graph">
<g id="viewport">
<title>/home/runner/work/amr&#45;wind/amr&#45;wind/amr&#45;wind/physics</title>
<g id="clust1" class="cluster">
<title>clusterdir_212148f97b8bb53ebaebb3bf8a8b5de4</title>
<g id="a_clust1"><a xlink:href="dir_212148f97b8bb53ebaebb3bf8a8b5de4.html" target="_top" xlink:title="amr&#45;wind">
<polygon fill="#edf0f7" stroke="#7f7f7f" stroke-dasharray="5,2" points="8,-8 8,-180 695,-180 695,-8 8,-8"/>
<text text-anchor="middle" x="351.5" y="-168" font-family="Helvetica,sans-Serif" font-size="10.00">amr&#45;wind</text>
</a>
</g>
</g>
<g id="clust2" class="cluster">
<title>clusterdir_f00f788038d28a6de62e2305131ce6f9</title>
<g id="a_clust2"><a xlink:href="dir_f00f788038d28a6de62e2305131ce6f9.html" target="_top">
<polygon fill="#edf0f7" stroke="#404040" stroke-width="2" points="365,-63 365,-153 583,-153 583,-63 365,-63"/>
</a>
</g>
</g>
<!-- dir_25ba3af7252fba93a50e7ef611ff43dd -->
<g id="node1" class="node">
<title>dir_25ba3af7252fba93a50e7ef611ff43dd</title>
<g id="a_node1"><a xlink:href="dir_25ba3af7252fba93a50e7ef611ff43dd.html" target="_top" xlink:title="equation_systems">
<polygon fill="#a2b4d6" stroke="red" points="687,-35 581,-35 581,-16 687,-16 687,-35"/>
<text text-anchor="middle" x="634" y="-23" font-family="Helvetica,sans-Serif" font-size="10.00">equation_systems</text>
</a>
</g>
</g>
<!-- dir_3257b514042ea684f8dc73a7e1ce1689 -->
<g id="node2" class="node">
<title>dir_3257b514042ea684f8dc73a7e1ce1689</title>
<g id="a_node2"><a xlink:href="dir_3257b514042ea684f8dc73a7e1ce1689.html" target="_top" xlink:title="fvm">
<polygon fill="#a2b4d6" stroke="#404040" points="627,-90 591,-90 591,-71 627,-71 627,-90"/>
<text text-anchor="middle" x="609" y="-78" font-family="Helvetica,sans-Serif" font-size="10.00">fvm</text>
</a>
</g>
</g>
<!-- dir_5460936bc36635a4924df5fb6ccd4a9f -->
<g id="node3" class="node">
<title>dir_5460936bc36635a4924df5fb6ccd4a9f</title>
<g id="a_node3"><a xlink:href="dir_5460936bc36635a4924df5fb6ccd4a9f.html" target="_top" xlink:title="turbulence">
<polygon fill="#a2b4d6" stroke="red" points="84,-90 16,-90 16,-71 84,-71 84,-90"/>
<text text-anchor="middle" x="50" y="-78" font-family="Helvetica,sans-Serif" font-size="10.00">turbulence</text>
</a>
</g>
</g>
<!-- dir_b33158d99c61436f71711cd504567082 -->
<g id="node4" class="node">
<title>dir_b33158d99c61436f71711cd504567082</title>
<g id="a_node4"><a xlink:href="dir_b33158d99c61436f71711cd504567082.html" target="_top" xlink:title="wind_energy">
<polygon fill="#a2b4d6" stroke="red" points="181.5,-90 102.5,-90 102.5,-71 181.5,-71 181.5,-90"/>
<text text-anchor="middle" x="142" y="-78" font-family="Helvetica,sans-Serif" font-size="10.00">wind_energy</text>
</a>
</g>
</g>
<!-- dir_d2e4f22398959709992733f1617728ca -->
<g id="node5" class="node">
<title>dir_d2e4f22398959709992733f1617728ca</title>
<g id="a_node5"><a xlink:href="dir_d2e4f22398959709992733f1617728ca.html" target="_top" xlink:title="core">
<polygon fill="#a2b4d6" stroke="red" points="537,-35 499,-35 499,-16 537,-16 537,-35"/>
<text text-anchor="middle" x="518" y="-23" font-family="Helvetica,sans-Serif" font-size="10.00">core</text>
</a>
</g>
</g>
<!-- dir_e9168f3bfea397a173489332f8554c97 -->
<g id="node6" class="node">
<title>dir_e9168f3bfea397a173489332f8554c97</title>
<g id="a_node6"><a xlink:href="dir_e9168f3bfea397a173489332f8554c97.html" target="_top" xlink:title="utilities">
<polygon fill="#a2b4d6" stroke="red" points="480.5,-35 427.5,-35 427.5,-16 480.5,-16 480.5,-35"/>
<text text-anchor="middle" x="454" y="-23" font-family="Helvetica,sans-Serif" font-size="10.00">utilities</text>
</a>
</g>
</g>
<!-- dir_e91b3eef7c0d8abdbe8ee43dc3688a49 -->
<g id="node7" class="node">
<title>dir_e91b3eef7c0d8abdbe8ee43dc3688a49</title>
<g id="a_node7"><a xlink:href="dir_e91b3eef7c0d8abdbe8ee43dc3688a49.html" target="_top" xlink:title="boundary_conditions">
<polygon fill="#a2b4d6" stroke="red" points="357,-90 239,-90 239,-71 357,-71 357,-90"/>
<text text-anchor="middle" x="298" y="-78" font-family="Helvetica,sans-Serif" font-size="10.00">boundary_conditions</text>
</a>
</g>
</g>
<!-- dir_f00f788038d28a6de62e2305131ce6f9 -->
<g id="node8" class="node">
<title>dir_f00f788038d28a6de62e2305131ce6f9</title>
<text text-anchor="middle" x="400" y="-133" font-family="Helvetica,sans-Serif" font-size="10.00">physics</text>
</g>
<!-- dir_f00f788038d28a6de62e2305131ce6f9&#45;&gt;dir_5460936bc36635a4924df5fb6ccd4a9f -->
<g id="edge1" class="edge">
<title>dir_f00f788038d28a6de62e2305131ce6f9&#45;&gt;dir_5460936bc36635a4924df5fb6ccd4a9f</title>
<g id="a_edge1"><a xlink:href="dir_000033_000050.html" target="_top">
<path fill="none" stroke="#63b8ff" d="M373.33,-131.05C320.1,-124.06 196.95,-107.42 94,-90 93.9,-89.98 93.8,-89.97 93.7,-89.95"/>
<polygon fill="#63b8ff" stroke="#63b8ff" points="94.54,-86.54 84.08,-88.25 93.32,-93.44 94.54,-86.54"/>
</a>
</g>
<g id="a_edge1&#45;headlabel"><a xlink:href="dir_000033_000050.html" target="_top" xlink:title="2">
<text text-anchor="middle" x="98.57" y="-81.87" font-family="Helvetica,sans-Serif" font-size="10.00" fill="#63b8ff">2</text>
</a>
</g>
</g>
<!-- dir_f00f788038d28a6de62e2305131ce6f9&#45;&gt;dir_b33158d99c61436f71711cd504567082 -->
<g id="edge3" class="edge">
<title>dir_f00f788038d28a6de62e2305131ce6f9&#45;&gt;dir_b33158d99c61436f71711cd504567082</title>
<g id="a_edge3"><a xlink:href="dir_000033_000057.html" target="_top">
<path fill="none" stroke="#63b8ff" d="M373.36,-129.03C330.67,-120.26 246.22,-102.91 192.01,-91.77"/>
<polygon fill="#63b8ff" stroke="#63b8ff" points="192.43,-88.29 181.93,-89.7 191.02,-95.14 192.43,-88.29"/>
</a>
</g>
<g id="a_edge3&#45;headlabel"><a xlink:href="dir_000033_000057.html" target="_top" xlink:title="1">
<text text-anchor="middle" x="196.52" y="-83.73" font-family="Helvetica,sans-Serif" font-size="10.00" fill="#63b8ff">1</text>
</a>
</g>
</g>
<!-- dir_f00f788038d28a6de62e2305131ce6f9&#45;&gt;dir_d2e4f22398959709992733f1617728ca -->
<g id="edge4" class="edge">
<title>dir_f00f788038d28a6de62e2305131ce6f9&#45;&gt;dir_d2e4f22398959709992733f1617728ca</title>
<g id="a_edge4"><a xlink:href="dir_000033_000009.html" target="_top">
<path fill="none" stroke="#63b8ff" d="M373.45,-132.61C315.68,-127.57 187.11,-110.76 230,-63 267.01,-21.79 417.94,-44.24 488.97,-34.51"/>
<polygon fill="#63b8ff" stroke="#63b8ff" points="489.57,-37.96 498.84,-32.83 488.4,-31.06 489.57,-37.96"/>
</a>
</g>
<g id="a_edge4&#45;headlabel"><a xlink:href="dir_000033_000009.html" target="_top" xlink:title="90">
<text text-anchor="middle" x="486.5" y="-38.86" font-family="Helvetica,sans-Serif" font-size="10.00" fill="#63b8ff">90</text>
</a>
</g>
</g>
<!-- dir_f00f788038d28a6de62e2305131ce6f9&#45;&gt;dir_e9168f3bfea397a173489332f8554c97 -->
<g id="edge5" class="edge">
<title>dir_f00f788038d28a6de62e2305131ce6f9&#45;&gt;dir_e9168f3bfea397a173489332f8554c97</title>
<g id="a_edge5"><a xlink:href="dir_000033_000052.html" target="_top">
<path fill="none" stroke="#63b8ff" d="M373.19,-133.37C311.77,-129.85 169.57,-115.9 215,-63 240.61,-33.19 356.63,-27.46 417.09,-26.53"/>
<polygon fill="#63b8ff" stroke="#63b8ff" points="417.39,-30.03 427.35,-26.41 417.31,-23.03 417.39,-30.03"/>
</a>
</g>
<g id="a_edge5&#45;headlabel"><a xlink:href="dir_000033_000052.html" target="_top" xlink:title="31">
<text text-anchor="middle" x="413.83" y="-30.41" font-family="Helvetica,sans-Serif" font-size="10.00" fill="#63b8ff">31</text>
</a>
</g>
</g>
<!-- dir_f00f788038d28a6de62e2305131ce6f9&#45;&gt;dir_e91b3eef7c0d8abdbe8ee43dc3688a49 -->
<g id="edge6" class="edge">
<title>dir_f00f788038d28a6de62e2305131ce6f9&#45;&gt;dir_e91b3eef7c0d8abdbe8ee43dc3688a49</title>
<g id="a_edge6"><a xlink:href="dir_000033_000007.html" target="_top">
<path fill="none" stroke="#63b8ff" d="M383.61,-125.98C367.43,-117.57 342.43,-104.59 323.62,-94.81"/>
<polygon fill="#63b8ff" stroke="#63b8ff" points="325.17,-91.68 314.69,-90.17 321.95,-97.89 325.17,-91.68"/>
</a>
</g>
<g id="a_edge6&#45;headlabel"><a xlink:href="dir_000033_000007.html" target="_top" xlink:title="1">
<text text-anchor="middle" x="329.67" y="-88.31" font-family="Helvetica,sans-Serif" font-size="10.00" fill="#63b8ff">1</text>
</a>
</g>
</g>
<!-- dir_7054ffd4ae7e6e017e38004a9c7b0712 -->
<g id="node11" class="node">
<title>dir_7054ffd4ae7e6e017e38004a9c7b0712</title>
<g id="a_node11"><a xlink:href="dir_7054ffd4ae7e6e017e38004a9c7b0712.html" target="_top" xlink:title="udfs">
<polygon fill="#a2b4d6" stroke="#404040" points="537,-90 499,-90 499,-71 537,-71 537,-90"/>
<text text-anchor="middle" x="518" y="-78" font-family="Helvetica,sans-Serif" font-size="10.00">udfs</text>
</a>
</g>
</g>
<!-- dir_f00f788038d28a6de62e2305131ce6f9&#45;&gt;dir_7054ffd4ae7e6e017e38004a9c7b0712 -->
<g id="edge2" class="edge">
<title>dir_f00f788038d28a6de62e2305131ce6f9&#45;&gt;dir_7054ffd4ae7e6e017e38004a9c7b0712</title>
<g id="a_edge2"><a xlink:href="dir_000033_000051.html" target="_top">
<path fill="none" stroke="#63b8ff" d="M418.96,-125.98C438.03,-117.42 467.66,-104.11 489.55,-94.28"/>
<polygon fill="#63b8ff" stroke="#63b8ff" points="491.01,-97.46 498.7,-90.17 488.14,-91.07 491.01,-97.46"/>
</a>
</g>
<g id="a_edge2&#45;headlabel"><a xlink:href="dir_000033_000051.html" target="_top" xlink:title="2">
<text text-anchor="middle" x="488.89" y="-99.02" font-family="Helvetica,sans-Serif" font-size="10.00" fill="#63b8ff">2</text>
</a>
</g>
</g>
<!-- dir_e4e2cc77b3225087894bec71d0918c3e -->
<g id="node9" class="node">
<title>dir_e4e2cc77b3225087894bec71d0918c3e</title>
<g id="a_node9"><a xlink:href="dir_e4e2cc77b3225087894bec71d0918c3e.html" target="_top" xlink:title="mms">
<polygon fill="#a2b4d6" stroke="#404040" points="574.5,-145 533.5,-145 533.5,-126 574.5,-126 574.5,-145"/>
<text text-anchor="middle" x="554" y="-133" font-family="Helvetica,sans-Serif" font-size="10.00">mms</text>
</a>
</g>
</g>
<!-- dir_e4e2cc77b3225087894bec71d0918c3e&#45;&gt;dir_25ba3af7252fba93a50e7ef611ff43dd -->
<g id="edge7" class="edge">
<title>dir_e4e2cc77b3225087894bec71d0918c3e&#45;&gt;dir_25ba3af7252fba93a50e7ef611ff43dd</title>
<g id="a_edge7"><a xlink:href="dir_000027_000016.html" target="_top">
<path fill="none" stroke="#63b8ff" d="M574.84,-130.63C596.16,-125.44 628.2,-113.95 643,-90 651.41,-76.4 647.55,-58.07 642.54,-44.61"/>
<polygon fill="#63b8ff" stroke="#63b8ff" points="645.61,-42.88 638.49,-35.03 639.16,-45.6 645.61,-42.88"/>
</a>
</g>
<g id="a_edge7&#45;headlabel"><a xlink:href="dir_000027_000016.html" target="_top" xlink:title="1">
<text text-anchor="middle" x="649.63" y="-42.58" font-family="Helvetica,sans-Serif" font-size="10.00" fill="#63b8ff">1</text>
</a>
</g>
</g>
<!-- dir_e4e2cc77b3225087894bec71d0918c3e&#45;&gt;dir_d2e4f22398959709992733f1617728ca -->
<g id="edge8" class="edge">
<title>dir_e4e2cc77b3225087894bec71d0918c3e&#45;&gt;dir_d2e4f22398959709992733f1617728ca</title>
<g id="a_edge8"><a xlink:href="dir_000027_000009.html" target="_top">
<path fill="none" stroke="#63b8ff" d="M574.72,-129.71C594.39,-123.94 622.83,-112.13 636,-90 642.14,-79.69 643.12,-72.66 636,-63 625.42,-48.66 578.84,-37.55 547.46,-31.53"/>
<polygon fill="#63b8ff" stroke="#63b8ff" points="547.95,-28.06 537.48,-29.68 546.68,-34.94 547.95,-28.06"/>
</a>
</g>
<g id="a_edge8&#45;headlabel"><a xlink:href="dir_000027_000009.html" target="_top" xlink:title="3">
<text text-anchor="middle" x="552" y="-23.42" font-family="Helvetica,sans-Serif" font-size="10.00" fill="#63b8ff">3</text>
</a>
</g>
</g>
<!-- dir_39da9172e31938efa2ce009710a828e7 -->
<g id="node10" class="node">
<title>dir_39da9172e31938efa2ce009710a828e7</title>
<g id="a_node10"><a xlink:href="dir_39da9172e31938efa2ce009710a828e7.html" target="_top" xlink:title="multiphase">
<polygon fill="#a2b4d6" stroke="#404040" points="515.5,-145 444.5,-145 444.5,-126 515.5,-126 515.5,-145"/>
<text text-anchor="middle" x="480" y="-133" font-family="Helvetica,sans-Serif" font-size="10.00">multiphase</text>
</a>
</g>
</g>
<!-- dir_39da9172e31938efa2ce009710a828e7&#45;&gt;dir_25ba3af7252fba93a50e7ef611ff43dd -->
<g id="edge9" class="edge">
<title>dir_39da9172e31938efa2ce009710a828e7&#45;&gt;dir_25ba3af7252fba93a50e7ef611ff43dd</title>
<g id="a_edge9"><a xlink:href="dir_000028_000016.html" target="_top">
<path fill="none" stroke="#63b8ff" d="M515.87,-126.65C559.6,-116.72 628.64,-99.75 636,-90 645.54,-77.36 643.75,-58.92 640.34,-45.16"/>
<polygon fill="#63b8ff" stroke="#63b8ff" points="643.62,-43.93 637.44,-35.33 636.91,-45.92 643.62,-43.93"/>
</a>
</g>
<g id="a_edge9&#45;headlabel"><a xlink:href="dir_000028_000016.html" target="_top" xlink:title="2">
<text text-anchor="middle" x="647.36" y="-44.08" font-family="Helvetica,sans-Serif" font-size="10.00" fill="#63b8ff">2</text>
</a>
</g>
</g>
<!-- dir_39da9172e31938efa2ce009710a828e7&#45;&gt;dir_3257b514042ea684f8dc73a7e1ce1689 -->
<g id="edge10" class="edge">
<title>dir_39da9172e31938efa2ce009710a828e7&#45;&gt;dir_3257b514042ea684f8dc73a7e1ce1689</title>
<g id="a_edge10"><a xlink:href="dir_000028_000020.html" target="_top">
<path fill="none" stroke="#63b8ff" d="M500.73,-125.98C522.63,-116.98 557.3,-102.74 581.49,-92.8"/>
<polygon fill="#63b8ff" stroke="#63b8ff" points="582.91,-96 590.83,-88.97 580.25,-89.53 582.91,-96"/>
</a>
</g>
<g id="a_edge10&#45;headlabel"><a xlink:href="dir_000028_000020.html" target="_top" xlink:title="5">
<text text-anchor="middle" x="580.66" y="-97.5" font-family="Helvetica,sans-Serif" font-size="10.00" fill="#63b8ff">5</text>
</a>
</g>
</g>
<!-- dir_39da9172e31938efa2ce009710a828e7&#45;&gt;dir_d2e4f22398959709992733f1617728ca -->
<g id="edge11" class="edge">
<title>dir_39da9172e31938efa2ce009710a828e7&#45;&gt;dir_d2e4f22398959709992733f1617728ca</title>
<g id="a_edge11"><a xlink:href="dir_000028_000009.html" target="_top">
<path fill="none" stroke="#63b8ff" d="M479.81,-125.76C479.82,-111.9 481.09,-84.27 490,-63 492.99,-55.87 497.71,-48.92 502.44,-43.03"/>
<polygon fill="#63b8ff" stroke="#63b8ff" points="505.27,-45.11 509.16,-35.25 499.97,-40.53 505.27,-45.11"/>
</a>
</g>
<g id="a_edge11&#45;headlabel"><a xlink:href="dir_000028_000009.html" target="_top" xlink:title="27">
<text text-anchor="middle" x="505.06" y="-47.18" font-family="Helvetica,sans-Serif" font-size="10.00" fill="#63b8ff">27</text>
</a>
</g>
</g>
<!-- dir_39da9172e31938efa2ce009710a828e7&#45;&gt;dir_e9168f3bfea397a173489332f8554c97 -->
<g id="edge12" class="edge">
<title>dir_39da9172e31938efa2ce009710a828e7&#45;&gt;dir_e9168f3bfea397a173489332f8554c97</title>
<g id="a_edge12"><a xlink:href="dir_000028_000052.html" target="_top">
<path fill="none" stroke="#63b8ff" d="M477.87,-125.66C473.64,-108.09 464.1,-68.45 458.44,-44.95"/>
<polygon fill="#63b8ff" stroke="#63b8ff" points="461.83,-44.06 456.08,-35.16 455.02,-45.7 461.83,-44.06"/>
</a>
</g>
<g id="a_edge12&#45;headlabel"><a xlink:href="dir_000028_000052.html" target="_top" xlink:title="4">
<text text-anchor="middle" x="465.43" y="-44.39" font-family="Helvetica,sans-Serif" font-size="10.00" fill="#63b8ff">4</text>
</a>
</g>
</g>
<!-- dir_7054ffd4ae7e6e017e38004a9c7b0712&#45;&gt;dir_25ba3af7252fba93a50e7ef611ff43dd -->
<g id="edge13" class="edge">
<title>dir_7054ffd4ae7e6e017e38004a9c7b0712&#45;&gt;dir_25ba3af7252fba93a50e7ef611ff43dd</title>
<g id="a_edge13"><a xlink:href="dir_000051_000016.html" target="_top">
<path fill="none" stroke="#63b8ff" d="M528.87,-70.86C532.59,-68.14 536.86,-65.25 541,-63 558.83,-53.3 579.8,-44.84 597.3,-38.52"/>
<polygon fill="#63b8ff" stroke="#63b8ff" points="598.89,-41.67 607.16,-35.04 596.56,-35.06 598.89,-41.67"/>
</a>
</g>
<g id="a_edge13&#45;headlabel"><a xlink:href="dir_000051_000016.html" target="_top" xlink:title="6">
<text text-anchor="middle" x="596.44" y="-43.04" font-family="Helvetica,sans-Serif" font-size="10.00" fill="#63b8ff">6</text>
</a>
</g>
</g>
<!-- dir_7054ffd4ae7e6e017e38004a9c7b0712&#45;&gt;dir_d2e4f22398959709992733f1617728ca -->
<g id="edge14" class="edge">
<title>dir_7054ffd4ae7e6e017e38004a9c7b0712&#45;&gt;dir_d2e4f22398959709992733f1617728ca</title>
<g id="a_edge14"><a xlink:href="dir_000051_000009.html" target="_top">
<path fill="none" stroke="#63b8ff" d="M518,-70.75C518,-63.8 518,-53.85 518,-45.13"/>
<polygon fill="#63b8ff" stroke="#63b8ff" points="521.5,-45.09 518,-35.09 514.5,-45.09 521.5,-45.09"/>
</a>
</g>
<g id="a_edge14&#45;headlabel"><a xlink:href="dir_000051_000009.html" target="_top" xlink:title="23">
<text text-anchor="middle" x="524.34" y="-46.18" font-family="Helvetica,sans-Serif" font-size="10.00" fill="#63b8ff">23</text>
</a>
</g>
</g>
<!-- dir_7054ffd4ae7e6e017e38004a9c7b0712&#45;&gt;dir_e9168f3bfea397a173489332f8554c97 -->
<g id="edge15" class="edge">
<title>dir_7054ffd4ae7e6e017e38004a9c7b0712&#45;&gt;dir_e9168f3bfea397a173489332f8554c97</title>
<g id="a_edge15"><a xlink:href="dir_000051_000052.html" target="_top">
<path fill="none" stroke="#63b8ff" d="M507.72,-70.98C498.16,-63.07 483.72,-51.11 472.22,-41.58"/>
<polygon fill="#63b8ff" stroke="#63b8ff" points="474.4,-38.85 464.47,-35.17 469.94,-44.24 474.4,-38.85"/>
</a>
</g>
<g id="a_edge15&#45;headlabel"><a xlink:href="dir_000051_000052.html" target="_top" xlink:title="1">
<text text-anchor="middle" x="478.98" y="-36.46" font-family="Helvetica,sans-Serif" font-size="10.00" fill="#63b8ff">1</text>
</a>
</g>
</g>
</g>
</svg>

<g id="navigator" transform="translate(0 0)" fill="#404254">
  <rect fill="#f2f5e9" fill-opacity="0.5" stroke="#606060" stroke-width=".5" x="0" y="0" width="60" height="60"/>
  <use id="zoomplus" xlink:href="#zoomPlus" x="17" y="9" onmousedown="handleZoom(evt,'in')"/>
  <use id="zoomminus" xlink:href="#zoomMin" x="42" y="9" onmousedown="handleZoom(evt,'out')"/>
  <use id="reset" xlink:href="#resetDef" x="30" y="36" onmousedown="handleReset()"/>
   <use id="arrowup" xlink:href="#arrowUp" x="0" y="0" onmousedown="handlePan(0,-1)"/>
  <use id="arrowright" xlink:href="#arrowRight" x="0" y="0" onmousedown="handlePan(1,0)"/>
  <use id="arrowdown" xlink:href="#arrowDown" x="0" y="0" onmousedown="handlePan(0,1)"/>
  <use id="arrowleft" xlink:href="#arrowLeft" x="0" y="0" onmousedown="handlePan(-1,0)"/>
</g>
<svg viewBox="0 0 15 15" width="100%" height="30px" preserveAspectRatio="xMaxYMin meet">
 <g id="arrow_out" transform="scale(0.3 0.3)">
  <a xlink:href="dir_f00f788038d28a6de62e2305131ce6f9_dep_org.svg" target="_base">
   <rect id="button" ry="5" rx="5" y="6" x="6" height="38" width="38"
        fill="#f2f5e9" fill-opacity="0.5" stroke="#606060" stroke-width="1.0"/>
   <path id="arrow"
     d="M 11.500037,31.436501 C 11.940474,20.09759 22.043105,11.32322 32.158766,21.979434 L 37.068811,17.246167 C 37.068811,17.246167 37.088388,32 37.088388,32 L 22.160133,31.978069 C 22.160133,31.978069 26.997745,27.140456 26.997745,27.140456 C 18.528582,18.264221 13.291696,25.230495 11.500037,31.436501 z"
     style="fill:#404040;"/>
  </a>
 </g>
</svg>

<style type='text/css'>
<![CDATA[
[data-mouse-over-selected='false'] { opacity: 0.7; }
[data-mouse-over-selected='true']  { opacity: 1.0; }
]]>
</style>
<script type="application/ecmascript"><![CDATA[
document.addEventListener('DOMContentLoaded', (event) => {
  highlightEdges();
  highlightAdjacentNodes();
});
]]></script>
</svg>
