<?xml version="1.0" encoding="UTF-8" standalone="no"?>
<!DOCTYPE svg PUBLIC "-//W3C//DTD SVG 1.1//EN"
 "http://www.w3.org/Graphics/SVG/1.1/DTD/svg11.dtd">
<!-- Generated by graphviz version 2.43.0 (0)
 -->
<!-- Title: /home/runner/work/amr&#45;wind/amr&#45;wind/amr&#45;wind/fvm/divergence.H Pages: 1 -->
<svg width="2329pt" height="401pt"
 viewBox="0.00 0.00 2329.00 401.00" xmlns="http://www.w3.org/2000/svg" xmlns:xlink="http://www.w3.org/1999/xlink">
<g id="graph0" class="graph" transform="scale(1 1) rotate(0) translate(4 397)">
<title>/home/runner/work/amr&#45;wind/amr&#45;wind/amr&#45;wind/fvm/divergence.H</title>
<!-- Node1 -->
<g id="Node000001" class="node">
<title>Node1</title>
<g id="a_Node000001"><a xlink:title=" ">
<polygon fill="#999999" stroke="#666666" points="2205.5,-393 2062.5,-393 2062.5,-352 2205.5,-352 2205.5,-393"/>
<text text-anchor="start" x="2070.5" y="-381" font-family="Helvetica,sans-Serif" font-size="10.00">/home/runner/work/amr</text>
<text text-anchor="start" x="2070.5" y="-370" font-family="Helvetica,sans-Serif" font-size="10.00">&#45;wind/amr&#45;wind/amr&#45;wind</text>
<text text-anchor="middle" x="2134" y="-359" font-family="Helvetica,sans-Serif" font-size="10.00">/fvm/divergence.H</text>
</a>
</g>
</g>
<!-- Node2 -->
<g id="Node000002" class="node">
<title>Node2</title>
<g id="a_Node000002"><a xlink:href="fvm__utils_8_h.html" target="_top" xlink:title=" ">
<polygon fill="white" stroke="#666666" points="2156.5,-316 2011.5,-316 2011.5,-297 2156.5,-297 2156.5,-316"/>
<text text-anchor="middle" x="2084" y="-304" font-family="Helvetica,sans-Serif" font-size="10.00">amr&#45;wind/fvm/fvm_utils.H</text>
</a>
</g>
</g>
<!-- Node1&#45;&gt;Node2 -->
<g id="edge1_Node000001_Node000002" class="edge">
<title>Node1&#45;&gt;Node2</title>
<g id="a_edge1_Node000001_Node000002"><a xlink:title=" ">
<path fill="none" stroke="#63b8ff" d="M2118.73,-351.95C2111.82,-343.11 2103.74,-332.77 2097.11,-324.29"/>
<polygon fill="#63b8ff" stroke="#63b8ff" points="2099.76,-321.99 2090.84,-316.26 2094.24,-326.3 2099.76,-321.99"/>
</a>
</g>
</g>
<!-- Node30 -->
<g id="Node000030" class="node">
<title>Node30</title>
<g id="a_Node000030"><a xlink:title=" ">
<polygon fill="#e0e0e0" stroke="#999999" points="1890.5,-189.5 1775.5,-189.5 1775.5,-170.5 1890.5,-170.5 1890.5,-189.5"/>
<text text-anchor="middle" x="1833" y="-177.5" font-family="Helvetica,sans-Serif" font-size="10.00">AMReX_Geometry.H</text>
</a>
</g>
</g>
<!-- Node1&#45;&gt;Node30 -->
<g id="edge60_Node000001_Node000030" class="edge">
<title>Node1&#45;&gt;Node30</title>
<g id="a_edge60_Node000001_Node000030"><a xlink:title=" ">
<path fill="none" stroke="#63b8ff" d="M2078.86,-351.98C2054.83,-342.52 2026.79,-330.13 2003,-316 1941.95,-279.74 1878.68,-223.73 1849.53,-196.68"/>
<polygon fill="#63b8ff" stroke="#63b8ff" points="1851.62,-193.85 1841.93,-189.57 1846.84,-198.96 1851.62,-193.85"/>
</a>
</g>
</g>
<!-- Node32 -->
<g id="Node000032" class="node">
<title>Node32</title>
<g id="a_Node000032"><a xlink:title=" ">
<polygon fill="#e0e0e0" stroke="#999999" points="2321,-255.5 2223,-255.5 2223,-236.5 2321,-236.5 2321,-255.5"/>
<text text-anchor="middle" x="2272" y="-243.5" font-family="Helvetica,sans-Serif" font-size="10.00">AMReX_MFIter.H</text>
</a>
</g>
</g>
<!-- Node1&#45;&gt;Node32 -->
<g id="edge61_Node000001_Node000032" class="edge">
<title>Node1&#45;&gt;Node32</title>
<g id="a_edge61_Node000001_Node000032"><a xlink:title=" ">
<path fill="none" stroke="#63b8ff" d="M2150.65,-351.9C2164.29,-336.3 2184.48,-314.31 2204,-297 2218.75,-283.92 2236.78,-270.78 2250.56,-261.26"/>
<polygon fill="#63b8ff" stroke="#63b8ff" points="2252.64,-264.08 2258.93,-255.55 2248.7,-258.29 2252.64,-264.08"/>
</a>
</g>
</g>
<!-- Node33 -->
<g id="Node000033" class="node">
<title>Node33</title>
<g id="a_Node000033"><a xlink:title=" ">
<polygon fill="#e0e0e0" stroke="#999999" points="2313,-316 2213,-316 2213,-297 2313,-297 2313,-316"/>
<text text-anchor="middle" x="2263" y="-304" font-family="Helvetica,sans-Serif" font-size="10.00">AMReX_Array4.H</text>
</a>
</g>
</g>
<!-- Node1&#45;&gt;Node33 -->
<g id="edge59_Node000001_Node000033" class="edge">
<title>Node1&#45;&gt;Node33</title>
<g id="a_edge59_Node000001_Node000033"><a xlink:title=" ">
<path fill="none" stroke="#63b8ff" d="M2173.41,-351.95C2193.79,-341.84 2218.13,-329.76 2236.29,-320.75"/>
<polygon fill="#63b8ff" stroke="#63b8ff" points="2238.28,-323.67 2245.68,-316.09 2235.17,-317.4 2238.28,-323.67"/>
</a>
</g>
</g>
<!-- Node3 -->
<g id="Node000003" class="node">
<title>Node3</title>
<g id="a_Node000003"><a xlink:href="_field_repo_8_h.html" target="_top" xlink:title=" ">
<polygon fill="white" stroke="#666666" points="1185.5,-255.5 1036.5,-255.5 1036.5,-236.5 1185.5,-236.5 1185.5,-255.5"/>
<text text-anchor="middle" x="1111" y="-243.5" font-family="Helvetica,sans-Serif" font-size="10.00">amr&#45;wind/core/FieldRepo.H</text>
</a>
</g>
</g>
<!-- Node2&#45;&gt;Node3 -->
<g id="edge2_Node000002_Node000003" class="edge">
<title>Node2&#45;&gt;Node3</title>
<g id="a_edge2_Node000002_Node000003"><a xlink:title=" ">
<path fill="none" stroke="#63b8ff" d="M2011.26,-301.13C1834.73,-290.51 1384.27,-263.43 1195.86,-252.1"/>
<polygon fill="#63b8ff" stroke="#63b8ff" points="1195.92,-248.6 1185.73,-251.49 1195.5,-255.59 1195.92,-248.6"/>
</a>
</g>
</g>
<!-- Node26 -->
<g id="Node000026" class="node">
<title>Node26</title>
<g id="a_Node000026"><a xlink:href="stencils_8_h.html" target="_top" xlink:title="Second&#45;order finite volume discretization stencil coefficients.">
<polygon fill="white" stroke="#666666" points="2083.5,-255.5 1946.5,-255.5 1946.5,-236.5 2083.5,-236.5 2083.5,-255.5"/>
<text text-anchor="middle" x="2015" y="-243.5" font-family="Helvetica,sans-Serif" font-size="10.00">amr&#45;wind/fvm/stencils.H</text>
</a>
</g>
</g>
<!-- Node2&#45;&gt;Node26 -->
<g id="edge50_Node000002_Node000026" class="edge">
<title>Node2&#45;&gt;Node26</title>
<g id="a_edge50_Node000002_Node000026"><a xlink:title=" ">
<path fill="none" stroke="#63b8ff" d="M2073.82,-296.87C2063.12,-287.8 2046.06,-273.34 2033.07,-262.32"/>
<polygon fill="#63b8ff" stroke="#63b8ff" points="2035.11,-259.46 2025.22,-255.67 2030.59,-264.8 2035.11,-259.46"/>
</a>
</g>
</g>
<!-- Node31 -->
<g id="Node000031" class="node">
<title>Node31</title>
<g id="a_Node000031"><a xlink:href="math__ops_8_h.html" target="_top" xlink:title=" ">
<polygon fill="white" stroke="#666666" points="2204.5,-261 2101.5,-261 2101.5,-231 2204.5,-231 2204.5,-261"/>
<text text-anchor="start" x="2109.5" y="-249" font-family="Helvetica,sans-Serif" font-size="10.00">amr&#45;wind/utilities</text>
<text text-anchor="middle" x="2153" y="-238" font-family="Helvetica,sans-Serif" font-size="10.00">/math_ops.H</text>
</a>
</g>
</g>
<!-- Node2&#45;&gt;Node31 -->
<g id="edge55_Node000002_Node000031" class="edge">
<title>Node2&#45;&gt;Node31</title>
<g id="a_edge55_Node000002_Node000031"><a xlink:title=" ">
<path fill="none" stroke="#63b8ff" d="M2094.18,-296.87C2103.2,-289.22 2116.72,-277.76 2128.53,-267.75"/>
<polygon fill="#63b8ff" stroke="#63b8ff" points="2130.99,-270.25 2136.35,-261.11 2126.46,-264.91 2130.99,-270.25"/>
</a>
</g>
</g>
<!-- Node2&#45;&gt;Node32 -->
<g id="edge58_Node000002_Node000032" class="edge">
<title>Node2&#45;&gt;Node32</title>
<g id="a_edge58_Node000002_Node000032"><a xlink:title=" ">
<path fill="none" stroke="#63b8ff" d="M2111.34,-296.99C2143.92,-286.86 2198.51,-269.87 2234.89,-258.55"/>
<polygon fill="#63b8ff" stroke="#63b8ff" points="2236.12,-261.83 2244.63,-255.52 2234.04,-255.15 2236.12,-261.83"/>
</a>
</g>
</g>
<!-- Node4 -->
<g id="Node000004" class="node">
<title>Node4</title>
<g id="a_Node000004"><a xlink:title=" ">
<polygon fill="#e0e0e0" stroke="#999999" points="977,-74 933,-74 933,-55 977,-55 977,-74"/>
<text text-anchor="middle" x="955" y="-62" font-family="Helvetica,sans-Serif" font-size="10.00">string</text>
</a>
</g>
</g>
<!-- Node3&#45;&gt;Node4 -->
<g id="edge3_Node000003_Node000004" class="edge">
<title>Node3&#45;&gt;Node4</title>
<g id="a_edge3_Node000003_Node000004"><a xlink:title=" ">
<path fill="none" stroke="#63b8ff" d="M1185.93,-241.61C1303.68,-235.57 1526.32,-221.06 1601,-195 1657.04,-175.44 1744.71,-153.2 1704,-110 1703.22,-109.17 1132.02,-75.82 987.78,-67.41"/>
<polygon fill="#63b8ff" stroke="#63b8ff" points="987.58,-63.89 977.39,-66.8 987.17,-70.88 987.58,-63.89"/>
</a>
</g>
</g>
<!-- Node5 -->
<g id="Node000005" class="node">
<title>Node5</title>
<g id="a_Node000005"><a xlink:title=" ">
<polygon fill="#e0e0e0" stroke="#999999" points="1406.5,-129 1313.5,-129 1313.5,-110 1406.5,-110 1406.5,-129"/>
<text text-anchor="middle" x="1360" y="-117" font-family="Helvetica,sans-Serif" font-size="10.00">unordered_map</text>
</a>
</g>
</g>
<!-- Node3&#45;&gt;Node5 -->
<g id="edge4_Node000003_Node000005" class="edge">
<title>Node3&#45;&gt;Node5</title>
<g id="a_edge4_Node000003_Node000005"><a xlink:title=" ">
<path fill="none" stroke="#63b8ff" d="M1138.01,-236.45C1164.97,-227.51 1207.28,-212.37 1242,-195 1277.96,-177.01 1316.89,-151.03 1339.82,-134.99"/>
<polygon fill="#63b8ff" stroke="#63b8ff" points="1341.92,-137.79 1348.07,-129.16 1337.88,-132.07 1341.92,-137.79"/>
</a>
</g>
</g>
<!-- Node6 -->
<g id="Node000006" class="node">
<title>Node6</title>
<g id="a_Node000006"><a xlink:href="_field_desc_types_8_h.html" target="_top" xlink:title=" ">
<polygon fill="white" stroke="#666666" points="884,-74 708,-74 708,-55 884,-55 884,-74"/>
<text text-anchor="middle" x="796" y="-62" font-family="Helvetica,sans-Serif" font-size="10.00">amr&#45;wind/core/FieldDescTypes.H</text>
</a>
</g>
</g>
<!-- Node3&#45;&gt;Node6 -->
<g id="edge5_Node000003_Node000006" class="edge">
<title>Node3&#45;&gt;Node6</title>
<g id="a_edge5_Node000003_Node000006"><a xlink:title=" ">
<path fill="none" stroke="#63b8ff" d="M1079.26,-236.44C1050.35,-227.99 1006.96,-213.64 972,-195 908.97,-161.39 843.44,-107.16 813.19,-80.83"/>
<polygon fill="#63b8ff" stroke="#63b8ff" points="815.45,-78.15 805.63,-74.18 810.83,-83.41 815.45,-78.15"/>
</a>
</g>
</g>
<!-- Node8 -->
<g id="Node000008" class="node">
<title>Node8</title>
<g id="a_Node000008"><a xlink:href="_field_utils_8_h.html" target="_top" xlink:title=" ">
<polygon fill="white" stroke="#666666" points="146,-129 0,-129 0,-110 146,-110 146,-129"/>
<text text-anchor="middle" x="73" y="-117" font-family="Helvetica,sans-Serif" font-size="10.00">amr&#45;wind/core/FieldUtils.H</text>
</a>
</g>
</g>
<!-- Node3&#45;&gt;Node8 -->
<g id="edge7_Node000003_Node000008" class="edge">
<title>Node3&#45;&gt;Node8</title>
<g id="a_edge7_Node000003_Node000008"><a xlink:title=" ">
<path fill="none" stroke="#63b8ff" d="M1036.23,-243.83C826.11,-240.16 240.4,-227.15 160,-195 129.53,-182.82 102.2,-155.39 86.62,-137.43"/>
<polygon fill="#63b8ff" stroke="#63b8ff" points="89.06,-134.89 79.95,-129.48 83.69,-139.39 89.06,-134.89"/>
</a>
</g>
</g>
<!-- Node9 -->
<g id="Node000009" class="node">
<title>Node9</title>
<g id="a_Node000009"><a xlink:title=" ">
<polygon fill="#e0e0e0" stroke="#999999" points="266.5,-74 157.5,-74 157.5,-55 266.5,-55 266.5,-74"/>
<text text-anchor="middle" x="212" y="-62" font-family="Helvetica,sans-Serif" font-size="10.00">AMReX_MultiFab.H</text>
</a>
</g>
</g>
<!-- Node3&#45;&gt;Node9 -->
<g id="edge48_Node000003_Node000009" class="edge">
<title>Node3&#45;&gt;Node9</title>
<g id="a_edge48_Node000003_Node000009"><a xlink:title=" ">
<path fill="none" stroke="#63b8ff" d="M1036.38,-243.56C845.8,-239.45 351.32,-225.92 284,-195 246.87,-177.95 237.69,-165.83 220,-129 213.3,-115.06 211.52,-97.5 211.3,-84.38"/>
<polygon fill="#63b8ff" stroke="#63b8ff" points="214.8,-84.24 211.41,-74.2 207.8,-84.16 214.8,-84.24"/>
</a>
</g>
</g>
<!-- Node11 -->
<g id="Node000011" class="node">
<title>Node11</title>
<g id="a_Node000011"><a xlink:href="_field_8_h.html" target="_top" xlink:title=" ">
<polygon fill="white" stroke="#666666" points="1105,-189.5 981,-189.5 981,-170.5 1105,-170.5 1105,-189.5"/>
<text text-anchor="middle" x="1043" y="-177.5" font-family="Helvetica,sans-Serif" font-size="10.00">amr&#45;wind/core/Field.H</text>
</a>
</g>
</g>
<!-- Node3&#45;&gt;Node11 -->
<g id="edge11_Node000003_Node000011" class="edge">
<title>Node3&#45;&gt;Node11</title>
<g id="a_edge11_Node000003_Node000011"><a xlink:title=" ">
<path fill="none" stroke="#63b8ff" d="M1101.83,-236.37C1091.14,-226.31 1073.26,-209.48 1060.01,-197.01"/>
<polygon fill="#63b8ff" stroke="#63b8ff" points="1062.14,-194.21 1052.46,-189.91 1057.35,-199.31 1062.14,-194.21"/>
</a>
</g>
</g>
<!-- Node19 -->
<g id="Node000019" class="node">
<title>Node19</title>
<g id="a_Node000019"><a xlink:href="_int_field_8_h.html" target="_top" xlink:title=" ">
<polygon fill="white" stroke="#666666" points="1592.5,-189.5 1455.5,-189.5 1455.5,-170.5 1592.5,-170.5 1592.5,-189.5"/>
<text text-anchor="middle" x="1524" y="-177.5" font-family="Helvetica,sans-Serif" font-size="10.00">amr&#45;wind/core/IntField.H</text>
</a>
</g>
</g>
<!-- Node3&#45;&gt;Node19 -->
<g id="edge27_Node000003_Node000019" class="edge">
<title>Node3&#45;&gt;Node19</title>
<g id="a_edge27_Node000003_Node000019"><a xlink:title=" ">
<path fill="none" stroke="#63b8ff" d="M1166.27,-236.44C1242.15,-224.68 1378.35,-203.57 1459.02,-191.07"/>
<polygon fill="#63b8ff" stroke="#63b8ff" points="1459.71,-194.5 1469.06,-189.51 1458.64,-187.59 1459.71,-194.5"/>
</a>
</g>
</g>
<!-- Node20 -->
<g id="Node000020" class="node">
<title>Node20</title>
<g id="a_Node000020"><a xlink:title=" ">
<polygon fill="#e0e0e0" stroke="#999999" points="1537,-129 1425,-129 1425,-110 1537,-110 1537,-129"/>
<text text-anchor="middle" x="1481" y="-117" font-family="Helvetica,sans-Serif" font-size="10.00">AMReX_iMultiFab.H</text>
</a>
</g>
</g>
<!-- Node3&#45;&gt;Node20 -->
<g id="edge49_Node000003_Node000020" class="edge">
<title>Node3&#45;&gt;Node20</title>
<g id="a_edge49_Node000003_Node000020"><a xlink:title=" ">
<path fill="none" stroke="#63b8ff" d="M1142.54,-236.44C1176.82,-226.97 1233.13,-210.93 1281,-195 1341.48,-174.87 1410.99,-148.15 1450.08,-132.79"/>
<polygon fill="#63b8ff" stroke="#63b8ff" points="1451.55,-135.97 1459.57,-129.05 1448.99,-129.46 1451.55,-135.97"/>
</a>
</g>
</g>
<!-- Node21 -->
<g id="Node000021" class="node">
<title>Node21</title>
<g id="a_Node000021"><a xlink:href="_scratch_field_8_h.html" target="_top" xlink:title=" ">
<polygon fill="white" stroke="#666666" points="453,-189.5 293,-189.5 293,-170.5 453,-170.5 453,-189.5"/>
<text text-anchor="middle" x="373" y="-177.5" font-family="Helvetica,sans-Serif" font-size="10.00">amr&#45;wind/core/ScratchField.H</text>
</a>
</g>
</g>
<!-- Node3&#45;&gt;Node21 -->
<g id="edge31_Node000003_Node000021" class="edge">
<title>Node3&#45;&gt;Node21</title>
<g id="a_edge31_Node000003_Node000021"><a xlink:title=" ">
<path fill="none" stroke="#63b8ff" d="M1036.18,-238.51C899.65,-226.67 610.67,-201.61 463.4,-188.84"/>
<polygon fill="#63b8ff" stroke="#63b8ff" points="463.31,-185.32 453.04,-187.94 462.7,-192.29 463.31,-185.32"/>
</a>
</g>
</g>
<!-- Node24 -->
<g id="Node000024" class="node">
<title>Node24</title>
<g id="a_Node000024"><a xlink:href="_int_scratch_field_8_h.html" target="_top" xlink:title=" ">
<polygon fill="white" stroke="#666666" points="788.5,-195 649.5,-195 649.5,-165 788.5,-165 788.5,-195"/>
<text text-anchor="start" x="657.5" y="-183" font-family="Helvetica,sans-Serif" font-size="10.00">amr&#45;wind/core/IntScratch</text>
<text text-anchor="middle" x="719" y="-172" font-family="Helvetica,sans-Serif" font-size="10.00">Field.H</text>
</a>
</g>
</g>
<!-- Node3&#45;&gt;Node24 -->
<g id="edge39_Node000003_Node000024" class="edge">
<title>Node3&#45;&gt;Node24</title>
<g id="a_edge39_Node000003_Node000024"><a xlink:title=" ">
<path fill="none" stroke="#63b8ff" d="M1058.54,-236.44C991.95,-225.56 876.44,-206.7 798.87,-194.04"/>
<polygon fill="#63b8ff" stroke="#63b8ff" points="799.1,-190.53 788.66,-192.37 797.97,-197.44 799.1,-190.53"/>
</a>
</g>
</g>
<!-- Node25 -->
<g id="Node000025" class="node">
<title>Node25</title>
<g id="a_Node000025"><a xlink:title=" ">
<polygon fill="#e0e0e0" stroke="#999999" points="1233,-189.5 1123,-189.5 1123,-170.5 1233,-170.5 1233,-189.5"/>
<text text-anchor="middle" x="1178" y="-177.5" font-family="Helvetica,sans-Serif" font-size="10.00">AMReX_AmrCore.H</text>
</a>
</g>
</g>
<!-- Node3&#45;&gt;Node25 -->
<g id="edge47_Node000003_Node000025" class="edge">
<title>Node3&#45;&gt;Node25</title>
<g id="a_edge47_Node000003_Node000025"><a xlink:title=" ">
<path fill="none" stroke="#63b8ff" d="M1120.04,-236.37C1130.57,-226.31 1148.19,-209.48 1161.24,-197.01"/>
<polygon fill="#63b8ff" stroke="#63b8ff" points="1163.86,-199.34 1168.68,-189.91 1159.03,-194.28 1163.86,-199.34"/>
</a>
</g>
</g>
<!-- Node7 -->
<g id="Node000007" class="node">
<title>Node7</title>
<g id="a_Node000007"><a xlink:title=" ">
<polygon fill="#e0e0e0" stroke="#999999" points="1014,-19 964,-19 964,0 1014,0 1014,-19"/>
<text text-anchor="middle" x="989" y="-7" font-family="Helvetica,sans-Serif" font-size="10.00">cstdint</text>
</a>
</g>
</g>
<!-- Node6&#45;&gt;Node7 -->
<g id="edge6_Node000006_Node000007" class="edge">
<title>Node6&#45;&gt;Node7</title>
<g id="a_edge6_Node000006_Node000007"><a xlink:title=" ">
<path fill="none" stroke="#63b8ff" d="M827.01,-54.98C861.78,-45.44 918.03,-29.99 954.26,-20.04"/>
<polygon fill="#63b8ff" stroke="#63b8ff" points="955.19,-23.41 963.91,-17.39 953.34,-16.66 955.19,-23.41"/>
</a>
</g>
</g>
<!-- Node8&#45;&gt;Node6 -->
<g id="edge8_Node000008_Node000006" class="edge">
<title>Node8&#45;&gt;Node6</title>
<g id="a_edge8_Node000008_Node000006"><a xlink:title=" ">
<path fill="none" stroke="#63b8ff" d="M146.3,-113.13C277.07,-103.54 550.62,-83.49 697.59,-72.71"/>
<polygon fill="#63b8ff" stroke="#63b8ff" points="698.24,-76.18 707.95,-71.95 697.72,-69.19 698.24,-76.18"/>
</a>
</g>
</g>
<!-- Node8&#45;&gt;Node9 -->
<g id="edge9_Node000008_Node000009" class="edge">
<title>Node8&#45;&gt;Node9</title>
<g id="a_edge9_Node000008_Node000009"><a xlink:title=" ">
<path fill="none" stroke="#63b8ff" d="M95.33,-109.98C118.2,-101.27 153.96,-87.63 179.86,-77.75"/>
<polygon fill="#63b8ff" stroke="#63b8ff" points="181.16,-81 189.26,-74.17 178.67,-74.46 181.16,-81"/>
</a>
</g>
</g>
<!-- Node10 -->
<g id="Node000010" class="node">
<title>Node10</title>
<g id="a_Node000010"><a xlink:title=" ">
<polygon fill="#e0e0e0" stroke="#999999" points="135,-74 11,-74 11,-55 135,-55 135,-74"/>
<text text-anchor="middle" x="73" y="-62" font-family="Helvetica,sans-Serif" font-size="10.00">AMReX_Interpolater.H</text>
</a>
</g>
</g>
<!-- Node8&#45;&gt;Node10 -->
<g id="edge10_Node000008_Node000010" class="edge">
<title>Node8&#45;&gt;Node10</title>
<g id="a_edge10_Node000008_Node000010"><a xlink:title=" ">
<path fill="none" stroke="#63b8ff" d="M73,-109.75C73,-102.8 73,-92.85 73,-84.13"/>
<polygon fill="#63b8ff" stroke="#63b8ff" points="76.5,-84.09 73,-74.09 69.5,-84.09 76.5,-84.09"/>
</a>
</g>
</g>
<!-- Node11&#45;&gt;Node4 -->
<g id="edge12_Node000011_Node000004" class="edge">
<title>Node11&#45;&gt;Node4</title>
<g id="a_edge12_Node000011_Node000004"><a xlink:title=" ">
<path fill="none" stroke="#63b8ff" d="M1031.89,-170.28C1020.44,-160.92 1002.55,-145.2 990,-129 979.05,-114.87 969.48,-96.87 963.12,-83.65"/>
<polygon fill="#63b8ff" stroke="#63b8ff" points="966.14,-81.83 958.75,-74.23 959.79,-84.77 966.14,-81.83"/>
</a>
</g>
</g>
<!-- Node11&#45;&gt;Node5 -->
<g id="edge14_Node000011_Node000005" class="edge">
<title>Node11&#45;&gt;Node5</title>
<g id="a_edge14_Node000011_Node000005"><a xlink:title=" ">
<path fill="none" stroke="#63b8ff" d="M1085.78,-170.45C1095.08,-168.63 1104.86,-166.73 1114,-165 1178.83,-152.74 1253.42,-139.35 1303.31,-130.49"/>
<polygon fill="#63b8ff" stroke="#63b8ff" points="1304.02,-133.92 1313.26,-128.73 1302.8,-127.03 1304.02,-133.92"/>
</a>
</g>
</g>
<!-- Node11&#45;&gt;Node6 -->
<g id="edge21_Node000011_Node000006" class="edge">
<title>Node11&#45;&gt;Node6</title>
<g id="a_edge21_Node000011_Node000006"><a xlink:title=" ">
<path fill="none" stroke="#63b8ff" d="M1024.43,-170.47C981.43,-150.71 874.79,-101.71 823.89,-78.32"/>
<polygon fill="#63b8ff" stroke="#63b8ff" points="825.33,-75.13 814.78,-74.13 822.41,-81.49 825.33,-75.13"/>
</a>
</g>
</g>
<!-- Node11&#45;&gt;Node9 -->
<g id="edge16_Node000011_Node000009" class="edge">
<title>Node11&#45;&gt;Node9</title>
<g id="a_edge16_Node000011_Node000009"><a xlink:title=" ">
<path fill="none" stroke="#63b8ff" d="M1014.59,-170.42C964.22,-155.56 855.72,-125.2 762,-110 588.07,-81.8 380.15,-71.15 276.87,-67.39"/>
<polygon fill="#63b8ff" stroke="#63b8ff" points="276.72,-63.88 266.6,-67.03 276.47,-70.88 276.72,-63.88"/>
</a>
</g>
</g>
<!-- Node12 -->
<g id="Node000012" class="node">
<title>Node12</title>
<g id="a_Node000012"><a xlink:title=" ">
<polygon fill="#e0e0e0" stroke="#999999" points="1257,-129 1199,-129 1199,-110 1257,-110 1257,-129"/>
<text text-anchor="middle" x="1228" y="-117" font-family="Helvetica,sans-Serif" font-size="10.00">memory</text>
</a>
</g>
</g>
<!-- Node11&#45;&gt;Node12 -->
<g id="edge13_Node000011_Node000012" class="edge">
<title>Node11&#45;&gt;Node12</title>
<g id="a_edge13_Node000011_Node000012"><a xlink:title=" ">
<path fill="none" stroke="#63b8ff" d="M1069.9,-170.49C1101.96,-160.36 1155.68,-143.37 1191.48,-132.05"/>
<polygon fill="#63b8ff" stroke="#63b8ff" points="1192.59,-135.37 1201.07,-129.02 1190.48,-128.69 1192.59,-135.37"/>
</a>
</g>
</g>
<!-- Node13 -->
<g id="Node000013" class="node">
<title>Node13</title>
<g id="a_Node000013"><a xlink:title=" ">
<polygon fill="#e0e0e0" stroke="#999999" points="1063,-129 999,-129 999,-110 1063,-110 1063,-129"/>
<text text-anchor="middle" x="1031" y="-117" font-family="Helvetica,sans-Serif" font-size="10.00">algorithm</text>
</a>
</g>
</g>
<!-- Node11&#45;&gt;Node13 -->
<g id="edge15_Node000011_Node000013" class="edge">
<title>Node11&#45;&gt;Node13</title>
<g id="a_edge15_Node000011_Node000013"><a xlink:title=" ">
<path fill="none" stroke="#63b8ff" d="M1041.23,-170.37C1039.55,-162.16 1036.96,-149.54 1034.81,-139.05"/>
<polygon fill="#63b8ff" stroke="#63b8ff" points="1038.22,-138.26 1032.78,-129.17 1031.36,-139.67 1038.22,-138.26"/>
</a>
</g>
</g>
<!-- Node14 -->
<g id="Node000014" class="node">
<title>Node14</title>
<g id="a_Node000014"><a xlink:title=" ">
<polygon fill="#e0e0e0" stroke="#999999" points="1180.5,-129 1081.5,-129 1081.5,-110 1180.5,-110 1180.5,-129"/>
<text text-anchor="middle" x="1131" y="-117" font-family="Helvetica,sans-Serif" font-size="10.00">AMReX_BCRec.H</text>
</a>
</g>
</g>
<!-- Node11&#45;&gt;Node14 -->
<g id="edge17_Node000011_Node000014" class="edge">
<title>Node11&#45;&gt;Node14</title>
<g id="a_edge17_Node000011_Node000014"><a xlink:title=" ">
<path fill="none" stroke="#63b8ff" d="M1055.98,-170.37C1070.02,-161.04 1092.63,-146.01 1109.36,-134.88"/>
<polygon fill="#63b8ff" stroke="#63b8ff" points="1111.57,-137.62 1117.96,-129.17 1107.7,-131.79 1111.57,-137.62"/>
</a>
</g>
</g>
<!-- Node15 -->
<g id="Node000015" class="node">
<title>Node15</title>
<g id="a_Node000015"><a xlink:title=" ">
<polygon fill="#e0e0e0" stroke="#999999" points="1642.5,-129 1555.5,-129 1555.5,-110 1642.5,-110 1642.5,-129"/>
<text text-anchor="middle" x="1599" y="-117" font-family="Helvetica,sans-Serif" font-size="10.00">AMReX_Gpu.H</text>
</a>
</g>
</g>
<!-- Node11&#45;&gt;Node15 -->
<g id="edge18_Node000011_Node000015" class="edge">
<title>Node11&#45;&gt;Node15</title>
<g id="a_edge18_Node000011_Node000015"><a xlink:title=" ">
<path fill="none" stroke="#63b8ff" d="M1082.3,-170.44C1092.58,-168.42 1103.67,-166.44 1114,-165 1301.55,-138.78 1353,-151.81 1545.21,-128.99"/>
<polygon fill="#63b8ff" stroke="#63b8ff" points="1545.85,-132.44 1555.36,-127.77 1545.02,-125.49 1545.85,-132.44"/>
</a>
</g>
</g>
<!-- Node16 -->
<g id="Node000016" class="node">
<title>Node16</title>
<g id="a_Node000016"><a xlink:href="incflo__enums_8_h.html" target="_top" xlink:title=" ">
<polygon fill="white" stroke="#666666" points="1253.5,-74 1112.5,-74 1112.5,-55 1253.5,-55 1253.5,-74"/>
<text text-anchor="middle" x="1183" y="-62" font-family="Helvetica,sans-Serif" font-size="10.00">amr&#45;wind/incflo_enums.H</text>
</a>
</g>
</g>
<!-- Node11&#45;&gt;Node16 -->
<g id="edge19_Node000011_Node000016" class="edge">
<title>Node11&#45;&gt;Node16</title>
<g id="a_edge19_Node000011_Node000016"><a xlink:title=" ">
<path fill="none" stroke="#63b8ff" d="M1084.03,-170.48C1147.64,-157.16 1263.13,-132.59 1266,-129 1283.32,-107.37 1250.43,-88.94 1221.07,-77.6"/>
<polygon fill="#63b8ff" stroke="#63b8ff" points="1221.93,-74.19 1211.33,-74.03 1219.52,-80.76 1221.93,-74.19"/>
</a>
</g>
</g>
<!-- Node17 -->
<g id="Node000017" class="node">
<title>Node17</title>
<g id="a_Node000017"><a xlink:href="_view_field_8_h.html" target="_top" xlink:title=" ">
<polygon fill="white" stroke="#666666" points="753,-129 605,-129 605,-110 753,-110 753,-129"/>
<text text-anchor="middle" x="679" y="-117" font-family="Helvetica,sans-Serif" font-size="10.00">amr&#45;wind/core/ViewField.H</text>
</a>
</g>
</g>
<!-- Node11&#45;&gt;Node17 -->
<g id="edge22_Node000011_Node000017" class="edge">
<title>Node11&#45;&gt;Node17</title>
<g id="a_edge22_Node000011_Node000017"><a xlink:title=" ">
<path fill="none" stroke="#63b8ff" d="M990.07,-170.49C924.29,-159.92 812.18,-141.9 742.03,-130.63"/>
<polygon fill="#63b8ff" stroke="#63b8ff" points="742.42,-127.15 731.99,-129.02 741.31,-134.06 742.42,-127.15"/>
</a>
</g>
</g>
<!-- Node16&#45;&gt;Node7 -->
<g id="edge20_Node000016_Node000007" class="edge">
<title>Node16&#45;&gt;Node7</title>
<g id="a_edge20_Node000016_Node000007"><a xlink:title=" ">
<path fill="none" stroke="#63b8ff" d="M1151.83,-54.98C1116.88,-45.44 1060.34,-29.99 1023.92,-20.04"/>
<polygon fill="#63b8ff" stroke="#63b8ff" points="1024.79,-16.65 1014.22,-17.39 1022.94,-23.4 1024.79,-16.65"/>
</a>
</g>
</g>
<!-- Node17&#45;&gt;Node4 -->
<g id="edge23_Node000017_Node000004" class="edge">
<title>Node17&#45;&gt;Node4</title>
<g id="a_edge23_Node000017_Node000004"><a xlink:title=" ">
<path fill="none" stroke="#63b8ff" d="M723.34,-109.98C779.14,-99.27 873.6,-81.13 922.89,-71.67"/>
<polygon fill="#63b8ff" stroke="#63b8ff" points="923.82,-75.05 932.98,-69.73 922.5,-68.18 923.82,-75.05"/>
</a>
</g>
</g>
<!-- Node17&#45;&gt;Node6 -->
<g id="edge24_Node000017_Node000006" class="edge">
<title>Node17&#45;&gt;Node6</title>
<g id="a_edge24_Node000017_Node000006"><a xlink:title=" ">
<path fill="none" stroke="#63b8ff" d="M697.8,-109.98C716.62,-101.46 745.82,-88.23 767.5,-78.41"/>
<polygon fill="#63b8ff" stroke="#63b8ff" points="769.2,-81.48 776.86,-74.17 766.31,-75.11 769.2,-81.48"/>
</a>
</g>
</g>
<!-- Node17&#45;&gt;Node9 -->
<g id="edge25_Node000017_Node000009" class="edge">
<title>Node17&#45;&gt;Node9</title>
<g id="a_edge25_Node000017_Node000009"><a xlink:title=" ">
<path fill="none" stroke="#63b8ff" d="M604.74,-110.07C514.23,-99.8 362.75,-82.61 276.77,-72.85"/>
<polygon fill="#63b8ff" stroke="#63b8ff" points="276.95,-69.35 266.62,-71.7 276.16,-76.3 276.95,-69.35"/>
</a>
</g>
</g>
<!-- Node18 -->
<g id="Node000018" class="node">
<title>Node18</title>
<g id="a_Node000018"><a xlink:title=" ">
<polygon fill="#e0e0e0" stroke="#999999" points="626,-74 528,-74 528,-55 626,-55 626,-74"/>
<text text-anchor="middle" x="577" y="-62" font-family="Helvetica,sans-Serif" font-size="10.00">AMReX_Vector.H</text>
</a>
</g>
</g>
<!-- Node17&#45;&gt;Node18 -->
<g id="edge26_Node000017_Node000018" class="edge">
<title>Node17&#45;&gt;Node18</title>
<g id="a_edge26_Node000017_Node000018"><a xlink:title=" ">
<path fill="none" stroke="#63b8ff" d="M662.61,-109.98C646.43,-101.57 621.43,-88.59 602.62,-78.81"/>
<polygon fill="#63b8ff" stroke="#63b8ff" points="604.17,-75.68 593.69,-74.17 600.95,-81.89 604.17,-75.68"/>
</a>
</g>
</g>
<!-- Node19&#45;&gt;Node4 -->
<g id="edge28_Node000019_Node000004" class="edge">
<title>Node19&#45;&gt;Node4</title>
<g id="a_edge28_Node000019_Node000004"><a xlink:title=" ">
<path fill="none" stroke="#63b8ff" d="M1592.56,-171.58C1649.97,-162.79 1717.66,-144.72 1685,-110 1683.48,-108.39 1128.55,-75.69 987.37,-67.4"/>
<polygon fill="#63b8ff" stroke="#63b8ff" points="987.38,-63.89 977.19,-66.8 986.97,-70.88 987.38,-63.89"/>
</a>
</g>
</g>
<!-- Node19&#45;&gt;Node6 -->
<g id="edge29_Node000019_Node000006" class="edge">
<title>Node19&#45;&gt;Node6</title>
<g id="a_edge29_Node000019_Node000006"><a xlink:title=" ">
<path fill="none" stroke="#63b8ff" d="M1571.55,-170.41C1618.53,-159.99 1679.54,-139.99 1651,-110 1623.12,-80.71 964.37,-76.34 924,-74 914.33,-73.44 904.25,-72.82 894.18,-72.19"/>
<polygon fill="#63b8ff" stroke="#63b8ff" points="894.33,-68.69 884.12,-71.55 893.88,-75.68 894.33,-68.69"/>
</a>
</g>
</g>
<!-- Node19&#45;&gt;Node20 -->
<g id="edge30_Node000019_Node000020" class="edge">
<title>Node19&#45;&gt;Node20</title>
<g id="a_edge30_Node000019_Node000020"><a xlink:title=" ">
<path fill="none" stroke="#63b8ff" d="M1517.66,-170.37C1511.3,-161.73 1501.36,-148.2 1493.43,-137.42"/>
<polygon fill="#63b8ff" stroke="#63b8ff" points="1496.11,-135.15 1487.37,-129.17 1490.47,-139.3 1496.11,-135.15"/>
</a>
</g>
</g>
<!-- Node21&#45;&gt;Node4 -->
<g id="edge32_Node000021_Node000004" class="edge">
<title>Node21&#45;&gt;Node4</title>
<g id="a_edge32_Node000021_Node000004"><a xlink:title=" ">
<path fill="none" stroke="#63b8ff" d="M364.18,-170.28C350.79,-156.02 328.56,-127.55 345,-110 386.71,-65.46 832.29,-80.15 893,-74 902.76,-73.01 913.36,-71.66 922.98,-70.33"/>
<polygon fill="#63b8ff" stroke="#63b8ff" points="923.54,-73.78 932.95,-68.91 922.56,-66.85 923.54,-73.78"/>
</a>
</g>
</g>
<!-- Node21&#45;&gt;Node6 -->
<g id="edge34_Node000021_Node000006" class="edge">
<title>Node21&#45;&gt;Node6</title>
<g id="a_edge34_Node000021_Node000006"><a xlink:title=" ">
<path fill="none" stroke="#63b8ff" d="M355.74,-170.43C331.49,-157.3 292.39,-131.5 312,-110 324.83,-95.94 560.14,-79.58 697.85,-71.16"/>
<polygon fill="#63b8ff" stroke="#63b8ff" points="698.23,-74.64 708,-70.54 697.8,-67.66 698.23,-74.64"/>
</a>
</g>
</g>
<!-- Node21&#45;&gt;Node9 -->
<g id="edge36_Node000021_Node000009" class="edge">
<title>Node21&#45;&gt;Node9</title>
<g id="a_edge36_Node000021_Node000009"><a xlink:title=" ">
<path fill="none" stroke="#63b8ff" d="M319.1,-170.43C291.17,-163.49 258.33,-151.07 236,-129 223.83,-116.97 217.75,-98.16 214.76,-84.13"/>
<polygon fill="#63b8ff" stroke="#63b8ff" points="218.17,-83.35 212.97,-74.13 211.28,-84.59 218.17,-83.35"/>
</a>
</g>
</g>
<!-- Node21&#45;&gt;Node17 -->
<g id="edge35_Node000021_Node000017" class="edge">
<title>Node21&#45;&gt;Node17</title>
<g id="a_edge35_Node000021_Node000017"><a xlink:title=" ">
<path fill="none" stroke="#63b8ff" d="M417.5,-170.49C472.34,-160.01 565.5,-142.2 624.56,-130.91"/>
<polygon fill="#63b8ff" stroke="#63b8ff" points="625.29,-134.33 634.45,-129.02 623.97,-127.46 625.29,-134.33"/>
</a>
</g>
</g>
<!-- Node21&#45;&gt;Node18 -->
<g id="edge37_Node000021_Node000018" class="edge">
<title>Node21&#45;&gt;Node18</title>
<g id="a_edge37_Node000021_Node000018"><a xlink:title=" ">
<path fill="none" stroke="#63b8ff" d="M340.73,-170.49C303.54,-159.17 250.38,-137.35 274,-110 304.81,-74.33 438.27,-66.73 517.42,-65.42"/>
<polygon fill="#63b8ff" stroke="#63b8ff" points="517.79,-68.91 527.74,-65.28 517.69,-61.91 517.79,-68.91"/>
</a>
</g>
</g>
<!-- Node22 -->
<g id="Node000022" class="node">
<title>Node22</title>
<g id="a_Node000022"><a xlink:title=" ">
<polygon fill="#e0e0e0" stroke="#999999" points="548.5,-129 503.5,-129 503.5,-110 548.5,-110 548.5,-129"/>
<text text-anchor="middle" x="526" y="-117" font-family="Helvetica,sans-Serif" font-size="10.00">utility</text>
</a>
</g>
</g>
<!-- Node21&#45;&gt;Node22 -->
<g id="edge33_Node000021_Node000022" class="edge">
<title>Node21&#45;&gt;Node22</title>
<g id="a_edge33_Node000021_Node000022"><a xlink:title=" ">
<path fill="none" stroke="#63b8ff" d="M395.25,-170.49C421.31,-160.53 464.68,-143.95 494.27,-132.63"/>
<polygon fill="#63b8ff" stroke="#63b8ff" points="495.64,-135.86 503.73,-129.02 493.14,-129.32 495.64,-135.86"/>
</a>
</g>
</g>
<!-- Node23 -->
<g id="Node000023" class="node">
<title>Node23</title>
<g id="a_Node000023"><a xlink:title=" ">
<polygon fill="#e0e0e0" stroke="#999999" points="485.5,-129 354.5,-129 354.5,-110 485.5,-110 485.5,-129"/>
<text text-anchor="middle" x="420" y="-117" font-family="Helvetica,sans-Serif" font-size="10.00">AMReX_PhysBCFunct.H</text>
</a>
</g>
</g>
<!-- Node21&#45;&gt;Node23 -->
<g id="edge38_Node000021_Node000023" class="edge">
<title>Node21&#45;&gt;Node23</title>
<g id="a_edge38_Node000021_Node000023"><a xlink:title=" ">
<path fill="none" stroke="#63b8ff" d="M379.94,-170.37C386.95,-161.64 397.96,-147.93 406.67,-137.09"/>
<polygon fill="#63b8ff" stroke="#63b8ff" points="409.5,-139.16 413.04,-129.17 404.04,-134.77 409.5,-139.16"/>
</a>
</g>
</g>
<!-- Node24&#45;&gt;Node4 -->
<g id="edge40_Node000024_Node000004" class="edge">
<title>Node24&#45;&gt;Node4</title>
<g id="a_edge40_Node000024_Node000004"><a xlink:title=" ">
<path fill="none" stroke="#63b8ff" d="M748.41,-164.85C794.57,-142.65 883.36,-99.95 927.99,-78.49"/>
<polygon fill="#63b8ff" stroke="#63b8ff" points="929.57,-81.61 937.07,-74.12 926.54,-75.3 929.57,-81.61"/>
</a>
</g>
</g>
<!-- Node24&#45;&gt;Node6 -->
<g id="edge42_Node000024_Node000006" class="edge">
<title>Node24&#45;&gt;Node6</title>
<g id="a_edge42_Node000024_Node000006"><a xlink:title=" ">
<path fill="none" stroke="#63b8ff" d="M732.68,-164.81C741.61,-155.15 753.2,-141.84 762,-129 772.04,-114.35 781.41,-96.41 787.76,-83.34"/>
<polygon fill="#63b8ff" stroke="#63b8ff" points="791.03,-84.59 792.15,-74.06 784.71,-81.6 791.03,-84.59"/>
</a>
</g>
</g>
<!-- Node24&#45;&gt;Node17 -->
<g id="edge43_Node000024_Node000017" class="edge">
<title>Node24&#45;&gt;Node17</title>
<g id="a_edge43_Node000024_Node000017"><a xlink:title=" ">
<path fill="none" stroke="#63b8ff" d="M709.32,-164.84C703.75,-156.69 696.71,-146.4 690.82,-137.78"/>
<polygon fill="#63b8ff" stroke="#63b8ff" points="693.53,-135.55 684.99,-129.27 687.75,-139.5 693.53,-135.55"/>
</a>
</g>
</g>
<!-- Node24&#45;&gt;Node18 -->
<g id="edge45_Node000024_Node000018" class="edge">
<title>Node24&#45;&gt;Node18</title>
<g id="a_edge45_Node000024_Node000018"><a xlink:title=" ">
<path fill="none" stroke="#63b8ff" d="M654.91,-164.93C633.66,-157.42 611.5,-146.06 596,-129 584.87,-116.76 580.25,-98.24 578.34,-84.36"/>
<polygon fill="#63b8ff" stroke="#63b8ff" points="581.78,-83.62 577.28,-74.03 574.82,-84.33 581.78,-83.62"/>
</a>
</g>
</g>
<!-- Node24&#45;&gt;Node20 -->
<g id="edge44_Node000024_Node000020" class="edge">
<title>Node24&#45;&gt;Node20</title>
<g id="a_edge44_Node000024_Node000020"><a xlink:title=" ">
<path fill="none" stroke="#63b8ff" d="M788.76,-175.29C912.46,-168.43 1178.6,-152.39 1414.7,-128.96"/>
<polygon fill="#63b8ff" stroke="#63b8ff" points="1415.25,-132.43 1424.86,-127.95 1414.56,-125.46 1415.25,-132.43"/>
</a>
</g>
</g>
<!-- Node24&#45;&gt;Node22 -->
<g id="edge41_Node000024_Node000022" class="edge">
<title>Node24&#45;&gt;Node22</title>
<g id="a_edge41_Node000024_Node000022"><a xlink:title=" ">
<path fill="none" stroke="#63b8ff" d="M672.77,-164.99C637.5,-154.3 589.81,-139.84 558.49,-130.35"/>
<polygon fill="#63b8ff" stroke="#63b8ff" points="559.13,-126.88 548.54,-127.33 557.1,-133.58 559.13,-126.88"/>
</a>
</g>
</g>
<!-- Node24&#45;&gt;Node23 -->
<g id="edge46_Node000024_Node000023" class="edge">
<title>Node24&#45;&gt;Node23</title>
<g id="a_edge46_Node000024_Node000023"><a xlink:title=" ">
<path fill="none" stroke="#63b8ff" d="M649.28,-165.36C595.79,-154.89 523.04,-140.66 473.95,-131.05"/>
<polygon fill="#63b8ff" stroke="#63b8ff" points="474.33,-127.56 463.84,-129.08 472.99,-134.43 474.33,-127.56"/>
</a>
</g>
</g>
<!-- Node27 -->
<g id="Node000027" class="node">
<title>Node27</title>
<g id="a_Node000027"><a xlink:title=" ">
<polygon fill="#e0e0e0" stroke="#999999" points="2245,-189.5 2153,-189.5 2153,-170.5 2245,-170.5 2245,-189.5"/>
<text text-anchor="middle" x="2199" y="-177.5" font-family="Helvetica,sans-Serif" font-size="10.00">AMReX_REAL.H</text>
</a>
</g>
</g>
<!-- Node26&#45;&gt;Node27 -->
<g id="edge51_Node000026_Node000027" class="edge">
<title>Node26&#45;&gt;Node27</title>
<g id="a_edge51_Node000026_Node000027"><a xlink:title=" ">
<path fill="none" stroke="#63b8ff" d="M2039.82,-236.37C2072,-225.17 2128.32,-205.58 2164.62,-192.96"/>
<polygon fill="#63b8ff" stroke="#63b8ff" points="2165.99,-196.19 2174.28,-189.6 2163.69,-189.58 2165.99,-196.19"/>
</a>
</g>
</g>
<!-- Node28 -->
<g id="Node000028" class="node">
<title>Node28</title>
<g id="a_Node000028"><a xlink:title=" ">
<polygon fill="#e0e0e0" stroke="#999999" points="2135,-189.5 2049,-189.5 2049,-170.5 2135,-170.5 2135,-189.5"/>
<text text-anchor="middle" x="2092" y="-177.5" font-family="Helvetica,sans-Serif" font-size="10.00">AMReX_Box.H</text>
</a>
</g>
</g>
<!-- Node26&#45;&gt;Node28 -->
<g id="edge52_Node000026_Node000028" class="edge">
<title>Node26&#45;&gt;Node28</title>
<g id="a_edge52_Node000026_Node000028"><a xlink:title=" ">
<path fill="none" stroke="#63b8ff" d="M2025.38,-236.37C2037.72,-226.12 2058.51,-208.84 2073.59,-196.31"/>
<polygon fill="#63b8ff" stroke="#63b8ff" points="2075.83,-198.99 2081.29,-189.91 2071.36,-193.61 2075.83,-198.99"/>
</a>
</g>
</g>
<!-- Node29 -->
<g id="Node000029" class="node">
<title>Node29</title>
<g id="a_Node000029"><a xlink:title=" ">
<polygon fill="#e0e0e0" stroke="#999999" points="2031,-189.5 1909,-189.5 1909,-170.5 2031,-170.5 2031,-189.5"/>
<text text-anchor="middle" x="1970" y="-177.5" font-family="Helvetica,sans-Serif" font-size="10.00">AMReX_Orientation.H</text>
</a>
</g>
</g>
<!-- Node26&#45;&gt;Node29 -->
<g id="edge53_Node000026_Node000029" class="edge">
<title>Node26&#45;&gt;Node29</title>
<g id="a_edge53_Node000026_Node000029"><a xlink:title=" ">
<path fill="none" stroke="#63b8ff" d="M2008.93,-236.37C2002.13,-226.69 1990.91,-210.74 1982.26,-198.44"/>
<polygon fill="#63b8ff" stroke="#63b8ff" points="1984.88,-196.07 1976.26,-189.91 1979.15,-200.1 1984.88,-196.07"/>
</a>
</g>
</g>
<!-- Node26&#45;&gt;Node30 -->
<g id="edge54_Node000026_Node000030" class="edge">
<title>Node26&#45;&gt;Node30</title>
<g id="a_edge54_Node000026_Node000030"><a xlink:title=" ">
<path fill="none" stroke="#63b8ff" d="M1990.45,-236.37C1958.62,-225.17 1902.91,-205.58 1867.01,-192.96"/>
<polygon fill="#63b8ff" stroke="#63b8ff" points="1868.04,-189.61 1857.45,-189.6 1865.72,-196.22 1868.04,-189.61"/>
</a>
</g>
</g>
<!-- Node31&#45;&gt;Node15 -->
<g id="edge57_Node000031_Node000015" class="edge">
<title>Node31&#45;&gt;Node15</title>
<g id="a_edge57_Node000031_Node000015"><a xlink:title=" ">
<path fill="none" stroke="#63b8ff" d="M2194.56,-231C2232.3,-216.17 2278.59,-191.31 2254,-165 2213.34,-121.49 1802.56,-119.36 1653.05,-120.05"/>
<polygon fill="#63b8ff" stroke="#63b8ff" points="1652.73,-116.55 1642.74,-120.1 1652.76,-123.55 1652.73,-116.55"/>
</a>
</g>
</g>
<!-- Node31&#45;&gt;Node27 -->
<g id="edge56_Node000031_Node000027" class="edge">
<title>Node31&#45;&gt;Node27</title>
<g id="a_edge56_Node000031_Node000027"><a xlink:title=" ">
<path fill="none" stroke="#63b8ff" d="M2163.21,-230.8C2170.17,-221.11 2179.42,-208.24 2186.77,-198.01"/>
<polygon fill="#63b8ff" stroke="#63b8ff" points="2189.65,-200.01 2192.64,-189.84 2183.96,-195.92 2189.65,-200.01"/>
</a>
</g>
</g>
</g>
</svg>
