<?xml version="1.0" encoding="UTF-8" standalone="no"?>
<!DOCTYPE svg PUBLIC "-//W3C//DTD SVG 1.1//EN"
 "http://www.w3.org/Graphics/SVG/1.1/DTD/svg11.dtd">
<!-- Generated by graphviz version 2.43.0 (0)
 -->
<!-- Title: /home/runner/work/amr&#45;wind/amr&#45;wind/amr&#45;wind/fvm/filter.H Pages: 1 -->
<!--zoomable 401 -->

<svg id="main" version="1.1" xmlns="http://www.w3.org/2000/svg" xmlns:xlink="http://www.w3.org/1999/xlink" xml:space="preserve" onload="init(evt)">

<style type="text/css"><![CDATA[
.node, .edge {opacity: 0.7;}
.node.selected, .edge.selected {opacity: 1;}
.edge:hover path { stroke: red; }
.edge:hover polygon { stroke: red; fill: red; }
]]></style>

<defs>
  <circle id="rim" cx="0" cy="0" r="7"/>
  <circle id="rim2" cx="0" cy="0" r="3.5"/>
  <g id="zoomPlus">
    <use xlink:href="#rim" fill="#404040"><set attributeName="fill" to="#808080" begin="zoomplus.mouseover" end="zoomplus.mouseout"/></use>
    <path d="M-4,0h8M0,-4v8" fill="none" stroke="white" stroke-width="1.5" pointer-events="none"/>
  </g>
  <g id="zoomMin">
    <use xlink:href="#rim" fill="#404040"><set attributeName="fill" to="#808080" begin="zoomminus.mouseover" end="zoomminus.mouseout"/></use>
    <path d="M-4,0h8" fill="none" stroke="white" stroke-width="1.5" pointer-events="none"/>
  </g>
  <g id="arrowUp" transform="translate(30 24)">
    <use xlink:href="#rim"/>
    <path pointer-events="none" fill="none" stroke="white" stroke-width="1.5" d="M0,-3.0v7 M-2.5,-0.5L0,-3.0L2.5,-0.5"/>
  </g>
  <g id="arrowRight" transform="rotate(90) translate(36 -43)">
    <use xlink:href="#rim"/>
    <path pointer-events="none" fill="none" stroke="white" stroke-width="1.5" d="M0,-3.0v7 M-2.5,-0.5L0,-3.0L2.5,-0.5"/>
  </g>
  <g id="arrowDown" transform="rotate(180) translate(-30 -48)">
    <use xlink:href="#rim"/>
    <path pointer-events="none" fill="none" stroke="white" stroke-width="1.5" d="M0,-3.0v7 M-2.5,-0.5L0,-3.0L2.5,-0.5"/>
  </g>
  <g id="arrowLeft" transform="rotate(270) translate(-36 17)">
    <use xlink:href="#rim"/>
    <path pointer-events="none" fill="none" stroke="white" stroke-width="1.5" d="M0,-3.0v7 M-2.5,-0.5L0,-3.0L2.5,-0.5"/>
  </g>
  <g id="resetDef">
    <use xlink:href="#rim2" fill="#404040"><set attributeName="fill" to="#808080" begin="reset.mouseover" end="reset.mouseout"/></use>
  </g>
</defs>
<script type="application/ecmascript">
var viewWidth = 1762;
var viewHeight = 401;
var sectionId = 'dynsection-0';
</script>
<script type="application/ecmascript" xlink:href="svg.min.js"/>
<svg id="graph" class="graph">
<g id="viewport">
<title>/home/runner/work/amr&#45;wind/amr&#45;wind/amr&#45;wind/fvm/filter.H</title>
<!-- Node1 -->
<g id="Node000001" class="node">
<title>Node1</title>
<g id="a_Node000001"><a xlink:title=" ">
<polygon fill="#999999" stroke="#666666" points="847,-393 704,-393 704,-352 847,-352 847,-393"/>
<text text-anchor="start" x="712" y="-381" font-family="Helvetica,sans-Serif" font-size="10.00">/home/runner/work/amr</text>
<text text-anchor="start" x="712" y="-370" font-family="Helvetica,sans-Serif" font-size="10.00">&#45;wind/amr&#45;wind/amr&#45;wind</text>
<text text-anchor="middle" x="775.5" y="-359" font-family="Helvetica,sans-Serif" font-size="10.00">/fvm/filter.H</text>
</a>
</g>
</g>
<!-- Node2 -->
<g id="Node000002" class="node">
<title>Node2</title>
<g id="a_Node000002"><a xlink:href="fvm__utils_8_h.html" target="_top" xlink:title=" ">
<polygon fill="white" stroke="#666666" points="707,-316 562,-316 562,-297 707,-297 707,-316"/>
<text text-anchor="middle" x="634.5" y="-304" font-family="Helvetica,sans-Serif" font-size="10.00">amr&#45;wind/fvm/fvm_utils.H</text>
</a>
</g>
</g>
<!-- Node1&#45;&gt;Node2 -->
<g id="edge1_Node000001_Node000002" class="edge">
<title>Node1&#45;&gt;Node2</title>
<g id="a_edge1_Node000001_Node000002"><a xlink:title=" ">
<path fill="none" stroke="#63b8ff" d="M732.43,-351.95C709.74,-341.65 682.56,-329.31 662.6,-320.25"/>
<polygon fill="#63b8ff" stroke="#63b8ff" points="663.98,-317.04 653.43,-316.09 661.09,-323.41 663.98,-317.04"/>
</a>
</g>
</g>
<!-- Node27 -->
<g id="Node000027" class="node">
<title>Node27</title>
<g id="a_Node000027"><a xlink:title=" ">
<polygon fill="#e0e0e0" stroke="#999999" points="144.5,-189.5 52.5,-189.5 52.5,-170.5 144.5,-170.5 144.5,-189.5"/>
<text text-anchor="middle" x="98.5" y="-177.5" font-family="Helvetica,sans-Serif" font-size="10.00">AMReX_REAL.H</text>
</a>
</g>
</g>
<!-- Node1&#45;&gt;Node27 -->
<g id="edge62_Node000001_Node000027" class="edge">
<title>Node1&#45;&gt;Node27</title>
<g id="a_edge62_Node000001_Node000027"><a xlink:title=" ">
<path fill="none" stroke="#63b8ff" d="M704,-362.95C601.15,-349.21 406.57,-317.82 249.5,-261 201.13,-243.5 149.01,-213 120.41,-195.15"/>
<polygon fill="#63b8ff" stroke="#63b8ff" points="121.97,-191.99 111.65,-189.61 118.23,-197.91 121.97,-191.99"/>
</a>
</g>
</g>
<!-- Node30 -->
<g id="Node000030" class="node">
<title>Node30</title>
<g id="a_Node000030"><a xlink:title=" ">
<polygon fill="#e0e0e0" stroke="#999999" points="778,-189.5 663,-189.5 663,-170.5 778,-170.5 778,-189.5"/>
<text text-anchor="middle" x="720.5" y="-177.5" font-family="Helvetica,sans-Serif" font-size="10.00">AMReX_Geometry.H</text>
</a>
</g>
</g>
<!-- Node1&#45;&gt;Node30 -->
<g id="edge60_Node000001_Node000030" class="edge">
<title>Node1&#45;&gt;Node30</title>
<g id="a_edge60_Node000001_Node000030"><a xlink:title=" ">
<path fill="none" stroke="#63b8ff" d="M795.08,-351.76C820.65,-323.5 859.27,-270.59 833.5,-231 821.02,-211.82 799.32,-199.95 778.25,-192.62"/>
<polygon fill="#63b8ff" stroke="#63b8ff" points="779.24,-189.26 768.65,-189.56 777.12,-195.93 779.24,-189.26"/>
</a>
</g>
</g>
<!-- Node32 -->
<g id="Node000032" class="node">
<title>Node32</title>
<g id="a_Node000032"><a xlink:title=" ">
<polygon fill="#e0e0e0" stroke="#999999" points="824.5,-255.5 726.5,-255.5 726.5,-236.5 824.5,-236.5 824.5,-255.5"/>
<text text-anchor="middle" x="775.5" y="-243.5" font-family="Helvetica,sans-Serif" font-size="10.00">AMReX_MFIter.H</text>
</a>
</g>
</g>
<!-- Node1&#45;&gt;Node32 -->
<g id="edge61_Node000001_Node000032" class="edge">
<title>Node1&#45;&gt;Node32</title>
<g id="a_edge61_Node000001_Node000032"><a xlink:title=" ">
<path fill="none" stroke="#63b8ff" d="M775.5,-351.77C775.5,-328.19 775.5,-289.02 775.5,-265.84"/>
<polygon fill="#63b8ff" stroke="#63b8ff" points="779,-265.61 775.5,-255.61 772,-265.61 779,-265.61"/>
</a>
</g>
</g>
<!-- Node33 -->
<g id="Node000033" class="node">
<title>Node33</title>
<g id="a_Node000033"><a xlink:title=" ">
<polygon fill="#e0e0e0" stroke="#999999" points="980.5,-316 880.5,-316 880.5,-297 980.5,-297 980.5,-316"/>
<text text-anchor="middle" x="930.5" y="-304" font-family="Helvetica,sans-Serif" font-size="10.00">AMReX_Array4.H</text>
</a>
</g>
</g>
<!-- Node1&#45;&gt;Node33 -->
<g id="edge59_Node000001_Node000033" class="edge">
<title>Node1&#45;&gt;Node33</title>
<g id="a_edge59_Node000001_Node000033"><a xlink:title=" ">
<path fill="none" stroke="#63b8ff" d="M822.85,-351.95C848.02,-341.56 878.21,-329.09 900.21,-320.01"/>
<polygon fill="#63b8ff" stroke="#63b8ff" points="901.78,-323.14 909.69,-316.09 899.11,-316.67 901.78,-323.14"/>
</a>
</g>
</g>
<!-- Node3 -->
<g id="Node000003" class="node">
<title>Node3</title>
<g id="a_Node000003"><a xlink:href="_field_repo_8_h.html" target="_top" xlink:title=" ">
<polygon fill="white" stroke="#666666" points="709,-255.5 560,-255.5 560,-236.5 709,-236.5 709,-255.5"/>
<text text-anchor="middle" x="634.5" y="-243.5" font-family="Helvetica,sans-Serif" font-size="10.00">amr&#45;wind/core/FieldRepo.H</text>
</a>
</g>
</g>
<!-- Node2&#45;&gt;Node3 -->
<g id="edge2_Node000002_Node000003" class="edge">
<title>Node2&#45;&gt;Node3</title>
<g id="a_edge2_Node000002_Node000003"><a xlink:title=" ">
<path fill="none" stroke="#63b8ff" d="M634.5,-296.87C634.5,-288.75 634.5,-276.31 634.5,-265.89"/>
<polygon fill="#63b8ff" stroke="#63b8ff" points="638,-265.67 634.5,-255.67 631,-265.67 638,-265.67"/>
</a>
</g>
</g>
<!-- Node26 -->
<g id="Node000026" class="node">
<title>Node26</title>
<g id="a_Node000026"><a xlink:href="stencils_8_h.html" target="_top" xlink:title="Second&#45;order finite volume discretization stencil coefficients.">
<polygon fill="white" stroke="#666666" points="396,-255.5 259,-255.5 259,-236.5 396,-236.5 396,-255.5"/>
<text text-anchor="middle" x="327.5" y="-243.5" font-family="Helvetica,sans-Serif" font-size="10.00">amr&#45;wind/fvm/stencils.H</text>
</a>
</g>
</g>
<!-- Node2&#45;&gt;Node26 -->
<g id="edge50_Node000002_Node000026" class="edge">
<title>Node2&#45;&gt;Node26</title>
<g id="a_edge50_Node000002_Node000026"><a xlink:title=" ">
<path fill="none" stroke="#63b8ff" d="M589.86,-296.99C534.84,-286.51 441.37,-268.7 382.12,-257.41"/>
<polygon fill="#63b8ff" stroke="#63b8ff" points="382.67,-253.95 372.19,-255.52 381.36,-260.83 382.67,-253.95"/>
</a>
</g>
</g>
<!-- Node31 -->
<g id="Node000031" class="node">
<title>Node31</title>
<g id="a_Node000031"><a xlink:href="math__ops_8_h.html" target="_top" xlink:title=" ">
<polygon fill="white" stroke="#666666" points="150,-261 47,-261 47,-231 150,-231 150,-261"/>
<text text-anchor="start" x="55" y="-249" font-family="Helvetica,sans-Serif" font-size="10.00">amr&#45;wind/utilities</text>
<text text-anchor="middle" x="98.5" y="-238" font-family="Helvetica,sans-Serif" font-size="10.00">/math_ops.H</text>
</a>
</g>
</g>
<!-- Node2&#45;&gt;Node31 -->
<g id="edge55_Node000002_Node000031" class="edge">
<title>Node2&#45;&gt;Node31</title>
<g id="a_edge55_Node000002_Node000031"><a xlink:title=" ">
<path fill="none" stroke="#63b8ff" d="M561.93,-297.58C455.87,-286 260.3,-264.66 160.54,-253.77"/>
<polygon fill="#63b8ff" stroke="#63b8ff" points="160.64,-250.26 150.32,-252.66 159.88,-257.22 160.64,-250.26"/>
</a>
</g>
</g>
<!-- Node2&#45;&gt;Node32 -->
<g id="edge58_Node000002_Node000032" class="edge">
<title>Node2&#45;&gt;Node32</title>
<g id="a_edge58_Node000002_Node000032"><a xlink:title=" ">
<path fill="none" stroke="#63b8ff" d="M655,-296.99C678.81,-287.12 718.29,-270.73 745.54,-259.43"/>
<polygon fill="#63b8ff" stroke="#63b8ff" points="747.08,-262.58 754.97,-255.52 744.39,-256.12 747.08,-262.58"/>
</a>
</g>
</g>
<!-- Node4 -->
<g id="Node000004" class="node">
<title>Node4</title>
<g id="a_Node000004"><a xlink:title=" ">
<polygon fill="#e0e0e0" stroke="#999999" points="843.5,-74 799.5,-74 799.5,-55 843.5,-55 843.5,-74"/>
<text text-anchor="middle" x="821.5" y="-62" font-family="Helvetica,sans-Serif" font-size="10.00">string</text>
</a>
</g>
</g>
<!-- Node3&#45;&gt;Node4 -->
<g id="edge3_Node000003_Node000004" class="edge">
<title>Node3&#45;&gt;Node4</title>
<g id="a_edge3_Node000003_Node000004"><a xlink:title=" ">
<path fill="none" stroke="#63b8ff" d="M572.97,-236.44C532.42,-229.16 478.97,-216.39 435.5,-195 416.19,-185.5 417.06,-173.96 397.5,-165 319.13,-129.08 152.8,-173.13 211.5,-110 231.33,-88.67 665.13,-71.22 788.84,-66.66"/>
<polygon fill="#63b8ff" stroke="#63b8ff" points="789.31,-70.15 799.17,-66.29 789.05,-63.15 789.31,-70.15"/>
</a>
</g>
</g>
<!-- Node5 -->
<g id="Node000005" class="node">
<title>Node5</title>
<g id="a_Node000005"><a xlink:title=" ">
<polygon fill="#e0e0e0" stroke="#999999" points="644,-129 551,-129 551,-110 644,-110 644,-129"/>
<text text-anchor="middle" x="597.5" y="-117" font-family="Helvetica,sans-Serif" font-size="10.00">unordered_map</text>
</a>
</g>
</g>
<!-- Node3&#45;&gt;Node5 -->
<g id="edge4_Node000003_Node000005" class="edge">
<title>Node3&#45;&gt;Node5</title>
<g id="a_edge4_Node000003_Node000005"><a xlink:title=" ">
<path fill="none" stroke="#63b8ff" d="M631.96,-236.44C626.02,-216.45 611.12,-166.32 602.99,-138.98"/>
<polygon fill="#63b8ff" stroke="#63b8ff" points="606.26,-137.71 600.06,-129.12 599.55,-139.7 606.26,-137.71"/>
</a>
</g>
</g>
<!-- Node6 -->
<g id="Node000006" class="node">
<title>Node6</title>
<g id="a_Node000006"><a xlink:href="_field_desc_types_8_h.html" target="_top" xlink:title=" ">
<polygon fill="white" stroke="#666666" points="1273.5,-74 1097.5,-74 1097.5,-55 1273.5,-55 1273.5,-74"/>
<text text-anchor="middle" x="1185.5" y="-62" font-family="Helvetica,sans-Serif" font-size="10.00">amr&#45;wind/core/FieldDescTypes.H</text>
</a>
</g>
</g>
<!-- Node3&#45;&gt;Node6 -->
<g id="edge5_Node000003_Node000006" class="edge">
<title>Node3&#45;&gt;Node6</title>
<g id="a_edge5_Node000003_Node000006"><a xlink:title=" ">
<path fill="none" stroke="#63b8ff" d="M679.6,-236.44C691.86,-234.37 705.15,-232.37 717.5,-231 887.09,-212.22 1401.78,-281.4 1478.5,-129 1482.3,-121.46 1484,-116.4 1478.5,-110 1453.63,-81.07 1359.28,-70.73 1284.27,-67.14"/>
<polygon fill="#63b8ff" stroke="#63b8ff" points="1283.97,-63.62 1273.83,-66.68 1283.66,-70.62 1283.97,-63.62"/>
</a>
</g>
</g>
<!-- Node8 -->
<g id="Node000008" class="node">
<title>Node8</title>
<g id="a_Node000008"><a xlink:href="_field_utils_8_h.html" target="_top" xlink:title=" ">
<polygon fill="white" stroke="#666666" points="1735.5,-129 1589.5,-129 1589.5,-110 1735.5,-110 1735.5,-129"/>
<text text-anchor="middle" x="1662.5" y="-117" font-family="Helvetica,sans-Serif" font-size="10.00">amr&#45;wind/core/FieldUtils.H</text>
</a>
</g>
</g>
<!-- Node3&#45;&gt;Node8 -->
<g id="edge7_Node000003_Node000008" class="edge">
<title>Node3&#45;&gt;Node8</title>
<g id="a_edge7_Node000003_Node000008"><a xlink:title=" ">
<path fill="none" stroke="#63b8ff" d="M678.72,-236.46C691.22,-234.34 704.85,-232.3 717.5,-231 769.43,-225.65 1618.82,-231.13 1656.5,-195 1671.17,-180.93 1670.13,-156.18 1667.12,-139.09"/>
<polygon fill="#63b8ff" stroke="#63b8ff" points="1670.51,-138.2 1665,-129.15 1663.66,-139.66 1670.51,-138.2"/>
</a>
</g>
</g>
<!-- Node9 -->
<g id="Node000009" class="node">
<title>Node9</title>
<g id="a_Node000009"><a xlink:title=" ">
<polygon fill="#e0e0e0" stroke="#999999" points="1599,-74 1490,-74 1490,-55 1599,-55 1599,-74"/>
<text text-anchor="middle" x="1544.5" y="-62" font-family="Helvetica,sans-Serif" font-size="10.00">AMReX_MultiFab.H</text>
</a>
</g>
</g>
<!-- Node3&#45;&gt;Node9 -->
<g id="edge48_Node000003_Node000009" class="edge">
<title>Node3&#45;&gt;Node9</title>
<g id="a_edge48_Node000003_Node000009"><a xlink:title=" ">
<path fill="none" stroke="#63b8ff" d="M678.72,-236.45C691.22,-234.33 704.85,-232.3 717.5,-231 823.57,-220.11 1578.45,-236.92 1676.5,-195 1720.98,-175.98 1774.77,-147.74 1744.5,-110 1735.86,-99.22 1664.07,-85.14 1608.95,-75.73"/>
<polygon fill="#63b8ff" stroke="#63b8ff" points="1609.31,-72.24 1598.87,-74.03 1608.15,-79.15 1609.31,-72.24"/>
</a>
</g>
</g>
<!-- Node11 -->
<g id="Node000011" class="node">
<title>Node11</title>
<g id="a_Node000011"><a xlink:href="_field_8_h.html" target="_top" xlink:title=" ">
<polygon fill="white" stroke="#666666" points="568.5,-189.5 444.5,-189.5 444.5,-170.5 568.5,-170.5 568.5,-189.5"/>
<text text-anchor="middle" x="506.5" y="-177.5" font-family="Helvetica,sans-Serif" font-size="10.00">amr&#45;wind/core/Field.H</text>
</a>
</g>
</g>
<!-- Node3&#45;&gt;Node11 -->
<g id="edge11_Node000003_Node000011" class="edge">
<title>Node3&#45;&gt;Node11</title>
<g id="a_edge11_Node000003_Node000011"><a xlink:title=" ">
<path fill="none" stroke="#63b8ff" d="M617.24,-236.37C595.58,-225.54 558.21,-206.85 532.93,-194.22"/>
<polygon fill="#63b8ff" stroke="#63b8ff" points="534.41,-191.04 523.9,-189.7 531.28,-197.3 534.41,-191.04"/>
</a>
</g>
</g>
<!-- Node19 -->
<g id="Node000019" class="node">
<title>Node19</title>
<g id="a_Node000019"><a xlink:href="_int_field_8_h.html" target="_top" xlink:title=" ">
<polygon fill="white" stroke="#666666" points="933,-189.5 796,-189.5 796,-170.5 933,-170.5 933,-189.5"/>
<text text-anchor="middle" x="864.5" y="-177.5" font-family="Helvetica,sans-Serif" font-size="10.00">amr&#45;wind/core/IntField.H</text>
</a>
</g>
</g>
<!-- Node3&#45;&gt;Node19 -->
<g id="edge27_Node000003_Node000019" class="edge">
<title>Node3&#45;&gt;Node19</title>
<g id="a_edge27_Node000003_Node000019"><a xlink:title=" ">
<path fill="none" stroke="#63b8ff" d="M665.52,-236.37C706.44,-224.98 778.57,-204.91 823.82,-192.32"/>
<polygon fill="#63b8ff" stroke="#63b8ff" points="824.91,-195.65 833.61,-189.6 823.03,-188.91 824.91,-195.65"/>
</a>
</g>
</g>
<!-- Node20 -->
<g id="Node000020" class="node">
<title>Node20</title>
<g id="a_Node000020"><a xlink:title=" ">
<polygon fill="#e0e0e0" stroke="#999999" points="774.5,-129 662.5,-129 662.5,-110 774.5,-110 774.5,-129"/>
<text text-anchor="middle" x="718.5" y="-117" font-family="Helvetica,sans-Serif" font-size="10.00">AMReX_iMultiFab.H</text>
</a>
</g>
</g>
<!-- Node3&#45;&gt;Node20 -->
<g id="edge49_Node000003_Node000020" class="edge">
<title>Node3&#45;&gt;Node20</title>
<g id="a_edge49_Node000003_Node000020"><a xlink:title=" ">
<path fill="none" stroke="#63b8ff" d="M634.57,-236.49C635.08,-220.95 638.06,-187.48 653.5,-165 662.53,-151.85 676.84,-141.44 689.73,-134.01"/>
<polygon fill="#63b8ff" stroke="#63b8ff" points="691.63,-136.96 698.77,-129.12 688.31,-130.8 691.63,-136.96"/>
</a>
</g>
</g>
<!-- Node21 -->
<g id="Node000021" class="node">
<title>Node21</title>
<g id="a_Node000021"><a xlink:href="_scratch_field_8_h.html" target="_top" xlink:title=" ">
<polygon fill="white" stroke="#666666" points="1380.5,-189.5 1220.5,-189.5 1220.5,-170.5 1380.5,-170.5 1380.5,-189.5"/>
<text text-anchor="middle" x="1300.5" y="-177.5" font-family="Helvetica,sans-Serif" font-size="10.00">amr&#45;wind/core/ScratchField.H</text>
</a>
</g>
</g>
<!-- Node3&#45;&gt;Node21 -->
<g id="edge31_Node000003_Node000021" class="edge">
<title>Node3&#45;&gt;Node21</title>
<g id="a_edge31_Node000003_Node000021"><a xlink:title=" ">
<path fill="none" stroke="#63b8ff" d="M680.93,-236.48C692.82,-234.49 705.61,-232.51 717.5,-231 810.23,-219.22 1070.89,-198.54 1210.14,-187.84"/>
<polygon fill="#63b8ff" stroke="#63b8ff" points="1210.66,-191.31 1220.36,-187.06 1210.12,-184.33 1210.66,-191.31"/>
</a>
</g>
</g>
<!-- Node24 -->
<g id="Node000024" class="node">
<title>Node24</title>
<g id="a_Node000024"><a xlink:href="_int_scratch_field_8_h.html" target="_top" xlink:title=" ">
<polygon fill="white" stroke="#666666" points="1090,-195 951,-195 951,-165 1090,-165 1090,-195"/>
<text text-anchor="start" x="959" y="-183" font-family="Helvetica,sans-Serif" font-size="10.00">amr&#45;wind/core/IntScratch</text>
<text text-anchor="middle" x="1020.5" y="-172" font-family="Helvetica,sans-Serif" font-size="10.00">Field.H</text>
</a>
</g>
</g>
<!-- Node3&#45;&gt;Node24 -->
<g id="edge39_Node000003_Node000024" class="edge">
<title>Node3&#45;&gt;Node24</title>
<g id="a_edge39_Node000003_Node000024"><a xlink:title=" ">
<path fill="none" stroke="#63b8ff" d="M684.52,-236.49C695.39,-234.66 706.83,-232.75 717.5,-231 814.31,-215.09 841.01,-212.12 940.87,-195.26"/>
<polygon fill="#63b8ff" stroke="#63b8ff" points="941.5,-198.7 950.77,-193.58 940.33,-191.8 941.5,-198.7"/>
</a>
</g>
</g>
<!-- Node25 -->
<g id="Node000025" class="node">
<title>Node25</title>
<g id="a_Node000025"><a xlink:title=" ">
<polygon fill="#e0e0e0" stroke="#999999" points="1647.5,-189.5 1537.5,-189.5 1537.5,-170.5 1647.5,-170.5 1647.5,-189.5"/>
<text text-anchor="middle" x="1592.5" y="-177.5" font-family="Helvetica,sans-Serif" font-size="10.00">AMReX_AmrCore.H</text>
</a>
</g>
</g>
<!-- Node3&#45;&gt;Node25 -->
<g id="edge47_Node000003_Node000025" class="edge">
<title>Node3&#45;&gt;Node25</title>
<g id="a_edge47_Node000003_Node000025"><a xlink:title=" ">
<path fill="none" stroke="#63b8ff" d="M679.16,-236.44C691.54,-234.34 705,-232.33 717.5,-231 1074.07,-193.11 1167.6,-238.78 1523.5,-195 1530.76,-194.11 1538.39,-192.87 1545.82,-191.49"/>
<polygon fill="#63b8ff" stroke="#63b8ff" points="1546.64,-194.9 1555.79,-189.55 1545.31,-188.03 1546.64,-194.9"/>
</a>
</g>
</g>
<!-- Node7 -->
<g id="Node000007" class="node">
<title>Node7</title>
<g id="a_Node000007"><a xlink:title=" ">
<polygon fill="#e0e0e0" stroke="#999999" points="708.5,-19 658.5,-19 658.5,0 708.5,0 708.5,-19"/>
<text text-anchor="middle" x="683.5" y="-7" font-family="Helvetica,sans-Serif" font-size="10.00">cstdint</text>
</a>
</g>
</g>
<!-- Node6&#45;&gt;Node7 -->
<g id="edge6_Node000006_Node000007" class="edge">
<title>Node6&#45;&gt;Node7</title>
<g id="a_edge6_Node000006_Node000007"><a xlink:title=" ">
<path fill="none" stroke="#63b8ff" d="M1104.85,-54.98C993.71,-43.25 798.2,-22.61 718.66,-14.21"/>
<polygon fill="#63b8ff" stroke="#63b8ff" points="718.97,-10.73 708.66,-13.16 718.24,-17.69 718.97,-10.73"/>
</a>
</g>
</g>
<!-- Node8&#45;&gt;Node6 -->
<g id="edge8_Node000008_Node000006" class="edge">
<title>Node8&#45;&gt;Node6</title>
<g id="a_edge8_Node000008_Node000006"><a xlink:title=" ">
<path fill="none" stroke="#63b8ff" d="M1589.27,-110.36C1503.94,-100.88 1363.08,-85.23 1272.31,-75.15"/>
<polygon fill="#63b8ff" stroke="#63b8ff" points="1272.65,-71.66 1262.32,-74.04 1271.87,-78.62 1272.65,-71.66"/>
</a>
</g>
</g>
<!-- Node8&#45;&gt;Node9 -->
<g id="edge9_Node000008_Node000009" class="edge">
<title>Node8&#45;&gt;Node9</title>
<g id="a_edge9_Node000008_Node000009"><a xlink:title=" ">
<path fill="none" stroke="#63b8ff" d="M1643.54,-109.98C1624.47,-101.42 1594.84,-88.11 1572.95,-78.28"/>
<polygon fill="#63b8ff" stroke="#63b8ff" points="1574.36,-75.07 1563.8,-74.17 1571.49,-81.46 1574.36,-75.07"/>
</a>
</g>
</g>
<!-- Node10 -->
<g id="Node000010" class="node">
<title>Node10</title>
<g id="a_Node000010"><a xlink:title=" ">
<polygon fill="#e0e0e0" stroke="#999999" points="1741.5,-74 1617.5,-74 1617.5,-55 1741.5,-55 1741.5,-74"/>
<text text-anchor="middle" x="1679.5" y="-62" font-family="Helvetica,sans-Serif" font-size="10.00">AMReX_Interpolater.H</text>
</a>
</g>
</g>
<!-- Node8&#45;&gt;Node10 -->
<g id="edge10_Node000008_Node000010" class="edge">
<title>Node8&#45;&gt;Node10</title>
<g id="a_edge10_Node000008_Node000010"><a xlink:title=" ">
<path fill="none" stroke="#63b8ff" d="M1665.31,-109.75C1667.56,-102.72 1670.8,-92.62 1673.62,-83.84"/>
<polygon fill="#63b8ff" stroke="#63b8ff" points="1677.02,-84.68 1676.75,-74.09 1670.36,-82.54 1677.02,-84.68"/>
</a>
</g>
</g>
<!-- Node11&#45;&gt;Node4 -->
<g id="edge12_Node000011_Node000004" class="edge">
<title>Node11&#45;&gt;Node4</title>
<g id="a_edge12_Node000011_Node000004"><a xlink:title=" ">
<path fill="none" stroke="#63b8ff" d="M460.29,-170.44C450.46,-168.63 440.14,-166.74 430.5,-165 338.52,-148.37 163.92,-178.52 227.5,-110 246.77,-89.23 668.3,-71.41 789.29,-66.71"/>
<polygon fill="#63b8ff" stroke="#63b8ff" points="789.55,-70.2 799.41,-66.32 789.28,-63.21 789.55,-70.2"/>
</a>
</g>
</g>
<!-- Node11&#45;&gt;Node5 -->
<g id="edge14_Node000011_Node000005" class="edge">
<title>Node11&#45;&gt;Node5</title>
<g id="a_edge14_Node000011_Node000005"><a xlink:title=" ">
<path fill="none" stroke="#63b8ff" d="M519.93,-170.37C534.58,-160.95 558.26,-145.73 575.6,-134.58"/>
<polygon fill="#63b8ff" stroke="#63b8ff" points="577.5,-137.52 584.02,-129.17 573.71,-131.63 577.5,-137.52"/>
</a>
</g>
</g>
<!-- Node11&#45;&gt;Node6 -->
<g id="edge21_Node000011_Node000006" class="edge">
<title>Node11&#45;&gt;Node6</title>
<g id="a_edge21_Node000011_Node000006"><a xlink:title=" ">
<path fill="none" stroke="#63b8ff" d="M508.03,-170.41C511.24,-155.27 520.21,-124.08 541.5,-110 591.2,-77.14 1017.08,-78.32 1076.5,-74 1080.01,-73.74 1083.59,-73.48 1087.21,-73.21"/>
<polygon fill="#63b8ff" stroke="#63b8ff" points="1087.75,-76.68 1097.46,-72.45 1087.23,-69.7 1087.75,-76.68"/>
</a>
</g>
</g>
<!-- Node11&#45;&gt;Node9 -->
<g id="edge16_Node000011_Node000009" class="edge">
<title>Node11&#45;&gt;Node9</title>
<g id="a_edge16_Node000011_Node000009"><a xlink:title=" ">
<path fill="none" stroke="#63b8ff" d="M568.71,-172.87C594.88,-170.34 625.66,-167.44 653.5,-165 852.49,-147.53 903.23,-153.3 1101.5,-129 1152.92,-122.7 1165.27,-117.71 1216.5,-110 1307.66,-96.29 1413.37,-82.29 1479.6,-73.74"/>
<polygon fill="#63b8ff" stroke="#63b8ff" points="1480.41,-77.17 1489.88,-72.42 1479.51,-70.23 1480.41,-77.17"/>
</a>
</g>
</g>
<!-- Node12 -->
<g id="Node000012" class="node">
<title>Node12</title>
<g id="a_Node000012"><a xlink:title=" ">
<polygon fill="#e0e0e0" stroke="#999999" points="412.5,-129 354.5,-129 354.5,-110 412.5,-110 412.5,-129"/>
<text text-anchor="middle" x="383.5" y="-117" font-family="Helvetica,sans-Serif" font-size="10.00">memory</text>
</a>
</g>
</g>
<!-- Node11&#45;&gt;Node12 -->
<g id="edge13_Node000011_Node000012" class="edge">
<title>Node11&#45;&gt;Node12</title>
<g id="a_edge13_Node000011_Node000012"><a xlink:title=" ">
<path fill="none" stroke="#63b8ff" d="M488.61,-170.49C468.12,-160.75 434.31,-144.66 410.58,-133.38"/>
<polygon fill="#63b8ff" stroke="#63b8ff" points="411.94,-130.15 401.41,-129.02 408.93,-136.47 411.94,-130.15"/>
</a>
</g>
</g>
<!-- Node13 -->
<g id="Node000013" class="node">
<title>Node13</title>
<g id="a_Node000013"><a xlink:title=" ">
<polygon fill="#e0e0e0" stroke="#999999" points="494.5,-129 430.5,-129 430.5,-110 494.5,-110 494.5,-129"/>
<text text-anchor="middle" x="462.5" y="-117" font-family="Helvetica,sans-Serif" font-size="10.00">algorithm</text>
</a>
</g>
</g>
<!-- Node11&#45;&gt;Node13 -->
<g id="edge15_Node000011_Node000013" class="edge">
<title>Node11&#45;&gt;Node13</title>
<g id="a_edge15_Node000011_Node000013"><a xlink:title=" ">
<path fill="none" stroke="#63b8ff" d="M500.01,-170.37C493.51,-161.73 483.34,-148.2 475.22,-137.42"/>
<polygon fill="#63b8ff" stroke="#63b8ff" points="477.83,-135.06 469.02,-129.17 472.23,-139.26 477.83,-135.06"/>
</a>
</g>
</g>
<!-- Node14 -->
<g id="Node000014" class="node">
<title>Node14</title>
<g id="a_Node000014"><a xlink:title=" ">
<polygon fill="#e0e0e0" stroke="#999999" points="336,-129 237,-129 237,-110 336,-110 336,-129"/>
<text text-anchor="middle" x="286.5" y="-117" font-family="Helvetica,sans-Serif" font-size="10.00">AMReX_BCRec.H</text>
</a>
</g>
</g>
<!-- Node11&#45;&gt;Node14 -->
<g id="edge17_Node000011_Node000014" class="edge">
<title>Node11&#45;&gt;Node14</title>
<g id="a_edge17_Node000011_Node000014"><a xlink:title=" ">
<path fill="none" stroke="#63b8ff" d="M474.51,-170.49C435.9,-160.23 370.86,-142.93 328.3,-131.62"/>
<polygon fill="#63b8ff" stroke="#63b8ff" points="329.09,-128.2 318.53,-129.02 327.29,-134.97 329.09,-128.2"/>
</a>
</g>
</g>
<!-- Node15 -->
<g id="Node000015" class="node">
<title>Node15</title>
<g id="a_Node000015"><a xlink:title=" ">
<polygon fill="#e0e0e0" stroke="#999999" points="87,-129 0,-129 0,-110 87,-110 87,-129"/>
<text text-anchor="middle" x="43.5" y="-117" font-family="Helvetica,sans-Serif" font-size="10.00">AMReX_Gpu.H</text>
</a>
</g>
</g>
<!-- Node11&#45;&gt;Node15 -->
<g id="edge18_Node000011_Node000015" class="edge">
<title>Node11&#45;&gt;Node15</title>
<g id="a_edge18_Node000011_Node000015"><a xlink:title=" ">
<path fill="none" stroke="#63b8ff" d="M444.25,-170.98C428.96,-169.01 412.64,-166.92 397.5,-165 291.13,-151.48 166.74,-135.9 97.35,-127.22"/>
<polygon fill="#63b8ff" stroke="#63b8ff" points="97.46,-123.71 87.1,-125.94 96.59,-130.66 97.46,-123.71"/>
</a>
</g>
</g>
<!-- Node16 -->
<g id="Node000016" class="node">
<title>Node16</title>
<g id="a_Node000016"><a xlink:href="incflo__enums_8_h.html" target="_top" xlink:title=" ">
<polygon fill="white" stroke="#666666" points="502,-74 361,-74 361,-55 502,-55 502,-74"/>
<text text-anchor="middle" x="431.5" y="-62" font-family="Helvetica,sans-Serif" font-size="10.00">amr&#45;wind/incflo_enums.H</text>
</a>
</g>
</g>
<!-- Node11&#45;&gt;Node16 -->
<g id="edge19_Node000011_Node000016" class="edge">
<title>Node11&#45;&gt;Node16</title>
<g id="a_edge19_Node000011_Node000016"><a xlink:title=" ">
<path fill="none" stroke="#63b8ff" d="M444.29,-171.12C355.61,-159.59 202.56,-138.46 194.5,-129 189.02,-122.57 189.11,-116.5 194.5,-110 214.25,-86.19 290.17,-75.04 350.83,-69.87"/>
<polygon fill="#63b8ff" stroke="#63b8ff" points="351.12,-73.36 360.81,-69.06 350.56,-66.38 351.12,-73.36"/>
</a>
</g>
</g>
<!-- Node17 -->
<g id="Node000017" class="node">
<title>Node17</title>
<g id="a_Node000017"><a xlink:href="_view_field_8_h.html" target="_top" xlink:title=" ">
<polygon fill="white" stroke="#666666" points="1092.5,-129 944.5,-129 944.5,-110 1092.5,-110 1092.5,-129"/>
<text text-anchor="middle" x="1018.5" y="-117" font-family="Helvetica,sans-Serif" font-size="10.00">amr&#45;wind/core/ViewField.H</text>
</a>
</g>
</g>
<!-- Node11&#45;&gt;Node17 -->
<g id="edge22_Node000011_Node000017" class="edge">
<title>Node11&#45;&gt;Node17</title>
<g id="a_edge22_Node000011_Node000017"><a xlink:title=" ">
<path fill="none" stroke="#63b8ff" d="M568.51,-171.91C659.98,-161.46 831.31,-141.89 934.14,-130.14"/>
<polygon fill="#63b8ff" stroke="#63b8ff" points="934.64,-133.6 944.18,-128.99 933.84,-126.65 934.64,-133.6"/>
</a>
</g>
</g>
<!-- Node16&#45;&gt;Node7 -->
<g id="edge20_Node000016_Node000007" class="edge">
<title>Node16&#45;&gt;Node7</title>
<g id="a_edge20_Node000016_Node000007"><a xlink:title=" ">
<path fill="none" stroke="#63b8ff" d="M471.99,-54.98C520.88,-44.7 602.3,-27.58 648.56,-17.85"/>
<polygon fill="#63b8ff" stroke="#63b8ff" points="649.36,-21.26 658.43,-15.77 647.92,-14.41 649.36,-21.26"/>
</a>
</g>
</g>
<!-- Node17&#45;&gt;Node4 -->
<g id="edge23_Node000017_Node000004" class="edge">
<title>Node17&#45;&gt;Node4</title>
<g id="a_edge23_Node000017_Node000004"><a xlink:title=" ">
<path fill="none" stroke="#63b8ff" d="M986.85,-109.98C950.16,-100.12 890.06,-83.94 853.3,-74.06"/>
<polygon fill="#63b8ff" stroke="#63b8ff" points="854.16,-70.66 843.6,-71.45 852.35,-77.42 854.16,-70.66"/>
</a>
</g>
</g>
<!-- Node17&#45;&gt;Node6 -->
<g id="edge24_Node000017_Node000006" class="edge">
<title>Node17&#45;&gt;Node6</title>
<g id="a_edge24_Node000017_Node000006"><a xlink:title=" ">
<path fill="none" stroke="#63b8ff" d="M1045.33,-109.98C1073.37,-101.09 1117.55,-87.07 1148.8,-77.15"/>
<polygon fill="#63b8ff" stroke="#63b8ff" points="1149.99,-80.44 1158.46,-74.08 1147.87,-73.77 1149.99,-80.44"/>
</a>
</g>
</g>
<!-- Node17&#45;&gt;Node9 -->
<g id="edge25_Node000017_Node000009" class="edge">
<title>Node17&#45;&gt;Node9</title>
<g id="a_edge25_Node000017_Node000009"><a xlink:title=" ">
<path fill="none" stroke="#63b8ff" d="M1092.75,-111.02C1196.13,-100.6 1381.77,-81.9 1479.79,-72.02"/>
<polygon fill="#63b8ff" stroke="#63b8ff" points="1480.26,-75.49 1489.86,-71.01 1479.56,-68.53 1480.26,-75.49"/>
</a>
</g>
</g>
<!-- Node18 -->
<g id="Node000018" class="node">
<title>Node18</title>
<g id="a_Node000018"><a xlink:title=" ">
<polygon fill="#e0e0e0" stroke="#999999" points="1067.5,-74 969.5,-74 969.5,-55 1067.5,-55 1067.5,-74"/>
<text text-anchor="middle" x="1018.5" y="-62" font-family="Helvetica,sans-Serif" font-size="10.00">AMReX_Vector.H</text>
</a>
</g>
</g>
<!-- Node17&#45;&gt;Node18 -->
<g id="edge26_Node000017_Node000018" class="edge">
<title>Node17&#45;&gt;Node18</title>
<g id="a_edge26_Node000017_Node000018"><a xlink:title=" ">
<path fill="none" stroke="#63b8ff" d="M1018.5,-109.75C1018.5,-102.8 1018.5,-92.85 1018.5,-84.13"/>
<polygon fill="#63b8ff" stroke="#63b8ff" points="1022,-84.09 1018.5,-74.09 1015,-84.09 1022,-84.09"/>
</a>
</g>
</g>
<!-- Node19&#45;&gt;Node4 -->
<g id="edge28_Node000019_Node000004" class="edge">
<title>Node19&#45;&gt;Node4</title>
<g id="a_edge28_Node000019_Node000004"><a xlink:title=" ">
<path fill="none" stroke="#63b8ff" d="M855.44,-170.4C846.34,-161.14 832.79,-145.5 826.5,-129 821.02,-114.61 820.02,-97.1 820.25,-84.11"/>
<polygon fill="#63b8ff" stroke="#63b8ff" points="823.75,-84.19 820.69,-74.05 816.75,-83.89 823.75,-84.19"/>
</a>
</g>
</g>
<!-- Node19&#45;&gt;Node6 -->
<g id="edge29_Node000019_Node000006" class="edge">
<title>Node19&#45;&gt;Node6</title>
<g id="a_edge29_Node000019_Node000006"><a xlink:title=" ">
<path fill="none" stroke="#63b8ff" d="M910.21,-170.47C974.11,-158.38 1084.28,-136.85 1101.5,-129 1127.57,-117.12 1153.19,-96 1169.15,-81.39"/>
<polygon fill="#63b8ff" stroke="#63b8ff" points="1171.67,-83.83 1176.57,-74.43 1166.88,-78.72 1171.67,-83.83"/>
</a>
</g>
</g>
<!-- Node19&#45;&gt;Node20 -->
<g id="edge30_Node000019_Node000020" class="edge">
<title>Node19&#45;&gt;Node20</title>
<g id="a_edge30_Node000019_Node000020"><a xlink:title=" ">
<path fill="none" stroke="#63b8ff" d="M843.27,-170.49C818.51,-160.57 777.38,-144.09 749.15,-132.78"/>
<polygon fill="#63b8ff" stroke="#63b8ff" points="750.34,-129.49 739.76,-129.02 747.74,-135.99 750.34,-129.49"/>
</a>
</g>
</g>
<!-- Node21&#45;&gt;Node4 -->
<g id="edge32_Node000021_Node000004" class="edge">
<title>Node21&#45;&gt;Node4</title>
<g id="a_edge32_Node000021_Node000004"><a xlink:title=" ">
<path fill="none" stroke="#63b8ff" d="M1220.41,-171.66C1129.33,-162.67 986.64,-146.48 935.5,-129 919.49,-123.53 917.25,-118.3 902.5,-110 883.68,-99.41 862.26,-87.66 846.18,-78.89"/>
<polygon fill="#63b8ff" stroke="#63b8ff" points="847.84,-75.81 837.38,-74.1 844.49,-81.96 847.84,-75.81"/>
</a>
</g>
</g>
<!-- Node21&#45;&gt;Node6 -->
<g id="edge34_Node000021_Node000006" class="edge">
<title>Node21&#45;&gt;Node6</title>
<g id="a_edge34_Node000021_Node000006"><a xlink:title=" ">
<path fill="none" stroke="#63b8ff" d="M1379.8,-170.5C1433.68,-161.55 1490.34,-143.86 1461.5,-110 1438.74,-83.28 1353.6,-72.55 1283.83,-68.27"/>
<polygon fill="#63b8ff" stroke="#63b8ff" points="1283.84,-64.76 1273.65,-67.68 1283.44,-71.75 1283.84,-64.76"/>
</a>
</g>
</g>
<!-- Node21&#45;&gt;Node9 -->
<g id="edge36_Node000021_Node000009" class="edge">
<title>Node21&#45;&gt;Node9</title>
<g id="a_edge36_Node000021_Node000009"><a xlink:title=" ">
<path fill="none" stroke="#63b8ff" d="M1357,-170.48C1393.45,-163.26 1440.89,-150.53 1478.5,-129 1499.53,-116.96 1518.9,-96.76 1531.15,-82.37"/>
<polygon fill="#63b8ff" stroke="#63b8ff" points="1534.15,-84.24 1537.8,-74.29 1528.74,-79.79 1534.15,-84.24"/>
</a>
</g>
</g>
<!-- Node21&#45;&gt;Node17 -->
<g id="edge35_Node000021_Node000017" class="edge">
<title>Node21&#45;&gt;Node17</title>
<g id="a_edge35_Node000021_Node000017"><a xlink:title=" ">
<path fill="none" stroke="#63b8ff" d="M1259.49,-170.49C1209.16,-160.05 1123.81,-142.35 1069.35,-131.05"/>
<polygon fill="#63b8ff" stroke="#63b8ff" points="1070.06,-127.62 1059.55,-129.02 1068.64,-134.48 1070.06,-127.62"/>
</a>
</g>
</g>
<!-- Node21&#45;&gt;Node18 -->
<g id="edge37_Node000021_Node000018" class="edge">
<title>Node21&#45;&gt;Node18</title>
<g id="a_edge37_Node000021_Node000018"><a xlink:title=" ">
<path fill="none" stroke="#63b8ff" d="M1349.8,-170.41C1396.6,-160.2 1456.02,-140.59 1428.5,-110 1403.09,-81.76 1126.25,-78.29 1088.5,-74 1085.05,-73.61 1081.51,-73.2 1077.93,-72.78"/>
<polygon fill="#63b8ff" stroke="#63b8ff" points="1078.16,-69.28 1067.82,-71.59 1077.34,-76.24 1078.16,-69.28"/>
</a>
</g>
</g>
<!-- Node22 -->
<g id="Node000022" class="node">
<title>Node22</title>
<g id="a_Node000022"><a xlink:title=" ">
<polygon fill="#e0e0e0" stroke="#999999" points="1270,-129 1225,-129 1225,-110 1270,-110 1270,-129"/>
<text text-anchor="middle" x="1247.5" y="-117" font-family="Helvetica,sans-Serif" font-size="10.00">utility</text>
</a>
</g>
</g>
<!-- Node21&#45;&gt;Node22 -->
<g id="edge33_Node000021_Node000022" class="edge">
<title>Node21&#45;&gt;Node22</title>
<g id="a_edge33_Node000021_Node000022"><a xlink:title=" ">
<path fill="none" stroke="#63b8ff" d="M1292.68,-170.37C1284.69,-161.55 1272.11,-147.66 1262.24,-136.77"/>
<polygon fill="#63b8ff" stroke="#63b8ff" points="1264.66,-134.23 1255.35,-129.17 1259.47,-138.93 1264.66,-134.23"/>
</a>
</g>
</g>
<!-- Node23 -->
<g id="Node000023" class="node">
<title>Node23</title>
<g id="a_Node000023"><a xlink:title=" ">
<polygon fill="#e0e0e0" stroke="#999999" points="1419,-129 1288,-129 1288,-110 1419,-110 1419,-129"/>
<text text-anchor="middle" x="1353.5" y="-117" font-family="Helvetica,sans-Serif" font-size="10.00">AMReX_PhysBCFunct.H</text>
</a>
</g>
</g>
<!-- Node21&#45;&gt;Node23 -->
<g id="edge38_Node000021_Node000023" class="edge">
<title>Node21&#45;&gt;Node23</title>
<g id="a_edge38_Node000021_Node000023"><a xlink:title=" ">
<path fill="none" stroke="#63b8ff" d="M1308.32,-170.37C1316.31,-161.55 1328.89,-147.66 1338.76,-136.77"/>
<polygon fill="#63b8ff" stroke="#63b8ff" points="1341.53,-138.93 1345.65,-129.17 1336.34,-134.23 1341.53,-138.93"/>
</a>
</g>
</g>
<!-- Node24&#45;&gt;Node4 -->
<g id="edge40_Node000024_Node000004" class="edge">
<title>Node24&#45;&gt;Node4</title>
<g id="a_edge40_Node000024_Node000004"><a xlink:title=" ">
<path fill="none" stroke="#63b8ff" d="M993.46,-164.89C974.8,-155.05 949.5,-141.49 927.5,-129 898.41,-112.48 865.44,-92.53 844.1,-79.45"/>
<polygon fill="#63b8ff" stroke="#63b8ff" points="845.79,-76.38 835.44,-74.13 842.13,-82.35 845.79,-76.38"/>
</a>
</g>
</g>
<!-- Node24&#45;&gt;Node6 -->
<g id="edge42_Node000024_Node000006" class="edge">
<title>Node24&#45;&gt;Node6</title>
<g id="a_edge42_Node000024_Node000006"><a xlink:title=" ">
<path fill="none" stroke="#63b8ff" d="M1065.68,-164.91C1087.8,-156.64 1114,-144.71 1134.5,-129 1151.1,-116.28 1165.54,-97.07 1174.77,-83.11"/>
<polygon fill="#63b8ff" stroke="#63b8ff" points="1177.88,-84.74 1180.3,-74.43 1171.98,-80.98 1177.88,-84.74"/>
</a>
</g>
</g>
<!-- Node24&#45;&gt;Node17 -->
<g id="edge43_Node000024_Node000017" class="edge">
<title>Node24&#45;&gt;Node17</title>
<g id="a_edge43_Node000024_Node000017"><a xlink:title=" ">
<path fill="none" stroke="#63b8ff" d="M1020.02,-164.84C1019.76,-157.21 1019.43,-147.7 1019.15,-139.45"/>
<polygon fill="#63b8ff" stroke="#63b8ff" points="1022.64,-139.14 1018.8,-129.27 1015.64,-139.38 1022.64,-139.14"/>
</a>
</g>
</g>
<!-- Node24&#45;&gt;Node18 -->
<g id="edge45_Node000024_Node000018" class="edge">
<title>Node24&#45;&gt;Node18</title>
<g id="a_edge45_Node000024_Node000018"><a xlink:title=" ">
<path fill="none" stroke="#63b8ff" d="M978.66,-164.93C962.17,-157.09 944.94,-145.5 935.5,-129 922.2,-105.75 951.83,-88.21 979.3,-77.51"/>
<polygon fill="#63b8ff" stroke="#63b8ff" points="980.67,-80.74 988.86,-74.02 978.27,-74.16 980.67,-80.74"/>
</a>
</g>
</g>
<!-- Node24&#45;&gt;Node20 -->
<g id="edge44_Node000024_Node000020" class="edge">
<title>Node24&#45;&gt;Node20</title>
<g id="a_edge44_Node000024_Node000020"><a xlink:title=" ">
<path fill="none" stroke="#63b8ff" d="M950.84,-165.51C896.57,-154.99 822.32,-140.61 772.5,-130.96"/>
<polygon fill="#63b8ff" stroke="#63b8ff" points="773.05,-127.5 762.57,-129.04 771.72,-134.37 773.05,-127.5"/>
</a>
</g>
</g>
<!-- Node24&#45;&gt;Node22 -->
<g id="edge41_Node000024_Node000022" class="edge">
<title>Node24&#45;&gt;Node22</title>
<g id="a_edge41_Node000024_Node000022"><a xlink:title=" ">
<path fill="none" stroke="#63b8ff" d="M1074.87,-164.99C1118.45,-153.76 1178.15,-138.37 1214.71,-128.95"/>
<polygon fill="#63b8ff" stroke="#63b8ff" points="1216.01,-132.23 1224.82,-126.34 1214.26,-125.45 1216.01,-132.23"/>
</a>
</g>
</g>
<!-- Node24&#45;&gt;Node23 -->
<g id="edge46_Node000024_Node000023" class="edge">
<title>Node24&#45;&gt;Node23</title>
<g id="a_edge46_Node000024_Node000023"><a xlink:title=" ">
<path fill="none" stroke="#63b8ff" d="M1090.31,-166.74C1151.03,-156.07 1238.01,-140.79 1295.1,-130.76"/>
<polygon fill="#63b8ff" stroke="#63b8ff" points="1295.81,-134.19 1305.05,-129.01 1294.6,-127.29 1295.81,-134.19"/>
</a>
</g>
</g>
<!-- Node26&#45;&gt;Node27 -->
<g id="edge51_Node000026_Node000027" class="edge">
<title>Node26&#45;&gt;Node27</title>
<g id="a_edge51_Node000026_Node000027"><a xlink:title=" ">
<path fill="none" stroke="#63b8ff" d="M296.62,-236.37C255.87,-224.98 184.06,-204.91 139,-192.32"/>
<polygon fill="#63b8ff" stroke="#63b8ff" points="139.83,-188.92 129.26,-189.6 137.95,-195.66 139.83,-188.92"/>
</a>
</g>
</g>
<!-- Node28 -->
<g id="Node000028" class="node">
<title>Node28</title>
<g id="a_Node000028"><a xlink:title=" ">
<polygon fill="#e0e0e0" stroke="#999999" points="248.5,-189.5 162.5,-189.5 162.5,-170.5 248.5,-170.5 248.5,-189.5"/>
<text text-anchor="middle" x="205.5" y="-177.5" font-family="Helvetica,sans-Serif" font-size="10.00">AMReX_Box.H</text>
</a>
</g>
</g>
<!-- Node26&#45;&gt;Node28 -->
<g id="edge52_Node000026_Node000028" class="edge">
<title>Node26&#45;&gt;Node28</title>
<g id="a_edge52_Node000026_Node000028"><a xlink:title=" ">
<path fill="none" stroke="#63b8ff" d="M311.05,-236.37C290.49,-225.59 255.1,-207.02 231.01,-194.38"/>
<polygon fill="#63b8ff" stroke="#63b8ff" points="232.56,-191.25 222.08,-189.7 229.31,-197.44 232.56,-191.25"/>
</a>
</g>
</g>
<!-- Node29 -->
<g id="Node000029" class="node">
<title>Node29</title>
<g id="a_Node000029"><a xlink:title=" ">
<polygon fill="#e0e0e0" stroke="#999999" points="388.5,-189.5 266.5,-189.5 266.5,-170.5 388.5,-170.5 388.5,-189.5"/>
<text text-anchor="middle" x="327.5" y="-177.5" font-family="Helvetica,sans-Serif" font-size="10.00">AMReX_Orientation.H</text>
</a>
</g>
</g>
<!-- Node26&#45;&gt;Node29 -->
<g id="edge53_Node000026_Node000029" class="edge">
<title>Node26&#45;&gt;Node29</title>
<g id="a_edge53_Node000026_Node000029"><a xlink:title=" ">
<path fill="none" stroke="#63b8ff" d="M327.5,-236.37C327.5,-227.16 327.5,-212.29 327.5,-200.27"/>
<polygon fill="#63b8ff" stroke="#63b8ff" points="331,-199.91 327.5,-189.91 324,-199.91 331,-199.91"/>
</a>
</g>
</g>
<!-- Node26&#45;&gt;Node30 -->
<g id="edge54_Node000026_Node000030" class="edge">
<title>Node26&#45;&gt;Node30</title>
<g id="a_edge54_Node000026_Node000030"><a xlink:title=" ">
<path fill="none" stroke="#63b8ff" d="M380.09,-236.44C452.16,-224.7 581.37,-203.66 658.2,-191.15"/>
<polygon fill="#63b8ff" stroke="#63b8ff" points="658.91,-194.58 668.22,-189.51 657.78,-187.67 658.91,-194.58"/>
</a>
</g>
</g>
<!-- Node31&#45;&gt;Node15 -->
<g id="edge57_Node000031_Node000015" class="edge">
<title>Node31&#45;&gt;Node15</title>
<g id="a_edge57_Node000031_Node000015"><a xlink:title=" ">
<path fill="none" stroke="#63b8ff" d="M75.44,-230.92C63.5,-222.21 50.08,-209.87 43.5,-195 35.67,-177.3 36.99,-154.83 39.45,-139.22"/>
<polygon fill="#63b8ff" stroke="#63b8ff" points="42.92,-139.7 41.32,-129.23 36.04,-138.41 42.92,-139.7"/>
</a>
</g>
</g>
<!-- Node31&#45;&gt;Node27 -->
<g id="edge56_Node000031_Node000027" class="edge">
<title>Node31&#45;&gt;Node27</title>
<g id="a_edge56_Node000031_Node000027"><a xlink:title=" ">
<path fill="none" stroke="#63b8ff" d="M98.5,-230.8C98.5,-221.7 98.5,-209.79 98.5,-199.9"/>
<polygon fill="#63b8ff" stroke="#63b8ff" points="102,-199.84 98.5,-189.84 95,-199.84 102,-199.84"/>
</a>
</g>
</g>
</g>
</svg>

<g id="navigator" transform="translate(0 0)" fill="#404254">
  <rect fill="#f2f5e9" fill-opacity="0.5" stroke="#606060" stroke-width=".5" x="0" y="0" width="60" height="60"/>
  <use id="zoomplus" xlink:href="#zoomPlus" x="17" y="9" onmousedown="handleZoom(evt,'in')"/>
  <use id="zoomminus" xlink:href="#zoomMin" x="42" y="9" onmousedown="handleZoom(evt,'out')"/>
  <use id="reset" xlink:href="#resetDef" x="30" y="36" onmousedown="handleReset()"/>
   <use id="arrowup" xlink:href="#arrowUp" x="0" y="0" onmousedown="handlePan(0,-1)"/>
  <use id="arrowright" xlink:href="#arrowRight" x="0" y="0" onmousedown="handlePan(1,0)"/>
  <use id="arrowdown" xlink:href="#arrowDown" x="0" y="0" onmousedown="handlePan(0,1)"/>
  <use id="arrowleft" xlink:href="#arrowLeft" x="0" y="0" onmousedown="handlePan(-1,0)"/>
</g>
<svg viewBox="0 0 15 15" width="100%" height="30px" preserveAspectRatio="xMaxYMin meet">
 <g id="arrow_out" transform="scale(0.3 0.3)">
  <a xlink:href="filter_8_h__incl_org.svg" target="_base">
   <rect id="button" ry="5" rx="5" y="6" x="6" height="38" width="38"
        fill="#f2f5e9" fill-opacity="0.5" stroke="#606060" stroke-width="1.0"/>
   <path id="arrow"
     d="M 11.500037,31.436501 C 11.940474,20.09759 22.043105,11.32322 32.158766,21.979434 L 37.068811,17.246167 C 37.068811,17.246167 37.088388,32 37.088388,32 L 22.160133,31.978069 C 22.160133,31.978069 26.997745,27.140456 26.997745,27.140456 C 18.528582,18.264221 13.291696,25.230495 11.500037,31.436501 z"
     style="fill:#404040;"/>
  </a>
 </g>
</svg>

<style type='text/css'>
<![CDATA[
[data-mouse-over-selected='false'] { opacity: 0.7; }
[data-mouse-over-selected='true']  { opacity: 1.0; }
]]>
</style>
<script type="application/ecmascript"><![CDATA[
document.addEventListener('DOMContentLoaded', (event) => {
  highlightEdges();
  highlightAdjacentNodes();
});
]]></script>
</svg>
