<?xml version="1.0" encoding="UTF-8" standalone="no"?>
<!DOCTYPE svg PUBLIC "-//W3C//DTD SVG 1.1//EN"
 "http://www.w3.org/Graphics/SVG/1.1/DTD/svg11.dtd">
<!-- Generated by graphviz version 2.43.0 (0)
 -->
<!-- Title: Graphical Class Hierarchy Pages: 1 -->
<svg width="498pt" height="172pt"
 viewBox="0.00 0.00 498.00 171.50" xmlns="http://www.w3.org/2000/svg" xmlns:xlink="http://www.w3.org/1999/xlink">
<g id="graph0" class="graph" transform="scale(1 1) rotate(0) translate(4 167.5)">
<title>Graphical Class Hierarchy</title>
<!-- Node0 -->
<g id="Node000000" class="node">
<title>Node0</title>
<g id="a_Node000000"><a xlink:href="classamr__wind_1_1_field_fill_patch_ops_base.html" target="_top" xlink:title=" ">
<polygon fill="white" stroke="#666666" points="134,-78 0,-78 0,-48 134,-48 134,-78"/>
<text text-anchor="start" x="8" y="-66" font-family="Helvetica,sans-Serif" font-size="10.00">amr_wind::FieldFillPatch</text>
<text text-anchor="middle" x="67" y="-55" font-family="Helvetica,sans-Serif" font-size="10.00">OpsBase</text>
</a>
</g>
</g>
<!-- Node1 -->
<g id="Node000001" class="node">
<title>Node1</title>
<g id="a_Node000001"><a xlink:href="classamr__wind_1_1_field_fill_patch_ops.html" target="_top" xlink:title=" ">
<polygon fill="white" stroke="#666666" points="306,-126 170,-126 170,-96 306,-96 306,-126"/>
<text text-anchor="start" x="178" y="-114" font-family="Helvetica,sans-Serif" font-size="10.00">amr_wind::FieldFillPatch</text>
<text text-anchor="middle" x="238" y="-103" font-family="Helvetica,sans-Serif" font-size="10.00">Ops&lt; FieldBCDirichlet &gt;</text>
</a>
</g>
</g>
<!-- Node0&#45;&gt;Node1 -->
<g id="edge162_Node000000_Node000001" class="edge">
<title>Node0&#45;&gt;Node1</title>
<g id="a_edge162_Node000000_Node000001"><a xlink:title=" ">
<path fill="none" stroke="#63b8ff" d="M130.63,-80.79C148.24,-85.79 167.21,-91.18 184.18,-96"/>
<polygon fill="#63b8ff" stroke="#63b8ff" points="131.58,-77.42 121.01,-78.06 129.67,-84.15 131.58,-77.42"/>
</a>
</g>
</g>
<!-- Node5 -->
<g id="Node000005" class="node">
<title>Node5</title>
<g id="a_Node000005"><a xlink:href="classamr__wind_1_1_field_fill_const_scalar.html" target="_top" xlink:title=" ">
<polygon fill="white" stroke="#666666" points="306,-78 170,-78 170,-48 306,-48 306,-78"/>
<text text-anchor="start" x="178" y="-66" font-family="Helvetica,sans-Serif" font-size="10.00">amr_wind::FieldFillConst</text>
<text text-anchor="middle" x="238" y="-55" font-family="Helvetica,sans-Serif" font-size="10.00">Scalar</text>
</a>
</g>
</g>
<!-- Node0&#45;&gt;Node5 -->
<g id="edge166_Node000000_Node000005" class="edge">
<title>Node0&#45;&gt;Node5</title>
<g id="a_edge166_Node000000_Node000005"><a xlink:title=" ">
<path fill="none" stroke="#63b8ff" d="M144.51,-63C152.94,-63 161.47,-63 169.77,-63"/>
<polygon fill="#63b8ff" stroke="#63b8ff" points="144.31,-59.5 134.31,-63 144.31,-66.5 144.31,-59.5"/>
</a>
</g>
</g>
<!-- Node6 -->
<g id="Node000006" class="node">
<title>Node6</title>
<g id="a_Node000006"><a xlink:href="classamr__wind_1_1_field_fill_patch_ops.html" target="_top" xlink:title=" ">
<polygon fill="white" stroke="#666666" points="305,-30 171,-30 171,0 305,0 305,-30"/>
<text text-anchor="start" x="179" y="-18" font-family="Helvetica,sans-Serif" font-size="10.00">amr_wind::FieldFillPatch</text>
<text text-anchor="middle" x="238" y="-7" font-family="Helvetica,sans-Serif" font-size="10.00">Ops&lt; BCOpCreator &gt;</text>
</a>
</g>
</g>
<!-- Node0&#45;&gt;Node6 -->
<g id="edge167_Node000000_Node000006" class="edge">
<title>Node0&#45;&gt;Node6</title>
<g id="a_edge167_Node000000_Node000006"><a xlink:title=" ">
<path fill="none" stroke="#63b8ff" d="M130.63,-45.21C148.24,-40.21 167.21,-34.82 184.18,-30"/>
<polygon fill="#63b8ff" stroke="#63b8ff" points="129.67,-41.85 121.01,-47.94 131.58,-48.58 129.67,-41.85"/>
</a>
</g>
</g>
<!-- Node2 -->
<g id="Node000002" class="node">
<title>Node2</title>
<g id="a_Node000002"><a xlink:href="classamr__wind_1_1_fill_m_p_l.html" target="_top" xlink:title=" ">
<polygon fill="white" stroke="#666666" points="468.5,-163.5 363.5,-163.5 363.5,-144.5 468.5,-144.5 468.5,-163.5"/>
<text text-anchor="middle" x="416" y="-151.5" font-family="Helvetica,sans-Serif" font-size="10.00">amr_wind::FillMPL</text>
</a>
</g>
</g>
<!-- Node1&#45;&gt;Node2 -->
<g id="edge163_Node000001_Node000002" class="edge">
<title>Node1&#45;&gt;Node2</title>
<g id="a_edge163_Node000001_Node000002"><a xlink:title=" ">
<path fill="none" stroke="#63b8ff" d="M310.39,-128.44C332.81,-133.92 356.73,-139.76 376.03,-144.48"/>
<polygon fill="#63b8ff" stroke="#63b8ff" points="311.1,-125.01 300.56,-126.04 309.44,-131.81 311.1,-125.01"/>
</a>
</g>
</g>
<!-- Node3 -->
<g id="Node000003" class="node">
<title>Node3</title>
<g id="a_Node000003"><a xlink:href="classamr__wind_1_1_ocean_waves_fill_inflow.html" target="_top" xlink:title=" ">
<polygon fill="white" stroke="#666666" points="490,-126 342,-126 342,-96 490,-96 490,-126"/>
<text text-anchor="start" x="350" y="-114" font-family="Helvetica,sans-Serif" font-size="10.00">amr_wind::OceanWavesFill</text>
<text text-anchor="middle" x="416" y="-103" font-family="Helvetica,sans-Serif" font-size="10.00">Inflow</text>
</a>
</g>
</g>
<!-- Node1&#45;&gt;Node3 -->
<g id="edge164_Node000001_Node000003" class="edge">
<title>Node1&#45;&gt;Node3</title>
<g id="a_edge164_Node000001_Node000003"><a xlink:title=" ">
<path fill="none" stroke="#63b8ff" d="M316.06,-111C324.67,-111 333.43,-111 341.99,-111"/>
<polygon fill="#63b8ff" stroke="#63b8ff" points="316.04,-107.5 306.04,-111 316.04,-114.5 316.04,-107.5"/>
</a>
</g>
</g>
<!-- Node4 -->
<g id="Node000004" class="node">
<title>Node4</title>
<g id="a_Node000004"><a xlink:href="classamr__wind_1_1_plane_fill_inflow.html" target="_top" xlink:title=" ">
<polygon fill="white" stroke="#666666" points="486.5,-77.5 345.5,-77.5 345.5,-58.5 486.5,-58.5 486.5,-77.5"/>
<text text-anchor="middle" x="416" y="-65.5" font-family="Helvetica,sans-Serif" font-size="10.00">amr_wind::PlaneFillInflow</text>
</a>
</g>
</g>
<!-- Node1&#45;&gt;Node4 -->
<g id="edge165_Node000001_Node000004" class="edge">
<title>Node1&#45;&gt;Node4</title>
<g id="a_edge165_Node000001_Node000004"><a xlink:title=" ">
<path fill="none" stroke="#63b8ff" d="M310.39,-93.56C332.81,-88.08 356.73,-82.24 376.03,-77.52"/>
<polygon fill="#63b8ff" stroke="#63b8ff" points="309.44,-90.19 300.56,-95.96 311.1,-96.99 309.44,-90.19"/>
</a>
</g>
</g>
</g>
</svg>
