<?xml version="1.0" encoding="UTF-8" standalone="no"?>
<!DOCTYPE svg PUBLIC "-//W3C//DTD SVG 1.1//EN"
 "http://www.w3.org/Graphics/SVG/1.1/DTD/svg11.dtd">
<!-- Generated by graphviz version 2.43.0 (0)
 -->
<!-- Title: Graphical Class Hierarchy Pages: 1 -->
<svg width="364pt" height="101pt"
 viewBox="0.00 0.00 364.00 101.00" xmlns="http://www.w3.org/2000/svg" xmlns:xlink="http://www.w3.org/1999/xlink">
<g id="graph0" class="graph" transform="scale(1 1) rotate(0) translate(4 97)">
<title>Graphical Class Hierarchy</title>
<!-- Node0 -->
<g id="Node000000" class="node">
<title>Node0</title>
<g id="a_Node000000"><a xlink:title=" ">
<polygon fill="#e0e0e0" stroke="#999999" points="140,-61.5 0,-61.5 0,-31.5 140,-31.5 140,-61.5"/>
<text text-anchor="start" x="8" y="-49.5" font-family="Helvetica,sans-Serif" font-size="10.00">amr_wind::FieldBoundary</text>
<text text-anchor="middle" x="70" y="-38.5" font-family="Helvetica,sans-Serif" font-size="10.00">::Register</text>
</a>
</g>
</g>
<!-- Node1 -->
<g id="Node000001" class="node">
<title>Node1</title>
<g id="a_Node000001"><a xlink:href="classamr__wind_1_1_boundary_plane.html" target="_top" xlink:title=" ">
<polygon fill="white" stroke="#666666" points="338,-93 194,-93 194,-74 338,-74 338,-93"/>
<text text-anchor="middle" x="266" y="-81" font-family="Helvetica,sans-Serif" font-size="10.00">amr_wind::BoundaryPlane</text>
</a>
</g>
</g>
<!-- Node0&#45;&gt;Node1 -->
<g id="edge159_Node000000_Node000001" class="edge">
<title>Node0&#45;&gt;Node1</title>
<g id="a_edge159_Node000000_Node000001"><a xlink:title=" ">
<path fill="none" stroke="#63b8ff" d="M150.18,-61.6C172.1,-65.78 195.27,-70.2 215.01,-73.97"/>
<polygon fill="#63b8ff" stroke="#63b8ff" points="150.7,-58.14 140.22,-59.7 149.38,-65.01 150.7,-58.14"/>
</a>
</g>
</g>
<!-- Node2 -->
<g id="Node000002" class="node">
<title>Node2</title>
<g id="a_Node000002"><a xlink:href="classamr__wind_1_1_modulated_power_law.html" target="_top" xlink:title=" ">
<polygon fill="white" stroke="#666666" points="352,-56 180,-56 180,-37 352,-37 352,-56"/>
<text text-anchor="middle" x="266" y="-44" font-family="Helvetica,sans-Serif" font-size="10.00">amr_wind::ModulatedPowerLaw</text>
</a>
</g>
</g>
<!-- Node0&#45;&gt;Node2 -->
<g id="edge160_Node000000_Node000002" class="edge">
<title>Node0&#45;&gt;Node2</title>
<g id="a_edge160_Node000000_Node000002"><a xlink:title=" ">
<path fill="none" stroke="#63b8ff" d="M150.27,-46.5C160.02,-46.5 170.02,-46.5 179.86,-46.5"/>
<polygon fill="#63b8ff" stroke="#63b8ff" points="150.22,-43 140.22,-46.5 150.22,-50 150.22,-43"/>
</a>
</g>
</g>
<!-- Node3 -->
<g id="Node000003" class="node">
<title>Node3</title>
<g id="a_Node000003"><a xlink:href="classamr__wind_1_1_ocean_waves_boundary.html" target="_top" xlink:title=" ">
<polygon fill="white" stroke="#666666" points="356,-19 176,-19 176,0 356,0 356,-19"/>
<text text-anchor="middle" x="266" y="-7" font-family="Helvetica,sans-Serif" font-size="10.00">amr_wind::OceanWavesBoundary</text>
</a>
</g>
</g>
<!-- Node0&#45;&gt;Node3 -->
<g id="edge161_Node000000_Node000003" class="edge">
<title>Node0&#45;&gt;Node3</title>
<g id="a_edge161_Node000000_Node000003"><a xlink:title=" ">
<path fill="none" stroke="#63b8ff" d="M150.18,-31.4C172.1,-27.22 195.27,-22.8 215.01,-19.03"/>
<polygon fill="#63b8ff" stroke="#63b8ff" points="149.38,-27.99 140.22,-33.3 150.7,-34.86 149.38,-27.99"/>
</a>
</g>
</g>
</g>
</svg>
