<?xml version="1.0" encoding="UTF-8" standalone="no"?>
<!DOCTYPE svg PUBLIC "-//W3C//DTD SVG 1.1//EN"
 "http://www.w3.org/Graphics/SVG/1.1/DTD/svg11.dtd">
<!-- Generated by graphviz version 2.43.0 (0)
 -->
<!-- Title: /home/runner/work/amr&#45;wind/amr&#45;wind/amr&#45;wind/fvm/laplacian.H Pages: 1 -->
<svg width="2253pt" height="401pt"
 viewBox="0.00 0.00 2253.00 401.00" xmlns="http://www.w3.org/2000/svg" xmlns:xlink="http://www.w3.org/1999/xlink">
<g id="graph0" class="graph" transform="scale(1 1) rotate(0) translate(4 397)">
<title>/home/runner/work/amr&#45;wind/amr&#45;wind/amr&#45;wind/fvm/laplacian.H</title>
<!-- Node1 -->
<g id="Node000001" class="node">
<title>Node1</title>
<g id="a_Node000001"><a xlink:title=" ">
<polygon fill="#999999" stroke="#666666" points="1945.5,-393 1802.5,-393 1802.5,-352 1945.5,-352 1945.5,-393"/>
<text text-anchor="start" x="1810.5" y="-381" font-family="Helvetica,sans-Serif" font-size="10.00">/home/runner/work/amr</text>
<text text-anchor="start" x="1810.5" y="-370" font-family="Helvetica,sans-Serif" font-size="10.00">&#45;wind/amr&#45;wind/amr&#45;wind</text>
<text text-anchor="middle" x="1874" y="-359" font-family="Helvetica,sans-Serif" font-size="10.00">/fvm/laplacian.H</text>
</a>
</g>
</g>
<!-- Node2 -->
<g id="Node000002" class="node">
<title>Node2</title>
<g id="a_Node000002"><a xlink:href="fvm__utils_8_h.html" target="_top" xlink:title=" ">
<polygon fill="white" stroke="#666666" points="1946.5,-316 1801.5,-316 1801.5,-297 1946.5,-297 1946.5,-316"/>
<text text-anchor="middle" x="1874" y="-304" font-family="Helvetica,sans-Serif" font-size="10.00">amr&#45;wind/fvm/fvm_utils.H</text>
</a>
</g>
</g>
<!-- Node1&#45;&gt;Node2 -->
<g id="edge1_Node000001_Node000002" class="edge">
<title>Node1&#45;&gt;Node2</title>
<g id="a_edge1_Node000001_Node000002"><a xlink:title=" ">
<path fill="none" stroke="#63b8ff" d="M1874,-351.95C1874,-343.85 1874,-334.5 1874,-326.47"/>
<polygon fill="#63b8ff" stroke="#63b8ff" points="1877.5,-326.26 1874,-316.26 1870.5,-326.26 1877.5,-326.26"/>
</a>
</g>
</g>
<!-- Node3 -->
<g id="Node000003" class="node">
<title>Node3</title>
<g id="a_Node000003"><a xlink:href="_field_repo_8_h.html" target="_top" xlink:title=" ">
<polygon fill="white" stroke="#666666" points="747.5,-255.5 598.5,-255.5 598.5,-236.5 747.5,-236.5 747.5,-255.5"/>
<text text-anchor="middle" x="673" y="-243.5" font-family="Helvetica,sans-Serif" font-size="10.00">amr&#45;wind/core/FieldRepo.H</text>
</a>
</g>
</g>
<!-- Node2&#45;&gt;Node3 -->
<g id="edge2_Node000002_Node000003" class="edge">
<title>Node2&#45;&gt;Node3</title>
<g id="a_edge2_Node000002_Node000003"><a xlink:title=" ">
<path fill="none" stroke="#63b8ff" d="M1801.13,-301.95C1590.66,-291.7 982.59,-262.08 757.82,-251.13"/>
<polygon fill="#63b8ff" stroke="#63b8ff" points="757.89,-247.63 747.74,-250.64 757.55,-254.62 757.89,-247.63"/>
</a>
</g>
</g>
<!-- Node26 -->
<g id="Node000026" class="node">
<title>Node26</title>
<g id="a_Node000026"><a xlink:href="stencils_8_h.html" target="_top" xlink:title="Second&#45;order finite volume discretization stencil coefficients.">
<polygon fill="white" stroke="#666666" points="2011.5,-255.5 1874.5,-255.5 1874.5,-236.5 2011.5,-236.5 2011.5,-255.5"/>
<text text-anchor="middle" x="1943" y="-243.5" font-family="Helvetica,sans-Serif" font-size="10.00">amr&#45;wind/fvm/stencils.H</text>
</a>
</g>
</g>
<!-- Node2&#45;&gt;Node26 -->
<g id="edge50_Node000002_Node000026" class="edge">
<title>Node2&#45;&gt;Node26</title>
<g id="a_edge50_Node000002_Node000026"><a xlink:title=" ">
<path fill="none" stroke="#63b8ff" d="M1884.18,-296.87C1894.88,-287.8 1911.94,-273.34 1924.93,-262.32"/>
<polygon fill="#63b8ff" stroke="#63b8ff" points="1927.41,-264.8 1932.78,-255.67 1922.89,-259.46 1927.41,-264.8"/>
</a>
</g>
</g>
<!-- Node31 -->
<g id="Node000031" class="node">
<title>Node31</title>
<g id="a_Node000031"><a xlink:href="math__ops_8_h.html" target="_top" xlink:title=" ">
<polygon fill="white" stroke="#666666" points="1856.5,-261 1753.5,-261 1753.5,-231 1856.5,-231 1856.5,-261"/>
<text text-anchor="start" x="1761.5" y="-249" font-family="Helvetica,sans-Serif" font-size="10.00">amr&#45;wind/utilities</text>
<text text-anchor="middle" x="1805" y="-238" font-family="Helvetica,sans-Serif" font-size="10.00">/math_ops.H</text>
</a>
</g>
</g>
<!-- Node2&#45;&gt;Node31 -->
<g id="edge55_Node000002_Node000031" class="edge">
<title>Node2&#45;&gt;Node31</title>
<g id="a_edge55_Node000002_Node000031"><a xlink:title=" ">
<path fill="none" stroke="#63b8ff" d="M1863.82,-296.87C1854.8,-289.22 1841.28,-277.76 1829.47,-267.75"/>
<polygon fill="#63b8ff" stroke="#63b8ff" points="1831.54,-264.91 1821.65,-261.11 1827.01,-270.25 1831.54,-264.91"/>
</a>
</g>
</g>
<!-- Node32 -->
<g id="Node000032" class="node">
<title>Node32</title>
<g id="a_Node000032"><a xlink:title=" ">
<polygon fill="#e0e0e0" stroke="#999999" points="2128,-255.5 2030,-255.5 2030,-236.5 2128,-236.5 2128,-255.5"/>
<text text-anchor="middle" x="2079" y="-243.5" font-family="Helvetica,sans-Serif" font-size="10.00">AMReX_MFIter.H</text>
</a>
</g>
</g>
<!-- Node2&#45;&gt;Node32 -->
<g id="edge58_Node000002_Node000032" class="edge">
<title>Node2&#45;&gt;Node32</title>
<g id="a_edge58_Node000002_Node000032"><a xlink:title=" ">
<path fill="none" stroke="#63b8ff" d="M1903.81,-296.99C1939.56,-286.79 1999.63,-269.65 2039.29,-258.33"/>
<polygon fill="#63b8ff" stroke="#63b8ff" points="2040.5,-261.63 2049.16,-255.52 2038.58,-254.9 2040.5,-261.63"/>
</a>
</g>
</g>
<!-- Node4 -->
<g id="Node000004" class="node">
<title>Node4</title>
<g id="a_Node000004"><a xlink:title=" ">
<polygon fill="#e0e0e0" stroke="#999999" points="811,-74 767,-74 767,-55 811,-55 811,-74"/>
<text text-anchor="middle" x="789" y="-62" font-family="Helvetica,sans-Serif" font-size="10.00">string</text>
</a>
</g>
</g>
<!-- Node3&#45;&gt;Node4 -->
<g id="edge3_Node000003_Node000004" class="edge">
<title>Node3&#45;&gt;Node4</title>
<g id="a_edge3_Node000003_Node000004"><a xlink:title=" ">
<path fill="none" stroke="#63b8ff" d="M747.76,-240.7C820.02,-231.93 924.7,-205.83 968,-129 972.15,-121.64 973.2,-116.65 968,-110 965.7,-107.06 872.08,-84.86 821.17,-72.97"/>
<polygon fill="#63b8ff" stroke="#63b8ff" points="821.84,-69.53 811.31,-70.67 820.25,-76.35 821.84,-69.53"/>
</a>
</g>
</g>
<!-- Node5 -->
<g id="Node000005" class="node">
<title>Node5</title>
<g id="a_Node000005"><a xlink:title=" ">
<polygon fill="#e0e0e0" stroke="#999999" points="1184.5,-129 1091.5,-129 1091.5,-110 1184.5,-110 1184.5,-129"/>
<text text-anchor="middle" x="1138" y="-117" font-family="Helvetica,sans-Serif" font-size="10.00">unordered_map</text>
</a>
</g>
</g>
<!-- Node3&#45;&gt;Node5 -->
<g id="edge4_Node000003_Node000005" class="edge">
<title>Node3&#45;&gt;Node5</title>
<g id="a_edge4_Node000003_Node000005"><a xlink:title=" ">
<path fill="none" stroke="#63b8ff" d="M747.68,-240.99C815.31,-235.64 916.93,-223.3 1001,-195 1044.88,-180.23 1091.26,-151.95 1117.23,-134.8"/>
<polygon fill="#63b8ff" stroke="#63b8ff" points="1119.48,-137.51 1125.83,-129.03 1115.58,-131.7 1119.48,-137.51"/>
</a>
</g>
</g>
<!-- Node6 -->
<g id="Node000006" class="node">
<title>Node6</title>
<g id="a_Node000006"><a xlink:href="_field_desc_types_8_h.html" target="_top" xlink:title=" ">
<polygon fill="white" stroke="#666666" points="627,-74 451,-74 451,-55 627,-55 627,-74"/>
<text text-anchor="middle" x="539" y="-62" font-family="Helvetica,sans-Serif" font-size="10.00">amr&#45;wind/core/FieldDescTypes.H</text>
</a>
</g>
</g>
<!-- Node3&#45;&gt;Node6 -->
<g id="edge5_Node000003_Node000006" class="edge">
<title>Node3&#45;&gt;Node6</title>
<g id="a_edge5_Node000003_Node000006"><a xlink:title=" ">
<path fill="none" stroke="#63b8ff" d="M609.69,-236.49C555.91,-228.11 484.03,-213.84 462,-195 431.88,-169.24 413.17,-143.08 435,-110 445.45,-94.16 462.82,-83.94 480.41,-77.35"/>
<polygon fill="#63b8ff" stroke="#63b8ff" points="481.8,-80.58 490.15,-74.05 479.56,-73.95 481.8,-80.58"/>
</a>
</g>
</g>
<!-- Node8 -->
<g id="Node000008" class="node">
<title>Node8</title>
<g id="a_Node000008"><a xlink:href="_field_utils_8_h.html" target="_top" xlink:title=" ">
<polygon fill="white" stroke="#666666" points="146,-129 0,-129 0,-110 146,-110 146,-129"/>
<text text-anchor="middle" x="73" y="-117" font-family="Helvetica,sans-Serif" font-size="10.00">amr&#45;wind/core/FieldUtils.H</text>
</a>
</g>
</g>
<!-- Node3&#45;&gt;Node8 -->
<g id="edge7_Node000003_Node000008" class="edge">
<title>Node3&#45;&gt;Node8</title>
<g id="a_edge7_Node000003_Node000008"><a xlink:title=" ">
<path fill="none" stroke="#63b8ff" d="M598.24,-242.77C476.99,-238.3 243.31,-225.86 167,-195 166.45,-194.78 119.03,-157.1 91.76,-135.42"/>
<polygon fill="#63b8ff" stroke="#63b8ff" points="93.71,-132.5 83.7,-129.01 89.35,-137.98 93.71,-132.5"/>
</a>
</g>
</g>
<!-- Node9 -->
<g id="Node000009" class="node">
<title>Node9</title>
<g id="a_Node000009"><a xlink:title=" ">
<polygon fill="#e0e0e0" stroke="#999999" points="1117.5,-74 1008.5,-74 1008.5,-55 1117.5,-55 1117.5,-74"/>
<text text-anchor="middle" x="1063" y="-62" font-family="Helvetica,sans-Serif" font-size="10.00">AMReX_MultiFab.H</text>
</a>
</g>
</g>
<!-- Node3&#45;&gt;Node9 -->
<g id="edge48_Node000003_Node000009" class="edge">
<title>Node3&#45;&gt;Node9</title>
<g id="a_edge48_Node000003_Node000009"><a xlink:title=" ">
<path fill="none" stroke="#63b8ff" d="M747.78,-242.67C978.1,-234.72 1664.99,-204.78 1727,-129 1732.35,-122.46 1732.77,-116.17 1727,-110 1706.73,-88.33 1291.18,-72.77 1127.98,-67.48"/>
<polygon fill="#63b8ff" stroke="#63b8ff" points="1127.71,-63.97 1117.61,-67.15 1127.49,-70.97 1127.71,-63.97"/>
</a>
</g>
</g>
<!-- Node11 -->
<g id="Node000011" class="node">
<title>Node11</title>
<g id="a_Node000011"><a xlink:href="_field_8_h.html" target="_top" xlink:title=" ">
<polygon fill="white" stroke="#666666" points="1391,-189.5 1267,-189.5 1267,-170.5 1391,-170.5 1391,-189.5"/>
<text text-anchor="middle" x="1329" y="-177.5" font-family="Helvetica,sans-Serif" font-size="10.00">amr&#45;wind/core/Field.H</text>
</a>
</g>
</g>
<!-- Node3&#45;&gt;Node11 -->
<g id="edge11_Node000003_Node000011" class="edge">
<title>Node3&#45;&gt;Node11</title>
<g id="a_edge11_Node000003_Node000011"><a xlink:title=" ">
<path fill="none" stroke="#63b8ff" d="M747.61,-237.72C874.51,-225.34 1130.78,-200.34 1256.34,-188.09"/>
<polygon fill="#63b8ff" stroke="#63b8ff" points="1257,-191.54 1266.61,-187.09 1256.32,-184.57 1257,-191.54"/>
</a>
</g>
</g>
<!-- Node19 -->
<g id="Node000019" class="node">
<title>Node19</title>
<g id="a_Node000019"><a xlink:href="_int_field_8_h.html" target="_top" xlink:title=" ">
<polygon fill="white" stroke="#666666" points="313.5,-189.5 176.5,-189.5 176.5,-170.5 313.5,-170.5 313.5,-189.5"/>
<text text-anchor="middle" x="245" y="-177.5" font-family="Helvetica,sans-Serif" font-size="10.00">amr&#45;wind/core/IntField.H</text>
</a>
</g>
</g>
<!-- Node3&#45;&gt;Node19 -->
<g id="edge27_Node000003_Node000019" class="edge">
<title>Node3&#45;&gt;Node19</title>
<g id="a_edge27_Node000003_Node000019"><a xlink:title=" ">
<path fill="none" stroke="#63b8ff" d="M611.24,-236.49C542.15,-226.87 426.95,-210.51 328,-195 320.39,-193.81 312.39,-192.51 304.49,-191.21"/>
<polygon fill="#63b8ff" stroke="#63b8ff" points="305,-187.74 294.56,-189.55 303.85,-194.65 305,-187.74"/>
</a>
</g>
</g>
<!-- Node20 -->
<g id="Node000020" class="node">
<title>Node20</title>
<g id="a_Node000020"><a xlink:title=" ">
<polygon fill="#e0e0e0" stroke="#999999" points="352,-129 240,-129 240,-110 352,-110 352,-129"/>
<text text-anchor="middle" x="296" y="-117" font-family="Helvetica,sans-Serif" font-size="10.00">AMReX_iMultiFab.H</text>
</a>
</g>
</g>
<!-- Node3&#45;&gt;Node20 -->
<g id="edge49_Node000003_Node000020" class="edge">
<title>Node3&#45;&gt;Node20</title>
<g id="a_edge49_Node000003_Node000020"><a xlink:title=" ">
<path fill="none" stroke="#63b8ff" d="M598.41,-238.4C520.79,-230.56 405.21,-215.86 366,-195 340.62,-181.49 319.33,-155.25 307.12,-137.79"/>
<polygon fill="#63b8ff" stroke="#63b8ff" points="309.78,-135.49 301.3,-129.14 303.97,-139.39 309.78,-135.49"/>
</a>
</g>
</g>
<!-- Node21 -->
<g id="Node000021" class="node">
<title>Node21</title>
<g id="a_Node000021"><a xlink:href="_scratch_field_8_h.html" target="_top" xlink:title=" ">
<polygon fill="white" stroke="#666666" points="850,-189.5 690,-189.5 690,-170.5 850,-170.5 850,-189.5"/>
<text text-anchor="middle" x="770" y="-177.5" font-family="Helvetica,sans-Serif" font-size="10.00">amr&#45;wind/core/ScratchField.H</text>
</a>
</g>
</g>
<!-- Node3&#45;&gt;Node21 -->
<g id="edge31_Node000003_Node000021" class="edge">
<title>Node3&#45;&gt;Node21</title>
<g id="a_edge31_Node000003_Node000021"><a xlink:title=" ">
<path fill="none" stroke="#63b8ff" d="M686.08,-236.37C702.06,-225.82 729.33,-207.84 748.43,-195.23"/>
<polygon fill="#63b8ff" stroke="#63b8ff" points="750.4,-198.13 756.82,-189.7 746.54,-192.28 750.4,-198.13"/>
</a>
</g>
</g>
<!-- Node24 -->
<g id="Node000024" class="node">
<title>Node24</title>
<g id="a_Node000024"><a xlink:href="_int_scratch_field_8_h.html" target="_top" xlink:title=" ">
<polygon fill="white" stroke="#666666" points="610.5,-195 471.5,-195 471.5,-165 610.5,-165 610.5,-195"/>
<text text-anchor="start" x="479.5" y="-183" font-family="Helvetica,sans-Serif" font-size="10.00">amr&#45;wind/core/IntScratch</text>
<text text-anchor="middle" x="541" y="-172" font-family="Helvetica,sans-Serif" font-size="10.00">Field.H</text>
</a>
</g>
</g>
<!-- Node3&#45;&gt;Node24 -->
<g id="edge39_Node000003_Node000024" class="edge">
<title>Node3&#45;&gt;Node24</title>
<g id="a_edge39_Node000003_Node000024"><a xlink:title=" ">
<path fill="none" stroke="#63b8ff" d="M655.2,-236.37C635.85,-226.99 604.36,-211.72 579.35,-199.59"/>
<polygon fill="#63b8ff" stroke="#63b8ff" points="580.64,-196.33 570.11,-195.12 577.58,-202.63 580.64,-196.33"/>
</a>
</g>
</g>
<!-- Node25 -->
<g id="Node000025" class="node">
<title>Node25</title>
<g id="a_Node000025"><a xlink:title=" ">
<polygon fill="#e0e0e0" stroke="#999999" points="120,-189.5 10,-189.5 10,-170.5 120,-170.5 120,-189.5"/>
<text text-anchor="middle" x="65" y="-177.5" font-family="Helvetica,sans-Serif" font-size="10.00">AMReX_AmrCore.H</text>
</a>
</g>
</g>
<!-- Node3&#45;&gt;Node25 -->
<g id="edge47_Node000003_Node000025" class="edge">
<title>Node3&#45;&gt;Node25</title>
<g id="a_edge47_Node000003_Node000025"><a xlink:title=" ">
<path fill="none" stroke="#63b8ff" d="M598.15,-240.61C493.78,-233.91 298.8,-219.29 134,-195 127.26,-194.01 120.18,-192.78 113.23,-191.47"/>
<polygon fill="#63b8ff" stroke="#63b8ff" points="113.68,-187.99 103.19,-189.51 112.34,-194.86 113.68,-187.99"/>
</a>
</g>
</g>
<!-- Node7 -->
<g id="Node000007" class="node">
<title>Node7</title>
<g id="a_Node000007"><a xlink:title=" ">
<polygon fill="#e0e0e0" stroke="#999999" points="1057,-19 1007,-19 1007,0 1057,0 1057,-19"/>
<text text-anchor="middle" x="1032" y="-7" font-family="Helvetica,sans-Serif" font-size="10.00">cstdint</text>
</a>
</g>
</g>
<!-- Node6&#45;&gt;Node7 -->
<g id="edge6_Node000006_Node000007" class="edge">
<title>Node6&#45;&gt;Node7</title>
<g id="a_edge6_Node000006_Node000007"><a xlink:title=" ">
<path fill="none" stroke="#63b8ff" d="M618.21,-54.98C726.87,-43.3 917.66,-22.79 996.43,-14.32"/>
<polygon fill="#63b8ff" stroke="#63b8ff" points="997.22,-17.76 1006.78,-13.21 996.47,-10.8 997.22,-17.76"/>
</a>
</g>
</g>
<!-- Node8&#45;&gt;Node6 -->
<g id="edge8_Node000008_Node000006" class="edge">
<title>Node8&#45;&gt;Node6</title>
<g id="a_edge8_Node000008_Node000006"><a xlink:title=" ">
<path fill="none" stroke="#63b8ff" d="M146.07,-110.19C229.56,-100.69 365.99,-85.18 454.12,-75.15"/>
<polygon fill="#63b8ff" stroke="#63b8ff" points="454.55,-78.63 464.09,-74.02 453.76,-71.67 454.55,-78.63"/>
</a>
</g>
</g>
<!-- Node8&#45;&gt;Node9 -->
<g id="edge9_Node000008_Node000009" class="edge">
<title>Node8&#45;&gt;Node9</title>
<g id="a_edge9_Node000008_Node000009"><a xlink:title=" ">
<path fill="none" stroke="#63b8ff" d="M146.15,-114.52C172.85,-113.07 203.29,-111.45 231,-110 547.42,-93.49 626.73,-93.19 943,-74 960.95,-72.91 980.39,-71.59 998.3,-70.32"/>
<polygon fill="#63b8ff" stroke="#63b8ff" points="998.63,-73.81 1008.36,-69.6 998.13,-66.83 998.63,-73.81"/>
</a>
</g>
</g>
<!-- Node10 -->
<g id="Node000010" class="node">
<title>Node10</title>
<g id="a_Node000010"><a xlink:title=" ">
<polygon fill="#e0e0e0" stroke="#999999" points="135,-74 11,-74 11,-55 135,-55 135,-74"/>
<text text-anchor="middle" x="73" y="-62" font-family="Helvetica,sans-Serif" font-size="10.00">AMReX_Interpolater.H</text>
</a>
</g>
</g>
<!-- Node8&#45;&gt;Node10 -->
<g id="edge10_Node000008_Node000010" class="edge">
<title>Node8&#45;&gt;Node10</title>
<g id="a_edge10_Node000008_Node000010"><a xlink:title=" ">
<path fill="none" stroke="#63b8ff" d="M73,-109.75C73,-102.8 73,-92.85 73,-84.13"/>
<polygon fill="#63b8ff" stroke="#63b8ff" points="76.5,-84.09 73,-74.09 69.5,-84.09 76.5,-84.09"/>
</a>
</g>
</g>
<!-- Node11&#45;&gt;Node4 -->
<g id="edge12_Node000011_Node000004" class="edge">
<title>Node11&#45;&gt;Node4</title>
<g id="a_edge12_Node000011_Node000004"><a xlink:title=" ">
<path fill="none" stroke="#63b8ff" d="M1319.79,-170.32C1302.92,-155.04 1265.27,-123.63 1227,-110 1058.86,-50.09 1003.36,-101.54 827,-74 825.05,-73.69 823.04,-73.35 821.03,-72.97"/>
<polygon fill="#63b8ff" stroke="#63b8ff" points="821.51,-69.5 811.01,-70.93 820.11,-76.36 821.51,-69.5"/>
</a>
</g>
</g>
<!-- Node11&#45;&gt;Node5 -->
<g id="edge14_Node000011_Node000005" class="edge">
<title>Node11&#45;&gt;Node5</title>
<g id="a_edge14_Node000011_Node000005"><a xlink:title=" ">
<path fill="none" stroke="#63b8ff" d="M1301.23,-170.49C1268.13,-160.36 1212.66,-143.37 1175.71,-132.05"/>
<polygon fill="#63b8ff" stroke="#63b8ff" points="1176.39,-128.6 1165.81,-129.02 1174.34,-135.29 1176.39,-128.6"/>
</a>
</g>
</g>
<!-- Node11&#45;&gt;Node6 -->
<g id="edge21_Node000011_Node000006" class="edge">
<title>Node11&#45;&gt;Node6</title>
<g id="a_edge21_Node000011_Node000006"><a xlink:title=" ">
<path fill="none" stroke="#63b8ff" d="M1310.8,-170.44C1290.28,-160.71 1256,-144.2 1227,-129 1211.67,-120.97 1209.59,-114.93 1193,-110 1141.25,-94.63 806.92,-77.6 637.33,-69.81"/>
<polygon fill="#63b8ff" stroke="#63b8ff" points="637.3,-66.3 627.15,-69.34 636.98,-73.3 637.3,-66.3"/>
</a>
</g>
</g>
<!-- Node11&#45;&gt;Node9 -->
<g id="edge16_Node000011_Node000009" class="edge">
<title>Node11&#45;&gt;Node9</title>
<g id="a_edge16_Node000011_Node000009"><a xlink:title=" ">
<path fill="none" stroke="#63b8ff" d="M1345.43,-170.42C1368.51,-157.28 1405.72,-131.47 1387,-110 1354.05,-72.22 1212.42,-65.39 1127.7,-64.78"/>
<polygon fill="#63b8ff" stroke="#63b8ff" points="1127.68,-61.28 1117.66,-64.74 1127.65,-68.28 1127.68,-61.28"/>
</a>
</g>
</g>
<!-- Node12 -->
<g id="Node000012" class="node">
<title>Node12</title>
<g id="a_Node000012"><a xlink:title=" ">
<polygon fill="#e0e0e0" stroke="#999999" points="1493,-129 1435,-129 1435,-110 1493,-110 1493,-129"/>
<text text-anchor="middle" x="1464" y="-117" font-family="Helvetica,sans-Serif" font-size="10.00">memory</text>
</a>
</g>
</g>
<!-- Node11&#45;&gt;Node12 -->
<g id="edge13_Node000011_Node000012" class="edge">
<title>Node11&#45;&gt;Node12</title>
<g id="a_edge13_Node000011_Node000012"><a xlink:title=" ">
<path fill="none" stroke="#63b8ff" d="M1348.63,-170.49C1371.33,-160.66 1408.9,-144.38 1434.97,-133.08"/>
<polygon fill="#63b8ff" stroke="#63b8ff" points="1436.56,-136.2 1444.35,-129.02 1433.78,-129.78 1436.56,-136.2"/>
</a>
</g>
</g>
<!-- Node13 -->
<g id="Node000013" class="node">
<title>Node13</title>
<g id="a_Node000013"><a xlink:title=" ">
<polygon fill="#e0e0e0" stroke="#999999" points="1575,-129 1511,-129 1511,-110 1575,-110 1575,-129"/>
<text text-anchor="middle" x="1543" y="-117" font-family="Helvetica,sans-Serif" font-size="10.00">algorithm</text>
</a>
</g>
</g>
<!-- Node11&#45;&gt;Node13 -->
<g id="edge15_Node000011_Node000013" class="edge">
<title>Node11&#45;&gt;Node13</title>
<g id="a_edge15_Node000011_Node000013"><a xlink:title=" ">
<path fill="none" stroke="#63b8ff" d="M1360.12,-170.49C1397.6,-160.25 1460.68,-143 1502.07,-131.69"/>
<polygon fill="#63b8ff" stroke="#63b8ff" points="1503.12,-135.03 1511.85,-129.02 1501.28,-128.28 1503.12,-135.03"/>
</a>
</g>
</g>
<!-- Node14 -->
<g id="Node000014" class="node">
<title>Node14</title>
<g id="a_Node000014"><a xlink:title=" ">
<polygon fill="#e0e0e0" stroke="#999999" points="1378.5,-129 1279.5,-129 1279.5,-110 1378.5,-110 1378.5,-129"/>
<text text-anchor="middle" x="1329" y="-117" font-family="Helvetica,sans-Serif" font-size="10.00">AMReX_BCRec.H</text>
</a>
</g>
</g>
<!-- Node11&#45;&gt;Node14 -->
<g id="edge17_Node000011_Node000014" class="edge">
<title>Node11&#45;&gt;Node14</title>
<g id="a_edge17_Node000011_Node000014"><a xlink:title=" ">
<path fill="none" stroke="#63b8ff" d="M1329,-170.37C1329,-162.25 1329,-149.81 1329,-139.39"/>
<polygon fill="#63b8ff" stroke="#63b8ff" points="1332.5,-139.17 1329,-129.17 1325.5,-139.17 1332.5,-139.17"/>
</a>
</g>
</g>
<!-- Node15 -->
<g id="Node000015" class="node">
<title>Node15</title>
<g id="a_Node000015"><a xlink:title=" ">
<polygon fill="#e0e0e0" stroke="#999999" points="1718.5,-129 1631.5,-129 1631.5,-110 1718.5,-110 1718.5,-129"/>
<text text-anchor="middle" x="1675" y="-117" font-family="Helvetica,sans-Serif" font-size="10.00">AMReX_Gpu.H</text>
</a>
</g>
</g>
<!-- Node11&#45;&gt;Node15 -->
<g id="edge18_Node000011_Node000015" class="edge">
<title>Node11&#45;&gt;Node15</title>
<g id="a_edge18_Node000011_Node000015"><a xlink:title=" ">
<path fill="none" stroke="#63b8ff" d="M1379.31,-170.49C1443.8,-159.59 1555.16,-140.76 1621.26,-129.59"/>
<polygon fill="#63b8ff" stroke="#63b8ff" points="1622.19,-132.98 1631.47,-127.86 1621.03,-126.08 1622.19,-132.98"/>
</a>
</g>
</g>
<!-- Node16 -->
<g id="Node000016" class="node">
<title>Node16</title>
<g id="a_Node000016"><a xlink:href="incflo__enums_8_h.html" target="_top" xlink:title=" ">
<polygon fill="white" stroke="#666666" points="1474.5,-74 1333.5,-74 1333.5,-55 1474.5,-55 1474.5,-74"/>
<text text-anchor="middle" x="1404" y="-62" font-family="Helvetica,sans-Serif" font-size="10.00">amr&#45;wind/incflo_enums.H</text>
</a>
</g>
</g>
<!-- Node11&#45;&gt;Node16 -->
<g id="edge19_Node000011_Node000016" class="edge">
<title>Node11&#45;&gt;Node16</title>
<g id="a_edge19_Node000011_Node000016"><a xlink:title=" ">
<path fill="none" stroke="#63b8ff" d="M1391.05,-175.64C1458.54,-170.54 1560.03,-158.13 1584,-129 1616.01,-90.1 1546.52,-75.01 1484.79,-69.16"/>
<polygon fill="#63b8ff" stroke="#63b8ff" points="1484.84,-65.66 1474.57,-68.27 1484.23,-72.63 1484.84,-65.66"/>
</a>
</g>
</g>
<!-- Node17 -->
<g id="Node000017" class="node">
<title>Node17</title>
<g id="a_Node000017"><a xlink:href="_view_field_8_h.html" target="_top" xlink:title=" ">
<polygon fill="white" stroke="#666666" points="959,-129 811,-129 811,-110 959,-110 959,-129"/>
<text text-anchor="middle" x="885" y="-117" font-family="Helvetica,sans-Serif" font-size="10.00">amr&#45;wind/core/ViewField.H</text>
</a>
</g>
</g>
<!-- Node11&#45;&gt;Node17 -->
<g id="edge22_Node000011_Node000017" class="edge">
<title>Node11&#45;&gt;Node17</title>
<g id="a_edge22_Node000011_Node000017"><a xlink:title=" ">
<path fill="none" stroke="#63b8ff" d="M1266.8,-170.8C1186.22,-160.19 1045.88,-141.7 959.65,-130.34"/>
<polygon fill="#63b8ff" stroke="#63b8ff" points="960.04,-126.86 949.66,-129.02 959.12,-133.8 960.04,-126.86"/>
</a>
</g>
</g>
<!-- Node16&#45;&gt;Node7 -->
<g id="edge20_Node000016_Node000007" class="edge">
<title>Node16&#45;&gt;Node7</title>
<g id="a_edge20_Node000016_Node000007"><a xlink:title=" ">
<path fill="none" stroke="#63b8ff" d="M1344.23,-54.98C1265.83,-43.81 1130.76,-24.57 1067.12,-15.5"/>
<polygon fill="#63b8ff" stroke="#63b8ff" points="1067.57,-12.03 1057.17,-14.09 1066.58,-18.96 1067.57,-12.03"/>
</a>
</g>
</g>
<!-- Node17&#45;&gt;Node4 -->
<g id="edge23_Node000017_Node000004" class="edge">
<title>Node17&#45;&gt;Node4</title>
<g id="a_edge23_Node000017_Node000004"><a xlink:title=" ">
<path fill="none" stroke="#63b8ff" d="M869.58,-109.98C854.55,-101.69 831.46,-88.94 813.84,-79.22"/>
<polygon fill="#63b8ff" stroke="#63b8ff" points="815.15,-75.94 804.7,-74.17 811.77,-82.07 815.15,-75.94"/>
</a>
</g>
</g>
<!-- Node17&#45;&gt;Node6 -->
<g id="edge24_Node000017_Node000006" class="edge">
<title>Node17&#45;&gt;Node6</title>
<g id="a_edge24_Node000017_Node000006"><a xlink:title=" ">
<path fill="none" stroke="#63b8ff" d="M829.41,-109.98C768.21,-100.61 669.9,-85.55 604.88,-75.59"/>
<polygon fill="#63b8ff" stroke="#63b8ff" points="605.15,-72.09 594.74,-74.04 604.09,-79.01 605.15,-72.09"/>
</a>
</g>
</g>
<!-- Node17&#45;&gt;Node9 -->
<g id="edge25_Node000017_Node000009" class="edge">
<title>Node17&#45;&gt;Node9</title>
<g id="a_edge25_Node000017_Node000009"><a xlink:title=" ">
<path fill="none" stroke="#63b8ff" d="M913.6,-109.98C943.61,-101.05 990.98,-86.94 1024.32,-77.02"/>
<polygon fill="#63b8ff" stroke="#63b8ff" points="1025.59,-80.29 1034.18,-74.08 1023.59,-73.58 1025.59,-80.29"/>
</a>
</g>
</g>
<!-- Node18 -->
<g id="Node000018" class="node">
<title>Node18</title>
<g id="a_Node000018"><a xlink:title=" ">
<polygon fill="#e0e0e0" stroke="#999999" points="934,-74 836,-74 836,-55 934,-55 934,-74"/>
<text text-anchor="middle" x="885" y="-62" font-family="Helvetica,sans-Serif" font-size="10.00">AMReX_Vector.H</text>
</a>
</g>
</g>
<!-- Node17&#45;&gt;Node18 -->
<g id="edge26_Node000017_Node000018" class="edge">
<title>Node17&#45;&gt;Node18</title>
<g id="a_edge26_Node000017_Node000018"><a xlink:title=" ">
<path fill="none" stroke="#63b8ff" d="M885,-109.75C885,-102.8 885,-92.85 885,-84.13"/>
<polygon fill="#63b8ff" stroke="#63b8ff" points="888.5,-84.09 885,-74.09 881.5,-84.09 888.5,-84.09"/>
</a>
</g>
</g>
<!-- Node19&#45;&gt;Node4 -->
<g id="edge28_Node000019_Node000004" class="edge">
<title>Node19&#45;&gt;Node4</title>
<g id="a_edge28_Node000019_Node000004"><a xlink:title=" ">
<path fill="none" stroke="#63b8ff" d="M238.97,-170.09C229.96,-155.56 215.58,-126.7 231,-110 239.99,-100.26 638.99,-74.8 756.66,-67.49"/>
<polygon fill="#63b8ff" stroke="#63b8ff" points="757.08,-70.97 766.84,-66.86 756.65,-63.98 757.08,-70.97"/>
</a>
</g>
</g>
<!-- Node19&#45;&gt;Node6 -->
<g id="edge29_Node000019_Node000006" class="edge">
<title>Node19&#45;&gt;Node6</title>
<g id="a_edge29_Node000019_Node000006"><a xlink:title=" ">
<path fill="none" stroke="#63b8ff" d="M231.76,-170.45C212.38,-156.92 180.4,-130.04 198,-110 213.91,-91.87 345.64,-78.9 440.6,-71.79"/>
<polygon fill="#63b8ff" stroke="#63b8ff" points="441.12,-75.27 450.83,-71.04 440.6,-68.29 441.12,-75.27"/>
</a>
</g>
</g>
<!-- Node19&#45;&gt;Node20 -->
<g id="edge30_Node000019_Node000020" class="edge">
<title>Node19&#45;&gt;Node20</title>
<g id="a_edge30_Node000019_Node000020"><a xlink:title=" ">
<path fill="none" stroke="#63b8ff" d="M252.53,-170.37C260.21,-161.55 272.32,-147.66 281.81,-136.77"/>
<polygon fill="#63b8ff" stroke="#63b8ff" points="284.51,-139.01 288.44,-129.17 279.23,-134.41 284.51,-139.01"/>
</a>
</g>
</g>
<!-- Node21&#45;&gt;Node4 -->
<g id="edge32_Node000021_Node000004" class="edge">
<title>Node21&#45;&gt;Node4</title>
<g id="a_edge32_Node000021_Node000004"><a xlink:title=" ">
<path fill="none" stroke="#63b8ff" d="M771.43,-170.47C774.48,-152.23 781.71,-109.07 785.88,-84.14"/>
<polygon fill="#63b8ff" stroke="#63b8ff" points="789.36,-84.57 787.56,-74.13 782.45,-83.41 789.36,-84.57"/>
</a>
</g>
</g>
<!-- Node21&#45;&gt;Node6 -->
<g id="edge34_Node000021_Node000006" class="edge">
<title>Node21&#45;&gt;Node6</title>
<g id="a_edge34_Node000021_Node000006"><a xlink:title=" ">
<path fill="none" stroke="#63b8ff" d="M766.81,-170.26C760.94,-155.44 746.98,-125.49 725,-110 699.4,-91.96 667.41,-81.17 637.21,-74.74"/>
<polygon fill="#63b8ff" stroke="#63b8ff" points="637.54,-71.24 627.05,-72.72 636.18,-78.1 637.54,-71.24"/>
</a>
</g>
</g>
<!-- Node21&#45;&gt;Node9 -->
<g id="edge36_Node000021_Node000009" class="edge">
<title>Node21&#45;&gt;Node9</title>
<g id="a_edge36_Node000021_Node000009"><a xlink:title=" ">
<path fill="none" stroke="#63b8ff" d="M842.97,-170.44C885.95,-163.39 940.44,-150.85 985,-129 1009.34,-117.06 1032.85,-96.25 1047.58,-81.72"/>
<polygon fill="#63b8ff" stroke="#63b8ff" points="1050.28,-83.96 1054.81,-74.39 1045.29,-79.05 1050.28,-83.96"/>
</a>
</g>
</g>
<!-- Node21&#45;&gt;Node17 -->
<g id="edge35_Node000021_Node000017" class="edge">
<title>Node21&#45;&gt;Node17</title>
<g id="a_edge35_Node000021_Node000017"><a xlink:title=" ">
<path fill="none" stroke="#63b8ff" d="M786.97,-170.37C805.91,-160.73 836.79,-145.03 858.83,-133.81"/>
<polygon fill="#63b8ff" stroke="#63b8ff" points="860.64,-136.82 867.96,-129.17 857.46,-130.58 860.64,-136.82"/>
</a>
</g>
</g>
<!-- Node21&#45;&gt;Node18 -->
<g id="edge37_Node000021_Node000018" class="edge">
<title>Node21&#45;&gt;Node18</title>
<g id="a_edge37_Node000021_Node000018"><a xlink:title=" ">
<path fill="none" stroke="#63b8ff" d="M839.97,-170.47C890.36,-162.72 952.15,-149.35 968,-129 984.98,-107.2 952.39,-88.87 923.19,-77.59"/>
<polygon fill="#63b8ff" stroke="#63b8ff" points="924.09,-74.19 913.5,-74.04 921.68,-80.76 924.09,-74.19"/>
</a>
</g>
</g>
<!-- Node22 -->
<g id="Node000022" class="node">
<title>Node22</title>
<g id="a_Node000022"><a xlink:title=" ">
<polygon fill="#e0e0e0" stroke="#999999" points="716.5,-129 671.5,-129 671.5,-110 716.5,-110 716.5,-129"/>
<text text-anchor="middle" x="694" y="-117" font-family="Helvetica,sans-Serif" font-size="10.00">utility</text>
</a>
</g>
</g>
<!-- Node21&#45;&gt;Node22 -->
<g id="edge33_Node000021_Node000022" class="edge">
<title>Node21&#45;&gt;Node22</title>
<g id="a_edge33_Node000021_Node000022"><a xlink:title=" ">
<path fill="none" stroke="#63b8ff" d="M758.79,-170.37C746.89,-161.21 727.86,-146.56 713.49,-135.51"/>
<polygon fill="#63b8ff" stroke="#63b8ff" points="715.32,-132.49 705.26,-129.17 711.05,-138.04 715.32,-132.49"/>
</a>
</g>
</g>
<!-- Node23 -->
<g id="Node000023" class="node">
<title>Node23</title>
<g id="a_Node000023"><a xlink:title=" ">
<polygon fill="#e0e0e0" stroke="#999999" points="653.5,-129 522.5,-129 522.5,-110 653.5,-110 653.5,-129"/>
<text text-anchor="middle" x="588" y="-117" font-family="Helvetica,sans-Serif" font-size="10.00">AMReX_PhysBCFunct.H</text>
</a>
</g>
</g>
<!-- Node21&#45;&gt;Node23 -->
<g id="edge38_Node000021_Node000023" class="edge">
<title>Node21&#45;&gt;Node23</title>
<g id="a_edge38_Node000021_Node000023"><a xlink:title=" ">
<path fill="none" stroke="#63b8ff" d="M743.54,-170.49C712.13,-160.4 659.6,-143.51 624.38,-132.19"/>
<polygon fill="#63b8ff" stroke="#63b8ff" points="625.09,-128.74 614.5,-129.02 622.95,-135.41 625.09,-128.74"/>
</a>
</g>
</g>
<!-- Node24&#45;&gt;Node4 -->
<g id="edge40_Node000024_Node000004" class="edge">
<title>Node24&#45;&gt;Node4</title>
<g id="a_edge40_Node000024_Node000004"><a xlink:title=" ">
<path fill="none" stroke="#63b8ff" d="M513.75,-164.8C490.57,-150.9 463.46,-129.09 480,-110 497.97,-89.26 680.92,-73.48 756.55,-67.8"/>
<polygon fill="#63b8ff" stroke="#63b8ff" points="757.18,-71.26 766.9,-67.03 756.67,-64.28 757.18,-71.26"/>
</a>
</g>
</g>
<!-- Node24&#45;&gt;Node6 -->
<g id="edge42_Node000024_Node000006" class="edge">
<title>Node24&#45;&gt;Node6</title>
<g id="a_edge42_Node000024_Node000006"><a xlink:title=" ">
<path fill="none" stroke="#63b8ff" d="M488.58,-164.98C470.62,-157.4 452.44,-145.97 442,-129 426.71,-104.14 459.86,-87.07 491.48,-76.94"/>
<polygon fill="#63b8ff" stroke="#63b8ff" points="492.62,-80.25 501.19,-74.02 490.6,-73.55 492.62,-80.25"/>
</a>
</g>
</g>
<!-- Node24&#45;&gt;Node17 -->
<g id="edge43_Node000024_Node000017" class="edge">
<title>Node24&#45;&gt;Node17</title>
<g id="a_edge43_Node000024_Node000017"><a xlink:title=" ">
<path fill="none" stroke="#63b8ff" d="M610.61,-167.16C673.53,-156.46 765.18,-140.88 824.94,-130.71"/>
<polygon fill="#63b8ff" stroke="#63b8ff" points="825.71,-134.13 834.99,-129.01 824.54,-127.23 825.71,-134.13"/>
</a>
</g>
</g>
<!-- Node24&#45;&gt;Node18 -->
<g id="edge45_Node000024_Node000018" class="edge">
<title>Node24&#45;&gt;Node18</title>
<g id="a_edge45_Node000024_Node000018"><a xlink:title=" ">
<path fill="none" stroke="#63b8ff" d="M527.29,-164.81C514.36,-149.7 498.91,-125.84 513,-110 558.65,-58.68 751.83,-82.45 820,-74 821.75,-73.78 823.52,-73.56 825.31,-73.34"/>
<polygon fill="#63b8ff" stroke="#63b8ff" points="826.2,-76.75 835.68,-72.02 825.32,-69.81 826.2,-76.75"/>
</a>
</g>
</g>
<!-- Node24&#45;&gt;Node20 -->
<g id="edge44_Node000024_Node000020" class="edge">
<title>Node24&#45;&gt;Node20</title>
<g id="a_edge44_Node000024_Node000020"><a xlink:title=" ">
<path fill="none" stroke="#63b8ff" d="M482.32,-164.99C439.21,-154.7 381.48,-140.91 341.76,-131.43"/>
<polygon fill="#63b8ff" stroke="#63b8ff" points="342.36,-127.97 331.82,-129.05 340.74,-134.78 342.36,-127.97"/>
</a>
</g>
</g>
<!-- Node24&#45;&gt;Node22 -->
<g id="edge41_Node000024_Node000022" class="edge">
<title>Node24&#45;&gt;Node22</title>
<g id="a_edge41_Node000024_Node000022"><a xlink:title=" ">
<path fill="none" stroke="#63b8ff" d="M577.65,-164.99C603.29,-155.18 637.22,-142.21 661.82,-132.81"/>
<polygon fill="#63b8ff" stroke="#63b8ff" points="663.31,-135.98 671.41,-129.14 660.81,-129.44 663.31,-135.98"/>
</a>
</g>
</g>
<!-- Node24&#45;&gt;Node23 -->
<g id="edge46_Node000024_Node000023" class="edge">
<title>Node24&#45;&gt;Node23</title>
<g id="a_edge46_Node000024_Node000023"><a xlink:title=" ">
<path fill="none" stroke="#63b8ff" d="M552.38,-164.84C559.06,-156.52 567.55,-145.96 574.56,-137.23"/>
<polygon fill="#63b8ff" stroke="#63b8ff" points="577.42,-139.25 580.96,-129.27 571.97,-134.87 577.42,-139.25"/>
</a>
</g>
</g>
<!-- Node27 -->
<g id="Node000027" class="node">
<title>Node27</title>
<g id="a_Node000027"><a xlink:title=" ">
<polygon fill="#e0e0e0" stroke="#999999" points="1867,-189.5 1775,-189.5 1775,-170.5 1867,-170.5 1867,-189.5"/>
<text text-anchor="middle" x="1821" y="-177.5" font-family="Helvetica,sans-Serif" font-size="10.00">AMReX_REAL.H</text>
</a>
</g>
</g>
<!-- Node26&#45;&gt;Node27 -->
<g id="edge51_Node000026_Node000027" class="edge">
<title>Node26&#45;&gt;Node27</title>
<g id="a_edge51_Node000026_Node000027"><a xlink:title=" ">
<path fill="none" stroke="#63b8ff" d="M1926.55,-236.37C1905.99,-225.59 1870.6,-207.02 1846.51,-194.38"/>
<polygon fill="#63b8ff" stroke="#63b8ff" points="1848.06,-191.25 1837.58,-189.7 1844.81,-197.44 1848.06,-191.25"/>
</a>
</g>
</g>
<!-- Node28 -->
<g id="Node000028" class="node">
<title>Node28</title>
<g id="a_Node000028"><a xlink:title=" ">
<polygon fill="#e0e0e0" stroke="#999999" points="2105,-189.5 2019,-189.5 2019,-170.5 2105,-170.5 2105,-189.5"/>
<text text-anchor="middle" x="2062" y="-177.5" font-family="Helvetica,sans-Serif" font-size="10.00">AMReX_Box.H</text>
</a>
</g>
</g>
<!-- Node26&#45;&gt;Node28 -->
<g id="edge52_Node000026_Node000028" class="edge">
<title>Node26&#45;&gt;Node28</title>
<g id="a_edge52_Node000026_Node000028"><a xlink:title=" ">
<path fill="none" stroke="#63b8ff" d="M1959.05,-236.37C1979.01,-225.63 2013.32,-207.18 2036.8,-194.55"/>
<polygon fill="#63b8ff" stroke="#63b8ff" points="2038.68,-197.52 2045.83,-189.7 2035.36,-191.35 2038.68,-197.52"/>
</a>
</g>
</g>
<!-- Node29 -->
<g id="Node000029" class="node">
<title>Node29</title>
<g id="a_Node000029"><a xlink:title=" ">
<polygon fill="#e0e0e0" stroke="#999999" points="2245,-189.5 2123,-189.5 2123,-170.5 2245,-170.5 2245,-189.5"/>
<text text-anchor="middle" x="2184" y="-177.5" font-family="Helvetica,sans-Serif" font-size="10.00">AMReX_Orientation.H</text>
</a>
</g>
</g>
<!-- Node26&#45;&gt;Node29 -->
<g id="edge53_Node000026_Node000029" class="edge">
<title>Node26&#45;&gt;Node29</title>
<g id="a_edge53_Node000026_Node000029"><a xlink:title=" ">
<path fill="none" stroke="#63b8ff" d="M1975.5,-236.37C2018.47,-224.96 2094.27,-204.83 2141.68,-192.24"/>
<polygon fill="#63b8ff" stroke="#63b8ff" points="2142.86,-195.55 2151.63,-189.6 2141.07,-188.78 2142.86,-195.55"/>
</a>
</g>
</g>
<!-- Node30 -->
<g id="Node000030" class="node">
<title>Node30</title>
<g id="a_Node000030"><a xlink:title=" ">
<polygon fill="#e0e0e0" stroke="#999999" points="2000.5,-189.5 1885.5,-189.5 1885.5,-170.5 2000.5,-170.5 2000.5,-189.5"/>
<text text-anchor="middle" x="1943" y="-177.5" font-family="Helvetica,sans-Serif" font-size="10.00">AMReX_Geometry.H</text>
</a>
</g>
</g>
<!-- Node26&#45;&gt;Node30 -->
<g id="edge54_Node000026_Node000030" class="edge">
<title>Node26&#45;&gt;Node30</title>
<g id="a_edge54_Node000026_Node000030"><a xlink:title=" ">
<path fill="none" stroke="#63b8ff" d="M1943,-236.37C1943,-227.16 1943,-212.29 1943,-200.27"/>
<polygon fill="#63b8ff" stroke="#63b8ff" points="1946.5,-199.91 1943,-189.91 1939.5,-199.91 1946.5,-199.91"/>
</a>
</g>
</g>
<!-- Node31&#45;&gt;Node15 -->
<g id="edge57_Node000031_Node000015" class="edge">
<title>Node31&#45;&gt;Node15</title>
<g id="a_edge57_Node000031_Node000015"><a xlink:title=" ">
<path fill="none" stroke="#63b8ff" d="M1790.34,-230.96C1765.89,-207.55 1716.97,-160.69 1691.41,-136.21"/>
<polygon fill="#63b8ff" stroke="#63b8ff" points="1693.63,-133.5 1683.99,-129.11 1688.79,-138.55 1693.63,-133.5"/>
</a>
</g>
</g>
<!-- Node31&#45;&gt;Node27 -->
<g id="edge56_Node000031_Node000027" class="edge">
<title>Node31&#45;&gt;Node27</title>
<g id="a_edge56_Node000031_Node000027"><a xlink:title=" ">
<path fill="none" stroke="#63b8ff" d="M1808.55,-230.8C1810.85,-221.6 1813.87,-209.53 1816.36,-199.58"/>
<polygon fill="#63b8ff" stroke="#63b8ff" points="1819.76,-200.39 1818.79,-189.84 1812.97,-198.7 1819.76,-200.39"/>
</a>
</g>
</g>
</g>
</svg>
