<?xml version="1.0" encoding="UTF-8" standalone="no"?>
<!DOCTYPE svg PUBLIC "-//W3C//DTD SVG 1.1//EN"
 "http://www.w3.org/Graphics/SVG/1.1/DTD/svg11.dtd">
<!-- Generated by graphviz version 2.43.0 (0)
 -->
<!-- Title: /home/runner/work/amr&#45;wind/amr&#45;wind/amr&#45;wind/overset/overset_ops_routines.cpp Pages: 1 -->
<svg width="2249pt" height="412pt"
 viewBox="0.00 0.00 2248.51 412.00" xmlns="http://www.w3.org/2000/svg" xmlns:xlink="http://www.w3.org/1999/xlink">
<g id="graph0" class="graph" transform="scale(1 1) rotate(0) translate(4 408)">
<title>/home/runner/work/amr&#45;wind/amr&#45;wind/amr&#45;wind/overset/overset_ops_routines.cpp</title>
<!-- Node1 -->
<g id="Node000001" class="node">
<title>Node1</title>
<g id="a_Node000001"><a xlink:title=" ">
<polygon fill="#999999" stroke="#666666" points="2067.51,-404 1883.51,-404 1883.51,-363 2067.51,-363 2067.51,-404"/>
<text text-anchor="start" x="1891.51" y="-392" font-family="Helvetica,sans-Serif" font-size="10.00">/home/runner/work/amr</text>
<text text-anchor="start" x="1891.51" y="-381" font-family="Helvetica,sans-Serif" font-size="10.00">&#45;wind/amr&#45;wind/amr&#45;wind</text>
<text text-anchor="middle" x="1975.51" y="-370" font-family="Helvetica,sans-Serif" font-size="10.00">/overset/overset_ops_routines.cpp</text>
</a>
</g>
</g>
<!-- Node2 -->
<g id="Node000002" class="node">
<title>Node2</title>
<g id="a_Node000002"><a xlink:href="overset__ops__routines_8_h.html" target="_top" xlink:title=" ">
<polygon fill="white" stroke="#666666" points="1829.01,-327 1686.01,-327 1686.01,-297 1829.01,-297 1829.01,-327"/>
<text text-anchor="start" x="1694.01" y="-315" font-family="Helvetica,sans-Serif" font-size="10.00">amr&#45;wind/overset/overset</text>
<text text-anchor="middle" x="1757.51" y="-304" font-family="Helvetica,sans-Serif" font-size="10.00">_ops_routines.H</text>
</a>
</g>
</g>
<!-- Node1&#45;&gt;Node2 -->
<g id="edge1_Node000001_Node000002" class="edge">
<title>Node1&#45;&gt;Node2</title>
<g id="a_edge1_Node000001_Node000002"><a xlink:title=" ">
<path fill="none" stroke="#63b8ff" d="M1914.21,-362.96C1881.82,-352.63 1842.44,-340.07 1811.25,-330.13"/>
<polygon fill="#63b8ff" stroke="#63b8ff" points="1812.03,-326.71 1801.44,-327 1809.9,-333.38 1812.03,-326.71"/>
</a>
</g>
</g>
<!-- Node10 -->
<g id="Node000010" class="node">
<title>Node10</title>
<g id="a_Node000010"><a xlink:title=" ">
<polygon fill="#e0e0e0" stroke="#999999" points="2240.51,-129 2148.51,-129 2148.51,-110 2240.51,-110 2240.51,-129"/>
<text text-anchor="middle" x="2194.51" y="-117" font-family="Helvetica,sans-Serif" font-size="10.00">AMReX_REAL.H</text>
</a>
</g>
</g>
<!-- Node1&#45;&gt;Node10 -->
<g id="edge61_Node000001_Node000010" class="edge">
<title>Node1&#45;&gt;Node10</title>
<g id="a_edge61_Node000001_Node000010"><a xlink:title=" ">
<path fill="none" stroke="#63b8ff" d="M2001.68,-362.74C2041.85,-331.23 2118.92,-265.86 2165.51,-195 2176.92,-177.64 2184.9,-155.12 2189.56,-139.4"/>
<polygon fill="#63b8ff" stroke="#63b8ff" points="2193.06,-139.9 2192.37,-129.33 2186.32,-138.02 2193.06,-139.9"/>
</a>
</g>
</g>
<!-- Node3 -->
<g id="Node000003" class="node">
<title>Node3</title>
<g id="a_Node000003"><a xlink:title=" ">
<polygon fill="#e0e0e0" stroke="#999999" points="730.51,-129 618.51,-129 618.51,-110 730.51,-110 730.51,-129"/>
<text text-anchor="middle" x="674.51" y="-117" font-family="Helvetica,sans-Serif" font-size="10.00">AMReX_iMultiFab.H</text>
</a>
</g>
</g>
<!-- Node2&#45;&gt;Node3 -->
<g id="edge2_Node000002_Node000003" class="edge">
<title>Node2&#45;&gt;Node3</title>
<g id="a_edge2_Node000002_Node000003"><a xlink:title=" ">
<path fill="none" stroke="#63b8ff" d="M1685.89,-309.04C1504.55,-303.74 1030.72,-287.7 875.51,-261 772.39,-243.26 712.28,-278.72 649.51,-195 636.53,-177.69 649.23,-153.22 660.78,-137.12"/>
<polygon fill="#63b8ff" stroke="#63b8ff" points="663.59,-139.2 666.9,-129.13 658.04,-134.94 663.59,-139.2"/>
</a>
</g>
</g>
<!-- Node4 -->
<g id="Node000004" class="node">
<title>Node4</title>
<g id="a_Node000004"><a xlink:title=" ">
<polygon fill="#e0e0e0" stroke="#999999" points="1533.01,-74 1424.01,-74 1424.01,-55 1533.01,-55 1533.01,-74"/>
<text text-anchor="middle" x="1478.51" y="-62" font-family="Helvetica,sans-Serif" font-size="10.00">AMReX_MultiFab.H</text>
</a>
</g>
</g>
<!-- Node2&#45;&gt;Node4 -->
<g id="edge3_Node000002_Node000004" class="edge">
<title>Node2&#45;&gt;Node4</title>
<g id="a_edge3_Node000002_Node000004"><a xlink:title=" ">
<path fill="none" stroke="#63b8ff" d="M1761.3,-296.79C1770.08,-260.36 1787.49,-162.81 1738.51,-110 1725.33,-95.79 1615.89,-80.91 1543.26,-72.47"/>
<polygon fill="#63b8ff" stroke="#63b8ff" points="1543.6,-68.98 1533.27,-71.32 1542.8,-75.94 1543.6,-68.98"/>
</a>
</g>
</g>
<!-- Node5 -->
<g id="Node000005" class="node">
<title>Node5</title>
<g id="a_Node000005"><a xlink:href="volume__fractions_8_h.html" target="_top" xlink:title=" ">
<polygon fill="white" stroke="#666666" points="2048.01,-261 1893.01,-261 1893.01,-231 2048.01,-231 2048.01,-261"/>
<text text-anchor="start" x="1901.01" y="-249" font-family="Helvetica,sans-Serif" font-size="10.00">amr&#45;wind/equation_systems</text>
<text text-anchor="middle" x="1970.51" y="-238" font-family="Helvetica,sans-Serif" font-size="10.00">/vof/volume_fractions.H</text>
</a>
</g>
</g>
<!-- Node2&#45;&gt;Node5 -->
<g id="edge4_Node000002_Node000005" class="edge">
<title>Node2&#45;&gt;Node5</title>
<g id="a_edge4_Node000002_Node000005"><a xlink:title=" ">
<path fill="none" stroke="#63b8ff" d="M1804.25,-296.95C1836.58,-287.24 1879.76,-274.27 1914.01,-263.98"/>
<polygon fill="#63b8ff" stroke="#63b8ff" points="1915.31,-267.24 1923.88,-261.01 1913.29,-260.54 1915.31,-267.24"/>
</a>
</g>
</g>
<!-- Node13 -->
<g id="Node000013" class="node">
<title>Node13</title>
<g id="a_Node000013"><a xlink:href="_field_repo_8_h.html" target="_top" xlink:title=" ">
<polygon fill="white" stroke="#666666" points="1034.01,-255.5 885.01,-255.5 885.01,-236.5 1034.01,-236.5 1034.01,-255.5"/>
<text text-anchor="middle" x="959.51" y="-243.5" font-family="Helvetica,sans-Serif" font-size="10.00">amr&#45;wind/core/FieldRepo.H</text>
</a>
</g>
</g>
<!-- Node2&#45;&gt;Node13 -->
<g id="edge13_Node000002_Node000013" class="edge">
<title>Node2&#45;&gt;Node13</title>
<g id="a_edge13_Node000002_Node000013"><a xlink:title=" ">
<path fill="none" stroke="#63b8ff" d="M1685.99,-305.26C1538.69,-293.45 1202.07,-266.45 1044.19,-253.79"/>
<polygon fill="#63b8ff" stroke="#63b8ff" points="1044.3,-250.29 1034.05,-252.98 1043.74,-257.27 1044.3,-250.29"/>
</a>
</g>
</g>
<!-- Node6 -->
<g id="Node000006" class="node">
<title>Node6</title>
<g id="a_Node000006"><a xlink:title=" ">
<polygon fill="#e0e0e0" stroke="#999999" points="1903.01,-189.5 1786.01,-189.5 1786.01,-170.5 1903.01,-170.5 1903.01,-189.5"/>
<text text-anchor="middle" x="1844.51" y="-177.5" font-family="Helvetica,sans-Serif" font-size="10.00">AMReX_FArrayBox.H</text>
</a>
</g>
</g>
<!-- Node5&#45;&gt;Node6 -->
<g id="edge5_Node000005_Node000006" class="edge">
<title>Node5&#45;&gt;Node6</title>
<g id="a_edge5_Node000005_Node000006"><a xlink:title=" ">
<path fill="none" stroke="#63b8ff" d="M1942.86,-230.95C1921.25,-219.98 1891.43,-204.83 1870.31,-194.11"/>
<polygon fill="#63b8ff" stroke="#63b8ff" points="1871.78,-190.93 1861.28,-189.52 1868.61,-197.17 1871.78,-190.93"/>
</a>
</g>
</g>
<!-- Node7 -->
<g id="Node000007" class="node">
<title>Node7</title>
<g id="a_Node000007"><a xlink:title=" ">
<polygon fill="#e0e0e0" stroke="#999999" points="1527.51,-129 1463.51,-129 1463.51,-110 1527.51,-110 1527.51,-129"/>
<text text-anchor="middle" x="1495.51" y="-117" font-family="Helvetica,sans-Serif" font-size="10.00">algorithm</text>
</a>
</g>
</g>
<!-- Node5&#45;&gt;Node7 -->
<g id="edge6_Node000005_Node000007" class="edge">
<title>Node5&#45;&gt;Node7</title>
<g id="a_edge6_Node000005_Node000007"><a xlink:title=" ">
<path fill="none" stroke="#63b8ff" d="M1977.38,-230.84C1984.87,-213.08 1993.79,-182.8 1977.51,-165 1947.17,-131.83 1619.25,-133.4 1574.51,-129 1562.62,-127.83 1549.73,-126.48 1537.88,-125.2"/>
<polygon fill="#63b8ff" stroke="#63b8ff" points="1538.1,-121.71 1527.78,-124.11 1537.35,-128.66 1538.1,-121.71"/>
</a>
</g>
</g>
<!-- Node8 -->
<g id="Node000008" class="node">
<title>Node8</title>
<g id="a_Node000008"><a xlink:title=" ">
<polygon fill="#e0e0e0" stroke="#999999" points="1968.01,-189.5 1921.01,-189.5 1921.01,-170.5 1968.01,-170.5 1968.01,-189.5"/>
<text text-anchor="middle" x="1944.51" y="-177.5" font-family="Helvetica,sans-Serif" font-size="10.00">cmath</text>
</a>
</g>
</g>
<!-- Node5&#45;&gt;Node8 -->
<g id="edge7_Node000005_Node000008" class="edge">
<title>Node5&#45;&gt;Node8</title>
<g id="a_edge7_Node000005_Node000008"><a xlink:title=" ">
<path fill="none" stroke="#63b8ff" d="M1964.74,-230.8C1960.97,-221.5 1956,-209.27 1951.93,-199.26"/>
<polygon fill="#63b8ff" stroke="#63b8ff" points="1955.11,-197.79 1948.1,-189.84 1948.63,-200.43 1955.11,-197.79"/>
</a>
</g>
</g>
<!-- Node9 -->
<g id="Node000009" class="node">
<title>Node9</title>
<g id="a_Node000009"><a xlink:href="constants_8_h.html" target="_top" xlink:title=" ">
<polygon fill="white" stroke="#666666" points="2128.01,-195 2025.01,-195 2025.01,-165 2128.01,-165 2128.01,-195"/>
<text text-anchor="start" x="2033.01" y="-183" font-family="Helvetica,sans-Serif" font-size="10.00">amr&#45;wind/utilities</text>
<text text-anchor="middle" x="2076.51" y="-172" font-family="Helvetica,sans-Serif" font-size="10.00">/constants.H</text>
</a>
</g>
</g>
<!-- Node5&#45;&gt;Node9 -->
<g id="edge8_Node000005_Node000009" class="edge">
<title>Node5&#45;&gt;Node9</title>
<g id="a_edge8_Node000005_Node000009"><a xlink:title=" ">
<path fill="none" stroke="#63b8ff" d="M1993.77,-230.95C2008.69,-221.95 2028.24,-210.14 2044.6,-200.27"/>
<polygon fill="#63b8ff" stroke="#63b8ff" points="2046.55,-203.18 2053.3,-195.01 2042.93,-197.18 2046.55,-203.18"/>
</a>
</g>
</g>
<!-- Node5&#45;&gt;Node10 -->
<g id="edge12_Node000005_Node000010" class="edge">
<title>Node5&#45;&gt;Node10</title>
<g id="a_edge12_Node000005_Node000010"><a xlink:title=" ">
<path fill="none" stroke="#63b8ff" d="M2048.14,-232.39C2077.94,-224.93 2111.11,-213.23 2137.51,-195 2158.8,-180.3 2175.61,-155.17 2185.31,-138.2"/>
<polygon fill="#63b8ff" stroke="#63b8ff" points="2188.45,-139.75 2190.18,-129.3 2182.31,-136.39 2188.45,-139.75"/>
</a>
</g>
</g>
<!-- Node9&#45;&gt;Node10 -->
<g id="edge9_Node000009_Node000010" class="edge">
<title>Node9&#45;&gt;Node10</title>
<g id="a_edge9_Node000009_Node000010"><a xlink:title=" ">
<path fill="none" stroke="#63b8ff" d="M2104.78,-164.99C2123.94,-155.49 2149.1,-143.02 2167.9,-133.69"/>
<polygon fill="#63b8ff" stroke="#63b8ff" points="2169.68,-136.72 2177.09,-129.14 2166.57,-130.45 2169.68,-136.72"/>
</a>
</g>
</g>
<!-- Node11 -->
<g id="Node000011" class="node">
<title>Node11</title>
<g id="a_Node000011"><a xlink:title=" ">
<polygon fill="#e0e0e0" stroke="#999999" points="1978.51,-129 1886.51,-129 1886.51,-110 1978.51,-110 1978.51,-129"/>
<text text-anchor="middle" x="1932.51" y="-117" font-family="Helvetica,sans-Serif" font-size="10.00">AMReX_Math.H</text>
</a>
</g>
</g>
<!-- Node9&#45;&gt;Node11 -->
<g id="edge10_Node000009_Node000011" class="edge">
<title>Node9&#45;&gt;Node11</title>
<g id="a_edge10_Node000009_Node000011"><a xlink:title=" ">
<path fill="none" stroke="#63b8ff" d="M2042.02,-164.99C2017.99,-155.23 1986.24,-142.33 1963.11,-132.93"/>
<polygon fill="#63b8ff" stroke="#63b8ff" points="1964.36,-129.66 1953.78,-129.14 1961.72,-136.15 1964.36,-129.66"/>
</a>
</g>
</g>
<!-- Node12 -->
<g id="Node000012" class="node">
<title>Node12</title>
<g id="a_Node000012"><a xlink:title=" ">
<polygon fill="#e0e0e0" stroke="#999999" points="2130.51,-129 1996.51,-129 1996.51,-110 2130.51,-110 2130.51,-129"/>
<text text-anchor="middle" x="2063.51" y="-117" font-family="Helvetica,sans-Serif" font-size="10.00">AMReX_GpuQualifiers.H</text>
</a>
</g>
</g>
<!-- Node9&#45;&gt;Node12 -->
<g id="edge11_Node000009_Node000012" class="edge">
<title>Node9&#45;&gt;Node12</title>
<g id="a_edge11_Node000009_Node000012"><a xlink:title=" ">
<path fill="none" stroke="#63b8ff" d="M2073.36,-164.84C2071.65,-157.13 2069.51,-147.49 2067.66,-139.17"/>
<polygon fill="#63b8ff" stroke="#63b8ff" points="2071.05,-138.27 2065.46,-129.27 2064.21,-139.79 2071.05,-138.27"/>
</a>
</g>
</g>
<!-- Node13&#45;&gt;Node3 -->
<g id="edge60_Node000013_Node000003" class="edge">
<title>Node13&#45;&gt;Node3</title>
<g id="a_edge60_Node000013_Node000003"><a xlink:title=" ">
<path fill="none" stroke="#63b8ff" d="M884.85,-243.2C805.57,-239.54 687.84,-228.44 659.51,-195 646.11,-179.18 654.81,-154.71 663.54,-138.17"/>
<polygon fill="#63b8ff" stroke="#63b8ff" points="666.58,-139.89 668.5,-129.47 660.5,-136.42 666.58,-139.89"/>
</a>
</g>
</g>
<!-- Node13&#45;&gt;Node4 -->
<g id="edge59_Node000013_Node000004" class="edge">
<title>Node13&#45;&gt;Node4</title>
<g id="a_edge59_Node000013_Node000004"><a xlink:title=" ">
<path fill="none" stroke="#63b8ff" d="M1034.15,-241.34C1175.5,-232.69 1473.79,-205.58 1536.51,-129 1551.16,-111.11 1526.86,-91.62 1505.37,-79.02"/>
<polygon fill="#63b8ff" stroke="#63b8ff" points="1506.9,-75.87 1496.46,-74.07 1503.5,-81.99 1506.9,-75.87"/>
</a>
</g>
</g>
<!-- Node14 -->
<g id="Node000014" class="node">
<title>Node14</title>
<g id="a_Node000014"><a xlink:title=" ">
<polygon fill="#e0e0e0" stroke="#999999" points="600.51,-74 556.51,-74 556.51,-55 600.51,-55 600.51,-74"/>
<text text-anchor="middle" x="578.51" y="-62" font-family="Helvetica,sans-Serif" font-size="10.00">string</text>
</a>
</g>
</g>
<!-- Node13&#45;&gt;Node14 -->
<g id="edge14_Node000013_Node000014" class="edge">
<title>Node13&#45;&gt;Node14</title>
<g id="a_edge14_Node000013_Node000014"><a xlink:title=" ">
<path fill="none" stroke="#63b8ff" d="M966.33,-236.34C977.88,-220.53 998.47,-186.66 981.51,-165 958.19,-135.22 702.1,-87.37 610.69,-71.11"/>
<polygon fill="#63b8ff" stroke="#63b8ff" points="611.09,-67.63 600.63,-69.33 609.87,-74.52 611.09,-67.63"/>
</a>
</g>
</g>
<!-- Node15 -->
<g id="Node000015" class="node">
<title>Node15</title>
<g id="a_Node000015"><a xlink:title=" ">
<polygon fill="#e0e0e0" stroke="#999999" points="994.01,-129 901.01,-129 901.01,-110 994.01,-110 994.01,-129"/>
<text text-anchor="middle" x="947.51" y="-117" font-family="Helvetica,sans-Serif" font-size="10.00">unordered_map</text>
</a>
</g>
</g>
<!-- Node13&#45;&gt;Node15 -->
<g id="edge15_Node000013_Node000015" class="edge">
<title>Node13&#45;&gt;Node15</title>
<g id="a_edge15_Node000013_Node000015"><a xlink:title=" ">
<path fill="none" stroke="#63b8ff" d="M974.4,-236.5C987.73,-227.95 1006.37,-213.41 1014.51,-195 1019.91,-182.81 1020.81,-176.75 1014.51,-165 1007,-151 992.94,-140.66 979.63,-133.48"/>
<polygon fill="#63b8ff" stroke="#63b8ff" points="981.14,-130.33 970.62,-129.02 978.03,-136.6 981.14,-130.33"/>
</a>
</g>
</g>
<!-- Node16 -->
<g id="Node000016" class="node">
<title>Node16</title>
<g id="a_Node000016"><a xlink:href="_field_desc_types_8_h.html" target="_top" xlink:title=" ">
<polygon fill="white" stroke="#666666" points="903.51,-74 727.51,-74 727.51,-55 903.51,-55 903.51,-74"/>
<text text-anchor="middle" x="815.51" y="-62" font-family="Helvetica,sans-Serif" font-size="10.00">amr&#45;wind/core/FieldDescTypes.H</text>
</a>
</g>
</g>
<!-- Node13&#45;&gt;Node16 -->
<g id="edge16_Node000013_Node000016" class="edge">
<title>Node13&#45;&gt;Node16</title>
<g id="a_edge16_Node000013_Node000016"><a xlink:title=" ">
<path fill="none" stroke="#63b8ff" d="M924.09,-236.44C900.93,-229.1 871.7,-216.26 853.51,-195 826.05,-162.91 818.42,-111.81 816.31,-84.38"/>
<polygon fill="#63b8ff" stroke="#63b8ff" points="819.79,-83.97 815.7,-74.19 812.81,-84.38 819.79,-83.97"/>
</a>
</g>
</g>
<!-- Node18 -->
<g id="Node000018" class="node">
<title>Node18</title>
<g id="a_Node000018"><a xlink:href="_field_utils_8_h.html" target="_top" xlink:title=" ">
<polygon fill="white" stroke="#666666" points="1729.51,-129 1583.51,-129 1583.51,-110 1729.51,-110 1729.51,-129"/>
<text text-anchor="middle" x="1656.51" y="-117" font-family="Helvetica,sans-Serif" font-size="10.00">amr&#45;wind/core/FieldUtils.H</text>
</a>
</g>
</g>
<!-- Node13&#45;&gt;Node18 -->
<g id="edge18_Node000013_Node000018" class="edge">
<title>Node13&#45;&gt;Node18</title>
<g id="a_edge18_Node000013_Node000018"><a xlink:title=" ">
<path fill="none" stroke="#63b8ff" d="M1034.14,-244.58C1175.06,-242.87 1474.68,-234.53 1569.51,-195 1599.8,-182.38 1627.18,-155.08 1642.83,-137.26"/>
<polygon fill="#63b8ff" stroke="#63b8ff" points="1645.71,-139.27 1649.53,-129.39 1640.38,-134.74 1645.71,-139.27"/>
</a>
</g>
</g>
<!-- Node20 -->
<g id="Node000020" class="node">
<title>Node20</title>
<g id="a_Node000020"><a xlink:href="_field_8_h.html" target="_top" xlink:title=" ">
<polygon fill="white" stroke="#666666" points="1190.51,-189.5 1066.51,-189.5 1066.51,-170.5 1190.51,-170.5 1190.51,-189.5"/>
<text text-anchor="middle" x="1128.51" y="-177.5" font-family="Helvetica,sans-Serif" font-size="10.00">amr&#45;wind/core/Field.H</text>
</a>
</g>
</g>
<!-- Node13&#45;&gt;Node20 -->
<g id="edge22_Node000013_Node000020" class="edge">
<title>Node13&#45;&gt;Node20</title>
<g id="a_edge22_Node000013_Node000020"><a xlink:title=" ">
<path fill="none" stroke="#63b8ff" d="M982.3,-236.37C1011.62,-225.27 1062.71,-205.92 1096.07,-193.28"/>
<polygon fill="#63b8ff" stroke="#63b8ff" points="1097.7,-196.41 1105.81,-189.6 1095.22,-189.86 1097.7,-196.41"/>
</a>
</g>
</g>
<!-- Node27 -->
<g id="Node000027" class="node">
<title>Node27</title>
<g id="a_Node000027"><a xlink:href="_int_field_8_h.html" target="_top" xlink:title=" ">
<polygon fill="white" stroke="#666666" points="806.01,-189.5 669.01,-189.5 669.01,-170.5 806.01,-170.5 806.01,-189.5"/>
<text text-anchor="middle" x="737.51" y="-177.5" font-family="Helvetica,sans-Serif" font-size="10.00">amr&#45;wind/core/IntField.H</text>
</a>
</g>
</g>
<!-- Node13&#45;&gt;Node27 -->
<g id="edge38_Node000013_Node000027" class="edge">
<title>Node13&#45;&gt;Node27</title>
<g id="a_edge38_Node000013_Node000027"><a xlink:title=" ">
<path fill="none" stroke="#63b8ff" d="M929.57,-236.37C890.15,-225 820.75,-205 777.05,-192.4"/>
<polygon fill="#63b8ff" stroke="#63b8ff" points="777.91,-189 767.33,-189.6 775.97,-195.73 777.91,-189"/>
</a>
</g>
</g>
<!-- Node28 -->
<g id="Node000028" class="node">
<title>Node28</title>
<g id="a_Node000028"><a xlink:href="_scratch_field_8_h.html" target="_top" xlink:title=" ">
<polygon fill="white" stroke="#666666" points="224.51,-189.5 64.51,-189.5 64.51,-170.5 224.51,-170.5 224.51,-189.5"/>
<text text-anchor="middle" x="144.51" y="-177.5" font-family="Helvetica,sans-Serif" font-size="10.00">amr&#45;wind/core/ScratchField.H</text>
</a>
</g>
</g>
<!-- Node13&#45;&gt;Node28 -->
<g id="edge42_Node000013_Node000028" class="edge">
<title>Node13&#45;&gt;Node28</title>
<g id="a_edge42_Node000013_Node000028"><a xlink:title=" ">
<path fill="none" stroke="#63b8ff" d="M884.66,-239.12C734.59,-227.34 397.42,-200.86 235.15,-188.12"/>
<polygon fill="#63b8ff" stroke="#63b8ff" points="234.96,-184.59 224.72,-187.3 234.41,-191.57 234.96,-184.59"/>
</a>
</g>
</g>
<!-- Node31 -->
<g id="Node000031" class="node">
<title>Node31</title>
<g id="a_Node000031"><a xlink:href="_int_scratch_field_8_h.html" target="_top" xlink:title=" ">
<polygon fill="white" stroke="#666666" points="507.01,-195 368.01,-195 368.01,-165 507.01,-165 507.01,-195"/>
<text text-anchor="start" x="376.01" y="-183" font-family="Helvetica,sans-Serif" font-size="10.00">amr&#45;wind/core/IntScratch</text>
<text text-anchor="middle" x="437.51" y="-172" font-family="Helvetica,sans-Serif" font-size="10.00">Field.H</text>
</a>
</g>
</g>
<!-- Node13&#45;&gt;Node31 -->
<g id="edge50_Node000013_Node000031" class="edge">
<title>Node13&#45;&gt;Node31</title>
<g id="a_edge50_Node000013_Node000031"><a xlink:title=" ">
<path fill="none" stroke="#63b8ff" d="M889.92,-236.47C793.32,-224.62 618.99,-203.25 517.25,-190.78"/>
<polygon fill="#63b8ff" stroke="#63b8ff" points="517.39,-187.27 507.04,-189.52 516.54,-194.22 517.39,-187.27"/>
</a>
</g>
</g>
<!-- Node32 -->
<g id="Node000032" class="node">
<title>Node32</title>
<g id="a_Node000032"><a xlink:title=" ">
<polygon fill="#e0e0e0" stroke="#999999" points="972.51,-189.5 862.51,-189.5 862.51,-170.5 972.51,-170.5 972.51,-189.5"/>
<text text-anchor="middle" x="917.51" y="-177.5" font-family="Helvetica,sans-Serif" font-size="10.00">AMReX_AmrCore.H</text>
</a>
</g>
</g>
<!-- Node13&#45;&gt;Node32 -->
<g id="edge58_Node000013_Node000032" class="edge">
<title>Node13&#45;&gt;Node32</title>
<g id="a_edge58_Node000013_Node000032"><a xlink:title=" ">
<path fill="none" stroke="#63b8ff" d="M953.85,-236.37C947.49,-226.69 937.03,-210.74 928.95,-198.44"/>
<polygon fill="#63b8ff" stroke="#63b8ff" points="931.77,-196.35 923.36,-189.91 925.92,-200.19 931.77,-196.35"/>
</a>
</g>
</g>
<!-- Node17 -->
<g id="Node000017" class="node">
<title>Node17</title>
<g id="a_Node000017"><a xlink:title=" ">
<polygon fill="#e0e0e0" stroke="#999999" points="1008.51,-19 958.51,-19 958.51,0 1008.51,0 1008.51,-19"/>
<text text-anchor="middle" x="983.51" y="-7" font-family="Helvetica,sans-Serif" font-size="10.00">cstdint</text>
</a>
</g>
</g>
<!-- Node16&#45;&gt;Node17 -->
<g id="edge17_Node000016_Node000017" class="edge">
<title>Node16&#45;&gt;Node17</title>
<g id="a_edge17_Node000016_Node000017"><a xlink:title=" ">
<path fill="none" stroke="#63b8ff" d="M842.5,-54.98C871.38,-45.88 917.27,-31.4 948.81,-21.45"/>
<polygon fill="#63b8ff" stroke="#63b8ff" points="950.02,-24.74 958.51,-18.39 947.92,-18.06 950.02,-24.74"/>
</a>
</g>
</g>
<!-- Node18&#45;&gt;Node4 -->
<g id="edge20_Node000018_Node000004" class="edge">
<title>Node18&#45;&gt;Node4</title>
<g id="a_edge20_Node000018_Node000004"><a xlink:title=" ">
<path fill="none" stroke="#63b8ff" d="M1627.91,-109.98C1597.9,-101.05 1550.53,-86.94 1517.2,-77.02"/>
<polygon fill="#63b8ff" stroke="#63b8ff" points="1517.92,-73.58 1507.33,-74.08 1515.92,-80.29 1517.92,-73.58"/>
</a>
</g>
</g>
<!-- Node18&#45;&gt;Node16 -->
<g id="edge19_Node000018_Node000016" class="edge">
<title>Node18&#45;&gt;Node16</title>
<g id="a_edge19_Node000018_Node000016"><a xlink:title=" ">
<path fill="none" stroke="#63b8ff" d="M1583.22,-113.2C1567.8,-112.12 1551.62,-111 1536.51,-110 1314.02,-95.25 1052.79,-79.53 913.96,-71.29"/>
<polygon fill="#63b8ff" stroke="#63b8ff" points="913.96,-67.79 903.77,-70.69 913.54,-74.77 913.96,-67.79"/>
</a>
</g>
</g>
<!-- Node19 -->
<g id="Node000019" class="node">
<title>Node19</title>
<g id="a_Node000019"><a xlink:title=" ">
<polygon fill="#e0e0e0" stroke="#999999" points="1718.51,-74 1594.51,-74 1594.51,-55 1718.51,-55 1718.51,-74"/>
<text text-anchor="middle" x="1656.51" y="-62" font-family="Helvetica,sans-Serif" font-size="10.00">AMReX_Interpolater.H</text>
</a>
</g>
</g>
<!-- Node18&#45;&gt;Node19 -->
<g id="edge21_Node000018_Node000019" class="edge">
<title>Node18&#45;&gt;Node19</title>
<g id="a_edge21_Node000018_Node000019"><a xlink:title=" ">
<path fill="none" stroke="#63b8ff" d="M1656.51,-109.75C1656.51,-102.8 1656.51,-92.85 1656.51,-84.13"/>
<polygon fill="#63b8ff" stroke="#63b8ff" points="1660.01,-84.09 1656.51,-74.09 1653.01,-84.09 1660.01,-84.09"/>
</a>
</g>
</g>
<!-- Node20&#45;&gt;Node4 -->
<g id="edge27_Node000020_Node000004" class="edge">
<title>Node20&#45;&gt;Node4</title>
<g id="a_edge27_Node000020_Node000004"><a xlink:title=" ">
<path fill="none" stroke="#63b8ff" d="M1190.57,-175.72C1246.53,-170.87 1330.01,-158.83 1396.51,-129 1422.29,-117.43 1447.28,-96.18 1462.76,-81.47"/>
<polygon fill="#63b8ff" stroke="#63b8ff" points="1465.62,-83.57 1470.33,-74.07 1460.73,-78.56 1465.62,-83.57"/>
</a>
</g>
</g>
<!-- Node20&#45;&gt;Node7 -->
<g id="edge26_Node000020_Node000007" class="edge">
<title>Node20&#45;&gt;Node7</title>
<g id="a_edge26_Node000020_Node000007"><a xlink:title=" ">
<path fill="none" stroke="#63b8ff" d="M1186.58,-170.46C1250.94,-160.87 1357.77,-144.62 1449.51,-129 1450.77,-128.79 1452.05,-128.56 1453.34,-128.34"/>
<polygon fill="#63b8ff" stroke="#63b8ff" points="1454.13,-131.76 1463.36,-126.56 1452.9,-124.86 1454.13,-131.76"/>
</a>
</g>
</g>
<!-- Node20&#45;&gt;Node14 -->
<g id="edge23_Node000020_Node000014" class="edge">
<title>Node20&#45;&gt;Node14</title>
<g id="a_edge23_Node000020_Node000014"><a xlink:title=" ">
<path fill="none" stroke="#63b8ff" d="M1112.52,-170.39C1094.15,-160.47 1063.1,-143.65 1036.51,-129 1021.35,-120.64 1019.01,-115.23 1002.51,-110 929.44,-86.83 697.02,-72.02 610.96,-67.21"/>
<polygon fill="#63b8ff" stroke="#63b8ff" points="610.93,-63.7 600.75,-66.65 610.54,-70.69 610.93,-63.7"/>
</a>
</g>
</g>
<!-- Node20&#45;&gt;Node15 -->
<g id="edge25_Node000020_Node000015" class="edge">
<title>Node20&#45;&gt;Node15</title>
<g id="a_edge25_Node000020_Node000015"><a xlink:title=" ">
<path fill="none" stroke="#63b8ff" d="M1102.19,-170.49C1070.96,-160.4 1018.71,-143.51 983.69,-132.19"/>
<polygon fill="#63b8ff" stroke="#63b8ff" points="984.45,-128.76 973.86,-129.02 982.3,-135.42 984.45,-128.76"/>
</a>
</g>
</g>
<!-- Node20&#45;&gt;Node16 -->
<g id="edge32_Node000020_Node000016" class="edge">
<title>Node20&#45;&gt;Node16</title>
<g id="a_edge32_Node000020_Node000016"><a xlink:title=" ">
<path fill="none" stroke="#63b8ff" d="M1119.74,-170.23C1104.33,-155.36 1070.77,-125.34 1036.51,-110 997.9,-92.71 952.5,-82.08 912.92,-75.58"/>
<polygon fill="#63b8ff" stroke="#63b8ff" points="913.41,-72.12 902.99,-74.02 912.32,-79.03 913.41,-72.12"/>
</a>
</g>
</g>
<!-- Node21 -->
<g id="Node000021" class="node">
<title>Node21</title>
<g id="a_Node000021"><a xlink:title=" ">
<polygon fill="#e0e0e0" stroke="#999999" points="1146.51,-129 1088.51,-129 1088.51,-110 1146.51,-110 1146.51,-129"/>
<text text-anchor="middle" x="1117.51" y="-117" font-family="Helvetica,sans-Serif" font-size="10.00">memory</text>
</a>
</g>
</g>
<!-- Node20&#45;&gt;Node21 -->
<g id="edge24_Node000020_Node000021" class="edge">
<title>Node20&#45;&gt;Node21</title>
<g id="a_edge24_Node000020_Node000021"><a xlink:title=" ">
<path fill="none" stroke="#63b8ff" d="M1126.89,-170.37C1125.34,-162.16 1122.97,-149.54 1121,-139.05"/>
<polygon fill="#63b8ff" stroke="#63b8ff" points="1124.43,-138.35 1119.14,-129.17 1117.55,-139.64 1124.43,-138.35"/>
</a>
</g>
</g>
<!-- Node22 -->
<g id="Node000022" class="node">
<title>Node22</title>
<g id="a_Node000022"><a xlink:title=" ">
<polygon fill="#e0e0e0" stroke="#999999" points="1264.01,-129 1165.01,-129 1165.01,-110 1264.01,-110 1264.01,-129"/>
<text text-anchor="middle" x="1214.51" y="-117" font-family="Helvetica,sans-Serif" font-size="10.00">AMReX_BCRec.H</text>
</a>
</g>
</g>
<!-- Node20&#45;&gt;Node22 -->
<g id="edge28_Node000020_Node000022" class="edge">
<title>Node20&#45;&gt;Node22</title>
<g id="a_edge28_Node000020_Node000022"><a xlink:title=" ">
<path fill="none" stroke="#63b8ff" d="M1141.2,-170.37C1154.92,-161.04 1177.01,-146.01 1193.37,-134.88"/>
<polygon fill="#63b8ff" stroke="#63b8ff" points="1195.47,-137.69 1201.77,-129.17 1191.53,-131.9 1195.47,-137.69"/>
</a>
</g>
</g>
<!-- Node23 -->
<g id="Node000023" class="node">
<title>Node23</title>
<g id="a_Node000023"><a xlink:title=" ">
<polygon fill="#e0e0e0" stroke="#999999" points="1369.01,-129 1282.01,-129 1282.01,-110 1369.01,-110 1369.01,-129"/>
<text text-anchor="middle" x="1325.51" y="-117" font-family="Helvetica,sans-Serif" font-size="10.00">AMReX_Gpu.H</text>
</a>
</g>
</g>
<!-- Node20&#45;&gt;Node23 -->
<g id="edge29_Node000020_Node000023" class="edge">
<title>Node20&#45;&gt;Node23</title>
<g id="a_edge29_Node000020_Node000023"><a xlink:title=" ">
<path fill="none" stroke="#63b8ff" d="M1157.16,-170.49C1191.44,-160.31 1248.99,-143.22 1287.11,-131.9"/>
<polygon fill="#63b8ff" stroke="#63b8ff" points="1288.24,-135.22 1296.83,-129.02 1286.25,-128.51 1288.24,-135.22"/>
</a>
</g>
</g>
<!-- Node24 -->
<g id="Node000024" class="node">
<title>Node24</title>
<g id="a_Node000024"><a xlink:href="incflo__enums_8_h.html" target="_top" xlink:title=" ">
<polygon fill="white" stroke="#666666" points="1247.01,-74 1106.01,-74 1106.01,-55 1247.01,-55 1247.01,-74"/>
<text text-anchor="middle" x="1176.51" y="-62" font-family="Helvetica,sans-Serif" font-size="10.00">amr&#45;wind/incflo_enums.H</text>
</a>
</g>
</g>
<!-- Node20&#45;&gt;Node24 -->
<g id="edge30_Node000020_Node000024" class="edge">
<title>Node20&#45;&gt;Node24</title>
<g id="a_edge30_Node000020_Node000024"><a xlink:title=" ">
<path fill="none" stroke="#63b8ff" d="M1190.55,-175.36C1256.72,-170.04 1355.18,-157.45 1378.51,-129 1415.55,-83.82 1328.74,-70.26 1257.59,-66.48"/>
<polygon fill="#63b8ff" stroke="#63b8ff" points="1257.37,-62.96 1247.22,-65.99 1257.04,-69.96 1257.37,-62.96"/>
</a>
</g>
</g>
<!-- Node25 -->
<g id="Node000025" class="node">
<title>Node25</title>
<g id="a_Node000025"><a xlink:href="_view_field_8_h.html" target="_top" xlink:title=" ">
<polygon fill="white" stroke="#666666" points="562.51,-129 414.51,-129 414.51,-110 562.51,-110 562.51,-129"/>
<text text-anchor="middle" x="488.51" y="-117" font-family="Helvetica,sans-Serif" font-size="10.00">amr&#45;wind/core/ViewField.H</text>
</a>
</g>
</g>
<!-- Node20&#45;&gt;Node25 -->
<g id="edge33_Node000020_Node000025" class="edge">
<title>Node20&#45;&gt;Node25</title>
<g id="a_edge33_Node000020_Node000025"><a xlink:title=" ">
<path fill="none" stroke="#63b8ff" d="M1066.29,-173.01C1040.12,-170.5 1009.34,-167.58 981.51,-165 838.12,-151.7 671.22,-136.75 573.02,-128"/>
<polygon fill="#63b8ff" stroke="#63b8ff" points="573.13,-124.5 562.86,-127.1 572.51,-131.47 573.13,-124.5"/>
</a>
</g>
</g>
<!-- Node24&#45;&gt;Node17 -->
<g id="edge31_Node000024_Node000017" class="edge">
<title>Node24&#45;&gt;Node17</title>
<g id="a_edge31_Node000024_Node000017"><a xlink:title=" ">
<path fill="none" stroke="#63b8ff" d="M1145.5,-54.98C1110.73,-45.44 1054.48,-29.99 1018.25,-20.04"/>
<polygon fill="#63b8ff" stroke="#63b8ff" points="1019.17,-16.66 1008.6,-17.39 1017.32,-23.41 1019.17,-16.66"/>
</a>
</g>
</g>
<!-- Node25&#45;&gt;Node4 -->
<g id="edge36_Node000025_Node000004" class="edge">
<title>Node25&#45;&gt;Node4</title>
<g id="a_edge36_Node000025_Node000004"><a xlink:title=" ">
<path fill="none" stroke="#63b8ff" d="M562.73,-113.06C578.18,-111.99 594.38,-110.92 609.51,-110 910.09,-91.75 1269.47,-74.94 1413.82,-68.39"/>
<polygon fill="#63b8ff" stroke="#63b8ff" points="1414.01,-71.89 1423.84,-67.94 1413.69,-64.89 1414.01,-71.89"/>
</a>
</g>
</g>
<!-- Node25&#45;&gt;Node14 -->
<g id="edge34_Node000025_Node000014" class="edge">
<title>Node25&#45;&gt;Node14</title>
<g id="a_edge34_Node000025_Node000014"><a xlink:title=" ">
<path fill="none" stroke="#63b8ff" d="M502.97,-109.98C516.93,-101.77 538.3,-89.18 554.76,-79.49"/>
<polygon fill="#63b8ff" stroke="#63b8ff" points="556.95,-82.26 563.79,-74.17 553.4,-76.23 556.95,-82.26"/>
</a>
</g>
</g>
<!-- Node25&#45;&gt;Node16 -->
<g id="edge35_Node000025_Node000016" class="edge">
<title>Node25&#45;&gt;Node16</title>
<g id="a_edge35_Node000025_Node000016"><a xlink:title=" ">
<path fill="none" stroke="#63b8ff" d="M541.05,-109.98C598.77,-100.63 691.42,-85.61 752.87,-75.65"/>
<polygon fill="#63b8ff" stroke="#63b8ff" points="753.52,-79.09 762.83,-74.04 752.4,-72.18 753.52,-79.09"/>
</a>
</g>
</g>
<!-- Node26 -->
<g id="Node000026" class="node">
<title>Node26</title>
<g id="a_Node000026"><a xlink:title=" ">
<polygon fill="#e0e0e0" stroke="#999999" points="397.51,-74 299.51,-74 299.51,-55 397.51,-55 397.51,-74"/>
<text text-anchor="middle" x="348.51" y="-62" font-family="Helvetica,sans-Serif" font-size="10.00">AMReX_Vector.H</text>
</a>
</g>
</g>
<!-- Node25&#45;&gt;Node26 -->
<g id="edge37_Node000025_Node000026" class="edge">
<title>Node25&#45;&gt;Node26</title>
<g id="a_edge37_Node000025_Node000026"><a xlink:title=" ">
<path fill="none" stroke="#63b8ff" d="M466.02,-109.98C442.99,-101.27 406.97,-87.63 380.88,-77.75"/>
<polygon fill="#63b8ff" stroke="#63b8ff" points="382.01,-74.44 371.41,-74.17 379.53,-80.98 382.01,-74.44"/>
</a>
</g>
</g>
<!-- Node27&#45;&gt;Node3 -->
<g id="edge41_Node000027_Node000003" class="edge">
<title>Node27&#45;&gt;Node3</title>
<g id="a_edge41_Node000027_Node000003"><a xlink:title=" ">
<path fill="none" stroke="#63b8ff" d="M728.22,-170.37C718.54,-161.38 703.17,-147.11 691.35,-136.14"/>
<polygon fill="#63b8ff" stroke="#63b8ff" points="693.55,-133.41 683.85,-129.17 688.79,-138.54 693.55,-133.41"/>
</a>
</g>
</g>
<!-- Node27&#45;&gt;Node14 -->
<g id="edge39_Node000027_Node000014" class="edge">
<title>Node27&#45;&gt;Node14</title>
<g id="a_edge39_Node000027_Node000014"><a xlink:title=" ">
<path fill="none" stroke="#63b8ff" d="M740.91,-170.32C745.84,-156.12 753.01,-127.74 739.51,-110 724.01,-89.63 653.32,-76.19 610.94,-69.81"/>
<polygon fill="#63b8ff" stroke="#63b8ff" points="611.22,-66.32 600.82,-68.34 610.21,-73.24 611.22,-66.32"/>
</a>
</g>
</g>
<!-- Node27&#45;&gt;Node16 -->
<g id="edge40_Node000027_Node000016" class="edge">
<title>Node27&#45;&gt;Node16</title>
<g id="a_edge40_Node000027_Node000016"><a xlink:title=" ">
<path fill="none" stroke="#63b8ff" d="M743.75,-170.18C750.78,-160.21 762.54,-143.49 772.51,-129 783.33,-113.29 795.5,-95.28 804.13,-82.47"/>
<polygon fill="#63b8ff" stroke="#63b8ff" points="807.04,-84.41 809.71,-74.16 801.23,-80.5 807.04,-84.41"/>
</a>
</g>
</g>
<!-- Node28&#45;&gt;Node4 -->
<g id="edge47_Node000028_Node000004" class="edge">
<title>Node28&#45;&gt;Node4</title>
<g id="a_edge47_Node000028_Node000004"><a xlink:title=" ">
<path fill="none" stroke="#63b8ff" d="M135.62,-170.22C122.14,-155.87 99.78,-127.27 116.51,-110 160.6,-64.49 1193.18,-76.21 1256.51,-74 1309.44,-72.15 1369.45,-69.84 1413.73,-68.1"/>
<polygon fill="#63b8ff" stroke="#63b8ff" points="1413.92,-71.59 1423.78,-67.7 1413.65,-64.6 1413.92,-71.59"/>
</a>
</g>
</g>
<!-- Node28&#45;&gt;Node14 -->
<g id="edge43_Node000028_Node000014" class="edge">
<title>Node28&#45;&gt;Node14</title>
<g id="a_edge43_Node000028_Node000014"><a xlink:title=" ">
<path fill="none" stroke="#63b8ff" d="M112.63,-170.46C75.12,-158.93 20.9,-136.75 45.51,-110 62.56,-91.46 433.68,-72.38 546.36,-66.99"/>
<polygon fill="#63b8ff" stroke="#63b8ff" points="546.61,-70.49 556.43,-66.52 546.28,-63.49 546.61,-70.49"/>
</a>
</g>
</g>
<!-- Node28&#45;&gt;Node16 -->
<g id="edge45_Node000028_Node000016" class="edge">
<title>Node28&#45;&gt;Node16</title>
<g id="a_edge45_Node000028_Node000016"><a xlink:title=" ">
<path fill="none" stroke="#63b8ff" d="M127.17,-170.35C102.81,-157.13 63.57,-131.19 83.51,-110 94.23,-98.61 520.12,-78.47 717.25,-69.74"/>
<polygon fill="#63b8ff" stroke="#63b8ff" points="717.48,-73.23 727.32,-69.29 717.17,-66.24 717.48,-73.23"/>
</a>
</g>
</g>
<!-- Node28&#45;&gt;Node25 -->
<g id="edge46_Node000028_Node000025" class="edge">
<title>Node28&#45;&gt;Node25</title>
<g id="a_edge46_Node000028_Node000025"><a xlink:title=" ">
<path fill="none" stroke="#63b8ff" d="M194.53,-170.49C256.57,-159.94 362.22,-141.98 428.54,-130.7"/>
<polygon fill="#63b8ff" stroke="#63b8ff" points="429.16,-134.14 438.43,-129.02 427.99,-127.24 429.16,-134.14"/>
</a>
</g>
</g>
<!-- Node28&#45;&gt;Node26 -->
<g id="edge48_Node000028_Node000026" class="edge">
<title>Node28&#45;&gt;Node26</title>
<g id="a_edge48_Node000028_Node000026"><a xlink:title=" ">
<path fill="none" stroke="#63b8ff" d="M88.38,-170.49C39.19,-160.73 -20.43,-141.82 7.51,-110 25.78,-89.19 196.7,-75.17 289.39,-69.03"/>
<polygon fill="#63b8ff" stroke="#63b8ff" points="289.73,-72.51 299.48,-68.37 289.27,-65.53 289.73,-72.51"/>
</a>
</g>
</g>
<!-- Node29 -->
<g id="Node000029" class="node">
<title>Node29</title>
<g id="a_Node000029"><a xlink:title=" ">
<polygon fill="#e0e0e0" stroke="#999999" points="320.01,-129 275.01,-129 275.01,-110 320.01,-110 320.01,-129"/>
<text text-anchor="middle" x="297.51" y="-117" font-family="Helvetica,sans-Serif" font-size="10.00">utility</text>
</a>
</g>
</g>
<!-- Node28&#45;&gt;Node29 -->
<g id="edge44_Node000028_Node000029" class="edge">
<title>Node28&#45;&gt;Node29</title>
<g id="a_edge44_Node000028_Node000029"><a xlink:title=" ">
<path fill="none" stroke="#63b8ff" d="M166.76,-170.49C192.82,-160.53 236.19,-143.95 265.78,-132.63"/>
<polygon fill="#63b8ff" stroke="#63b8ff" points="267.15,-135.86 275.24,-129.02 264.65,-129.32 267.15,-135.86"/>
</a>
</g>
</g>
<!-- Node30 -->
<g id="Node000030" class="node">
<title>Node30</title>
<g id="a_Node000030"><a xlink:title=" ">
<polygon fill="#e0e0e0" stroke="#999999" points="257.01,-129 126.01,-129 126.01,-110 257.01,-110 257.01,-129"/>
<text text-anchor="middle" x="191.51" y="-117" font-family="Helvetica,sans-Serif" font-size="10.00">AMReX_PhysBCFunct.H</text>
</a>
</g>
</g>
<!-- Node28&#45;&gt;Node30 -->
<g id="edge49_Node000028_Node000030" class="edge">
<title>Node28&#45;&gt;Node30</title>
<g id="a_edge49_Node000028_Node000030"><a xlink:title=" ">
<path fill="none" stroke="#63b8ff" d="M151.45,-170.37C158.46,-161.64 169.47,-147.93 178.18,-137.09"/>
<polygon fill="#63b8ff" stroke="#63b8ff" points="181.01,-139.16 184.55,-129.17 175.56,-134.77 181.01,-139.16"/>
</a>
</g>
</g>
<!-- Node31&#45;&gt;Node3 -->
<g id="edge55_Node000031_Node000003" class="edge">
<title>Node31&#45;&gt;Node3</title>
<g id="a_edge55_Node000031_Node000003"><a xlink:title=" ">
<path fill="none" stroke="#63b8ff" d="M494.28,-164.99C535.89,-154.72 591.59,-140.97 630,-131.49"/>
<polygon fill="#63b8ff" stroke="#63b8ff" points="630.99,-134.85 639.86,-129.05 629.31,-128.05 630.99,-134.85"/>
</a>
</g>
</g>
<!-- Node31&#45;&gt;Node14 -->
<g id="edge51_Node000031_Node000014" class="edge">
<title>Node31&#45;&gt;Node14</title>
<g id="a_edge51_Node000031_Node000014"><a xlink:title=" ">
<path fill="none" stroke="#63b8ff" d="M422.43,-164.76C408.7,-150.05 392.4,-126.91 405.51,-110 422.58,-87.99 500.85,-74.96 546.04,-69.14"/>
<polygon fill="#63b8ff" stroke="#63b8ff" points="546.73,-72.59 556.23,-67.88 545.87,-65.64 546.73,-72.59"/>
</a>
</g>
</g>
<!-- Node31&#45;&gt;Node16 -->
<g id="edge53_Node000031_Node000016" class="edge">
<title>Node31&#45;&gt;Node16</title>
<g id="a_edge53_Node000031_Node000016"><a xlink:title=" ">
<path fill="none" stroke="#63b8ff" d="M478.72,-164.91C505.45,-155.45 540.89,-142.32 571.51,-129 588.83,-121.47 591.7,-116.26 609.51,-110 654.38,-94.22 706.79,-82.99 747.52,-75.76"/>
<polygon fill="#63b8ff" stroke="#63b8ff" points="748.36,-79.17 757.61,-74.01 747.16,-72.27 748.36,-79.17"/>
</a>
</g>
</g>
<!-- Node31&#45;&gt;Node25 -->
<g id="edge54_Node000031_Node000025" class="edge">
<title>Node31&#45;&gt;Node25</title>
<g id="a_edge54_Node000031_Node000025"><a xlink:title=" ">
<path fill="none" stroke="#63b8ff" d="M449.86,-164.84C457.18,-156.43 466.51,-145.74 474.16,-136.96"/>
<polygon fill="#63b8ff" stroke="#63b8ff" points="476.94,-139.1 480.87,-129.27 471.66,-134.5 476.94,-139.1"/>
</a>
</g>
</g>
<!-- Node31&#45;&gt;Node26 -->
<g id="edge56_Node000031_Node000026" class="edge">
<title>Node31&#45;&gt;Node26</title>
<g id="a_edge56_Node000031_Node000026"><a xlink:title=" ">
<path fill="none" stroke="#63b8ff" d="M413.15,-164.98C399.62,-156.14 383.37,-143.64 372.51,-129 362.53,-115.54 356.23,-97.44 352.6,-84.01"/>
<polygon fill="#63b8ff" stroke="#63b8ff" points="355.94,-82.91 350.16,-74.03 349.14,-84.58 355.94,-82.91"/>
</a>
</g>
</g>
<!-- Node31&#45;&gt;Node29 -->
<g id="edge52_Node000031_Node000029" class="edge">
<title>Node31&#45;&gt;Node29</title>
<g id="a_edge52_Node000031_Node000029"><a xlink:title=" ">
<path fill="none" stroke="#63b8ff" d="M403.98,-164.99C380.72,-155.27 350.02,-142.44 327.56,-133.06"/>
<polygon fill="#63b8ff" stroke="#63b8ff" points="328.76,-129.77 318.19,-129.14 326.06,-136.22 328.76,-129.77"/>
</a>
</g>
</g>
<!-- Node31&#45;&gt;Node30 -->
<g id="edge57_Node000031_Node000030" class="edge">
<title>Node31&#45;&gt;Node30</title>
<g id="a_edge57_Node000031_Node000030"><a xlink:title=" ">
<path fill="none" stroke="#63b8ff" d="M378.59,-164.99C335.31,-154.7 277.34,-140.91 237.46,-131.43"/>
<polygon fill="#63b8ff" stroke="#63b8ff" points="238.02,-127.96 227.48,-129.05 236.4,-134.77 238.02,-127.96"/>
</a>
</g>
</g>
</g>
</svg>
