<?xml version="1.0" encoding="UTF-8" standalone="no"?>
<!DOCTYPE svg PUBLIC "-//W3C//DTD SVG 1.1//EN"
 "http://www.w3.org/Graphics/SVG/1.1/DTD/svg11.dtd">
<!-- Generated by graphviz version 2.43.0 (0)
 -->
<!-- Title: /home/runner/work/amr&#45;wind/amr&#45;wind/amr&#45;wind/overset/overset_ops_routines.H Pages: 1 -->
<!--zoomable 346 -->

<svg id="main" version="1.1" xmlns="http://www.w3.org/2000/svg" xmlns:xlink="http://www.w3.org/1999/xlink" xml:space="preserve" onload="init(evt)">

<style type="text/css"><![CDATA[
.node, .edge {opacity: 0.7;}
.node.selected, .edge.selected {opacity: 1;}
.edge:hover path { stroke: red; }
.edge:hover polygon { stroke: red; fill: red; }
]]></style>

<defs>
  <circle id="rim" cx="0" cy="0" r="7"/>
  <circle id="rim2" cx="0" cy="0" r="3.5"/>
  <g id="zoomPlus">
    <use xlink:href="#rim" fill="#404040"><set attributeName="fill" to="#808080" begin="zoomplus.mouseover" end="zoomplus.mouseout"/></use>
    <path d="M-4,0h8M0,-4v8" fill="none" stroke="white" stroke-width="1.5" pointer-events="none"/>
  </g>
  <g id="zoomMin">
    <use xlink:href="#rim" fill="#404040"><set attributeName="fill" to="#808080" begin="zoomminus.mouseover" end="zoomminus.mouseout"/></use>
    <path d="M-4,0h8" fill="none" stroke="white" stroke-width="1.5" pointer-events="none"/>
  </g>
  <g id="arrowUp" transform="translate(30 24)">
    <use xlink:href="#rim"/>
    <path pointer-events="none" fill="none" stroke="white" stroke-width="1.5" d="M0,-3.0v7 M-2.5,-0.5L0,-3.0L2.5,-0.5"/>
  </g>
  <g id="arrowRight" transform="rotate(90) translate(36 -43)">
    <use xlink:href="#rim"/>
    <path pointer-events="none" fill="none" stroke="white" stroke-width="1.5" d="M0,-3.0v7 M-2.5,-0.5L0,-3.0L2.5,-0.5"/>
  </g>
  <g id="arrowDown" transform="rotate(180) translate(-30 -48)">
    <use xlink:href="#rim"/>
    <path pointer-events="none" fill="none" stroke="white" stroke-width="1.5" d="M0,-3.0v7 M-2.5,-0.5L0,-3.0L2.5,-0.5"/>
  </g>
  <g id="arrowLeft" transform="rotate(270) translate(-36 17)">
    <use xlink:href="#rim"/>
    <path pointer-events="none" fill="none" stroke="white" stroke-width="1.5" d="M0,-3.0v7 M-2.5,-0.5L0,-3.0L2.5,-0.5"/>
  </g>
  <g id="resetDef">
    <use xlink:href="#rim2" fill="#404040"><set attributeName="fill" to="#808080" begin="reset.mouseover" end="reset.mouseout"/></use>
  </g>
</defs>
<script type="application/ecmascript">
var viewWidth = 2249;
var viewHeight = 346;
var sectionId = 'dynsection-0';
</script>
<script type="application/ecmascript" xlink:href="svg.min.js"/>
<svg id="graph" class="graph">
<g id="viewport">
<title>/home/runner/work/amr&#45;wind/amr&#45;wind/amr&#45;wind/overset/overset_ops_routines.H</title>
<!-- Node1 -->
<g id="Node000001" class="node">
<title>Node1</title>
<g id="a_Node000001"><a xlink:title=" ">
<polygon fill="#999999" stroke="#666666" points="804,-338 630,-338 630,-297 804,-297 804,-338"/>
<text text-anchor="start" x="638" y="-326" font-family="Helvetica,sans-Serif" font-size="10.00">/home/runner/work/amr</text>
<text text-anchor="start" x="638" y="-315" font-family="Helvetica,sans-Serif" font-size="10.00">&#45;wind/amr&#45;wind/amr&#45;wind</text>
<text text-anchor="middle" x="717" y="-304" font-family="Helvetica,sans-Serif" font-size="10.00">/overset/overset_ops_routines.H</text>
</a>
</g>
</g>
<!-- Node2 -->
<g id="Node000002" class="node">
<title>Node2</title>
<g id="a_Node000002"><a xlink:title=" ">
<polygon fill="#e0e0e0" stroke="#999999" points="536,-129 424,-129 424,-110 536,-110 536,-129"/>
<text text-anchor="middle" x="480" y="-117" font-family="Helvetica,sans-Serif" font-size="10.00">AMReX_iMultiFab.H</text>
</a>
</g>
</g>
<!-- Node1&#45;&gt;Node2 -->
<g id="edge1_Node000001_Node000002" class="edge">
<title>Node1&#45;&gt;Node2</title>
<g id="a_edge1_Node000001_Node000002"><a xlink:title=" ">
<path fill="none" stroke="#63b8ff" d="M648.79,-296.94C598.15,-278.81 531.6,-246.7 494,-195 482.29,-178.9 479.53,-155.81 479.23,-139.62"/>
<polygon fill="#63b8ff" stroke="#63b8ff" points="482.74,-139.28 479.36,-129.24 475.74,-139.2 482.74,-139.28"/>
</a>
</g>
</g>
<!-- Node3 -->
<g id="Node000003" class="node">
<title>Node3</title>
<g id="a_Node000003"><a xlink:title=" ">
<polygon fill="#e0e0e0" stroke="#999999" points="1698.5,-74 1589.5,-74 1589.5,-55 1698.5,-55 1698.5,-74"/>
<text text-anchor="middle" x="1644" y="-62" font-family="Helvetica,sans-Serif" font-size="10.00">AMReX_MultiFab.H</text>
</a>
</g>
</g>
<!-- Node1&#45;&gt;Node3 -->
<g id="edge2_Node000001_Node000003" class="edge">
<title>Node1&#45;&gt;Node3</title>
<g id="a_edge2_Node000001_Node000003"><a xlink:title=" ">
<path fill="none" stroke="#63b8ff" d="M804.19,-311.53C1096.58,-293.96 2028.76,-230.34 2113,-129 2118.4,-122.51 2118.68,-116.25 2113,-110 2086.34,-80.69 1831.26,-70.25 1708.88,-66.91"/>
<polygon fill="#63b8ff" stroke="#63b8ff" points="1708.97,-63.41 1698.88,-66.65 1708.79,-70.41 1708.97,-63.41"/>
</a>
</g>
</g>
<!-- Node4 -->
<g id="Node000004" class="node">
<title>Node4</title>
<g id="a_Node000004"><a xlink:href="volume__fractions_8_h.html" target="_top" xlink:title=" ">
<polygon fill="white" stroke="#666666" points="377.5,-261 222.5,-261 222.5,-231 377.5,-231 377.5,-261"/>
<text text-anchor="start" x="230.5" y="-249" font-family="Helvetica,sans-Serif" font-size="10.00">amr&#45;wind/equation_systems</text>
<text text-anchor="middle" x="300" y="-238" font-family="Helvetica,sans-Serif" font-size="10.00">/vof/volume_fractions.H</text>
</a>
</g>
</g>
<!-- Node1&#45;&gt;Node4 -->
<g id="edge3_Node000001_Node000004" class="edge">
<title>Node1&#45;&gt;Node4</title>
<g id="a_edge3_Node000001_Node000004"><a xlink:title=" ">
<path fill="none" stroke="#63b8ff" d="M629.84,-301.97C558.84,-290.14 459.04,-273.51 387.86,-261.64"/>
<polygon fill="#63b8ff" stroke="#63b8ff" points="388.01,-258.12 377.57,-259.93 386.86,-265.02 388.01,-258.12"/>
</a>
</g>
</g>
<!-- Node12 -->
<g id="Node000012" class="node">
<title>Node12</title>
<g id="a_Node000012"><a xlink:href="_field_repo_8_h.html" target="_top" xlink:title=" ">
<polygon fill="white" stroke="#666666" points="1174.5,-255.5 1025.5,-255.5 1025.5,-236.5 1174.5,-236.5 1174.5,-255.5"/>
<text text-anchor="middle" x="1100" y="-243.5" font-family="Helvetica,sans-Serif" font-size="10.00">amr&#45;wind/core/FieldRepo.H</text>
</a>
</g>
</g>
<!-- Node1&#45;&gt;Node12 -->
<g id="edge12_Node000001_Node000012" class="edge">
<title>Node1&#45;&gt;Node12</title>
<g id="a_edge12_Node000001_Node000012"><a xlink:title=" ">
<path fill="none" stroke="#63b8ff" d="M804.39,-300.64C877.59,-287.36 979.94,-268.79 1043,-257.34"/>
<polygon fill="#63b8ff" stroke="#63b8ff" points="1043.94,-260.73 1053.15,-255.5 1042.69,-253.84 1043.94,-260.73"/>
</a>
</g>
</g>
<!-- Node5 -->
<g id="Node000005" class="node">
<title>Node5</title>
<g id="a_Node000005"><a xlink:title=" ">
<polygon fill="#e0e0e0" stroke="#999999" points="335.5,-189.5 218.5,-189.5 218.5,-170.5 335.5,-170.5 335.5,-189.5"/>
<text text-anchor="middle" x="277" y="-177.5" font-family="Helvetica,sans-Serif" font-size="10.00">AMReX_FArrayBox.H</text>
</a>
</g>
</g>
<!-- Node4&#45;&gt;Node5 -->
<g id="edge4_Node000004_Node000005" class="edge">
<title>Node4&#45;&gt;Node5</title>
<g id="a_edge4_Node000004_Node000005"><a xlink:title=" ">
<path fill="none" stroke="#63b8ff" d="M294.9,-230.8C291.56,-221.5 287.16,-209.27 283.56,-199.26"/>
<polygon fill="#63b8ff" stroke="#63b8ff" points="286.85,-198.07 280.18,-189.84 280.27,-200.44 286.85,-198.07"/>
</a>
</g>
</g>
<!-- Node6 -->
<g id="Node000006" class="node">
<title>Node6</title>
<g id="a_Node000006"><a xlink:title=" ">
<polygon fill="#e0e0e0" stroke="#999999" points="1377,-129 1313,-129 1313,-110 1377,-110 1377,-129"/>
<text text-anchor="middle" x="1345" y="-117" font-family="Helvetica,sans-Serif" font-size="10.00">algorithm</text>
</a>
</g>
</g>
<!-- Node4&#45;&gt;Node6 -->
<g id="edge5_Node000004_Node000006" class="edge">
<title>Node4&#45;&gt;Node6</title>
<g id="a_edge5_Node000004_Node000006"><a xlink:title=" ">
<path fill="none" stroke="#63b8ff" d="M377.51,-242.74C564.22,-236.94 1028.29,-220.15 1094,-195 1114.1,-187.31 1112.51,-174.11 1132,-165 1161.76,-151.09 1249.38,-135.55 1302.52,-127"/>
<polygon fill="#63b8ff" stroke="#63b8ff" points="1303.33,-130.42 1312.66,-125.39 1302.23,-123.5 1303.33,-130.42"/>
</a>
</g>
</g>
<!-- Node7 -->
<g id="Node000007" class="node">
<title>Node7</title>
<g id="a_Node000007"><a xlink:title=" ">
<polygon fill="#e0e0e0" stroke="#999999" points="400.5,-189.5 353.5,-189.5 353.5,-170.5 400.5,-170.5 400.5,-189.5"/>
<text text-anchor="middle" x="377" y="-177.5" font-family="Helvetica,sans-Serif" font-size="10.00">cmath</text>
</a>
</g>
</g>
<!-- Node4&#45;&gt;Node7 -->
<g id="edge6_Node000004_Node000007" class="edge">
<title>Node4&#45;&gt;Node7</title>
<g id="a_edge6_Node000004_Node000007"><a xlink:title=" ">
<path fill="none" stroke="#63b8ff" d="M317.09,-230.8C329.33,-220.62 345.8,-206.93 358.38,-196.48"/>
<polygon fill="#63b8ff" stroke="#63b8ff" points="360.91,-198.93 366.36,-189.84 356.43,-193.54 360.91,-198.93"/>
</a>
</g>
</g>
<!-- Node8 -->
<g id="Node000008" class="node">
<title>Node8</title>
<g id="a_Node000008"><a xlink:href="constants_8_h.html" target="_top" xlink:title=" ">
<polygon fill="white" stroke="#666666" points="200.5,-195 97.5,-195 97.5,-165 200.5,-165 200.5,-195"/>
<text text-anchor="start" x="105.5" y="-183" font-family="Helvetica,sans-Serif" font-size="10.00">amr&#45;wind/utilities</text>
<text text-anchor="middle" x="149" y="-172" font-family="Helvetica,sans-Serif" font-size="10.00">/constants.H</text>
</a>
</g>
</g>
<!-- Node4&#45;&gt;Node8 -->
<g id="edge7_Node000004_Node000008" class="edge">
<title>Node4&#45;&gt;Node8</title>
<g id="a_edge7_Node000004_Node000008"><a xlink:title=" ">
<path fill="none" stroke="#63b8ff" d="M266.86,-230.95C244.73,-221.58 215.43,-209.16 191.58,-199.05"/>
<polygon fill="#63b8ff" stroke="#63b8ff" points="192.63,-195.69 182.06,-195.01 189.9,-202.14 192.63,-195.69"/>
</a>
</g>
</g>
<!-- Node9 -->
<g id="Node000009" class="node">
<title>Node9</title>
<g id="a_Node000009"><a xlink:title=" ">
<polygon fill="#e0e0e0" stroke="#999999" points="92,-129 0,-129 0,-110 92,-110 92,-129"/>
<text text-anchor="middle" x="46" y="-117" font-family="Helvetica,sans-Serif" font-size="10.00">AMReX_REAL.H</text>
</a>
</g>
</g>
<!-- Node4&#45;&gt;Node9 -->
<g id="edge11_Node000004_Node000009" class="edge">
<title>Node4&#45;&gt;Node9</title>
<g id="a_edge11_Node000004_Node000009"><a xlink:title=" ">
<path fill="none" stroke="#63b8ff" d="M222.26,-241.72C179.07,-236.44 126.47,-223.91 88,-195 69.4,-181.02 57.84,-156.25 51.66,-139.13"/>
<polygon fill="#63b8ff" stroke="#63b8ff" points="54.83,-137.57 48.36,-129.17 48.19,-139.77 54.83,-137.57"/>
</a>
</g>
</g>
<!-- Node8&#45;&gt;Node9 -->
<g id="edge8_Node000008_Node000009" class="edge">
<title>Node8&#45;&gt;Node9</title>
<g id="a_edge8_Node000008_Node000009"><a xlink:title=" ">
<path fill="none" stroke="#63b8ff" d="M124.33,-164.99C107.91,-155.66 86.45,-143.47 70.14,-134.21"/>
<polygon fill="#63b8ff" stroke="#63b8ff" points="71.63,-131.03 61.21,-129.14 68.18,-137.12 71.63,-131.03"/>
</a>
</g>
</g>
<!-- Node10 -->
<g id="Node000010" class="node">
<title>Node10</title>
<g id="a_Node000010"><a xlink:title=" ">
<polygon fill="#e0e0e0" stroke="#999999" points="202,-129 110,-129 110,-110 202,-110 202,-129"/>
<text text-anchor="middle" x="156" y="-117" font-family="Helvetica,sans-Serif" font-size="10.00">AMReX_Math.H</text>
</a>
</g>
</g>
<!-- Node8&#45;&gt;Node10 -->
<g id="edge9_Node000008_Node000010" class="edge">
<title>Node8&#45;&gt;Node10</title>
<g id="a_edge9_Node000008_Node000010"><a xlink:title=" ">
<path fill="none" stroke="#63b8ff" d="M150.69,-164.84C151.61,-157.21 152.74,-147.7 153.73,-139.45"/>
<polygon fill="#63b8ff" stroke="#63b8ff" points="157.24,-139.61 154.95,-129.27 150.29,-138.78 157.24,-139.61"/>
</a>
</g>
</g>
<!-- Node11 -->
<g id="Node000011" class="node">
<title>Node11</title>
<g id="a_Node000011"><a xlink:title=" ">
<polygon fill="#e0e0e0" stroke="#999999" points="354,-129 220,-129 220,-110 354,-110 354,-129"/>
<text text-anchor="middle" x="287" y="-117" font-family="Helvetica,sans-Serif" font-size="10.00">AMReX_GpuQualifiers.H</text>
</a>
</g>
</g>
<!-- Node8&#45;&gt;Node11 -->
<g id="edge10_Node000008_Node000011" class="edge">
<title>Node8&#45;&gt;Node11</title>
<g id="a_edge10_Node000008_Node000011"><a xlink:title=" ">
<path fill="none" stroke="#63b8ff" d="M182.05,-164.99C204.98,-155.27 235.24,-142.44 257.38,-133.06"/>
<polygon fill="#63b8ff" stroke="#63b8ff" points="258.78,-136.26 266.62,-129.14 256.05,-129.82 258.78,-136.26"/>
</a>
</g>
</g>
<!-- Node12&#45;&gt;Node2 -->
<g id="edge59_Node000012_Node000002" class="edge">
<title>Node12&#45;&gt;Node2</title>
<g id="a_edge59_Node000012_Node000002"><a xlink:title=" ">
<path fill="none" stroke="#63b8ff" d="M1025.37,-242.31C879.14,-236.5 565.49,-221.12 524,-195 503.79,-182.27 491.71,-156.62 485.46,-139"/>
<polygon fill="#63b8ff" stroke="#63b8ff" points="488.71,-137.69 482.3,-129.26 482.06,-139.85 488.71,-137.69"/>
</a>
</g>
</g>
<!-- Node12&#45;&gt;Node3 -->
<g id="edge58_Node000012_Node000003" class="edge">
<title>Node12&#45;&gt;Node3</title>
<g id="a_edge58_Node000012_Node000003"><a xlink:title=" ">
<path fill="none" stroke="#63b8ff" d="M1142.89,-236.42C1180.04,-228.21 1234.78,-214.23 1280,-195 1314.2,-180.46 1389.31,-123.31 1424,-110 1474.29,-90.7 1534.42,-79.27 1579.09,-72.84"/>
<polygon fill="#63b8ff" stroke="#63b8ff" points="1579.82,-76.27 1589.24,-71.42 1578.85,-69.34 1579.82,-76.27"/>
</a>
</g>
</g>
<!-- Node13 -->
<g id="Node000013" class="node">
<title>Node13</title>
<g id="a_Node000013"><a xlink:title=" ">
<polygon fill="#e0e0e0" stroke="#999999" points="800,-74 756,-74 756,-55 800,-55 800,-74"/>
<text text-anchor="middle" x="778" y="-62" font-family="Helvetica,sans-Serif" font-size="10.00">string</text>
</a>
</g>
</g>
<!-- Node12&#45;&gt;Node13 -->
<g id="edge13_Node000012_Node000013" class="edge">
<title>Node12&#45;&gt;Node13</title>
<g id="a_edge13_Node000012_Node000013"><a xlink:title=" ">
<path fill="none" stroke="#63b8ff" d="M1025.36,-244.43C885.21,-242.45 588.32,-233.68 494,-195 451.67,-177.64 434.38,-170.44 415,-129 411.42,-121.35 409.4,-116.32 415,-110 436.79,-85.38 660.98,-71.47 745.76,-67.05"/>
<polygon fill="#63b8ff" stroke="#63b8ff" points="746.04,-70.54 755.85,-66.54 745.68,-63.55 746.04,-70.54"/>
</a>
</g>
</g>
<!-- Node14 -->
<g id="Node000014" class="node">
<title>Node14</title>
<g id="a_Node000014"><a xlink:title=" ">
<polygon fill="#e0e0e0" stroke="#999999" points="1526.5,-129 1433.5,-129 1433.5,-110 1526.5,-110 1526.5,-129"/>
<text text-anchor="middle" x="1480" y="-117" font-family="Helvetica,sans-Serif" font-size="10.00">unordered_map</text>
</a>
</g>
</g>
<!-- Node12&#45;&gt;Node14 -->
<g id="edge14_Node000012_Node000014" class="edge">
<title>Node12&#45;&gt;Node14</title>
<g id="a_edge14_Node000012_Node000014"><a xlink:title=" ">
<path fill="none" stroke="#63b8ff" d="M1174.86,-239.44C1255.74,-232.37 1378.5,-218.19 1419,-195 1442.28,-181.67 1460.35,-155.77 1470.59,-138.3"/>
<polygon fill="#63b8ff" stroke="#63b8ff" points="1473.88,-139.59 1475.69,-129.15 1467.76,-136.18 1473.88,-139.59"/>
</a>
</g>
</g>
<!-- Node15 -->
<g id="Node000015" class="node">
<title>Node15</title>
<g id="a_Node000015"><a xlink:href="_field_desc_types_8_h.html" target="_top" xlink:title=" ">
<polygon fill="white" stroke="#666666" points="1335,-74 1159,-74 1159,-55 1335,-55 1335,-74"/>
<text text-anchor="middle" x="1247" y="-62" font-family="Helvetica,sans-Serif" font-size="10.00">amr&#45;wind/core/FieldDescTypes.H</text>
</a>
</g>
</g>
<!-- Node12&#45;&gt;Node15 -->
<g id="edge15_Node000012_Node000015" class="edge">
<title>Node12&#45;&gt;Node15</title>
<g id="a_edge15_Node000012_Node000015"><a xlink:title=" ">
<path fill="none" stroke="#63b8ff" d="M1174.52,-240.67C1206.17,-234.68 1240.26,-221.85 1260,-195 1284.34,-161.89 1267.54,-110.47 1255.76,-83.46"/>
<polygon fill="#63b8ff" stroke="#63b8ff" points="1258.81,-81.72 1251.45,-74.1 1252.46,-84.65 1258.81,-81.72"/>
</a>
</g>
</g>
<!-- Node17 -->
<g id="Node000017" class="node">
<title>Node17</title>
<g id="a_Node000017"><a xlink:href="_field_utils_8_h.html" target="_top" xlink:title=" ">
<polygon fill="white" stroke="#666666" points="2104,-129 1958,-129 1958,-110 2104,-110 2104,-129"/>
<text text-anchor="middle" x="2031" y="-117" font-family="Helvetica,sans-Serif" font-size="10.00">amr&#45;wind/core/FieldUtils.H</text>
</a>
</g>
</g>
<!-- Node12&#45;&gt;Node17 -->
<g id="edge17_Node000012_Node000017" class="edge">
<title>Node12&#45;&gt;Node17</title>
<g id="a_edge17_Node000012_Node000017"><a xlink:title=" ">
<path fill="none" stroke="#63b8ff" d="M1174.67,-241.05C1282.93,-234.71 1489.63,-220.35 1664,-195 1780.89,-178.01 1916.7,-147.61 1985.71,-131.4"/>
<polygon fill="#63b8ff" stroke="#63b8ff" points="1986.87,-134.72 1995.8,-129.01 1985.27,-127.91 1986.87,-134.72"/>
</a>
</g>
</g>
<!-- Node19 -->
<g id="Node000019" class="node">
<title>Node19</title>
<g id="a_Node000019"><a xlink:href="_field_8_h.html" target="_top" xlink:title=" ">
<polygon fill="white" stroke="#666666" points="1655,-189.5 1531,-189.5 1531,-170.5 1655,-170.5 1655,-189.5"/>
<text text-anchor="middle" x="1593" y="-177.5" font-family="Helvetica,sans-Serif" font-size="10.00">amr&#45;wind/core/Field.H</text>
</a>
</g>
</g>
<!-- Node12&#45;&gt;Node19 -->
<g id="edge21_Node000012_Node000019" class="edge">
<title>Node12&#45;&gt;Node19</title>
<g id="a_edge21_Node000012_Node000019"><a xlink:title=" ">
<path fill="none" stroke="#63b8ff" d="M1165.72,-236.47C1257.92,-224.5 1425.05,-202.8 1520.68,-190.39"/>
<polygon fill="#63b8ff" stroke="#63b8ff" points="1521.37,-193.83 1530.84,-189.07 1520.47,-186.89 1521.37,-193.83"/>
</a>
</g>
</g>
<!-- Node26 -->
<g id="Node000026" class="node">
<title>Node26</title>
<g id="a_Node000026"><a xlink:href="_int_field_8_h.html" target="_top" xlink:title=" ">
<polygon fill="white" stroke="#666666" points="670.5,-189.5 533.5,-189.5 533.5,-170.5 670.5,-170.5 670.5,-189.5"/>
<text text-anchor="middle" x="602" y="-177.5" font-family="Helvetica,sans-Serif" font-size="10.00">amr&#45;wind/core/IntField.H</text>
</a>
</g>
</g>
<!-- Node12&#45;&gt;Node26 -->
<g id="edge37_Node000012_Node000026" class="edge">
<title>Node12&#45;&gt;Node26</title>
<g id="a_edge37_Node000012_Node000026"><a xlink:title=" ">
<path fill="none" stroke="#63b8ff" d="M1025.27,-237.22C941.7,-228.25 802.4,-212.47 683,-195 675.26,-193.87 667.11,-192.58 659.1,-191.25"/>
<polygon fill="#63b8ff" stroke="#63b8ff" points="659.49,-187.77 649.05,-189.56 658.33,-194.67 659.49,-187.77"/>
</a>
</g>
</g>
<!-- Node27 -->
<g id="Node000027" class="node">
<title>Node27</title>
<g id="a_Node000027"><a xlink:href="_scratch_field_8_h.html" target="_top" xlink:title=" ">
<polygon fill="white" stroke="#666666" points="1085,-189.5 925,-189.5 925,-170.5 1085,-170.5 1085,-189.5"/>
<text text-anchor="middle" x="1005" y="-177.5" font-family="Helvetica,sans-Serif" font-size="10.00">amr&#45;wind/core/ScratchField.H</text>
</a>
</g>
</g>
<!-- Node12&#45;&gt;Node27 -->
<g id="edge41_Node000012_Node000027" class="edge">
<title>Node12&#45;&gt;Node27</title>
<g id="a_edge41_Node000012_Node000027"><a xlink:title=" ">
<path fill="none" stroke="#63b8ff" d="M1087.19,-236.37C1071.61,-225.87 1045.07,-208 1026.38,-195.4"/>
<polygon fill="#63b8ff" stroke="#63b8ff" points="1028.16,-192.38 1017.91,-189.7 1024.25,-198.19 1028.16,-192.38"/>
</a>
</g>
</g>
<!-- Node30 -->
<g id="Node000030" class="node">
<title>Node30</title>
<g id="a_Node000030"><a xlink:href="_int_scratch_field_8_h.html" target="_top" xlink:title=" ">
<polygon fill="white" stroke="#666666" points="831.5,-195 692.5,-195 692.5,-165 831.5,-165 831.5,-195"/>
<text text-anchor="start" x="700.5" y="-183" font-family="Helvetica,sans-Serif" font-size="10.00">amr&#45;wind/core/IntScratch</text>
<text text-anchor="middle" x="762" y="-172" font-family="Helvetica,sans-Serif" font-size="10.00">Field.H</text>
</a>
</g>
</g>
<!-- Node12&#45;&gt;Node30 -->
<g id="edge49_Node000012_Node000030" class="edge">
<title>Node12&#45;&gt;Node30</title>
<g id="a_edge49_Node000012_Node000030"><a xlink:title=" ">
<path fill="none" stroke="#63b8ff" d="M1054.77,-236.44C1000.36,-226.13 908.06,-208.66 841.62,-196.08"/>
<polygon fill="#63b8ff" stroke="#63b8ff" points="842.08,-192.6 831.61,-194.18 840.78,-199.48 842.08,-192.6"/>
</a>
</g>
</g>
<!-- Node31 -->
<g id="Node000031" class="node">
<title>Node31</title>
<g id="a_Node000031"><a xlink:title=" ">
<polygon fill="#e0e0e0" stroke="#999999" points="1251,-189.5 1141,-189.5 1141,-170.5 1251,-170.5 1251,-189.5"/>
<text text-anchor="middle" x="1196" y="-177.5" font-family="Helvetica,sans-Serif" font-size="10.00">AMReX_AmrCore.H</text>
</a>
</g>
</g>
<!-- Node12&#45;&gt;Node31 -->
<g id="edge57_Node000012_Node000031" class="edge">
<title>Node12&#45;&gt;Node31</title>
<g id="a_edge57_Node000012_Node000031"><a xlink:title=" ">
<path fill="none" stroke="#63b8ff" d="M1112.95,-236.37C1128.69,-225.87 1155.5,-208 1174.4,-195.4"/>
<polygon fill="#63b8ff" stroke="#63b8ff" points="1176.57,-198.16 1182.95,-189.7 1172.69,-192.33 1176.57,-198.16"/>
</a>
</g>
</g>
<!-- Node16 -->
<g id="Node000016" class="node">
<title>Node16</title>
<g id="a_Node000016"><a xlink:title=" ">
<polygon fill="#e0e0e0" stroke="#999999" points="1752,-19 1702,-19 1702,0 1752,0 1752,-19"/>
<text text-anchor="middle" x="1727" y="-7" font-family="Helvetica,sans-Serif" font-size="10.00">cstdint</text>
</a>
</g>
</g>
<!-- Node15&#45;&gt;Node16 -->
<g id="edge16_Node000015_Node000016" class="edge">
<title>Node15&#45;&gt;Node16</title>
<g id="a_edge16_Node000015_Node000016"><a xlink:title=" ">
<path fill="none" stroke="#63b8ff" d="M1324.12,-54.98C1429.67,-43.33 1614.78,-22.89 1691.82,-14.38"/>
<polygon fill="#63b8ff" stroke="#63b8ff" points="1692.39,-17.84 1701.95,-13.27 1691.63,-10.88 1692.39,-17.84"/>
</a>
</g>
</g>
<!-- Node17&#45;&gt;Node3 -->
<g id="edge19_Node000017_Node000003" class="edge">
<title>Node17&#45;&gt;Node3</title>
<g id="a_edge19_Node000017_Node000003"><a xlink:title=" ">
<path fill="none" stroke="#63b8ff" d="M1968.82,-109.98C1897.54,-100.22 1781.26,-84.3 1708.87,-74.38"/>
<polygon fill="#63b8ff" stroke="#63b8ff" points="1708.9,-70.86 1698.52,-72.97 1707.95,-77.79 1708.9,-70.86"/>
</a>
</g>
</g>
<!-- Node17&#45;&gt;Node15 -->
<g id="edge18_Node000017_Node000015" class="edge">
<title>Node17&#45;&gt;Node15</title>
<g id="a_edge18_Node000017_Node000015"><a xlink:title=" ">
<path fill="none" stroke="#63b8ff" d="M1957.71,-113.26C1942.28,-112.17 1926.11,-111.04 1911,-110 1710.12,-96.15 1475.01,-80.54 1345.38,-71.98"/>
<polygon fill="#63b8ff" stroke="#63b8ff" points="1345.29,-68.46 1335.08,-71.3 1344.83,-75.45 1345.29,-68.46"/>
</a>
</g>
</g>
<!-- Node18 -->
<g id="Node000018" class="node">
<title>Node18</title>
<g id="a_Node000018"><a xlink:title=" ">
<polygon fill="#e0e0e0" stroke="#999999" points="2081,-74 1957,-74 1957,-55 2081,-55 2081,-74"/>
<text text-anchor="middle" x="2019" y="-62" font-family="Helvetica,sans-Serif" font-size="10.00">AMReX_Interpolater.H</text>
</a>
</g>
</g>
<!-- Node17&#45;&gt;Node18 -->
<g id="edge20_Node000017_Node000018" class="edge">
<title>Node17&#45;&gt;Node18</title>
<g id="a_edge20_Node000017_Node000018"><a xlink:title=" ">
<path fill="none" stroke="#63b8ff" d="M2029.02,-109.75C2027.43,-102.72 2025.14,-92.62 2023.15,-83.84"/>
<polygon fill="#63b8ff" stroke="#63b8ff" points="2026.57,-83.07 2020.94,-74.09 2019.74,-84.62 2026.57,-83.07"/>
</a>
</g>
</g>
<!-- Node19&#45;&gt;Node3 -->
<g id="edge26_Node000019_Node000003" class="edge">
<title>Node19&#45;&gt;Node3</title>
<g id="a_edge26_Node000019_Node000003"><a xlink:title=" ">
<path fill="none" stroke="#63b8ff" d="M1655.27,-178.41C1738.35,-176.16 1878.77,-166.7 1911,-129 1916.49,-122.58 1916.46,-116.44 1911,-110 1885.59,-80.01 1779.39,-70.21 1708.83,-67.02"/>
<polygon fill="#63b8ff" stroke="#63b8ff" points="1708.83,-63.52 1698.69,-66.6 1708.54,-70.51 1708.83,-63.52"/>
</a>
</g>
</g>
<!-- Node19&#45;&gt;Node6 -->
<g id="edge25_Node000019_Node000006" class="edge">
<title>Node19&#45;&gt;Node6</title>
<g id="a_edge25_Node000019_Node000006"><a xlink:title=" ">
<path fill="none" stroke="#63b8ff" d="M1556.94,-170.49C1511.88,-159.87 1434.91,-141.71 1387.17,-130.45"/>
<polygon fill="#63b8ff" stroke="#63b8ff" points="1387.7,-126.98 1377.16,-128.09 1386.09,-133.79 1387.7,-126.98"/>
</a>
</g>
</g>
<!-- Node19&#45;&gt;Node13 -->
<g id="edge22_Node000019_Node000013" class="edge">
<title>Node19&#45;&gt;Node13</title>
<g id="a_edge22_Node000019_Node000013"><a xlink:title=" ">
<path fill="none" stroke="#63b8ff" d="M1588.72,-170.27C1580.65,-154.89 1561.57,-123.34 1535,-110 1526.78,-105.87 955.04,-74.99 810.77,-67.25"/>
<polygon fill="#63b8ff" stroke="#63b8ff" points="810.56,-63.74 800.38,-66.7 810.18,-70.73 810.56,-63.74"/>
</a>
</g>
</g>
<!-- Node19&#45;&gt;Node14 -->
<g id="edge24_Node000019_Node000014" class="edge">
<title>Node19&#45;&gt;Node14</title>
<g id="a_edge24_Node000019_Node000014"><a xlink:title=" ">
<path fill="none" stroke="#63b8ff" d="M1576.33,-170.37C1557.72,-160.73 1527.38,-145.03 1505.72,-133.81"/>
<polygon fill="#63b8ff" stroke="#63b8ff" points="1507.23,-130.66 1496.74,-129.17 1504.01,-136.87 1507.23,-130.66"/>
</a>
</g>
</g>
<!-- Node19&#45;&gt;Node15 -->
<g id="edge31_Node000019_Node000015" class="edge">
<title>Node19&#45;&gt;Node15</title>
<g id="a_edge31_Node000019_Node000015"><a xlink:title=" ">
<path fill="none" stroke="#63b8ff" d="M1592.72,-170.18C1591.74,-155.24 1587.44,-125.12 1569,-110 1535.64,-82.65 1427.3,-72.1 1345.42,-68.03"/>
<polygon fill="#63b8ff" stroke="#63b8ff" points="1345.47,-64.53 1335.32,-67.56 1345.15,-71.52 1345.47,-64.53"/>
</a>
</g>
</g>
<!-- Node20 -->
<g id="Node000020" class="node">
<title>Node20</title>
<g id="a_Node000020"><a xlink:title=" ">
<polygon fill="#e0e0e0" stroke="#999999" points="1679,-129 1621,-129 1621,-110 1679,-110 1679,-129"/>
<text text-anchor="middle" x="1650" y="-117" font-family="Helvetica,sans-Serif" font-size="10.00">memory</text>
</a>
</g>
</g>
<!-- Node19&#45;&gt;Node20 -->
<g id="edge23_Node000019_Node000020" class="edge">
<title>Node19&#45;&gt;Node20</title>
<g id="a_edge23_Node000019_Node000020"><a xlink:title=" ">
<path fill="none" stroke="#63b8ff" d="M1601.41,-170.37C1610.08,-161.47 1623.8,-147.39 1634.46,-136.45"/>
<polygon fill="#63b8ff" stroke="#63b8ff" points="1637.08,-138.77 1641.55,-129.17 1632.07,-133.89 1637.08,-138.77"/>
</a>
</g>
</g>
<!-- Node21 -->
<g id="Node000021" class="node">
<title>Node21</title>
<g id="a_Node000021"><a xlink:title=" ">
<polygon fill="#e0e0e0" stroke="#999999" points="1796.5,-129 1697.5,-129 1697.5,-110 1796.5,-110 1796.5,-129"/>
<text text-anchor="middle" x="1747" y="-117" font-family="Helvetica,sans-Serif" font-size="10.00">AMReX_BCRec.H</text>
</a>
</g>
</g>
<!-- Node19&#45;&gt;Node21 -->
<g id="edge27_Node000019_Node000021" class="edge">
<title>Node19&#45;&gt;Node21</title>
<g id="a_edge27_Node000019_Node000021"><a xlink:title=" ">
<path fill="none" stroke="#63b8ff" d="M1615.39,-170.49C1641.62,-160.53 1685.28,-143.95 1715.06,-132.63"/>
<polygon fill="#63b8ff" stroke="#63b8ff" points="1716.47,-135.84 1724.58,-129.02 1713.99,-129.3 1716.47,-135.84"/>
</a>
</g>
</g>
<!-- Node22 -->
<g id="Node000022" class="node">
<title>Node22</title>
<g id="a_Node000022"><a xlink:title=" ">
<polygon fill="#e0e0e0" stroke="#999999" points="1901.5,-129 1814.5,-129 1814.5,-110 1901.5,-110 1901.5,-129"/>
<text text-anchor="middle" x="1858" y="-117" font-family="Helvetica,sans-Serif" font-size="10.00">AMReX_Gpu.H</text>
</a>
</g>
</g>
<!-- Node19&#45;&gt;Node22 -->
<g id="edge28_Node000019_Node000022" class="edge">
<title>Node19&#45;&gt;Node22</title>
<g id="a_edge28_Node000019_Node000022"><a xlink:title=" ">
<path fill="none" stroke="#63b8ff" d="M1631.53,-170.49C1678.64,-160.1 1758.38,-142.49 1809.58,-131.19"/>
<polygon fill="#63b8ff" stroke="#63b8ff" points="1810.41,-134.59 1819.42,-129.02 1808.9,-127.75 1810.41,-134.59"/>
</a>
</g>
</g>
<!-- Node23 -->
<g id="Node000023" class="node">
<title>Node23</title>
<g id="a_Node000023"><a xlink:href="incflo__enums_8_h.html" target="_top" xlink:title=" ">
<polygon fill="white" stroke="#666666" points="2240.5,-74 2099.5,-74 2099.5,-55 2240.5,-55 2240.5,-74"/>
<text text-anchor="middle" x="2170" y="-62" font-family="Helvetica,sans-Serif" font-size="10.00">amr&#45;wind/incflo_enums.H</text>
</a>
</g>
</g>
<!-- Node19&#45;&gt;Node23 -->
<g id="edge29_Node000019_Node000023" class="edge">
<title>Node19&#45;&gt;Node23</title>
<g id="a_edge29_Node000019_Node000023"><a xlink:title=" ">
<path fill="none" stroke="#63b8ff" d="M1655.44,-178.61C1775.67,-176.94 2034.37,-168.7 2113,-129 2133.18,-118.81 2149.55,-98.21 2159.49,-83.23"/>
<polygon fill="#63b8ff" stroke="#63b8ff" points="2162.7,-84.69 2165.06,-74.36 2156.78,-80.96 2162.7,-84.69"/>
</a>
</g>
</g>
<!-- Node24 -->
<g id="Node000024" class="node">
<title>Node24</title>
<g id="a_Node000024"><a xlink:href="_view_field_8_h.html" target="_top" xlink:title=" ">
<polygon fill="white" stroke="#666666" points="1181,-129 1033,-129 1033,-110 1181,-110 1181,-129"/>
<text text-anchor="middle" x="1107" y="-117" font-family="Helvetica,sans-Serif" font-size="10.00">amr&#45;wind/core/ViewField.H</text>
</a>
</g>
</g>
<!-- Node19&#45;&gt;Node24 -->
<g id="edge32_Node000019_Node000024" class="edge">
<title>Node19&#45;&gt;Node24</title>
<g id="a_edge32_Node000019_Node000024"><a xlink:title=" ">
<path fill="none" stroke="#63b8ff" d="M1530.95,-171.53C1443.59,-161.02 1284.22,-141.83 1187.73,-130.22"/>
<polygon fill="#63b8ff" stroke="#63b8ff" points="1188.07,-126.73 1177.72,-129.01 1187.23,-133.68 1188.07,-126.73"/>
</a>
</g>
</g>
<!-- Node23&#45;&gt;Node16 -->
<g id="edge30_Node000023_Node000016" class="edge">
<title>Node23&#45;&gt;Node16</title>
<g id="a_edge30_Node000023_Node000016"><a xlink:title=" ">
<path fill="none" stroke="#63b8ff" d="M2099.32,-55.04C2003.16,-43.54 1834.78,-23.39 1762.07,-14.7"/>
<polygon fill="#63b8ff" stroke="#63b8ff" points="1762.41,-11.21 1752.06,-13.5 1761.57,-18.16 1762.41,-11.21"/>
</a>
</g>
</g>
<!-- Node24&#45;&gt;Node3 -->
<g id="edge35_Node000024_Node000003" class="edge">
<title>Node24&#45;&gt;Node3</title>
<g id="a_edge35_Node000024_Node000003"><a xlink:title=" ">
<path fill="none" stroke="#63b8ff" d="M1181.1,-111.19C1286.81,-100.75 1479.15,-81.77 1579.37,-71.88"/>
<polygon fill="#63b8ff" stroke="#63b8ff" points="1579.76,-75.36 1589.36,-70.89 1579.07,-68.39 1579.76,-75.36"/>
</a>
</g>
</g>
<!-- Node24&#45;&gt;Node13 -->
<g id="edge33_Node000024_Node000013" class="edge">
<title>Node24&#45;&gt;Node13</title>
<g id="a_edge33_Node000024_Node000013"><a xlink:title=" ">
<path fill="none" stroke="#63b8ff" d="M1054.14,-109.98C985.37,-98.91 867.31,-79.89 810.46,-70.73"/>
<polygon fill="#63b8ff" stroke="#63b8ff" points="810.69,-67.22 800.26,-69.09 809.58,-74.13 810.69,-67.22"/>
</a>
</g>
</g>
<!-- Node24&#45;&gt;Node15 -->
<g id="edge34_Node000024_Node000015" class="edge">
<title>Node24&#45;&gt;Node15</title>
<g id="a_edge34_Node000024_Node000015"><a xlink:title=" ">
<path fill="none" stroke="#63b8ff" d="M1129.49,-109.98C1152.52,-101.27 1188.54,-87.63 1214.63,-77.75"/>
<polygon fill="#63b8ff" stroke="#63b8ff" points="1215.98,-80.98 1224.1,-74.17 1213.51,-74.44 1215.98,-80.98"/>
</a>
</g>
</g>
<!-- Node25 -->
<g id="Node000025" class="node">
<title>Node25</title>
<g id="a_Node000025"><a xlink:title=" ">
<polygon fill="#e0e0e0" stroke="#999999" points="1054,-74 956,-74 956,-55 1054,-55 1054,-74"/>
<text text-anchor="middle" x="1005" y="-62" font-family="Helvetica,sans-Serif" font-size="10.00">AMReX_Vector.H</text>
</a>
</g>
</g>
<!-- Node24&#45;&gt;Node25 -->
<g id="edge36_Node000024_Node000025" class="edge">
<title>Node24&#45;&gt;Node25</title>
<g id="a_edge36_Node000024_Node000025"><a xlink:title=" ">
<path fill="none" stroke="#63b8ff" d="M1090.61,-109.98C1074.43,-101.57 1049.43,-88.59 1030.62,-78.81"/>
<polygon fill="#63b8ff" stroke="#63b8ff" points="1032.17,-75.68 1021.69,-74.17 1028.95,-81.89 1032.17,-75.68"/>
</a>
</g>
</g>
<!-- Node26&#45;&gt;Node2 -->
<g id="edge40_Node000026_Node000002" class="edge">
<title>Node26&#45;&gt;Node2</title>
<g id="a_edge40_Node000026_Node000002"><a xlink:title=" ">
<path fill="none" stroke="#63b8ff" d="M584.26,-170.49C563.93,-160.75 530.39,-144.66 506.86,-133.38"/>
<polygon fill="#63b8ff" stroke="#63b8ff" points="508.29,-130.18 497.76,-129.02 505.26,-136.5 508.29,-130.18"/>
</a>
</g>
</g>
<!-- Node26&#45;&gt;Node13 -->
<g id="edge38_Node000026_Node000013" class="edge">
<title>Node26&#45;&gt;Node13</title>
<g id="a_edge38_Node000026_Node000013"><a xlink:title=" ">
<path fill="none" stroke="#63b8ff" d="M596.26,-170.34C587.67,-156.17 573.88,-127.82 588,-110 607.31,-85.64 696.59,-73.34 745.59,-68.32"/>
<polygon fill="#63b8ff" stroke="#63b8ff" points="746.07,-71.79 755.68,-67.33 745.39,-64.83 746.07,-71.79"/>
</a>
</g>
</g>
<!-- Node26&#45;&gt;Node15 -->
<g id="edge39_Node000026_Node000015" class="edge">
<title>Node26&#45;&gt;Node15</title>
<g id="a_edge39_Node000026_Node000015"><a xlink:title=" ">
<path fill="none" stroke="#63b8ff" d="M613.55,-170.33C634.61,-155.06 681.23,-123.68 726,-110 765.23,-98.02 1008.73,-80.77 1148.53,-71.67"/>
<polygon fill="#63b8ff" stroke="#63b8ff" points="1149.08,-75.14 1158.83,-71 1148.62,-68.16 1149.08,-75.14"/>
</a>
</g>
</g>
<!-- Node27&#45;&gt;Node3 -->
<g id="edge46_Node000027_Node000003" class="edge">
<title>Node27&#45;&gt;Node3</title>
<g id="a_edge46_Node000027_Node000003"><a xlink:title=" ">
<path fill="none" stroke="#63b8ff" d="M1039.91,-170.5C1107.28,-154.16 1253.08,-119.19 1304,-110 1399.15,-92.84 1510.42,-79.54 1579.05,-72.11"/>
<polygon fill="#63b8ff" stroke="#63b8ff" points="1579.71,-75.56 1589.28,-71.01 1578.96,-68.6 1579.71,-75.56"/>
</a>
</g>
</g>
<!-- Node27&#45;&gt;Node13 -->
<g id="edge42_Node000027_Node000013" class="edge">
<title>Node27&#45;&gt;Node13</title>
<g id="a_edge42_Node000027_Node000013"><a xlink:title=" ">
<path fill="none" stroke="#63b8ff" d="M1000.16,-170.31C991.48,-155.58 971.85,-125.74 947,-110 904.61,-83.15 846.45,-72.42 810.6,-68.19"/>
<polygon fill="#63b8ff" stroke="#63b8ff" points="810.54,-64.66 800.23,-67.07 809.79,-71.62 810.54,-64.66"/>
</a>
</g>
</g>
<!-- Node27&#45;&gt;Node15 -->
<g id="edge44_Node000027_Node000015" class="edge">
<title>Node27&#45;&gt;Node15</title>
<g id="a_edge44_Node000027_Node000015"><a xlink:title=" ">
<path fill="none" stroke="#63b8ff" d="M1071.61,-170.49C1108.56,-163.52 1154.16,-151.06 1190,-129 1209.04,-117.28 1225.45,-97.31 1235.7,-82.89"/>
<polygon fill="#63b8ff" stroke="#63b8ff" points="1238.78,-84.59 1241.52,-74.35 1232.99,-80.64 1238.78,-84.59"/>
</a>
</g>
</g>
<!-- Node27&#45;&gt;Node24 -->
<g id="edge45_Node000027_Node000024" class="edge">
<title>Node27&#45;&gt;Node24</title>
<g id="a_edge45_Node000027_Node000024"><a xlink:title=" ">
<path fill="none" stroke="#63b8ff" d="M1020.05,-170.37C1036.62,-160.86 1063.5,-145.45 1082.99,-134.27"/>
<polygon fill="#63b8ff" stroke="#63b8ff" points="1084.95,-137.18 1091.89,-129.17 1081.47,-131.11 1084.95,-137.18"/>
</a>
</g>
</g>
<!-- Node27&#45;&gt;Node25 -->
<g id="edge47_Node000027_Node000025" class="edge">
<title>Node27&#45;&gt;Node25</title>
<g id="a_edge47_Node000027_Node000025"><a xlink:title=" ">
<path fill="none" stroke="#63b8ff" d="M1005,-170.47C1005,-152.23 1005,-109.07 1005,-84.14"/>
<polygon fill="#63b8ff" stroke="#63b8ff" points="1008.5,-84.13 1005,-74.13 1001.5,-84.13 1008.5,-84.13"/>
</a>
</g>
</g>
<!-- Node28 -->
<g id="Node000028" class="node">
<title>Node28</title>
<g id="a_Node000028"><a xlink:title=" ">
<polygon fill="#e0e0e0" stroke="#999999" points="789.5,-129 744.5,-129 744.5,-110 789.5,-110 789.5,-129"/>
<text text-anchor="middle" x="767" y="-117" font-family="Helvetica,sans-Serif" font-size="10.00">utility</text>
</a>
</g>
</g>
<!-- Node27&#45;&gt;Node28 -->
<g id="edge43_Node000027_Node000028" class="edge">
<title>Node27&#45;&gt;Node28</title>
<g id="a_edge43_Node000027_Node000028"><a xlink:title=" ">
<path fill="none" stroke="#63b8ff" d="M968.27,-170.49C928.85,-161.27 864.14,-145.91 799.6,-129.36"/>
<polygon fill="#63b8ff" stroke="#63b8ff" points="800.22,-125.91 789.67,-126.8 798.48,-132.68 800.22,-125.91"/>
</a>
</g>
</g>
<!-- Node29 -->
<g id="Node000029" class="node">
<title>Node29</title>
<g id="a_Node000029"><a xlink:title=" ">
<polygon fill="#e0e0e0" stroke="#999999" points="938.5,-129 807.5,-129 807.5,-110 938.5,-110 938.5,-129"/>
<text text-anchor="middle" x="873" y="-117" font-family="Helvetica,sans-Serif" font-size="10.00">AMReX_PhysBCFunct.H</text>
</a>
</g>
</g>
<!-- Node27&#45;&gt;Node29 -->
<g id="edge48_Node000027_Node000029" class="edge">
<title>Node27&#45;&gt;Node29</title>
<g id="a_edge48_Node000027_Node000029"><a xlink:title=" ">
<path fill="none" stroke="#63b8ff" d="M985.81,-170.49C963.61,-160.66 926.88,-144.38 901.38,-133.08"/>
<polygon fill="#63b8ff" stroke="#63b8ff" points="902.78,-129.87 892.22,-129.02 899.94,-136.27 902.78,-129.87"/>
</a>
</g>
</g>
<!-- Node30&#45;&gt;Node2 -->
<g id="edge54_Node000030_Node000002" class="edge">
<title>Node30&#45;&gt;Node2</title>
<g id="a_edge54_Node000030_Node000002"><a xlink:title=" ">
<path fill="none" stroke="#63b8ff" d="M694.45,-164.99C644.31,-154.59 576.98,-140.62 531.23,-131.13"/>
<polygon fill="#63b8ff" stroke="#63b8ff" points="531.74,-127.66 521.23,-129.05 530.31,-134.51 531.74,-127.66"/>
</a>
</g>
</g>
<!-- Node30&#45;&gt;Node13 -->
<g id="edge50_Node000030_Node000013" class="edge">
<title>Node30&#45;&gt;Node13</title>
<g id="a_edge50_Node000030_Node000013"><a xlink:title=" ">
<path fill="none" stroke="#63b8ff" d="M711.76,-164.9C679.76,-153.22 647.22,-134.57 664,-110 682.2,-83.36 718.91,-72.67 745.78,-68.38"/>
<polygon fill="#63b8ff" stroke="#63b8ff" points="746.46,-71.82 755.89,-66.98 745.51,-64.88 746.46,-71.82"/>
</a>
</g>
</g>
<!-- Node30&#45;&gt;Node15 -->
<g id="edge52_Node000030_Node000015" class="edge">
<title>Node30&#45;&gt;Node15</title>
<g id="a_edge52_Node000030_Node000015"><a xlink:title=" ">
<path fill="none" stroke="#63b8ff" d="M748.75,-164.97C736.02,-149.79 720.66,-125.64 735,-110 748.77,-94.98 1003.77,-78.73 1148.59,-70.66"/>
<polygon fill="#63b8ff" stroke="#63b8ff" points="1149.03,-74.14 1158.82,-70.09 1148.64,-67.15 1149.03,-74.14"/>
</a>
</g>
</g>
<!-- Node30&#45;&gt;Node24 -->
<g id="edge53_Node000030_Node000024" class="edge">
<title>Node30&#45;&gt;Node24</title>
<g id="a_edge53_Node000030_Node000024"><a xlink:title=" ">
<path fill="none" stroke="#63b8ff" d="M831.82,-167.16C894.91,-156.46 986.83,-140.88 1046.77,-130.71"/>
<polygon fill="#63b8ff" stroke="#63b8ff" points="1047.57,-134.13 1056.84,-129.01 1046.4,-127.23 1047.57,-134.13"/>
</a>
</g>
</g>
<!-- Node30&#45;&gt;Node25 -->
<g id="edge55_Node000030_Node000025" class="edge">
<title>Node30&#45;&gt;Node25</title>
<g id="a_edge55_Node000030_Node000025"><a xlink:title=" ">
<path fill="none" stroke="#63b8ff" d="M735.15,-164.75C712.3,-150.82 685.6,-128.98 702,-110 732.81,-74.33 866.27,-66.73 945.42,-65.42"/>
<polygon fill="#63b8ff" stroke="#63b8ff" points="945.79,-68.91 955.74,-65.28 945.69,-61.91 945.79,-68.91"/>
</a>
</g>
</g>
<!-- Node30&#45;&gt;Node28 -->
<g id="edge51_Node000030_Node000028" class="edge">
<title>Node30&#45;&gt;Node28</title>
<g id="a_edge51_Node000030_Node000028"><a xlink:title=" ">
<path fill="none" stroke="#63b8ff" d="M763.21,-164.84C763.86,-157.21 764.67,-147.7 765.38,-139.45"/>
<polygon fill="#63b8ff" stroke="#63b8ff" points="768.89,-139.53 766.25,-129.27 761.91,-138.93 768.89,-139.53"/>
</a>
</g>
</g>
<!-- Node30&#45;&gt;Node29 -->
<g id="edge56_Node000030_Node000029" class="edge">
<title>Node30&#45;&gt;Node29</title>
<g id="a_edge56_Node000030_Node000029"><a xlink:title=" ">
<path fill="none" stroke="#63b8ff" d="M788.59,-164.99C806.45,-155.58 829.84,-143.24 847.48,-133.95"/>
<polygon fill="#63b8ff" stroke="#63b8ff" points="849.39,-136.9 856.61,-129.14 846.13,-130.71 849.39,-136.9"/>
</a>
</g>
</g>
</g>
</svg>

<g id="navigator" transform="translate(0 0)" fill="#404254">
  <rect fill="#f2f5e9" fill-opacity="0.5" stroke="#606060" stroke-width=".5" x="0" y="0" width="60" height="60"/>
  <use id="zoomplus" xlink:href="#zoomPlus" x="17" y="9" onmousedown="handleZoom(evt,'in')"/>
  <use id="zoomminus" xlink:href="#zoomMin" x="42" y="9" onmousedown="handleZoom(evt,'out')"/>
  <use id="reset" xlink:href="#resetDef" x="30" y="36" onmousedown="handleReset()"/>
   <use id="arrowup" xlink:href="#arrowUp" x="0" y="0" onmousedown="handlePan(0,-1)"/>
  <use id="arrowright" xlink:href="#arrowRight" x="0" y="0" onmousedown="handlePan(1,0)"/>
  <use id="arrowdown" xlink:href="#arrowDown" x="0" y="0" onmousedown="handlePan(0,1)"/>
  <use id="arrowleft" xlink:href="#arrowLeft" x="0" y="0" onmousedown="handlePan(-1,0)"/>
</g>
<svg viewBox="0 0 15 15" width="100%" height="30px" preserveAspectRatio="xMaxYMin meet">
 <g id="arrow_out" transform="scale(0.3 0.3)">
  <a xlink:href="overset__ops__routines_8_h__incl_org.svg" target="_base">
   <rect id="button" ry="5" rx="5" y="6" x="6" height="38" width="38"
        fill="#f2f5e9" fill-opacity="0.5" stroke="#606060" stroke-width="1.0"/>
   <path id="arrow"
     d="M 11.500037,31.436501 C 11.940474,20.09759 22.043105,11.32322 32.158766,21.979434 L 37.068811,17.246167 C 37.068811,17.246167 37.088388,32 37.088388,32 L 22.160133,31.978069 C 22.160133,31.978069 26.997745,27.140456 26.997745,27.140456 C 18.528582,18.264221 13.291696,25.230495 11.500037,31.436501 z"
     style="fill:#404040;"/>
  </a>
 </g>
</svg>

<style type='text/css'>
<![CDATA[
[data-mouse-over-selected='false'] { opacity: 0.7; }
[data-mouse-over-selected='true']  { opacity: 1.0; }
]]>
</style>
<script type="application/ecmascript"><![CDATA[
document.addEventListener('DOMContentLoaded', (event) => {
  highlightEdges();
  highlightAdjacentNodes();
});
]]></script>
</svg>
