<?xml version="1.0" encoding="UTF-8" standalone="no"?>
<!DOCTYPE svg PUBLIC "-//W3C//DTD SVG 1.1//EN"
 "http://www.w3.org/Graphics/SVG/1.1/DTD/svg11.dtd">
<!-- Generated by graphviz version 2.43.0 (0)
 -->
<!-- Title: /home/runner/work/amr&#45;wind/amr&#45;wind/amr&#45;wind/fvm/qcriterion.H Pages: 1 -->
<svg width="2124pt" height="401pt"
 viewBox="0.00 0.00 2124.11 401.00" xmlns="http://www.w3.org/2000/svg" xmlns:xlink="http://www.w3.org/1999/xlink">
<g id="graph0" class="graph" transform="scale(1 1) rotate(0) translate(4 397)">
<title>/home/runner/work/amr&#45;wind/amr&#45;wind/amr&#45;wind/fvm/qcriterion.H</title>
<!-- Node1 -->
<g id="Node000001" class="node">
<title>Node1</title>
<g id="a_Node000001"><a xlink:title=" ">
<polygon fill="#999999" stroke="#666666" points="693.61,-393 550.61,-393 550.61,-352 693.61,-352 693.61,-393"/>
<text text-anchor="start" x="558.61" y="-381" font-family="Helvetica,sans-Serif" font-size="10.00">/home/runner/work/amr</text>
<text text-anchor="start" x="558.61" y="-370" font-family="Helvetica,sans-Serif" font-size="10.00">&#45;wind/amr&#45;wind/amr&#45;wind</text>
<text text-anchor="middle" x="622.11" y="-359" font-family="Helvetica,sans-Serif" font-size="10.00">/fvm/qcriterion.H</text>
</a>
</g>
</g>
<!-- Node2 -->
<g id="Node000002" class="node">
<title>Node2</title>
<g id="a_Node000002"><a xlink:href="fvm__utils_8_h.html" target="_top" xlink:title=" ">
<polygon fill="white" stroke="#666666" points="1185.61,-316 1040.61,-316 1040.61,-297 1185.61,-297 1185.61,-316"/>
<text text-anchor="middle" x="1113.11" y="-304" font-family="Helvetica,sans-Serif" font-size="10.00">amr&#45;wind/fvm/fvm_utils.H</text>
</a>
</g>
</g>
<!-- Node1&#45;&gt;Node2 -->
<g id="edge1_Node000001_Node000002" class="edge">
<title>Node1&#45;&gt;Node2</title>
<g id="a_edge1_Node000001_Node000002"><a xlink:title=" ">
<path fill="none" stroke="#63b8ff" d="M693.77,-362.16C785.58,-350.19 944.01,-329.54 1037.62,-317.34"/>
<polygon fill="#63b8ff" stroke="#63b8ff" points="1038.13,-320.8 1047.59,-316.04 1037.23,-313.86 1038.13,-320.8"/>
</a>
</g>
</g>
<!-- Node27 -->
<g id="Node000027" class="node">
<title>Node27</title>
<g id="a_Node000027"><a xlink:title=" ">
<polygon fill="#e0e0e0" stroke="#999999" points="177.11,-189.5 85.11,-189.5 85.11,-170.5 177.11,-170.5 177.11,-189.5"/>
<text text-anchor="middle" x="131.11" y="-177.5" font-family="Helvetica,sans-Serif" font-size="10.00">AMReX_REAL.H</text>
</a>
</g>
</g>
<!-- Node1&#45;&gt;Node27 -->
<g id="edge59_Node000001_Node000027" class="edge">
<title>Node1&#45;&gt;Node27</title>
<g id="a_edge59_Node000001_Node000027"><a xlink:title=" ">
<path fill="none" stroke="#63b8ff" d="M550.34,-363.91C432.61,-350 205.91,-316.63 150.11,-261 134.11,-245.05 130.63,-218.25 130.3,-200.11"/>
<polygon fill="#63b8ff" stroke="#63b8ff" points="133.81,-199.92 130.44,-189.87 126.81,-199.83 133.81,-199.92"/>
</a>
</g>
</g>
<!-- Node3 -->
<g id="Node000003" class="node">
<title>Node3</title>
<g id="a_Node000003"><a xlink:href="_field_repo_8_h.html" target="_top" xlink:title=" ">
<polygon fill="white" stroke="#666666" points="1187.61,-255.5 1038.61,-255.5 1038.61,-236.5 1187.61,-236.5 1187.61,-255.5"/>
<text text-anchor="middle" x="1113.11" y="-243.5" font-family="Helvetica,sans-Serif" font-size="10.00">amr&#45;wind/core/FieldRepo.H</text>
</a>
</g>
</g>
<!-- Node2&#45;&gt;Node3 -->
<g id="edge2_Node000002_Node000003" class="edge">
<title>Node2&#45;&gt;Node3</title>
<g id="a_edge2_Node000002_Node000003"><a xlink:title=" ">
<path fill="none" stroke="#63b8ff" d="M1113.11,-296.87C1113.11,-288.75 1113.11,-276.31 1113.11,-265.89"/>
<polygon fill="#63b8ff" stroke="#63b8ff" points="1116.61,-265.67 1113.11,-255.67 1109.61,-265.67 1116.61,-265.67"/>
</a>
</g>
</g>
<!-- Node26 -->
<g id="Node000026" class="node">
<title>Node26</title>
<g id="a_Node000026"><a xlink:href="stencils_8_h.html" target="_top" xlink:title="Second&#45;order finite volume discretization stencil coefficients.">
<polygon fill="white" stroke="#666666" points="1613.61,-255.5 1476.61,-255.5 1476.61,-236.5 1613.61,-236.5 1613.61,-255.5"/>
<text text-anchor="middle" x="1545.11" y="-243.5" font-family="Helvetica,sans-Serif" font-size="10.00">amr&#45;wind/fvm/stencils.H</text>
</a>
</g>
</g>
<!-- Node2&#45;&gt;Node26 -->
<g id="edge50_Node000002_Node000026" class="edge">
<title>Node2&#45;&gt;Node26</title>
<g id="a_edge50_Node000002_Node000026"><a xlink:title=" ">
<path fill="none" stroke="#63b8ff" d="M1175.92,-296.99C1254.55,-286.35 1388.96,-268.14 1472.09,-256.89"/>
<polygon fill="#63b8ff" stroke="#63b8ff" points="1472.78,-260.33 1482.22,-255.52 1471.84,-253.39 1472.78,-260.33"/>
</a>
</g>
</g>
<!-- Node31 -->
<g id="Node000031" class="node">
<title>Node31</title>
<g id="a_Node000031"><a xlink:href="math__ops_8_h.html" target="_top" xlink:title=" ">
<polygon fill="white" stroke="#666666" points="262.61,-261 159.61,-261 159.61,-231 262.61,-231 262.61,-261"/>
<text text-anchor="start" x="167.61" y="-249" font-family="Helvetica,sans-Serif" font-size="10.00">amr&#45;wind/utilities</text>
<text text-anchor="middle" x="211.11" y="-238" font-family="Helvetica,sans-Serif" font-size="10.00">/math_ops.H</text>
</a>
</g>
</g>
<!-- Node2&#45;&gt;Node31 -->
<g id="edge55_Node000002_Node000031" class="edge">
<title>Node2&#45;&gt;Node31</title>
<g id="a_edge55_Node000002_Node000031"><a xlink:title=" ">
<path fill="none" stroke="#63b8ff" d="M1040.44,-300.79C867.63,-289.58 434.59,-261.49 273.11,-251.02"/>
<polygon fill="#63b8ff" stroke="#63b8ff" points="273.07,-247.51 262.87,-250.36 272.62,-254.5 273.07,-247.51"/>
</a>
</g>
</g>
<!-- Node32 -->
<g id="Node000032" class="node">
<title>Node32</title>
<g id="a_Node000032"><a xlink:title=" ">
<polygon fill="#e0e0e0" stroke="#999999" points="1730.11,-255.5 1632.11,-255.5 1632.11,-236.5 1730.11,-236.5 1730.11,-255.5"/>
<text text-anchor="middle" x="1681.11" y="-243.5" font-family="Helvetica,sans-Serif" font-size="10.00">AMReX_MFIter.H</text>
</a>
</g>
</g>
<!-- Node2&#45;&gt;Node32 -->
<g id="edge58_Node000002_Node000032" class="edge">
<title>Node2&#45;&gt;Node32</title>
<g id="a_edge58_Node000002_Node000032"><a xlink:title=" ">
<path fill="none" stroke="#63b8ff" d="M1185.74,-302.59C1285.05,-297.83 1468.51,-286.26 1623.11,-261 1628.48,-260.12 1634.08,-259.02 1639.6,-257.81"/>
<polygon fill="#63b8ff" stroke="#63b8ff" points="1640.41,-261.22 1649.37,-255.57 1638.84,-254.4 1640.41,-261.22"/>
</a>
</g>
</g>
<!-- Node4 -->
<g id="Node000004" class="node">
<title>Node4</title>
<g id="a_Node000004"><a xlink:title=" ">
<polygon fill="#e0e0e0" stroke="#999999" points="1381.11,-74 1337.11,-74 1337.11,-55 1381.11,-55 1381.11,-74"/>
<text text-anchor="middle" x="1359.11" y="-62" font-family="Helvetica,sans-Serif" font-size="10.00">string</text>
</a>
</g>
</g>
<!-- Node3&#45;&gt;Node4 -->
<g id="edge3_Node000003_Node000004" class="edge">
<title>Node3&#45;&gt;Node4</title>
<g id="a_edge3_Node000003_Node000004"><a xlink:title=" ">
<path fill="none" stroke="#63b8ff" d="M1187.75,-242.05C1301.33,-236.73 1511.69,-223.32 1581.11,-195 1601.03,-186.87 1601.36,-177.16 1619.11,-165 1645.08,-147.21 1664.5,-156.34 1680.11,-129 1684.3,-121.67 1685.65,-116.37 1680.11,-110 1642.86,-67.24 1465.23,-64.23 1391.4,-64.88"/>
<polygon fill="#63b8ff" stroke="#63b8ff" points="1391.25,-61.38 1381.29,-65 1391.33,-68.38 1391.25,-61.38"/>
</a>
</g>
</g>
<!-- Node5 -->
<g id="Node000005" class="node">
<title>Node5</title>
<g id="a_Node000005"><a xlink:title=" ">
<polygon fill="#e0e0e0" stroke="#999999" points="766.61,-129 673.61,-129 673.61,-110 766.61,-110 766.61,-129"/>
<text text-anchor="middle" x="720.11" y="-117" font-family="Helvetica,sans-Serif" font-size="10.00">unordered_map</text>
</a>
</g>
</g>
<!-- Node3&#45;&gt;Node5 -->
<g id="edge4_Node000003_Node000005" class="edge">
<title>Node3&#45;&gt;Node5</title>
<g id="a_edge4_Node000003_Node000005"><a xlink:title=" ">
<path fill="none" stroke="#63b8ff" d="M1038.47,-242.05C977.34,-237.37 889.72,-225.42 819.11,-195 786.22,-180.83 754.23,-153.58 735.89,-136.25"/>
<polygon fill="#63b8ff" stroke="#63b8ff" points="738.09,-133.51 728.46,-129.08 733.22,-138.54 738.09,-133.51"/>
</a>
</g>
</g>
<!-- Node6 -->
<g id="Node000006" class="node">
<title>Node6</title>
<g id="a_Node000006"><a xlink:href="_field_desc_types_8_h.html" target="_top" xlink:title=" ">
<polygon fill="white" stroke="#666666" points="940.11,-74 764.11,-74 764.11,-55 940.11,-55 940.11,-74"/>
<text text-anchor="middle" x="852.11" y="-62" font-family="Helvetica,sans-Serif" font-size="10.00">amr&#45;wind/core/FieldDescTypes.H</text>
</a>
</g>
</g>
<!-- Node3&#45;&gt;Node6 -->
<g id="edge5_Node000003_Node000006" class="edge">
<title>Node3&#45;&gt;Node6</title>
<g id="a_edge5_Node000003_Node000006"><a xlink:title=" ">
<path fill="none" stroke="#63b8ff" d="M1071.06,-236.46C1016.36,-223.13 921.63,-192.08 869.11,-129 858.73,-116.53 854.63,-98.32 853.04,-84.6"/>
<polygon fill="#63b8ff" stroke="#63b8ff" points="856.51,-84.03 852.22,-74.35 849.53,-84.6 856.51,-84.03"/>
</a>
</g>
</g>
<!-- Node8 -->
<g id="Node000008" class="node">
<title>Node8</title>
<g id="a_Node000008"><a xlink:href="_field_utils_8_h.html" target="_top" xlink:title=" ">
<polygon fill="white" stroke="#666666" points="265.11,-129 119.11,-129 119.11,-110 265.11,-110 265.11,-129"/>
<text text-anchor="middle" x="192.11" y="-117" font-family="Helvetica,sans-Serif" font-size="10.00">amr&#45;wind/core/FieldUtils.H</text>
</a>
</g>
</g>
<!-- Node3&#45;&gt;Node8 -->
<g id="edge7_Node000003_Node000008" class="edge">
<title>Node3&#45;&gt;Node8</title>
<g id="a_edge7_Node000003_Node000008"><a xlink:title=" ">
<path fill="none" stroke="#63b8ff" d="M1038.57,-242.79C922.12,-238.49 690.25,-226.45 496.11,-195 398.95,-179.26 287.1,-148.5 229.98,-131.85"/>
<polygon fill="#63b8ff" stroke="#63b8ff" points="230.88,-128.47 220.3,-129.01 228.91,-135.19 230.88,-128.47"/>
</a>
</g>
</g>
<!-- Node9 -->
<g id="Node000009" class="node">
<title>Node9</title>
<g id="a_Node000009"><a xlink:title=" ">
<polygon fill="#e0e0e0" stroke="#999999" points="364.61,-74 255.61,-74 255.61,-55 364.61,-55 364.61,-74"/>
<text text-anchor="middle" x="310.11" y="-62" font-family="Helvetica,sans-Serif" font-size="10.00">AMReX_MultiFab.H</text>
</a>
</g>
</g>
<!-- Node3&#45;&gt;Node9 -->
<g id="edge48_Node000003_Node000009" class="edge">
<title>Node3&#45;&gt;Node9</title>
<g id="a_edge48_Node000003_Node000009"><a xlink:title=" ">
<path fill="none" stroke="#63b8ff" d="M1038.36,-243.15C901.38,-239.09 601.12,-227.04 350.11,-195 345.26,-194.38 7.23,-132.77 4.11,-129 -1.27,-122.49 -1.42,-116.39 4.11,-110 6.08,-107.72 156.26,-86.69 245.47,-74.37"/>
<polygon fill="#63b8ff" stroke="#63b8ff" points="246.07,-77.82 255.5,-72.99 245.11,-70.89 246.07,-77.82"/>
</a>
</g>
</g>
<!-- Node11 -->
<g id="Node000011" class="node">
<title>Node11</title>
<g id="a_Node000011"><a xlink:href="_field_8_h.html" target="_top" xlink:title=" ">
<polygon fill="white" stroke="#666666" points="629.11,-189.5 505.11,-189.5 505.11,-170.5 629.11,-170.5 629.11,-189.5"/>
<text text-anchor="middle" x="567.11" y="-177.5" font-family="Helvetica,sans-Serif" font-size="10.00">amr&#45;wind/core/Field.H</text>
</a>
</g>
</g>
<!-- Node3&#45;&gt;Node11 -->
<g id="edge11_Node000003_Node000011" class="edge">
<title>Node3&#45;&gt;Node11</title>
<g id="a_edge11_Node000003_Node000011"><a xlink:title=" ">
<path fill="none" stroke="#63b8ff" d="M1040.32,-236.47C935.66,-224.2 743.79,-201.71 639.4,-189.47"/>
<polygon fill="#63b8ff" stroke="#63b8ff" points="639.61,-185.97 629.27,-188.29 638.79,-192.93 639.61,-185.97"/>
</a>
</g>
</g>
<!-- Node19 -->
<g id="Node000019" class="node">
<title>Node19</title>
<g id="a_Node000019"><a xlink:href="_int_field_8_h.html" target="_top" xlink:title=" ">
<polygon fill="white" stroke="#666666" points="1571.61,-189.5 1434.61,-189.5 1434.61,-170.5 1571.61,-170.5 1571.61,-189.5"/>
<text text-anchor="middle" x="1503.11" y="-177.5" font-family="Helvetica,sans-Serif" font-size="10.00">amr&#45;wind/core/IntField.H</text>
</a>
</g>
</g>
<!-- Node3&#45;&gt;Node19 -->
<g id="edge27_Node000003_Node000019" class="edge">
<title>Node3&#45;&gt;Node19</title>
<g id="a_edge27_Node000003_Node000019"><a xlink:title=" ">
<path fill="none" stroke="#63b8ff" d="M1166.09,-236.46C1227.29,-226.58 1331.01,-209.77 1420.11,-195 1427.43,-193.79 1435.1,-192.5 1442.71,-191.23"/>
<polygon fill="#63b8ff" stroke="#63b8ff" points="1443.36,-194.67 1452.64,-189.56 1442.2,-187.77 1443.36,-194.67"/>
</a>
</g>
</g>
<!-- Node20 -->
<g id="Node000020" class="node">
<title>Node20</title>
<g id="a_Node000020"><a xlink:title=" ">
<polygon fill="#e0e0e0" stroke="#999999" points="1656.11,-129 1544.11,-129 1544.11,-110 1656.11,-110 1656.11,-129"/>
<text text-anchor="middle" x="1600.11" y="-117" font-family="Helvetica,sans-Serif" font-size="10.00">AMReX_iMultiFab.H</text>
</a>
</g>
</g>
<!-- Node3&#45;&gt;Node20 -->
<g id="edge49_Node000003_Node000020" class="edge">
<title>Node3&#45;&gt;Node20</title>
<g id="a_edge49_Node000003_Node000020"><a xlink:title=" ">
<path fill="none" stroke="#63b8ff" d="M1187.74,-240.85C1244.25,-235.49 1322.71,-223.19 1386.11,-195 1406.09,-186.11 1405.44,-174.56 1425.11,-165 1459.22,-148.42 1500.18,-137.58 1533.89,-130.74"/>
<polygon fill="#63b8ff" stroke="#63b8ff" points="1534.96,-134.1 1544.1,-128.75 1533.62,-127.23 1534.96,-134.1"/>
</a>
</g>
</g>
<!-- Node21 -->
<g id="Node000021" class="node">
<title>Node21</title>
<g id="a_Node000021"><a xlink:href="_scratch_field_8_h.html" target="_top" xlink:title=" ">
<polygon fill="white" stroke="#666666" points="1193.11,-189.5 1033.11,-189.5 1033.11,-170.5 1193.11,-170.5 1193.11,-189.5"/>
<text text-anchor="middle" x="1113.11" y="-177.5" font-family="Helvetica,sans-Serif" font-size="10.00">amr&#45;wind/core/ScratchField.H</text>
</a>
</g>
</g>
<!-- Node3&#45;&gt;Node21 -->
<g id="edge31_Node000003_Node000021" class="edge">
<title>Node3&#45;&gt;Node21</title>
<g id="a_edge31_Node000003_Node000021"><a xlink:title=" ">
<path fill="none" stroke="#63b8ff" d="M1113.11,-236.37C1113.11,-227.16 1113.11,-212.29 1113.11,-200.27"/>
<polygon fill="#63b8ff" stroke="#63b8ff" points="1116.61,-199.91 1113.11,-189.91 1109.61,-199.91 1116.61,-199.91"/>
</a>
</g>
</g>
<!-- Node24 -->
<g id="Node000024" class="node">
<title>Node24</title>
<g id="a_Node000024"><a xlink:href="_int_scratch_field_8_h.html" target="_top" xlink:title=" ">
<polygon fill="white" stroke="#666666" points="1377.61,-195 1238.61,-195 1238.61,-165 1377.61,-165 1377.61,-195"/>
<text text-anchor="start" x="1246.61" y="-183" font-family="Helvetica,sans-Serif" font-size="10.00">amr&#45;wind/core/IntScratch</text>
<text text-anchor="middle" x="1308.11" y="-172" font-family="Helvetica,sans-Serif" font-size="10.00">Field.H</text>
</a>
</g>
</g>
<!-- Node3&#45;&gt;Node24 -->
<g id="edge39_Node000003_Node000024" class="edge">
<title>Node3&#45;&gt;Node24</title>
<g id="a_edge39_Node000003_Node000024"><a xlink:title=" ">
<path fill="none" stroke="#63b8ff" d="M1139.41,-236.37C1168.99,-226.66 1217.8,-210.64 1255.33,-198.32"/>
<polygon fill="#63b8ff" stroke="#63b8ff" points="1256.69,-201.56 1265.1,-195.12 1254.51,-194.91 1256.69,-201.56"/>
</a>
</g>
</g>
<!-- Node25 -->
<g id="Node000025" class="node">
<title>Node25</title>
<g id="a_Node000025"><a xlink:title=" ">
<polygon fill="#e0e0e0" stroke="#999999" points="1738.11,-189.5 1628.11,-189.5 1628.11,-170.5 1738.11,-170.5 1738.11,-189.5"/>
<text text-anchor="middle" x="1683.11" y="-177.5" font-family="Helvetica,sans-Serif" font-size="10.00">AMReX_AmrCore.H</text>
</a>
</g>
</g>
<!-- Node3&#45;&gt;Node25 -->
<g id="edge47_Node000003_Node000025" class="edge">
<title>Node3&#45;&gt;Node25</title>
<g id="a_edge47_Node000003_Node000025"><a xlink:title=" ">
<path fill="none" stroke="#63b8ff" d="M1187.67,-239.92C1285.8,-232.69 1463.5,-217.74 1614.11,-195 1620.77,-193.99 1627.76,-192.77 1634.62,-191.48"/>
<polygon fill="#63b8ff" stroke="#63b8ff" points="1635.4,-194.89 1644.55,-189.54 1634.06,-188.02 1635.4,-194.89"/>
</a>
</g>
</g>
<!-- Node7 -->
<g id="Node000007" class="node">
<title>Node7</title>
<g id="a_Node000007"><a xlink:title=" ">
<polygon fill="#e0e0e0" stroke="#999999" points="733.11,-19 683.11,-19 683.11,0 733.11,0 733.11,-19"/>
<text text-anchor="middle" x="708.11" y="-7" font-family="Helvetica,sans-Serif" font-size="10.00">cstdint</text>
</a>
</g>
</g>
<!-- Node6&#45;&gt;Node7 -->
<g id="edge6_Node000006_Node000007" class="edge">
<title>Node6&#45;&gt;Node7</title>
<g id="a_edge6_Node000006_Node000007"><a xlink:title=" ">
<path fill="none" stroke="#63b8ff" d="M828.97,-54.98C805.29,-46.27 768.24,-32.63 741.4,-22.75"/>
<polygon fill="#63b8ff" stroke="#63b8ff" points="742.26,-19.34 731.67,-19.17 739.84,-25.91 742.26,-19.34"/>
</a>
</g>
</g>
<!-- Node8&#45;&gt;Node6 -->
<g id="edge8_Node000008_Node000006" class="edge">
<title>Node8&#45;&gt;Node6</title>
<g id="a_edge8_Node000008_Node000006"><a xlink:title=" ">
<path fill="none" stroke="#63b8ff" d="M265.26,-112.63C384.33,-103.06 620.13,-84.13 753.74,-73.4"/>
<polygon fill="#63b8ff" stroke="#63b8ff" points="754.29,-76.87 763.97,-72.58 753.73,-69.89 754.29,-76.87"/>
</a>
</g>
</g>
<!-- Node8&#45;&gt;Node9 -->
<g id="edge9_Node000008_Node000009" class="edge">
<title>Node8&#45;&gt;Node9</title>
<g id="a_edge9_Node000008_Node000009"><a xlink:title=" ">
<path fill="none" stroke="#63b8ff" d="M211.07,-109.98C230.13,-101.42 259.77,-88.11 281.66,-78.28"/>
<polygon fill="#63b8ff" stroke="#63b8ff" points="283.12,-81.46 290.8,-74.17 280.25,-75.07 283.12,-81.46"/>
</a>
</g>
</g>
<!-- Node10 -->
<g id="Node000010" class="node">
<title>Node10</title>
<g id="a_Node000010"><a xlink:title=" ">
<polygon fill="#e0e0e0" stroke="#999999" points="237.11,-74 113.11,-74 113.11,-55 237.11,-55 237.11,-74"/>
<text text-anchor="middle" x="175.11" y="-62" font-family="Helvetica,sans-Serif" font-size="10.00">AMReX_Interpolater.H</text>
</a>
</g>
</g>
<!-- Node8&#45;&gt;Node10 -->
<g id="edge10_Node000008_Node000010" class="edge">
<title>Node8&#45;&gt;Node10</title>
<g id="a_edge10_Node000008_Node000010"><a xlink:title=" ">
<path fill="none" stroke="#63b8ff" d="M189.3,-109.75C187.05,-102.72 183.81,-92.62 180.99,-83.84"/>
<polygon fill="#63b8ff" stroke="#63b8ff" points="184.25,-82.54 177.86,-74.09 177.58,-84.68 184.25,-82.54"/>
</a>
</g>
</g>
<!-- Node11&#45;&gt;Node4 -->
<g id="edge12_Node000011_Node000004" class="edge">
<title>Node11&#45;&gt;Node4</title>
<g id="a_edge12_Node000011_Node000004"><a xlink:title=" ">
<path fill="none" stroke="#63b8ff" d="M629.15,-174.87C722.27,-168.17 903.55,-153.19 1056.11,-129 1095.63,-122.73 1104.96,-118.28 1144.11,-110 1208.91,-96.3 1284.8,-80.69 1326.87,-72.08"/>
<polygon fill="#63b8ff" stroke="#63b8ff" points="1327.71,-75.48 1336.81,-70.05 1326.31,-68.62 1327.71,-75.48"/>
</a>
</g>
</g>
<!-- Node11&#45;&gt;Node5 -->
<g id="edge14_Node000011_Node000005" class="edge">
<title>Node11&#45;&gt;Node5</title>
<g id="a_edge14_Node000011_Node000005"><a xlink:title=" ">
<path fill="none" stroke="#63b8ff" d="M589.36,-170.49C615.42,-160.53 658.79,-143.95 688.37,-132.63"/>
<polygon fill="#63b8ff" stroke="#63b8ff" points="689.74,-135.86 697.83,-129.02 687.24,-129.32 689.74,-135.86"/>
</a>
</g>
</g>
<!-- Node11&#45;&gt;Node6 -->
<g id="edge21_Node000011_Node000006" class="edge">
<title>Node11&#45;&gt;Node6</title>
<g id="a_edge21_Node000011_Node000006"><a xlink:title=" ">
<path fill="none" stroke="#63b8ff" d="M576.51,-170.37C592.99,-155.73 628.72,-126.03 664.11,-110 700.55,-93.49 743.85,-82.7 779.7,-75.89"/>
<polygon fill="#63b8ff" stroke="#63b8ff" points="780.4,-79.32 789.61,-74.08 779.14,-72.44 780.4,-79.32"/>
</a>
</g>
</g>
<!-- Node11&#45;&gt;Node9 -->
<g id="edge16_Node000011_Node000009" class="edge">
<title>Node11&#45;&gt;Node9</title>
<g id="a_edge16_Node000011_Node000009"><a xlink:title=" ">
<path fill="none" stroke="#63b8ff" d="M504.62,-178.91C456.05,-175.82 389.38,-164.59 343.11,-129 328.67,-117.89 319.94,-98.68 315.12,-84.29"/>
<polygon fill="#63b8ff" stroke="#63b8ff" points="318.4,-83.01 312.17,-74.44 311.69,-85.02 318.4,-83.01"/>
</a>
</g>
</g>
<!-- Node12 -->
<g id="Node000012" class="node">
<title>Node12</title>
<g id="a_Node000012"><a xlink:title=" ">
<polygon fill="#e0e0e0" stroke="#999999" points="417.11,-129 359.11,-129 359.11,-110 417.11,-110 417.11,-129"/>
<text text-anchor="middle" x="388.11" y="-117" font-family="Helvetica,sans-Serif" font-size="10.00">memory</text>
</a>
</g>
</g>
<!-- Node11&#45;&gt;Node12 -->
<g id="edge13_Node000011_Node000012" class="edge">
<title>Node11&#45;&gt;Node12</title>
<g id="a_edge13_Node000011_Node000012"><a xlink:title=" ">
<path fill="none" stroke="#63b8ff" d="M541.08,-170.49C510.19,-160.4 458.52,-143.51 423.89,-132.19"/>
<polygon fill="#63b8ff" stroke="#63b8ff" points="424.76,-128.8 414.17,-129.02 422.59,-135.45 424.76,-128.8"/>
</a>
</g>
</g>
<!-- Node13 -->
<g id="Node000013" class="node">
<title>Node13</title>
<g id="a_Node000013"><a xlink:title=" ">
<polygon fill="#e0e0e0" stroke="#999999" points="499.11,-129 435.11,-129 435.11,-110 499.11,-110 499.11,-129"/>
<text text-anchor="middle" x="467.11" y="-117" font-family="Helvetica,sans-Serif" font-size="10.00">algorithm</text>
</a>
</g>
</g>
<!-- Node11&#45;&gt;Node13 -->
<g id="edge15_Node000011_Node000013" class="edge">
<title>Node11&#45;&gt;Node13</title>
<g id="a_edge15_Node000011_Node000013"><a xlink:title=" ">
<path fill="none" stroke="#63b8ff" d="M552.35,-170.37C536.1,-160.86 509.75,-145.45 490.65,-134.27"/>
<polygon fill="#63b8ff" stroke="#63b8ff" points="492.32,-131.2 481.92,-129.17 488.79,-137.24 492.32,-131.2"/>
</a>
</g>
</g>
<!-- Node14 -->
<g id="Node000014" class="node">
<title>Node14</title>
<g id="a_Node000014"><a xlink:title=" ">
<polygon fill="#e0e0e0" stroke="#999999" points="616.61,-129 517.61,-129 517.61,-110 616.61,-110 616.61,-129"/>
<text text-anchor="middle" x="567.11" y="-117" font-family="Helvetica,sans-Serif" font-size="10.00">AMReX_BCRec.H</text>
</a>
</g>
</g>
<!-- Node11&#45;&gt;Node14 -->
<g id="edge17_Node000011_Node000014" class="edge">
<title>Node11&#45;&gt;Node14</title>
<g id="a_edge17_Node000011_Node000014"><a xlink:title=" ">
<path fill="none" stroke="#63b8ff" d="M567.11,-170.37C567.11,-162.25 567.11,-149.81 567.11,-139.39"/>
<polygon fill="#63b8ff" stroke="#63b8ff" points="570.61,-139.17 567.11,-129.17 563.61,-139.17 570.61,-139.17"/>
</a>
</g>
</g>
<!-- Node15 -->
<g id="Node000015" class="node">
<title>Node15</title>
<g id="a_Node000015"><a xlink:title=" ">
<polygon fill="#e0e0e0" stroke="#999999" points="100.61,-129 13.61,-129 13.61,-110 100.61,-110 100.61,-129"/>
<text text-anchor="middle" x="57.11" y="-117" font-family="Helvetica,sans-Serif" font-size="10.00">AMReX_Gpu.H</text>
</a>
</g>
</g>
<!-- Node11&#45;&gt;Node15 -->
<g id="edge18_Node000011_Node000015" class="edge">
<title>Node11&#45;&gt;Node15</title>
<g id="a_edge18_Node000011_Node000015"><a xlink:title=" ">
<path fill="none" stroke="#63b8ff" d="M504.9,-173.19C418.82,-164.93 258.32,-148.73 110.9,-129.04"/>
<polygon fill="#63b8ff" stroke="#63b8ff" points="111.13,-125.54 100.76,-127.68 110.2,-132.48 111.13,-125.54"/>
</a>
</g>
</g>
<!-- Node16 -->
<g id="Node000016" class="node">
<title>Node16</title>
<g id="a_Node000016"><a xlink:href="incflo__enums_8_h.html" target="_top" xlink:title=" ">
<polygon fill="white" stroke="#666666" points="635.61,-74 494.61,-74 494.61,-55 635.61,-55 635.61,-74"/>
<text text-anchor="middle" x="565.11" y="-62" font-family="Helvetica,sans-Serif" font-size="10.00">amr&#45;wind/incflo_enums.H</text>
</a>
</g>
</g>
<!-- Node11&#45;&gt;Node16 -->
<g id="edge19_Node000011_Node000016" class="edge">
<title>Node11&#45;&gt;Node16</title>
<g id="a_edge19_Node000011_Node000016"><a xlink:title=" ">
<path fill="none" stroke="#63b8ff" d="M504.96,-173.2C447.82,-166.43 369.19,-152.97 350.11,-129 344.85,-122.39 344.78,-116.55 350.11,-110 367.07,-89.17 430.5,-77.79 484.11,-71.77"/>
<polygon fill="#63b8ff" stroke="#63b8ff" points="484.77,-75.22 494.33,-70.67 484.02,-68.26 484.77,-75.22"/>
</a>
</g>
</g>
<!-- Node17 -->
<g id="Node000017" class="node">
<title>Node17</title>
<g id="a_Node000017"><a xlink:href="_view_field_8_h.html" target="_top" xlink:title=" ">
<polygon fill="white" stroke="#666666" points="1047.11,-129 899.11,-129 899.11,-110 1047.11,-110 1047.11,-129"/>
<text text-anchor="middle" x="973.11" y="-117" font-family="Helvetica,sans-Serif" font-size="10.00">amr&#45;wind/core/ViewField.H</text>
</a>
</g>
</g>
<!-- Node11&#45;&gt;Node17 -->
<g id="edge22_Node000011_Node000017" class="edge">
<title>Node11&#45;&gt;Node17</title>
<g id="a_edge22_Node000011_Node000017"><a xlink:title=" ">
<path fill="none" stroke="#63b8ff" d="M626.14,-170.49C699.81,-159.88 825.59,-141.76 903.77,-130.49"/>
<polygon fill="#63b8ff" stroke="#63b8ff" points="904.6,-133.91 914,-129.02 903.6,-126.98 904.6,-133.91"/>
</a>
</g>
</g>
<!-- Node16&#45;&gt;Node7 -->
<g id="edge20_Node000016_Node000007" class="edge">
<title>Node16&#45;&gt;Node7</title>
<g id="a_edge20_Node000016_Node000007"><a xlink:title=" ">
<path fill="none" stroke="#63b8ff" d="M588.08,-54.98C611.61,-46.27 648.4,-32.63 675.05,-22.75"/>
<polygon fill="#63b8ff" stroke="#63b8ff" points="676.55,-25.93 684.71,-19.17 674.12,-19.36 676.55,-25.93"/>
</a>
</g>
</g>
<!-- Node17&#45;&gt;Node4 -->
<g id="edge23_Node000017_Node000004" class="edge">
<title>Node17&#45;&gt;Node4</title>
<g id="a_edge23_Node000017_Node000004"><a xlink:title=" ">
<path fill="none" stroke="#63b8ff" d="M1035.13,-109.98C1118.3,-98.56 1262.92,-78.71 1326.98,-69.91"/>
<polygon fill="#63b8ff" stroke="#63b8ff" points="1327.48,-73.38 1336.91,-68.55 1326.52,-66.44 1327.48,-73.38"/>
</a>
</g>
</g>
<!-- Node17&#45;&gt;Node6 -->
<g id="edge24_Node000017_Node000006" class="edge">
<title>Node17&#45;&gt;Node6</title>
<g id="a_edge24_Node000017_Node000006"><a xlink:title=" ">
<path fill="none" stroke="#63b8ff" d="M953.67,-109.98C934.11,-101.42 903.73,-88.11 881.28,-78.28"/>
<polygon fill="#63b8ff" stroke="#63b8ff" points="882.47,-74.98 871.9,-74.17 879.66,-81.39 882.47,-74.98"/>
</a>
</g>
</g>
<!-- Node17&#45;&gt;Node9 -->
<g id="edge25_Node000017_Node000009" class="edge">
<title>Node17&#45;&gt;Node9</title>
<g id="a_edge25_Node000017_Node000009"><a xlink:title=" ">
<path fill="none" stroke="#63b8ff" d="M898.98,-112.57C768.17,-102.12 498.53,-80.56 374.77,-70.67"/>
<polygon fill="#63b8ff" stroke="#63b8ff" points="374.93,-67.17 364.69,-69.86 374.38,-74.15 374.93,-67.17"/>
</a>
</g>
</g>
<!-- Node18 -->
<g id="Node000018" class="node">
<title>Node18</title>
<g id="a_Node000018"><a xlink:title=" ">
<polygon fill="#e0e0e0" stroke="#999999" points="1162.11,-74 1064.11,-74 1064.11,-55 1162.11,-55 1162.11,-74"/>
<text text-anchor="middle" x="1113.11" y="-62" font-family="Helvetica,sans-Serif" font-size="10.00">AMReX_Vector.H</text>
</a>
</g>
</g>
<!-- Node17&#45;&gt;Node18 -->
<g id="edge26_Node000017_Node000018" class="edge">
<title>Node17&#45;&gt;Node18</title>
<g id="a_edge26_Node000017_Node000018"><a xlink:title=" ">
<path fill="none" stroke="#63b8ff" d="M995.6,-109.98C1018.63,-101.27 1054.65,-87.63 1080.74,-77.75"/>
<polygon fill="#63b8ff" stroke="#63b8ff" points="1082.09,-80.98 1090.21,-74.17 1079.61,-74.44 1082.09,-80.98"/>
</a>
</g>
</g>
<!-- Node19&#45;&gt;Node4 -->
<g id="edge28_Node000019_Node000004" class="edge">
<title>Node19&#45;&gt;Node4</title>
<g id="a_edge28_Node000019_Node000004"><a xlink:title=" ">
<path fill="none" stroke="#63b8ff" d="M1552.12,-170.45C1594.67,-161.91 1651.52,-147.41 1665.11,-129 1670.12,-122.21 1670.63,-116.39 1665.11,-110 1629.95,-69.36 1462.6,-65.07 1391.35,-65.13"/>
<polygon fill="#63b8ff" stroke="#63b8ff" points="1391.15,-61.63 1381.17,-65.17 1391.18,-68.63 1391.15,-61.63"/>
</a>
</g>
</g>
<!-- Node19&#45;&gt;Node6 -->
<g id="edge29_Node000019_Node000006" class="edge">
<title>Node19&#45;&gt;Node6</title>
<g id="a_edge29_Node000019_Node000006"><a xlink:title=" ">
<path fill="none" stroke="#63b8ff" d="M1493.69,-170.29C1476.45,-154.96 1438.01,-123.48 1399.11,-110 1357.95,-95.74 1096.5,-79.15 950.46,-70.83"/>
<polygon fill="#63b8ff" stroke="#63b8ff" points="950.33,-67.32 940.15,-70.25 949.94,-74.31 950.33,-67.32"/>
</a>
</g>
</g>
<!-- Node19&#45;&gt;Node20 -->
<g id="edge30_Node000019_Node000020" class="edge">
<title>Node19&#45;&gt;Node20</title>
<g id="a_edge30_Node000019_Node000020"><a xlink:title=" ">
<path fill="none" stroke="#63b8ff" d="M1517.42,-170.37C1533.11,-160.91 1558.51,-145.59 1577.02,-134.42"/>
<polygon fill="#63b8ff" stroke="#63b8ff" points="1578.98,-137.33 1585.74,-129.17 1575.37,-131.33 1578.98,-137.33"/>
</a>
</g>
</g>
<!-- Node21&#45;&gt;Node4 -->
<g id="edge32_Node000021_Node000004" class="edge">
<title>Node21&#45;&gt;Node4</title>
<g id="a_edge32_Node000021_Node000004"><a xlink:title=" ">
<path fill="none" stroke="#63b8ff" d="M1117.78,-170.24C1126.18,-155.4 1145.29,-125.41 1170.11,-110 1219.16,-79.53 1287.19,-69.92 1326.84,-66.89"/>
<polygon fill="#63b8ff" stroke="#63b8ff" points="1327.24,-70.37 1336.99,-66.21 1326.78,-63.38 1327.24,-70.37"/>
</a>
</g>
</g>
<!-- Node21&#45;&gt;Node6 -->
<g id="edge34_Node000021_Node000006" class="edge">
<title>Node21&#45;&gt;Node6</title>
<g id="a_edge34_Node000021_Node000006"><a xlink:title=" ">
<path fill="none" stroke="#63b8ff" d="M1033.01,-176.38C987.45,-171.36 931.42,-158.87 890.11,-129 874.53,-117.73 864.17,-97.93 858.26,-83.43"/>
<polygon fill="#63b8ff" stroke="#63b8ff" points="861.52,-82.14 854.73,-74.01 854.96,-84.6 861.52,-82.14"/>
</a>
</g>
</g>
<!-- Node21&#45;&gt;Node9 -->
<g id="edge36_Node000021_Node000009" class="edge">
<title>Node21&#45;&gt;Node9</title>
<g id="a_edge36_Node000021_Node000009"><a xlink:title=" ">
<path fill="none" stroke="#63b8ff" d="M1071.52,-170.48C982.01,-152.15 778.8,-110.55 775.11,-110 633,-88.76 464.87,-75.6 374.8,-69.52"/>
<polygon fill="#63b8ff" stroke="#63b8ff" points="374.95,-66.02 364.74,-68.84 374.49,-73 374.95,-66.02"/>
</a>
</g>
</g>
<!-- Node21&#45;&gt;Node17 -->
<g id="edge35_Node000021_Node000017" class="edge">
<title>Node21&#45;&gt;Node17</title>
<g id="a_edge35_Node000021_Node000017"><a xlink:title=" ">
<path fill="none" stroke="#63b8ff" d="M1092.75,-170.49C1069.11,-160.62 1029.91,-144.23 1002.86,-132.93"/>
<polygon fill="#63b8ff" stroke="#63b8ff" points="1004.07,-129.64 993.49,-129.02 1001.37,-136.1 1004.07,-129.64"/>
</a>
</g>
</g>
<!-- Node21&#45;&gt;Node18 -->
<g id="edge37_Node000021_Node000018" class="edge">
<title>Node21&#45;&gt;Node18</title>
<g id="a_edge37_Node000021_Node000018"><a xlink:title=" ">
<path fill="none" stroke="#63b8ff" d="M1113.11,-170.47C1113.11,-152.23 1113.11,-109.07 1113.11,-84.14"/>
<polygon fill="#63b8ff" stroke="#63b8ff" points="1116.61,-84.13 1113.11,-74.13 1109.61,-84.13 1116.61,-84.13"/>
</a>
</g>
</g>
<!-- Node22 -->
<g id="Node000022" class="node">
<title>Node22</title>
<g id="a_Node000022"><a xlink:title=" ">
<polygon fill="#e0e0e0" stroke="#999999" points="1224.61,-129 1179.61,-129 1179.61,-110 1224.61,-110 1224.61,-129"/>
<text text-anchor="middle" x="1202.11" y="-117" font-family="Helvetica,sans-Serif" font-size="10.00">utility</text>
</a>
</g>
</g>
<!-- Node21&#45;&gt;Node22 -->
<g id="edge33_Node000021_Node000022" class="edge">
<title>Node21&#45;&gt;Node22</title>
<g id="a_edge33_Node000021_Node000022"><a xlink:title=" ">
<path fill="none" stroke="#63b8ff" d="M1126.24,-170.37C1140.44,-161.04 1163.3,-146.01 1180.23,-134.88"/>
<polygon fill="#63b8ff" stroke="#63b8ff" points="1182.49,-137.58 1188.92,-129.17 1178.64,-131.74 1182.49,-137.58"/>
</a>
</g>
</g>
<!-- Node23 -->
<g id="Node000023" class="node">
<title>Node23</title>
<g id="a_Node000023"><a xlink:title=" ">
<polygon fill="#e0e0e0" stroke="#999999" points="1373.61,-129 1242.61,-129 1242.61,-110 1373.61,-110 1373.61,-129"/>
<text text-anchor="middle" x="1308.11" y="-117" font-family="Helvetica,sans-Serif" font-size="10.00">AMReX_PhysBCFunct.H</text>
</a>
</g>
</g>
<!-- Node21&#45;&gt;Node23 -->
<g id="edge38_Node000021_Node000023" class="edge">
<title>Node21&#45;&gt;Node23</title>
<g id="a_edge38_Node000021_Node000023"><a xlink:title=" ">
<path fill="none" stroke="#63b8ff" d="M1141.46,-170.49C1175.4,-160.31 1232.37,-143.22 1270.1,-131.9"/>
<polygon fill="#63b8ff" stroke="#63b8ff" points="1271.15,-135.24 1279.72,-129.02 1269.14,-128.54 1271.15,-135.24"/>
</a>
</g>
</g>
<!-- Node24&#45;&gt;Node4 -->
<g id="edge40_Node000024_Node000004" class="edge">
<title>Node24&#45;&gt;Node4</title>
<g id="a_edge40_Node000024_Node000004"><a xlink:title=" ">
<path fill="none" stroke="#63b8ff" d="M1371.64,-164.99C1406.2,-155.94 1443.94,-143.22 1454.11,-129 1473.63,-101.68 1425.79,-82.72 1391.14,-73.02"/>
<polygon fill="#63b8ff" stroke="#63b8ff" points="1391.91,-69.6 1381.34,-70.41 1390.11,-76.36 1391.91,-69.6"/>
</a>
</g>
</g>
<!-- Node24&#45;&gt;Node6 -->
<g id="edge42_Node000024_Node000006" class="edge">
<title>Node24&#45;&gt;Node6</title>
<g id="a_edge42_Node000024_Node000006"><a xlink:title=" ">
<path fill="none" stroke="#63b8ff" d="M1341.65,-164.87C1369.12,-151.38 1400.66,-130.17 1382.11,-110 1367.71,-94.34 1099.45,-78.17 950.24,-70.34"/>
<polygon fill="#63b8ff" stroke="#63b8ff" points="950.32,-66.84 940.15,-69.81 949.95,-73.83 950.32,-66.84"/>
</a>
</g>
</g>
<!-- Node24&#45;&gt;Node17 -->
<g id="edge43_Node000024_Node000017" class="edge">
<title>Node24&#45;&gt;Node17</title>
<g id="a_edge43_Node000024_Node000017"><a xlink:title=" ">
<path fill="none" stroke="#63b8ff" d="M1238.29,-166.81C1177.24,-156.15 1089.57,-140.84 1032,-130.78"/>
<polygon fill="#63b8ff" stroke="#63b8ff" points="1032.42,-127.3 1021.97,-129.03 1031.22,-134.2 1032.42,-127.3"/>
</a>
</g>
</g>
<!-- Node24&#45;&gt;Node18 -->
<g id="edge45_Node000024_Node000018" class="edge">
<title>Node24&#45;&gt;Node18</title>
<g id="a_edge45_Node000024_Node000018"><a xlink:title=" ">
<path fill="none" stroke="#63b8ff" d="M1363.69,-164.98C1400.01,-153.18 1437.13,-134.33 1416.11,-110 1385.3,-74.33 1251.84,-66.73 1172.69,-65.42"/>
<polygon fill="#63b8ff" stroke="#63b8ff" points="1172.41,-61.91 1162.37,-65.28 1172.32,-68.91 1172.41,-61.91"/>
</a>
</g>
</g>
<!-- Node24&#45;&gt;Node20 -->
<g id="edge44_Node000024_Node000020" class="edge">
<title>Node24&#45;&gt;Node20</title>
<g id="a_edge44_Node000024_Node000020"><a xlink:title=" ">
<path fill="none" stroke="#63b8ff" d="M1377.68,-165.06C1429.7,-154.64 1499.74,-140.61 1547.23,-131.09"/>
<polygon fill="#63b8ff" stroke="#63b8ff" points="1548.18,-134.47 1557.3,-129.08 1546.81,-127.61 1548.18,-134.47"/>
</a>
</g>
</g>
<!-- Node24&#45;&gt;Node22 -->
<g id="edge41_Node000024_Node000022" class="edge">
<title>Node24&#45;&gt;Node22</title>
<g id="a_edge41_Node000024_Node000022"><a xlink:title=" ">
<path fill="none" stroke="#63b8ff" d="M1282.72,-164.99C1265.82,-155.66 1243.73,-143.47 1226.95,-134.21"/>
<polygon fill="#63b8ff" stroke="#63b8ff" points="1228.21,-130.91 1217.76,-129.14 1224.83,-137.04 1228.21,-130.91"/>
</a>
</g>
</g>
<!-- Node24&#45;&gt;Node23 -->
<g id="edge46_Node000024_Node000023" class="edge">
<title>Node24&#45;&gt;Node23</title>
<g id="a_edge46_Node000024_Node000023"><a xlink:title=" ">
<path fill="none" stroke="#63b8ff" d="M1308.11,-164.84C1308.11,-157.21 1308.11,-147.7 1308.11,-139.45"/>
<polygon fill="#63b8ff" stroke="#63b8ff" points="1311.61,-139.27 1308.11,-129.27 1304.61,-139.27 1311.61,-139.27"/>
</a>
</g>
</g>
<!-- Node26&#45;&gt;Node27 -->
<g id="edge51_Node000026_Node000027" class="edge">
<title>Node26&#45;&gt;Node27</title>
<g id="a_edge51_Node000026_Node000027"><a xlink:title=" ">
<path fill="none" stroke="#63b8ff" d="M1476.43,-241.89C1232.53,-230.85 410.71,-193.66 187.47,-183.55"/>
<polygon fill="#63b8ff" stroke="#63b8ff" points="187.45,-180.05 177.3,-183.09 187.13,-187.04 187.45,-180.05"/>
</a>
</g>
</g>
<!-- Node28 -->
<g id="Node000028" class="node">
<title>Node28</title>
<g id="a_Node000028"><a xlink:title=" ">
<polygon fill="#e0e0e0" stroke="#999999" points="2116.11,-189.5 2030.11,-189.5 2030.11,-170.5 2116.11,-170.5 2116.11,-189.5"/>
<text text-anchor="middle" x="2073.11" y="-177.5" font-family="Helvetica,sans-Serif" font-size="10.00">AMReX_Box.H</text>
</a>
</g>
</g>
<!-- Node26&#45;&gt;Node28 -->
<g id="edge52_Node000026_Node000028" class="edge">
<title>Node26&#45;&gt;Node28</title>
<g id="a_edge52_Node000026_Node000028"><a xlink:title=" ">
<path fill="none" stroke="#63b8ff" d="M1588.73,-236.48C1599.91,-234.48 1611.93,-232.51 1623.11,-231 1799.13,-207.29 1846.26,-226.2 2021.11,-195 2025.63,-194.19 2030.33,-193.18 2034.98,-192.07"/>
<polygon fill="#63b8ff" stroke="#63b8ff" points="2036.14,-195.38 2044.97,-189.53 2034.42,-188.6 2036.14,-195.38"/>
</a>
</g>
</g>
<!-- Node29 -->
<g id="Node000029" class="node">
<title>Node29</title>
<g id="a_Node000029"><a xlink:title=" ">
<polygon fill="#e0e0e0" stroke="#999999" points="1878.11,-189.5 1756.11,-189.5 1756.11,-170.5 1878.11,-170.5 1878.11,-189.5"/>
<text text-anchor="middle" x="1817.11" y="-177.5" font-family="Helvetica,sans-Serif" font-size="10.00">AMReX_Orientation.H</text>
</a>
</g>
</g>
<!-- Node26&#45;&gt;Node29 -->
<g id="edge53_Node000026_Node000029" class="edge">
<title>Node26&#45;&gt;Node29</title>
<g id="a_edge53_Node000026_Node000029"><a xlink:title=" ">
<path fill="none" stroke="#63b8ff" d="M1581.51,-236.44C1630.47,-224.92 1717.55,-204.43 1771.02,-191.84"/>
<polygon fill="#63b8ff" stroke="#63b8ff" points="1771.99,-195.21 1780.92,-189.51 1770.39,-188.4 1771.99,-195.21"/>
</a>
</g>
</g>
<!-- Node30 -->
<g id="Node000030" class="node">
<title>Node30</title>
<g id="a_Node000030"><a xlink:title=" ">
<polygon fill="#e0e0e0" stroke="#999999" points="2011.61,-189.5 1896.61,-189.5 1896.61,-170.5 2011.61,-170.5 2011.61,-189.5"/>
<text text-anchor="middle" x="1954.11" y="-177.5" font-family="Helvetica,sans-Serif" font-size="10.00">AMReX_Geometry.H</text>
</a>
</g>
</g>
<!-- Node26&#45;&gt;Node30 -->
<g id="edge54_Node000026_Node000030" class="edge">
<title>Node26&#45;&gt;Node30</title>
<g id="a_edge54_Node000026_Node000030"><a xlink:title=" ">
<path fill="none" stroke="#63b8ff" d="M1590.84,-236.46C1601.42,-234.58 1612.64,-232.65 1623.11,-231 1740.08,-212.54 1770.41,-215.12 1887.11,-195 1893.03,-193.98 1899.24,-192.81 1905.37,-191.6"/>
<polygon fill="#63b8ff" stroke="#63b8ff" points="1906.47,-194.95 1915.58,-189.54 1905.08,-188.09 1906.47,-194.95"/>
</a>
</g>
</g>
<!-- Node31&#45;&gt;Node15 -->
<g id="edge57_Node000031_Node000015" class="edge">
<title>Node31&#45;&gt;Node15</title>
<g id="a_edge57_Node000031_Node000015"><a xlink:title=" ">
<path fill="none" stroke="#63b8ff" d="M159.33,-237.76C131,-231.18 97.43,-218.68 76.11,-195 62.32,-179.68 58.25,-155.75 57.2,-139.16"/>
<polygon fill="#63b8ff" stroke="#63b8ff" points="60.69,-138.92 56.86,-129.04 53.69,-139.15 60.69,-138.92"/>
</a>
</g>
</g>
<!-- Node31&#45;&gt;Node27 -->
<g id="edge56_Node000031_Node000027" class="edge">
<title>Node31&#45;&gt;Node27</title>
<g id="a_edge56_Node000031_Node000027"><a xlink:title=" ">
<path fill="none" stroke="#63b8ff" d="M193.35,-230.8C180.51,-220.53 163.19,-206.67 150.08,-196.18"/>
<polygon fill="#63b8ff" stroke="#63b8ff" points="152.16,-193.36 142.16,-189.84 147.79,-198.82 152.16,-193.36"/>
</a>
</g>
</g>
</g>
</svg>
