<?xml version="1.0" encoding="UTF-8" standalone="no"?>
<!DOCTYPE svg PUBLIC "-//W3C//DTD SVG 1.1//EN"
 "http://www.w3.org/Graphics/SVG/1.1/DTD/svg11.dtd">
<!-- Generated by graphviz version 2.43.0 (0)
 -->
<!-- Title: amr_wind::pde::AdvectionOp&lt; ICNS, fvm::MOL &gt; Pages: 1 -->
<svg width="2145pt" height="470pt"
 viewBox="0.00 0.00 2145.00 470.00" xmlns="http://www.w3.org/2000/svg" xmlns:xlink="http://www.w3.org/1999/xlink">
<g id="graph0" class="graph" transform="scale(1 1) rotate(0) translate(4 466)">
<title>amr_wind::pde::AdvectionOp&lt; ICNS, fvm::MOL &gt;</title>
<!-- Node1 -->
<g id="Node000001" class="node">
<title>Node1</title>
<g id="a_Node000001"><a xlink:title=" ">
<polygon fill="#999999" stroke="#666666" points="2137,-115.5 1994,-115.5 1994,-85.5 2137,-85.5 2137,-115.5"/>
<text text-anchor="start" x="2002" y="-103.5" font-family="Helvetica,sans-Serif" font-size="10.00">amr_wind::pde::Advection</text>
<text text-anchor="middle" x="2065.5" y="-92.5" font-family="Helvetica,sans-Serif" font-size="10.00">Op&lt; ICNS, fvm::MOL &gt;</text>
</a>
</g>
</g>
<!-- Node2 -->
<g id="Node000002" class="node">
<title>Node2</title>
<g id="a_Node000002"><a xlink:href="structamr__wind_1_1pde_1_1_p_d_e_fields.html" target="_top" xlink:title=" ">
<polygon fill="white" stroke="#666666" points="1837,-169 1694,-169 1694,-150 1837,-150 1837,-169"/>
<text text-anchor="middle" x="1765.5" y="-157" font-family="Helvetica,sans-Serif" font-size="10.00">amr_wind::pde::PDEFields</text>
</a>
</g>
</g>
<!-- Node2&#45;&gt;Node1 -->
<g id="edge1_Node000001_Node000002" class="edge">
<title>Node2&#45;&gt;Node1</title>
<g id="a_edge1_Node000001_Node000002"><a xlink:title=" ">
<path fill="none" stroke="#9a32cd" stroke-dasharray="5,2" d="M1824.72,-147.97C1873.14,-138.39 1942.24,-124.71 1993.83,-114.49"/>
<polygon fill="#9a32cd" stroke="#9a32cd" points="1823.84,-144.58 1814.71,-149.96 1825.2,-151.45 1823.84,-144.58"/>
</a>
</g>
<text text-anchor="start" x="1910" y="-144" font-family="Helvetica,sans-Serif" font-size="10.00" fill="grey">fields</text>
</g>
<!-- Node3 -->
<g id="Node000003" class="node">
<title>Node3</title>
<g id="a_Node000003"><a xlink:href="classamr__wind_1_1_field_repo.html" target="_top" xlink:title=" ">
<polygon fill="white" stroke="#666666" points="1294,-248 1175,-248 1175,-229 1294,-229 1294,-248"/>
<text text-anchor="middle" x="1234.5" y="-236" font-family="Helvetica,sans-Serif" font-size="10.00">amr_wind::FieldRepo</text>
</a>
</g>
</g>
<!-- Node3&#45;&gt;Node2 -->
<g id="edge2_Node000002_Node000003" class="edge">
<title>Node3&#45;&gt;Node2</title>
<g id="a_edge2_Node000002_Node000003"><a xlink:title=" ">
<path fill="none" stroke="#9a32cd" stroke-dasharray="5,2" d="M1304.36,-236.48C1389.16,-232.88 1537.17,-222.89 1661,-195.5 1689.61,-189.17 1721.25,-177.43 1741.92,-169.08"/>
<polygon fill="#9a32cd" stroke="#9a32cd" points="1304.19,-232.99 1294.34,-236.89 1304.48,-239.98 1304.19,-232.99"/>
</a>
</g>
<text text-anchor="start" x="1494.5" y="-233" font-family="Helvetica,sans-Serif" font-size="10.00" fill="grey">repo</text>
</g>
<!-- Node10 -->
<g id="Node000010" class="node">
<title>Node10</title>
<g id="a_Node000010"><a xlink:href="classamr__wind_1_1_field.html" target="_top" xlink:title=" ">
<polygon fill="white" stroke="#666666" points="1552.5,-127 1458.5,-127 1458.5,-108 1552.5,-108 1552.5,-127"/>
<text text-anchor="middle" x="1505.5" y="-115" font-family="Helvetica,sans-Serif" font-size="10.00">amr_wind::Field</text>
</a>
</g>
</g>
<!-- Node3&#45;&gt;Node10 -->
<g id="edge10_Node000010_Node000003" class="edge">
<title>Node3&#45;&gt;Node10</title>
<g id="a_edge10_Node000010_Node000003"><a xlink:title=" ">
<path fill="none" stroke="#9a32cd" stroke-dasharray="5,2" d="M1271.8,-225.53C1290.04,-218.78 1312.37,-210.14 1332,-201.5 1340.19,-197.89 1341.84,-196.15 1350,-192.5 1375.31,-181.18 1382.86,-181.21 1408,-169.5 1436.81,-156.08 1469.1,-138.04 1488.07,-127.12"/>
<polygon fill="#9a32cd" stroke="#9a32cd" points="1270.59,-222.25 1262.41,-228.98 1273,-228.82 1270.59,-222.25"/>
</a>
</g>
<text text-anchor="start" x="1361" y="-198" font-family="Helvetica,sans-Serif" font-size="10.00" fill="grey">m_repo</text>
</g>
<!-- Node17 -->
<g id="Node000017" class="node">
<title>Node17</title>
<g id="a_Node000017"><a xlink:href="classamr__wind_1_1pde_1_1_mac_proj_op.html" target="_top" xlink:title=" ">
<polygon fill="white" stroke="#666666" points="1839,-317 1692,-317 1692,-298 1839,-298 1839,-317"/>
<text text-anchor="middle" x="1765.5" y="-305" font-family="Helvetica,sans-Serif" font-size="10.00">amr_wind::pde::MacProjOp</text>
</a>
</g>
</g>
<!-- Node3&#45;&gt;Node17 -->
<g id="edge23_Node000017_Node000003" class="edge">
<title>Node3&#45;&gt;Node17</title>
<g id="a_edge23_Node000017_Node000003"><a xlink:title=" ">
<path fill="none" stroke="#9a32cd" stroke-dasharray="5,2" d="M1304.18,-244.68C1374.77,-251.34 1487.79,-262.83 1585,-276.5 1628.84,-282.66 1678.42,-291.36 1714.34,-297.97"/>
<polygon fill="#9a32cd" stroke="#9a32cd" points="1304.36,-241.19 1294.08,-243.74 1303.71,-248.16 1304.36,-241.19"/>
</a>
</g>
<text text-anchor="start" x="1487.5" y="-282" font-family="Helvetica,sans-Serif" font-size="10.00" fill="grey">m_repo</text>
</g>
<!-- Node4 -->
<g id="Node000004" class="node">
<title>Node4</title>
<g id="a_Node000004"><a xlink:title=" ">
<polygon fill="white" stroke="#666666" points="643.5,-290.5 521.5,-290.5 521.5,-260.5 643.5,-260.5 643.5,-290.5"/>
<text text-anchor="start" x="529.5" y="-278.5" font-family="Helvetica,sans-Serif" font-size="10.00">std::unordered_map</text>
<text text-anchor="middle" x="582.5" y="-267.5" font-family="Helvetica,sans-Serif" font-size="10.00">&lt; std::string, size_t &gt;</text>
</a>
</g>
</g>
<!-- Node4&#45;&gt;Node3 -->
<g id="edge3_Node000003_Node000004" class="edge">
<title>Node4&#45;&gt;Node3</title>
<g id="a_edge3_Node000003_Node000004"><a xlink:title=" ">
<path fill="none" stroke="#9a32cd" stroke-dasharray="5,2" d="M653.94,-271.49C782.93,-264.15 1054.83,-248.67 1174.66,-241.85"/>
<polygon fill="#9a32cd" stroke="#9a32cd" points="653.56,-268.01 643.78,-272.07 653.96,-274.99 653.56,-268.01"/>
</a>
</g>
<text text-anchor="start" x="861.5" y="-281.5" font-family="Helvetica,sans-Serif" font-size="10.00" fill="grey">m_fid_map</text>
<text text-anchor="start" x="861.5" y="-266.5" font-family="Helvetica,sans-Serif" font-size="10.00" fill="grey">m_int_fid_map</text>
</g>
<!-- Node5 -->
<g id="Node000005" class="node">
<title>Node5</title>
<g id="a_Node000005"><a xlink:title=" ">
<polygon fill="white" stroke="#666666" points="291.5,-255 226.5,-255 226.5,-236 291.5,-236 291.5,-255"/>
<text text-anchor="middle" x="259" y="-243" font-family="Helvetica,sans-Serif" font-size="10.00">std::string</text>
</a>
</g>
</g>
<!-- Node5&#45;&gt;Node4 -->
<g id="edge4_Node000004_Node000005" class="edge">
<title>Node5&#45;&gt;Node4</title>
<g id="a_edge4_Node000004_Node000005"><a xlink:title=" ">
<path fill="none" stroke="#9a32cd" stroke-dasharray="5,2" d="M301.81,-248.84C346.09,-252.44 418.01,-258.46 480,-264.5 493.41,-265.81 507.8,-267.31 521.41,-268.77"/>
<polygon fill="#9a32cd" stroke="#9a32cd" points="301.97,-245.34 291.72,-248.02 301.4,-252.32 301.97,-245.34"/>
</a>
</g>
<text text-anchor="start" x="401" y="-270" font-family="Helvetica,sans-Serif" font-size="10.00" fill="grey">keys</text>
</g>
<!-- Node5&#45;&gt;Node10 -->
<g id="edge11_Node000010_Node000005" class="edge">
<title>Node5&#45;&gt;Node10</title>
<g id="a_edge11_Node000010_Node000005"><a xlink:title=" ">
<path fill="none" stroke="#9a32cd" stroke-dasharray="5,2" d="M301.98,-243.11C375.85,-238.76 533.89,-228.87 667,-216.5 997.07,-185.82 1079.27,-174.19 1408,-131.5 1424.45,-129.36 1442.45,-126.81 1458.4,-124.47"/>
<polygon fill="#9a32cd" stroke="#9a32cd" points="301.48,-239.63 291.7,-243.71 301.89,-246.62 301.48,-239.63"/>
</a>
</g>
<text text-anchor="start" x="876.5" y="-205" font-family="Helvetica,sans-Serif" font-size="10.00" fill="grey">m_name</text>
</g>
<!-- Node12 -->
<g id="Node000012" class="node">
<title>Node12</title>
<g id="a_Node000012"><a xlink:href="structamr__wind_1_1_field_info.html" target="_top" xlink:title=" ">
<polygon fill="white" stroke="#666666" points="954,-108 841,-108 841,-89 954,-89 954,-108"/>
<text text-anchor="middle" x="897.5" y="-96" font-family="Helvetica,sans-Serif" font-size="10.00">amr_wind::FieldInfo</text>
</a>
</g>
</g>
<!-- Node5&#45;&gt;Node12 -->
<g id="edge14_Node000012_Node000005" class="edge">
<title>Node5&#45;&gt;Node12</title>
<g id="a_edge14_Node000012_Node000005"><a xlink:title=" ">
<path fill="none" stroke="#9a32cd" stroke-dasharray="5,2" d="M292.69,-232.32C308.03,-226.62 326.71,-220.39 344,-216.5 411.18,-201.39 429.48,-206.31 498,-199.5 568.37,-192.51 750.12,-199.64 815,-171.5 847.76,-157.29 876.36,-124.58 889.24,-108.21"/>
<polygon fill="#9a32cd" stroke="#9a32cd" points="291.23,-229.13 283.13,-235.95 293.72,-235.67 291.23,-229.13"/>
</a>
</g>
<text text-anchor="start" x="549.5" y="-205" font-family="Helvetica,sans-Serif" font-size="10.00" fill="grey">m_basename</text>
</g>
<!-- Node20 -->
<g id="Node000020" class="node">
<title>Node20</title>
<g id="a_Node000020"><a xlink:title=" ">
<polygon fill="white" stroke="#666666" points="639.5,-430.5 525.5,-430.5 525.5,-400.5 639.5,-400.5 639.5,-430.5"/>
<text text-anchor="start" x="533.5" y="-418.5" font-family="Helvetica,sans-Serif" font-size="10.00">std::unordered_map</text>
<text text-anchor="middle" x="582.5" y="-407.5" font-family="Helvetica,sans-Serif" font-size="10.00">&lt; std::string, int &gt;</text>
</a>
</g>
</g>
<!-- Node5&#45;&gt;Node20 -->
<g id="edge27_Node000020_Node000005" class="edge">
<title>Node5&#45;&gt;Node20</title>
<g id="a_edge27_Node000020_Node000005"><a xlink:title=" ">
<path fill="none" stroke="#9a32cd" stroke-dasharray="5,2" d="M292.8,-259.65C304.76,-266.26 317.43,-275.19 326,-286.5 343.34,-309.36 322.51,-329.49 344,-348.5 389.86,-389.07 424.69,-344.23 480,-370.5 489.67,-375.09 488.77,-381.08 498,-386.5 507.27,-391.93 517.71,-396.57 527.99,-400.43"/>
<polygon fill="#9a32cd" stroke="#9a32cd" points="294.37,-256.52 283.88,-255.05 291.17,-262.74 294.37,-256.52"/>
</a>
</g>
<text text-anchor="start" x="401" y="-376" font-family="Helvetica,sans-Serif" font-size="10.00" fill="grey">keys</text>
</g>
<!-- Node23 -->
<g id="Node000023" class="node">
<title>Node23</title>
<g id="a_Node000023"><a xlink:href="structamr__wind_1_1_m_l_m_g_options.html" target="_top" xlink:title=" ">
<polygon fill="white" stroke="#666666" points="1119,-350 980,-350 980,-331 1119,-331 1119,-350"/>
<text text-anchor="middle" x="1049.5" y="-338" font-family="Helvetica,sans-Serif" font-size="10.00">amr_wind::MLMGOptions</text>
</a>
</g>
</g>
<!-- Node5&#45;&gt;Node23 -->
<g id="edge34_Node000023_Node000005" class="edge">
<title>Node5&#45;&gt;Node23</title>
<g id="a_edge34_Node000023_Node000005"><a xlink:title=" ">
<path fill="none" stroke="#9a32cd" stroke-dasharray="5,2" d="M290.38,-259.81C302.54,-266.63 316.02,-275.67 326,-286.5 337.86,-299.36 329.19,-312.19 344,-321.5 370.59,-338.22 807.93,-340.34 979.86,-340.53"/>
<polygon fill="#9a32cd" stroke="#9a32cd" points="291.88,-256.64 281.4,-255.04 288.59,-262.82 291.88,-256.64"/>
</a>
</g>
<text text-anchor="start" x="526.5" y="-373" font-family="Helvetica,sans-Serif" font-size="10.00" fill="grey">m_bottom_solver_type</text>
<text text-anchor="start" x="526.5" y="-358" font-family="Helvetica,sans-Serif" font-size="10.00" fill="grey">m_hypre_interface</text>
<text text-anchor="start" x="526.5" y="-343" font-family="Helvetica,sans-Serif" font-size="10.00" fill="grey">m_hypre_namespace</text>
</g>
<!-- Node6 -->
<g id="Node000006" class="node">
<title>Node6</title>
<g id="a_Node000006"><a xlink:title=" ">
<polygon fill="white" stroke="#666666" points="104,-256.5 0,-256.5 0,-226.5 104,-226.5 104,-256.5"/>
<text text-anchor="start" x="8" y="-244.5" font-family="Helvetica,sans-Serif" font-size="10.00">std::basic_string&lt;</text>
<text text-anchor="middle" x="52" y="-233.5" font-family="Helvetica,sans-Serif" font-size="10.00"> Char &gt;</text>
</a>
</g>
</g>
<!-- Node6&#45;&gt;Node5 -->
<g id="edge5_Node000005_Node000006" class="edge">
<title>Node6&#45;&gt;Node5</title>
<g id="a_edge5_Node000005_Node000006"><a xlink:title=" ">
<path fill="none" stroke="#63b8ff" d="M114.34,-242.7C151.17,-243.42 196.49,-244.3 226.26,-244.88"/>
<polygon fill="#63b8ff" stroke="#63b8ff" points="114.27,-239.19 104.2,-242.5 114.13,-246.19 114.27,-239.19"/>
</a>
</g>
</g>
<!-- Node7 -->
<g id="Node000007" class="node">
<title>Node7</title>
<g id="a_Node000007"><a xlink:title=" ">
<polygon fill="white" stroke="#666666" points="316,-325.5 202,-325.5 202,-295.5 316,-295.5 316,-325.5"/>
<text text-anchor="start" x="210" y="-313.5" font-family="Helvetica,sans-Serif" font-size="10.00">std::unordered_map</text>
<text text-anchor="middle" x="259" y="-302.5" font-family="Helvetica,sans-Serif" font-size="10.00">&lt; K, T &gt;</text>
</a>
</g>
</g>
<!-- Node7&#45;&gt;Node4 -->
<g id="edge6_Node000004_Node000007" class="edge">
<title>Node7&#45;&gt;Node4</title>
<g id="a_edge6_Node000004_Node000007"><a xlink:title=" ">
<path fill="none" stroke="orange" stroke-dasharray="5,2" d="M326.05,-303.31C383.37,-297.07 465.67,-288.11 521.23,-282.06"/>
<polygon fill="orange" stroke="orange" points="325.56,-299.84 316,-304.4 326.32,-306.8 325.56,-299.84"/>
</a>
</g>
<text text-anchor="start" x="359" y="-306" font-family="Helvetica,sans-Serif" font-size="10.00" fill="grey">&lt; std::string, size_t &gt;</text>
</g>
<!-- Node7&#45;&gt;Node20 -->
<g id="edge28_Node000020_Node000007" class="edge">
<title>Node7&#45;&gt;Node20</title>
<g id="a_edge28_Node000020_Node000007"><a xlink:title=" ">
<path fill="none" stroke="orange" stroke-dasharray="5,2" d="M276.62,-333.49C291.82,-352.57 316.14,-378.59 344,-391.5 401.53,-418.16 475.13,-421.53 525.04,-419.92"/>
<polygon fill="orange" stroke="orange" points="279.37,-331.33 270.49,-325.55 273.83,-335.6 279.37,-331.33"/>
</a>
</g>
<text text-anchor="start" x="367" y="-425" font-family="Helvetica,sans-Serif" font-size="10.00" fill="grey">&lt; std::string, int &gt;</text>
</g>
<!-- Node8 -->
<g id="Node000008" class="node">
<title>Node8</title>
<g id="a_Node000008"><a xlink:title=" ">
<polygon fill="white" stroke="#666666" points="66.5,-324 37.5,-324 37.5,-305 66.5,-305 66.5,-324"/>
<text text-anchor="middle" x="52" y="-312" font-family="Helvetica,sans-Serif" font-size="10.00">K</text>
</a>
</g>
</g>
<!-- Node8&#45;&gt;Node7 -->
<g id="edge7_Node000007_Node000008" class="edge">
<title>Node8&#45;&gt;Node7</title>
<g id="a_edge7_Node000007_Node000008"><a xlink:title=" ">
<path fill="none" stroke="#9a32cd" stroke-dasharray="5,2" d="M76.84,-314.03C107.18,-313.44 160.57,-312.4 201.56,-311.6"/>
<polygon fill="#9a32cd" stroke="#9a32cd" points="76.7,-310.54 66.77,-314.23 76.84,-317.54 76.7,-310.54"/>
</a>
</g>
<text text-anchor="start" x="137" y="-318" font-family="Helvetica,sans-Serif" font-size="10.00" fill="grey">keys</text>
</g>
<!-- Node9 -->
<g id="Node000009" class="node">
<title>Node9</title>
<g id="a_Node000009"><a xlink:title=" ">
<polygon fill="white" stroke="#666666" points="66.5,-124 37.5,-124 37.5,-105 66.5,-105 66.5,-124"/>
<text text-anchor="middle" x="52" y="-112" font-family="Helvetica,sans-Serif" font-size="10.00">T</text>
</a>
</g>
</g>
<!-- Node9&#45;&gt;Node7 -->
<g id="edge8_Node000007_Node000009" class="edge">
<title>Node9&#45;&gt;Node7</title>
<g id="a_edge8_Node000007_Node000009"><a xlink:title=" ">
<path fill="none" stroke="#9a32cd" stroke-dasharray="5,2" d="M67.41,-132.39C91.5,-161.75 142.24,-221.2 192,-264.5 205.07,-275.87 220.96,-287.02 233.87,-295.49"/>
<polygon fill="#9a32cd" stroke="#9a32cd" points="69.84,-129.84 60.81,-124.3 64.42,-134.26 69.84,-129.84"/>
</a>
</g>
<text text-anchor="start" x="125" y="-251" font-family="Helvetica,sans-Serif" font-size="10.00" fill="grey">elements</text>
</g>
<!-- Node15 -->
<g id="Node000015" class="node">
<title>Node15</title>
<g id="a_Node000015"><a xlink:title=" ">
<polygon fill="white" stroke="#666666" points="318,-124 200,-124 200,-105 318,-105 318,-124"/>
<text text-anchor="middle" x="259" y="-112" font-family="Helvetica,sans-Serif" font-size="10.00">std::unique_ptr&lt; T &gt;</text>
</a>
</g>
</g>
<!-- Node9&#45;&gt;Node15 -->
<g id="edge18_Node000015_Node000009" class="edge">
<title>Node9&#45;&gt;Node15</title>
<g id="a_edge18_Node000015_Node000009"><a xlink:title=" ">
<path fill="none" stroke="#9a32cd" stroke-dasharray="5,2" d="M77.09,-114.5C107.02,-114.5 159.1,-114.5 199.72,-114.5"/>
<polygon fill="#9a32cd" stroke="#9a32cd" points="76.77,-111 66.77,-114.5 76.77,-118 76.77,-111"/>
</a>
</g>
<text text-anchor="start" x="141" y="-120" font-family="Helvetica,sans-Serif" font-size="10.00" fill="grey">ptr</text>
</g>
<!-- Node16 -->
<g id="Node000016" class="node">
<title>Node16</title>
<g id="a_Node000016"><a xlink:title=" ">
<polygon fill="white" stroke="#666666" points="471,-19 353,-19 353,0 471,0 471,-19"/>
<text text-anchor="middle" x="412" y="-7" font-family="Helvetica,sans-Serif" font-size="10.00">std::shared_ptr&lt; T &gt;</text>
</a>
</g>
</g>
<!-- Node9&#45;&gt;Node16 -->
<g id="edge20_Node000016_Node000009" class="edge">
<title>Node9&#45;&gt;Node16</title>
<g id="a_edge20_Node000016_Node000009"><a xlink:title=" ">
<path fill="none" stroke="#9a32cd" stroke-dasharray="5,2" d="M71.09,-98.13C96.15,-76.58 143.81,-39.56 192,-23.5 244.41,-6.03 307.71,-3.86 352.74,-5.26"/>
<polygon fill="#9a32cd" stroke="#9a32cd" points="68.7,-95.57 63.49,-104.79 73.32,-100.83 68.7,-95.57"/>
</a>
</g>
<text text-anchor="start" x="141" y="-65" font-family="Helvetica,sans-Serif" font-size="10.00" fill="grey">ptr</text>
</g>
<!-- Node10&#45;&gt;Node1 -->
<g id="edge21_Node000001_Node000010" class="edge">
<title>Node10&#45;&gt;Node1</title>
<g id="a_edge21_Node000001_Node000010"><a xlink:title=" ">
<path fill="none" stroke="#9a32cd" stroke-dasharray="5,2" d="M1562.55,-109.12C1575.8,-107.2 1589.89,-105.23 1603,-103.5 1636.72,-99.06 1645.05,-96.5 1679,-94.5 1755.76,-89.97 1775.12,-93.41 1852,-94.5 1899.24,-95.17 1952.36,-96.67 1993.68,-98"/>
<polygon fill="#9a32cd" stroke="#9a32cd" points="1562,-105.66 1552.61,-110.56 1563.01,-112.59 1562,-105.66"/>
</a>
</g>
<text text-anchor="start" x="1748.5" y="-130" font-family="Helvetica,sans-Serif" font-size="10.00" fill="grey">u_mac</text>
<text text-anchor="start" x="1748.5" y="-115" font-family="Helvetica,sans-Serif" font-size="10.00" fill="grey">v_mac</text>
<text text-anchor="start" x="1748.5" y="-100" font-family="Helvetica,sans-Serif" font-size="10.00" fill="grey">w_mac</text>
</g>
<!-- Node10&#45;&gt;Node2 -->
<g id="edge9_Node000002_Node000010" class="edge">
<title>Node10&#45;&gt;Node2</title>
<g id="a_edge9_Node000002_Node000010"><a xlink:title=" ">
<path fill="none" stroke="#9a32cd" stroke-dasharray="5,2" d="M1563.15,-108.11C1593.25,-105.5 1630.27,-106.17 1661,-118.5 1671.21,-122.6 1669.42,-130.08 1679,-135.5 1690,-141.73 1702.73,-146.43 1714.94,-149.94"/>
<polygon fill="#9a32cd" stroke="#9a32cd" points="1562.42,-104.66 1552.82,-109.15 1563.12,-111.63 1562.42,-104.66"/>
</a>
</g>
<text text-anchor="start" x="1606" y="-184" font-family="Helvetica,sans-Serif" font-size="10.00" fill="grey">conv_term</text>
<text text-anchor="start" x="1606" y="-169" font-family="Helvetica,sans-Serif" font-size="10.00" fill="grey">diff_term</text>
<text text-anchor="start" x="1606" y="-154" font-family="Helvetica,sans-Serif" font-size="10.00" fill="grey">field</text>
<text text-anchor="start" x="1606" y="-139" font-family="Helvetica,sans-Serif" font-size="10.00" fill="grey">mueff</text>
<text text-anchor="start" x="1606" y="-124" font-family="Helvetica,sans-Serif" font-size="10.00" fill="grey">src_term</text>
</g>
<!-- Node11 -->
<g id="Node000011" class="node">
<title>Node11</title>
<g id="a_Node000011"><a xlink:title=" ">
<polygon fill="white" stroke="#666666" points="1294.5,-113.5 1174.5,-113.5 1174.5,-83.5 1294.5,-83.5 1294.5,-113.5"/>
<text text-anchor="start" x="1182.5" y="-101.5" font-family="Helvetica,sans-Serif" font-size="10.00">std::shared_ptr&lt; amr</text>
<text text-anchor="middle" x="1234.5" y="-90.5" font-family="Helvetica,sans-Serif" font-size="10.00">_wind::FieldInfo &gt;</text>
</a>
</g>
</g>
<!-- Node11&#45;&gt;Node10 -->
<g id="edge12_Node000010_Node000011" class="edge">
<title>Node11&#45;&gt;Node10</title>
<g id="a_edge12_Node000010_Node000011"><a xlink:title=" ">
<path fill="none" stroke="#9a32cd" stroke-dasharray="5,2" d="M1304.58,-103.38C1352.78,-106.78 1415.81,-111.24 1458.09,-114.22"/>
<polygon fill="#9a32cd" stroke="#9a32cd" points="1304.75,-99.88 1294.53,-102.67 1304.26,-106.87 1304.75,-99.88"/>
</a>
</g>
<text text-anchor="start" x="1362" y="-116" font-family="Helvetica,sans-Serif" font-size="10.00" fill="grey">m_info</text>
</g>
<!-- Node12&#45;&gt;Node11 -->
<g id="edge13_Node000011_Node000012" class="edge">
<title>Node12&#45;&gt;Node11</title>
<g id="a_edge13_Node000011_Node000012"><a xlink:title=" ">
<path fill="none" stroke="#9a32cd" stroke-dasharray="5,2" d="M964.49,-98.5C1025.54,-98.5 1115.49,-98.5 1174.28,-98.5"/>
<polygon fill="#9a32cd" stroke="#9a32cd" points="964.19,-95 954.19,-98.5 964.19,-102 964.19,-95"/>
</a>
</g>
<text text-anchor="start" x="1042.5" y="-104" font-family="Helvetica,sans-Serif" font-size="10.00" fill="grey">ptr</text>
</g>
<!-- Node13 -->
<g id="Node000013" class="node">
<title>Node13</title>
<g id="a_Node000013"><a xlink:title=" ">
<polygon fill="white" stroke="#666666" points="667,-99.5 498,-99.5 498,-69.5 667,-69.5 667,-99.5"/>
<text text-anchor="start" x="506" y="-87.5" font-family="Helvetica,sans-Serif" font-size="10.00">std::unique_ptr&lt; amr</text>
<text text-anchor="middle" x="582.5" y="-76.5" font-family="Helvetica,sans-Serif" font-size="10.00">_wind::FieldFillPatchOpsBase &gt;</text>
</a>
</g>
</g>
<!-- Node13&#45;&gt;Node12 -->
<g id="edge15_Node000012_Node000013" class="edge">
<title>Node13&#45;&gt;Node12</title>
<g id="a_edge15_Node000012_Node000013"><a xlink:title=" ">
<path fill="none" stroke="#9a32cd" stroke-dasharray="5,2" d="M677.5,-88.7C730.66,-91.08 795.33,-93.97 840.56,-96"/>
<polygon fill="#9a32cd" stroke="#9a32cd" points="677.52,-85.2 667.38,-88.25 677.21,-92.2 677.52,-85.2"/>
</a>
</g>
<text text-anchor="start" x="714" y="-101" font-family="Helvetica,sans-Serif" font-size="10.00" fill="grey">m_fillpatch_op</text>
</g>
<!-- Node14 -->
<g id="Node000014" class="node">
<title>Node14</title>
<g id="a_Node000014"><a xlink:href="classamr__wind_1_1_field_fill_patch_ops_base.html" target="_top" xlink:title=" ">
<polygon fill="white" stroke="#666666" points="326,-62.5 192,-62.5 192,-32.5 326,-32.5 326,-62.5"/>
<text text-anchor="start" x="200" y="-50.5" font-family="Helvetica,sans-Serif" font-size="10.00">amr_wind::FieldFillPatch</text>
<text text-anchor="middle" x="259" y="-39.5" font-family="Helvetica,sans-Serif" font-size="10.00">OpsBase</text>
</a>
</g>
</g>
<!-- Node14&#45;&gt;Node13 -->
<g id="edge16_Node000013_Node000014" class="edge">
<title>Node14&#45;&gt;Node13</title>
<g id="a_edge16_Node000013_Node000014"><a xlink:title=" ">
<path fill="none" stroke="#9a32cd" stroke-dasharray="5,2" d="M336.33,-46.36C378.85,-46.79 432.62,-49.1 480,-56.5 498.51,-59.39 518.47,-64.46 535.75,-69.49"/>
<polygon fill="#9a32cd" stroke="#9a32cd" points="336.35,-42.86 326.33,-46.29 336.3,-49.86 336.35,-42.86"/>
</a>
</g>
<text text-anchor="start" x="405" y="-62" font-family="Helvetica,sans-Serif" font-size="10.00" fill="grey">ptr</text>
</g>
<!-- Node15&#45;&gt;Node13 -->
<g id="edge17_Node000013_Node000015" class="edge">
<title>Node15&#45;&gt;Node13</title>
<g id="a_edge17_Node000013_Node000015"><a xlink:title=" ">
<path fill="none" stroke="orange" stroke-dasharray="5,2" d="M290.89,-101.11C306.49,-95.05 325.91,-88.57 344,-85.5 394.61,-76.9 452.17,-76.43 497.94,-78.21"/>
<polygon fill="orange" stroke="orange" points="289.22,-98.01 281.24,-104.99 291.83,-104.5 289.22,-98.01"/>
</a>
</g>
<text text-anchor="start" x="347" y="-106.5" font-family="Helvetica,sans-Serif" font-size="10.00" fill="grey">&lt; amr_wind::FieldFillPatch</text>
<text text-anchor="start" x="347" y="-91.5" font-family="Helvetica,sans-Serif" font-size="10.00" fill="grey">  OpsBase &gt;</text>
</g>
<!-- Node22 -->
<g id="Node000022" class="node">
<title>Node22</title>
<g id="a_Node000022"><a xlink:title=" ">
<polygon fill="white" stroke="#666666" points="815,-162.5 685,-162.5 685,-132.5 815,-132.5 815,-162.5"/>
<text text-anchor="start" x="693" y="-150.5" font-family="Helvetica,sans-Serif" font-size="10.00">std::unique_ptr&lt; Hydro</text>
<text text-anchor="middle" x="750" y="-139.5" font-family="Helvetica,sans-Serif" font-size="10.00">::MacProjector &gt;</text>
</a>
</g>
</g>
<!-- Node15&#45;&gt;Node22 -->
<g id="edge32_Node000022_Node000015" class="edge">
<title>Node15&#45;&gt;Node22</title>
<g id="a_edge32_Node000022_Node000015"><a xlink:title=" ">
<path fill="none" stroke="orange" stroke-dasharray="5,2" d="M328.04,-119.09C422.59,-125.47 592.45,-136.94 684.87,-143.17"/>
<polygon fill="orange" stroke="orange" points="328.23,-115.6 318.01,-118.42 327.76,-122.58 328.23,-115.6"/>
</a>
</g>
<text text-anchor="start" x="351" y="-134" font-family="Helvetica,sans-Serif" font-size="10.00" fill="grey">&lt; Hydro::MacProjector &gt;</text>
</g>
<!-- Node16&#45;&gt;Node11 -->
<g id="edge19_Node000011_Node000016" class="edge">
<title>Node16&#45;&gt;Node11</title>
<g id="a_edge19_Node000011_Node000016"><a xlink:title=" ">
<path fill="none" stroke="orange" stroke-dasharray="5,2" d="M481.06,-16.88C638.53,-33.96 1025.84,-75.98 1174.28,-92.08"/>
<polygon fill="orange" stroke="orange" points="481.34,-13.39 471.02,-15.79 480.59,-20.35 481.34,-13.39"/>
</a>
</g>
<text text-anchor="start" x="691" y="-59" font-family="Helvetica,sans-Serif" font-size="10.00" fill="grey">&lt; amr_wind::FieldInfo &gt;</text>
</g>
<!-- Node17&#45;&gt;Node1 -->
<g id="edge22_Node000001_Node000017" class="edge">
<title>Node17&#45;&gt;Node1</title>
<g id="a_edge22_Node000001_Node000017"><a xlink:title=" ">
<path fill="none" stroke="#9a32cd" stroke-dasharray="5,2" d="M1788.89,-291.95C1844.32,-253.44 1987.48,-154 2042.5,-115.78"/>
<polygon fill="#9a32cd" stroke="#9a32cd" points="1786.69,-289.21 1780.47,-297.79 1790.68,-294.96 1786.69,-289.21"/>
</a>
</g>
<text text-anchor="start" x="1887" y="-240" font-family="Helvetica,sans-Serif" font-size="10.00" fill="grey">m_macproj_op</text>
</g>
<!-- Node18 -->
<g id="Node000018" class="node">
<title>Node18</title>
<g id="a_Node000018"><a xlink:href="classamr__wind_1_1_field_boundary_mgr.html" target="_top" xlink:title=" ">
<polygon fill="white" stroke="#666666" points="1585,-395 1426,-395 1426,-376 1585,-376 1585,-395"/>
<text text-anchor="middle" x="1505.5" y="-383" font-family="Helvetica,sans-Serif" font-size="10.00">amr_wind::FieldBoundaryMgr</text>
</a>
</g>
</g>
<!-- Node18&#45;&gt;Node17 -->
<g id="edge24_Node000017_Node000018" class="edge">
<title>Node18&#45;&gt;Node17</title>
<g id="a_edge24_Node000017_Node000018"><a xlink:title=" ">
<path fill="none" stroke="#9a32cd" stroke-dasharray="5,2" d="M1594.96,-375.28C1616.86,-371.48 1640.04,-366.36 1661,-359.5 1693.87,-348.75 1729.29,-328.97 1749,-317.15"/>
<polygon fill="#9a32cd" stroke="#9a32cd" points="1594.3,-371.84 1585.01,-376.93 1595.45,-378.74 1594.3,-371.84"/>
</a>
</g>
<text text-anchor="start" x="1607" y="-378" font-family="Helvetica,sans-Serif" font-size="10.00" fill="grey">m_fb_mgr</text>
</g>
<!-- Node19 -->
<g id="Node000019" class="node">
<title>Node19</title>
<g id="a_Node000019"><a xlink:href="classamr__wind_1_1_coll_mgr.html" target="_top" xlink:title=" ">
<polygon fill="white" stroke="#666666" points="1332,-403.5 1137,-403.5 1137,-373.5 1332,-373.5 1332,-403.5"/>
<text text-anchor="start" x="1145" y="-391.5" font-family="Helvetica,sans-Serif" font-size="10.00">amr_wind::CollMgr&lt;</text>
<text text-anchor="middle" x="1234.5" y="-380.5" font-family="Helvetica,sans-Serif" font-size="10.00"> FieldBoundaryMgr, FieldBoundary &gt;</text>
</a>
</g>
</g>
<!-- Node19&#45;&gt;Node18 -->
<g id="edge25_Node000018_Node000019" class="edge">
<title>Node19&#45;&gt;Node18</title>
<g id="a_edge25_Node000018_Node000019"><a xlink:title=" ">
<path fill="none" stroke="#63b8ff" d="M1342.41,-387.31C1370.26,-387 1399.76,-386.67 1425.84,-386.38"/>
<polygon fill="#63b8ff" stroke="#63b8ff" points="1342.2,-383.81 1332.24,-387.42 1342.27,-390.81 1342.2,-383.81"/>
</a>
</g>
</g>
<!-- Node20&#45;&gt;Node19 -->
<g id="edge26_Node000019_Node000020" class="edge">
<title>Node20&#45;&gt;Node19</title>
<g id="a_edge26_Node000019_Node000020"><a xlink:title=" ">
<path fill="none" stroke="#9a32cd" stroke-dasharray="5,2" d="M650,-409.03C700.22,-404.42 770.87,-398.53 833,-395.5 936.67,-390.44 1055.59,-388.9 1136.74,-388.5"/>
<polygon fill="#9a32cd" stroke="#9a32cd" points="649.55,-405.56 639.92,-409.97 650.2,-412.53 649.55,-405.56"/>
</a>
</g>
<text text-anchor="start" x="868.5" y="-401" font-family="Helvetica,sans-Serif" font-size="10.00" fill="grey">m_obj_map</text>
</g>
<!-- Node21 -->
<g id="Node000021" class="node">
<title>Node21</title>
<g id="a_Node000021"><a xlink:href="classamr__wind_1_1_coll_mgr.html" target="_top" xlink:title=" ">
<polygon fill="white" stroke="#666666" points="962,-462 833,-462 833,-421 962,-421 962,-462"/>
<text text-anchor="start" x="841" y="-450" font-family="Helvetica,sans-Serif" font-size="10.00">amr_wind::CollMgr&lt;</text>
<text text-anchor="start" x="841" y="-439" font-family="Helvetica,sans-Serif" font-size="10.00"> Collection, Type, allow</text>
<text text-anchor="middle" x="897.5" y="-428" font-family="Helvetica,sans-Serif" font-size="10.00">_duplicates &gt;</text>
</a>
</g>
</g>
<!-- Node20&#45;&gt;Node21 -->
<g id="edge30_Node000021_Node000020" class="edge">
<title>Node20&#45;&gt;Node21</title>
<g id="a_edge30_Node000021_Node000020"><a xlink:title=" ">
<path fill="none" stroke="#9a32cd" stroke-dasharray="5,2" d="M649.98,-421.02C703.96,-425.51 779.6,-431.79 832.82,-436.21"/>
<polygon fill="#9a32cd" stroke="#9a32cd" points="650.08,-417.52 639.82,-420.18 649.5,-424.49 650.08,-417.52"/>
</a>
</g>
<text text-anchor="start" x="721" y="-440" font-family="Helvetica,sans-Serif" font-size="10.00" fill="grey">m_obj_map</text>
</g>
<!-- Node21&#45;&gt;Node19 -->
<g id="edge29_Node000019_Node000021" class="edge">
<title>Node21&#45;&gt;Node19</title>
<g id="a_edge29_Node000019_Node000021"><a xlink:title=" ">
<path fill="none" stroke="orange" stroke-dasharray="5,2" d="M972.18,-429.84C1021.1,-422.1 1085.79,-411.87 1138.56,-403.52"/>
<polygon fill="orange" stroke="orange" points="971.63,-426.39 962.3,-431.41 972.72,-433.3 971.63,-426.39"/>
</a>
</g>
<text text-anchor="start" x="998.5" y="-447.5" font-family="Helvetica,sans-Serif" font-size="10.00" fill="grey">&lt; FieldBoundaryMgr,</text>
<text text-anchor="start" x="998.5" y="-432.5" font-family="Helvetica,sans-Serif" font-size="10.00" fill="grey">   FieldBoundary &gt;</text>
</g>
<!-- Node22&#45;&gt;Node17 -->
<g id="edge31_Node000017_Node000022" class="edge">
<title>Node22&#45;&gt;Node17</title>
<g id="a_edge31_Node000017_Node000022"><a xlink:title=" ">
<path fill="none" stroke="#9a32cd" stroke-dasharray="5,2" d="M824.85,-164.73C865.5,-174.55 916.74,-187.46 962,-200.5 1040.6,-223.14 1057.16,-239.7 1137,-257.5 1263.33,-285.67 1297,-282.82 1426,-293.5 1517.44,-301.07 1623.14,-304.62 1691.76,-306.23"/>
<polygon fill="#9a32cd" stroke="#9a32cd" points="825.56,-161.3 815.02,-162.37 823.92,-168.11 825.56,-161.3"/>
</a>
</g>
<text text-anchor="start" x="1204.5" y="-291" font-family="Helvetica,sans-Serif" font-size="10.00" fill="grey">m_mac_proj</text>
</g>
<!-- Node23&#45;&gt;Node17 -->
<g id="edge33_Node000017_Node000023" class="edge">
<title>Node23&#45;&gt;Node17</title>
<g id="a_edge33_Node000017_Node000023"><a xlink:title=" ">
<path fill="none" stroke="#9a32cd" stroke-dasharray="5,2" d="M1129.55,-340.64C1246.07,-340.27 1470.71,-337.29 1661,-321.5 1674.28,-320.4 1688.47,-318.77 1701.95,-317.02"/>
<polygon fill="#9a32cd" stroke="#9a32cd" points="1129.29,-337.14 1119.3,-340.67 1129.31,-344.14 1129.29,-337.14"/>
</a>
</g>
<text text-anchor="start" x="1353" y="-342" font-family="Helvetica,sans-Serif" font-size="10.00" fill="grey">m_options</text>
</g>
<!-- Node24 -->
<g id="Node000024" class="node">
<title>Node24</title>
<g id="a_Node000024"><a xlink:href="structamr__wind_1_1pde_1_1_advection_op.html" target="_top" xlink:title=" ">
<polygon fill="white" stroke="#666666" points="1852,-48.5 1679,-48.5 1679,-18.5 1852,-18.5 1852,-48.5"/>
<text text-anchor="start" x="1687" y="-36.5" font-family="Helvetica,sans-Serif" font-size="10.00">amr_wind::pde::Advection</text>
<text text-anchor="middle" x="1765.5" y="-25.5" font-family="Helvetica,sans-Serif" font-size="10.00">Op&lt; PDE, Scheme, typename &gt;</text>
</a>
</g>
</g>
<!-- Node24&#45;&gt;Node1 -->
<g id="edge35_Node000001_Node000024" class="edge">
<title>Node24&#45;&gt;Node1</title>
<g id="a_edge35_Node000001_Node000024"><a xlink:title=" ">
<path fill="none" stroke="orange" stroke-dasharray="5,2" d="M1862.14,-34.74C1898.41,-37.25 1939.7,-42.6 1976,-53.5 1999.83,-60.65 2024.65,-74.48 2041.92,-85.29"/>
<polygon fill="orange" stroke="orange" points="1862.25,-31.24 1852.05,-34.11 1861.81,-38.23 1862.25,-31.24"/>
</a>
</g>
<text text-anchor="start" x="1873" y="-59" font-family="Helvetica,sans-Serif" font-size="10.00" fill="grey">&lt; ICNS, fvm::MOL &gt;</text>
</g>
</g>
</svg>
