<?xml version="1.0" encoding="UTF-8" standalone="no"?>
<!DOCTYPE svg PUBLIC "-//W3C//DTD SVG 1.1//EN"
 "http://www.w3.org/Graphics/SVG/1.1/DTD/svg11.dtd">
<!-- Generated by graphviz version 2.43.0 (0)
 -->
<!-- Title: amr_wind::pde::AdvectionOp&lt; ICNS, fvm::Godunov &gt; Pages: 1 -->
<svg width="2174pt" height="532pt"
 viewBox="0.00 0.00 2174.00 531.50" xmlns="http://www.w3.org/2000/svg" xmlns:xlink="http://www.w3.org/1999/xlink">
<g id="graph0" class="graph" transform="scale(1 1) rotate(0) translate(4 527.5)">
<title>amr_wind::pde::AdvectionOp&lt; ICNS, fvm::Godunov &gt;</title>
<!-- Node1 -->
<g id="Node000001" class="node">
<title>Node1</title>
<g id="a_Node000001"><a xlink:title=" ">
<polygon fill="#999999" stroke="#666666" points="2166,-228.5 2015,-228.5 2015,-198.5 2166,-198.5 2166,-228.5"/>
<text text-anchor="start" x="2023" y="-216.5" font-family="Helvetica,sans-Serif" font-size="10.00">amr_wind::pde::Advection</text>
<text text-anchor="middle" x="2090.5" y="-205.5" font-family="Helvetica,sans-Serif" font-size="10.00">Op&lt; ICNS, fvm::Godunov &gt;</text>
</a>
</g>
</g>
<!-- Node2 -->
<g id="Node000002" class="node">
<title>Node2</title>
<g id="a_Node000002"><a xlink:href="structamr__wind_1_1pde_1_1_p_d_e_fields.html" target="_top" xlink:title=" ">
<polygon fill="white" stroke="#666666" points="1837,-298 1694,-298 1694,-279 1837,-279 1837,-298"/>
<text text-anchor="middle" x="1765.5" y="-286" font-family="Helvetica,sans-Serif" font-size="10.00">amr_wind::pde::PDEFields</text>
</a>
</g>
</g>
<!-- Node2&#45;&gt;Node1 -->
<g id="edge1_Node000001_Node000002" class="edge">
<title>Node2&#45;&gt;Node1</title>
<g id="a_edge1_Node000001_Node000002"><a xlink:title=" ">
<path fill="none" stroke="#9a32cd" stroke-dasharray="5,2" d="M1817.8,-276.59C1873.9,-263.56 1963.92,-242.66 2024.82,-228.52"/>
<polygon fill="#9a32cd" stroke="#9a32cd" points="1816.69,-273.25 1807.74,-278.93 1818.27,-280.07 1816.69,-273.25"/>
</a>
</g>
<text text-anchor="start" x="1920.5" y="-269" font-family="Helvetica,sans-Serif" font-size="10.00" fill="grey">fields</text>
</g>
<!-- Node3 -->
<g id="Node000003" class="node">
<title>Node3</title>
<g id="a_Node000003"><a xlink:href="classamr__wind_1_1_field_repo.html" target="_top" xlink:title=" ">
<polygon fill="white" stroke="#666666" points="1294,-197 1175,-197 1175,-178 1294,-178 1294,-197"/>
<text text-anchor="middle" x="1234.5" y="-185" font-family="Helvetica,sans-Serif" font-size="10.00">amr_wind::FieldRepo</text>
</a>
</g>
</g>
<!-- Node3&#45;&gt;Node2 -->
<g id="edge2_Node000002_Node000003" class="edge">
<title>Node3&#45;&gt;Node2</title>
<g id="a_edge2_Node000002_Node000003"><a xlink:title=" ">
<path fill="none" stroke="#9a32cd" stroke-dasharray="5,2" d="M1304.15,-188.4C1374.94,-190.21 1488.33,-195.61 1585,-211.5 1619.47,-217.17 1634.55,-208.69 1661,-231.5 1676.38,-244.76 1663.08,-260.89 1679,-273.5 1683.49,-277.06 1688.53,-279.89 1693.86,-282.13"/>
<polygon fill="#9a32cd" stroke="#9a32cd" points="1304.1,-184.89 1294.02,-188.15 1303.93,-191.89 1304.1,-184.89"/>
</a>
</g>
<text text-anchor="start" x="1494.5" y="-217" font-family="Helvetica,sans-Serif" font-size="10.00" fill="grey">repo</text>
</g>
<!-- Node10 -->
<g id="Node000010" class="node">
<title>Node10</title>
<g id="a_Node000010"><a xlink:href="classamr__wind_1_1_field.html" target="_top" xlink:title=" ">
<polygon fill="white" stroke="#666666" points="1552.5,-256 1458.5,-256 1458.5,-237 1552.5,-237 1552.5,-256"/>
<text text-anchor="middle" x="1505.5" y="-244" font-family="Helvetica,sans-Serif" font-size="10.00">amr_wind::Field</text>
</a>
</g>
</g>
<!-- Node3&#45;&gt;Node10 -->
<g id="edge10_Node000010_Node000003" class="edge">
<title>Node3&#45;&gt;Node10</title>
<g id="a_edge10_Node000010_Node000003"><a xlink:title=" ">
<path fill="none" stroke="#9a32cd" stroke-dasharray="5,2" d="M1295.46,-199C1328.7,-205.54 1370.72,-214.09 1408,-222.5 1427.7,-226.95 1449.55,-232.34 1467.47,-236.89"/>
<polygon fill="#9a32cd" stroke="#9a32cd" points="1295.93,-195.52 1285.44,-197.04 1294.58,-202.39 1295.93,-195.52"/>
</a>
</g>
<text text-anchor="start" x="1361" y="-228" font-family="Helvetica,sans-Serif" font-size="10.00" fill="grey">m_repo</text>
</g>
<!-- Node17 -->
<g id="Node000017" class="node">
<title>Node17</title>
<g id="a_Node000017"><a xlink:href="classamr__wind_1_1pde_1_1_mac_proj_op.html" target="_top" xlink:title=" ">
<polygon fill="white" stroke="#666666" points="1839,-159 1692,-159 1692,-140 1839,-140 1839,-159"/>
<text text-anchor="middle" x="1765.5" y="-147" font-family="Helvetica,sans-Serif" font-size="10.00">amr_wind::pde::MacProjOp</text>
</a>
</g>
</g>
<!-- Node3&#45;&gt;Node17 -->
<g id="edge23_Node000017_Node000003" class="edge">
<title>Node3&#45;&gt;Node17</title>
<g id="a_edge23_Node000017_Node000003"><a xlink:title=" ">
<path fill="none" stroke="#9a32cd" stroke-dasharray="5,2" d="M1281.89,-175.58C1320.23,-166.38 1376.24,-154.41 1426,-149.5 1517.38,-140.47 1623.31,-142.47 1691.99,-145.39"/>
<polygon fill="#9a32cd" stroke="#9a32cd" points="1280.94,-172.21 1272.05,-177.98 1282.6,-179.01 1280.94,-172.21"/>
</a>
</g>
<text text-anchor="start" x="1487.5" y="-155" font-family="Helvetica,sans-Serif" font-size="10.00" fill="grey">m_repo</text>
</g>
<!-- Node4 -->
<g id="Node000004" class="node">
<title>Node4</title>
<g id="a_Node000004"><a xlink:title=" ">
<polygon fill="white" stroke="#666666" points="643.5,-225.5 521.5,-225.5 521.5,-195.5 643.5,-195.5 643.5,-225.5"/>
<text text-anchor="start" x="529.5" y="-213.5" font-family="Helvetica,sans-Serif" font-size="10.00">std::unordered_map</text>
<text text-anchor="middle" x="582.5" y="-202.5" font-family="Helvetica,sans-Serif" font-size="10.00">&lt; std::string, size_t &gt;</text>
</a>
</g>
</g>
<!-- Node4&#45;&gt;Node3 -->
<g id="edge3_Node000003_Node000004" class="edge">
<title>Node4&#45;&gt;Node3</title>
<g id="a_edge3_Node000003_Node000004"><a xlink:title=" ">
<path fill="none" stroke="#9a32cd" stroke-dasharray="5,2" d="M653.79,-207.14C703.77,-204.81 772.5,-201.74 833,-199.5 954.48,-195 1096.73,-191.05 1174.79,-189"/>
<polygon fill="#9a32cd" stroke="#9a32cd" points="653.56,-203.64 643.74,-207.61 653.89,-210.64 653.56,-203.64"/>
</a>
</g>
<text text-anchor="start" x="861.5" y="-220.5" font-family="Helvetica,sans-Serif" font-size="10.00" fill="grey">m_fid_map</text>
<text text-anchor="start" x="861.5" y="-205.5" font-family="Helvetica,sans-Serif" font-size="10.00" fill="grey">m_int_fid_map</text>
</g>
<!-- Node5 -->
<g id="Node000005" class="node">
<title>Node5</title>
<g id="a_Node000005"><a xlink:title=" ">
<polygon fill="white" stroke="#666666" points="291.5,-249 226.5,-249 226.5,-230 291.5,-230 291.5,-249"/>
<text text-anchor="middle" x="259" y="-237" font-family="Helvetica,sans-Serif" font-size="10.00">std::string</text>
</a>
</g>
</g>
<!-- Node5&#45;&gt;Node1 -->
<g id="edge35_Node000001_Node000005" class="edge">
<title>Node5&#45;&gt;Node1</title>
<g id="a_edge35_Node000001_Node000005"><a xlink:title=" ">
<path fill="none" stroke="#9a32cd" stroke-dasharray="5,2" d="M300.12,-251.92C360.53,-269.5 478.71,-299.5 581.5,-299.5 581.5,-299.5 581.5,-299.5 1050.5,-299.5 1322.06,-299.5 1389.71,-336.55 1661,-324.5 1746.14,-320.72 1767.42,-317.96 1852,-307.5 1916.76,-299.49 1937.05,-310.27 1997,-284.5 2027.87,-271.23 2057.6,-245.32 2074.69,-228.73"/>
<polygon fill="#9a32cd" stroke="#9a32cd" points="300.82,-248.48 290.24,-249.01 298.84,-255.19 300.82,-248.48"/>
</a>
</g>
<text text-anchor="start" x="1186.5" y="-394.5" font-family="Helvetica,sans-Serif" font-size="10.00" fill="grey">godunov_type</text>
<text text-anchor="start" x="1186.5" y="-379.5" font-family="Helvetica,sans-Serif" font-size="10.00" fill="grey">mflux_type</text>
<text text-anchor="start" x="1186.5" y="-364.5" font-family="Helvetica,sans-Serif" font-size="10.00" fill="grey">postmac_advection</text>
<text text-anchor="start" x="1186.5" y="-349.5" font-family="Helvetica,sans-Serif" font-size="10.00" fill="grey">  _type</text>
<text text-anchor="start" x="1186.5" y="-334.5" font-family="Helvetica,sans-Serif" font-size="10.00" fill="grey">premac_advection</text>
<text text-anchor="start" x="1186.5" y="-319.5" font-family="Helvetica,sans-Serif" font-size="10.00" fill="grey">  _type</text>
</g>
<!-- Node5&#45;&gt;Node4 -->
<g id="edge4_Node000004_Node000005" class="edge">
<title>Node5&#45;&gt;Node4</title>
<g id="a_edge4_Node000004_Node000005"><a xlink:title=" ">
<path fill="none" stroke="#9a32cd" stroke-dasharray="5,2" d="M301.66,-229.79C315.1,-227 330.12,-224.25 344,-222.5 404.01,-214.95 473.12,-212.12 521.25,-211.07"/>
<polygon fill="#9a32cd" stroke="#9a32cd" points="300.77,-226.4 291.73,-231.92 302.24,-233.25 300.77,-226.4"/>
</a>
</g>
<text text-anchor="start" x="401" y="-228" font-family="Helvetica,sans-Serif" font-size="10.00" fill="grey">keys</text>
</g>
<!-- Node5&#45;&gt;Node10 -->
<g id="edge11_Node000010_Node000005" class="edge">
<title>Node5&#45;&gt;Node10</title>
<g id="a_edge11_Node000010_Node000005"><a xlink:title=" ">
<path fill="none" stroke="#9a32cd" stroke-dasharray="5,2" d="M301.99,-242.5C363.36,-246.61 481.15,-253.5 581.5,-253.5 581.5,-253.5 581.5,-253.5 1235.5,-253.5 1313.75,-253.5 1404.76,-250.5 1458.34,-248.43"/>
<polygon fill="#9a32cd" stroke="#9a32cd" points="302.14,-239 291.92,-241.81 301.66,-245.98 302.14,-239"/>
</a>
</g>
<text text-anchor="start" x="876.5" y="-259" font-family="Helvetica,sans-Serif" font-size="10.00" fill="grey">m_name</text>
</g>
<!-- Node12 -->
<g id="Node000012" class="node">
<title>Node12</title>
<g id="a_Node000012"><a xlink:href="structamr__wind_1_1_field_info.html" target="_top" xlink:title=" ">
<polygon fill="white" stroke="#666666" points="954,-475 841,-475 841,-456 954,-456 954,-475"/>
<text text-anchor="middle" x="897.5" y="-463" font-family="Helvetica,sans-Serif" font-size="10.00">amr_wind::FieldInfo</text>
</a>
</g>
</g>
<!-- Node5&#45;&gt;Node12 -->
<g id="edge14_Node000012_Node000005" class="edge">
<title>Node5&#45;&gt;Node12</title>
<g id="a_edge14_Node000012_Node000005"><a xlink:title=" ">
<path fill="none" stroke="#9a32cd" stroke-dasharray="5,2" d="M275.08,-256.73C290.72,-273.56 316.67,-298.73 344,-313.5 434.15,-362.21 736.97,-430.95 851.82,-455.94"/>
<polygon fill="#9a32cd" stroke="#9a32cd" points="277.58,-254.28 268.27,-249.22 272.4,-258.98 277.58,-254.28"/>
</a>
</g>
<text text-anchor="start" x="549.5" y="-417" font-family="Helvetica,sans-Serif" font-size="10.00" fill="grey">m_basename</text>
</g>
<!-- Node20 -->
<g id="Node000020" class="node">
<title>Node20</title>
<g id="a_Node000020"><a xlink:title=" ">
<polygon fill="white" stroke="#666666" points="639.5,-83.5 525.5,-83.5 525.5,-53.5 639.5,-53.5 639.5,-83.5"/>
<text text-anchor="start" x="533.5" y="-71.5" font-family="Helvetica,sans-Serif" font-size="10.00">std::unordered_map</text>
<text text-anchor="middle" x="582.5" y="-60.5" font-family="Helvetica,sans-Serif" font-size="10.00">&lt; std::string, int &gt;</text>
</a>
</g>
</g>
<!-- Node5&#45;&gt;Node20 -->
<g id="edge27_Node000020_Node000005" class="edge">
<title>Node5&#45;&gt;Node20</title>
<g id="a_edge27_Node000020_Node000005"><a xlink:title=" ">
<path fill="none" stroke="#9a32cd" stroke-dasharray="5,2" d="M300.91,-225.8C310.44,-220.8 319.66,-214.17 326,-205.5 354.22,-166.93 309.57,-132.63 344,-99.5 350.5,-93.25 457.28,-81.23 525.43,-74.14"/>
<polygon fill="#9a32cd" stroke="#9a32cd" points="299.31,-222.68 291.75,-230.1 302.29,-229.02 299.31,-222.68"/>
</a>
</g>
<text text-anchor="start" x="401" y="-105" font-family="Helvetica,sans-Serif" font-size="10.00" fill="grey">keys</text>
</g>
<!-- Node23 -->
<g id="Node000023" class="node">
<title>Node23</title>
<g id="a_Node000023"><a xlink:href="structamr__wind_1_1_m_l_m_g_options.html" target="_top" xlink:title=" ">
<polygon fill="white" stroke="#666666" points="1119,-130 980,-130 980,-111 1119,-111 1119,-130"/>
<text text-anchor="middle" x="1049.5" y="-118" font-family="Helvetica,sans-Serif" font-size="10.00">amr_wind::MLMGOptions</text>
</a>
</g>
</g>
<!-- Node5&#45;&gt;Node23 -->
<g id="edge34_Node000023_Node000005" class="edge">
<title>Node5&#45;&gt;Node23</title>
<g id="a_edge34_Node000023_Node000005"><a xlink:title=" ">
<path fill="none" stroke="#9a32cd" stroke-dasharray="5,2" d="M294.94,-225.73C305.67,-220.45 317,-213.68 326,-205.5 336.95,-195.55 331.97,-186.1 344,-177.5 401.35,-136.5 428.17,-149.21 498,-139.5 670.15,-115.55 875.34,-116.03 979.88,-118.32"/>
<polygon fill="#9a32cd" stroke="#9a32cd" points="293.35,-222.62 285.75,-230 296.3,-228.97 293.35,-222.62"/>
</a>
</g>
<text text-anchor="start" x="526.5" y="-175" font-family="Helvetica,sans-Serif" font-size="10.00" fill="grey">m_bottom_solver_type</text>
<text text-anchor="start" x="526.5" y="-160" font-family="Helvetica,sans-Serif" font-size="10.00" fill="grey">m_hypre_interface</text>
<text text-anchor="start" x="526.5" y="-145" font-family="Helvetica,sans-Serif" font-size="10.00" fill="grey">m_hypre_namespace</text>
</g>
<!-- Node6 -->
<g id="Node000006" class="node">
<title>Node6</title>
<g id="a_Node000006"><a xlink:title=" ">
<polygon fill="white" stroke="#666666" points="104,-254.5 0,-254.5 0,-224.5 104,-224.5 104,-254.5"/>
<text text-anchor="start" x="8" y="-242.5" font-family="Helvetica,sans-Serif" font-size="10.00">std::basic_string&lt;</text>
<text text-anchor="middle" x="52" y="-231.5" font-family="Helvetica,sans-Serif" font-size="10.00"> Char &gt;</text>
</a>
</g>
</g>
<!-- Node6&#45;&gt;Node5 -->
<g id="edge5_Node000005_Node000006" class="edge">
<title>Node6&#45;&gt;Node5</title>
<g id="a_edge5_Node000005_Node000006"><a xlink:title=" ">
<path fill="none" stroke="#63b8ff" d="M114.34,-239.5C151.17,-239.5 196.49,-239.5 226.26,-239.5"/>
<polygon fill="#63b8ff" stroke="#63b8ff" points="114.2,-236 104.2,-239.5 114.2,-243 114.2,-236"/>
</a>
</g>
</g>
<!-- Node7 -->
<g id="Node000007" class="node">
<title>Node7</title>
<g id="a_Node000007"><a xlink:title=" ">
<polygon fill="white" stroke="#666666" points="316,-196.5 202,-196.5 202,-166.5 316,-166.5 316,-196.5"/>
<text text-anchor="start" x="210" y="-184.5" font-family="Helvetica,sans-Serif" font-size="10.00">std::unordered_map</text>
<text text-anchor="middle" x="259" y="-173.5" font-family="Helvetica,sans-Serif" font-size="10.00">&lt; K, T &gt;</text>
</a>
</g>
</g>
<!-- Node7&#45;&gt;Node4 -->
<g id="edge6_Node000004_Node000007" class="edge">
<title>Node7&#45;&gt;Node4</title>
<g id="a_edge6_Node000004_Node000007"><a xlink:title=" ">
<path fill="none" stroke="orange" stroke-dasharray="5,2" d="M326.48,-181.57C370.23,-182.26 428.69,-184.43 480,-190.5 493.47,-192.09 507.82,-194.49 521.36,-197.07"/>
<polygon fill="orange" stroke="orange" points="326.3,-178.06 316.25,-181.43 326.2,-185.06 326.3,-178.06"/>
</a>
</g>
<text text-anchor="start" x="359" y="-196" font-family="Helvetica,sans-Serif" font-size="10.00" fill="grey">&lt; std::string, size_t &gt;</text>
</g>
<!-- Node7&#45;&gt;Node20 -->
<g id="edge28_Node000020_Node000007" class="edge">
<title>Node7&#45;&gt;Node20</title>
<g id="a_edge28_Node000020_Node000007"><a xlink:title=" ">
<path fill="none" stroke="orange" stroke-dasharray="5,2" d="M268.79,-156.77C280.71,-127.44 305.11,-79.94 344,-59.5 403.54,-28.21 483.54,-40.41 533.81,-53.41"/>
<polygon fill="orange" stroke="orange" points="265.44,-155.73 265.09,-166.32 271.97,-158.26 265.44,-155.73"/>
</a>
</g>
<text text-anchor="start" x="367" y="-65" font-family="Helvetica,sans-Serif" font-size="10.00" fill="grey">&lt; std::string, int &gt;</text>
</g>
<!-- Node8 -->
<g id="Node000008" class="node">
<title>Node8</title>
<g id="a_Node000008"><a xlink:title=" ">
<polygon fill="white" stroke="#666666" points="66.5,-191 37.5,-191 37.5,-172 66.5,-172 66.5,-191"/>
<text text-anchor="middle" x="52" y="-179" font-family="Helvetica,sans-Serif" font-size="10.00">K</text>
</a>
</g>
</g>
<!-- Node8&#45;&gt;Node7 -->
<g id="edge7_Node000007_Node000008" class="edge">
<title>Node8&#45;&gt;Node7</title>
<g id="a_edge7_Node000007_Node000008"><a xlink:title=" ">
<path fill="none" stroke="#9a32cd" stroke-dasharray="5,2" d="M76.84,-181.5C107.18,-181.5 160.57,-181.5 201.56,-181.5"/>
<polygon fill="#9a32cd" stroke="#9a32cd" points="76.77,-178 66.77,-181.5 76.77,-185 76.77,-178"/>
</a>
</g>
<text text-anchor="start" x="137" y="-187" font-family="Helvetica,sans-Serif" font-size="10.00" fill="grey">keys</text>
</g>
<!-- Node9 -->
<g id="Node000009" class="node">
<title>Node9</title>
<g id="a_Node000009"><a xlink:title=" ">
<polygon fill="white" stroke="#666666" points="66.5,-397 37.5,-397 37.5,-378 66.5,-378 66.5,-397"/>
<text text-anchor="middle" x="52" y="-385" font-family="Helvetica,sans-Serif" font-size="10.00">T</text>
</a>
</g>
</g>
<!-- Node9&#45;&gt;Node7 -->
<g id="edge8_Node000007_Node000009" class="edge">
<title>Node9&#45;&gt;Node7</title>
<g id="a_edge8_Node000007_Node000009"><a xlink:title=" ">
<path fill="none" stroke="#9a32cd" stroke-dasharray="5,2" d="M65.07,-369.48C87.37,-337.09 137.74,-268.07 192,-221.5 203.08,-211.99 216.69,-203.32 228.67,-196.51"/>
<polygon fill="#9a32cd" stroke="#9a32cd" points="62.04,-367.71 59.31,-377.94 67.83,-371.64 62.04,-367.71"/>
</a>
</g>
<text text-anchor="start" x="125" y="-299" font-family="Helvetica,sans-Serif" font-size="10.00" fill="grey">elements</text>
</g>
<!-- Node15 -->
<g id="Node000015" class="node">
<title>Node15</title>
<g id="a_Node000015"><a xlink:title=" ">
<polygon fill="white" stroke="#666666" points="318,-397 200,-397 200,-378 318,-378 318,-397"/>
<text text-anchor="middle" x="259" y="-385" font-family="Helvetica,sans-Serif" font-size="10.00">std::unique_ptr&lt; T &gt;</text>
</a>
</g>
</g>
<!-- Node9&#45;&gt;Node15 -->
<g id="edge18_Node000015_Node000009" class="edge">
<title>Node9&#45;&gt;Node15</title>
<g id="a_edge18_Node000015_Node000009"><a xlink:title=" ">
<path fill="none" stroke="#9a32cd" stroke-dasharray="5,2" d="M77.09,-387.5C107.02,-387.5 159.1,-387.5 199.72,-387.5"/>
<polygon fill="#9a32cd" stroke="#9a32cd" points="76.77,-384 66.77,-387.5 76.77,-391 76.77,-384"/>
</a>
</g>
<text text-anchor="start" x="141" y="-393" font-family="Helvetica,sans-Serif" font-size="10.00" fill="grey">ptr</text>
</g>
<!-- Node16 -->
<g id="Node000016" class="node">
<title>Node16</title>
<g id="a_Node000016"><a xlink:title=" ">
<polygon fill="white" stroke="#666666" points="471,-515 353,-515 353,-496 471,-496 471,-515"/>
<text text-anchor="middle" x="412" y="-503" font-family="Helvetica,sans-Serif" font-size="10.00">std::shared_ptr&lt; T &gt;</text>
</a>
</g>
</g>
<!-- Node9&#45;&gt;Node16 -->
<g id="edge20_Node000016_Node000009" class="edge">
<title>Node9&#45;&gt;Node16</title>
<g id="a_edge20_Node000016_Node000009"><a xlink:title=" ">
<path fill="none" stroke="#9a32cd" stroke-dasharray="5,2" d="M69.74,-404.09C94.22,-427.17 142.29,-468.2 192,-486.5 244.11,-505.68 307.73,-509.2 352.94,-508.66"/>
<polygon fill="#9a32cd" stroke="#9a32cd" points="72.01,-401.42 62.38,-397.01 67.16,-406.46 72.01,-401.42"/>
</a>
</g>
<text text-anchor="start" x="141" y="-484" font-family="Helvetica,sans-Serif" font-size="10.00" fill="grey">ptr</text>
</g>
<!-- Node10&#45;&gt;Node1 -->
<g id="edge21_Node000001_Node000010" class="edge">
<title>Node10&#45;&gt;Node1</title>
<g id="a_edge21_Node000001_Node000010"><a xlink:title=" ">
<path fill="none" stroke="#9a32cd" stroke-dasharray="5,2" d="M1562.52,-237.31C1575.77,-235.27 1589.87,-233.21 1603,-231.5 1747.99,-212.61 1919.19,-211.03 2014.97,-211.99"/>
<polygon fill="#9a32cd" stroke="#9a32cd" points="1561.92,-233.87 1552.57,-238.86 1562.99,-240.78 1561.92,-233.87"/>
</a>
</g>
<text text-anchor="start" x="1748.5" y="-258" font-family="Helvetica,sans-Serif" font-size="10.00" fill="grey">u_mac</text>
<text text-anchor="start" x="1748.5" y="-243" font-family="Helvetica,sans-Serif" font-size="10.00" fill="grey">v_mac</text>
<text text-anchor="start" x="1748.5" y="-228" font-family="Helvetica,sans-Serif" font-size="10.00" fill="grey">w_mac</text>
</g>
<!-- Node10&#45;&gt;Node2 -->
<g id="edge9_Node000002_Node000010" class="edge">
<title>Node10&#45;&gt;Node2</title>
<g id="a_edge9_Node000002_Node000010"><a xlink:title=" ">
<path fill="none" stroke="#9a32cd" stroke-dasharray="5,2" d="M1563.15,-237.11C1593.25,-234.5 1630.27,-235.17 1661,-247.5 1671.21,-251.6 1669.42,-259.08 1679,-264.5 1690,-270.73 1702.73,-275.43 1714.94,-278.94"/>
<polygon fill="#9a32cd" stroke="#9a32cd" points="1562.42,-233.66 1552.82,-238.15 1563.12,-240.63 1562.42,-233.66"/>
</a>
</g>
<text text-anchor="start" x="1606" y="-313" font-family="Helvetica,sans-Serif" font-size="10.00" fill="grey">conv_term</text>
<text text-anchor="start" x="1606" y="-298" font-family="Helvetica,sans-Serif" font-size="10.00" fill="grey">diff_term</text>
<text text-anchor="start" x="1606" y="-283" font-family="Helvetica,sans-Serif" font-size="10.00" fill="grey">field</text>
<text text-anchor="start" x="1606" y="-268" font-family="Helvetica,sans-Serif" font-size="10.00" fill="grey">mueff</text>
<text text-anchor="start" x="1606" y="-253" font-family="Helvetica,sans-Serif" font-size="10.00" fill="grey">src_term</text>
</g>
<!-- Node11 -->
<g id="Node000011" class="node">
<title>Node11</title>
<g id="a_Node000011"><a xlink:title=" ">
<polygon fill="white" stroke="#666666" points="1294.5,-492.5 1174.5,-492.5 1174.5,-462.5 1294.5,-462.5 1294.5,-492.5"/>
<text text-anchor="start" x="1182.5" y="-480.5" font-family="Helvetica,sans-Serif" font-size="10.00">std::shared_ptr&lt; amr</text>
<text text-anchor="middle" x="1234.5" y="-469.5" font-family="Helvetica,sans-Serif" font-size="10.00">_wind::FieldInfo &gt;</text>
</a>
</g>
</g>
<!-- Node11&#45;&gt;Node10 -->
<g id="edge12_Node000010_Node000011" class="edge">
<title>Node11&#45;&gt;Node10</title>
<g id="a_edge12_Node000010_Node000011"><a xlink:title=" ">
<path fill="none" stroke="#9a32cd" stroke-dasharray="5,2" d="M1304.26,-462.19C1313.98,-458.52 1323.54,-454.02 1332,-448.5 1415.05,-394.33 1480.27,-288.67 1499.03,-256.22"/>
<polygon fill="#9a32cd" stroke="#9a32cd" points="1302.81,-458.99 1294.51,-465.59 1305.11,-465.6 1302.81,-458.99"/>
</a>
</g>
<text text-anchor="start" x="1362" y="-437" font-family="Helvetica,sans-Serif" font-size="10.00" fill="grey">m_info</text>
</g>
<!-- Node12&#45;&gt;Node11 -->
<g id="edge13_Node000011_Node000012" class="edge">
<title>Node12&#45;&gt;Node11</title>
<g id="a_edge13_Node000011_Node000012"><a xlink:title=" ">
<path fill="none" stroke="#9a32cd" stroke-dasharray="5,2" d="M964.49,-467.86C1025.54,-470.05 1115.49,-473.27 1174.28,-475.38"/>
<polygon fill="#9a32cd" stroke="#9a32cd" points="964.31,-464.36 954.19,-467.5 964.06,-471.35 964.31,-464.36"/>
</a>
</g>
<text text-anchor="start" x="1042.5" y="-478" font-family="Helvetica,sans-Serif" font-size="10.00" fill="grey">ptr</text>
</g>
<!-- Node13 -->
<g id="Node000013" class="node">
<title>Node13</title>
<g id="a_Node000013"><a xlink:title=" ">
<polygon fill="white" stroke="#666666" points="667,-477.5 498,-477.5 498,-447.5 667,-447.5 667,-477.5"/>
<text text-anchor="start" x="506" y="-465.5" font-family="Helvetica,sans-Serif" font-size="10.00">std::unique_ptr&lt; amr</text>
<text text-anchor="middle" x="582.5" y="-454.5" font-family="Helvetica,sans-Serif" font-size="10.00">_wind::FieldFillPatchOpsBase &gt;</text>
</a>
</g>
</g>
<!-- Node13&#45;&gt;Node12 -->
<g id="edge15_Node000012_Node000013" class="edge">
<title>Node13&#45;&gt;Node12</title>
<g id="a_edge15_Node000012_Node000013"><a xlink:title=" ">
<path fill="none" stroke="#9a32cd" stroke-dasharray="5,2" d="M677.5,-463.4C730.66,-463.91 795.33,-464.53 840.56,-464.96"/>
<polygon fill="#9a32cd" stroke="#9a32cd" points="677.41,-459.9 667.38,-463.3 677.34,-466.9 677.41,-459.9"/>
</a>
</g>
<text text-anchor="start" x="714" y="-470" font-family="Helvetica,sans-Serif" font-size="10.00" fill="grey">m_fillpatch_op</text>
</g>
<!-- Node14 -->
<g id="Node000014" class="node">
<title>Node14</title>
<g id="a_Node000014"><a xlink:href="classamr__wind_1_1_field_fill_patch_ops_base.html" target="_top" xlink:title=" ">
<polygon fill="white" stroke="#666666" points="326,-477.5 192,-477.5 192,-447.5 326,-447.5 326,-477.5"/>
<text text-anchor="start" x="200" y="-465.5" font-family="Helvetica,sans-Serif" font-size="10.00">amr_wind::FieldFillPatch</text>
<text text-anchor="middle" x="259" y="-454.5" font-family="Helvetica,sans-Serif" font-size="10.00">OpsBase</text>
</a>
</g>
</g>
<!-- Node14&#45;&gt;Node13 -->
<g id="edge16_Node000013_Node000014" class="edge">
<title>Node14&#45;&gt;Node13</title>
<g id="a_edge16_Node000013_Node000014"><a xlink:title=" ">
<path fill="none" stroke="#9a32cd" stroke-dasharray="5,2" d="M336.37,-462.5C384.97,-462.5 447.94,-462.5 497.88,-462.5"/>
<polygon fill="#9a32cd" stroke="#9a32cd" points="336.23,-459 326.23,-462.5 336.23,-466 336.23,-459"/>
</a>
</g>
<text text-anchor="start" x="405" y="-468" font-family="Helvetica,sans-Serif" font-size="10.00" fill="grey">ptr</text>
</g>
<!-- Node15&#45;&gt;Node13 -->
<g id="edge17_Node000013_Node000015" class="edge">
<title>Node15&#45;&gt;Node13</title>
<g id="a_edge17_Node000013_Node000015"><a xlink:title=" ">
<path fill="none" stroke="orange" stroke-dasharray="5,2" d="M328.11,-396.07C371.97,-402.44 429.93,-412.47 480,-426.5 488.27,-428.82 489.94,-430.54 498,-433.5 510.67,-438.16 524.5,-443.05 537.19,-447.45"/>
<polygon fill="orange" stroke="orange" points="328.53,-392.59 318.13,-394.64 327.54,-399.52 328.53,-392.59"/>
</a>
</g>
<text text-anchor="start" x="347" y="-447.5" font-family="Helvetica,sans-Serif" font-size="10.00" fill="grey">&lt; amr_wind::FieldFillPatch</text>
<text text-anchor="start" x="347" y="-432.5" font-family="Helvetica,sans-Serif" font-size="10.00" fill="grey">  OpsBase &gt;</text>
</g>
<!-- Node22 -->
<g id="Node000022" class="node">
<title>Node22</title>
<g id="a_Node000022"><a xlink:title=" ">
<polygon fill="white" stroke="#666666" points="815,-389.5 685,-389.5 685,-359.5 815,-359.5 815,-389.5"/>
<text text-anchor="start" x="693" y="-377.5" font-family="Helvetica,sans-Serif" font-size="10.00">std::unique_ptr&lt; Hydro</text>
<text text-anchor="middle" x="750" y="-366.5" font-family="Helvetica,sans-Serif" font-size="10.00">::MacProjector &gt;</text>
</a>
</g>
</g>
<!-- Node15&#45;&gt;Node22 -->
<g id="edge32_Node000022_Node000015" class="edge">
<title>Node15&#45;&gt;Node22</title>
<g id="a_edge32_Node000022_Node000015"><a xlink:title=" ">
<path fill="none" stroke="orange" stroke-dasharray="5,2" d="M328.37,-378.72C333.65,-378.24 338.91,-377.82 344,-377.5 464.17,-369.93 604.8,-371.14 684.74,-372.78"/>
<polygon fill="orange" stroke="orange" points="327.83,-375.26 318.22,-379.72 328.51,-382.22 327.83,-375.26"/>
</a>
</g>
<text text-anchor="start" x="351" y="-383" font-family="Helvetica,sans-Serif" font-size="10.00" fill="grey">&lt; Hydro::MacProjector &gt;</text>
</g>
<!-- Node16&#45;&gt;Node11 -->
<g id="edge19_Node000011_Node000016" class="edge">
<title>Node16&#45;&gt;Node11</title>
<g id="a_edge19_Node000011_Node000016"><a xlink:title=" ">
<path fill="none" stroke="orange" stroke-dasharray="5,2" d="M481.49,-506.45C607.73,-507.7 885.57,-508.04 1119,-491.5 1137.08,-490.22 1156.68,-488.09 1174.48,-485.88"/>
<polygon fill="orange" stroke="orange" points="481.24,-502.95 471.21,-506.35 481.17,-509.95 481.24,-502.95"/>
</a>
</g>
<text text-anchor="start" x="691" y="-512" font-family="Helvetica,sans-Serif" font-size="10.00" fill="grey">&lt; amr_wind::FieldInfo &gt;</text>
</g>
<!-- Node17&#45;&gt;Node1 -->
<g id="edge22_Node000001_Node000017" class="edge">
<title>Node17&#45;&gt;Node1</title>
<g id="a_edge22_Node000001_Node000017"><a xlink:title=" ">
<path fill="none" stroke="#9a32cd" stroke-dasharray="5,2" d="M1849.15,-157.66C1893.38,-162.94 1948.56,-171.01 1997,-182.5 2014.63,-186.68 2033.69,-192.78 2049.89,-198.47"/>
<polygon fill="#9a32cd" stroke="#9a32cd" points="1849.37,-154.16 1839.03,-156.47 1848.55,-161.11 1849.37,-154.16"/>
</a>
</g>
<text text-anchor="start" x="1897.5" y="-188" font-family="Helvetica,sans-Serif" font-size="10.00" fill="grey">m_macproj_op</text>
</g>
<!-- Node18 -->
<g id="Node000018" class="node">
<title>Node18</title>
<g id="a_Node000018"><a xlink:href="classamr__wind_1_1_field_boundary_mgr.html" target="_top" xlink:title=" ">
<polygon fill="white" stroke="#666666" points="1585,-60 1426,-60 1426,-41 1585,-41 1585,-60"/>
<text text-anchor="middle" x="1505.5" y="-48" font-family="Helvetica,sans-Serif" font-size="10.00">amr_wind::FieldBoundaryMgr</text>
</a>
</g>
</g>
<!-- Node18&#45;&gt;Node17 -->
<g id="edge24_Node000017_Node000018" class="edge">
<title>Node18&#45;&gt;Node17</title>
<g id="a_edge24_Node000017_Node000018"><a xlink:title=" ">
<path fill="none" stroke="#9a32cd" stroke-dasharray="5,2" d="M1554.38,-39.31C1587.91,-34.45 1631.78,-34.44 1661,-58.5 1686.47,-79.46 1655.37,-107.49 1679,-130.5 1682.92,-134.32 1687.43,-137.44 1692.28,-139.98"/>
<polygon fill="#9a32cd" stroke="#9a32cd" points="1553.63,-35.89 1544.33,-40.96 1554.76,-42.8 1553.63,-35.89"/>
</a>
</g>
<text text-anchor="start" x="1607" y="-64" font-family="Helvetica,sans-Serif" font-size="10.00" fill="grey">m_fb_mgr</text>
</g>
<!-- Node19 -->
<g id="Node000019" class="node">
<title>Node19</title>
<g id="a_Node000019"><a xlink:href="classamr__wind_1_1_coll_mgr.html" target="_top" xlink:title=" ">
<polygon fill="white" stroke="#666666" points="1332,-61.5 1137,-61.5 1137,-31.5 1332,-31.5 1332,-61.5"/>
<text text-anchor="start" x="1145" y="-49.5" font-family="Helvetica,sans-Serif" font-size="10.00">amr_wind::CollMgr&lt;</text>
<text text-anchor="middle" x="1234.5" y="-38.5" font-family="Helvetica,sans-Serif" font-size="10.00"> FieldBoundaryMgr, FieldBoundary &gt;</text>
</a>
</g>
</g>
<!-- Node19&#45;&gt;Node18 -->
<g id="edge25_Node000018_Node000019" class="edge">
<title>Node19&#45;&gt;Node18</title>
<g id="a_edge25_Node000018_Node000019"><a xlink:title=" ">
<path fill="none" stroke="#63b8ff" d="M1342.41,-48.09C1370.26,-48.5 1399.76,-48.94 1425.84,-49.33"/>
<polygon fill="#63b8ff" stroke="#63b8ff" points="1342.29,-44.59 1332.24,-47.94 1342.18,-51.59 1342.29,-44.59"/>
</a>
</g>
</g>
<!-- Node20&#45;&gt;Node19 -->
<g id="edge26_Node000019_Node000020" class="edge">
<title>Node20&#45;&gt;Node19</title>
<g id="a_edge26_Node000019_Node000020"><a xlink:title=" ">
<path fill="none" stroke="#9a32cd" stroke-dasharray="5,2" d="M649.58,-70.81C750.82,-73.69 950.31,-76.75 1119,-63.5 1125.71,-62.97 1132.63,-62.29 1139.58,-61.51"/>
<polygon fill="#9a32cd" stroke="#9a32cd" points="649.6,-67.31 639.5,-70.51 649.4,-74.3 649.6,-67.31"/>
</a>
</g>
<text text-anchor="start" x="868.5" y="-79" font-family="Helvetica,sans-Serif" font-size="10.00" fill="grey">m_obj_map</text>
</g>
<!-- Node21 -->
<g id="Node000021" class="node">
<title>Node21</title>
<g id="a_Node000021"><a xlink:href="classamr__wind_1_1_coll_mgr.html" target="_top" xlink:title=" ">
<polygon fill="white" stroke="#666666" points="962,-41 833,-41 833,0 962,0 962,-41"/>
<text text-anchor="start" x="841" y="-29" font-family="Helvetica,sans-Serif" font-size="10.00">amr_wind::CollMgr&lt;</text>
<text text-anchor="start" x="841" y="-18" font-family="Helvetica,sans-Serif" font-size="10.00"> Collection, Type, allow</text>
<text text-anchor="middle" x="897.5" y="-7" font-family="Helvetica,sans-Serif" font-size="10.00">_duplicates &gt;</text>
</a>
</g>
</g>
<!-- Node20&#45;&gt;Node21 -->
<g id="edge30_Node000021_Node000020" class="edge">
<title>Node20&#45;&gt;Node21</title>
<g id="a_edge30_Node000021_Node000020"><a xlink:title=" ">
<path fill="none" stroke="#9a32cd" stroke-dasharray="5,2" d="M649.48,-53.29C661.27,-50.83 673.47,-48.45 685,-46.5 734.42,-38.12 790.78,-31.33 832.88,-26.79"/>
<polygon fill="#9a32cd" stroke="#9a32cd" points="648.75,-49.86 639.7,-55.36 650.2,-56.71 648.75,-49.86"/>
</a>
</g>
<text text-anchor="start" x="721" y="-52" font-family="Helvetica,sans-Serif" font-size="10.00" fill="grey">m_obj_map</text>
</g>
<!-- Node21&#45;&gt;Node19 -->
<g id="edge29_Node000019_Node000021" class="edge">
<title>Node21&#45;&gt;Node19</title>
<g id="a_edge29_Node000019_Node000021"><a xlink:title=" ">
<path fill="none" stroke="orange" stroke-dasharray="5,2" d="M972.35,-22.7C1015.22,-24.35 1070.23,-27.1 1119,-31.5 1124.79,-32.02 1130.74,-32.62 1136.73,-33.27"/>
<polygon fill="orange" stroke="orange" points="972.4,-19.2 962.28,-22.32 972.14,-26.2 972.4,-19.2"/>
</a>
</g>
<text text-anchor="start" x="998.5" y="-52.5" font-family="Helvetica,sans-Serif" font-size="10.00" fill="grey">&lt; FieldBoundaryMgr,</text>
<text text-anchor="start" x="998.5" y="-37.5" font-family="Helvetica,sans-Serif" font-size="10.00" fill="grey">   FieldBoundary &gt;</text>
</g>
<!-- Node22&#45;&gt;Node17 -->
<g id="edge31_Node000017_Node000022" class="edge">
<title>Node22&#45;&gt;Node17</title>
<g id="a_edge31_Node000017_Node000022"><a xlink:title=" ">
<path fill="none" stroke="#9a32cd" stroke-dasharray="5,2" d="M824.94,-384.87C973.34,-404.56 1302.3,-442.25 1408,-405.5 1502.74,-372.56 1520.83,-342.58 1585,-265.5 1595.94,-252.36 1590.81,-243.49 1603,-231.5 1640.34,-194.8 1697.42,-171.15 1732.77,-159.1"/>
<polygon fill="#9a32cd" stroke="#9a32cd" points="825.38,-381.39 815,-383.54 824.45,-388.33 825.38,-381.39"/>
</a>
</g>
<text text-anchor="start" x="1204.5" y="-426" font-family="Helvetica,sans-Serif" font-size="10.00" fill="grey">m_mac_proj</text>
</g>
<!-- Node23&#45;&gt;Node17 -->
<g id="edge33_Node000017_Node000023" class="edge">
<title>Node23&#45;&gt;Node17</title>
<g id="a_edge33_Node000017_Node000023"><a xlink:title=" ">
<path fill="none" stroke="#9a32cd" stroke-dasharray="5,2" d="M1129.48,-121.3C1245.92,-122.86 1470.45,-127.29 1661,-139.5 1671,-140.14 1681.53,-140.97 1691.88,-141.88"/>
<polygon fill="#9a32cd" stroke="#9a32cd" points="1129.28,-117.8 1119.24,-121.17 1129.19,-124.8 1129.28,-117.8"/>
</a>
</g>
<text text-anchor="start" x="1353" y="-133" font-family="Helvetica,sans-Serif" font-size="10.00" fill="grey">m_options</text>
</g>
<!-- Node24 -->
<g id="Node000024" class="node">
<title>Node24</title>
<g id="a_Node000024"><a xlink:href="structamr__wind_1_1pde_1_1_advection_op.html" target="_top" xlink:title=" ">
<polygon fill="white" stroke="#666666" points="1852,-121.5 1679,-121.5 1679,-91.5 1852,-91.5 1852,-121.5"/>
<text text-anchor="start" x="1687" y="-109.5" font-family="Helvetica,sans-Serif" font-size="10.00">amr_wind::pde::Advection</text>
<text text-anchor="middle" x="1765.5" y="-98.5" font-family="Helvetica,sans-Serif" font-size="10.00">Op&lt; PDE, Scheme, typename &gt;</text>
</a>
</g>
</g>
<!-- Node24&#45;&gt;Node1 -->
<g id="edge36_Node000001_Node000024" class="edge">
<title>Node24&#45;&gt;Node1</title>
<g id="a_edge36_Node000001_Node000024"><a xlink:title=" ">
<path fill="none" stroke="orange" stroke-dasharray="5,2" d="M1862.17,-109.48C1904.84,-113.58 1954.88,-122.33 1997,-140.5 2028.56,-154.11 2058.53,-181.3 2075.41,-198.38"/>
<polygon fill="orange" stroke="orange" points="1862.33,-105.98 1852.05,-108.58 1861.7,-112.95 1862.33,-105.98"/>
</a>
</g>
<text text-anchor="start" x="1873.5" y="-146" font-family="Helvetica,sans-Serif" font-size="10.00" fill="grey">&lt; ICNS, fvm::Godunov &gt;</text>
</g>
</g>
</svg>
